<?xml version="1.0" encoding="iso-8859-1"?>
<!-- Generator: Adobe Illustrator 21.1.0, SVG Export Plug-In . SVG Version: 6.00 Build 0)  -->
<svg version="1.1" id="_x31_0" xmlns="http://www.w3.org/2000/svg" xmlns:xlink="http://www.w3.org/1999/xlink" x="0px" y="0px"
	 viewBox="0 0 512 512" style="enable-background:new 0 0 512 512;" xml:space="preserve">
<g>
	<path style="fill:#34AD37;" d="M154.595,49.318c-1.852-8.643,1.852-29.015,8.643-33.336c6.791-4.321,14.199-1.852,19.755,4.321
		c5.556,6.173,11.729,14.816,19.137,16.668c7.408,1.852,19.137-1.235,20.372-4.321c1.235-3.087,6.173-25.311,9.877-29.015
		c3.704-3.704,12.964,0,23.459,11.112c10.495,11.112,20.372,21.607,23.458,23.459c3.087,1.852,31.484,25.311,42.596,36.422
		c11.112,11.112,21.607,22.841,21.607,22.841s50.004,29.015,81.488,78.401c31.484,49.387,30.867,90.748,30.249,96.304
		c-0.617,5.556-4.321,14.816-4.321,14.816s3.704,2.469,3.087,17.903c-0.617,15.433-17.903,55.56-4.939,80.253
		c12.964,24.693,22.841,38.275,29.015,51.238c6.173,12.964-0.434,51.109-34.57,49.387c-21.607,1.852-27.163,1.852-43.831-1.235
		c-16.668-3.087-24.076-6.791-13.581-6.173c10.495,0.617,19.137-1.235,16.668-1.235s-22.841-6.173-22.224-9.26
		c0.617-3.087,9.642,2.456,14.816,1.852c5.174-0.604-16.668-6.173-8.643-6.173s21.607-1.235,33.336-4.939
		c11.729-3.704,13.581-12.347,8.643-20.989c-4.939-8.643-26.545-22.841-40.744-43.213c-14.199-20.372-33.336-48.152-19.137-70.376
		c2.469-12.347-34.139,2.742-41.978,15.433c-7.84,12.691-30.867,40.126-11.729,64.82c19.137,24.693,32.101,46.3,32.101,61.733
		c0,15.433-21.606,32.719-32.101,37.04c-10.495,4.321-30.249,7.408-39.509,5.556c-9.26-1.852-10.427-1.769-25.311-8.025
		c-14.883-6.256-16.668-10.495-8.025-8.643c8.643,1.852,21.607,3.087,18.52,1.235c-3.087-1.852-17.903-9.26-25.31-11.112
		c-7.408-1.852,11.729-8.025,34.57,1.852c-10.495-6.791-19.137-10.495-10.495-9.26c8.643,1.235,19.754,7.408,26.545,6.791
		c6.791-0.617,19.755-4.321,19.755-12.964c0-8.643-1.235-17.285-17.285-27.162c-16.051-9.877-29.014-21.607-50.621-35.805
		c-21.607-14.199-25.311-42.596-22.224-60.499c3.087-17.902,22.841-50.621,22.841-50.621s-20.372-19.755-29.632-35.805
		c-9.26-16.051-13.581-37.657-13.581-37.657s-35.188,29.015-55.56,38.892c-20.372,9.877-48.152,17.285-55.56,25.928
		c-7.408,8.643-20.372,22.224-24.693,27.78s-3.391-13.44,1.235-20.372c4.625-6.932-15.433,10.495-19.755,17.285
		c-4.321,6.791-6.173-12.347,8.025-24.693c-1.852-1.852-15.433,8.025-17.902,11.112c-2.469,3.087-3.704-7.408,7.408-19.137
		c11.112-11.729,15.433-11.729,15.433-11.729s-1.235-3.087-9.877-3.087s-2.469-5.556,9.26-8.643c11.729-3.087,21.606,0,21.606,0
		s40.744-24.693,49.386-32.101c8.643-7.408,39.509-41.979,48.152-53.09c8.643-11.112-3.704-41.361-3.704-43.83
		c0-2.469-22.841-27.78-30.249-25.311c-7.408,2.469-15.433,5.556-27.78,2.469c-12.347-3.087,4.939-21.607,14.816-29.632
		s25.311-17.903,25.311-17.903L154.595,49.318z"/>
	<path style="fill:#FFFFFF;" d="M186.696,107.347c4.939,4.321,2.469,10.495-1.235,14.816c-3.704,4.321,2.469,12.347,6.173,14.199
		c3.704,1.852,0,6.791-5.556,11.729c-5.556,4.939-9.877,11.112-9.877,11.112s-5.556-28.397-16.668-38.275
		c-11.112-9.877-26.545-17.903-26.545-17.903s16.668-3.704,30.249-3.087C176.818,100.556,186.696,107.347,186.696,107.347z"/>
	<path style="fill:#FFFFFF;" d="M214.476,209.824c9.877,9.26,33.336,86.426,23.459,82.105c-9.877-4.321-35.188-40.127-38.892-55.56
		c-3.704-15.433-1.235-16.668-0.617-18.52S210.772,202.416,214.476,209.824z"/>
	<path style="fill:#FFFFFF;" d="M255.837,214.145c-2.469,6.791-3.704,20.989,3.704,19.755
		C266.949,232.665,255.837,214.145,255.837,214.145z"/>
	<path style="fill:#FFFFFF;" d="M141.013,226.492c6.173,7.408,8.643,17.285,3.087,18.52
		C138.544,246.246,138.544,237.604,141.013,226.492z"/>
	<path style="fill:#FFFFFF;" d="M160.768,64.134c5.556,4.939,9.26,19.137,2.469,18.52C156.447,82.036,160.768,64.134,160.768,64.134
		z"/>
	<path style="fill:#FFFFFF;" d="M215.71,67.22c-3.704,6.173-5.526,16.36,0,16.668C221.237,84.196,220.032,72.159,215.71,67.22z"/>
	<path style="fill:#FFFFFF;" d="M290.407,71.542c-3.704,5.556-1.852,17.285,3.704,14.816S290.407,71.542,290.407,71.542z"/>
	<path style="fill:#FFFFFF;" d="M259.541,126.484c6.173,8.643,6.791,18.52,0,17.285C252.75,142.535,259.541,126.484,259.541,126.484
		z"/>
	<path style="fill:#FFFFFF;" d="M355.844,199.329c4.321,6.173,10.402,17.699,7.408,22.224c-2.994,4.525-6.791-1.852-6.791-1.852
		L355.844,199.329z"/>
	<g>
		<path style="fill:#231815;" d="M153.201,30.327c1.36-11.071,9.123-23.036,21.852-19.219c7.911,2.372,14.266,9.54,19.469,15.588
			c2.21,2.569,4.305,5.226,6.412,7.879c0.713,0.898,3.281,5.089,3.9,5.143c-1.968-0.174-4.919-2.792-6.516-3.956
			c-2.774-2.024-5.268-4.412-7.695-6.832c-4.783-4.769-11.041-12.496-18.36-13.112c-6.01-0.506-11.394,3.684-13.056,9.229
			c-0.455,1.517-2.039,20.441-2.683,20.293C154.415,44.853,153.4,32.333,153.201,30.327z"/>
		<path style="fill:#231815;" d="M222.575,22.593c1.285-6.943,1.276-14.834,7.232-19.714c6.454-5.288,14.032-2.534,19.835,2.168
			c2.198,1.781,26.923,30.988,27.333,30.639c-1.083,0.922-8.184-4.241-9.08-4.935c-4.325-3.351-7.751-7.607-11.316-11.712
			c-5.262-6.06-15.245-18.726-24.113-11.37c-7.161,5.94-2.703,18.204-8.327,25.287c-1.221,1.537-3.302,3.387-5.419,3.393
			c-2.978,0.007-1.549-0.488-0.145-1.782C222.28,31.15,222.747,27.581,222.575,22.593z"/>
		<path style="fill:#231815;" d="M146.327,61.049c1.606-0.933,9.327-5.045,7.695-8.025c-1.773-3.237-10.753,1.681-12.444,2.614
			c-10.101,5.574-18.883,13.848-26.311,22.593c-5.236,6.165-17.635,21.994-5.146,27.56c4.994,2.226,11.625,0.657,16.754-0.318
			c5.813-1.106,11.611-2.876,17.51-3.47c10.374-1.044,22.106,0.316,31.969,3.716c1.644,0.567,9.647,4.596,11,2.269
			c1.777-3.055-5.67-6.847-7.525-7.673c-9.704-4.32-20.937-3.194-31.251-2.748c-8.848,0.382-17.327,3.141-26.042,4.51
			c-3.692,0.58-10.755,2.188-13.214-1.836c-2.687-4.397,2.718-10.838,5.308-13.991C123.121,75.917,134.786,67.648,146.327,61.049z"
			/>
		<path style="fill:#231815;" d="M140.796,103.341c11.551,5.898,21.195,15.248,27.842,26.348c3.356,5.604,5.981,11.727,7.251,18.155
			c0.412,2.089,0.719,4.237,0.739,6.37c0.01,1.075-1.07,5.127-0.835,5.494c-1.204-1.877-1.605-5.868-2.445-8.104
			c-1.231-3.28-2.47-6.568-3.858-9.786c-3.007-6.97-7.016-13.66-12.401-19.068c-4.113-4.131-8.199-8.593-13.078-11.817
			c-1.753-1.158-18.419-8.995-18.117-9.535C126.973,99.467,139.14,102.843,140.796,103.341z"/>
		<path style="fill:#231815;" d="M288.835,40.267c13.193,8.458,24.767,18.785,34.789,30.828c4.636,5.571,9.019,11.404,12.941,17.503
			c0.153,0.238,3.958,6.629,3.567,6.719c-0.526,0.121-3.959-3.095-4.452-3.475c-3.665-2.821-6.953-6.04-9.977-9.538
			c-4.178-4.833-8.202-9.775-12.73-14.295c-3.603-3.596-7.696-6.543-11.409-9.985c-7.456-6.912-15.209-12.003-23.763-17.504
			c-1.718-1.105-7.933-5.095-2.609-4.469C279.701,36.58,284.546,38.774,288.835,40.267z"/>
		<path style="fill:#231815;" d="M204.58,244.09c5.554,18.46,20.478,33.641,35.236,45.284c7.428,5.86,15.361,11.081,23.646,15.647
			c1.2,0.662,15.928,8.466,16.043,8.314c-0.36,0.475-5.764-0.627-6.561-0.731c-3.159-0.411-6.277-1.092-9.316-2.047
			c-7.873-2.473-14.944-6.78-21.728-11.393c-10.249-6.97-21.751-15.357-29.362-25.32c-8.113-10.621-16.042-25.135-16.911-38.587
			c-0.2-3.093-0.208-6.564,0.788-9.53c1.193-3.552,2.192-3.733,2.582,0.11C199.655,232.335,201.308,238.382,204.58,244.09z"/>
		<path style="fill:#231815;" d="M387.012,134.82c-13.761-12.855-29.245-23.284-43.469-35.509c-0.816-0.701-4.295-3.207-3.151-4.409
			c1.424-1.495,9.366,3.218,10.677,3.936c10.007,5.482,19.049,13.053,27.733,20.398c34.358,29.061,62.701,66.95,74.553,110.883
			c3.313,12.282,5.349,25.23,4.236,37.969c-0.511,5.846-1.697,11.859-4.265,17.174c-1.168,2.417-2.65,4.743-4.509,6.69
			c-0.432,0.452-5.223,3.557-5.172,3.381c0.534-1.837,3.874-4.45,4.922-6.197c2.181-3.634,3.395-7.748,4.07-11.908
			c1.285-7.921,0.618-16.12-0.739-23.985c-2.619-15.182-7.781-29.96-13.972-44.029C425.782,181.618,408.343,156.136,387.012,134.82z
			"/>
		<path style="fill:#231815;" d="M173.137,170.261c-7.892,9.546-15.25,19.527-23.241,28.992
			c-7.415,8.782-15.791,16.383-24.713,23.607c-9.5,7.693-19.402,14.983-29.866,21.317c-3.71,2.246-7.493,4.386-11.399,6.274
			c-1.291,0.624-10.45,3.697-10.471,3.853c0.114-0.818,6.665-4.413,7.461-5.009c4.577-3.426,9.088-6.939,13.671-10.357
			c13.078-9.754,26.274-19.271,38.098-30.569c18.165-17.358,30.922-39.896,49.277-56.964c1.354-1.259,3.266-3.457,5.077-4.026
			c3.707-1.164-0.256,2.678-1.348,4.089C181.076,157.417,177.039,163.835,173.137,170.261z"/>
		<path style="fill:#231815;" d="M235.223,310.488c1.227-2.106,8.77-14.157,5.23-16.647c-2.305-1.621-6.681,4.288-7.669,5.512
			c-10.621,13.154-17.49,30.77-19.742,47.445c-2.453,18.166,2.148,37.089,13.909,51.329c11.483,13.904,27.348,22.935,42.032,32.99
			c7.289,4.992,14.454,10.231,20.98,16.203c4.739,4.336,13.716,12.082,12.685,19.365c-1.06,7.487-12.434,7.905-17.352,11.473
			c-3.737,2.711-0.575,3.901,2.574,4.108c3.737,0.246,7.76-0.615,11.207-2.003c7.79-3.137,13.035-10.164,10.213-18.774
			c-2.618-7.989-10.084-13.907-16.41-18.96c-13.289-10.614-27.709-19.552-41.612-29.3c-16.609-11.646-30.386-25.835-32.526-46.924
			C216.738,346.567,225.617,327.177,235.223,310.488z"/>
		<path style="fill:#231815;" d="M392.935,315.439c3.974,0.906,8.17,0.506,12.071-0.538c2.673-0.715,5.902-2.849,8.676-3.029
			c0.189-0.012-2.98,3.632-3.244,3.809c-2.703,1.807-6.653,2.948-9.84,3.362c-1.703,0.221-13.689-0.9-12.641-3.012
			C388.235,315.47,392.072,315.599,392.935,315.439z"/>
		<path style="fill:#231815;" d="M443.926,346.096c2.035-10.878,5.013-21.434,7.455-32.214c1.076-4.749,1.911-9.57,2.11-14.443
			c0.07-1.714-1.232-8.369-0.005-9.675c0.972-1.035,3.351,6.876,3.46,7.506c0.638,3.706,0.492,7.535,0.014,11.25
			c-1.055,8.2-3.65,16.153-5.607,24.163c-3.989,16.334-7.484,32.358-1.072,48.47c10.638,26.729,44.874,54.564,29.126,86.151
			c-3.852,7.726-10.364,13.645-18.258,17.083c-3.537,1.54-7.276,2.568-11.122,2.927c-1.791,0.168-3.66,0.247-5.455,0.086
			c-0.371-0.033-3.204-0.788-3.287-0.743c2.119-1.156,6.916-0.604,9.327-1.126c2.952-0.639,5.851-1.586,8.561-2.932
			c5.521-2.743,10.373-6.876,13.73-12.07c8.546-13.222,5.034-29.391-1.712-42.526c-7.47-14.542-18.588-26.96-24.953-42.109
			C440.554,372.362,440.69,360.161,443.926,346.096z"/>
		<path style="fill:#231815;" d="M50.425,268.229c-5.351,0.407-10.387,3.237-14.078,7.034c-1.905,1.959-3.38,4.187-4.513,6.674
			c-0.466,1.023-1.35,5.385-2.336,6.037c-0.037,0.024-0.977-4.317-0.981-4.729c-0.028-3.032,1.331-5.681,3-8.139
			c2.44-3.593,5.94-7.249,10.039-8.837c3.686-1.428,8.917-2.927,12.805-1.91C60.726,266.024,52.763,267.017,50.425,268.229z"/>
		<path style="fill:#231815;" d="M51.067,282.194c-5.786,3.164-9.337,9.941-11.87,15.735c-1.329,3.041-2.449,6.168-3.457,9.328
			c-0.396,1.242-1.131,5.988-2.232,6.78c-0.388,0.279-0.476-9.627-0.272-10.48c1.118-4.675,3.098-9.327,5.205-13.641
			c1.635-3.348,3.904-5.77,6.714-8.222c1.837-1.602,10.021-7.8,12.514-4.073C58.068,278.219,50.579,280.704,51.067,282.194z"/>
		<path style="fill:#231815;" d="M64.727,291.543c-4.117,3.386-7.125,8.174-9.746,12.748c-1.266,2.209-2.433,4.476-3.548,6.765
			c-0.457,0.937-1.707,4.959-2.735,5.496c0.035-0.018-0.658-3.66-0.661-3.929c-0.022-2.407,0.915-4.639,1.883-6.791
			c1.704-3.789,3.55-8.259,6.262-11.432c2.416-2.827,5.791-6.715,9.203-8.168C71.016,283.833,65.811,289.391,64.727,291.543z"/>
		<path style="fill:#231815;" d="M133.054,265.457c17.777-8.634,35.214-18.522,50.263-31.422
			c6.455-5.533,12.66-11.337,19.277-16.681c6.412-5.179,15.573-11.108,20.044-18.158c1.53-2.413,1.418-4.344-1.806-4.247
			c-4.398,0.132-9.192,4.053-12.493,6.639c-5.976,4.683-10.592,10.533-15.695,16.078c-12.93,14.049-26.85,25.77-43.379,35.401
			c-7.482,4.36-15.176,8.298-23.103,11.783c-9.129,4.013-20.135,9.423-29.211,11.482c-8.786,1.993-18.469,11.021-24.93,17.929
			c-1.534,1.64-9.001,10.715-5.381,13.035c1.922,1.232,8.54-8.263,9.513-9.38c7.106-8.164,14.383-14.822,24.484-18.68
			C111.618,275.042,122.449,270.539,133.054,265.457z"/>
		<path style="fill:#231815;" d="M67.735,254.235c-4.208-1.171-8.805-1.035-13.119-0.768c-3.341,0.206-7.865,1.584-11.171,0.756
			c0.118,0.03,4.088-2.467,4.804-2.685c3.284-1.002,7.369-1.301,10.811-1.454c1.875-0.083,15.365,1.882,14.194,3.892
			C72.926,254.54,68.676,254.133,67.735,254.235z"/>
		<path style="fill:#231815;" d="M369.159,369.904c-3.872-7.629-6.853-16.003-7.265-24.614c-0.292-6.098,0.662-14.674,5.7-18.956
			c2.685-2.282,2.79-0.569,2.089,2.161c-0.76,2.959-1.617,5.843-2.016,8.887c-1.208,9.217,1.078,18.196,4.806,26.593
			c6.797,15.313,17.899,29.835,30.355,41.011c10.786,9.677,22.877,19.84,29.174,33.214c4.1,8.707,3.312,18.179-6.66,21.875
			c-4.34,1.609-9.134,1.913-13.727,1.846c-2.774-0.04-7.909,0.328-10.423-1.263c-0.055-0.04,4.758-0.699,5.17-0.725
			c3.263-0.204,6.535-0.439,9.754-1.039c4.496-0.839,11.043-2.514,12.809-7.357c3.549-9.736-11.612-23.219-17.53-29.176
			c-8.742-8.8-18.335-16.4-26.033-26.218C379.037,388.075,373.348,379.284,369.159,369.904z"/>
		<path style="fill:#231815;" d="M286.053,505.473c5.955-1.596,12.408-1.311,18.471-2.869c8.854-2.276,17.487-6.123,24.563-11.984
			c15.125-12.528,17.157-31.45,8.523-48.512c-8.674-17.141-25.486-28.957-32.855-46.879c-5.915-14.385,0.79-29.696,8.296-42.267
			c4.971-8.327,11.189-16.208,18.852-22.216c3.417-2.679,7.189-5.002,11.288-6.478c1.156-0.416,7.832-0.83,8.413-1.425
			c-0.996,1.019-5.462,1.407-6.948,2.091c-3.546,1.63-6.72,4.005-9.606,6.607c-6.483,5.845-11.688,13.101-16.06,20.614
			c-4.617,7.934-8.728,16.701-10.572,25.741c-2.016,9.885,2.325,18.379,7.985,26.245c11.038,15.342,26.098,27.899,31.421,46.724
			c4.249,15.027,0.65,29.648-10.48,40.643c-11.895,11.751-32.878,20.445-49.168,19.645c-9.11,2.519-19.602-1.083-28.175-4.174
			c-5.184-1.869-10.281-4.029-15.188-6.541c-1.623-0.831-9.417-4.053-9.415-6.107c0-0.307,7.777,2.659,8.453,2.928
			c4.888,1.944,9.868,3.656,14.919,5.125C266.75,504.705,277.828,508.438,286.053,505.473z"/>
		<path style="fill:#231815;" d="M246.161,476.855c5.799,0.928,11.642,1.657,17.336,3.136c2.014,0.523,12.047,2.857,12.134,6.047
			c-0.059-2.178-36.495-6.233-36.197-7.854C239.595,477.308,245.223,476.981,246.161,476.855z"/>
		<path style="fill:#231815;" d="M259.678,471.489c5.058,0.973,10.178,1.901,15.044,3.631c0.718,0.255,9.142,4.852,8.637,5.136
			c-0.985,0.554-29.279-7.058-29.23-7.416C254.244,471.986,258.774,471.631,259.678,471.489z"/>
		<path style="fill:#231815;" d="M266.224,495.161c-7.249-0.358-13.402-5.508-19.911-8.136c-3.042-1.228-6.172-1.989-9.413-2.444
			c-1.462-0.205-5.672,0.158-6.769-0.776c0.335,0.285,6.915-1.527,7.625-1.526c5.266,0.007,10.322,2.191,15.04,4.32
			c3.079,1.39,5.963,3.462,9.119,4.605c2.167,0.785,4.347,1.008,6.638,0.861c1.24-0.08,4.397-1.161,5.493-0.597
			C274.617,491.764,267.348,494.934,266.224,495.161z"/>
		<path style="fill:#231815;" d="M220.62,71.787c1.142,3.865,3.182,8.645,0.617,12.41c-1.073,1.575-6.275,4.998-8.441,3.974
			c-3.471-1.641-2.772-10.923,1.148-11.99c-2.152,0.598-1.33,14.072,4.259,6.842c1.326-1.715,1.099-4.545,0.698-6.557
			c-0.061-0.307-3.317-10.344-1.572-10.15C218.032,66.394,220.004,70.892,220.62,71.787z"/>
		<path style="fill:#231815;" d="M262.708,128.294c3.275,4.777,8.11,14.587,0.035,17.972c-2.648,1.11-5.454,0.046-7.017-2.291
			c-0.812-1.214-2.174-5.478-0.603-6.516c-1.061,0.701,3.022,5.841,4.103,6.225c3.65,1.298,4.906-3.068,4.655-5.756
			c-0.226-2.418-6.763-13.388-6.477-13.519C258.149,124.07,262.123,127.839,262.708,128.294z"/>
		<path style="fill:#231815;" d="M263.766,219.197c0.87,5.67,3.148,14.524-4.069,17.137c-7.668,2.777-11.373-11.738-6.56-12.798
			c-2.627,0.578,4.566,17.847,8.321,7.005c1.389-4.009-3.796-15.871-0.237-17.906C261.221,212.636,263.583,218.789,263.766,219.197z
			"/>
		<path style="fill:#231815;" d="M361.576,202.669c2.259,5.994,8.503,20.711-1.318,23.408c-1.214,0.333-3.044,0.499-4.277,0.077
			c-1.988-0.68-1.531-0.382-1.787-2.538c-0.123-1.032-0.174-6.894,1.15-7.052c-0.281,0.034,0.99,6.669,1.618,7.06
			c3.919,2.441,5.633-4.453,5.382-6.758c-0.318-2.929-1.121-6.184-2.021-9.011c-0.767-2.411-4.859-8.594-3.859-11.155
			C356.605,196.34,361.044,201.921,361.576,202.669z"/>
		<path style="fill:#231815;" d="M297.078,75.011c1.552,3.814,2.697,8.39,2.013,12.537c-0.397,2.41,0.055,1.82-2.074,2.465
			c-2.58,0.781-6.014-0.016-8.058-1.617c-1.522-1.193-5.021-7.801-1.77-9.094c-1.366,0.543,2.34,6.122,3.125,6.711
			c0.957,0.718,3.618,1.963,4.856,1.223c1.422-0.85,0.349,0.422,0.818-1.537c0.597-2.491-3.637-15.347-3.514-15.393
			C293.365,69.972,296.627,74.447,297.078,75.011z"/>
		<path style="fill:#231815;" d="M167.668,68.977c2.138,4.668,4.281,11.078-0.876,14.692c-4.826,3.382-11.199-2.784-6.975-7.289
			c-2.035,2.17,5.736,9.955,7.004,1.587c0.351-2.318-4.128-12.379-3.605-12.676C163.993,64.85,167.021,68.317,167.668,68.977z"/>
		<path style="fill:#231815;" d="M146.3,232.446c1.626,4.969,4.506,11.665-1.803,14.687c-2.75,1.317-6.519,0.74-8.296-1.904
			c-0.796-1.185-1.949-5.839,0.12-6.539c-1.51,0.511,2.337,5.516,2.982,5.843c2.483,1.257,5.348-0.23,5.93-2.871
			c0.458-2.077-3.803-13.799-2.626-13.952C143.384,227.607,145.694,231.652,146.3,232.446z"/>
		<path style="fill:#231815;" d="M163.275,178.952c-0.353,5.296,2.045,10.924,8.077,10.754c2.775-0.078,4.912-1.655,7.291-2.85
			c2.346-1.179,4.645-1.538,7.131-2.207c10.301-2.774,8.97-15.775,5.834-23.611c-1.069-2.671-3.199-7.443-6.733-7.292
			c-3.167,0.135-6.42,4.758-8.244,6.893C171.733,166.374,167.385,172.632,163.275,178.952z"/>
		<path style="fill:#231815;" d="M154.59,191.644c4.937,7.758,1.82,12.849-1.706,20.436c-2.799,6.021-8.078,4.534-13.503,1.474
			c-6.72-3.791,1.315-8.849,4.712-12.04C147.594,198.226,151.093,194.936,154.59,191.644z"/>
		<path style="fill:#231815;" d="M223.398,329.256c11.696-1.299,22.554,5.78,34.333,3.855c4.607-0.753,8.97-3.564,8.447-8.739
			c-0.622-6.16-6.905-10.122-11.77-12.747c-4.687-2.529-18.485-12.06-22.428-4.791C228.223,313.76,225.96,321.82,223.398,329.256z"
			/>
		<path style="fill:#231815;" d="M218.054,337.941c7.487,1.361,19.249-0.111,24.884,6.095c2.846,3.135,2.431,9.615,1.219,13.41
			c-1.427,4.469-4.603,3.781-8.592,3.811c-5.309,0.04-10.858,2.783-16.082,2.332c-3.412-0.295-3.087-2.526-3.133-5.631
			C216.252,351.293,217.158,344.535,218.054,337.941z"/>
		<path style="fill:#231815;" d="M373.702,321.241c2.948,0.368,17.231,0.267,18.325,4.43c0.379,1.443-1.331,3.502-1.987,4.621
			c-2.118,3.615-4.227,7.281-6.839,10.569c-2.351,2.96-5.645,6.641-9.73,6.85c-4.576,0.235-8.275-4.279-9.384-8.32
			C362.68,334.262,366.111,320.291,373.702,321.241z"/>
		<path style="fill:#231815;" d="M366.354,353.305c5.751,0.959,18.211-2.477,22.276,2.669c1.681,2.128,1.323,5.197,0.238,7.499
			c-1.52,3.227-4.244,3.589-6.578,5.819c-1.469,1.405-1.236,2.512-3.139,2.685c-2.499,0.227-6.533-4.5-7.83-6.301
			C368.742,362.095,367.152,357.627,366.354,353.305z"/>
		<path style="fill:#231815;" d="M260.138,103.466c3.23,1.794,5.549,2.364,9.027,2.575c3.789,0.229,6.18,2.208,9.159,4.62
			c6.743,5.46,9.012,9.45,10.166,17.801c1.322,9.569,10.744,9.337,17.494,13.808c2.429,1.609,3.203,3.579,3.845,6.346
			c1.126,4.857,2.913,8.777,4.747,13.385c1.778,4.467,1.972,8.308-0.185,12.72c-1.172,2.396-2.072,4.617-4.677,3.178
			c-2.868-1.585-5.322-8.33-6.821-10.972c-2.332-4.11-4.202-8.492-6.608-12.552c-4.165-7.029-10.085-6.542-17.045-8.874
			c-4.989-1.672-4.941-9.305-4.747-13.879c0.109-2.572,0.413-4.366-1.307-6.476c-3.309-4.06-9.251-5.534-13.162-8.896
			c-2.65-2.278-6.053-6.225-5.247-10.113C255.33,103.463,257.565,102.036,260.138,103.466z"/>
		<path style="fill:#231815;" d="M314.916,199.66c-2.372-1.976-6.898-6.308-5.207-9.921c1.272-2.716,5.63-2.495,8.053-1.808
			c2.558,0.725,3.073,2.344,4.75,4.445c2.241,2.807,4.85,4.968,5.069,8.724c0.231,3.955,0.119,17.742-6.494,14.708
			C315.055,213.039,313.906,205.519,314.916,199.66z"/>
		<path style="fill:#231815;" d="M333.621,219.701c0.162-0.379,0.502-5.279,0.027-5.159c0.556-0.141,3.332,3.619,3.631,3.949
			c2.769,3.044,5.654,5.943,8.67,8.74c3.552,3.293,9.198,7.08,7.862,12.617c-0.934,3.87-2.546,6.274-2.016,10.517
			c0.413,3.303,1.658,6.473,1.957,9.788c0.231,2.561-0.363,5.062-0.391,7.628c-0.019,1.761,0.823,4.896,0.132,6.53
			c-0.648,1.532-0.066,1.514-1.576,0.931c-2.578-0.995-5.075-8.146-5.906-10.449c-2.511-6.958-1.382-14.657-3.873-21.511
			c-2.158-5.938-9.44-6.944-10.557-13.427C330.994,226.44,332.044,222.723,333.621,219.701z"/>
		<path style="fill:#231815;" d="M307.568,96.785c5.324,0.484,12.301,0.187,14.518,6.082c0.685,1.822,0.606,4.089,1.844,5.7
			c1.441,1.875,4.199,2.529,6.287,3.316c4.06,1.532,6.792,2.706,8.622,6.789c2.853,6.365,5.381,13.564,6.578,20.433
			c0.193,1.105,1.211,4.936-0.194,5.646c-1.174,0.593-3.825-2.366-4.652-3.11c-4.661-4.187-8.052-9.545-11.219-14.898
			c-2.83-4.783-5.544-7.96-11.027-9.688c-1.626-0.512-4.635-0.147-5.717-0.545c-1.222-0.449-2.888-2.996-3.815-3.895
			c-2.43-2.357-5.889-5.07-6.396-8.699C301.915,100.468,304.586,97.949,307.568,96.785z"/>
		<path style="fill:#231815;" d="M354.329,142.21c-1.167,3.889-6.826,6.997-6.956,11.037c-0.161,4.991,10.408,7.132,13.729,9.459
			c3.754,2.63,5.674,5.792,4.711,10.41c-0.974,4.673-4.781,11.537,1.252,14.259c2.298,1.037,4.987-0.121,7.042,1.067
			c3.977,2.3,6.094,10.974,7.663,14.865c1.65,4.091,2.977,8.209,3.526,12.595c0.576,4.604,0.227,7.608,5.499,8.394
			c4.483,0.669,9.032,0.2,11.108,5.139c1.714,4.078,1.607,9.088,1.897,13.431c0.091,1.365-0.249,8.966,1.767,9.521
			c2.474,0.681,4.771-7.785,5.142-9.176c1.361-5.094,1.861-10.745,0.786-15.941c-1.22-5.899-4.056-8-9.172-10.548
			c-4.797-2.389-10.083-5.102-12.218-10.336c-2.554-6.262,1.442-12.06,0.185-18.36c-1.324-6.637-8.109-5.23-11.694-9.154
			c-4.114-4.504-2.618-11.693-5.025-16.765c-2.509-5.286-10.086-5.438-12.057-11.288C360.082,146.57,359.919,142.457,354.329,142.21
			z"/>
		<path style="fill:#231815;" d="M389.734,249.094c-1.225-3.676-4.701-11.663-1.411-15.172c1.535-1.637,4.965-2.553,6.658-1.126
			c3.094,2.608,2.926,11.055,1.532,14.367C395.372,249.876,391.328,253.876,389.734,249.094z"/>
		<path style="fill:#231815;" d="M262.142,92.109c-5.122-3.074-9.352-12.692-4.675-13.36
			C262.142,78.08,268.822,96.118,262.142,92.109z"/>
		<path style="fill:#231815;" d="M418.291,487.803c-7.317-0.506-14.639-0.687-21.857-2.126c-2.911-0.58-14.039-2.402-15.452-5.884
			c0.159,0.391,4.096,0.556,4.649,0.643c3.837,0.604,7.553,1.759,11.381,2.408c4.112,0.698,8.249,0.668,12.357,1.204
			c2.565,0.335,5.105,0.564,7.695,0.69c2.23,0.109,6.691-0.422,8.573,0.936c1.083,0.782,0.818,0.428-0.277,1.014
			C423.593,487.634,420.313,487.443,418.291,487.803z"/>
		<path style="fill:#231815;" d="M407.686,473.019c-6.316-0.581-12.677-1.041-18.895-2.351c-3.051-0.643-6.158-1.438-9.024-2.69
			c-0.302-0.132-2.68-1.62-2.744-1.603c3.718-0.988,9.023,0.94,12.628,1.54c3.619,0.602,7.277,0.647,10.876,1.201
			c2.744,0.423,11.591-0.192,13.21,1.861C415.134,472.746,409.419,472.684,407.686,473.019z"/>
		<path style="fill:#231815;" d="M397.124,466.488c-2.709-1.221-15.355-2.186-16.103-5.388c-0.237-1.013,12.059,0.702,13.199,1.028
			c1.223,0.35,6.642,1.909,6.696,3.385C400.976,467.173,398.659,466.306,397.124,466.488z"/>
		<path style="fill:#231815;" d="M194.401,117.085c-5.087,3.008-12.804-3.056-17.167-5.01c-1.617-0.724-4.866-0.699-2.762,1.863
			c0.671,0.818,4.523,1.769,5.506,2.258c4.798,2.387,11.344,5.973,16.384,2.05c5.451-4.243,4.742-12.445,0.347-17
			c-4.477-4.639-11.401-7.225-17.513-8.805c-0.346-0.09-7.848-1.554-7.076-0.55c1.205,1.567,2.749-3-0.355-1.712
			c-2.4,0.996-0.871,2.592,0.462,3.308c2.126,1.142,5.782,1.254,8.135,1.957c3.978,1.189,7.998,2.621,11.499,4.897
			C197.218,103.825,201.463,112.597,194.401,117.085z"/>
	</g>
</g>
</svg>
