<?xml version="1.0" encoding="utf-8"?>
<!-- Generator: Adobe Illustrator 22.1.0, SVG Export Plug-In . SVG Version: 6.00 Build 0)  -->
<svg version="1.1" id="_x31_1" xmlns="http://www.w3.org/2000/svg" xmlns:xlink="http://www.w3.org/1999/xlink" x="0px" y="0px"
	 viewBox="0 0 720 620.156" style="enable-background:new 0 0 720 620.156;" xml:space="preserve">
<style type="text/css">
	.st0{fill:#E95513;}
	.st1{fill:#DBDCDC;}
	.st2{fill:#94C85C;}
	.st3{fill:#FFFFFF;}
	.st4{fill:#DA4604;}
</style>
<g>
	<path class="st0" d="M177.557,616.369c0,0-52.81,10.795-84.61-9.568c-5.792-3.704-10.426-6.954-14.128-9.772
		c-11.289-8.659-13.765-13.363-13.697-15.34c0.023-0.932,0.613-1.273,1.136-1.136c1.863,0.523,10.244,3.795,11.016,4.091
		c-1.203-0.909-20.829-15.476-31.323-15.817c-10.834-0.364-29.347-7.181-29.347-7.181l43.498-19.749l53.469-13.454
		c10.744,9.931,25.054,27.384,26.553,35.611c0.658,3.568-0.318,5.954-1.613,7.477c-1.704,2.022-3.952,2.636-3.952,2.636
		s1.112,2.682,3.907,6.591c1.635,2.318,3.884,5.091,6.837,7.999c8.018,7.84,21.624,18.681,26.916,22.158
		C182.736,617.823,177.557,616.369,177.557,616.369z"/>
	<path class="st0" d="M582.696,123.253c1.813,0.549,136.827,51.215,136.827,51.215L584.275,4.733l-9.305,8.158L582.696,123.253z"/>
	<path class="st1" d="M580.879,2.459c-10.127,0-8.492,6.592-10.479,11.53c-1.442,3.585,0.985,136.256,2.424,208.698
		c0.063,3.161,0.124,6.208,0.182,9.124c0.448,22.308,0.763,36.983,0.763,36.983s10.42,5.771,12.496-2.674
		c2.076-8.445-1.859-256.718-1.859-256.718S589.312,2.459,580.879,2.459z"/>
	<path class="st2" d="M326.156,174.467c1.399-5.411,4.786-27.613,20.818-26.381c16.032,1.231,17.057,20.903,17.057,20.903
		l35.684,6.812c0,0,1.23-18.891,11.895-20.738s18.252,7.219,20.918,12.535c2.666,5.316,7.138,15.102,7.138,15.102
		s11.765,14.015,16.669,19.761c4.904,5.745,11.672,16.285,14.338,27.122c2.666,10.837,4.717,26.177,4.717,26.177
		s10.827,10.391,18.457,16.202s12.45,7.26,18.457,5.597c6.007-1.663,25.635-23.802,25.635-23.802l31.905-27.379
		c0,0-11.463,0.046-2.919-5.062c-7.042-1.209-2.894-9.006,3.03-11.058c-10.893,1.641-7.325-3.283-1.623-6.976
		c5.702-3.693,10.452-7.089,17.488-5.312c7.036,1.777,10.845,11.416,11.798,23.346s-9.812,25.902-10.751,26.71
		c-0.939,0.807-1.047-16.428-1.047-16.428s-4.056-2.667-7.409-3.078s-3.106-2.238-3.6-0.734c-0.494,1.504-1.836,2.623-1.836,2.623
		l-1.407,32.033l-5.328,6.302c0,0-18.394,22.104-29.176,30.508c-10.782,8.404-17.899,13.593-26.077,16.056s-18.43-3.888-18.43-3.888
		s3.582,21.519,4.009,28.243s-6.923,28.84-11.288,32.912s-8.886,17.922-7.617,21.874s26.362,23.606,7.282,124.949
		c0,0-8.963,29.203,10.412,35.238c19.375,6.035,29.285,12.739,31.896,14.745c2.611,2.005,2.108,4.675,2.108,4.675l-22.49-6.838
		c0,0,15.24,8.412,15.765,17.86c-12.065-9.097-24.83-13.158-26.229-13.752s14.459,11.652,10.464,17.776
		c-10.258-4.882-12.738-7.698-22.005-11.022c-9.268-3.324-31.211-12.958-35.147-21.869c-3.936-8.911-0.797-57.242-1.588-65.286
		c-0.791-8.044-12.872-40.448-21.585-48.544c-8.712-8.097-9.387-6.933-17.234-8.976s-34.336-15.99-60.675,13.692
		s-27.171,76.12-27.448,84.011c-0.277,7.891-10.819,18.815-10.819,18.815s-20.912,18.674-28.613,24.222
		c-7.701,5.548-10.219,4.206-7.978-2.381c2.24-6.587,8.872-12.579,8.872-12.579s-19.131,11.636-26.339,13.436
		c-7.209,1.801,6.377-15.12,14.14-19.836c-4.713,1.11-13.586,4.478-18.022,6.4c-4.436,1.922,4.656-10.284,14.389-15.831
		c9.733-5.548,17.884-9.986,24.206-15.257c6.321-5.271,8.817-13.592,7.153-18.586c-1.664-4.993-14.571-38.289-18.456-49.924
		c-3.885-11.635-2.353-34.743-2.431-41.339c-0.078-6.596,22.392-33.342,22.392-33.342s-21.891-29.098-19.961-53.99
		c1.93-24.891,7.524-44.703,7.524-44.703l-4.63,4.71c0,0-10.4,15.573-31.341,25.101c-20.941,9.528-42.155,26.231-46.68,30.403
		c-4.526,4.172-8.011,6.22-9.507,7.909s-3.49-2.796-2.041-6.658c-1.818-1.42-6.46,10.306-8.004,9.854
		c-1.544-0.452-2.749-11.455-0.64-15.073c-0.904-1.336-2.862,12.714-5.273,10.276c-2.41-2.438-4.319-15.726,2.369-23.54
		s10.587-9.797,10.587-9.797l-6.198,1.629c0,0,2.131-8.864,11.32-11.577s22.296-4.974,26.665-7.687
		c4.369-2.713,24.255-15.525,24.255-15.525s39.4-33.239,45.48-37.436c6.08-4.196,16.764-13.237,16.764-13.237l1.669-22.439
		c0,0-17.884-7.355-22.282-11.766c-4.399-4.411,4.08-11.688,9.925-14.61S326.156,174.467,326.156,174.467z"/>
	<path class="st3" d="M326.325,219.096c6.667,7.239-17.817,55.178-26.64,88.749s3.754,76.384,61.33,77.057
		s73.442-48.371,66.177-71.688c-7.264-23.317-20.335-66.116-9.119-79.173C391.275,234.04,326.325,219.096,326.325,219.096z"/>
	<path class="st1" d="M12.587,564.132c-9.66-1.429-17.716-6.808,4.008-14.213s204.878-64.202,209.054-64.07
		c4.176,0.132,9.278,6.553,0,10.418C216.371,500.132,12.587,564.132,12.587,564.132z"/>
	<path class="st4" d="M134.559,574.167c0,0,1.112,2.682,3.907,6.591c-17.694,4.772-44.224,11.976-59.647,16.272
		c-11.289-8.659-13.765-13.363-13.697-15.34c7.087,0.409,14.946,4.363,14.946,4.363s52.81-12.749,55.695-14.294
		c0.5-0.273,1.477-0.318,2.748-0.227C136.807,573.553,134.559,574.167,134.559,574.167z"/>
	<path d="M469.93,255.116c-5.374,7.055,1.316,11.474,1.316,11.474s2.635,7.009,9.221,5.016s9.889-2.461,5.317-7.328
		C481.213,259.413,475.199,248.196,469.93,255.116z"/>
	<path d="M491.777,269.561c-7.411,5.932-4.168,13.229,0,15.204c4.167,1.977,6.802,6.796,10.095,1.42
		c3.293-5.373,5.164-5.226,2.964-7.681C502.635,276.053,491.777,269.561,491.777,269.561z"/>
	<path d="M300.331,244.581l-12.936,11.021c0,0-1.827,1.542,0,5.444c1.827,3.902,3.398,1.647,8.485-1.977
		C300.966,255.444,301.001,252.149,300.331,244.581z"/>
	<path d="M282.425,264.67c0.759,6.705-0.673,15.151-5.208,13.835c-4.535-1.316-4.435-1.602-7.169-3.953
		c-2.734-2.348-1.823-3.076,0-4.558C271.871,268.512,281.978,260.724,282.425,264.67z"/>
	<path d="M287.395,415.339c11.139,0.2,13.266,1.855,20.305,7.428c7.039,5.573,7.986,15.322,2.64,16.25
		c-5.346,0.93-12.792-3.3-12.792-3.3s-4.197-5.985-12.762-7.053C276.221,427.596,279.493,415.195,287.395,415.339z"/>
	<path d="M284.786,444.556c10.652,4.226,16.959,3.285,18.816,11.176c1.856,7.894,1.026,10.679-2.967,9.752
		c-3.994-0.93-3.643-6.951-13.239-6.036c-9.596,0.914-8.123,0.937-9.596-5.107C276.326,448.296,280.724,442.945,284.786,444.556z"/>
	<path d="M451.642,430.661c6.447-7.373,10.674-5.573,18.099-5.573s15.807-1.858,13.704,5.573c-2.102,7.428-9.666,8.489-9.666,8.489
		l-8.292,2.654c0,0,2.325,3.067-7.617,2.461C447.929,443.662,445.144,438.089,451.642,430.661z"/>
	<path d="M457.87,463.163c-4.738,5.109-3.237,10.278,6.172,7.228c9.411-3.049,6.774,5.162,14.59-0.104
		c7.815-5.269,11.55-8.518,7.827-12.233c-3.724-3.713-9.107-5.107-12.68-5.107c-3.575,0-5.121,3.715-8.292,5.107
		C462.315,459.448,461.315,459.448,457.87,463.163z"/>
	<path d="M340.55,181.247c-5.386-2.663-1.235-17.657,3.359-14.311c4.593,3.346,2.738,7.978,2.473,11.195
		C346.116,181.35,343.466,182.69,340.55,181.247z"/>
	<path d="M410.532,192.416c-5.036,0.411-3.446-16.395,2.121-17.205c5.567-0.81,5.976,4.044,5.15,9.765
		C417.326,188.273,415.258,192.032,410.532,192.416z"/>
	<path d="M338.006,214.552c-5.18,0.435-5.939-7.02-2.758-7.499c1.59-0.24,2.717,1.167,3.015,2.672
		C338.562,211.229,339.729,214.407,338.006,214.552z"/>
	<path d="M352.479,218.153c-3.473-0.448-1.64-3.584,2.785-4.845c0.516-0.149,3.208-0.322,3.791-0.022
		C364.805,216.243,356.455,218.668,352.479,218.153z"/>
	<path d="M584.011,190.044c0.864-9.991,0.356-111.075,0.356-125.775c0-22.414-1.787-42.978-1.787-48.014
		c0-5.033,0.362-7.321,2.143-7.33c1.785-0.01,2.5,0.902,2.5,6.39c0,5.489-0.56,36.593-0.356,46.665
		c1.071,52.599,1.784,118.94,2.144,127.63c0.356,8.693-1.075,8.686-2.503,8.677C585.081,198.282,583.654,194.158,584.011,190.044z"
		/>
	<path d="M584.011,265.021c0.864-1.904,0.356-21.161,0.356-23.962c0-4.27-1.787-8.189-1.787-9.15c0-0.959,0.362-1.394,2.143-1.394
		c1.785,0,2.5,0.173,2.5,1.218c0,1.048-0.56,6.971-0.356,8.891c1.071,10.02,1.784,22.655,2.144,24.31
		c0.356,1.656-1.075,1.656-2.503,1.656C585.081,266.59,583.654,265.806,584.011,265.021z"/>
	<path d="M569.914,191.506c0.856-10.071,0.262-111.97,0.25-126.787c-0.019-22.596-1.823-43.321-1.828-48.396
		c-0.004-5.074,0.355-7.38,2.137-7.396c1.785-0.014,2.5,0.903,2.505,6.436c0.004,5.534-0.53,36.89-0.317,47.045
		c1.117,53.021,1.887,119.903,2.253,128.663c0.364,8.764-1.067,8.757-2.495,8.749C570.991,199.811,569.561,195.654,569.914,191.506z
		"/>
	<path d="M569.76,265.016c0.865-1.911,0.356-21.225,0.356-24.033c0-4.283-1.787-8.216-1.787-9.177c0-0.963,0.362-1.398,2.144-1.398
		c1.785,0,2.5,0.173,2.5,1.223c0,1.048-0.561,6.991-0.357,8.915c1.073,10.051,1.786,22.723,2.144,24.384
		c0.357,1.66-1.074,1.66-2.502,1.66C570.829,266.59,569.404,265.804,569.76,265.016z"/>
	<path d="M593.085,9.159c1.602,2.388,7.374,9.817,15.415,19.743c8.021,9.941,18.323,22.36,28.52,35.109
		c10.307,12.691,19.738,26.278,27.583,37.185c7.839,10.929,13.919,19.406,16.382,22.838c7.522,10.455,15.198,20.139,21.531,27.666
		c6.333,7.531,11.296,12.902,13.153,15.069c3.68,4.371,5.183,6.464,3.854,7.699c-1.298,1.197-2.578,0.923-6.724-3.893
		c-2.084-2.399-8.642-10.675-15.287-19.68c-6.605-9.029-13.599-18.589-17.021-23.267c-9.073-12.107-18.553-25.143-27.927-37.86
		c-9.253-12.81-19.095-24.657-28.043-35.361c-17.936-21.367-31.812-37.897-35.027-41.726c-6.498-7.654-5.334-8.565-4.212-9.427
		C586.424,2.379,590.419,5.244,593.085,9.159z"/>
	<path d="M613.635,132.235c20.685,8.329,50.886,17.716,75.155,28.088c12.131,5.162,20.352,9.409,25.08,12.147
		c4.734,2.728,6.02,3.875,4.215,3.086c-3.642-1.544-11.629-2.926-29.871-10.268c-18.258-7.341-33.259-12.185-42.066-14.863
		c-8.825-2.672-4.759-2.257-30.685-11.795c-12.957-4.806-20.376-8.463-23.62-10.535c-3.246-2.072-2.332-2.574,1.431-1.379
		C600.783,129.146,613.635,132.235,613.635,132.235z"/>
	<path d="M574.539,268.332l0.021,0.109l0.271,0.126c0.153,0.113,0.468,0.14,0.759,0.18c0.603,0.069,1.359-0.033,2.111-0.186
		c1.525-0.337,3.059-1.003,4.333-1.48c1.31-0.473,2.152-0.624,2.958-0.83c0.729-0.215,1.386-0.393,1.275-0.131
		c-0.138,0.209,0.372,0.81,0.331,1.753c0.03,0.959-0.478,2.317-1.868,3.2c-2.742,1.684-5.042,2.614-6.556,3.36
		c-0.765,0.333-0.998,0.26-1.651,0.038c-0.328-0.115-0.726-0.202-1.38-0.366c-0.653-0.18-1.534-0.331-2.877-0.928
		c-1.437-0.81-2.383-1.991-2.338-3.065c-0.211-0.996,0.319-1.671,0.621-2.002c0.707-0.659,1.515-0.264,1.787,0.107
		c0.231,0.444,0.936,0.726,1.435,0.577C574.274,268.672,574.539,268.332,574.539,268.332z"/>
	<path d="M574.505,4.76c1.162,1.499,4.259,2.609,6.626,2.076c0.306-0.039,0.53-0.183,0.805-0.25l0.914-0.473
		c0.576-0.322,1.018-0.701,1.273-0.989c0.145-0.302,0.14-0.27,0.152-0.393c-0.052-0.164-0.301-0.538-0.682-0.872
		c-0.797-0.687-1.854-1.137-2.714-1.401c-0.878-0.3-1.637-0.417-2.234-0.525c-1.177-0.124-1.722-0.31-1.273-0.446
		c0.435-0.131,0.969-0.699,2.189-1.147c1.181-0.387,3.182-0.737,5.591,0.699c1.131,0.738,2.301,1.863,2.482,3.563
		c0.064,0.816-0.161,1.625-0.519,2.217c-0.331,0.635-0.78,1.033-1.177,1.456c-0.419,0.326-0.828,0.684-1.226,0.942
		c-0.398,0.239-0.777,0.465-1.136,0.679c-0.76,0.425-1.612,0.726-2.258,0.882c-1.342,0.315-1.746,0.174-2.737-0.061
		c-0.489-0.143-1.136-0.303-2.063-0.67c-0.931-0.354-2.172-0.852-3.72-2.027c-1.549-1.183-2.391-2.91-2.399-4.289
		c0.011-0.699,0.129-1.254,0.359-1.671c0.172-0.436,0.427-0.701,0.65-0.883c0.864-0.717,1.194-0.158,1.037,0.629
		c-0.153,0.858,0.269,1.834,0.874,2.289c0.291,0.247,0.58,0.411,0.824,0.51C574.352,4.716,574.505,4.76,574.505,4.76z"/>
	<path d="M349.074,146.387c-3.312-0.176-6.647,0.64-9.604,1.903c-3.308,1.234-5.771,3.892-7.519,6.268
		c-3.51,4.918-5.278,9.515-6.673,11.706c-1.353,2.223-2.46,5.187-2.724,7.616c-0.26,2.428,0.266,4.363,2.298,4.809
		c3.391,0.661,5.637-6.564,5.778-9.998c0.14-1.692,1.291-7.711,4.723-12.998c0.872-1.292,1.903-2.504,3.108-3.445
		c0.615-0.459,1.23-0.848,1.935-1.185c0.728-0.306,1.444-0.607,2.142-0.9c2.834-0.974,5.583-1.346,7.406-0.82
		c0.472,0.04,0.914,0.211,1.354,0.389c0.435,0.183,0.904,0.291,1.319,0.526c0.815,0.504,1.665,0.948,2.352,1.656
		c0.778,0.576,1.327,1.434,1.975,2.151c0.499,0.863,1.111,1.623,1.488,2.542c1.732,3.514,2.47,7.25,2.721,10.079
		c0.247,2.811,1.666,4.886,2.99,5.18c1.241,0.304,2.596-1.476,1.348-6.367c-1.361-4.815-2.671-8.135-4.694-11.436
		c-1.095-1.595-2.237-3.301-4.15-4.744C354.827,147.871,352.254,146.512,349.074,146.387z"/>
	<path d="M363.628,168.111c7.453,2.102,18.403,3.054,27.419,5.28c9.021,2.311,12.049,5.002,10.746,4.504
		c-1.336-0.386-4.286-0.052-10.919-1.528c-6.677-1.415-12.163-1.952-15.381-2.222c-3.223-0.283-1.761-0.566-11.233-2.537
		c-9.467-2.155-10.744-4.394-8.019-3.956C358.974,168.066,363.628,168.111,363.628,168.111z"/>
	<path d="M425.091,156.976c-2.586-1.931-5.924-3.387-9.417-3.685c-0.867-0.011-1.733-0.022-2.594-0.032
		c-0.875,0.072-1.792,0.174-2.663,0.417c-1.79,0.436-3.375,1.445-4.69,2.55c-2.502,2.375-3.775,5.077-4.786,7.244
		c-1.004,2.2-1.667,3.995-2.274,5.191c-2.304,4.846-3.574,12.171,0.511,12.676c3.414,0.402,5.173-7.167,5.022-10.69
		c-0.028-0.895,0.183-2.844,0.777-5.259c0.627-2.356,1.607-5.372,3.835-7.265c1.104-0.925,2.489-1.588,4.034-1.794
		c0.771-0.105,1.582-0.078,2.362-0.124c0.787-0.029,1.539,0.184,2.291,0.261c2.982,0.586,5.337,2.187,6.833,3.468
		c5.919,5.487,9.77,14.657,11.502,20.316c0.874,2.845,2.861,4.56,4.197,4.467c1.307-0.084,2.015-2.066-0.187-6.516
		c-2.239-4.419-3.915-7.5-5.846-10.715c-0.967-1.606-2.021-3.238-3.384-5.001C429.252,160.73,427.59,158.794,425.091,156.976z"/>
	<path d="M353.014,224.334c-7.194-1.704-14.714-3.764-22-6.29c-3.662-1.214-7.194-2.665-10.809-3.979
		c-3.573-1.312-7.043-2.557-10.24-3.984c-1.598-0.712-3.128-1.469-4.564-2.281c-0.67-0.384-1.518-0.886-2.285-1.272
		c-0.765-0.382-1.521-0.759-2.265-1.13c-2.94-1.425-5.666-2.748-7.887-4.172c-1.087-0.697-2.1-1.471-2.597-2.124
		c-0.204-0.249-0.408-0.692-0.552-1.036l-0.135-0.499l-0.029-0.435c0.039-1.014,1.075-2.117,2.133-2.858
		c2.142-1.511,5.276-2.841,8.432-4.039c3.246-1.181,6.47-2.352,9.305-3.382c2.863-1.074,5.331-2.134,6.93-3.182
		c1.615-1.049,2.278-2.083,1.633-2.773c-0.944-1.079-5.794-0.424-11.774,1.093c-5.91,1.539-12.767,4.207-16.608,7.557
		c-0.475,0.424-1.108,0.957-1.829,1.742c-0.697,0.803-1.577,1.782-2.141,3.376c-0.621,1.556-0.486,3.773,0.435,5.393
		c0.247,0.399,0.42,0.799,0.756,1.203c0.323,0.426,0.665,0.788,1.015,1.083c0.7,0.639,1.43,1.119,2.183,1.605
		c3.007,1.829,6.448,3.218,10.005,4.791c0.882,0.393,1.782,0.795,2.61,1.227c0.862,0.455,1.829,0.97,2.77,1.416
		c1.907,0.905,3.887,1.716,5.899,2.47c4.028,1.505,8.164,2.794,12.167,4.268c4.05,1.469,8.086,2.792,11.95,3.966
		c7.731,2.344,14.773,4.05,19.843,5.289c10.15,2.494,21.387,4.487,31.95,6.079c5.27,0.786,10.399,1.556,15.198,1.982
		c4.785,0.451,9.19,0.686,12.997,0.863c7.625,0.34,13.322-0.897,14.112-1.991c0.795-1.145-3.332-2.035-15.26-1.882
		c-11.935,0.149-20.292-0.914-29.268-2.144C376.161,229.004,366.71,227.514,353.014,224.334z"/>
	<path d="M445.666,195.035c-0.874-2.326-2.59-4.084-4.32-5.36c-1.747-1.303-3.414-2.048-4.617-3.158
		c-1.224-1.067-0.782-2.37,0.611-3.157c1.365-0.843,3.752-0.918,4.843-0.131c1.148,0.699,2.548,1.872,3.94,3.179
		c1.341,1.336,2.678,2.816,3.713,4.148c0.549,0.655,1.8,2.308,3.325,4.419c1.526,2.104,3.314,4.661,5.211,6.904
		c0.504,0.566,1.006,1.132,1.502,1.691c0.577,0.67,1.169,1.336,1.617,1.993c0.995,1.305,1.765,2.572,2.48,3.7
		c1.359,2.268,2.249,4.026,2.591,4.658c0.661,1.278,3.226,7.051,5.259,13.296c1.044,3.116,1.952,6.356,2.715,9.137
		c0.733,2.792,1.267,5.147,1.751,6.432c0.907,2.617,0.02,4.627-1.133,5.468c-1.136,0.854-2.517,0.688-2.838-0.399
		c-0.295-1.094-0.626-3.833-1.221-6.467c-0.543-2.63-1.216-5.14-1.402-5.792c-0.141-0.657-0.721-4.616-1.748-8.764
		c-1.017-4.143-2.508-8.436-3.499-9.747c-0.928-1.343-2.368-4.084-3.972-6.793c-1.554-2.756-3.621-5.155-4.87-6.58
		C453.19,200.885,446.323,196.642,445.666,195.035z"/>
	<path d="M282.635,356.876c1.243,4.345,2.369,7.967,3.973,11.827c1.621,3.837,3.751,7.958,7.565,12.701
		c0.942,1.192,1.843,2.202,2.625,3.129c0.404,0.455,0.786,0.883,1.148,1.289c0.182,0.189,0.319,0.402,0.637,0.692
		c0.217,0.178,0.428,0.348,0.633,0.515c1.482,1.198,2.612,2.219,3.624,3.163c2.024,1.893,3.546,3.513,6.351,5.963
		c2.828,2.446,3.957,3.422,5.372,4.647c1.436,1.221,3.001,2.852,7.265,6.108c4.355,3.165,4.464,3.056,4.141,2.816
		c-0.271-0.306-0.915-0.737,2.528,1.001c3.476,1.693,6.177,2.264,7.921,2.428c1.757,0.153,2.569,0.013,2.569,0.013
		c-2.152-1.656-4.146-3.358-5.933-5.224c-4.912-1.827-9.568-4.443-13.983-7.492c0,0-2.803-2.35-6.026-5.364
		c-3.225-3.007-6.951-6.625-9.22-8.571c-0.561-0.495-1.157-1.019-1.777-1.565c-0.308-0.277-0.622-0.559-0.941-0.846
		c-0.229-0.206-0.1-0.093-0.201-0.217l-0.375-0.493c-1.029-1.334-2.037-2.767-2.944-4.21c-1.84-2.865-3.302-5.728-4.32-7.606
		c-1.017-1.875-2.763-4.596-4.427-7.83c-1.676-3.218-3.226-6.96-4.115-10.513c-0.878-3.542-1.849-4.851-2.476-4.157
		C281.657,349.767,281.409,352.51,282.635,356.876z"/>
	<path d="M308.236,230.706c-0.24,6.625-0.394,12.117-3.23,16.738c-3.233,5.056-6.733,10.906-10.161,19.106
		c-3.431,8.218-5.056,12.932-6.561,16.818c-0.713,1.955-1.355,3.717-2.057,5.644c-0.621,1.951-1.325,4.064-2.06,6.744
		c-1.407,5.38-1.861,7.557-2.513,10.264c-0.356,1.347-0.699,2.839-1.155,4.951c-0.232,1.059-0.499,2.268-0.811,3.693
		c-0.258,1.436-0.555,3.089-0.902,5.016c-1.158,7.756-1.084,7.783-0.965,7.222c0.185-0.548,0.311-1.662,0.085,3.937
		c-0.169,2.796-0.029,5.187,0.115,7.179c0.113,1.993,0.402,3.593,0.656,4.838c0.502,2.492,0.931,3.566,0.931,3.566l1.182-5.59
		c0.418-1.842,0.954-3.669,1.425-5.471c-0.166-7.958,0.385-15.961,1.515-23.897c0,0,0.284-1.336,0.739-3.473
		c0.558-2.117,1.158-5.06,2.106-8.198c1.689-6.329,4.258-13.522,5.768-17.604c1.51-4.083,3.667-9.095,6.068-13.664
		c2.32-4.612,4.812-8.808,6.42-11.625c0.781-1.427,1.757-3.211,2.866-5.238c0.272-0.51,0.551-1.039,0.838-1.578
		c0.302-0.639,0.612-1.292,0.927-1.957c0.523-1.358,0.968-2.787,1.234-4.263c1.098-5.934,0.175-12.006,0.793-17.348
		c0.292-2.659,0.505-4.501,0.55-5.635c0.028-1.136-0.228-1.593-0.693-1.303c-0.445,0.293-1.199,1.327-1.836,3.205
		C308.868,224.652,308.365,227.359,308.236,230.706z"/>
	<path d="M307.703,237.519c-5.264,7.752-8.562,13.678-16.485,19.186c-10.063,7.033-30.922,22.883-45.161,33.01
		c-3.545,2.552-7.87,5.528-12.572,8.451c-4.696,2.903-9.963,5.639-15.234,7.313c-5.254,1.693-10.305,2.723-14.349,3.72
		c-4.064,0.952-7.068,2.02-8.606,2.699c-3.122,1.329-5.353,3.462-6.663,5.317c-1.258,1.924-1.857,3.449-2.745,3.808
		c-0.872,0.375-1.028-0.668-0.656-2.514c0.186-0.914,0.731-1.922,1.3-3.007c0.736-0.965,1.508-2.064,2.53-2.801
		c0.878-0.897,4.09-3.12,8.7-4.596c4.586-1.558,10.363-2.708,15.938-4.314c11.231-2.883,20.846-10.122,23.818-11.512
		c2.867-1.542,10.058-6.862,16.69-12.388c6.652-5.499,12.906-10.968,14.553-12.042c3.324-2.108,10.72-8.518,14.709-11.882
		c3.997-3.358,10.673-9.612,14.7-13.944c1.961-2.099,5.411-4.831,8.459-7.08C309.851,232.563,309.142,235.404,307.703,237.519z"/>
	<path d="M184.697,320.987c1.199-0.486,2.582-1.205,4.096-1.833c0.756-0.313,1.54-0.615,2.341-0.843
		c0.398-0.118,0.801-0.217,1.2-0.3l0.598-0.111l0.953-0.124c0.679-0.073,1.508-0.164,1.966-0.138
		c-0.067,0.584-0.13,1.13-0.189,1.638c-0.023,0.306-0.016,0.335-0.048,0.317l-0.045,0.064c0.023,0.16,0.383,0.459,0.505,0.684
		c0.284,0.475,0.192,0.672,0.064,0.528c-0.142-0.144-0.445-0.186-0.878-0.217c-0.205-0.02-0.56-0.075-0.855-0.45
		c-0.232-0.315-0.247-0.315-0.302-0.468l-0.398,0.064l-0.472,0.1c-0.246,0.064-0.485,0.129-0.716,0.189
		c-0.46,0.138-0.881,0.293-1.263,0.448c-0.763,0.326-1.366,0.655-1.792,0.941c-0.842,0.595-0.628-0.055-3.383,1.267
		c-2.714,1.392-3.759,0.788-3.09,0.146C183.656,322.263,184.697,320.987,184.697,320.987z"/>
	<path d="M193.377,320.923c-3.025,1.835-6.353,4.676-9.302,8.001c-2.924,3.318-5.576,7.175-6.722,10.903
		c-1.171,3.746-0.07,6.263,0.884,7.621c0.976,1.347,1.355,1.866,0.825,1.48c-0.487-0.406-1.481-0.71-2.642-1.993
		c-1.175-1.192-2.341-3.853-1.5-7.273c0.815-3.367,2.381-5.99,3.746-8.138c1.391-2.146,2.692-3.806,3.646-5.04
		c0.975-1.216,1.344-1.482,2.289-2.255c0.981-0.732,2.438-2.084,6.204-4.796c3.809-2.674,6.671-3.442,8.015-3.413
		c1.356,0.053,1.138,0.504-0.007,0.945c-1.162,0.488-2.57,1.447-3.625,2.332C194.126,320.173,193.377,320.923,193.377,320.923z"/>
	<path d="M199.121,328.502c-5.081,2.164-10.485,8.598-13.745,14.217c-3.343,5.617-3.46,8.433-3.627,7.441
		c0.05-0.499-0.311-1.283-0.242-2.637c-0.016-1.356,0.367-3.258,1.573-5.63c2.485-4.692,5.131-8.012,6.691-9.978
		c0.789-0.977,1.123-1.158,1.9-1.758c0.836-0.537,2.032-1.611,5.305-3.538c3.366-1.86,5.95-1.815,6.96-1.392
		c1.035,0.333,0.762,0.739-0.205,0.912c-0.491,0.078-1.049,0.18-1.585,0.466c-0.537,0.255-1.075,0.442-1.513,0.786
		c-0.434,0.302-0.82,0.568-1.096,0.761C199.268,328.34,199.121,328.502,199.121,328.502z"/>
	<path d="M206.964,334.248c-4.623,1.727-9.765,7.117-12.95,11.924c-3.212,4.792-3.707,7.279-3.78,6.376
		c0.099-0.442-0.204-1.174-0.083-2.377c0.021-1.225,0.454-2.905,1.634-4.982c2.473-4.068,4.992-6.92,6.487-8.606
		c0.75-0.843,1.064-0.981,1.799-1.467c0.78-0.431,1.924-1.301,4.924-2.883c3.071-1.525,5.331-1.469,6.25-1.11
		c0.934,0.3,0.719,0.715-0.143,0.917c-0.879,0.144-1.966,0.708-2.769,1.21c-0.392,0.275-0.739,0.517-0.989,0.692
		C207.099,334.103,206.964,334.248,206.964,334.248z"/>
	<path d="M197.601,350.588c2.327-1.993,14.723-14.077,29.75-23.212c7.418-4.669,15.279-8.74,21.67-12.024
		c6.411-3.26,11.234-5.972,13.143-7.139c5.853-3.507,10.996-7.594,14.346-11.516c3.423-3.846,5.539-7.024,6.367-8.274
		c1.755-2.421,2.772-3.376,3.852-2.674c1.081,0.706,1.181,1.454-0.829,4.228c-0.535,0.666-1.515,2.25-3.198,3.97
		c-0.807,0.885-1.705,1.871-2.657,2.916c-0.967,1.028-2.129,1.973-3.231,3.007l-1.685,1.531c-0.601,0.462-1.201,0.925-1.795,1.383
		c-1.198,0.897-2.335,1.822-3.455,2.608c-2.302,1.478-4.231,2.874-5.573,3.662c-6.86,4.396-14.602,8.258-21.966,12.333
		c-7.4,4.021-14.387,8.373-20.34,12.726c-1.482,1.094-2.952,2.117-4.316,3.176c-1.339,1.09-2.63,2.142-3.864,3.147
		c-2.51,1.953-4.607,3.946-6.46,5.637c-3.767,3.318-6.107,5.952-7.024,6.898c-3.574,3.882-4.319,3.163-5.065,2.446
		C194.524,354.705,195.601,352.197,197.601,350.588z"/>
	<path d="M574.361,195.692c1.817-0.817,4.057-1.338,6.294-1.234c2.266,0.064,4.338,0.755,6.374,1.531
		c2.005,0.83,4.09,2.015,5.83,3.757c1.76,1.722,3.018,3.895,3.908,6.012c3.483,8.28,4.135,17.868,2.192,26.028
		c-0.985,4.101-2.585,7.424-4.299,9.889c-1.793,2.435-3.578,4.05-5.07,4.976c-3.001,1.809-4.115,1.775-3.117,1.141
		c0.481-0.355,1.049-0.863,1.684-1.593c0.562-0.817,1.343-1.693,2.024-2.992c1.43-2.512,3.172-6.054,4.411-11.569
		c1.277-5.517,1.078-10.781,0.332-15.022c-0.369-2.153-0.912-3.975-1.529-5.653c-0.614-1.684-1.239-3.065-1.858-4.104
		c-1.273-2.024-1.546-2.479-2.638-3.859c-0.588-0.639-1.427-1.474-3.143-2.366c-1.722-0.761-4.349-2.04-7.547-1.298
		c-3.173,0.814-5.687,3.123-7.882,4.452c-2.17,1.44-3.976,2.21-5.143,2.508c-2.391,0.528-2.245-0.331-0.382-1.638
		c1.882-1.374,3.907-3.682,5.752-5.635c0.924-0.968,1.829-1.835,2.573-2.415C573.829,196,574.361,195.692,574.361,195.692z"/>
	<path d="M568.2,209.427c2.231-0.917,4.898-2.279,8.009-3.094c1.562-0.373,3.047-0.688,4.726-0.799
		c0.823-0.055,1.715-0.027,2.636,0.171c0.937,0.2,1.867,0.732,2.509,1.309c1.259,1.187,1.791,2.111,2.411,2.858
		c0.589,0.748,1.059,1.347,1.417,1.804c0.734,0.897,0.882,1.334,0.538,1.085c-0.338-0.251-1.02-0.368-2.019-0.861
		c-0.993-0.435-2.319-1.505-3.684-2.861c-1.289-1.232-3.036-1.034-4.568-0.781c-1.512,0.28-2.807,0.688-3.64,1.028
		c-0.857,0.366-1.122,0.384-1.852,0.526c-0.728,0.153-1.921,0.411-4.564,1.667c-5.326,2.603-6.99,1.749-5.519,0.841
		C566.022,211.398,568.2,209.427,568.2,209.427z"/>
	<path d="M565.849,219.157c2.102-0.739,4.568-1.853,7.334-2.665c2.741-0.806,5.867-1.316,8.699-0.739
		c2.832,0.586,4.484,1.893,5.244,2.741c0.781,0.863,0.876,1.245,0.551,1.034c-0.711-0.36-2.417-0.686-5.914-1.343
		c-3.623-0.555-6.571,0.544-8.137,1.236c-1.579,0.823-1.045-0.12-6.018,1.902c-4.964,2.135-6.47,1.338-5.14,0.468
		C563.777,220.93,565.849,219.157,565.849,219.157z"/>
	<path d="M563.218,229.248c1.862-0.908,4.057-2.091,6.629-2.87c1.336-0.362,2.541-0.706,4.212-0.635
		c1.534,0.093,2.851,0.528,3.988,1.036c2.257,1.056,3.443,2.197,4.104,2.803c0.302,0.297,0.504,0.502,0.506,0.601l0.039,0.204
		c-0.469,0.144-2.488,0.482-5.483-0.775c-1.519-0.599-2.952-0.826-3.971-0.635c-1.142,0.191-2.098,0.601-2.745,0.957
		c-0.653,0.364-0.871,0.351-1.46,0.439c-0.581,0.095-1.569,0.255-3.582,1.363c-1.991,1.127-3.302,1.658-4.098,1.691
		c-0.787,0.044-1.018-0.399-0.561-0.961C561.672,231.303,563.218,229.248,563.218,229.248z"/>
	<path d="M538.928,250.247c5.726-4.197,9.868-10.451,14.14-13.584c4.266-3.125,1.953,3.773-0.346,6.074
		c-2.301,2.306-6.445,6.454-9.668,9.681c-0.795,0.817-2.827,2.765-5.289,5.411c-2.495,2.639-5.555,5.932-8.788,9.081
		c-3.217,3.158-6.637,6.159-9.676,8.307c-1.519,1.072-2.915,1.96-4.099,2.579c-0.294,0.16-0.568,0.309-0.822,0.446
		c-0.304,0.131-0.583,0.251-0.836,0.36c-0.502,0.231-0.919,0.337-1.209,0.415c-1.111,0.377-4.471,0.883-8.214-0.302
		c-3.761-1.085-7.841-3.411-11.583-6.201c-7.55-5.562-13.752-12.99-16.266-15.735c-2.57-2.723-3.276-5.42-3.06-6.849
		c0.219-1.445,1.223-1.689,2.132-0.413c0.914,1.292,3.168,4.572,5.677,7.492c2.461,2.952,5.09,5.548,5.77,6.223
		c0.681,0.666,4.401,4.929,9.177,8.527c2.389,1.771,5.024,3.396,7.468,4.301c2.429,0.948,4.613,1.165,5.722,0.999
		c1.111-0.127,2.729-0.388,4.379-1.314c1.704-0.885,3.539-2.108,5.339-3.418c3.602-2.623,6.952-5.737,8.814-7.555
		C531.438,261.159,536.689,251.738,538.928,250.247z"/>
	<path d="M465.907,289.489c7.74,2.273,13.421,5.364,18.39,11.529c3.198,3.899,8.615,9.927,16.705,12.151
		c2.009,0.497,4.101,1.001,6.089,0.899c2.041-0.071,4.132-0.526,6.116-1.227c3.998-1.338,7.611-3.455,10.676-5.473
		c6.17-4.041,14.067-10.839,20.635-17.388c6.605-6.523,11.967-12.706,13.897-14.96c3.884-4.519,6.158-9.055,7.859-9.157
		c1.739-0.12-0.254,4.041-2.778,7.086c-1.233,1.538-7.474,9.35-14.554,16.725c-7.002,7.446-15.033,14.243-17.521,15.673
		c-2.457,1.454-8.417,6.503-15.466,9.876c-3.49,1.698-7.402,2.827-10.856,2.736c-1.688-0.033-2.97-0.313-4.089-0.444
		c-1.086-0.193-1.87-0.486-2.297-0.639c-0.424-0.171-0.931-0.353-1.502-0.546c-0.555-0.242-1.167-0.51-1.822-0.797
		c-1.345-0.497-2.731-1.314-4.198-2.053c-2.818-1.664-5.541-3.682-7.267-5.224c-3.568-2.985-9.204-8.591-13.207-11.341
		c-1.918-1.411-4.484-3.766-6.839-5.559C461.386,289.46,463.735,288.932,465.907,289.489z"/>
	<path d="M493.027,329.6c0.766-5.533-1.473-11.458-2.443-14.406c-0.231-0.686-0.183-0.99-0.014-1.416
		c0.159-0.368,0.668-0.681,1.442-0.524c1.616,0.297,3.292,2.279,3.658,3.64c0.863,2.772,1.514,7.621,1.736,11.381
		c0.129,1.902,0.563,9.217-0.213,16.625c-0.112,0.939-0.226,1.869-0.436,2.852c-0.236,1.074-0.486,1.826-0.735,2.688
		c-0.495,1.664-1.009,3.211-1.47,4.592c-0.929,2.754-1.708,4.809-1.983,5.562c-0.287,0.746-1.086,2.759-2.271,5.408
		c-1.21,2.652-2.68,5.939-4.85,9.235c-2.193,2.956-3.824,5.968-4.777,8.851c-0.956,2.838-1.128,5.302-0.984,6.591
		c0.277,2.594,0.027,4.079-0.435,5.111c-0.213,0.482-0.48,0.961-0.838,1.107c-0.324,0.158-0.909-0.062-1.259-0.75
		c-0.857-1.363-1.323-4.973-0.782-8.274c0.457-3.32,1.674-6.278,2.017-7.022c0.153-0.384,0.809-1.642,1.875-3.249
		c1.031-1.649,2.711-3.447,4.002-5.382c2.65-4.017,4.782-8.751,5.277-10.517c0.479-1.789,1.728-5.102,2.902-8.518
		c0.591-1.704,1.175-3.431,1.641-4.993c0.459-1.538,0.624-2.981,0.741-4.019C495.351,339.931,492.804,331.616,493.027,329.6z"/>
	<path d="M128.943,398.987c-3.829,4.459-7.781,9.638-11.745,15.264c-3.977,5.639-7.933,11.676-11.484,18.114
		c-7.13,12.868-12.949,27.036-17.156,40.236c-4.206,13.207-6.306,22.717-7.49,28.334c-1.122,5.628-1.61,7.344-1.35,5.264
		c0.26-2.079,0.35-5.233,0.966-10.457c0.678-5.206,1.876-12.51,4.893-22.601c6.147-20.154,13.59-35.369,18.222-44.069
		c2.383-4.328,3.181-5.502,5.4-8.684c1.089-1.611,2.576-3.66,4.847-6.835c2.288-3.158,5.354-7.432,9.945-13.209
		c4.611-5.761,8.692-10.073,12.204-13.054c3.506-2.981,6.462-4.614,8.521-5.14c2.071-0.533,2.973-0.162,2.759-0.022
		c-0.186,0.233-1.376,0.322-3.184,1.285c-3.656,1.855-7.542,5.917-10.433,9.321C130.961,396.169,128.943,398.987,128.943,398.987z"
		/>
	<path d="M131.517,416.89c-10.013,14.201-22.252,35.669-29.047,54.877c-3.466,9.574-4.853,16.583-5.665,20.704
		c-0.705,4.148-1.066,5.42-0.897,3.89c0.437-2.989-0.406-9.463,4.376-24.259c5.067-14.63,10.764-25.653,14.06-32.06
		c1.66-3.209,2.261-4.055,3.738-6.471c1.541-2.377,3.935-6.347,9.909-15.344c6.022-8.968,10.105-13.948,12.097-16.143
		c1.996-2.193,1.951-1.58,0.211,0.957c-1.755,2.526-3.962,5.988-5.726,8.813C132.847,414.7,131.517,416.89,131.517,416.89z"/>
	<path d="M274.651,417.796c1.121-3.458,2.706-6.438,4.162-9.39c1.49-2.943,3.032-5.79,4.619-8.509
		c3.173-5.415,6.563-10.36,10.77-13.522c2.184-1.551,3.663-1.687,3.986-1.272c0.388,0.439-0.055,1.438-0.649,2.623
		c-1.203,2.423-3.078,6.256-4.79,8.547c-1.729,2.259-4.013,5.604-6.184,9.348c-2.175,3.72-4.271,7.907-5.472,11.472
		c-0.25,0.799-0.679,2.43-1.073,4.687c-0.421,2.224-0.775,5.033-0.999,8.231c-0.465,6.4-0.22,14.377,0.684,22.277
		c0.501,3.941,0.921,7.985,1.868,11.263c1.01,3.444,2.371,6.718,3.652,9.623c2.606,5.808,4.802,10.231,5.545,11.86
		c0.736,1.638,2.846,6.012,5.167,12.222c1.128,3.116,2.336,6.687,3.079,10.717c0.738,4.004,1.079,8.551-0.121,13.112
		c-1.153,4.572-4.13,8.669-7.673,11.381c-3.5,2.637-6.949,4.496-10.095,6.312c-6.311,3.526-11.365,6.489-13.869,8.44
		c-5.119,3.837-8.273,5.71-9.899,6.7c-0.857,0.484-1.522,0.885-2.019,0.606c-0.465-0.237-0.738-1.451,0.113-2.994
		c0.807-1.538,2.744-3.642,5.309-5.608c2.558-1.988,5.699-3.955,8.803-5.772c6.239-3.593,12.195-6.807,13.666-7.745
		c0.697-0.479,3.537-1.767,6.565-4.155c1.515-1.216,2.997-2.867,4.159-4.922c1.16-2.055,1.898-4.55,2.139-7.182
		c0.515-5.302-0.818-10.89-2.256-15.409c-1.477-4.541-3.084-8.145-4.056-9.98c-1.908-3.695-5.555-10.83-8.731-18.403
		c-1.558-3.791-2.944-7.734-3.552-11.441c-0.577-3.669-0.922-6.92-1.18-9.288c-0.527-4.729-1.832-11.8-2.35-18.489
		C273.387,426.469,273.791,420.173,274.651,417.796z"/>
	<path d="M277.673,553.46c-3.197,0.542-6.915,2.184-10.42,4.463c-3.524,2.268-6.896,5.062-9.969,7.621
		c-6.086,5.184-9.096,6.918-8.31,5.968c0.851-0.87,1.475-3.653,6.027-7.881c4.556-4.19,8.491-7.279,10.867-9.077
		c1.213-0.863,1.605-1.039,2.703-1.456c1.122-0.368,2.807-1.274,7.134-2.519c4.39-1.185,7.223-0.513,8.352-0.002
		c1.164,0.513,0.855,0.985-0.339,1.087c-1.206,0.027-2.768,0.479-3.974,0.872C278.543,553.029,277.673,553.46,277.673,553.46z"/>
	<path d="M286.033,559.057c-2.286,0.726-4.847,2.146-7.271,3.961c-2.442,1.795-4.798,3.915-7.055,5.784
		c-4.504,3.764-7.111,4.543-6.474,3.904c0.652-0.613,0.982-2.81,4.261-5.87c3.326-3.089,5.988-5.559,7.562-7.02
		c0.807-0.737,1.124-0.832,1.902-1.185c0.81-0.306,2.035-0.965,5.009-2.264c3.001-1.276,5.019-1.283,5.95-1.07
		c0.943,0.222,0.889,0.743,0.083,1.119c-0.818,0.355-1.837,1.012-2.623,1.573C286.59,558.566,286.033,559.057,286.033,559.057z"/>
	<path d="M346.177,454.092c-4.71,4.574-6.687,11.338-9.422,15.32c-2.775,4.081-3.221-2.819-1.73-5.655
		c1.425-2.785,4.236-7.69,6.811-11.274c1.259-1.775,6.37-8.915,13.266-14.286c3.392-2.716,7.14-4.962,10.305-6.443
		c3.154-1.516,5.675-2.304,6.587-2.594c1.78-0.65,10.105-2.783,18.918-2.35c4.389,0.142,8.831,0.792,12.559,1.587
		c3.731,0.801,6.747,1.733,8.453,2.135c3.428,0.81,5.313,2.51,5.911,3.748c0.612,1.234,0.002,2.066-1.448,1.616
		c-1.436-0.495-4.939-1.869-8.389-2.907c-3.44-1.079-6.84-1.689-7.72-1.862c-0.871-0.18-5.994-1.529-11.623-1.744
		c-5.615-0.344-11.598,0.55-13.581,1.4c-2.007,0.741-5.945,1.949-9.687,3.835c-3.772,1.82-7.297,4.277-9.186,5.821
		c-1.941,1.502-4.187,4.494-5.987,7.304C348.387,450.55,347.051,453.256,346.177,454.092z"/>
	<path d="M303.947,563.624c-3.206,2.139-5.988,4.831-8.801,7.242c-2.8,2.404-5.682,4.49-8.501,5.382
		c-2.838,0.857-3.041-0.588-2.324-2.357c0.747-1.753,2.294-3.917,3.641-4.831c2.759-1.751,7.427-5.475,10.768-8.797
		c1.75-1.562,8.107-8.316,14.203-15.504c0.774-0.89,1.547-1.778,2.31-2.654l1.061-1.214l0.012-0.013l0.071-0.142l0.329-0.692
		c0.853-1.855,1.512-3.726,1.958-5.369c0.456-1.689,0.657-2.965,0.673-4.119c0.125-1.376,0.217-2.395,0.266-2.936
		c0.214-2.06,1.259-11.165,2.678-20.724c1.346-9.57,3.56-19.49,4.13-23.365c0.489-3.908,2.294-6.161,3.789-6.922
		c1.495-0.772,2.727-0.124,2.446,1.571c-0.323,1.687-1.431,5.786-2.339,9.765c-0.921,3.975-1.645,7.832-1.832,8.837
		c-0.193,1.003-1.785,6.793-3.046,13.054c-1.272,6.254-2.322,12.916-2.28,15.344c0.021,1.216-0.077,2.981-0.243,5.033
		c0,2.033-0.49,4.51-1.262,6.756c-0.379,1.141-0.818,2.266-1.294,3.342c-0.236,0.539-0.486,1.063-0.741,1.574
		c-0.214,0.484-0.568,1.107-0.971,1.458c-1.431,1.598-2.697,3.009-3.618,4.035c-1.808,2.086-3.883,5.755-5.894,9.097
		C307.137,559.814,305.164,562.834,303.947,563.624z"/>
	<path d="M468.47,383.905c2.964,1.558,5.755,4.006,8.184,6.609c2.335,2.688,4.303,5.535,5.7,8.047
		c0.692,1.254,2.741,4.843,4.566,9.947c1.884,5.078,3.585,11.607,4.633,18.26c2.187,13.325,1.823,26.951,2.115,30.573
		c0.479,7.279-0.326,15.719-1.95,31.987c-0.599,5.877-2.19,13.445-3.762,19.483c-1.555,6.043-3.007,10.584-3.007,10.584
		c-0.526,0.075,0.26-6.531,1.119-14.215c0.904-7.679,1.748-16.447,2.306-20.66c0.593-4.208,1.233-10.131,1.645-15.677
		c0.421-5.544,0.597-10.71,0.634-13.389c0.092-2.674,0.014-11.942-1.187-20.879c-1.021-8.979-3.611-17.388-4.319-19.122
		c-0.719-1.747-1.88-4.763-3.528-8.267c-1.728-3.46-3.988-7.377-6.733-10.883c-5.603-6.824-8.204-10.005-9.214-12.259
		c-0.523-1.087,0.146-1.143,0.983-0.903C467.486,383.379,468.47,383.905,468.47,383.905z"/>
	<path d="M421.047,438.318c5.366,1.687,10.206,3.993,14.07,7.45c2.082,1.633,3.656,3.693,5.323,5.895
		c1.409,2.317,2.841,4.845,3.713,7.832c1.295,3.744,2.504,8.615,3.641,14.09c1.061,5.497,1.836,11.64,2.29,17.972
		c0.453,6.334,0.557,12.856,0.375,19.128c-0.224,6.312-0.842,12.251-1.076,17.541c-0.233,5.271-0.487,11.627,0.389,18.121
		c0.449,3.229,1.181,6.52,2.52,9.479c1.28,2.936,3.514,5.346,5.9,7.41c4.999,3.975,10.729,6.465,15.369,8.509
		c4.684,1.995,8.367,3.62,10.309,4.538c3.886,1.833,7.524,3.624,10.157,5.515c2.603,1.962,4.005,4.026,3.812,5.178
		c-0.195,1.147-1.62,0.626-3.246-0.49c-0.84-0.548-1.935-1.121-2.935-1.862c-1.156-0.606-2.239-1.385-3.399-2.051
		c-1.131-0.699-4.686-2.645-9.911-4.78c-5.172-2.244-11.997-4.576-18.537-8.555c-3.241-1.973-6.459-4.416-8.786-7.637l-0.893-1.161
		l-0.705-1.289c-0.434-0.854-0.979-1.7-1.278-2.539c-0.679-1.673-1.159-3.311-1.56-4.874c-1.412-6.265-1.32-11.125-1.177-13.165
		c0.151-2.051,0.215-5.85,0.347-10.446c0.121-4.596,0.337-9.982,0.28-15.158c-0.152-10.362-1.813-20.222-1.786-22.557
		c-0.027-1.172-0.173-2.772-0.392-4.612c-0.243-1.833-0.657-3.884-1.057-5.983c-0.952-4.163-2.208-8.438-3.246-11.334
		c-1.025-2.896-2.662-6.824-4.941-10.426c-2.135-3.704-5.014-6.929-7.402-9.177c-1.221-1.03-2.613-2.452-4.117-3.926
		c-1.588-1.367-3.156-2.981-4.862-4.15C414.778,438.105,417.987,437.445,421.047,438.318z"/>
	<path d="M489.615,567.353c2.549,0.928,5.716,1.802,8.947,3.089c3.215,1.278,6.527,3.034,8.998,5.413
		c2.468,2.404,3.407,4.743,3.721,6.094c0.308,1.383,0.181,1.846-0.038,1.429c-0.518-0.834-2.215-2.084-5.416-5.102
		c-3.386-2.994-7.003-4.159-9.058-4.683c-2.134-0.431-0.929-0.888-7.177-2.83c-6.312-1.833-7.124-3.726-5.201-3.535
		C486.293,567.419,489.615,567.353,489.615,567.353z"/>
	<path d="M495.313,560.076c3.859,1.469,8.482,3.302,13.07,5.661c4.576,2.37,9.103,5.258,12.833,8.362
		c3.734,3.103,5.89,5.77,7.057,7.401c1.148,1.658,1.331,2.299,0.825,1.798c-1.048-0.988-3.855-2.188-9.32-6.587
		c-5.554-4.348-10.637-6.873-13.664-8.092c-1.533-0.586-1.888-0.908-3.001-1.545c-1.112-0.633-2.911-1.771-7.521-3.444
		c-4.614-1.64-7.372-2.634-8.589-3.404c-1.218-0.755-0.896-1.183,0.539-1.005C490.411,559.472,495.313,560.076,495.313,560.076z"/>
	<path d="M484.857,536.504c0.201,2.992,0.733,6.294,2.442,9.212c1.613,2.974,4.46,5.351,7.675,7.222
		c3.186,1.913,6.871,3.151,10.522,4.41c3.657,1.245,7.322,2.457,10.716,3.937c6.839,2.907,10.946,6.418,12.979,8.673
		c2,2.332,2.406,3.165,1.667,2.361c-0.379-0.397-0.893-0.857-1.563-1.44c-0.703-0.546-1.586-1.196-2.7-1.962
		c-2.241-1.531-5.517-3.404-10.481-5.524c-4.972-2.124-9.698-3.458-13.686-4.82c-3.994-1.305-7.311-2.721-9.573-4.095
		c-2.279-1.363-2.843-1.929-4.344-3.409c-0.697-0.803-1.657-1.831-2.78-3.671c-1.129-1.822-2.277-4.57-2.806-8.48
		c-0.528-3.91-0.375-6.993-0.286-9.352c0.114-2.364,0.283-4.019,0.433-5.064c0.312-2.091,0.638-1.729,0.736,0.459
		c0.103,2.186,0.267,5.107,0.506,7.448C484.532,534.758,484.857,536.504,484.857,536.504z"/>
	<path d="M21.039,547.763c-17.148,5.218-22.302,10.923,2.97,3.447c25.729-7.61,47.212-16.345,85.324-28.383
		c38.121-12.04,76.932-23.702,99.697-30.629c22.232-6.764,19.135-11.583-24.918,4.259c-23.577,8.48-35.432,11.212-75.476,24.162
		C76.652,530.963,43.291,540.992,21.039,547.763z"/>
	<path d="M211.718,503.667c17.148-5.218,22.302-10.923-2.97-3.449c-25.729,7.61-47.212,16.345-85.324,28.385
		c-38.122,12.04-76.932,23.7-99.697,30.629c-22.232,6.762-19.135,11.583,24.918-4.259c23.577-8.48,35.432-11.212,75.475-24.162
		C156.105,520.468,189.466,510.438,211.718,503.667z"/>
	<path d="M39.866,565.304c-6.515-1.443-12.069-2.151-16.095-2.479c-4.029-0.315-6.541-0.271-7.073,0.146
		c-0.531,0.413,0.95,1.227,4.96,2.333c3.997,1.138,10.546,2.426,19.874,4.663c4.732,1.17,9.349,2.439,13.706,4.117
		c2.152,0.87,4.312,1.749,6.239,2.894c1.99,1.121,4.08,2.461,6.098,3.711c2.026,1.276,4.058,2.572,5.991,3.933
		c0.925,0.652,1.985,1.436,2.537,2.004l0.059,0.062l0.032-0.02l0.602-0.357c0.199-0.195,0.556-0.309,0.771-0.351l0.19-0.011
		l-0.029-0.038l-0.119-0.233l-0.055-0.368c-0.085-0.351-0.087-0.85-0.04-1.076l-0.202-0.02c-0.409-0.06-0.98-0.211-1.524-0.373
		c-1.114-0.337-2.263-0.748-3.412-1.178l-2.034-0.79c-0.926-0.337-2.099-0.819-3.055-1.059c-2.067-0.59-3.405-0.51-4.308,0.093
		c-0.222,0.135-0.557,0.459-0.658,0.828c-0.112,0.346-0.099,0.617-0.084,0.91c0.064,0.568,0.272,1.183,0.741,1.911
		c0.42,0.708,1.165,1.516,1.914,2.29c0.377,0.388,0.806,0.77,1.204,1.156l1.028,0.917c1.079,0.93,2.092,1.744,3.175,2.597
		c2.141,1.678,4.36,3.309,6.65,4.925c4.581,3.229,9.441,6.412,14.644,9.552c5.212,3.125,10.744,6.261,16.878,8.997
		c3.084,1.32,6.286,2.652,9.905,3.229c3.497,0.437,7.062,0.846,10.749,1.141c9.036,0.766,18.127,0.91,26.994,0.728
		c4.434-0.109,8.814-0.286,13.108-0.586c2.146-0.166,4.272-0.333,6.374-0.497c2.569-0.255,5.821-0.557,8.324-0.981
		c-1.45-1.065-2.895-2.126-4.335-3.182c-1.205-0.903-2.406-1.804-3.602-2.701c-1.982-1.52-3.949-3.029-5.899-4.525
		c-3.881-3.018-7.659-6.028-11.31-9.035c-7.26-6.032-14.192-11.962-19.819-18.24c-2.527-2.854-6.031-7.626-2.862-7.381
		c0.84-0.098,1.635,0.022,2.89-0.011c0.549,0.044,1.216-0.158,1.823-0.286c0.308-0.075,0.643-0.3,0.954-0.464
		c0.327-0.153,0.604-0.402,0.85-0.717c0.574-0.568,0.759-1.289,0.948-1.955c0.052-0.624,0.132-1.296,0.021-1.826
		c-0.052-0.579-0.158-1.116-0.312-1.607c-0.123-0.519-0.286-1.003-0.47-1.463c-1.431-3.728-3.43-6.756-5.319-9.647
		c-1.928-2.859-3.875-5.468-5.751-7.892c-5.312-6.804-9.766-11.303-12.468-13.633c-2.722-2.319-3.703-2.45-2.457-0.284
		c1.217,2.188,4.694,6.671,10.358,14.039c2.789,3.697,6.228,8.107,9.588,13.529c0.806,1.36,1.638,2.783,2.299,4.259
		c0.648,1.403,1.182,3.174,1.033,3.968c-0.073,0.306-0.028,0.209-0.464,0.442c-0.257,0.055-0.511,0.162-0.931,0.138l-0.569,0.024
		l-0.837-0.009c-0.589,0.004-1.186,0.018-1.867,0.144c-0.621,0.082-1.629,0.386-2.385,0.963c-0.783,0.559-1.284,1.46-1.389,2.419
		c-0.126,0.948,0.129,2,0.379,2.563c0.701,1.729,1.639,2.912,2.552,4.097c0.927,1.158,1.884,2.21,2.844,3.218
		c1.921,2.013,3.862,3.833,5.782,5.588c3.852,3.493,7.646,6.693,11.514,9.885c3.872,3.182,7.825,6.347,12.065,9.661
		c3.339,2.559,6.876,5.271,10.778,8.263c-0.408,0.095-1.048,0.12-1.559,0.173c-1.567,0.129-3.19,0.264-4.873,0.402
		c-3.734,0.271-7.741,0.515-12.056,0.65c-8.624,0.304-18.483,0.304-29.755-0.537l-4.598-0.395l-4.587-0.537
		c-2.99-0.24-5.732-1.212-8.579-2.352c-5.616-2.324-11.016-5.337-16.247-8.484c-5.227-3.169-10.289-6.545-15.14-10.053
		c-2.423-1.758-4.796-3.549-7.078-5.393c-1.141-0.923-2.26-1.858-3.339-2.812c-1.156-1.03-1.08-0.985-1.425-1.349l-0.345-0.455
		l-0.069-0.264l0.252-0.098c0.397,0.044,0.755,0.202,1.092,0.337l0.954,0.404l2,0.803c1.366,0.515,2.646,1.025,4.252,1.387
		c0.228,0.04,0.417,0.087,0.713,0.109c0.13,0.011,0.262,0.027,0.493,0.011l0.305-0.024l0.571-0.175l0.301-0.16l0.452-0.437
		c0.286-0.377,0.366-0.695,0.385-1.021c0.004-0.848-0.15-0.848-0.259-1.178c-0.209-0.373-0.395-0.593-0.546-0.759
		c-0.63-0.688-1.18-1.123-1.751-1.591c-1.13-0.897-2.254-1.698-3.379-2.479c-2.248-1.556-4.483-3.007-6.687-4.419
		c-2.156-1.363-4.455-2.874-6.838-3.924c-2.347-1.13-4.708-1.995-7.017-2.805C48.566,567.384,44.089,566.256,39.866,565.304z"/>
	<path d="M82.989,584.566c-4.678,1.087-5.361,5.309,1.57,3.904c7.057-1.427,12.534-4.86,22.854-7.697
		c10.322-2.836,20.936-5.162,27.146-6.609c6.065-1.409,4.213-6.636-7.378-1.542c-6.204,2.725-9.591,2.654-20.381,5.919
		C98.181,581.146,89.059,583.15,82.989,584.566z"/>
	<path d="M226.039,493.998c-0.748,0.961,2.541,3.049,3.692,1.964c1.132-1.147,0.939-3.882,0.004-6.489
		c-0.225-0.655-0.576-1.34-1.095-1.904c-0.516-0.57-1.177-0.972-1.777-1.243c-1.217-0.526-2.192-0.783-2.711-1.059
		c-0.254-0.124-0.486,0.111-0.762,0.488c-0.273,0.384-0.579,0.919-0.687,1.478c-0.307,1.134,0.802,2.421,2.28,1.68
		c0.767-0.368,1.245-0.255,1.615,0.013c0.372,0.315,0.496,0.548,0.954,1.318C228.296,491.497,226.986,492.877,226.039,493.998z"/>
	<path d="M4.255,557.856c0.084-0.111-0.362-0.992-1.013-1.804c-0.34-0.377-0.78-0.668-1.383-0.597
		c-0.573,0.036-1.427,0.564-1.745,1.871c-0.327,1.334,0.099,2.59,0.679,3.409c0.574,0.888,1.34,1.456,2.134,1.969
		c1.655,0.941,3.39,1.669,5.832,2.208c1.311,0.229,2.647,0.044,3.828-0.779c1.213-0.826,1.689-2.441,1.56-3.669
		c-0.067-1.272-0.616-2.408-1.168-3.245c-0.563-0.848-1.122-1.474-1.551-1.982c-0.805-0.937-2.102-0.462-2.722,0.537
		c-0.658,1.061,0.118,2.843,1.974,3.724c0.957,0.51,1.183,1.474,0.941,2.111c-0.132,0.311-0.322,0.524-0.695,0.715
		c-0.335,0.177-1.066,0.391-1.768,0.308c-1.397-0.138-3.01-1.185-3.967-2.27c-0.469-0.553-0.847-1.136-0.97-1.611
		C4.11,558.278,4.137,557.974,4.255,557.856z"/>
	<path d="M426.61,225.275c2.357-0.193,5.085-0.548,8.073,0.495c1.492,0.442,2.938,1.522,3.952,2.863l0.694,1.065
		c0.197,0.368,0.322,0.759,0.482,1.141c0.317,0.726,0.568,1.653,0.584,2.55c0.038,3.677-2.02,6.534-4.215,8.693
		c-1.137,1.085-2.421,2.02-3.877,2.716c-1.452,0.67-2.983,1.032-4.443,1.178c-2.936,0.275-5.269-0.155-7.137-0.459
		c-1.834-0.357-3.291-0.639-4.379-0.85c-2.142-0.391-2.838-0.579-2.037-0.621c0.795-0.029,2.003-0.302,4.047-0.408
		c2.033-0.166,4.898,0.118,8.689-0.129c3.813-0.271,6.63-2.419,8.368-4.7c1.773-2.264,2.234-4.581,1.82-5.861
		c-0.146-0.626-0.495-1.123-0.588-1.538c-0.155-0.419-0.378-0.717-0.627-1.249c-0.186-0.215-0.4-0.464-0.663-0.766
		c-0.34-0.22-0.679-0.581-1.259-0.81c-1.087-0.548-2.901-0.908-5.569-0.672c-2.665,0.24-4.845,0.679-6.557,0.914
		c-1.711,0.251-2.964,0.346-3.769,0.3c-1.615-0.104-1.377-0.575,0.144-1.001c1.529-0.457,3.538-1.254,5.224-1.849
		C425.245,225.668,426.61,225.275,426.61,225.275z"/>
</g>
</svg>
