<?xml version="1.0" encoding="iso-8859-1"?>
<!-- Generator: Adobe Illustrator 22.1.0, SVG Export Plug-In . SVG Version: 6.00 Build 0)  -->
<svg version="1.1" id="_x36_" xmlns="http://www.w3.org/2000/svg" xmlns:xlink="http://www.w3.org/1999/xlink" x="0px" y="0px"
	 viewBox="0 0 512 512" style="enable-background:new 0 0 512 512;" xml:space="preserve">
<g>
	<path style="fill:#34AD37;" d="M145.569,115.628c-1.092,4.91-7.639,15.823-28.373,32.192
		c-20.734,16.369-26.19,49.653-24.008,70.387c2.182,20.735,9.821,24.554,16.914,23.462c7.094-1.091,17.461-4.365,17.461-4.365
		s6.001,45.833,28.373,68.75c-14.732,9.821-38.74,36.012-42.014,63.84c-3.274,27.828,1.636,39.831,4.91,48.561
		c3.274,8.73,19.098,31.101,20.188,37.103c1.092,6.002,3.82,17.461-10.911,20.189c-14.733,2.728-20.735-1.637-31.647-1.637
		c-10.913,0-15.824,5.457-10.368,6.548c5.456,1.091,11.459,3.273,11.459,3.273s-26.19,4.365-25.099,10.368
		c1.09,6.002,22.916,0,26.19,0c3.273,0-21.826,8.73-13.641,13.095c8.185,4.365,23.462-3.819,36.011-3.819s23.462,2.728,36.013-2.183
		c12.549-4.91,16.914-22.917,18.552-35.466c1.636-12.55-1.092-50.745,0.544-58.928c1.638-8.185,22.372-41.469,36.559-49.107
		c14.186-7.639,30.555-9.276,52.927-9.822c22.37-0.546,54.563,9.822,64.93,25.099c10.367,15.278,17.46,42.014,15.824,52.927
		c-1.636,10.913-10.913,35.466-11.459,46.925c-0.544,11.458,7.094,27.281,16.369,31.647c9.277,4.365,21.826,2.728,31.647,1.636
		c9.823-1.091,26.736,0,33.829,4.365c7.094,4.365,0.546-10.913-9.275-13.095c23.462,4.91,26.19,8.185,26.19,4.365
		c0-3.819-8.731-14.187-18.006-14.187c21.826-0.545,23.462,0.546,19.098-4.365c-4.366-4.911-12.005-8.731-18.552-8.185
		c-6.548,0.546-19.643,2.728-29.465-4.365c-9.821-7.093-5.456-22.371-4.366-26.736c1.092-4.365,14.187-31.101,15.279-54.563
		c1.09-23.463-6.548-56.746-7.639-60.02c-1.092-3.273-19.098-33.284-23.464-36.557c-4.365-3.274-13.64-17.46-13.64-17.46
		s10.367-22.917,11.457-58.383c1.092-35.466-15.277-65.476-15.277-65.476l-9.821-30.011c0,0-4.911-31.101-30.011-52.927
		c-25.099-21.825-33.283-26.19-33.283-26.19s2.182-16.369-10.913-21.825c-13.095-5.457-22.372,7.639-25.1,19.643
		c-5.456,0.545-9.275,0-18.552-1.637c-9.275-1.637-21.28-6.002-24.008-8.185c-2.728-2.182-3.819-21.825-17.46-25.645
		c-13.641-3.819-20.188,6.002-20.188,13.096c0,7.093-3.82,17.46-3.82,17.46s-13.095,2.183-27.827,5.456
		c-14.733,3.274-19.098,3.819-18.007,9.822c1.092,6.002,17.461,14.186,19.644,15.823c2.182,1.637,3.274,6.548,5.456,8.185
		C137.384,76.342,148.843,101.987,145.569,115.628z"/>
	<path style="fill:#FFFFFF;" d="M135.258,70.15l47.371,15.79c0,0-11.842,5.921-15.79,19.08c-3.947,13.159-4.605,22.37-5.263,24.344
		c-0.658,1.974-14.476,17.764-15.132,15.132c-0.658-2.632,2.631-31.581-1.974-47.371C139.864,81.335,135.258,70.15,135.258,70.15z"
		/>
	<path style="fill:#FFFFFF;" d="M190.525,89.23c4.606,1.316,67.11,27.633,71.715,29.607c4.605,1.974-18.422,5.921-16.448,30.265
		c1.973,24.344,17.764,49.345,17.764,49.345s-7.896,23.686-5.264,29.607c-1.974,3.948-50.661-22.37-68.426-27.634
		c-17.764-5.263-20.396-13.816-20.396-13.816s-1.316-3.947,1.316-4.605c2.632-0.658,11.184-1.974,15.79-11.843
		c4.606-1.974,8.554-7.895,7.238-15.132c-1.316-7.237,0-4.606,0-4.606s5.262-11.185-0.658-17.764
		c-5.922-6.58-11.186-5.922-11.186-5.922S176.051,106.336,190.525,89.23z"/>
	<path style="fill:#FFFFFF;" d="M138.794,230.984c-2.961,19.246,24.428,70.323,56.258,88.089
		c31.831,17.766,69.582,8.142,88.088-4.441c18.506-12.584,18.506-56.998,17.026-68.102c-8.143,16.285-35.532,28.869-47.376,30.35
		c-11.844,1.48-32.571-5.922-37.011-12.584c-4.442-6.663-62.92-48.115-62.92-48.115L138.794,230.984z"/>
	<path style="fill:#231815;" d="M162.691,14.324c-1.412,4.719-1.563,8.548-2.069,11.195c-0.435,2.669-1,4.212-1.62,4.776
		c-1.201,1.128-2.622-1.524-2.215-6.176c0.463-4.625,1.007-9.435,3.059-13.785c1.961-4.258,5.347-7.979,9.538-9.461
		c2.057-0.744,4.291-0.998,6.426-0.818c2.142,0.179,4.176,0.807,6.037,1.68c3.711,1.739,6.785,4.669,8.836,7.949
		c1.053,1.635,2.086,3.8,2.849,5.979c0.767,2.18,1.312,4.36,1.632,6.057c0.625,3.401,0.49,4.877-1.371,0.784
		c-1.888-4.066-3.564-6.704-5.573-9.179c-1.009-1.218-2.111-2.446-3.435-3.597c-1.336-1.154-2.958-2.344-5.069-3.311
		c-2.1-0.973-4.551-1.508-6.82-1.178c-2.267,0.291-4.355,1.455-5.923,2.893c-1.577,1.437-2.655,3.051-3.323,4.234
		C162.989,13.561,162.691,14.324,162.691,14.324z"/>
	<path style="fill:#231815;" d="M197.859,88.907c-7.109-3.071-11.187-0.489-0.871,4.195c10.47,4.829,16.917,5.363,30.307,11.251
		c13.384,5.895,25.373,12.406,34.453,17.118c8.883,4.566,10.781-0.705-8.21-7.815c-10.187-3.702-11.255-5.054-25.44-11.116
		C216.756,97.739,207.064,92.913,197.859,88.907z"/>
	<path style="fill:#231815;" d="M140.568,41.041c5.047-0.772,8.377-2.015,8.666-3.17c0.303-1.096-2.766-2.28-10.479-1.21
		c-3.901,0.553-7.581,1.34-11.269,2.148c-1.839,0.395-3.689,0.792-5.577,1.198c-1.907,0.419-3.724,0.68-5.933,1.113
		c-2.1,0.526-4.472,1.222-6.446,3.098c-0.971,0.914-1.701,2.209-2.039,3.475c-0.399,1.241-0.46,2.833,0.035,4.187
		c0.483,1.368,1.372,2.544,2.498,3.418c0.283,0.219,0.579,0.424,0.892,0.607c0.136,0.09,0.356,0.193,0.448,0.241l0.108,0.06
		l0.191,0.129c0.533,0.362,1.072,0.729,1.618,1.1c2.151,1.536,4.517,2.972,6.988,4.527c10.029,6.02,20.975,10.438,30.88,13.986
		c9.922,3.533,18.774,6.434,25.195,8.841c6.261,2.327,9.688,2.158,8.347,0.302c-1.336-1.831-7.686-5.343-20.941-8.446
		c-7.073-1.695-12.189-3.332-18.335-5.68c-6.109-2.413-13.385-5.264-23.827-11.196c-2.026-1.274-4.126-2.467-6.054-3.903
		l-1.468-1.043l-0.733-0.522l-0.46-0.329l-0.463-0.26c-0.792-0.466-1.48-1.177-1.896-1.948c-0.411-0.779-0.546-1.603-0.382-2.422
		c0.085-0.409,0.243-0.911,0.43-1.307c0.168-0.406,0.435-0.742,0.704-1.073c1.154-1.286,3.185-1.933,5.281-2.288
		c2.052-0.257,4.474-0.463,6.627-0.789c2.192-0.313,4.307-0.657,6.337-0.999C133.564,42.192,137.28,41.525,140.568,41.041z"/>
	<path style="fill:#231815;" d="M208.291,35.968c-11.248-1.81-8.907-7.123-4.459-5.444c4.449,1.679,9.287,1.845,12.95,2.784
		c3.662,0.94,7.326,1.879,10.86,3.323c3.533,1.444,10.338,5.341,5.632,4.672c-4.707-0.669-6.8-0.131-12.292-1.54
		C215.487,38.353,208.291,35.968,208.291,35.968z"/>
	<path style="fill:#231815;" d="M249.199,26.902c-1.473,1.984-2.516,3.947-3.376,5.655c-0.871,1.753-1.596,3.213-2.192,4.416
		c-1.253,2.437-2.27,3.752-3.037,4.105c-1.493,0.718-2.024-2.278-0.171-6.643c1.882-4.312,4.007-8.804,7.43-12.266
		c1.688-1.706,3.613-3.174,5.762-4.164c2.128-1.004,4.485-1.526,6.705-1.417c2.217,0.086,4.393,0.668,6.317,1.621
		c1.927,0.959,3.626,2.242,5.082,3.715c2.932,2.913,4.837,6.769,5.711,10.566c0.465,1.909,0.734,4.321,0.761,6.656
		c0.029,2.34-0.151,4.609-0.388,6.344c-0.49,3.47-1.089,4.846-1.549,0.308c-0.49-4.523-1.247-7.602-2.34-10.657
		c-0.552-1.519-1.208-3.045-2.089-4.63c-0.869-1.562-2.026-3.248-3.712-4.921c-1.674-1.682-3.853-3.073-6.135-3.634
		c-2.273-0.588-4.632-0.294-6.614,0.512c-1.991,0.787-3.56,1.971-4.594,2.875C249.733,26.263,249.199,26.902,249.199,26.902z"/>
	<path style="fill:#231815;" d="M146.471,117.929c-0.779-7.56-0.338-11.117,0.55-12.006c0.852-0.886,2.033,0.931,2.102,4.154
		c0.147,6.424,1.159,12.848,0.994,18.063c-0.158,5.192-0.659,10.419-1.978,15.467c-0.158,0.565-0.338,1.201-0.526,1.872
		c-0.131,0.947-0.473,1.862-0.973,2.659c-0.973,1.624-2.743,2.612-4.079,2.628c-1.337,0.089-2.112-0.437-2.201-0.622
		c-0.1-0.273,0.489-0.187,1.782-0.49c1.28-0.386,2.016-1.351,2.378-2.294c0.184-0.476,0.284-0.958,0.312-1.423
		c0-0.232,0.004-0.458-0.026-0.674c0.007-0.643,0.063-0.803,0.073-1.126c0.213-2.362,0.411-4.865,0.807-8.601
		c0.401-3.739,0.652-8.132,0.733-11.602C146.501,120.466,146.471,117.929,146.471,117.929z"/>
	<path style="fill:#231815;" d="M135.603,77.823c-3.37-4.194-4.517-6.442-4.204-7.558c0.269-1.069,1.99-0.735,3.383,1.23
		c2.751,3.869,5.903,7.51,7.608,10.968c1.704,3.42,3.108,7.011,3.791,10.764c0.812,3.788,0.49,11.354-0.741,6.89
		c-0.641-2.207-1.322-3.684-2.017-5.25c-0.702-1.565-1.424-3.22-2.385-5.732c-0.964-2.512-2.231-5.385-3.363-7.58
		C136.537,79.366,135.603,77.823,135.603,77.823z"/>
	<path style="fill:#231815;" d="M334.384,99.486c3.37,6.76,4.935,12.093,5.731,15.816c0.74,3.75,0.661,5.936,0.333,6.807
		c-0.35,0.877-1.052,0.478-1.823-0.863c-0.794-1.338-1.54-3.646-2.408-6.558c-0.749-2.954-1.862-5.795-2.948-8.596
		c-1.221-2.749-2.439-5.456-3.86-7.976c-1.307-2.577-2.875-4.925-4.241-7.241c-1.532-2.22-2.855-4.431-4.296-6.384
		c-5.517-7.982-11.933-15.306-18.986-22.017c-3.428-3.469-9.004-8.256-12.594-11.223c-3.6-2.939-4.922-4.459,0.5-1.363
		c1.371,0.75,2.593,1.517,3.744,2.248c1.159,0.72,2.248,1.396,3.297,2.047c2.017,1.412,3.98,2.6,5.841,4.046
		c1.879,1.426,3.842,2.891,5.895,4.791c2.123,1.825,4.326,4.087,6.88,6.875c5.076,5.622,10.149,12.894,13.564,18.918
		c1.644,3.049,3.08,5.668,3.934,7.615C333.85,98.348,334.384,99.486,334.384,99.486z"/>
	<path style="fill:#231815;" d="M271.259,136.817c-2.868-0.253-5.09-1.336-6.823-2.361c-1.728-1.062-2.99-2.147-3.957-3.077
		c-1.919-1.878-2.727-3.141-2.896-3.763c-0.299-1.29,2.06,0.044,5.235,2.769c3.184,2.686,7.117,4.526,10.857,4.055
		c1.852-0.179,3.56-0.847,4.844-1.816c1.277-0.986,2.054-2.31,2.421-3.668c0.747-2.731-0.496-5.871-2.358-8.416
		c-0.942-1.288-2.059-2.476-3.291-3.519c-1.223-1.021-2.664-1.988-4.072-2.948c-1.418-0.967-3.235-2.174-4.945-3.536
		c-1.717-1.344-3.268-2.895-4.227-4.252c-0.977-1.347-1.383-2.436-1.359-2.664c0.069-0.261,0.47,0.375,1.886,1.904
		c1.447,1.509,2.934,2.528,4.354,3.398c1.425,0.869,2.802,1.585,4.232,2.348c1.432,0.766,2.931,1.563,4.597,2.646
		c1.705,1.103,3.5,2.628,5.192,4.847c1.661,2.217,3.119,5.12,3.158,8.365c0.085,3.258-1.786,6.349-4.105,7.818
		c-2.297,1.544-4.633,1.878-6.211,1.975c-0.799,0.037-1.434,0.007-1.868-0.032C271.491,136.864,271.259,136.817,271.259,136.817z"/>
	<path style="fill:#231815;" d="M131.221,262.936c-2.738-7.269-3.744-12.901-4.089-16.804c-0.318-3.921,0.073-6.156,0.608-7.025
		c1.136-1.725,2.826,1.852,3.779,7.983c0.97,6.167,2.852,12.168,5.097,17.644c2.247,5.485,4.832,10.458,7.162,14.84
		c4.649,8.792,10.344,16.968,16.559,24.777c3.066,3.941,7.985,9.66,11.209,13.207c1.587,1.793,2.698,3.081,2.734,3.488
		c0.045,0.397-1.004-0.074-3.557-2.013c-5.069-3.922-8.56-6.806-12.115-10.113c-3.518-3.335-7.143-7.103-11.616-13.476
		c-4.484-6.37-8.794-14.404-11.544-20.972c-1.399-3.276-2.447-6.167-3.151-8.232C131.583,264.178,131.221,262.936,131.221,262.936z"
		/>
	<path style="fill:#231815;" d="M320.499,213.867c1.458-4.092,2.481-7.692,3.23-10.802c0.793-3.102,1.281-5.724,1.708-7.875
		c0.815-4.308,1.266-6.772,1.852-7.703c0.57-0.93,1.142-0.31,1.53,1.539c0.208,0.924,0.346,2.151,0.316,3.62
		c0.03,1.474-0.152,3.178-0.454,5.054c-2.574,14.971-8.703,29.054-15.503,39.042c-6.823,9.94-15.098,18.965-24.929,25.99
		c-2.452,1.756-5.637,3.791-8.962,5.47c-3.309,1.705-6.734,3.056-9.432,3.842c-2.707,0.779-4.666,0.992-5.031,0.868
		c-0.187-0.072,0.011-0.256,0.681-0.572c0.671-0.31,1.815-0.749,3.477-1.482c6.629-2.998,10.73-6.147,14.958-9.549
		c4.197-3.463,8.521-7.344,14.476-13.671c5.961-6.327,12.078-14.5,16.004-21.44c1.999-3.447,3.537-6.529,4.537-8.758
		C319.982,215.22,320.499,213.867,320.499,213.867z"/>
	<path style="fill:#231815;" d="M271.668,183.319c4.704-9.125,8.35-12.355,9.821-12.625c1.524-0.244,1.083,2.493-1.355,5.89
		c-4.903,6.826-8.103,14.64-10.789,20.672c-2.71,6.052-5.033,12.234-6.912,18.557c-1.059,3.138-2.26,7.965-3.011,11.077
		c-0.702,3.104-1.343,4.442-1.427,0.141c-0.003-4.29,0.115-7.333,0.481-10.566c0.342-3.24,1.023-6.668,2.691-11.577
		c1.692-4.904,4.247-10.368,6.468-14.52c1.136-2.063,2.111-3.845,2.862-5.076C271.233,184.053,271.668,183.319,271.668,183.319z"/>
	<path style="fill:#231815;" d="M240.681,217.967c11.173,5.074,15.414,9.023,15.947,10.578c0.51,1.615-2.677,1.069-6.946-1.575
		c-8.573-5.317-18.106-8.766-25.499-11.845c-7.408-3.105-14.934-5.882-22.468-8.729c-7.451-2.987-22.784-8.588-12.831-6.606
		c4.981,1.031,8.504,1.682,12.248,2.517c3.742,0.842,7.709,1.878,13.473,3.965c5.765,2.093,12.34,4.926,17.41,7.342
		c2.527,1.228,4.706,2.288,6.231,3.092C239.774,217.498,240.681,217.967,240.681,217.967z"/>
	<path style="fill:#231815;" d="M257.392,277.501c-7.509,1.33-13.475,2.418-20.491-1.221c-4.461-2.299-11.36-5.904-18.432-10.124
		c-7.07-4.236-14.313-9.07-20.024-13.053c-5.794-3.905-13.332-10.089-19.938-15.68c-6.603-5.604-12.437-10.467-14.602-12.176
		c-4.303-3.488-8.678-5.308-8.655-7.115c-0.004-1.822,4.003-0.208,6.908,2.053c1.483,1.083,8.851,6.739,16.109,12.729
		c3.628,2.973,7.294,5.977,10.304,8.442c3.004,2.447,5.337,4.36,6.255,5.27c1.794,1.869,7.745,5.733,13.714,9.009
		c5.945,3.324,11.904,5.982,13.16,6.886c2.48,1.899,9.565,4.903,13.377,6.354c3.784,1.548,10.719,3.4,15.295,3.794
		c1.106,0.121,2.462,0.432,3.899,0.787c1.424,0.404,2.935,0.833,4.333,1.23C261.554,275.574,259.465,277.123,257.392,277.501z"/>
	<path style="fill:#231815;" d="M122.538,141.239c7.543-6.997,12.709-12.168,15.795-16.183c1.618-1.954,2.666-3.615,3.594-4.795
		c0.797-1.243,1.418-2.042,1.856-2.437c0.878-0.794,1.023,0.043,0.432,2.149c-0.542,2.116-2.192,5.342-4.959,8.773
		c-2.777,3.423-5.85,6.52-8.936,9.46c-3.08,2.907-6.122,5.778-9.084,8.575c-2.912,2.803-5.617,5.62-8.008,8.448
		c-2.419,2.819-4.332,5.738-5.991,8.573c-3.234,5.842-5.754,12.109-7.706,18.541c-1.958,6.435-3.303,13.064-4.04,19.761
		c-0.398,3.348-0.655,7.557-0.645,11.733c0.114,4.161,0.378,8.31,0.986,11.448c0.201,1.594,0.529,2.914,0.723,3.913
		c0.194,0.999,0.287,1.665,0.246,1.881c-0.042,0.215-0.217-0.021-0.559-0.826c-0.172-0.402-0.385-0.947-0.644-1.65
		c-0.269-0.699-0.572-1.559-0.818-2.616c-0.271-1.052-0.532-2.064-0.783-3.043c-0.191-0.993-0.375-1.951-0.553-2.881
		c-0.404-1.858-0.519-3.634-0.783-5.332c-0.17-1.703-0.269-3.347-0.395-4.972c-0.029-1.623-0.086-3.232-0.085-4.868
		c0.073-3.267,0.249-6.652,0.79-10.486c0.487-3.842,1.394-8.121,2.82-13.158c1.447-5.034,3.48-10.36,5.975-15.359
		c0.603-1.258,1.31-2.463,1.953-3.678c0.648-1.212,1.462-2.36,2.171-3.511c0.754-1.126,1.589-2.156,2.353-3.198
		c0.805-1.006,1.639-1.937,2.421-2.862c3.234-3.588,6.285-6.35,8.428-8.325C121.255,142.382,122.538,141.239,122.538,141.239z"/>
	<path style="fill:#231815;" d="M136.903,159.53c-6.122,8.368-10.281,14.722-13.393,18.984c-3.083,4.284-5.018,6.541-5.982,7.217
		c-1.915,1.362,0.043-3.574,4.944-10.807c4.922-7.218,9.814-14.49,14.98-21.062c5.171-6.581,10.473-12.457,15.75-17.22
		c2.579-2.31,5.08-4.587,6.604-7.239c0.753-1.322,1.234-2.689,1.32-4.127c0.112-1.673,0.134-3.374,0.155-5.117
		c0.027-3.465,0.148-7.214,1.192-10.81c1.082-3.598,2.699-6.783,4.648-9.844c1.947-3.034,4.846-6.533,8.272-9.327
		c3.37-2.86,7.224-4.958,10.311-6.128c3.09-1.195,5.382-1.524,5.786-1.464c0.207,0.039-0.04,0.214-0.839,0.55
		c-0.803,0.323-2.155,0.838-4.077,1.761c-3.836,1.873-6.77,4.066-9.186,6.369c-2.419,2.305-4.367,4.699-6.102,7.336
		c-1.725,2.642-3.247,5.539-4.533,9.009c-1.361,3.411-1.787,7.348-1.731,12.571c-0.009,1.305-0.013,2.661-0.075,4.056
		c-0.032,1.301-0.2,3.081-0.75,4.571c-1.069,3.077-3.129,5.464-5.168,7.493c-2.064,2.048-4.211,3.767-6.056,5.546
		c-1.902,1.811-3.691,3.604-5.333,5.313c-3.283,3.422-5.969,6.515-7.823,8.761C137.961,158.162,136.903,159.53,136.903,159.53z"/>
	<path style="fill:#231815;" d="M184.118,99.243c1.842-5.803,4.036-7.843,4.889-8.03c0.927-0.166,0.817,1.449-0.374,3.525
		c-2.424,4.209-3.29,9.064-4.007,12.794c-0.746,3.762-1.109,7.578-1.306,11.43c-0.388,3.809-0.059,11.806-1.191,6.981
		c-0.526-2.439-0.882-4.171-1.146-6.05c-0.257-1.877-0.41-3.913-0.167-6.941c0.249-3.03,0.96-6.514,1.744-9.178
		c0.415-1.326,0.77-2.47,1.085-3.262C183.942,99.716,184.118,99.243,184.118,99.243z"/>
	<path style="fill:#231815;" d="M184.639,128.901c-2.638-0.631-4.586-0.708-5.971-0.828c-1.383-0.108-2.223-0.228-2.605-0.515
		c-0.381-0.281-0.277-0.677,0.279-1.062c0.547-0.404,1.575-0.704,2.876-0.701c2.596,0.06,5.146,0.455,7.482,1.255
		c2.329,0.795,4.425,1.998,5.962,3.464c3.109,2.906,4.992,7.027,5.16,11.171c0.151,2.082-0.496,5.161-1.431,6.805
		c-0.934,1.656-1.51,2.098-0.896-0.136c0.5-2.283,0.329-3.942,0.049-5.613c-0.312-1.67-0.746-3.424-1.865-5.819
		c-1.102-2.417-3.184-4.761-5.245-6.109c-1.017-0.684-1.978-1.152-2.671-1.464C185.059,129.066,184.639,128.901,184.639,128.901z"/>
	<path style="fill:#231815;" d="M188.58,145.783c-2.052-1.568-3.616-2.592-4.711-3.318c-1.069-0.787-1.691-1.256-1.845-1.728
		c-0.162-0.437,0.118-0.723,0.753-0.77c0.316-0.024,0.718,0.013,1.184,0.118c0.448,0.134,0.945,0.359,1.473,0.652
		c2.066,1.239,4.004,2.601,5.727,4.102c1.725,1.496,3.109,3.234,4.099,4.939c1.849,3.452,2.57,7.826,1.172,11.584
		c-0.717,1.856-2.28,4.328-3.724,5.398c-1.333,1.168-1.984,1.419-0.792-0.442c0.292-0.47,0.582-0.89,0.8-1.315
		c0.181-0.44,0.351-0.855,0.514-1.254c0.145-0.402,0.335-0.765,0.425-1.156l0.251-1.163c0.353-1.536,0.49-3.188,0.223-5.585
		c-0.277-2.416-1.51-5.119-2.889-7.002C189.897,146.928,188.58,145.783,188.58,145.783z"/>
	<path style="fill:#231815;" d="M184.095,161.552c-1.513-2.182-2.777-3.672-3.61-4.77c-0.803-1.13-1.236-1.825-1.223-2.316
		c-0.004-0.468,0.371-0.63,0.99-0.447c0.309,0.091,0.677,0.268,1.08,0.529c0.381,0.284,0.792,0.658,1.204,1.113
		c1.6,1.862,3.116,3.777,4.314,5.831c0.276,0.527,0.605,1.018,0.827,1.561c0.223,0.545,0.443,1.082,0.658,1.607
		c0.293,1.109,0.625,2.183,0.598,3.265c0.115,1.065-0.112,2.137-0.283,3.201c-0.129,0.521-0.356,1.019-0.539,1.526l-0.294,0.753
		c-0.124,0.236-0.279,0.453-0.42,0.68l-0.878,1.328c-0.326,0.409-0.717,0.753-1.077,1.124c-0.378,0.348-0.715,0.756-1.135,1.037
		l-1.257,0.84c-0.81,0.607-1.967,1.061-3.086,1.505c-1.098,0.501-2.281,0.687-3.164,0.876c-1.781,0.335-2.518,0.236-0.448-0.788
		c2.108-0.958,3.36-2.003,4.676-3.018c1.185-1.149,2.6-2.252,3.793-4.366c0.641-1.032,0.997-2.283,1.171-3.55
		c0.049-0.638,0.006-1.287,0.001-1.91c-0.125-0.624-0.193-1.235-0.333-1.801c-0.178-0.563-0.343-1.087-0.493-1.557
		c-0.204-0.458-0.387-0.863-0.536-1.199c-0.148-0.339-0.269-0.609-0.381-0.781C184.151,161.648,184.095,161.552,184.095,161.552z"/>
	<path style="fill:#231815;" d="M127.457,239.351c-3.763,2.337-7.466,3.943-10.884,4.602c-3.421,0.678-6.465,0.397-8.746-0.299
		c-2.309-0.693-3.913-1.749-4.921-2.69c-1.007-0.956-1.461-1.761-1.585-2.284c-0.23-1.055,0.622-0.883,2.075-0.24
		c1.476,0.631,3.766,1.614,6.969,2.049c3.198,0.46,6.544-0.24,9.651-1.515c3.106-1.287,6.054-3.069,8.794-5
		c5.537-3.766,10.251-8.015,14.245-11.949c8.053-7.853,14.471-17.234,19.679-27.232c0.626-1.268,1.33-2.695,2.072-4.196
		c0.664-1.535,1.424-3.131,2.105-4.749c0.626-1.636,1.325-3.247,1.885-4.795c0.556-1.557,1.075-3.014,1.527-4.284
		c1.595-5.14,2.605-7.244,1.455-0.049c-1.343,7.152-2.784,12.093-4.632,17.28c-1.917,5.15-4.294,10.63-9.36,17.891
		c-2.494,3.659-5.613,7.315-8.802,10.762c-3.304,3.339-6.666,6.501-9.907,8.939c-1.566,1.285-3.125,2.351-4.514,3.315
		c-1.366,0.996-2.651,1.765-3.709,2.413c-1.059,0.647-1.902,1.162-2.481,1.515C127.779,239.17,127.457,239.351,127.457,239.351z"/>
	<path style="fill:#231815;" d="M344.079,141.553c1.964,1.428,3.791,2.757,5.544,4.031c1.677,1.366,3.198,2.773,4.635,4.271
		c2.965,2.947,4.984,6.575,6.35,11.312c0.743,3.037,1.694,6.934,2.77,11.342c0.441,2.21,0.909,4.546,1.394,6.967
		c0.125,0.601,0.25,1.208,0.378,1.819c0.089,0.619,0.18,1.243,0.27,1.871c0.185,1.252,0.372,2.518,0.562,3.796
		c1.452,10.206,2.22,21.084,2.03,29.784c0,1.087,0.063,2.229,0.012,3.414c-0.065,1.185-0.131,2.414-0.2,3.68
		c-0.165,2.529-0.188,5.212-0.605,7.931c-0.167,1.363-0.336,2.742-0.506,4.129c-0.182,1.385-0.299,2.789-0.608,4.16
		c-0.537,2.755-1.075,5.505-1.595,8.173c-0.705,2.627-1.388,5.175-2.031,7.572c-0.29,1.208-0.68,2.345-1.07,3.431
		c-0.378,1.09-0.741,2.134-1.085,3.123c-1.277,3.995-2.675,6.952-3.356,8.554c-0.7,1.595-1.258,3.179-1.822,4.63
		c-0.632,1.419-1.197,2.739-1.734,3.876c-1.075,2.275-2.034,3.812-3.174,3.906c-2.263,0.161-1.013-4.992,1.042-8.893
		c0.569-0.956,1.738-4.13,3.465-8.302c0.46-1.033,0.802-2.19,1.188-3.387c0.385-1.197,0.789-2.446,1.202-3.731
		c0.915-2.542,1.536-5.33,2.231-8.108c0.335-1.391,0.724-2.773,1.019-4.163c0.253-1.399,0.503-2.786,0.749-4.141
		c0.251-1.354,0.499-2.678,0.737-3.954c0.24-1.277,0.326-2.529,0.494-3.704c0.294-2.355,0.586-4.45,0.848-6.153
		c0.149-1.713,0.306-3.03,0.468-3.814c0.164-0.783,0.29-1.919,0.389-3.311c0.044-0.696,0.105-1.456,0.116-2.27
		c-0.026-0.814-0.055-1.68-0.083-2.587c-0.092-1.811-0.191-3.786-0.293-5.832c-0.162-2.041-0.509-4.141-0.764-6.219
		c-0.425-4.171-1.467-8.169-2.021-11.403c-0.259-1.622-0.688-3.006-0.915-4.13c-0.249-1.12-0.399-1.962-0.421-2.441
		c-0.042-0.958-0.217-2.252-0.474-3.731c-0.322-1.463-0.794-3.094-1.264-4.764c-0.494-1.664-0.95-3.382-1.496-4.945
		c-0.576-1.552-1.112-2.994-1.55-4.177c-0.431-1.185-0.967-2.585-1.6-4.08c-0.724-1.459-1.531-3.018-2.371-4.579
		c-0.875-1.544-1.635-3.161-2.643-4.549c-0.963-1.411-1.904-2.726-2.766-3.852c-1.576-2.247-3.606-5.873-5.156-9.154
		C338.725,139.482,341.963,140.003,344.079,141.553z"/>
	<path style="fill:#231815;" d="M114.725,412.918c-0.793-4.733-2.003-9.43-2.908-13.933c-0.916-4.491-1.462-8.787-1.171-12.36
		c0.33-3.576,1.488-3.106,2.579-1.302c1.066,1.816,2.179,4.924,2.418,7.025c0.391,4.223,1.705,11.775,3.402,17.489
		c0.43,1.423,1.414,4.963,3.133,9.394c1.691,4.437,4.083,9.771,6.913,14.845c1.406,2.53,2.886,5.056,4.383,7.322
		c1.523,2.305,3.059,4.545,4.324,6.658c2.597,4.194,3.873,8.043,4.15,9.501c0.08,0.362,0.221,0.866,0.287,1.549
		c0.101,0.67,0.185,1.49,0.164,2.46c0.023,0.479-0.017,0.994-0.092,1.54c-0.065,0.544-0.108,1.119-0.283,1.705
		c-0.244,1.157-0.71,2.52-1.445,3.738c-1.455,2.455-3.689,4.566-6.393,6.179c-1.342,0.809-2.86,1.495-4.492,1.961
		c-1.619,0.454-3.276,0.669-4.9,0.757c-3.263,0.152-6.375-0.192-9.32-0.458c-2.948-0.305-5.8-0.599-8.423-0.87
		c-5.192-0.532-9.397-0.519-11.653-0.164c-4.481,0.663-7.495,0.65-9.21,0.144c-1.694-0.521-1.907-1.646,0.213-2.495
		c1.056-0.389,2.962-0.939,5.304-1.269c2.337-0.355,5.093-0.503,7.762-0.446c5.35,0.121,10.318,0.813,11.612,0.923
		c0.642,0.096,2.836,0.42,5.86,0.868c3.034,0.402,6.862,1.046,10.693,0.475c3.8-0.529,7.451-2.82,9.659-5.426
		c1.102-1.318,1.839-2.739,2.105-4.042c0.078-0.323,0.151-0.631,0.221-0.922c0.026-0.299,0.052-0.581,0.076-0.845
		c0.057-0.527,0.063-0.984,0.006-1.358c-0.086-1.49-0.474-3.651-1.421-6.023c-0.925-2.378-2.333-4.96-3.903-7.486
		c-1.567-2.529-3.288-5.014-4.669-7.359c-1.392-2.328-2.539-4.434-3.385-5.959c-1.661-3.059-4.596-7.444-6.992-11.712
		C116.921,418.775,114.988,414.698,114.725,412.918z"/>
	<path style="fill:#231815;" d="M139.506,316.695c1.22-0.689,2.425-1.399,3.508-2.241c0.55-0.411,1.075-0.849,1.602-1.274
		c0.539-0.409,1.075-0.813,1.601-1.21c1.054-0.794,2.036-1.629,3.066-2.256c1.036-0.617,2.049-1.131,3.043-1.448
		c1.993-0.632,2.283,0.518,1.873,1.945c-0.417,1.432-1.506,3.125-2.539,3.725c-1.013,0.644-2.386,1.618-3.88,2.624
		c-1.468,1.042-2.939,2.289-4.274,3.312c-0.648,0.536-2.181,1.938-4.161,3.749c-0.935,0.964-1.975,2.037-3.069,3.164
		c-1.062,1.156-2.098,2.437-3.172,3.676c-4.185,5.078-7.397,10.774-8.086,12.038c-0.746,1.228-3.924,6.82-6.142,13.172
		c-2.307,6.321-3.398,13.319-3.21,15.989c0.172,2.664-0.656,4.393-1.708,5.219c-1.024,0.82-2.158,0.683-2.304-0.592
		c-0.139-1.266-0.126-4.445,0.306-7.46c0.093-0.754,0.164-1.506,0.279-2.209c0.135-0.7,0.263-1.361,0.376-1.952
		c0.236-1.181,0.415-2.082,0.49-2.455c0.046-0.38,0.519-1.605,1.139-3.284c0.328-0.835,0.635-1.801,1.08-2.792
		c0.44-0.989,0.907-2.041,1.381-3.107c0.44-1.075,0.997-2.117,1.51-3.133c0.504-1.017,0.991-2,1.438-2.902
		c0.98-1.761,1.728-3.226,2.011-4.062c0.267-0.845,0.895-1.96,1.6-3.275c0.364-0.65,0.743-1.354,1.175-2.058
		c0.46-0.686,0.937-1.396,1.415-2.109c0.484-0.707,0.971-1.419,1.447-2.113c0.519-0.662,1.026-1.308,1.506-1.919
		c0.963-1.217,1.78-2.317,2.454-3.054c0.646-0.759,1.323-1.816,2.011-3.007c0.721-1.172,1.498-2.434,2.241-3.641
		c0.724-1.245,1.517-2.355,2.223-3.242C138.439,317.62,139.052,316.952,139.506,316.695z"/>
	<path style="fill:#231815;" d="M115.448,481.386c8.077-0.578,11.788,0.252,12.607,0.95c0.822,0.731-1.194,1.428-4.52,1.285
		c-6.675-0.29-13.317,0.661-18.609,1.129c-5.307,0.459-10.59,1.093-15.9,1.636c-5.304,0.463-16.04,1.529-9.535-0.118
		c6.53-1.576,9.104-2.626,17.128-3.672c4.015-0.498,8.726-0.854,12.429-1.023C112.753,481.408,115.448,481.386,115.448,481.386z"/>
	<path style="fill:#231815;" d="M114.391,492.045c7.13-0.827,10.448-0.114,11.19,0.558c0.749,0.705-1.008,1.465-3.949,1.425
		c-5.908-0.083-11.732,1.07-16.381,1.696c-4.663,0.618-9.294,1.407-13.96,2.106c-4.661,0.618-14.124,1.999-8.473,0.168
		c5.682-1.762,7.895-2.885,14.951-4.171c3.533-0.618,7.689-1.117,10.962-1.399C112.004,492.151,114.391,492.045,114.391,492.045z"/>
	<path style="fill:#231815;" d="M208.468,364.081c0.476-0.389,0.943-0.769,1.399-1.142c0.473-0.353,0.934-0.698,1.385-1.034
		c0.899-0.677,1.744-1.341,2.53-1.986c1.628-1.208,3.06-2.295,4.212-3.316c2.411-1.852,3.783-3.351,3.77-4.164
		c-0.013-0.809-1.418-0.916-4.602,0.077c-1.616,0.453-3.521,1.449-5.961,2.669c-2.336,1.377-5.129,3.121-8.136,5.594
		c-6.143,5.006-10.758,10.379-14.474,15.887c-3.704,5.528-6.531,11.218-8.781,17.355c-2.228,6.143-3.895,12.76-4.712,20.297
		c-0.871,7.553-0.532,15.924,0.05,25.578c0.565,9.642,1.136,19.161-0.215,28.166c-1.386,8.938-4.941,17.355-10.361,23.606
		c-2.698,3.128-5.962,5.576-9.469,7.15c-3.482,1.57-7.305,2.228-11.034,2.503c-7.453,0.494-14.858-0.646-21.939,0.072
		c-6.935,0.624-11.693,2.956-13.973,4.623c-2.307,1.737-2.409,2.737-0.378,2.712c1.016-0.006,2.541-0.325,4.675-0.692
		c2.118-0.416,4.827-0.89,8.215-1.202c3.401-0.328,7.465-0.367,12.538-0.269c2.524,0.035,5.337,0.057,8.393-0.147
		c3.053-0.207,6.392-0.649,9.798-1.701c3.727-1.119,6.833-2.819,9.366-4.66c2.564-1.84,4.488-3.937,6.235-5.928
		c3.327-4.13,5.586-8.233,7.488-12.865c0.895-2.337,1.758-4.798,2.404-7.545c0.698-2.726,1.202-5.762,1.487-9.11
		c0.628-6.692,0.306-14.737-0.417-24.872c-0.527-8.088-0.879-15.903,0.16-23.311c0.943-7.417,3.011-14.456,5.863-20.917
		C189.711,382.564,198.462,371.956,208.468,364.081z"/>
	<path style="fill:#231815;" d="M294.668,355.968c-9.037-3.211-19.026-4.48-28.255-4.502c-9.261-0.007-17.751,1.134-24.515,2.548
		c-0.876,0.125-1.576,0.326-2.189,0.465c-0.616,0.134-1.139,0.218-1.575,0.256c-0.873,0.076-1.399-0.028-1.623-0.276
		c-0.45-0.494,0.32-1.575,1.931-2.95c3.192-2.728,10.16-5.541,14.918-5.819c4.74-0.462,11.381-0.736,18.425-0.194
		c7.048,0.473,14.502,1.602,20.939,3.077c3.186,0.84,11.19,2.544,20.889,7.296c2.375,1.318,4.921,2.646,7.344,4.577
		c0.603,0.463,1.267,0.899,1.835,1.401c0.56,0.507,1.125,1.019,1.695,1.534c1.168,1.004,2.244,2.128,3.326,3.273
		c4.333,4.572,8.167,9.973,11.223,15.748c3.066,5.772,5.356,11.908,6.857,17.899c1.51,5.992,2.225,11.833,2.398,17.05
		c0.148,2.609-0.007,5.064-0.059,7.32c-0.221,2.244-0.338,4.315-0.618,6.104c-0.511,3.59-1.053,6.19-1.352,7.564
		c-0.283,1.384-0.888,3.919-1.761,7.29c-0.868,3.372-2.039,7.56-3.166,12.311c-1.096,4.758-2.205,10.093-2.33,15.714
		c-0.139,5.62,0.543,11.671,2.757,17.076c2.18,5.395,6.12,9.934,11.261,11.743c5.255,1.889,11.208,2.041,16.594,1.962
		c5.432-0.13,10.473-0.559,14.802-0.871c4.332-0.326,7.962-0.545,10.572-0.675c5.212-0.296,9.813,0.333,13.337,1.59
		c3.541,1.279,5.872,3.168,6.961,4.657c1.073,1.553,1.116,2.51,0.526,2.776c-0.621,0.293-1.766-0.152-3.685-1.019
		c-1.928-0.862-5.521-2.029-10.16-2.409c-4.615-0.457-10.153-0.278-15.611,0.035c-5.461,0.318-10.866,0.731-15.295,0.836
		c-4.423,0.138-7.863-0.047-9.285-0.166c-0.713-0.057-2.286-0.21-4.516-0.65c-2.215-0.442-5.149-1.159-8.265-2.853
		c-3.148-1.686-6.155-4.479-8.34-8.023c-1.157-1.737-2.007-3.697-2.804-5.69c-0.697-2.03-1.339-4.115-1.705-6.262
		c-0.845-4.273-0.984-8.675-0.767-12.881c0.211-4.219,0.973-8.223,1.734-11.851c1.599-7.254,3.31-13.092,3.903-16.255
		c0.622-3.154,1.702-7.73,2.533-13.111c0.776-5.381,1.164-11.598,0.651-17.85c-0.47-6.247-1.756-12.484-3.494-17.887
		c-1.731-5.407-3.839-10.001-5.669-13.164c-0.835-1.628-2.042-3.304-3.297-5.117c-1.372-1.733-2.822-3.6-4.559-5.321
		c-3.375-3.485-7.472-6.851-11.648-9.105C306.855,358.776,297.986,357.206,294.668,355.968z"/>
	<path style="fill:#231815;" d="M398.81,496.61c-6.181,0.054-9.022,0.08-9.825-0.633c-0.792-0.615,0.68-1.719,3.432-1.797
		c5.429-0.165,10.93-0.159,15.211,0.861c4.258,0.985,8.413,2.494,12.153,4.73c1.896,1.073,4.487,3.078,5.918,4.526
		c1.434,1.455,1.836,2.207-0.418,0.861c-2.267-1.333-3.982-2.026-5.797-2.755c-1.825-0.697-3.757-1.435-6.648-2.539
		c-2.901-1.073-6.382-2.049-9.173-2.562c-1.396-0.232-2.606-0.453-3.474-0.529C399.323,496.671,398.81,496.61,398.81,496.61z"/>
	<path style="fill:#231815;" d="M356.352,274.298c2.207,3.091,5.719,6.992,9.103,10.863c3.375,3.88,6.51,7.835,8.301,10.577
		c1.8,2.735,3.957,5.936,5.856,9.037c1.891,3.103,3.556,6.084,4.454,8.281c0.994,2.142,4.421,9.03,7.15,16.298
		c2.807,7.241,4.714,14.868,5.248,17.469c0.542,2.604,1.501,7.237,2.128,11.631c0.164,1.098,0.323,2.178,0.475,3.203
		c0.125,1.029,0.241,2.003,0.348,2.885c0.233,1.765,0.417,3.164,0.514,3.904c0.234,1.478,0.336,1.774,0.405,2.441
		c0.065,0.667,0.139,1.705,0.106,4.674c0.021,2.969-0.19,4.741-0.326,5.992c-0.152,1.251-0.244,1.983-0.322,2.868
		c-0.072,0.885-0.135,2.809-0.181,4.517c-0.095,1.705-0.178,3.187-0.178,3.187s-0.009,2.932-0.312,6.1
		c-0.211,3.179-0.816,6.566-1.198,7.502c-2.174,4.352-0.552,4.148-1.355,7.031c-0.799,2.881-2.092,4.95-3.732,10.671
		c-0.807,2.867-2.037,6.081-3.261,9.182c-1.244,3.057-2.452,6.01-3.237,8.476c-1.544,4.918-2.734,7.461-3.528,11.249
		c-0.352,1.888-0.174,0.945-0.099,0.474c0.138-0.475-0.04-0.466-0.409,3.294c-0.037,0.468-0.072,0.905-0.105,1.312
		c-0.01,0.402-0.019,0.775-0.027,1.12c-0.016,0.346-0.04,0.667-0.069,0.962c0.003,0.288-0.003,0.552-0.016,0.794
		c-0.068,0.971-0.213,1.578-0.369,1.884c-0.32,0.627-1.145,0.101-1.434-1.055c-0.356-1.126-0.524-3.049-0.353-5.016
		c0.098-1.975,0.496-3.982,0.625-5.456c0.208-2.967,1.81-8.72,3.998-12.873c2.159-4.161,3.169-6.272,3.702-8.598
		c0.605-2.302,2.016-7.995,2.836-10.771c0.93-2.748,1.409-4.937,1.988-6.676c1.204-3.879,2.004-6.536,2.465-8.522
		c0.48-1.983,0.758-3.271,0.74-4.462c-0.032-2.371,0.27-1.145,0.559-6.402c0.158-2.625,0.135-4.526,0.118-6.204
		c0.019-1.676,0.016-3.128,0.07-4.865c0.187-3.478-0.251-5.231-0.224-7.542c-0.034-2.316-0.477-4.622-0.605-6.925
		c-0.093-1.15-0.299-3.021-0.611-4.949c-0.365-1.922-0.744-3.911-1.126-5.311c-0.427-1.394-0.881-4.375-1.5-7.249
		c-0.513-2.897-1.171-5.687-1.24-6.853c-0.072-1.164-0.158-2.034-0.422-3.158c-0.293-1.114-0.697-2.511-1.794-4.588
		c-2.109-4.168-2.32-3.472-3.504-6.693c-1.235-3.194-1.05-4.503-1.945-6.624c-0.467-1.051-1.167-2.627-1.866-4.204
		c-0.777-1.542-1.668-3.031-2.516-3.889c-0.836-0.865-1.687-1.705-2.468-2.74c-0.789-1.031-1.572-2.222-2.5-3.655
		c-1.779-2.915-2.497-4.482-3.455-5.906c-0.954-1.439-3.59-3.052-4.955-4.842c-0.718-0.876-1.919-1.913-3.165-3.079
		c-1.302-1.117-2.645-2.361-3.643-3.732c-1.053-1.315-2.126-3.012-3.125-4.716c-1.021-1.678-1.832-3.524-2.33-5.118
		C353.107,276.313,353.126,269.635,356.352,274.298z"/>
	<path style="fill:#231815;" d="M384.35,470.755c1.223,1.366,2.471,2.023,3.757,2.574c1.323,0.508,2.73,0.887,4.692,1.304
		c1.975,0.358,3.32,0.853,4.873,1.368c1.549,0.487,3.302,0.998,5.956,1.031c2.654,0.027,4.702-0.303,6.093-0.594
		c1.389-0.297,2.123-0.58,2.123-0.58l-5.823-1.372c0,0-3.457-0.311-6.283-0.164c-1.418,0.063-2.654-0.331-3.997-0.826
		c-1.365-0.478-2.81-1.016-4.809-1.512c-3.962-1.035-6.399-2.958-7.369-5.479c-0.52-1.216-1.076-1.73-1.398-1.087
		c-0.069,0.159-0.125,0.399-0.119,0.708c0.026,0.3,0.101,0.676,0.239,1.135C382.547,468.182,383.125,469.431,384.35,470.755z"/>
	<path style="fill:#231815;" d="M413.051,473.662c2.962,0.738,2.312,2.511,5.8,2.668c1.745,0.114,3.776,0.309,5.632,0.654
		c1.853,0.36,3.539,0.805,4.676,1.142c1.144,0.291,3.376,1.256,4.984,2.656c0.783,0.702,1.523,1.368,1.955,1.945
		c0.461,0.555,0.751,0.906,0.751,0.906s0.483-0.111,0.499-0.78c-0.001-0.634-0.363-2.074-2.776-3.918
		c-2.449-1.738-3.59-2.034-4.409-2.363c-0.849-0.264-1.473-0.464-3.322-0.843c-1.849-0.318-3.777-0.743-5.274-1.042
		c-1.49-0.315-2.537-0.537-2.537-0.537C417.023,473.905,415.03,473.776,413.051,473.662z"/>
	<path style="fill:#231815;" d="M405.399,487.299c-7.712,0.039-11.276-0.263-12.146-1.015c-0.865-0.688,1.049-1.636,4.353-1.57
		c6.57,0.126,13.212-0.075,18.483,0.885c5.228,0.939,10.493,2.382,15.15,5.132c2.391,1.254,5.499,3.911,7.078,5.831
		c1.569,1.958,1.962,2.848-0.503,0.823c-2.518-1.973-4.543-2.971-6.716-3.923c-1.091-0.473-2.212-0.952-3.537-1.417
		c-1.294-0.526-2.809-0.99-4.607-1.578c-3.619-1.146-8.001-2.041-11.49-2.523c-1.749-0.208-3.26-0.414-4.343-0.488
		C406.04,487.358,405.399,487.299,405.399,487.299z"/>
	<path style="fill:#231815;" d="M114.967,181.877c1.928-0.234,2.658,0.761,2.615,1.459c-0.033,0.734-0.599,1.337-1.167,1.085
		c-1.224-0.522-2.529,0.126-3.451,0.308c-0.971,0.174-1.876,0.484-2.901,0.675c-0.292,0.056-0.688,0.106-1.098,0.146l-0.833,0.085
		l-0.089-0.138c-0.54-0.827-0.099-1.557,0.197-1.648c0.322-0.113,0.44,0.103,0.547,0.293c0.073,0.142,0.227,0.189,0.296,0.129
		l-1.011-0.058c0.626-0.758,1.105-1.453,2.506-1.955c0.908-0.32,2.024-0.471,2.895-0.473
		C114.345,181.771,114.967,181.877,114.967,181.877z"/>
	<path style="fill:#231815;" d="M118.512,175.29c2.396,0.313,3.123,1.509,3.011,2.213c-0.111,0.74-0.898,1.177-1.622,0.735
		c-1.517-0.917-3.375-0.656-4.685-0.735c-1.351-0.092-2.682-0.034-4.077-0.076c-0.7-0.043-1.797-0.13-2.563-0.26
		c-0.76-0.128-1.188-0.373-0.338-0.835c1.707-0.863,2.399-1.643,4.796-1.842c1.198-0.073,2.597,0.074,3.663,0.302
		C117.767,175.024,118.512,175.29,118.512,175.29z"/>
	<path style="fill:#231815;" d="M123.21,169.058c2.848,0.348,3.816,1.587,3.79,2.315c-0.027,0.764-0.904,1.192-1.843,0.713
		c-1.942-0.986-4.194-0.757-5.84-0.85c-1.681-0.106-3.347-0.043-5.067-0.066c-1.677-0.123-5.472-0.101-3.412-1.067
		c2.116-0.9,2.974-1.687,5.824-1.89c1.427-0.074,3.09,0.081,4.367,0.32C122.309,168.778,123.21,169.058,123.21,169.058z"/>
	<path style="fill:#231815;" d="M128.685,161.9c2.944,0.46,3.926,1.745,3.895,2.476c-0.034,0.769-0.948,1.163-1.922,0.641
		c-2.009-1.071-4.365-0.933-6.089-1.089c-1.756-0.171-3.506-0.169-5.304-0.25c-1.751-0.18-5.695-0.283-3.5-1.183
		c2.247-0.83,3.172-1.587,6.14-1.687c1.484-0.022,3.208,0.195,4.528,0.484C127.756,161.585,128.685,161.9,128.685,161.9z"/>
	<path style="fill:#231815;" d="M169.617,189.221c-1.541-2.368-1.33-3.866-0.781-4.366c0.567-0.516,1.494-0.164,1.786,0.891
		c0.596,2.15,2.2,3.799,3.126,5.248c0.943,1.464,1.96,2.862,2.869,4.385c0.354,0.617,0.826,1.516,1.165,2.298l-0.81,0.654
		c-0.31-1.253-0.313-2.164,0.589-1.139c0.157,0.177,0.308,0.341,0.43,0.458l-1.089,0.878c-1.511-1.147-2.57-1.59-4.089-3.605
		c-0.839-1.129-1.675-2.545-2.257-3.692C169.968,190.086,169.617,189.221,169.617,189.221z"/>
	<path style="fill:#231815;" d="M181.688,75.485c-2.457-3.275-2.131-5.782,0-6.086c2.129-0.304,2.129,1.826,2.738,4.261
		C185.036,76.094,183.514,77.92,181.688,75.485z"/>
	<path style="fill:#231815;" d="M204.511,84.31c-3.967,0-1.589-2.801,0.914-3.956c3.957-1.826,6.999-1.218,5.478,1.521
		C209.382,84.615,206.642,84.31,204.511,84.31z"/>
	<path style="fill:#231815;" d="M296.383,162.246c0,0,10.029,6.208,5.732,11.939c-4.298,5.731-2.866,7.641-5.254,10.506
		c-2.388,2.865-4.776,7.164-10.985,5.731c-6.208-1.432-8.596,5.731-8.596-4.298c0-10.029,5.252-18.626,5.252-18.626
		S291.131,157.948,296.383,162.246z"/>
	<path style="fill:#231815;" d="M268.207,193.288c8.119,3.343,13.372,9.074,11.939,12.417c-1.432,3.343-5.253,4.298-9.074,8.119
		c-3.82,3.821-7.64,9.552-9.074,0C260.566,204.272,268.207,193.288,268.207,193.288z"/>
	<path style="fill:#231815;" d="M340.321,147.441c-6.576,7.736-9.551,12.894-3.82,13.85c5.731,0.955,6.685,13.849,13.371,13.372
		c6.686-0.478,8.119,1.91,6.686-7.164C355.126,158.426,348.439,137.89,340.321,147.441z"/>
	<path style="fill:#231815;" d="M353.215,196.632c-7.64,9.074-13.85,14.327-8.596,17.67c5.252,3.343,5.731,3.821,6.686,11.462
		c0.954,7.641,5.253,9.074,5.253,9.074s6.209-16.238,6.209-26.267C362.767,198.542,353.215,196.632,353.215,196.632z"/>
	<path style="fill:#231815;" d="M347.962,242.001c4.297,7.642,1.909,11.462-3.343,14.805c-5.254,3.343-5.254-6.209-2.866-11.939
		C344.141,239.135,347.962,242.001,347.962,242.001z"/>
	<path style="fill:#231815;" d="M146.425,316.98c10.597,1.324,21.491,11.462,26.267,15.76c4.775,4.298,1.434,14.327-3.82,16.715
		c-5.254,2.388-13.85-1.91-13.85-1.91s-6.727,1.687-10.506,0.955c0,0-23.402-1.433-19.103-9.074
		C129.711,331.784,142.605,316.503,146.425,316.98z"/>
	<path style="fill:#231815;" d="M119.682,350.41c11.939,1.91,20.536,8.119,18.625,13.372c-1.909,5.254-5.731,7.164-8.596,7.642
		c-2.866,0.478-15.027,2.641-16.239,0L119.682,350.41z"/>
	<path style="fill:#231815;" d="M347.484,318.413c-9.59,10.655-5.253,23.401,1.911,21.968c7.163-1.432,7.642,1.433,14.805-1.91
		s6.686-3.821,9.074-5.731c2.388-1.91-0.478-3.343,3.343-8.119c3.82-4.776,2.388,2.388,3.82-4.776
		c1.432-7.164,0.955-12.417-6.208-11.462c-7.165,0.955-8.597,4.298-11.94,6.686C358.946,317.457,351.783,313.637,347.484,318.413z"
		/>
	<path style="fill:#231815;" d="M366.109,353.753c-7.64,4.298-10.028,14.327-5.252,15.283c4.776,0.955,6.617,0.431,11.939,0
		c0,0,4.777,2.865,10.508-0.955c5.731-3.821,4.775-5.253,8.595-9.074s5.254-5.253,1.432-8.119c-3.82-2.865-6.208-5.731-10.028-2.865
		c-3.822,2.865-4.777-2.865-8.597,1.432C370.886,353.753,366.109,353.753,366.109,353.753z"/>
	<path style="fill:#231815;" d="M321.169,120.104c-9.088,0-13.841-15.687-8.304-19.378c5.535-3.691,6.459,1.845,10.15,7.382
		C326.706,113.645,325.783,120.104,321.169,120.104z"/>
	<path style="fill:#231815;" d="M168.796,39.244c-0.749-1.553-0.977-3.048-0.971-4.276c0.01-1.235,0.239-2.233,0.529-3.001
		c0.596-1.541,1.389-2.182,1.955-2.302c1.175-0.18,1.565,1.418,1.09,3.433c-0.494,2.081-0.013,4.311,1.073,5.767
		c1.093,1.461,2.72,2.276,4.008,2.553c1.313,0.311,2.546,0.032,3.714-0.805c1.159-0.828,2.159-2.13,2.866-3.618
		c0.779-1.486,1.534-4.221,2.056-6.04c0.542-1.8,1.073-2.548,1.281-0.108c0.187,2.448,0.362,4.261,0.124,6.291
		c-0.131,1-0.376,2.102-0.927,3.258c-0.546,1.15-1.372,2.41-2.829,3.555c-1.435,1.144-3.564,1.941-5.633,1.779
		c-2.054-0.134-3.836-1.002-5.103-2.016c-1.284-1.015-2.113-2.169-2.593-3.041C168.962,39.779,168.796,39.244,168.796,39.244z"/>
	<path style="fill:#231815;" d="M245.899,60.447c-1.455-3.604-0.931-6.578-0.22-8.299c0.736-1.771,1.685-2.462,2.271-2.562
		c0.602-0.1,0.955,0.378,1.039,1.08c0.099,0.72-0.042,1.676-0.346,2.863c-0.639,2.395-0.144,5.036,1.043,6.946
		c1.168,1.965,2.925,3.081,4.6,3.802c1.674,0.718,3.554,0.935,5.255,0.588c1.717-0.341,3.185-1.236,4.385-2.685
		c0.595-0.708,1.247-1.73,1.672-2.885c0.438-1.148,0.625-2.416,0.596-3.441c-0.017-1.025-0.19-1.803-0.044-2.038
		c0.068-0.114,0.2-0.084,0.419,0.147c0.234,0.225,0.524,0.664,0.819,1.391c0.537,1.468,0.677,2.828,0.642,4.081
		c-0.043,1.256-0.267,2.426-0.713,3.576c-0.448,1.147-1.102,2.301-2.174,3.395c-1.067,1.084-2.63,2.113-4.643,2.56
		c-2.013,0.487-4.27,0.366-6.28-0.269c-2.029-0.609-3.807-1.743-5.122-3.002c-1.32-1.285-2.116-2.658-2.573-3.64
		c-0.236-0.493-0.382-0.9-0.48-1.18C245.946,60.6,245.899,60.447,245.899,60.447z"/>
</g>
</svg>
