<?xml version="1.0" encoding="utf-8"?>
<!-- Generator: Adobe Illustrator 22.1.0, SVG Export Plug-In . SVG Version: 6.00 Build 0)  -->
<svg version="1.1" id="_x31_1" xmlns="http://www.w3.org/2000/svg" xmlns:xlink="http://www.w3.org/1999/xlink" x="0px" y="0px"
	 viewBox="0 0 720 620.156" style="enable-background:new 0 0 720 620.156;" xml:space="preserve">
<style type="text/css">
	.st0{fill:#DCA785;}
	.st1{fill:#A38A77;}
	.st2{fill:#ADC3D8;}
	.st3{fill:#BCD2E7;}
	.st4{fill:#947B68;}
	.st5{fill:#F7B52C;}
</style>
<g>
	<polygon class="st0" points="642.577,611.207 85.92,611.207 85.92,185.301 362.031,7.711 642.577,197.48 	"/>
	<polygon class="st1" points="388.607,430.604 388.607,608.654 521.935,608.654 521.935,424.778 	"/>
	<polygon class="st2" points="495.231,216.308 215.534,216.308 215.534,289.017 212.877,290.067 495.318,290.067 	"/>
	<polygon class="st2" points="303.827,424.778 213.39,424.778 213.39,518.026 212.53,519.372 303.855,519.372 	"/>
	<polygon class="st3" points="289.601,216.308 278.832,216.308 246.265,289.017 245.692,290.067 256.567,290.067 	"/>
	<polygon class="st3" points="328.635,216.308 312.268,216.308 279.701,289.017 279.076,290.067 295.603,290.067 	"/>
	<polygon class="st3" points="258.304,435.196 247.535,435.196 214.968,507.904 214.395,508.954 225.27,508.954 	"/>
	<polygon class="st3" points="297.338,435.196 280.971,435.196 248.404,507.904 247.778,508.954 264.306,508.954 	"/>
	<polygon class="st3" points="450.632,216.308 434.265,216.308 401.698,289.017 401.073,290.067 417.6,290.067 	"/>
	<rect x="186.73" y="292.915" class="st4" width="346.631" height="68.531"/>
	<ellipse class="st5" cx="414.725" cy="524.191" rx="9.247" ry="9.244"/>
	<path d="M84.861,181.778c-15.52,19.178-15.52,41.093-10.862,46.574c4.658,5.478,0,41.09,3.105,68.484
		c3.105,27.394-3.105,43.836-1.553,52.05c1.553,8.221,1.553,30.137,1.553,38.358c0,8.216,1.553,30.134,1.553,30.134
		s1.553,21.915,1.553,32.875c0,10.956,3.045,55.601,2.584,91.314c-0.516,40.179,0.836,48.302,2.068,62.1
		c0.271,3.036,0.641,5.595,1.059,7.54h-7.931c-1.232-5.839-2.92-6.688-4.022,0h15.976c0.673-4.078,1.129-10.962,1.129-21.24
		c0-32.872,1.553-52.05,1.553-68.487c0-16.437,0-25.568,0-42.01c0-16.437,0-18.261,0-45.654c0-16.665-0.521-16.437-2.068-27.396
		c-1.553-10.959,0-16.437-1.553-32.875c-1.553-16.437,0-21.915,0-32.872c0-10.956,0.516-13.702,0.516-41.093
		c0-27.399-1.553-49.315-1.553-63.011c0-13.697-1.553-24.653,0-32.875C89.519,195.472,84.861,181.778,84.861,181.778z"/>
	<path d="M632.866,292.256c3.219-25.646-1.194-52.638,1.2-71.786c2.405-19.142,11.997,4.784,11.997,16.749s0,33.499,0,50.245
		c0,16.747,0,131.596,0,145.955c0,14.353-2.399,126.82,0,153.134c1.064,11.629-0.456,19.992-2.584,24.653h-7.812
		c2.573-5.671,6.042-5.931,6.91,0h-6.009l-0.098-0.73c-1.2-11.963-1.2-59.81-1.2-66.989c0-7.185,4.793-83.744,3.599-100.493
		c-1.2-16.755,0-64.604,0-83.747C638.87,340.103,631.666,301.824,632.866,292.256z"/>
	<path d="M420.088,607.851c-114.686,0-254.121-0.141-302.852-2.518c-48.753-2.377-121.884-1.587-117.004,7.926
		c3.974,7.779,77.99,7.926,112.119,5.549c34.15-2.377,238.943-5.359,319.207-4.425c80.33,0.931,175.338,1.074,233.824,1.867
		c58.513,0.795,87.783-12.682-4.858-10.302C567.888,608.32,529.085,607.851,420.088,607.851z"/>
	<path d="M77.088,205.62c-24.933,13.284-43.205,36.907-60.424,48.473c-8.691,5.798-10.699,1.937-9.212-4.602
		c1.439-6.564,6.492-15.756,11.492-20.098c9.863-8.799,28.119-23.991,42.733-35.213c7.214-5.741,36.159-27.448,65.64-47.57
		c29.433-20.214,58.871-39.563,65.364-43.934c3.23-2.222,12.312-7.766,23.749-15.558c11.525-7.841,25.655-18.364,40.425-29.076
		c7.394-5.34,14.977-10.696,22.495-15.694c7.513-4.925,14.852-9.784,22.447-13.653c14.7-7.239,26.176-12.508,31.718-16.573
		c11.269-7.76,18.169-10.625,23.434-11.803c2.557-0.554,4.848-0.437,5.971,0.733c1.086,1.088,1.205,3.617-0.89,6.658
		c-1.976,3.158-6.536,7.597-12.502,11.727c-5.96,4.168-13.283,8.004-20.433,11.434c-7.041,3.327-13.935,6.583-19.51,9.214
		c-5.434,2.681-9.071,4.838-10.781,5.937c-1.629,1.012-7.448,4.065-15.308,8.715c-7.871,4.626-17.767,10.886-27.842,17.539
		c-10.053,6.729-20.378,13.637-29.134,19.498c-8.751,5.874-15.998,10.615-19.575,13.48c-14.293,11.523-58.676,38.996-75.808,50.929
		C113.773,167.954,86.094,200.557,77.088,205.62z"/>
	<path d="M431.661,61.597c-20.818-19.085-49.181-28.457-65.82-40.846c-8.36-6.268-5.385-9.442,1.276-10.213
		c6.672-0.828,17.029,0.882,22.783,4.146c11.579,6.376,31.984,18.537,47.428,28.582c7.817,4.895,37.923,24.963,66.71,46.067
		c28.852,21.028,56.895,42.352,63.181,47.014c3.165,2.309,11.421,9.03,22.571,17.221c11.231,8.257,25.856,18.076,40.871,28.446
		c7.502,5.193,15.069,10.56,22.289,15.987c7.144,5.443,14.168,10.747,20.346,16.624c11.715,11.45,20.503,20.515,26.181,24.393
		c11.069,8.045,16.068,13.596,18.929,18.171c1.368,2.225,2.019,4.42,1.292,5.869c-0.668,1.387-3.013,2.336-6.579,1.376
		c-3.637-0.814-9.337-3.636-15.216-7.885c-5.917-4.233-11.97-9.866-17.583-15.46c-5.483-5.535-10.846-10.951-15.183-15.333
		c-4.337-4.233-7.578-6.943-9.179-8.189c-1.504-1.202-6.319-5.674-13.316-11.537c-6.981-5.882-16.177-13.13-25.807-20.418
		c-9.69-7.239-19.64-14.674-28.081-20.979c-8.452-6.298-15.335-11.559-19.227-13.974c-15.623-9.643-56.298-42.355-73.251-54.538
		C479.399,83.659,439.435,68.408,431.661,61.597z"/>
	<path d="M463,422.089c-21.6-0.163-48.096,0.027-57.617-1.671c-9.521-2.062-23.793,0.591-21.399,10.389
		c1.895,7.926,15.162,6.569,21.366,3.796c3.062-1.476,14.136-3.465,26.458-4.558c12.328-1.134,25.752-1.541,33.401-1.11
		c7.692,0.383,15.998,0.057,23.624,0.231c3.86,0.103,7.442,0.209,10.634,0.757c3.463,0.6,6.65,1.148,9.407,1.625
		c2.877,0.483,5.732-0.233,7.627-1.633c1.943-1.384,2.644-3.4,2.302-4.911c-0.358-1.547-1.259-2.773-2.459-3.527
		c-1.232-0.746-3.257-0.999-7.366-0.787c-4.126,0.212-7.942-0.011-11.861,0.054c-3.61,0.174-6.938,0.331-10.357,0.494
		C480.05,421.541,473.026,421.996,463,422.089z"/>
	<path d="M523.505,435.487c-1.927,9.404-0.793,104.501-0.793,118.328c0,21.088,3.974,40.45,3.974,45.188
		c0,4.732-0.798,6.884-4.766,6.884c-3.979,0-5.575-0.863-5.575-6.026s1.254-34.418,0.798-43.891
		c-2.388-49.485-3.974-111.881-4.772-120.053c-0.798-8.175,2.389-8.175,5.57-8.175C521.116,427.741,524.292,431.612,523.505,435.487
		z"/>
	<path d="M388.261,485.407c0-3.101,0.065-6.246,0.217-9.301c0.429-8.607-1.482-38.657-0.347-40.936
		c1.531-3.09,1.026-7.725-5.119-7.415c-5.016,0.252-5.114,4.944-3.577,7.106c1.004,1.419,0.353,31.797,1.466,40.23
		c0.586,4.444,0.836,8.645,0.494,11.502c-0.494,4.179-0.782,53.699-1.276,80.507c-0.483,26.365,1.156,32.554,0.852,34.714
		c-0.603,4.363,9.635,6.544,7.822-0.364c-0.869-3.34,0.125-9.358-0.255-34.351C388.131,540.433,388.261,491.213,388.261,485.407z"/>
	<path d="M226.744,422.496c14.722,0.027,35.1-0.939,52.276-0.703c2.139,0.057,4.12,0.155,5.939,0.277
		c1.976,0.16,3.702,0.559,5.168,0.882c2.823,0.716,5.076,1.286,6.775,1.715c3.214,0.803,4.392,0.933,3.219,1.308
		c-1.167,0.271-3.045,1.172-6.368,1.699c-1.65,0.271-3.637,0.434-5.928,0.51c-2.209,0.011-4.869,0.364-8.088,0.396
		c-12.735,0.293-22.968,1.085-28.928,1.796c-5.944,0.83-3.431-0.898-21.203-0.429c-17.637,0.787-21.41-2.138-16.394-3.516
		C218.232,425.144,226.744,422.496,226.744,422.496z"/>
	<path d="M226.744,515.687c14.722,0.027,35.1-0.939,52.276-0.703c2.139,0.057,4.12,0.155,5.939,0.277
		c1.976,0.16,3.702,0.559,5.168,0.882c2.823,0.716,5.076,1.286,6.775,1.718c3.214,0.8,4.392,0.933,3.219,1.305
		c-1.167,0.271-3.045,1.172-6.368,1.699c-1.65,0.271-3.637,0.434-5.928,0.51c-2.209,0.011-4.869,0.364-8.088,0.396
		c-12.735,0.296-22.968,1.085-28.928,1.796c-5.944,0.833-3.431-0.898-21.203-0.426c-17.637,0.784-21.41-2.141-16.394-3.519
		C218.232,518.338,226.744,515.687,226.744,515.687z"/>
	<path d="M304.864,442.647c-0.755,14.557,0.755,35.11,0,52.234c-0.755,17.124-3.778,23.975-3.778,21.408
		c0-2.572-3.029-7.706-3.029-20.551s-0.755-23.117-1.509-29.114c-0.755-5.999,0.755-3.424,0.755-21.408
		c0-17.981,3.784-21.408,4.538-16.269C302.595,434.082,304.864,442.647,304.864,442.647z"/>
	<path d="M215.317,442.647c-0.755,14.557,0.755,35.11,0,52.234c-0.755,17.124-3.778,23.975-3.778,21.408
		c0-2.572-3.029-7.706-3.029-20.551s-0.755-23.117-1.509-29.114c-0.755-5.999,0.755-3.424,0.755-21.408
		c0-17.981,3.784-21.408,4.538-16.269C213.048,434.082,215.317,442.647,215.317,442.647z"/>
	<path d="M499.587,258.693c0.011-6.3,0.027-13.274,0.043-19.351c-0.043-6.154-0.375-11.466-0.185-14.337
		c0.63-5.82-2.79-14.101-7.784-11.461c-3.99,2.062-1.867,8.951-0.043,12.291c1.037,1.595,2.736,7.771,3.474,14.864
		c0.803,7.093,0.874,14.831,0.722,19.341c-0.071,4.542,0.744,9.334,0.7,13.61c-0.016,1.069-0.054,2.108-0.185,3.096
		c-0.092,0.944-0.331,1.631-0.668,2.564c-0.673,1.764-1.482,3.541-2.009,5.313c-0.548,1.769-0.125,3.94,1.021,5.009
		c1.14,1.085,2.399,0.895,3.045,0.391c0.7-0.513,1.053-1.376,1.395-1.853c0.407-0.48,0.358-0.486,0.505-2.629
		c0.185-2.116,0.939-4.227,1.314-6.715c0.261-2.651,0.081-4.379-0.049-6.482C500.608,268.339,499.755,264.252,499.587,258.693z"/>
	<path d="M358.106,258.693c0.016-6.3,0.033-13.274,0.043-19.351c-0.038-6.154-0.369-11.466-0.179-14.337
		c0.63-5.82-2.79-14.101-7.784-11.461c-3.995,2.062-1.873,8.951-0.049,12.291c1.042,1.595,2.736,7.771,3.474,14.864
		c0.809,7.093,0.874,14.831,0.727,19.341c-0.076,4.542,0.738,9.334,0.695,13.61c-0.016,1.069-0.054,2.108-0.179,3.096
		c-0.098,0.944-0.337,1.631-0.673,2.564c-0.668,1.764-1.477,3.541-2.003,5.313c-0.548,1.769-0.13,3.94,1.021,5.009
		c1.14,1.085,2.394,0.895,3.045,0.391c0.7-0.513,1.053-1.376,1.39-1.853c0.407-0.48,0.364-0.486,0.51-2.629
		c0.185-2.116,0.934-4.227,1.314-6.715c0.255-2.651,0.076-4.379-0.054-6.482C359.132,268.339,358.275,264.252,358.106,258.693z"/>
	<path d="M535.48,328.411c0.049-6.314,0.103-13.301,0.152-19.392c0.054-6.208-0.103-11.624,0.418-14.619
		c1.303-6.072-2.475-14.714-10.053-11.011c-6.112,2.909-4.164,9.377-1.656,12.519c1.368,1.484,3.442,7.505,4.451,14.56
		c1.075,7.06,1.292,14.766,1.01,19.335c-0.206,4.621,0.532,9.442,0.407,13.605c-0.033,1.042-0.092,2.049-0.233,2.993
		c-0.114,0.876-0.331,1.397-0.679,2.32c-0.689,1.693-1.563,3.495-2.171,5.372c-0.651,1.878-0.022,4.406,1.504,5.522
		c1.525,1.142,3.138,0.621,4.071-0.203l1.303-1.354l0.717-0.703c-0.271,0.114,0.581-0.266,1.259-0.279
		c0.13-0.062,0.065-0.415,0.038-1.343c-0.049-1.951,0.603-4.13,0.961-6.881c0.223-2.985-0.033-4.642-0.185-6.843
		C536.462,337.911,535.637,333.77,535.48,328.411z"/>
	<path d="M188.142,328.428c0.016-6.298,0.033-13.271,0.043-19.349c-0.038-6.154-0.369-11.469-0.179-14.34
		c0.63-5.82-2.79-14.101-7.784-11.458c-3.995,2.062-1.867,8.949-0.043,12.289c1.037,1.598,2.73,7.774,3.469,14.864
		c0.809,7.095,0.874,14.834,0.727,19.338c-0.076,4.548,0.744,9.339,0.695,13.615c-0.016,1.064-0.054,2.106-0.179,3.093
		c-0.098,0.944-0.337,1.631-0.673,2.561c-0.668,1.764-1.477,3.544-2.003,5.315c-0.548,1.772-0.125,3.937,1.021,5.006
		c1.14,1.091,2.394,0.901,3.045,0.396c0.7-0.516,1.053-1.378,1.395-1.856c0.402-0.483,0.358-0.486,0.505-2.626
		c0.185-2.116,0.934-4.227,1.314-6.718c0.255-2.651,0.076-4.379-0.054-6.479C189.168,338.074,188.311,333.987,188.142,328.428z"/>
	<path d="M219.008,258.685c0.033-6.303,0.06-13.282,0.087-19.365c0-6.176-0.261-11.532,0.06-14.451
		c0.901-5.92-2.665-14.348-8.696-11.282c-4.842,2.404-2.79,9.122-0.689,12.384c1.167,1.552,3.018,7.665,3.865,14.741
		c0.912,7.079,1.042,14.807,0.836,19.338c-0.125,4.575,0.662,9.377,0.586,13.61c-0.027,1.055-0.071,2.084-0.206,3.052
		c-0.103,0.92-0.331,1.538-0.673,2.466c-0.679,1.734-1.515,3.522-2.074,5.337c-0.586,1.815-0.081,4.127,1.216,5.212
		c1.292,1.112,2.692,0.787,3.458,0.157c0.814-0.64,1.303-1.636,1.819-2.035c0.597-0.407,0.619-0.049,0.651-2.127
		c0.092-2.051,0.803-4.189,1.173-6.783c0.244-2.784,0.033-4.485-0.109-6.626C220.013,268.273,219.177,264.165,219.008,258.685z"/>
	<path d="M511.828,293.228c-18.272-1.188-203.012-0.488-229.872-0.488c-40.968,0-78.576,2.447-87.778,2.447
		c-9.196,0-13.376-0.494-13.376-2.936c0-2.447,1.677-3.43,11.704-3.43c10.032,0,66.867,0.771,85.27,0.491
		c96.126-1.468,217.343-2.447,233.221-2.939c15.878-0.488,15.878,1.471,15.878,3.43
		C526.876,291.757,519.357,293.714,511.828,293.228z"/>
	<path d="M458.95,354.066c22.061,3.077,45.284-1.145,61.754,1.148c16.47,2.295-4.115,11.469-14.407,11.469
		c-10.292,0-28.819,0-43.227,0c-14.407,0-113.21,0-125.559,0c-12.35,0-109.106-2.293-131.742,0
		c-22.642,2.295-30.877-8.026-20.579-9.174c10.287-1.148,51.451-1.148,57.628-1.148s72.041,4.586,86.453,3.44s55.576,0,72.046,0
		S450.715,352.921,458.95,354.066z"/>
	<path d="M440.146,207.522c17.919,2.77,36.783-1.031,50.159,1.034c13.381,2.068-3.339,10.338-11.704,10.338
		c-8.36,0-23.402,0-35.106,0s-91.952,0-101.984,0s-88.614-2.068-107,0c-18.391,2.068-25.079-7.234-16.72-8.27
		c8.36-1.031,41.793-1.031,46.809-1.031c5.021,0,58.513,4.13,70.217,3.099c11.709-1.031,45.143,0,58.518,0
		C406.712,212.691,433.464,206.488,440.146,207.522z"/>
	<path d="M407,524.896c0.651,3.63,5,7.361,9.587,5.958c2.275-0.591,4.402-1.932,5.385-3.766c0.983-1.848,0.858-4.151,0.016-6.094
		c-1.857-3.945-5.401-5.172-7.269-5.665c-1.998-0.358-2.747-0.654-1.96-0.684c0.782-0.024,1.911-0.488,4.017-0.437
		c1.96,0.166,5.385,1.012,7.676,4.917c2.247,3.834,1.629,8.599-0.717,11.285c-2.361,2.664-5.048,3.753-7.138,4.276
		c-2.139,0.44-2.839,0.25-4.5-0.182c-1.433-0.638-4.886-1.33-7.784-7.025c-1.254-2.92-0.993-5.657-0.309-7.451
		c0.711-1.823,1.726-2.8,2.427-3.242c1.39-0.914,1.493-0.252,0.684,0.966c-0.798,1.283-1.178,3.242-0.923,4.708
		C406.435,523.941,407,524.896,407,524.896z"/>
</g>
</svg>
