<?xml version="1.0" encoding="iso-8859-1"?>
<!-- Generator: Adobe Illustrator 18.1.1, SVG Export Plug-In . SVG Version: 6.00 Build 0)  -->
<svg version="1.1" id="_x35_" xmlns="http://www.w3.org/2000/svg" xmlns:xlink="http://www.w3.org/1999/xlink" x="0px" y="0px"
	 viewBox="0 0 512 512" style="enable-background:new 0 0 512 512;" xml:space="preserve">
<g>
	<g>
		<path style="fill:#D19882;" d="M304.234,254.62l-2.988,4.184c0,0-39.656,0-41.449,0.2c-1.795,0.198-1.994-0.398-2.592-0.398
			c-0.598,0-1.594-4.784-0.397-4.585c1.193,0.201,26.104,0.201,27.698,0C286.101,253.822,304.234,254.62,304.234,254.62z"/>
		<path style="fill:#C7C8C8;" d="M245.449,254.02l10.363-0.199c0,0,1.594,3.787,1.394,4.784c-0.2,0.996-2.192,0.796-2.192,0.796
			l-7.571-0.2L245.449,254.02z"/>
		<path style="fill:#FFFFFF;" d="M249.235,254.221c0.598,0,0.796,5.58-0.2,5.778c-0.995,0.199-4.782-0.797-6.974,1.595
			c-2.192,2.391-2.192,2.391-2.192,2.391s-18.133,0.997-20.127-0.598c-1.992-1.593-8.769-4.781-10.959-5.379
			c3.586-2.791,11.956-6.377,13.548-7.373c1.596-0.997,11.56-0.399,13.951-0.6c2.391-0.199,6.973,1.396,6.973,1.396L249.235,254.221
			z"/>
		<path style="fill:#FFFFFF;" d="M369.197,185.072c3.588-4.781,4.384-11.557,4.384-11.557s-3.985-13.949-0.796-25.508
			c3.187-11.556,10.76-15.542,11.956-16.34c1.195,3.985,3.586,7.174,4.782,9.565c1.197,2.392,5.582,11.159,1.197,17.935
			c0.796,6.376,1.195,10.362,1.195,10.362s5.58-18.731,13.151-23.513c7.571-4.784,9.565-5.979,12.355-5.979
			c2.79,0,7.572-1.994,8.37,0.797c0.798,2.79-0.798,11.957-1.991,17.535c-1.198,5.581-5.582,13.551-12.355,18.333
			c-6.777,4.784-13.949,7.174-14.747,10.363c-0.796,3.189,1.594,3.189,9.567,7.174c7.97,3.985,15.941,9.166,15.941,9.166
			s16.34,14.747,19.928,26.703c3.586,11.956,5.578,25.108,3.985,31.485c-1.595,6.378,1.992,15.145,6.773,17.934
			c-1.195,1.195-5.579,0.399-5.579,0.399l-0.796,3.985c0,0,1.195,16.34-2.391,21.92c-3.588,5.58-3.588,6.775-0.399,12.754
			c3.189,5.978,2.79,11.557,8.369,13.948c5.58,2.392,5.58,5.581,7.571,10.362c1.994,4.783,5.582,11.956,3.987,17.934
			c-1.594,5.979-1.196,9.565-3.987,10.761c-2.788,1.197-10.758,2.789-13.548,6.377c-2.792,3.586-6.378,2.79-7.573,0.397
			c-1.198-2.391-0.399-4.781-0.399-4.781s5.979-4.781,9.964-8.37c3.985-3.586,7.97-7.572,5.58-10.76
			c-2.391-3.189-2.391-9.964-13.55-14.748c-11.159-4.781-20.724-14.746-23.117-18.333c-2.391-3.586-3.985-22.717-4.384-26.303
			c-0.397-3.588-8.767,3.586-12.752,7.571c-3.985,3.987-7.174,6.776-10.76,10.363c-3.588,3.586-12.754,6.775-13.949,11.159
			c-1.197,4.383-1.994,13.151-2.79,18.333c-0.796,5.181,1.195,19.927-8.769,25.507c-3.187,1.993-11.558,2.79-11.558,2.79
			l-15.143,1.994l-2.79-1.994c0,0-4.384-1.992-1.197-3.985c0-1.994-0.796-3.587,4.384-5.18c5.183-1.596,11.559-2.79,15.544-3.588
			c3.987-0.796,5.58-1.594,6.376-4.781c0.796-3.189-0.397-15.544-0.397-19.928c0-4.383-1.198-19.927,1.991-27.898
			c3.189-7.971,7.573-15.145,11.559-18.332c3.985-3.189,9.166-8.769,11.159-13.95c1.992-5.18,1.195-8.368,1.195-8.368l-5.181-0.798
			l0.397-4.782c0,0-2.391,1.196-2.788-0.398c-0.399-1.595,0.796-3.188,2.788-5.181c1.994-1.993,6.378-3.985,6.378-3.985
			l-3.588-7.174c0,0-6.376-6.776-8.369-3.588c-1.992,3.189-7.172,7.973-7.172,7.973s-7.972,8.368-42.247,7.571
			c3.787,3.787-1.595,10.761-8.769,10.363c-7.172-0.399-7.571-6.378-7.571-6.378s-3.985,1.196-5.979,0.399
			c-1.994-0.796,2.391-5.979,6.775-7.572c4.384-1.593,22.319-3.985,29.493-7.174c7.174-3.188,11.956-9.963,15.145-13.948
			c3.189-3.985,6.378-11.159,7.97-11.957c1.594-0.797-2.391-2.392-2.391-2.392l-2.391-3.586c0,0-1.994,0.398-3.189-2.79
			c-3.586-1.594-2.79-1.196-1.195-5.979c1.595-4.781,6.775-15.145,11.557-16.739C369.197,185.072,369.197,185.072,369.197,185.072z"
			/>
		<path style="fill:#D19882;" d="M324.959,254.419c1.993,0.997,2.192,3.588,1.394,4.783c2.991-0.597,50.019-0.597,50.019-0.597
			s1.195-3.389,2.391-4.186c1.195-0.796-3.189,0.399-3.189,0.399L324.959,254.419z"/>
		<path style="fill:#D19882;" d="M395.9,258.206c0,0,5.778-3.586,8.171-3.985c2.391-0.399,100.832,0.399,103.421,0.399
			c2.591,0,4.982,1.592,3.387,2.988c-1.592,1.395-3.785,1.195-3.785,1.195H398.492L395.9,258.206z"/>
		<g>
			<g>
				<path style="fill:#231815;" d="M445.978,250.181c-0.002,0.257-0.004,0.517-0.012,0.776c-0.006,0.249-0.016,0.497-0.028,0.746
					c-0.02,0.445-0.049,0.887-0.079,1.33c-0.01,0.126-0.02,0.251-0.031,0.376c0.083,0.038,0.164,0.075,0.239,0.099
					c0.342-0.055,0.673-0.174,1.037-0.271l0.14-0.016c0.018-0.272,0.039-0.549,0.053-0.814c0.02-0.495,0.034-0.984,0.041-1.467
					c0-0.12,0.002-0.241,0.002-0.361c0-0.128,0.002-0.261,0-0.385c-0.016-0.239-0.03-0.479-0.049-0.719
					c-0.132-1.835-0.344-3.492-0.555-4.879c-0.901-5.537-2.338-11.036-5.693-18.803c-0.847-1.937-2.063-4.382-3.586-7.035
					c-1.546-2.669-3.513-5.478-5.75-8.07c-2.227-2.601-4.71-4.986-7.132-6.982c-2.419-2-4.765-3.616-6.682-4.817
					c-2.075-1.292-3.116-1.533-3.428-1.304c-0.314,0.237,0.077,0.974,0.76,1.829c0.683,0.855,0.946,1.404,1.582,1.961
					c0.634,0.569,1.653,1.12,3.779,2.196c2.129,1.08,4.421,2.887,6.419,4.889c2.008,1.991,3.71,4.157,4.966,5.779
					c0.632,0.807,1.599,2.068,2.626,3.597c0.514,0.762,1.049,1.592,1.566,2.466c0.533,0.888,1.052,1.781,1.556,2.683
					c2.038,3.612,3.621,7.257,4.111,8.546c0.513,1.273,2.342,6.145,3.284,11.298C445.597,245.396,445.885,248.029,445.978,250.181z"
					/>
				<path style="fill:#231815;" d="M445.117,260.708c-0.043,0.448-0.085,0.889-0.128,1.345c-0.122,1.388-0.215,2.798-0.255,4.115
					c-0.036,1.321-0.018,2.541,0.055,3.549c0.071,1.007,0.221,1.885,0.387,2.494c0.166,0.611,0.338,0.959,0.45,0.942
					c0.122-0.018,0.158-0.395,0.17-1.252c0.01-0.855-0.014-2.191,0.079-4.143c0.103-2.231,0.366-4.585,0.64-6.957
					C446.231,260.305,445.625,260.344,445.117,260.708z"/>
				<path style="fill:#231815;" d="M409.363,213.945c-0.523,0.692-1.143,1.586-1.578,2.583c-0.217,0.496-0.379,1.011-0.44,1.514
					c-0.065,0.502-0.028,0.987,0.12,1.473c0.282,0.977,1.066,1.983,1.807,3.007c0.371,0.513,0.729,1.039,1.023,1.572
					c0.296,0.527,0.523,1.064,0.663,1.552c0.142,0.49,0.227,0.979,0.261,1.449c0.016,0.233,0.02,0.465,0.012,0.689l-0.002,0.083
					l-0.002,0.036l-0.004,0.014l-0.002,0.026l0.002,0.063l0.008,0.282c0.02,0.744,0.036,1.436,0.043,2.093
					c0.014,1.313,0,2.487-0.087,3.665c-0.087,1.175-0.209,2.816-0.691,4.585c-0.241,0.881-0.577,1.791-1.027,2.657
					c-0.454,0.865-1.023,1.682-1.671,2.375c-0.65,0.693-1.199,1.059-1.57,1.246c-0.373,0.184-0.577,0.186-0.64,0.095
					c-0.13-0.195,0.286-0.77,0.833-1.447c0.559-0.673,1.25-1.673,1.734-2.719c0.501-1.042,0.815-2.107,1.013-2.77
					c0.099-0.334,0.296-1.018,0.448-1.898c0.158-0.882,0.276-1.954,0.32-3.026c0.095-2.147-0.081-4.276-0.122-4.839l-0.024-0.266
					c-0.01-0.153-0.004-0.237-0.016-0.362c-0.014-0.24-0.057-0.523-0.138-0.83c-0.152-0.616-0.486-1.314-0.952-1.977
					c-0.462-0.667-1.029-1.311-1.523-1.923c-0.494-0.605-0.902-1.189-1.127-1.604c-0.227-0.41-0.438-0.941-0.551-1.545
					c-0.12-0.603-0.13-1.272-0.043-1.917c0.172-1.305,0.667-2.483,0.867-3.604c0.217-1.126,0.508-1.601,0.831-1.829
					c0.334-0.223,0.731-0.203,1.311-0.295c0.579-0.092,1.11-0.005,1.335,0.281C410.014,212.724,409.933,213.201,409.363,213.945z"/>
				<path style="fill:#231815;" d="M402.43,246.905c-0.687,0.32-1.562,0.677-2.529,1.007c-0.972,0.332-2.034,0.638-3.092,0.906
					c-2.123,0.528-4.208,0.916-5.527,1.124c-2.642,0.41-4.344,0.872-5.993,1.459c-0.822,0.294-1.925,0.78-3.037,1.431
					c-1.116,0.651-2.229,1.478-3.151,2.348c-0.462,0.43-0.774,0.73-1.005,0.902c-0.223,0.172-0.356,0.221-0.421,0.167
					c-0.126-0.101,0.04-0.605,0.442-1.15c0.397-0.543,1.047-1.255,1.765-1.858c0.713-0.604,1.483-1.102,1.985-1.366
					c0.247-0.134,0.766-0.403,1.431-0.69c0.662-0.293,1.477-0.605,2.292-0.876c1.631-0.547,3.268-0.938,3.703-1.048l6.258-1.641
					c0.646-0.16,1.526-0.292,2.407-0.529c0.879-0.235,1.76-0.583,2.368-1.121c0.608-0.536,0.922-0.73,1.204-0.757
					c0.284-0.028,0.527,0.116,0.948,0.221c0.418,0.103,0.772,0.283,0.843,0.537C403.391,246.222,403.168,246.563,402.43,246.905z"/>
				<path style="fill:#231815;" d="M381.096,260.704c-0.346,0.125-0.782,0.471-1.115,1.063c-0.166,0.291-0.306,0.632-0.409,0.995
					c-0.053,0.184-0.095,0.373-0.13,0.565l-0.02,0.104l0.063,0.065c-0.022-0.004,0.156,0.097,0.286,0.156
					c0.271,0.126,0.577,0.216,0.881,0.281c0.614,0.134,1.222,0.173,1.702,0.21c1.025,0.067,1.914,0,2.733-0.05l0.608-0.033
					l0.304-0.008l0.15-0.002l0.132-0.001c0.371-0.012,0.764-0.006,1.128,0.011c0.369,0.016,0.802,0.039,1.264,0.05
					c0.464,0.013,0.96,0.017,1.426-0.046c0.466-0.062,0.883-0.197,1.212-0.434c0.332-0.233,0.604-0.577,0.831-0.972
					c0.227-0.397,0.375-0.702,0.504-0.884c0.124-0.183,0.225-0.253,0.302-0.228c0.152,0.049,0.221,0.482,0.085,1.011
					c-0.14,0.517-0.444,1.266-1.056,1.797c-0.3,0.261-0.663,0.456-1.001,0.565c-0.338,0.113-0.654,0.158-0.889,0.174
					c-0.235,0.02-0.717,0.025-1.297-0.014c-0.581-0.031-1.262-0.097-1.929-0.103c-0.166-0.001-0.33-0.001-0.496,0.004
					c-0.083,0.005-0.176,0.006-0.257,0.006l-0.233,0.007c-0.314,0.015-0.616,0.042-0.889,0.068l-1.153,0.113
					c-0.361,0.026-1.392,0.181-2.516,0.159c-0.565-0.01-1.149-0.079-1.664-0.223c-0.255-0.071-0.492-0.159-0.693-0.257l-0.148-0.072
					l-0.166-0.096c-0.103-0.063-0.199-0.125-0.272-0.184c-0.16-0.124-0.326-0.268-0.468-0.436c0.02-0.197,0.047-0.399,0.077-0.605
					c0.018-0.102,0.036-0.208,0.059-0.313c0.02-0.098,0.038-0.162,0.061-0.247c0.083-0.32,0.191-0.646,0.308-0.973
					c0.239-0.652,0.521-1.278,0.798-1.919c0.162-0.371,0.366-0.627,0.557-0.791c0.191-0.164,0.369-0.235,0.527-0.252
					c0.32-0.03,0.576,0.138,0.92,0.363c0.349,0.233,0.49,0.578,0.45,0.831c-0.02,0.129-0.081,0.237-0.17,0.324
					C381.398,260.572,381.274,260.635,381.096,260.704z"/>
				<path style="fill:#231815;" d="M426.822,234.029c-0.484,0.815-0.979,1.843-1.384,3.042c-0.413,1.196-0.73,2.56-0.977,4.01
					c-0.257,1.447-0.45,2.981-0.772,4.509c-0.164,0.763-0.361,1.524-0.628,2.255c-0.132,0.365-0.282,0.724-0.448,1.07
					c-0.083,0.175-0.166,0.334-0.266,0.513c-0.14,0.259-0.298,0.503-0.448,0.747c-0.233,0.123-0.462,0.246-0.693,0.356l-0.146,0.067
					l-0.109,0.047l-0.215,0.089c-0.286,0.116-0.557,0.213-0.819,0.304c-0.525,0.176-1.005,0.316-1.44,0.432
					c-2.318,0.598-4.22,0.999-5.922,1.412c-1.704,0.405-3.209,0.788-4.702,1.189c-1.493,0.405-3.533,1.026-5.687,1.819
					c-1.076,0.4-2.182,0.838-3.246,1.333c-1.057,0.493-2.083,1.04-2.927,1.654c-0.849,0.615-1.27,1.088-1.53,1.377
					c-0.251,0.289-0.379,0.416-0.494,0.384c-0.103-0.034-0.172-0.243-0.111-0.587c0.061-0.342,0.278-0.806,0.65-1.256
					c0.369-0.446,0.9-0.932,1.52-1.382c0.622-0.454,1.331-0.881,2.046-1.26c1.439-0.759,2.905-1.336,3.833-1.646
					c0.466-0.155,1.418-0.467,2.618-0.818c1.199-0.354,2.644-0.751,4.08-1.128c2.875-0.749,5.695-1.464,6.441-1.677
					c0.421-0.114,1.284-0.366,2.336-0.716c0.527-0.177,1.102-0.378,1.684-0.607c0.288-0.116,0.579-0.238,0.867-0.372
					c0.144-0.064,0.286-0.135,0.419-0.203c0.091-0.048,0.176-0.097,0.261-0.15c0.116-0.209,0.359-0.719,0.504-1.132
					c0.16-0.432,0.284-0.861,0.383-1.267c0.201-0.818,0.318-1.541,0.403-2.033c0.203-1.123,0.515-2.656,0.839-4.251
					c0.318-1.597,0.681-3.232,0.859-4.696c0.085-0.735,0.219-1.281,0.369-1.688c0.152-0.405,0.32-0.677,0.504-0.871
					c0.371-0.389,0.804-0.492,1.455-0.776c0.656-0.278,1.242-0.3,1.461-0.016C427.616,232.395,427.462,232.96,426.822,234.029z"/>
				<path style="fill:#231815;" d="M445.257,269.146c0.363,0.615,0.922,1.525,1.499,2.406c0.571,0.885,1.159,1.742,1.499,2.313
					c0.675,1.146,1.268,1.805,1.874,2.443c0.606,0.642,1.84,1.578,2.846,2.411c1.017,0.827,0.43,1.063-0.215,0.785
					c-0.32-0.139-0.747-0.376-1.141-0.63c-0.393-0.257-0.762-0.529-0.962-0.724c-0.208-0.194-0.839-0.804-1.426-1.435
					c-0.592-0.629-1.139-1.276-1.28-1.45l-1.05-1.159c-0.45-0.51-0.902-1.06-1.094-1.337c-0.397-0.564-0.699-1.704-1.587-2.088
					c-0.894-0.392-0.571-0.592-0.259-1.164C444.276,268.942,444.872,268.484,445.257,269.146z"/>
				<path style="fill:#231815;" d="M444.487,275.103c0.024,0.312,0.105,0.768,0.255,1.197c0.142,0.431,0.348,0.842,0.462,1.141
					c0.225,0.599,0.561,0.907,0.885,1.188c0.334,0.29,1.064,0.596,1.633,0.946c0.569,0.353,0.148,0.747-0.249,0.723
					c-0.395-0.02-1.042-0.226-1.283-0.405c-0.121-0.089-0.49-0.363-0.837-0.667c-0.344-0.303-0.656-0.64-0.731-0.733
					c-0.083-0.091-0.346-0.328-0.594-0.614c-0.251-0.281-0.472-0.62-0.551-0.796c-0.079-0.176-0.087-0.448-0.14-0.7
					c-0.055-0.254-0.152-0.494-0.466-0.675c-0.314-0.185-0.369-0.309-0.286-0.4c0.085-0.092,0.312-0.163,0.588-0.271
					C443.723,274.818,444.46,274.775,444.487,275.103z"/>
				<path style="fill:#231815;" d="M442.451,278.986c0.166,0.24,0.432,0.591,0.703,0.937c0.269,0.348,0.541,0.694,0.675,0.956
					c0.269,0.525,0.559,0.774,0.849,1.015c0.292,0.243,0.924,0.493,1.386,0.787c0.462,0.291,0.071,0.702-0.281,0.706
					c-0.347,0.006-0.906-0.158-1.106-0.31c-0.102-0.075-0.409-0.312-0.699-0.557c-0.294-0.243-0.569-0.498-0.642-0.567
					c-0.071-0.069-0.314-0.232-0.561-0.415c-0.243-0.18-0.492-0.385-0.594-0.499c-0.209-0.233-0.229-0.845-0.887-0.794
					c-0.669,0.037-0.371-0.195,0.006-0.632C441.675,279.171,442.276,278.734,442.451,278.986z"/>
				<path style="fill:#231815;" d="M447.066,286.568c0.107,1.633,0.235,3.597,0.235,5.644c0.008,2.044-0.118,4.166-0.426,6.072
					c-0.306,1.906-0.727,3.201-1.019,3.943c-0.3,0.741-0.458,0.942-0.377,0.668c0.077-0.277,0.111-0.715,0.188-1.426
					c0.073-0.713,0.194-1.7,0.397-3.106c0.393-2.814,0.346-5.099,0.27-6.419c-0.047-0.661-0.025-0.85,0-1.37
					c0.016-0.519,0.061-1.374-0.097-3.354c-0.166-1.98-0.245-3.164-0.207-3.725c0.036-0.556,0.182-0.486,0.312,0.075
					C446.614,284.682,447.072,286.567,447.066,286.568z"/>
				<path style="fill:#231815;" d="M442.728,298.012c0.367,2.741,0.527,6.579,0.478,9.749c-0.022,1.587-0.081,2.692-0.13,3.348
					c-0.045,0.653-0.102,0.862-0.132,0.625c-0.045-0.468-0.492-1.404-0.527-3.801c-0.03-2.391-0.136-4.291-0.27-5.392
					c-0.063-0.551-0.051-0.708-0.043-1.144c0.006-0.215,0.01-0.504-0.008-0.94c-0.022-0.44-0.059-1.029-0.168-1.842
					c-0.223-1.627-0.425-2.563-0.474-3.027c-0.057-0.458,0.095-0.45,0.312-0.01c0.211,0.436,0.468,1.039,0.652,1.542
					C442.604,297.62,442.728,298.014,442.728,298.012z"/>
				<path style="fill:#231815;" d="M442.011,313.39c1.049,2.21,2.877,5.112,4.311,7.536c0.713,1.216,1.173,2.099,1.416,2.652
					c0.241,0.551,0.257,0.775,0.119,0.609c-0.134-0.169-0.438-0.335-0.869-0.689c-0.43-0.353-0.989-0.892-1.585-1.802
					c-1.189-1.817-2.138-3.266-2.749-4.081c-0.602-0.818-0.17-0.569-1.604-3.215c-1.428-2.635-1.155-3.448-0.612-2.767
					C440.976,312.318,442.011,313.39,442.011,313.39z"/>
				<path style="fill:#231815;" d="M454.576,334.505c0.227,0.432,0.624,0.952,1.082,1.534c0.46,0.583,0.977,1.228,1.477,1.884
					c1.001,1.307,1.896,2.674,2.259,3.4c0.18,0.365,0.66,1.241,1.177,2.425c0.521,1.183,1.072,2.676,1.448,4.218
					c0.383,1.542,0.573,3.129,0.557,4.423c-0.01,1.292-0.217,2.273-0.318,2.638c-0.207,0.736-0.527,0.94-0.693,0.839
					c-0.174-0.11-0.219-0.498-0.073-1.048c0.077-0.275,0.284-1.154,0.302-2.378c0.026-1.226-0.146-2.779-0.535-4.303
					c-0.379-1.528-0.958-3.022-1.526-4.198c-0.571-1.177-1.122-2.04-1.404-2.368c-0.567-0.664-1.278-1.37-1.941-2.135
					c-0.671-0.766-1.286-1.587-1.722-2.573c-0.442-0.985-0.507-1.561-0.414-1.909C454.345,334.604,454.572,334.505,454.576,334.505z
					"/>
				<path style="fill:#231815;" d="M427.472,330.835c0,0.295-0.034,0.597-0.081,0.899l-0.193,0.061
					c-0.17,0.047-0.326,0.172-0.46,0.323c-0.168-0.076-0.324-0.149-0.47-0.22c-0.922-0.448-2.054-1.139-3.207-2.061
					c-1.159-0.918-2.34-2.062-3.424-3.337c-1.088-1.269-2.081-2.666-2.944-4.053c-0.863-1.385-1.597-2.754-2.233-3.96
					c-0.632-1.203-1.321-2.966-1.779-5.053c-0.231-1.042-0.403-2.168-0.502-3.318c-0.097-1.152-0.128-2.33-0.112-3.486
					c0.03-2.316,0.233-4.54,0.253-6.384c0.012-0.922-0.024-1.751-0.101-2.457c-0.083-0.708-0.211-1.292-0.346-1.746
					c-0.276-0.907-0.488-1.711-0.685-2.515c-0.192-0.8-0.373-1.588-0.496-2.316c-0.124-0.729-0.186-1.392-0.12-1.913
					c0.067-0.522,0.261-0.904,0.616-1.035c0.482,0.269,1.226,0.901,1.955,1.821c0.733,0.914,1.412,2.141,1.807,3.372
					c0.401,1.233,0.533,2.421,0.563,3.264c0.03,0.847-0.012,1.369-0.01,1.371c0,0,0.024,0.616-0.006,1.553
					c-0.032,0.939-0.136,2.189-0.259,3.488c-0.128,1.3-0.257,2.654-0.312,3.841c-0.063,1.187-0.053,2.206-0.02,2.83
					c0.034,0.628,0.069,1.601,0.211,2.782c0.142,1.181,0.391,2.571,0.8,4.006c0.407,1.435,0.971,2.917,1.651,4.274
					c0.677,1.363,1.467,2.603,2.237,3.602c0.774,1.003,1.684,2.048,2.745,3.036c1.056,0.987,2.265,1.918,3.598,2.671
					C426.578,330.42,427.022,330.634,427.472,330.835z"/>
				<path style="fill:#231815;" d="M446.565,365.865c-0.117-0.068-0.18-0.125-0.211-0.21l0.018-0.075l0.083,0.009l0.146,0.013
					c0.117,0.004,0.284-0.002,0.482-0.071c0.194-0.069,0.413-0.199,0.63-0.377c0.217-0.179,0.429-0.401,0.65-0.663
					c0.867-1.052,1.882-2.721,3.019-5.054c0.555-1.165,1.011-2.232,1.313-3.216c0.032-0.12,0.069-0.243,0.093-0.362
					c0.03-0.116,0.051-0.224,0.067-0.335l0.014-0.164l-0.02-0.162l-0.055-0.333c-0.079-0.461-0.168-0.896-0.271-1.31
					c-0.411-1.653-0.965-2.952-1.663-4.106c-0.349-0.577-0.742-1.116-1.195-1.63c-0.448-0.499-0.989-0.997-1.564-1.505
					c-1.165-1.019-2.579-2.088-4.504-3.258c-3.841-2.34-8.244-4.427-11.889-6.698c-0.91-0.564-1.773-1.134-2.573-1.703
					c-0.391-0.273-0.815-0.587-1.173-0.906c-0.34-0.299-0.648-0.605-0.932-0.911l0.152-0.185c0.213-0.067,0.426-0.13,0.632-0.179
					c0.275-0.065,0.476-0.19,0.63-0.349c0.369,0.356,0.754,0.693,1.163,0.977c0.616,0.425,1.244,0.829,1.864,1.196
					c1.24,0.742,2.612,1.506,4.074,2.311c1.465,0.8,3.021,1.641,4.619,2.561c1.595,0.922,3.234,1.925,4.824,3.073
					c1.587,1.143,3.128,2.431,4.514,3.874c0.341,0.363,0.675,0.702,0.977,1.081c0.292,0.362,0.551,0.72,0.784,1.069
					c0.466,0.702,0.825,1.372,1.124,2.006c0.592,1.274,0.956,2.413,1.242,3.565c0.067,0.288,0.132,0.579,0.188,0.875l0.045,0.23
					l0.045,0.294c0.028,0.195,0,0.395-0.031,0.598l-0.029,0.148l-0.03,0.142l-0.057,0.249c-0.042,0.163-0.091,0.322-0.144,0.484
					c-0.097,0.316-0.209,0.638-0.334,0.964c-0.505,1.3-1.167,2.737-2.219,4.459c-0.533,0.861-1.06,1.587-1.582,2.173
					c-0.529,0.588-1.041,1.042-1.617,1.324c-0.288,0.138-0.559,0.204-0.784,0.204C446.853,365.987,446.681,365.928,446.565,365.865z
					"/>
				<path style="fill:#231815;" d="M464.334,358.643c-0.33,0.91-0.563,2.14-0.717,3.576c-0.17,1.429-0.269,3.076-0.741,4.743
					c-0.235,0.829-0.577,1.656-1.049,2.393c-0.466,0.737-1.052,1.373-1.669,1.876c-0.308,0.253-0.624,0.472-0.934,0.667
					l-0.233,0.142c-0.085,0.049-0.176,0.105-0.263,0.144c-0.178,0.086-0.32,0.15-0.472,0.217c-0.606,0.263-1.167,0.458-1.659,0.606
					c-0.985,0.296-1.876,0.5-2.685,0.716c-0.405,0.108-0.79,0.215-1.159,0.327c-0.381,0.116-0.695,0.217-1.003,0.361
					c-1.232,0.57-2.19,1.471-3.262,2.285c-0.27,0.205-0.571,0.43-0.908,0.657c-0.168,0.115-0.344,0.231-0.535,0.342l-0.247,0.143
					l-0.053,0.044l-0.117,0.107c-0.654,0.585-1.388,1.228-2.257,1.811c-0.438,0.292-0.91,0.573-1.434,0.798
					c-0.525,0.223-1.122,0.403-1.791,0.396l-0.152,0.011l-0.219,0.004c-0.152,0.002-0.302-0.004-0.45-0.018
					c-0.302-0.02-0.602-0.071-0.908-0.158c-0.302-0.087-0.602-0.208-0.887-0.385c-0.286-0.176-0.561-0.413-0.778-0.717
					c-0.217-0.305-0.342-0.655-0.383-0.977c-0.039-0.322-0.004-0.611,0.057-0.844c0.126-0.476,0.324-0.771,0.482-0.979
					c0.336-0.406,0.539-0.49,0.598-0.442c0.063,0.055-0.012,0.259-0.132,0.575c-0.118,0.316-0.296,0.76-0.284,1.272
					c0.004,0.256,0.077,0.533,0.237,0.776c0.156,0.24,0.391,0.443,0.664,0.585c0.555,0.289,1.236,0.375,1.882,0.332l0.257-0.022
					c0.095-0.002,0.16-0.007,0.241-0.012c0.152-0.016,0.304-0.047,0.452-0.083c0.292-0.079,0.575-0.19,0.835-0.314
					c0.521-0.245,0.956-0.531,1.292-0.75c0.337-0.217,1.009-0.699,1.805-1.379l0.304-0.264c0.044-0.035,0.117-0.106,0.19-0.158
					l0.215-0.116c0.239-0.136,0.484-0.285,0.729-0.452c0.486-0.329,0.975-0.715,1.465-1.108c0.49-0.39,0.987-0.789,1.493-1.13
					c0.505-0.346,1.023-0.636,1.513-0.841c0.124-0.052,0.249-0.096,0.365-0.139l0.33-0.113l0.583-0.188l0.776-0.235
					c0.316-0.098,0.93-0.283,1.684-0.533c0.754-0.257,1.645-0.593,2.494-1.033c0.111-0.059,0.209-0.109,0.306-0.166
					c0.087-0.056,0.19-0.124,0.288-0.19c0.195-0.132,0.381-0.273,0.561-0.417c0.354-0.293,0.671-0.608,0.936-0.922
					c0.533-0.633,0.855-1.27,1.045-1.69c0.188-0.421,0.391-0.93,0.559-1.505c0.168-0.576,0.306-1.215,0.403-1.88
					c0.193-1.333,0.247-2.731,0.17-3.949c-0.073-1.23,0.081-1.871,0.308-2.263c0.233-0.393,0.547-0.568,1.019-0.916
					c0.474-0.345,0.924-0.44,1.102-0.243c0.091,0.098,0.12,0.267,0.073,0.525C464.626,357.802,464.506,358.151,464.334,358.643z"/>
				<path style="fill:#231815;" d="M437.211,377.104c-0.178-0.43-0.385-1.124-0.385-1.843c-0.014-0.716,0.192-1.417,0.43-1.792
					c0.237-0.378,0.448-0.663,0.636-0.913c0.197-0.25,0.371-0.464,0.565-0.662c0.19-0.199,0.446-0.488,0.776-0.756
					c0.326-0.267,0.729-0.511,1.133-0.643c0.407-0.129,0.592-0.013,0.624,0.144c0.032,0.159-0.069,0.371-0.215,0.512
					c-0.154,0.14-0.357,0.31-0.543,0.472c-0.186,0.163-0.351,0.316-0.466,0.393c-0.117,0.073-0.47,0.324-0.752,0.642
					c-0.284,0.314-0.482,0.681-0.531,0.781c-0.051,0.097-0.144,0.406-0.176,0.73c-0.036,0.326-0.016,0.656-0.012,0.814
					c-0.006,0.154-0.093,0.371-0.081,0.6c0.008,0.227,0.109,0.458,0.432,0.547c0.318,0.085,0.391,0.137,0.326,0.23
					c-0.063,0.091-0.261,0.216-0.482,0.404C438.05,377.149,437.416,377.576,437.211,377.104z"/>
				<path style="fill:#231815;" d="M442.4,368.571c0.101-0.039,0.247-0.102,0.411-0.158c0.164-0.057,0.344-0.109,0.5-0.09
					c0.304,0.034,0.462-0.057,0.618-0.145c0.154-0.084,0.367-0.409,0.65-0.518c0.284-0.106,0.385,0.455,0.332,0.672
					c-0.057,0.219-0.176,0.476-0.265,0.523c-0.089,0.034-0.551,0.299-0.624,0.346c-0.071,0.038-0.334,0.411-0.46,0.476
					c-0.13,0.068-0.474-0.178-0.411,0.401c0.051,0.584-0.103,0.237-0.355-0.263C442.544,369.312,442.299,368.609,442.4,368.571z"/>
				<path style="fill:#231815;" d="M449.365,328.082c0.616,0.754,1.702,1.42,2.891,2c1.195,0.584,2.498,1.12,3.637,1.76
					c1.147,0.637,1.868,1.267,2.229,1.701c0.365,0.435,0.397,0.646,0.247,0.525c-0.154-0.118-0.468-0.183-0.938-0.326
					c-0.47-0.142-1.1-0.353-1.951-0.776c-0.853-0.423-1.653-0.754-2.342-1.029c-0.691-0.273-1.276-0.491-1.714-0.65
					c-0.44-0.16-0.543-0.257-0.833-0.484c-0.148-0.118-0.34-0.263-0.64-0.49c-0.298-0.231-0.707-0.529-1.246-1.022
					c-0.535-0.499-0.867-1.018-1.035-1.452c-0.172-0.436-0.197-0.773-0.168-0.986c0.073-0.429,0.284-0.383,0.452-0.06
					c0.172,0.332,0.513,0.697,0.829,0.928C449.096,327.951,449.367,328.078,449.365,328.082z"/>
				<path style="fill:#231815;" d="M377.313,182.005l-0.306,0.311l-0.028,0.029l-0.087,0.096c-0.069,0.074-0.136,0.148-0.209,0.218
					c-0.292,0.291-0.616,0.559-0.958,0.802c-0.693,0.488-1.465,0.871-2.255,1.191c-1.584,0.638-3.27,1.036-4.806,1.507
					c-0.383,0.116-0.758,0.237-1.112,0.367c-0.18,0.065-0.352,0.131-0.523,0.201l-0.557,0.228c-0.707,0.295-1.368,0.611-1.971,0.948
					c-1.205,0.666-2.168,1.429-2.915,2.073c-0.744,0.643-1.394,1.312-1.984,1.962c-0.294,0.325-0.575,0.644-0.847,0.958
					l-0.201,0.233l-0.043,0.053l-0.01,0.012l-0.018,0.031l-0.043,0.061l-0.32,0.488c-0.835,1.296-1.497,2.501-2.133,3.722
					c-0.636,1.223-1.404,2.962-2.196,4.885l-1.201,2.95c-0.172,0.45-0.3,0.893-0.349,1.276c-0.047,0.389-0.008,0.662,0.097,0.89
					c0.102,0.232,0.294,0.473,0.503,0.71c0.207,0.233,0.407,0.452,0.553,0.643c0.3,0.382,0.377,0.634,0.286,0.719
					c-0.089,0.09-0.336,0.033-0.664-0.1c-0.328-0.136-0.75-0.338-1.155-0.664c-0.203-0.163-0.413-0.363-0.594-0.621
					c-0.18-0.258-0.324-0.579-0.393-0.932c-0.14-0.715-0.006-1.496,0.205-2.208c0.107-0.363,0.237-0.701,0.353-1.025l0.357-0.942
					c0.229-0.596,0.446-1.12,0.628-1.518c0.365-0.793,1.491-3.262,2.759-5.62c0.632-1.18,1.297-2.333,1.872-3.251l0.219-0.346
					l0.136-0.182l0.113-0.14l0.403-0.5l0.545-0.667c0.225-0.269,0.646-0.806,1.216-1.463c0.567-0.656,1.299-1.428,2.137-2.129
					c0.839-0.701,1.779-1.317,2.634-1.781c0.428-0.233,0.835-0.432,1.195-0.6l0.49-0.219c0.158-0.071,0.304-0.132,0.432-0.18
					c1.027-0.411,2.435-0.654,3.809-1.022c0.689-0.188,1.371-0.412,1.979-0.718c0.604-0.302,1.134-0.691,1.475-1.151
					c0.34-0.458,0.521-0.78,0.671-0.996l0.105-0.147l0.053-0.061l0.073-0.081c0.113-0.115,0.14-0.127,0.192-0.168l0.156-0.091
					c0.407-0.21,0.849-0.142,1.526-0.21C377.96,179.703,379.027,180.269,377.313,182.005z"/>
				<path style="fill:#231815;" d="M358.074,212.939c0.026,0.27,0.099,0.578,0.282,0.884c0.176,0.305,0.47,0.618,0.857,0.895
					c0.768,0.56,1.801,0.946,2.437,1.232c0.64,0.286,1.22,0.459,1.741,0.581c0.525,0.124,0.999,0.199,1.479,0.265
					c0.956,0.141,2.668,0.103,4.145,0.275c1.487,0.191,1.019,0.782,0.263,0.896c-0.758,0.12-2.115,0.191-2.727,0.12
					c-0.306-0.036-1.252-0.144-2.184-0.284c-0.932-0.134-1.844-0.32-2.089-0.377c-0.243-0.054-0.954-0.158-1.696-0.344
					c-0.74-0.177-1.507-0.474-1.854-0.68c-0.35-0.2-0.744-0.587-1.12-1.002c-0.383-0.419-0.738-0.857-1.222-1.252
					c-0.488-0.41-0.575-0.735-0.492-0.937c0.087-0.212,0.348-0.346,0.671-0.546c0.326-0.201,0.713-0.276,1.001-0.226
					C357.861,212.495,358.054,212.651,358.074,212.939z"/>
				<path style="fill:#231815;" d="M385.227,179.562c1.086-0.785,2.259-2.053,3.229-3.721c0.981-1.655,1.775-3.667,2.441-5.728
					c0.666-2.067,1.224-4.184,1.783-6.108c0.284-0.962,0.563-1.878,0.851-2.716c0.142-0.418,0.288-0.82,0.436-1.195l0.219-0.554
					c0.079-0.203,0.178-0.383,0.253-0.537c1.266-2.514,2.486-4.512,3.661-6.258c1.177-1.743,2.318-3.234,3.56-4.638
					c1.244-1.402,3.037-3.29,5.371-4.944c1.167-0.825,2.464-1.586,3.847-2.178c1.382-0.597,2.851-1.018,4.293-1.229
					c1.444-0.205,2.457-0.143,3.086-0.059c0.632,0.089,0.891,0.212,0.883,0.302c-0.02,0.191-1.094,0.278-2.468,0.468
					c-0.689,0.092-1.51,0.241-2.374,0.476c-0.863,0.233-1.767,0.551-2.624,0.928c-1.72,0.747-3.242,1.746-4.165,2.395
					c-0.464,0.322-1.408,1.003-2.492,1.975c-1.084,0.968-2.303,2.229-3.406,3.57c-1.102,1.339-2.097,2.754-2.853,3.937
					c-0.76,1.181-1.286,2.129-1.507,2.528c-0.223,0.399-0.634,1.183-1.1,2.191l-0.363,0.795l-0.184,0.426
					c-0.061,0.14-0.115,0.275-0.164,0.419c-0.211,0.604-0.409,1.249-0.602,1.906c-0.379,1.315-0.715,2.676-1.019,3.874
					c-0.3,1.2-0.569,2.234-0.764,2.902c-0.383,1.334-1.021,3.085-1.775,4.857c-0.752,1.779-1.647,3.548-2.457,5.075
					c-0.405,0.768-0.798,1.307-1.149,1.692c-0.35,0.383-0.658,0.614-0.94,0.767c-0.567,0.293-1.037,0.291-1.815,0.362
					c-0.786,0.066-1.343-0.123-1.355-0.434c-0.012-0.16,0.111-0.344,0.385-0.588C384.222,180.283,384.648,179.991,385.227,179.562z"
					/>
				<path style="fill:#231815;" d="M395.104,185.4c1.28-1.642,3.236-3.016,5.339-4.26l1.582-0.929l0.762-0.453l0.754-0.505
					c1.074-0.716,2.172-1.417,3.258-2.108c2.174-1.384,4.295-2.749,6.111-4.089c1.82-1.331,3.321-2.643,4.409-3.724
					c0.272-0.268,0.535-0.54,0.78-0.811c0.124-0.137,0.245-0.27,0.363-0.406l0.336-0.396c0.197-0.248,0.405-0.548,0.606-0.83
					c0.201-0.283,0.393-0.565,0.577-0.845c0.74-1.116,1.364-2.193,1.902-3.24c1.076-2.095,1.83-4.056,2.401-6.058
					c0.284-1.001,0.557-2.209,0.735-3.554c0.087-0.674,0.154-1.38,0.184-2.11c0.018-0.364,0.026-0.737,0.024-1.111l-0.01-0.581
					c0-0.214,0-0.428,0.006-0.641c0.046-1.699,0.304-3.381,0.385-4.964c0.042-0.783,0.034-1.553-0.105-2.151
					c-0.067-0.298-0.17-0.534-0.285-0.691c-0.116-0.16-0.237-0.259-0.428-0.349c-0.385-0.176-0.95-0.212-1.418-0.204
					c-0.476,0.007-0.887,0.048-1.212,0.069c-0.65,0.05-0.964,0.025-0.997-0.102c-0.035-0.121,0.207-0.334,0.66-0.561
					c0.45-0.223,1.114-0.47,1.909-0.547c0.397-0.034,0.847-0.038,1.313,0.079c0.468,0.113,0.957,0.379,1.301,0.823
					c0.35,0.438,0.547,0.997,0.661,1.556c0.109,0.563,0.144,1.141,0.146,1.705c0.006,1.132-0.099,2.226-0.176,3.198
					c-0.083,0.974-0.142,1.828-0.16,2.476c-0.006,0.166-0.008,0.354-0.01,0.616c0,0.254-0.006,0.549-0.02,0.876
					c-0.028,0.655-0.089,1.442-0.207,2.309c-0.223,1.734-0.693,3.789-1.355,5.752c-0.656,1.969-1.493,3.85-2.259,5.336
					c-0.762,1.488-1.443,2.584-1.728,3.044l-0.62,0.986c-0.134,0.209-0.278,0.442-0.456,0.694c-0.182,0.252-0.369,0.497-0.576,0.763
					c-0.827,1.053-1.921,2.243-3.126,3.353c-2.409,2.233-5.211,4.152-6.556,5.044c-1.347,0.894-3.24,1.915-5.087,3.109
					c-0.231,0.151-0.454,0.297-0.695,0.46c-0.109,0.079-0.255,0.166-0.369,0.239l-0.359,0.223c-0.478,0.292-0.946,0.584-1.392,0.888
					c-0.887,0.601-1.69,1.251-2.293,1.946c-0.6,0.694-1.005,1.202-1.321,1.573c-0.32,0.371-0.551,0.606-0.79,0.773
					c-0.235,0.168-0.464,0.268-0.735,0.377c-0.27,0.113-0.573,0.231-0.924,0.473c-0.699,0.472-1.281,1.005-1.655,0.785
					c-0.178-0.11-0.308-0.434-0.239-1.014C394.111,187.115,394.411,186.278,395.104,185.4z"/>
				<path style="fill:#231815;" d="M371.172,177.171c0.417-1.017,0.885-2.107,1.125-3.266c0.253-1.11,0.14-2.352-0.237-3.71
					c-0.369-1.356-0.981-2.809-1.442-4.441c-0.059-0.205-0.113-0.411-0.162-0.62l-0.146-0.616c-0.097-0.441-0.162-0.887-0.204-1.337
					c-0.077-0.896-0.047-1.789,0.036-2.64c0.083-0.852,0.213-1.672,0.33-2.467l0.17-1.176l0.073-0.577l0.01-0.079l0.022-0.138
					l0.034-0.17l0.063-0.29l0.936-4.49c0.616-2.879,1.301-5.467,2.036-7.419c0.606-1.638,1.293-3.128,2.077-4.464
					c0.782-1.331,1.655-2.503,2.593-3.515c0.938-1.013,1.937-1.87,2.966-2.597c0.255-0.181,0.515-0.355,0.774-0.523l0.389-0.242
					l0.199-0.118l0.245-0.143c0.389-0.224,0.788-0.435,1.177-0.627l0.584-0.29l0.296-0.145l0.146-0.072l0.109-0.008
					c0.111,0.693,0.211,1.43,0.377,2.081l0.063,0.247l0.051,0.172l0.093,0.298c0.063,0.199,0.132,0.393,0.207,0.589
					c0.446,1.215,1.187,2.593,2.111,4.089c0.91,1.504,2.014,3.132,2.938,5.029c0.952,1.906,1.521,4.111,1.657,6.323
					c0.146,2.216-0.122,4.415-0.553,6.447c-0.44,2.034-0.898,3.373-1.21,4.215c-0.32,0.838-0.521,1.174-0.61,1.148
					c-0.184-0.059,0.093-1.573,0.509-3.563c0.413-1.984,0.924-4.842,0.77-7.601c-0.069-1.377-0.3-2.715-0.638-3.876
					c-0.33-1.168-0.766-2.144-1.137-2.892c-0.189-0.392-0.499-0.989-0.924-1.73c-0.422-0.741-0.964-1.623-1.56-2.614
					c-0.596-0.987-1.244-2.089-1.811-3.3c-0.282-0.606-0.543-1.238-0.758-1.894c-0.053-0.163-0.103-0.333-0.15-0.494
					c-0.033-0.111-0.063-0.227-0.091-0.342c-0.055-0.232-0.101-0.466-0.136-0.701l-0.006-0.041l-0.004-0.019l-0.018,0.004
					l-0.071,0.035l-0.144,0.073l-0.288,0.15c-0.193,0.099-0.381,0.204-0.563,0.312c-0.494,0.292-0.988,0.614-1.442,0.942
					c-0.916,0.658-1.714,1.368-2.374,2.054c-1.319,1.378-2.093,2.64-2.421,3.176c-0.344,0.567-0.968,1.7-1.558,3.213
					c-0.6,1.51-1.159,3.399-1.613,5.36c-0.454,1.961-0.829,3.992-1.163,5.778l-0.47,2.458l-0.051,0.269l-0.014,0.082l-0.01,0.132
					l-0.061,0.503l-0.115,0.861c-0.14,1.009-0.365,2.164-0.466,3.395c-0.049,0.615-0.059,1.251,0.002,1.892
					c0.028,0.321,0.077,0.643,0.144,0.965c0.071,0.33,0.142,0.666,0.231,0.991c0.349,1.317,0.887,2.624,1.349,3.937
					c0.462,1.311,0.831,2.662,0.906,3.987c0.039,0.68-0.022,1.25-0.095,1.742c-0.077,0.496-0.18,0.912-0.284,1.266
					c-0.211,0.712-0.428,1.185-0.636,1.56c-0.421,0.748-0.871,1.084-1.493,1.914c-0.31,0.416-0.573,0.779-0.794,1.022
					c-0.221,0.239-0.403,0.36-0.537,0.247c-0.13-0.111-0.215-0.466-0.138-1.1C370.445,179.15,370.711,178.265,371.172,177.171z"/>
				<path style="fill:#231815;" d="M366.673,203.61c-2.506-0.501-2.794-4.827-0.764-5.334c2.034-0.508,3.556-0.508,3.556-0.508
					s0.255,1.525,0.509,2.541C370.228,201.324,370.481,204.373,366.673,203.61z"/>
				<path style="fill:#231815;" d="M374.078,216.186l-0.018,0.081l0.067,0.184l0.063,0.08l0.022,0.018l0.004,0.003l-0.004,0.009
					l-0.004,0.007v0.002l0.002-0.018l0.004,0.001l0.006,0.003l0.024,0.01l0.379,0.161l0.383,0.155
					c1.017,0.407,2.052,0.72,2.709,0.955c1.315,0.471,2.265,0.532,3.197,0.562c0.466,0.014,1.112-0.041,1.813-0.124
					c0.705-0.083,1.467-0.195,2.186-0.252c1.445-0.116,1.135,0.554,0.429,0.826c-0.701,0.276-2.012,0.588-2.626,0.606
					c-0.306,0.014-1.254,0.048-2.186,0.004c-0.936-0.036-1.85-0.156-2.095-0.195c-0.241-0.034-0.948-0.09-1.684-0.21
					c-0.733-0.113-1.493-0.296-1.846-0.416c-0.352-0.121-0.784-0.392-1.24-0.613l-0.215-0.105c-0.075-0.042-0.146-0.089-0.213-0.138
					c-0.138-0.099-0.261-0.207-0.379-0.319c-0.235-0.226-0.45-0.469-0.677-0.753c-0.229-0.286-0.316-0.604-0.316-0.833
					c0-0.235,0.077-0.399,0.182-0.505c0.215-0.207,0.549-0.224,0.966-0.177c0.207,0.024,0.403,0.124,0.537,0.223
					c0.138,0.101,0.235,0.221,0.308,0.336c0.071,0.113,0.123,0.216,0.164,0.293C374.059,216.122,374.09,216.166,374.078,216.186z"/>
				<path style="fill:#231815;" d="M386.518,210.878c0.898,0.246,2.02,0.377,3.173,0.35c1.155-0.022,2.328-0.208,3.375-0.452
					c1.049-0.243,1.791-0.462,2.249-0.561c0.458-0.107,0.632-0.095,0.482-0.013c-0.146,0.082-0.32,0.291-0.667,0.566
					c-0.344,0.27-0.869,0.61-1.708,0.854c-1.674,0.485-3.071,0.627-3.892,0.72c-0.411,0.045-0.531,0.012-0.849-0.045
					c-0.316-0.068-0.841-0.133-2.036-0.36c-1.195-0.237-1.846-0.594-2.113-0.822c-0.27-0.236-0.162-0.36,0.172-0.303
					c0.336,0.053,0.792,0.08,1.161,0.082C386.234,210.896,386.518,210.878,386.518,210.878z"/>
				<path style="fill:#231815;" d="M392.628,202.115c0.719,0.196,1.651,0.194,2.598,0.038c0.946-0.151,1.909-0.441,2.796-0.696
					c0.885-0.258,1.536-0.406,1.937-0.456c0.401-0.053,0.553-0.011,0.422,0.048c-0.259,0.109-0.602,0.742-1.967,1.239
					c-1.361,0.486-2.494,0.808-3.175,0.989c-0.343,0.091-0.448,0.073-0.725,0.052l-0.598-0.045c-0.278-0.02-0.655-0.044-1.177-0.121
					c-1.056-0.167-1.601-0.571-1.793-0.806c-0.193-0.248-0.073-0.357,0.199-0.286c0.274,0.07,0.652,0.1,0.956,0.089
					C392.401,202.153,392.628,202.115,392.628,202.115z"/>
				<path style="fill:#231815;" d="M396.208,194.362c0.96-0.006,2.113-0.15,3.242-0.471c1.133-0.313,2.217-0.821,3.13-1.405
					c0.914-0.583,1.524-1.076,1.917-1.35c0.389-0.28,0.553-0.338,0.446-0.202c-0.105,0.136-0.188,0.401-0.413,0.79
					c-0.227,0.385-0.6,0.912-1.329,1.441c-1.467,1.049-2.844,1.543-3.631,1.847c-0.399,0.148-0.525,0.144-0.853,0.169
					c-0.33,0.018-0.865,0.076-2.097,0.169c-1.232,0.085-1.961-0.053-2.294-0.186c-0.334-0.138-0.273-0.29,0.071-0.343
					C395.09,194.722,396.212,194.367,396.208,194.362z"/>
				<path style="fill:#231815;" d="M374.108,143.764c0.381-0.381,1.141-0.381,1.524-0.763c1.523,2.286,2.285-3.047,4.952-1.143
					c0.762-1.143,2.285-1.905,3.43-0.762c0.381,1.905,5.713,3.049,4.952-0.381c-0.379-0.762-2.666-3.047-3.428-4.192
					c-0.762-1.141-1.524-3.049-1.524-4.571c-3.049,0-8.765,6.857-8.765,9.905L374.108,143.764z"/>
				<path style="fill:#231815;" d="M414.072,142.475c-0.9,0-1.347-0.449-2.245-0.449c0.446,0,1.345,0,1.795,0
					c0,3.143,2.249,4.941,4.941,3.143v-0.448c0,0,0.898-0.448,0.898-0.898c0,0,0.45,1.345,0.45,1.796c0.9,0,2.697,0,3.145,0.449
					c0.901,0.898,0.901,4.492,1.349,4.941c2.695,1.347,2.695-6.736,2.247-8.086c-1.349-3.145-4.044-1.348-7.638-1.797
					c-1.347,0-5.391-0.45-5.391,0L414.072,142.475z"/>
				<path style="fill:#231815;" d="M358.321,212.331c-0.519,0.01-1.151,0.074-1.817,0.087c-0.662,0.006-1.382-0.031-2.008-0.316
					c-0.31-0.142-0.547-0.342-0.697-0.539c-0.148-0.201-0.213-0.387-0.241-0.522c-0.049-0.277,0-0.361,0.02-0.271
					c0.024,0.09,0.113,0.214,0.271,0.373c0.158,0.159,0.385,0.341,0.77,0.516c0.391,0.172,0.798,0.22,1.133,0.237
					c0.342,0.012,0.628-0.012,0.837-0.036c0.419-0.062,0.235,0.063,1.513-0.021c0.638-0.048,1.033-0.003,1.214,0.065
					c0.178,0.069,0.146,0.145-0.036,0.171C358.919,212.132,358.323,212.331,358.321,212.331z"/>
				<path style="fill:#231815;" d="M353.765,229.697c-1.742,2.468-3.308,4.432-5.187,6.395c-0.942,0.977-1.965,1.951-3.189,2.891
					c-0.612,0.466-1.274,0.923-2.012,1.339c-0.377,0.211-0.737,0.399-1.179,0.592l-0.263,0.109
					c-0.087,0.038-0.186,0.061-0.235,0.154l-0.306,0.383c-0.136,0.162-0.287,0.322-0.454,0.476
					c-1.364,1.233-2.873,1.795-4.056,2.228c-1.215,0.416-2.22,0.653-3.136,0.846c-1.84,0.374-3.335,0.562-5.823,0.958
					c-2.494,0.387-3.501,0.527-4.759,0.679c-1.26,0.166-2.774,0.259-6.335,0.812c-1.779,0.296-2.674,0.519-3.09,0.619
					c-0.415,0.104-0.348,0.098-0.217,0.08c0.132-0.02,0.328-0.044,0.178,0.024c-0.15,0.077-0.65,0.216-1.898,0.676
					c-1.246,0.47-2.279,1.046-3.061,1.686c-0.788,0.636-1.307,1.337-1.592,1.937c-0.555,1.234-0.357,1.856-0.391,1.842
					c0.375-0.881,1.015-1.546,1.722-1.985c0.709-0.445,1.483-0.707,2.269-0.892c1.493-0.861,3.233-1.44,4.986-1.925
					c1.763-0.482,3.57-0.861,5.385-1.212l5.523-0.681c3.019-0.363,6.56-0.904,8.566-1.444c1.001-0.259,2.131-0.565,3.302-0.992
					c1.163-0.432,2.383-0.977,3.473-1.821c0.27-0.213,0.531-0.444,0.776-0.697c0.237-0.229,0-0.049,0.326-0.194
					c0.586-0.222,1.133-0.481,1.635-0.75c1.009-0.54,1.838-1.127,2.462-1.628c1.264-0.998,2.857-2.782,4.36-4.877
					c1.518-2.089,2.992-4.472,4.435-6.554C358.874,224.629,357.233,224.714,353.765,229.697z"/>
				<path style="fill:#231815;" d="M309.07,260.92c0.731,1.199,1.497,2.14,2.541,2.953c1.043,0.786,2.413,1.471,4.307,1.588
					c1.884,0.076,2.897-0.139,3.756-0.259c0.851-0.151,1.554-0.277,2.608-0.776c1.039-0.528,1.412-0.813,1.908-1.124
					c0.474-0.336,1.114-0.669,2.3-1.863c0.581-0.608,0.829-0.957,0.948-1.112c0.115-0.16,0.091-0.14,0.043-0.099
					c-0.11,0.077-0.266,0.255,0.302-0.79c0.545-1.064,0.636-1.918,0.628-2.456c-0.01-0.543-0.125-0.796-0.125-0.796
					c-0.584,0.633-1.218,1.184-1.874,1.637c-0.476,1.406-1.256,2.725-2.308,3.825c0.002-0.002-0.808,0.665-1.917,1.192
					c-1.1,0.554-2.482,0.878-3.266,0.993c-0.79,0.135-1.801,0.096-2.701-0.116c-0.909-0.203-1.69-0.565-2.196-0.804
					c-0.512-0.232-1.331-0.509-2.162-1.063c-0.829-0.54-1.637-1.38-2.081-2.315c-0.43-0.927-0.833-1.248-1.096-0.991
					C308.444,258.786,308.349,259.691,309.07,260.92z"/>
				<path style="fill:#231815;" d="M370.907,242.152c-1.886,2.192-4.099,4.113-6.571,5.672c0-0.003-1.753,0.959-3.991,1.782
					c-2.229,0.847-4.94,1.511-6.496,1.862c-3.106,0.755-7.94,1.082-10.357,1.426c-1.208,0.187-3.027,0.59-5.031,1.143
					c1.69,0.111,3.343,0.482,4.719,0.993l0.008,0.004c1.572-0.229,3.321-0.506,5.399-0.933l6.496-1.401
					c1.497-0.343,2.713-0.595,4.656-1.304c1.933-0.734,2.674-1.111,3.62-1.534c0.936-0.453,2.109-0.903,4.591-2.489
					c1.226-0.812,1.803-1.279,2.071-1.489c0.269-0.213,0.221-0.188,0.13-0.132c-0.195,0.097-0.531,0.346,0.997-1.089
					c1.503-1.466,2.302-2.716,2.753-3.541c0.446-0.834,0.549-1.263,0.549-1.261C373.3,240.713,372.115,241.481,370.907,242.152z"/>
				<path style="fill:#231815;" d="M376.772,238.824c0.644,0.319,1.116,0.693,1.631,1.078c0.517,0.39,1.066,0.779,1.878,1.267
					c0.815,0.498,1.159,0.932,1.402,1.305c0.243,0.379,0.377,0.723,0.719,1.217c0.667,1.006,0.543,0.802,1.088,2.471
					c0.535,1.688,0.002-0.002,0.62,1.07c0.616,1.08,1.536,1.136,1.536,1.136l0.723-1.851c-0.567-0.733-1.137-1.471-1.73-2.197
					c0.02,0.004-1.013-2.379-1.753-3.195c-0.65-0.826-1.613-2.231-2.306-2.71c-0.681-0.525-2.445-0.685-3.592-1.196
					C375.808,236.694,375.486,238.217,376.772,238.824z"/>
				<path style="fill:#231815;" d="M377.603,280.874c0.377-0.396,0.719-0.837,1.025-1.303c0.039-0.05,0.124-0.21,0.197-0.287
					l0.16-0.192l0.292-0.349l0.567-0.691c0.737-0.92,1.41-1.842,1.953-2.76c1.116-1.846,1.544-3.59,1.728-5.118
					c0.091-0.77,0.209-1.156,0.452-1.242c0.225-0.084,0.559,0.136,0.863,0.592c0.31,0.453,0.578,1.152,0.671,1.914
					c0.101,0.758,0.016,1.56-0.187,2.146c-0.387,1.185-1.21,2.686-2.223,4.07c-0.504,0.698-1.041,1.381-1.556,2.036l-0.743,0.965
					c-0.059,0.081-0.014,0.012-0.075,0.113l-0.158,0.277l-0.328,0.535c-0.425,0.687-1.592,2.427-3.558,4.133
					c-1.947,1.726-4.48,3.319-6.568,5.262c-2.119,1.921-3.829,4.218-5.025,6.198c-1.189,1.959-1.856,3.582-2.105,4.163
					c-0.241,0.585-0.922,2.171-1.582,4.395c-0.669,2.216-1.291,5.073-1.659,8.045c-0.381,2.98-0.519,6.026-0.492,8.691
					c-0.033,1.421-0.154,2.605-0.195,3.633c-0.051,1.018-0.049,1.842,0,2.416c0.091,1.143,0.126,2.05,0.166,2.607
					c0.02,0.281,0.028,0.443,0.004,0.558c-0.03,0.112-0.022,0.253,0.085,0.386c0.215,0.258,0.508,0.451,0.48,0.692
					c-0.012,0.116-0.087,0.241-0.273,0.341c-0.181,0.093-0.509,0.167-0.924,0.01c-0.417-0.148-0.847-0.599-1.068-1.109
					c-0.237-0.516-0.361-1.097-0.436-1.711c-0.146-1.232-0.097-2.609-0.014-3.941c0.085-1.327,0.211-2.615,0.249-3.611l0.022-2.151
					c0.014-0.664,0.318-4.552,1.11-8.572c0.385-2.01,0.896-4.047,1.394-5.752c0.5-1.705,0.979-3.081,1.189-3.825
					c0.405-1.487,1.548-4.279,3.248-6.81c1.645-2.564,3.823-4.799,5.156-5.95c1.28-1.193,3.266-3.027,4.923-4.745
					C376.041,283.216,377.058,281.477,377.603,280.874z"/>
				<path style="fill:#231815;" d="M403.332,298.581c1.578-1.983,3.207-3.112,4.467-3.57c1.272-0.461,2.065-0.332,2.332-0.174
					c0.279,0.164,0.103,0.377-0.32,0.596c-0.43,0.223-1.106,0.499-1.953,0.934c-1.71,0.881-3.086,2.418-4.21,3.939
					c-1.129,1.539-2.044,3.118-2.887,4.505c-1.678,2.783-3.181,5.694-4.889,8.518c-0.849,1.412-2.239,3.488-3.272,4.666
					c-0.51,0.592-0.918,0.96-1.041,0.979c-0.126,0.016,0.045-0.3,0.571-1.166c2.038-3.532,2.401-5.192,4.765-9.53
					c1.177-2.177,2.654-4.68,3.977-6.561C402.179,299.827,403.332,298.58,403.332,298.581z"/>
				<path style="fill:#231815;" d="M390,310.735c2.065-2.334,3.471-2.94,3.951-2.835c0.492,0.115,0.152,0.886-0.829,1.66
					c-1.987,1.567-3.477,3.663-4.771,5.193c-1.303,1.538-2.522,3.134-3.736,4.733c-0.612,0.796-1.517,2.003-2.06,2.804
					c-0.535,0.799-0.871,1.13-0.482-0.13c0.435-1.236,0.786-2.091,1.203-2.981c0.428-0.886,0.936-1.811,1.87-3.059
					C386.996,313.594,389.99,310.722,390,310.735z"/>
				<path style="fill:#231815;" d="M376.059,321.779c0.861-1.171,1.667-1.861,2.273-2.263c0.612-0.397,1.039-0.508,1.277-0.458
					c0.476,0.112,0.207,0.863-0.673,1.581c-1.797,1.447-2.917,3.464-3.615,5.044c-0.737,1.589-1.11,3.324-1.444,5.119
					c-0.371,1.775-0.981,5.53-1.145,3.19c-0.069-1.174-0.154-2.003-0.185-2.9c-0.024-0.897-0.018-1.874,0.316-3.304
					c0.322-1.439,1.039-3.048,1.787-4.171C375.389,322.482,376.063,321.784,376.059,321.779z"/>
				<path style="fill:#231815;" d="M359.134,368.939c-1.686,0.08-3.122-0.066-4.743-0.085c-0.809-0.01-1.669,0.01-2.63,0.128
					c-0.48,0.059-0.982,0.144-1.513,0.27c-0.19,0.04-0.109,0.04-0.235,0.052c-0.162,0.011-0.312,0.033-0.462,0.057
					c-0.304,0.048-0.598,0.117-0.896,0.191c-2.326,0.67-3.521,1.084-4.593,1.31l-3.282,0.7c-1.374,0.303-1.921,0.371-2.591,0.385
					c-0.332,0.005-0.701-0.01-1.155-0.097c-0.223-0.044-0.472-0.111-0.671-0.221c-0.101-0.045-0.217-0.13-0.294-0.199
					c-0.081-0.081-0.093-0.12-0.101-0.17c-0.01-0.113,0.036-0.138,0.069-0.205c0.04-0.089,0.087-0.178,0.117-0.233
					c0.067-0.113,0.049-0.099,0.012-0.071l-0.103,0.012c-0.004-0.057,0.01-0.231,0.336-0.687c0.699-0.907,1.372-1.578,1.759-2.059
					c0.405-0.473,0.579-0.762,0.575-0.765c-1.05-0.046-2.168,0.074-3.308,0.447c-0.407,0.441-0.786,0.918-1.096,1.477
					c-0.298,0.565-0.573,1.189-0.531,2.031c0.028,0.826,0.616,1.577,1.262,1.901c0.608,0.332,1.276,0.434,1.858,0.443
					c0.004,0.034,1.604,0.177,3.371-0.111c1.779-0.248,3.766-0.728,4.877-1.032c1.11-0.305,2.528-0.612,3.799-0.754
					c0.312-0.031,0.62-0.057,0.883-0.054l0.193,0.003c0.04,0.002,0.032,0.006,0.113,0.004c0.081-0.002,0.16,0.006,0.235-0.004
					l0.31-0.042l0.209-0.024l1.463-0.122c0.806-0.077,2.042-0.307,3.485-0.495c1.441-0.194,3.059-0.378,4.538-0.524
					c1.493-0.156,1.994-0.7,1.702-1.023C361.798,369.032,360.803,368.855,359.134,368.939z"/>
				<path style="fill:#231815;" d="M357.912,335.619c-0.136,1.784-0.154,3.266-0.079,4.887c0.081,1.62,0.284,3.375,0.737,5.665
					c0.908,4.573,0.77,5.177,1.019,8.035c0.095,1.426,0.087-4.192,0.042-3.489c-0.028,0.352-0.069,0.737-0.162,1.265
					c-0.097,0.525-0.233,1.208-0.588,2.051c-0.365,0.831-0.652,1.143-0.77,1.301c-0.122,0.152-0.099,0.132-0.048,0.093
					c0.048-0.038,0.12-0.101,0.091-0.026c-0.034,0.067-0.14,0.302-0.581,0.719c-0.902,0.808-1.771,1.168-2.324,1.447
					c-0.563,0.263-0.839,0.411-0.837,0.417c0.973,0.209,2.028,0.296,3.146,0.051c1.023-0.632,1.834-1.604,2.3-2.667
					c0.474-1.065,0.669-2.185,0.746-3.279c0,0,0.233-1.491,0.194-3.27c-0.02-1.779-0.223,2.361-0.381,1.204
					c-0.32-2.317-0.587-5.789-0.756-7.496c-0.188-1.694-1.011-5.111-0.602-7.955c0.203-1.398,0.144-2.004-0.17-1.862
					C358.597,332.853,358.062,333.827,357.912,335.619z"/>
				<path style="fill:#231815;" d="M377.707,254.051l-62.461,0.016l-3.258-0.006c-0.13,0.125-0.292,0.229-0.492,0.302
					c-0.27,0.098-0.531,0.215-0.788,0.344c2.275-0.007,4.332-0.005,6.007,0.011l60.964,0.077
					C377.625,254.548,377.633,254.289,377.707,254.051z"/>
				<path style="fill:#231815;" d="M500.723,253.889c-6.759,0.136-53.001,0.116-84.038,0.152l-14.579,0.004
					c-0.063,0.3-0.255,0.579-0.61,0.775l15.189,0.018c32.741,0.046,80.397,0.212,84.769,0.258
					C510.276,255.188,514.689,253.61,500.723,253.889z"/>
				<path style="fill:#231815;" d="M304.844,254.569c0.203-0.19,0.417-0.354,0.632-0.521l-1.783-0.002
					c-10.685-0.04-25.787-0.146-31.209-0.35c-7.351-0.278-18.374-0.187-17.639,0.928c0.6,0.911,11.757,0.928,16.901,0.649
					c3.371-0.182,20.218-0.404,30.688-0.51c0.76-0.008,1.511-0.014,2.257-0.022L304.844,254.569z"/>
				<path style="fill:#231815;" d="M308.957,258.145c-16.443-0.082-16.701-0.184-31.784-0.238
					c-24.533-0.09-33.614,1.744,2.455,1.971c17.452,0.111,15.637-0.042,30.079-0.231
					C309.354,259.233,309.091,258.731,308.957,258.145z"/>
				<path style="fill:#231815;" d="M381.351,258.233c-4.324,0.002-9.06,0.01-14.308,0.022c-14.109,0.033-27.587,0.012-40.557-0.034
					c0.132,0.399,0.087,0.861-0.132,1.214c11.536-0.138,24.475-0.251,40.689-0.251c4.784,0,9.531,0.004,14.239,0.011
					C381.197,258.871,381.222,258.524,381.351,258.233z"/>
				<path style="fill:#231815;" d="M455.172,258.023c-25.891,0.352-35.018,0.238-59.047,0.212c0.253,0.273,0.397,0.638,0.407,0.991
					c35.162,0.096,67.358,0.329,92.924,0.421C521.266,259.763,519.207,257.157,455.172,258.023z"/>
				<path style="fill:#231815;" d="M333.405,368.931c-0.31-0.283-0.285-0.5-0.225-0.662c0.065-0.185,0.219-0.511,0.579-1.053
					c0.377-0.544,0.74-0.749,1.029-0.872c0.302-0.122,0.565-0.167,0.956-0.337c0.788-0.305,0.656-0.289,1.856-0.254
					c1.163,0.126,0-0.015,0.794-0.126c0.76-0.073,1.118-0.636,1.135-0.645c-0.231-0.457-0.549-0.897-0.916-1.307
					c-0.754,0.147-1.447,0.394-2.099,0.693c0,0.001-0.491,0.052-1.066,0.195c-0.579,0.139-1.242,0.388-1.592,0.602
					c-0.346,0.209-0.815,0.427-1.262,0.719c-0.444,0.284-0.867,0.669-1.072,1.037c-0.105,0.18-0.19,0.448-0.217,0.784
					c-0.024,0.334,0.022,0.752,0.195,1.107c0.355,0.757,0.991,1.065,1.412,1.356c0.452,0.288,0.77,0.06,0.845-0.255
					C333.843,369.59,333.707,369.184,333.405,368.931z"/>
				<path style="fill:#231815;" d="M333.731,363.874c0.739-0.69,1.588-1.062,2.5-1.441l3.359-1.309
					c1.41-0.548,2.255-0.716,2.954-0.82c0.705-0.099,1.28-0.124,2.212-0.278c1.874-0.284,1.503-0.245,4.176-0.241
					c2.674,0.04-0.002-0.006,1.888-0.197c1.888-0.176,2.603-0.867,2.603-0.869l-2.018-1.122c-1.4,0.232-2.796,0.487-4.184,0.773
					c0.004-0.019-3.868,0.206-5.399,0.564c-1.52,0.299-3.886,0.61-5.029,1.055c-1.128,0.435-3.211,1.889-4.524,3.587
					c-0.33,0.435-0.419,0.839-0.389,1.082c0.036,0.251,0.172,0.349,0.35,0.332C332.597,364.938,333.022,364.551,333.731,363.874z"/>
				<path style="fill:#231815;" d="M372.034,340.635c-0.539,2.133-0.849,3.928-1.058,5.9c-0.203,1.973-0.257,4.127-0.095,6.961
					c0.166,2.832,0.128-1.775,0.014-0.465c-0.118,1.308-0.274,2.345-0.501,4.052c-0.251,1.701-0.429,2.359-0.693,3.162
					c-0.138,0.398-0.304,0.832-0.582,1.412c-0.282,0.576-0.667,1.313-1.339,2.2c-0.685,0.875-1.108,1.213-1.287,1.39
					c-0.184,0.17-0.154,0.148-0.079,0.11c0.069-0.038,0.174-0.098,0.13-0.007c-0.047,0.088-0.233,0.345-0.833,0.849
					c-1.214,0.985-2.176,1.601-2.796,2.067c-0.626,0.452-0.91,0.729-0.906,0.732c1.244,0.145,2.557,0.147,3.918-0.105
					c1.161-0.807,2.184-1.816,2.987-2.962c0.802-1.144,1.392-2.404,1.807-3.688c0.002,0.006,0.766-1.693,1.222-3.841
					c0.484-2.139,0.719-4.662,0.77-6.09c0.109-2.867,0.476-0.918,0.573-2.995c0.038-1.042-0.085-2.608-0.077-4.342
					c0.002-1.728,0.162-3.643,0.701-5.272c0.547-1.606,0.563-2.366,0.087-2.306C373.551,337.463,372.591,338.486,372.034,340.635z"
					/>
				<path style="fill:#231815;" d="M247.426,252.651c-1.297-0.393-2.265-1.094-3.396-1.807c-0.567-0.361-1.179-0.742-1.931-1.085
					c-0.748-0.333-1.667-0.648-2.766-0.625c-3.943,0.258-4.405,0.042-6.854,0.111c-2.437,0.097-1.947,0.065-5.375,0
					c-3.428-0.034,0-0.002-2.435,0.162c-2.437,0.178-3.363,0.779-3.363,0.777l2.502,0.835c1.769-0.218,3.539-0.418,5.312-0.597
					l6.797,0.018c0.96-0.014,2.2,0.034,3.313,0.105c0.96,0.081,1.829,0.537,2.429,0.837c0.602,0.294,1.568,0.751,2.711,1.275
					c1.137,0.521,2.482,1.031,3.777,1.203c0.65,0.091,1.114-0.006,1.368-0.122c0.251-0.12,0.308-0.253,0.203-0.374
					C249.497,253.113,248.698,253.023,247.426,252.651z"/>
				<path style="fill:#231815;" d="M245.234,260.363c-1.116,0.351-2.099,0.795-3.009,1.323c-0.454,0.265-0.889,0.554-1.309,0.867
					c-0.209,0.157-0.415,0.321-0.616,0.493l-0.261,0.231l-0.101,0.081l-0.13-0.014l-0.354-0.03l-0.804-0.057l-1.71-0.093
					c-1.191-0.048-2.502-0.073-3.999-0.057c-5.983,0.085-6.716-0.161-10.44-0.296c-1.586-0.059-2.362-0.096-3.13-0.152l0.399,1.035
					c0.19-0.168,0.284-0.531,0.213-0.756c-0.053-0.196-0.136-0.32-0.2-0.405c-0.138-0.179-0.264-0.292-0.395-0.403
					c-0.263-0.223-0.541-0.413-0.877-0.634c-0.673-0.434-1.564-0.945-2.903-1.646c-4.694-2.384,0-0.015-3.428-1.523
					c-3.396-1.462-5.081-1.675-4.587-1.637l-0.099,0.036l0.01,0.089l0.111,0.146c0.105,0.112,0.221,0.221,0.343,0.328
					c0.239,0.215,0.486,0.423,0.733,0.63l1.503,1.229c2.537,1.021,5.108,1.981,7.515,3.182l0.47,0.298
					c0.144,0.097,0.322,0.217,0.49,0.359c0.083,0.069,0.168,0.148,0.221,0.213l0.022,0.036l0.022-0.006l0.13-0.063
					c0.174-0.071,0.202,0.015,0.109-0.073l0.786,0.733l-0.64-0.053c2.429,0.2,6.384,0.434,8.364,0.478
					c2.99,0.065,7.439,0.45,9.66,0.588c0.555,0.03,1.252,0.039,2.042,0.043l0.3,0.002l0.561,0.019
					c0.091-0.003,0.193,0.019,0.276-0.005l0.202-0.209l0.373-0.387c0.278-0.3,0.588-0.598,0.924-0.884
					c1.329-1.163,3.143-2.1,4.921-2.421c1.763-0.301,2.512-0.444,2.235-0.728C248.913,260.04,247.499,259.681,245.234,260.363z"/>
				<path style="fill:#231815;" d="M213.924,258.326c2.504-0.006,4.17,0.211,7.486-0.136c3.315-0.353,3.736-0.111,5.811-0.178
					c2.075-0.067,1.659-0.055,4.571,0.111c2.91,0.167,0.002-0.001,2.073-0.064c2.068-0.061,2.877-0.576,2.877-0.576
					c-0.685-0.34-1.39-0.666-2.091-0.991l-4.559,0.396c0,0-4.157-0.12-5.815-0.07c-1.659,0.053-4.154-0.136-5.395-0.107
					c-1.24,0.026-3.718,0.604-5.78,0.579c-1.025-0.013-1.436,0.199-1.307,0.469C211.928,258.03,212.671,258.328,213.924,258.326z"/>
				<path style="fill:#231815;" d="M240.404,251.809c-0.802,0.46-1.398,0.893-2.016,1.383c-0.306,0.247-0.61,0.514-0.932,0.815
					l-0.498,0.474l-0.267,0.256c-0.138,0.123-0.294,0.252-0.472,0.39l-0.577,0.413c0.113,1.111,1.143,1.732,1.449,1.976
					c0.409,0.296,0.786,0.532,1.303,0.828c0.591,0.359,0.818,0.499,1.074,0.717c0.255,0.222,0.553,0.5,1.193,1.207
					c1.248,1.451,0.004-0.012,1.011,0.908c0.991,0.946,1.749,0.998,1.749,0.993l-0.278-1.722c-0.808-0.665-1.649-1.311-2.545-1.878
					c0.002,0.004-0.533-0.5-1.246-0.995c-0.705-0.525-1.633-1.023-1.894-1.254c-0.095-0.071-0.243-0.261-0.087-0.328
					c0.17-0.074,0.077,0.059,0.531-0.265c0.324-0.225,0.596-0.434,0.79-0.606c0.644-0.547,1.477-2.127,2.672-2.634
					c0.561-0.224,0.792-0.458,0.667-0.713C241.911,251.529,241.239,251.344,240.404,251.809z"/>
				<path style="fill:#231815;" d="M254.28,253.708c-0.891-0.004-1.842-0.193-2.296-0.496c-0.442-0.318-1.218-0.236-1.157,0.881
					c0.045,0.909,0.667,0.94,1.009,0.689c0.328-0.26,1.882-0.497,2.537-0.425c0.659,0.089,1.347,0.118,1.971,0.008
					c0.687-0.164,0.101-1.633-0.407-1.137C255.291,253.684,255.101,253.684,254.28,253.708z"/>
				<path style="fill:#231815;" d="M257.157,257.793c-0.199-0.804-0.172-1.655,0.144-1.985c0.286-0.327,0.32-0.773-0.754-1.078
					c-0.883-0.242-1.098,0.57-0.816,0.933c0.124,0.182,0.271,0.658,0.446,1.119c0.166,0.466,0.342,0.936,0.363,1.236
					c0.045,0.602,0.099,1.191,0.095,1.686c-0.014,0.472,1.597,0.539,1.177-0.266C257.378,258.674,257.329,258.566,257.157,257.793z"
					/>
				<path style="fill:#231815;" d="M253.249,259.977c0.914,0,1.87,0.091,2.326,0.371c0.456,0.278,1.139,0.185,1.094-0.928
					c-0.036-0.912-0.729-0.928-1.049-0.65c-0.318,0.278-1.823,0.65-2.46,0.557l-1.823-0.279c-0.547-0.092-0.82,1.485,0.045,1.207
					C252.248,259.977,252.386,259.977,253.249,259.977z"/>
				<path style="fill:#231815;" d="M250.477,259.207c0.154-0.6,0.519-1.013,0.284-1.915c-0.284-0.857-0.077-0.979-0.191-1.515
					c-0.132-0.507-0.118-0.427-0.065-1.144c0.091-0.655-0.008-0.008-0.105-0.416c-0.075-0.365-0.57-0.502-0.576-0.517
					c-0.342,0.146-0.671,0.355-0.979,0.604c0.152,0.415,0.355,0.756,0.543,1.076l0.047,1.308c0.053,0.352-0.217,0.854-0.249,1.095
					c-0.018,0.233,0.389,0.864,0.247,1.333C249.29,259.56,250.295,259.828,250.477,259.207z"/>
				<path style="fill:#231815;" d="M303.075,254.79l-0.444,0.669l-0.19,0.294l-0.049,0.053l-0.109,0.113
					c-0.16,0.164-0.332,0.336-0.509,0.54c-0.079,0.088-0.189,0.224-0.302,0.395c-0.109,0.161-0.2,0.333-0.273,0.516
					c-0.314,0.717-0.083,1.657,0.656,2.189c0.349,0.256,0.887,0.379,1.327,0.404c0.375,0.016,0.737-0.018,1.094-0.07l0.474-0.066
					c0.168-0.016,0.351-0.037,0.509-0.065c0.32-0.058,0.596-0.134,0.839-0.213c0.486-0.162,0.849-0.326,1.173-0.48
					c0.642-0.316,1.157-0.592,1.844-1.21c0.673-0.625,0.904-0.895,1.24-1.193c0.158-0.149,0.322-0.266,0.583-0.448
					c0.261-0.183,0.604-0.405,1.09-0.656c0.975-0.462,0.985-0.394,0.898-0.415c-0.081,0.006-0.266-0.014,0.423-0.334
					c1.39-0.563,2.002-1.21,1.989-1.239c-0.63-0.323-1.301-0.608-2.042-0.809c-1.307,0.54-2.447,1.432-3.335,2.418
					c0-0.003-0.18,0.138-0.468,0.384c-0.272,0.25-0.606,0.556-0.995,0.882c-0.766,0.661-1.708,1.244-2.241,1.468
					c-0.267,0.125-0.577,0.214-0.896,0.246c-0.158,0.014-0.32,0.014-0.476,0.003l-0.622-0.044c-0.205-0.013-0.389-0.029-0.553-0.052
					c-0.144-0.02-0.356-0.056-0.377-0.077l-0.057-0.075l-0.132-0.057l-0.065-0.122l-0.004-0.098
					c0.032-0.078,0.073-0.161,0.117-0.248c0.093-0.176,0.209-0.365,0.336-0.571c0.087-0.108,0.201-0.336,0.225-0.413l0.128-0.313
					c0.178-0.406,0.383-0.791,0.634-1.067c0.257-0.278,0.349-0.415,0.44-0.569c0.085-0.146,0.138-0.288,0.036-0.448
					c-0.091-0.154-0.377-0.294-0.794-0.154C303.803,253.989,303.398,254.32,303.075,254.79z"/>
				<path style="fill:#231815;" d="M320.258,255.702c0.428-0.216,0.849-0.271,1.291-0.342c0.448-0.067,0.922-0.152,1.584-0.337
					c0.665-0.175,1.06-0.116,1.353-0.027c0.294,0.096,0.505,0.227,0.815,0.372c0.298,0.155,0.383,0.245,0.464,0.382
					c0.077,0.148,0.134,0.308,0.195,0.847c0.057,0.567,0.057,0.606,0.079,0.54c0.024-0.05,0.065-0.175,0.223,0.26
					c0.16,0.448,0.456,0.734,0.699,0.87c0.243,0.138,0.436,0.145,0.434,0.147c0.223-0.495,0.504-0.928,0.802-1.345
					c-0.328-0.535-0.612-1.228-1.155-1.847c0,0.013-0.225-0.542-0.804-0.988c-0.563-0.455-1.319-0.685-1.72-0.742
					c-0.811-0.142-2.059-0.397-2.691-0.281c-0.65,0.097-1.673,1.013-2.508,1.543c-0.444,0.275-0.387,0.671-0.13,0.869
					C319.452,255.831,319.843,255.915,320.258,255.702z"/>
				<path style="fill:#231815;" d="M365.814,228.551c0.245,0.524,0.431,0.979,0.723,1.432c0.29,0.447,0.685,0.9,1.357,1.275
					c0.673,0.368,1.009,0.588,1.276,0.814c0.265,0.221,0.46,0.436,0.865,0.656c0.82,0.417,0.634,0.35,1.714,1.137
					c1.114,0.745-0.002,0.008,0.873,0.308c0.887,0.284,1.4-0.272,1.398-0.267c-0.184-0.49-0.349-0.979-0.486-1.469
					c-0.614-0.074-1.224-0.18-1.834-0.328c-0.018,0.015-1.369-0.995-1.866-1.382c-0.551-0.361-1.035-1.224-1.311-1.553
					c-0.146-0.166-0.482-0.314-0.829-0.544c-0.344-0.227-0.695-0.545-0.845-0.918c-0.144-0.363-0.49-0.432-0.782-0.278
					C365.783,227.587,365.564,228.016,365.814,228.551z"/>
				<path style="fill:#231815;" d="M218.654,252.518c-1.953,0.917-4.621,2.392-6.951,3.397c-2.326,1.006-3.383,1.135-3.037,0.977
					c0.345-0.159,0.902-0.764,2.618-1.57c1.718-0.807,3.049-1.54,3.811-2c0.756-0.466,0.49-0.144,2.859-1.339
					c2.358-1.209,2.984-1.114,2.352-0.684C219.676,251.727,218.656,252.518,218.654,252.518z"/>
				<path style="fill:#231815;" d="M511.484,254.497c1.329,1.593-0.265,5.314-0.796,4.252c-0.533-1.064,0.796-3.454-2.125-3.72
					C506.702,254.764,508.562,254.231,511.484,254.497z"/>
			</g>
			<g>
				<path style="fill:#231815;" d="M398.617,164.558c-0.126,0.562-0.257,1.129-0.401,1.674c-0.199,0.77-0.616,2.247-1.159,3.566
					c-0.531,1.325-1.197,2.471-1.443,2.785c-0.634,0.877-1.572,2.153-1.084,2.42c0.42,0.233,1.463-1.163,1.712-1.931
					c0.093-0.243,0.721-1.45,1.216-2.847c0.51-1.392,0.893-2.955,1.057-3.722c0.178-0.809,0.336-1.574,0.466-2.09
					c0.045-0.195,0.213-0.878,0.422-1.93c0.123-1.03,0.46-2.365,1.041-3.747c0.574-1.386,1.372-2.816,2.19-4.158
					c0.827-1.34,1.601-2.633,2.387-3.581c1.554-1.862,2.658-2.741,3.262-3.361l1.098-1.072c0.934-0.964,0.76-1.955-0.517-0.333
					c-0.318,0.386-0.553,0.67-1.122,1.261c-0.549,0.61-1.542,1.435-3.031,3.257c-0.798,0.978-1.568,2.282-2.387,3.62
					c-0.812,1.348-1.617,2.797-2.203,4.219c-0.593,1.418-0.938,2.81-1.063,3.908L398.617,164.558z"/>
			</g>
		</g>
	</g>
	<g>
		<path style="fill:#34AD37;" d="M175.55,252.065c-0.798-1.594-4.384-1.993-5.58-2.391c-3.189-0.797-3.189-2.393-5.58-3.985
			c-6.775-4.384-16.342,1.592-23.514,2.789c-3.586,0.797-7.97,0.399-11.958,0.797c-3.586,0-7.97,0.399-11.556,0
			c-5.58-0.797-5.58-3.985-2.79-8.37c2.393-3.586,3.985-7.174,6.777-10.76c5.179-6.775,12.752-10.363,21.519-9.964
			c1.993,0,8.771,1.993,7.973-1.595l-0.399-0.397c-0.397-1.993-1.992-3.588-3.985-5.183c-2.79-2.391-5.58-3.985-8.767-6.376
			c-3.189-2.392-6.777-5.58-10.762-7.174c-3.985-1.993-9.565-2.79-12.754-5.979c-2.391-2.391-3.985-9.565-8.769-8.767
			c-4.382,0.397-7.569,7.971-10.359,10.361c-2.792,2.791-8.37,3.189-12.357,5.182c-1.595,0.797-3.983,0.797-5.977,1.992
			c-1.993,0.798-3.588,2.79-5.58,3.985c-4.384,2.391-8.481,5.942-12.865,8.732c-4.384,3.188-9.056,4.42-13.042,8.007
			c-6.376,5.978-13.151,13.152-16.34,21.521c-2.79,7.572-8.37,13.551-10.363,21.522c-0.533,1.867-1.058,4.445-1.232,6.903
			l-0.871,0.234c-2.79,8.369-1.195,23.116,0.796,25.507c1.993,2.391,1.594,3.985,1.594,3.985s-7.97,13.949-5.979,20.327
			c1.993,6.376,2.393,11.159,0.401,15.145c-1.994,3.985-6.777,8.369-9.567,11.956c-2.79,3.587-3.586,8.769-2.79,12.754
			c0.796,3.985-1.593,7.97,3.985,9.565c5.58,1.594,9.567,1.594,9.567,1.594s3.586,2.391,19.13,2.79
			c15.542,0.398,16.739,2.789,16.739,2.789s2.391-5.579-9.567-7.173c8.769,1.195,11.159,3.188,11.159,3.188s1.993-3.985-4.384-5.58
			c-6.376-1.594-9.166-0.398-15.542-2.391c-6.376-1.992-8.769-1.992-11.159-4.783c-2.391-2.791,0.399-6.776,3.985-11.559
			c3.586-4.782,5.58-10.76,5.58-10.76l5.977-12.355c0,0,15.147-9.167,17.937-13.55c2.79-4.384,6.775-5.581,6.775-5.581l9.166,1.595
			c0,0,0,11.158,10.363,17.136c10.361,5.979,15.145,10.761,15.145,10.761s5.979,14.746,7.97,19.927
			c1.992,5.18,1.595,8.369,5.58,11.159c3.985,2.79,10.361,1.992,10.361,1.992s6.378,1.993,9.565,1.197
			c3.189-0.798,9.565-2.791,10.762-2.393c1.195,0.399,5.181,0.797,5.181,0.797l-4.783-2.789c0,0,9.964,2.789-1.195-2.392
			c0,0,3.588-0.398,4.384-0.398c0.798,0-0.796-3.189-6.775-4.384c-5.979-1.197-8.369,0.399-13.151-2.391
			c-4.784-2.791-7.176-9.565-7.972-11.559c-0.796-1.991,4.781-7.573,2.79-12.355c-1.993-4.784-2.79-7.573-6.775-9.964
			c-3.985-2.391-10.363-11.956-13.949-15.543c-3.586-3.587-5.181-7.971-5.181-7.971s1.769-3.685,3.916-8.631
			c0.827-0.152,1.647-0.318,2.46-0.502c3.138-3.987,5.906-8.307,7.685-12.75c1.593-3.586,1.992-7.572,2.79-11.557
			c0.397-5.581,3.985-3.985,8.769-4.783c7.97-1.195,16.34-1.195,24.708-1.993c3.985,0,7.973-0.796,11.958,0
			c4.382,0.399,7.571,1.993,11.956-0.397C168.775,259.239,176.349,254.855,175.55,252.065z"/>
		<path style="fill:#FFFFFF;" d="M137.291,218.986c-5.58-0.399-21.523-1.195-27.501-2.392c-5.977-1.195-13.55,0.399-11.556,4.783
			c1.991,4.383-17.935,11.956-17.935,18.731c1.592,2.79,21.123,8.37,31.882,7.173c3.191-4.782,5.582-12.355,9.17-17.136
			c3.586-4.783,12.355-8.37,13.548-8.768C136.096,220.979,137.291,218.986,137.291,218.986z"/>
		<path style="fill:#FFFFFF;" d="M107.798,263.623c0,0-25.506-3.188-35.47-10.76c-15.544,7.972-15.503,20.517-11.159,30.289
			c6.376,14.347,22.319,18.732,21.124,24.312C89.065,307.463,114.573,276.775,107.798,263.623z"/>
		<path style="fill:#A8A9A9;" d="M156.307,254.819c-0.397-7.97,1.197-24.311,3.987-33.876c2.79-9.566,7.97-15.942,12.355-15.145
			c4.384,0.797,10.361,11.957,10.762,19.13c0.397,7.174,1.992,13.152,2.788,17.536c0.798,4.384,0,24.311,0,33.079
			c0,8.768-3.189,16.739-3.189,16.739s-7.97,15.145-11.956,15.941c-3.985,0.797-7.971-0.398-10.361-11.159
			C158.303,286.303,156.307,254.819,156.307,254.819z"/>
		<path style="fill:#C9CACA;" d="M160.898,255.028c-0.33-7.228,0.995-22.046,3.313-30.72c2.32-8.675,6.623-14.458,10.268-13.734
			c3.643,0.723,8.613,10.841,8.941,17.349c0.332,6.505,1.657,11.925,2.32,15.901c0.662,3.976,0,22.047,0,29.998
			c0,7.952-2.648,15.18-2.648,15.18s-6.625,13.733-9.94,14.457c-3.311,0.722-6.621-0.362-8.611-10.12
			C162.556,283.582,160.898,255.028,160.898,255.028z"/>
		<g>
			<g>
				<path style="fill:#231815;" d="M122.57,217.432c-0.774-0.058-1.558-0.094-2.324-0.119c-2.146-0.072-8.303-0.157-9.415,0.133
					c-1.507,0.398-3.74,0.126-3.487-1.72c0.204-1.508,2.441-1.421,3.458-0.913c0.659,0.338,7.156,0.98,9.261,1.292
					c1.11,0.157,2.16,0.267,2.879,0.267c0.533,0.02,3.882,0.163,7.979,0.764c2.026,0.395,4.176,0.932,6.242,1.416
					c1.031,0.24,2.04,0.462,2.996,0.639c0.48,0.087,0.946,0.165,1.394,0.234l0.661,0.091l0.668,0.124
					c3.201,0.662,4.972,0.225,5.807-0.278c0.843-0.517,0.993-0.89,1.185-1.186c0.336-0.602,1.072-0.972,1.667-0.915
					c0.292,0.039,0.537,0.216,0.589,0.594c0.049,0.367-0.093,0.978-0.727,1.635c-0.63,0.593-1.161,1.025-2.403,1.496
					c-1.236,0.451-3.254,0.665-6.382-0.044l-0.59-0.123l-0.673-0.106c-0.462-0.078-0.938-0.165-1.426-0.262
					c-0.977-0.194-2-0.433-3.033-0.686c-2.064-0.508-4.21-1.061-6.184-1.463C126.757,217.684,123.273,217.499,122.57,217.432z"/>
				<path style="fill:#231815;" d="M126.705,198.847c-5.253-3.215-7.782-4.374-8.712-4.222c-0.912,0.134-0.061,1.661,2.239,2.966
					c4.579,2.569,8.959,5.359,12.499,7.409c3.554,2.031,6.943,4.216,10.11,6.702c1.605,1.218,3.902,3.219,5.306,4.583
					c0.713,0.669,1.23,1.142,1.416,1.154c0.18,0.017,0.043-0.441-0.677-1.541c-1.463-2.184-2.591-3.675-3.916-5.174
					c-1.333-1.485-2.889-2.985-5.507-4.786c-2.624-1.803-5.855-3.547-8.39-4.854L126.705,198.847z"/>
				<path style="fill:#231815;" d="M110.936,190.883c0.827,2.407,1.738,4.276,2.84,5.316c1.094,1.066,2.105,1.153,2.46,0.963
					c0.383-0.191,0.292-0.574,0.059-0.98c-0.241-0.421-0.63-0.917-1.214-1.671c-1.179-1.546-1.795-3.653-2.571-5.609
					c-0.395-0.988-0.825-1.98-1.465-2.904c-0.626-0.914-1.564-1.785-2.703-2.168c-1.131-0.397-2.322-0.34-3.316-0.094
					c-1.011,0.247-1.891,0.649-2.721,1.111c-0.916,0.505-1.704,1.233-2.301,2.008c-0.606,0.777-1.053,1.604-1.434,2.422
					c-0.766,1.656-1.455,4.08-2.204,5.492c-0.361,0.713-0.703,1.199-0.687,1.38c-0.004,0.164,0.444,0.062,1.252-0.772
					c0.786-0.843,1.321-1.64,1.817-2.359l1.366-2.045c0.444-0.652,0.896-1.314,1.439-1.968c0.549-0.649,1.159-1.296,2.048-1.77
					c1.013-0.549,2.192-1.012,3.142-0.983c0.472,0.012,0.883,0.13,1.272,0.361c0.383,0.233,0.744,0.577,1.054,0.966
					c0.624,0.784,1.068,1.665,1.38,2.285L110.936,190.883z"/>
				<path style="fill:#231815;" d="M131.229,221.298c-1.062,0.282-2.263,0.535-3.546,0.849l-0.484,0.124
					c-0.095,0.034-0.282,0.051-0.397,0.124l-0.302,0.208c-0.29,0.192-0.571,0.401-0.855,0.613c-0.563,0.425-1.11,0.892-1.637,1.39
					c-2.119,1.982-3.815,4.456-5.077,6.778c-1.252,2.332-1.908,4.04-2.279,5.063c-0.363,1.025-0.391,1.386-0.199,1.046
					c0.399-0.666,1.675-1.778,3.588-5.162c0.968-1.684,1.961-3.114,2.907-4.233c0.942-1.124,1.834-1.933,2.527-2.471
					c0.695-0.533,0.863-0.71,1.366-1.181c0.13-0.111,0.274-0.249,0.466-0.399c0.085-0.069,0.235-0.182,0.229-0.188l0.071-0.032
					l0.245-0.076c0.679-0.206,1.617-0.437,2.958-0.729c2.695-0.56,4.279-1.306,4.887-1.826c0.61-0.53,0.363-0.664-0.363-0.43
					C133.859,221.234,131.229,221.292,131.229,221.298z"/>
				<path style="fill:#231815;" d="M111.388,246.855c0.502-1.093,1.019-1.815,1.398-2.218c0.462-0.478,0.727-0.53,0.768-0.231
					c0.065,0.396-0.29,1.335-0.808,2.859C112.296,247.118,111.844,246.98,111.388,246.855z"/>
				<path style="fill:#231815;" d="M87.319,303.42c3.655-2.456,7.041-5.41,9.992-8.727c-0.002-0.002,0.474-0.594,1.173-1.576
					c0.351-0.491,0.75-1.086,1.163-1.753c0.209-0.334,0.413-0.689,0.622-1.056l0.294-0.545l0.247-0.588l1.082-2.614l0.521-1.321
					c0.152-0.41,0.389-0.982,0.626-1.392l2.308-4.149c1.151-2.05,2.032-4.887,2.395-7.677c0.302-2.183,0.369-4.316,0.413-6.017
					c0.703-0.384,1.724-0.196,2.445,0.292c-0.107,1.791-0.288,3.749-0.741,5.934c-1.054,4.942-2.524,7.526-3.633,9.541l-1.58,2.921
					c-0.132,0.25-0.243,0.467-0.34,0.707l-0.334,0.848c-0.239,0.602-0.511,1.246-0.823,1.953l-0.817,1.827l-0.17,0.377l-0.124,0.242
					l-0.097,0.171c-0.126,0.225-0.247,0.434-0.367,0.628c-0.47,0.783-0.861,1.377-1.303,2.03c-0.902,1.29-1.923,2.897-4.889,6.154
					c-1.501,1.612-2.32,2.357-2.689,2.712c-0.377,0.345-0.326,0.286-0.223,0.165c0.199-0.253,0.648-0.694-1.793,1.289
					c-2.476,1.95-4.496,2.949-5.835,3.466c-1.348,0.511-2.014,0.563-2.008,0.571C84.535,306.503,85.979,304.993,87.319,303.42z"/>
				<path style="fill:#231815;" d="M25.05,253.421c-1.451,2.733-2.944,5.714-4.293,8.807c-1.333,3.092-2.583,6.306-3.213,9.485
					c-0.253,1.318-0.336,2.534-0.201,3.602c-0.592,0.185-1.143,0.443-1.659,0.753c-0.304-1.224-0.294-2.434-0.219-3.576
					c0.259-3.023,1.116-5.777,2.046-8.37c1.919-5.172,4.319-9.678,6.532-13.428c4.441-7.484,9.988-16.536,15.007-22.521
					c0.632-0.746,1.319-1.546,2.085-2.363c0.385-0.409,0.79-0.82,1.23-1.228l0.349-0.31l0.221-0.173l0.172-0.129l0.691-0.519
					l5.644-4.182c3.702-2.708,7.097-5.039,8.75-6.052c1.645-1.022,5.347-3.336,8.755-5.225c1.69-0.94,3.333-1.813,4.549-2.399
					l1.965-0.948l5.302-3.009c1.382-0.786,2.808-1.62,3.975-2.339c1.179-0.718,2.054-1.32,2.549-1.56
					c0.438,0.22,0.766,0.68,0.849,1.383c0.077,0.697-0.136,1.635-0.685,2.628c-1.092,2.004-3.456,4.141-6.615,5.415
					c-1.572,0.648-3.882,1.589-6.424,2.725c-2.506,1.153-5.395,2.646-8.238,4.214c-5.714,3.136-11.38,6.682-14.786,8.486
					c-0.851,0.451-1.75,0.966-2.678,1.535l-1.412,0.885l-0.717,0.468c-0.243,0.166-0.5,0.315-0.654,0.444
					c-1.7,1.386-3.296,3.284-4.757,5.14c-2.924,3.754-5.335,7.614-6.897,10.009C30.711,243.469,27.958,247.95,25.05,253.421z"/>
				<path style="fill:#231815;" d="M94.562,303.543c0.821,0.531,1.345,1.054,1.844,1.552c0.484,0.499,0.903,0.98,1.291,1.438
					c0.768,0.92,1.396,1.759,1.825,2.492c0.853,1.469,1.66,2.535,2.202,3.554l0.123,0.199l0.182,0.254
					c0.111,0.147,0.247,0.304,0.397,0.468c0.304,0.329,0.671,0.687,1.037,1.053c0.738,0.734,1.477,1.499,1.759,2.092
					c0.569,1.192,3.043,1.999,3.505,3.32c0.454,1.363,1.682,2.81,2.733,3.339c1.029,0.523,0.592,1.659,1.757,2.093
					c1.122,0.431,2.867,1.426,2.883,1.418c0,0-1.185,0.916-1.714,0.431c-0.513-0.465-2.237-0.436-2.478-0.655
					c-0.118-0.101-0.59-0.506-1.068-1.032c-0.48-0.524-0.96-1.171-1.201-1.668c-0.488-0.966-2.184-1.78-3.199-2.497
					c-1.007-0.699-2.656,0.255-2.478-0.894c0.184-1.15,0.107-1.585-0.231-2.033c-0.336-0.447,0.312-1.438-1.211-1.494
					c-1.52-0.071-4.028-0.794-3.773-1.481c0.065-0.176,0.087-0.369,0.077-0.562c0.031-0.134-0.02-0.309-0.093-0.475
					c-0.144-0.322-0.391-0.57-0.628-0.611c-0.478-0.104-3.23,0.177-3.307-0.579c-0.075-0.783-0.34-2.193-0.016-2.947
					c0.328-0.758,0.875-1.162,0.659-1.951c-0.113-0.394-0.053-0.411-0.116-0.537c-0.073-0.121-0.227-0.371-0.979-1.155
					c-0.764-0.772-1.317-1.256-1.732-1.635c-0.403-0.367-0.551-0.65-0.705-0.941c-0.162-0.271-0.184-0.62,0.229-0.883
					c0.205-0.115,0.521-0.197,0.946-0.169C93.494,303.067,94.071,303.231,94.562,303.543z"/>
				<path style="fill:#231815;" d="M77.748,238.568c2.739,1.321,4.717,1.791,8.372,3.553c3.695,1.712,4.326,1.452,6.749,2.189
					c2.444,0.7,1.953,0.568,5.493,1.128c3.547,0.543-0.002,0.001,2.466,0.654c2.468,0.649,3.262,1.657,3.262,1.657l-2.865,0.843
					l-5.339-1.824c0.002,0.013-5.043-1.002-7.004-1.665c-1.961-0.618-5.016-1.321-6.461-1.917c-1.459-0.576-3.993-2.523-6.275-3.693
					C73.858,238.302,75.047,237.212,77.748,238.568z"/>
				<path style="fill:#231815;" d="M82.389,242.109c-0.259,2.922-3.975,5.853-2.374,7.977c1.596,2.121,2.391,0.259,3.981-1.337
					c1.593-1.598,4.245-4.259,4.245-4.259L82.389,242.109z"/>
				<path style="fill:#231815;" d="M91.96,244.748c-1.057,2.394-1.315,7.708-1.315,7.708s1.066,1.859,2.125-0.535
					c1.058-2.394,4.241-5.322,3.975-6.384C96.476,244.475,91.96,244.748,91.96,244.748z"/>
				<path style="fill:#231815;" d="M72.802,252.728c1.973,1.154,3.73,1.908,5.663,2.704c1.939,0.787,4.054,1.619,6.913,2.727
					c2.871,1.093,4.575,1.462,5.991,1.725c1.422,0.249,2.573,0.368,4.469,0.7c3.797,0.617,3.039,0.524,8.453,0.762
					c5.42,0.171-0.004,0.007,3.837,0.434c3.845,0.411,5.306,1.455,5.306,1.455l-4.048,1.398c-2.822-0.447-5.645-0.914-8.459-1.447
					c0-0.002-1.945-0.142-4.281-0.41c-2.332-0.262-5.053-0.692-6.589-1.05c-1.532-0.351-3.469-0.729-5.304-1.167
					c-1.834-0.436-3.564-0.926-4.68-1.36c-1.116-0.427-2.699-1.317-4.386-2.382l-5.142-3.353c-1.669-1.057-2.038-1.896-1.544-2.094
					C69.504,251.16,70.841,251.569,72.802,252.728z"/>
				<path style="fill:#231815;" d="M123.242,263.416l-2.01,0.14c-0.93,0.078-2.725,0.207-4.415,0.307
					c-1.69,0.105-3.28,0.172-3.768,0.316c-1.331,0.415-3.327,0.043-2.962-1.791c0.29-1.484,2.113-1.335,2.966-0.841
					c0.275,0.168,1.783,0.407,3.467,0.553c1.682,0.154,3.533,0.225,4.439,0.272c0.958,0.051,1.864,0.038,2.474-0.053l6.805-0.62
					l10.446-1.067c5.665-0.56,6.465-0.645,7.223-0.771c1.552-0.216,2.363,2.389-0.034,2.013c-1.171-0.155-1.714-0.314-7.073,0.081
					c-2.857,0.216-6.925,0.611-10.444,0.919C126.838,263.187,123.868,263.383,123.242,263.416z"/>
				<path style="fill:#231815;" d="M156.718,245.41c0.002-0.484,0.018-0.966,0.053-1.449c-0.087-0.001-0.164-0.002-0.219-0.002
					c-0.527-0.024-3.645,0.152-6.741,1.096c-1.55,0.454-3.09,1.06-4.342,1.68c-1.264,0.504-2.409,0.726-2.996,0.807
					c-1.195,0.159-3.487,0.488-5.847,0.664c-2.354,0.188-4.765,0.262-6.141,0.261c-2.77,0.031-8.208-1.289-9.577-1.226
					c-3.705,0.233-7.502-0.798-10.262-0.773c-2.774,0.015,0.468,1.847,2.2,2.023c1.72,0.188,4.824,0.476,7.243,0.64
					c1.207,0.085,5.961,0.411,10.697,0.393c2.368-0.004,4.731-0.094,6.631-0.249c1.902-0.15,3.341-0.365,3.866-0.448
					c0.521-0.091,1.939-0.31,3.805-0.887l0.355-0.116l0.19-0.064c0.087-0.021,0.219-0.092,0.249-0.105l0.665-0.301
					c0.458-0.198,0.942-0.388,1.453-0.565c1.017-0.358,2.123-0.665,3.26-0.898C153.096,245.509,154.994,245.365,156.718,245.41z"/>
				<path style="fill:#231815;" d="M155.947,261.417c-0.265-0.028-0.567-0.069-0.918-0.125c-3.019-0.538-3.75-0.079-2.907,0.263
					c0.835,0.328,2.237,1.003,2.243,0.997c0.533,0.065,1.12,0.144,1.732,0.219C155.813,262.417,155.732,261.931,155.947,261.417z"/>
				<path style="fill:#231815;" d="M116.759,329.934c-0.324,1.385-0.727,2.448-0.547,3.892c0.209,1.784,0.024,1.05-0.229,3.365
					c-0.049,0.582-0.517,2.88-0.889,6.244c-0.358,3.329-0.521,0.116,0.581,4.503c0.531,2.183,1.361,4.251,2.356,6.033
					c0.496,0.891,1.029,1.715,1.582,2.469c0.278,0.38,0.547,0.728,0.839,1.084c0.312,0.372,0.646,0.677,0.983,0.93
					c1.366,0.992,2.695,1.281,3.777,1.517c1.09,0.21,1.969,0.294,2.569,0.361c2.397,0.247,5.126,0.431,7.644,1.005
					c2.522,0.545,4.784,1.578,6.305,2.698c1.52,1.108,2.328,1.775,2.684,1.79c0.347,0.038,0.199-0.594-0.6-1.411
					c-0.786-0.819-2.346-2.208-4.024-3.087c-1.663-0.913-3.353-1.427-4.056-1.569c-0.705-0.166-3.037-0.583-5.316-0.819
					c-2.285-0.235-4.47-0.589-4.996-0.73c-0.134-0.031-0.557-0.112-1.167-0.307c-0.608-0.195-1.418-0.5-2.196-1.117
					c-0.399-0.315-0.705-0.684-1.124-1.261c-0.395-0.543-0.792-1.133-1.173-1.767c-0.762-1.269-1.448-2.735-1.969-4.304
					c-1.068-3.136-1.313,1.118-1.179-1.603c0.126-2.737,0.505-4.702,0.612-5.142c0.441-1.753,1.12-5.477,1.712-6.759
					c0.879-1.92,0.189-3.816-0.742-5.468C117.774,329.721,116.937,329.101,116.759,329.934z"/>
				<path style="fill:#231815;" d="M30.438,366.723c-2.131-0.725-3.543-1.501-4.536-2.05c-0.987-0.557-1.57-0.873-1.884-0.894
					c-0.618-0.087-0.113,1.149,1.649,2.217c3.495,2.094,7.498,2.957,10.619,3.229c3.132,0.273,6.232,0.248,9.222,0.592
					c0.747,0.092,1.675,0.223,2.567,0.464c0.892,0.234,1.742,0.582,2.368,0.939c0.63,0.346,1.042,0.669,1.171,0.668
					c0.111,0.017-0.03-0.329-0.792-1c-1.576-1.285-2.968-1.777-4.401-2.216c-1.451-0.414-3.039-0.663-5.375-0.803
					c-2.338-0.133-5.021-0.213-7.091-0.48C31.88,367.141,30.438,366.721,30.438,366.723z"/>
				<path style="fill:#231815;" d="M32.822,377.461c-3.173,0.063-6.437,0.112-9.326,0.031c-2.885-0.068-5.393-0.283-7.047-0.394
					c-1.651-0.093-3.712-0.594-5.152-1.406c-1.457-0.802-2.224-1.827-1.639-2.558c0.48-0.61,1.702-0.386,3.08-0.025
					c1.37,0.381,2.942,0.904,3.943,1.351c0.985,0.468,4.001,1.268,7.413,1.613c3.402,0.375,7.13,0.41,9.34,0.294
					c4.427-0.211,8.864-0.592,12.806-0.009c0.987,0.153,1.817,0.556,2.338,1.01c0.527,0.455,0.721,0.941,0.65,1.232
					c-0.077,0.299-0.383,0.417-0.928,0.349c-0.555-0.064-1.376-0.309-2.743-0.676c-1.371-0.358-2.533-0.514-3.533-0.635
					c-1.005-0.112-1.866-0.169-2.729-0.204C37.567,377.366,35.833,377.404,32.822,377.461z"/>
				<path style="fill:#231815;" d="M12.398,335.448c-0.144-4.752,2.291-6.493,2.634,0.455c0.182,3.54-4.054,4.694-4.356,7.658
					c-0.312,2.966-8.388,7.738-8.771,12.225c-0.193,2.254-0.49,4.436-0.541,6.558c-0.063,2.119,0.018,4.193,0.423,6.069
					c0.389,1.861,1.226,3.555,2.539,4.169c1.303,0.642,2.911,0.397,4.409,0.14c1.459-0.276,2.792-0.268,3.529,0.184
					c0.361,0.215,0.502,0.48,0.474,0.664c-0.022,0.189-0.184,0.301-0.403,0.408c-0.429,0.204-1.124,0.492-2.769,0.937
					c-0.819,0.196-1.86,0.439-3.244,0.396c-0.687-0.028-1.475-0.142-2.289-0.486c-0.808-0.336-1.611-0.942-2.17-1.724
					c-0.606-0.837-0.902-1.643-1.121-2.36c-0.215-0.723-0.334-1.374-0.425-1.986c-0.176-1.22-0.249-2.286-0.294-3.44
					c-0.039-1.153-0.034-2.391,0.061-3.935c0.081-1.552,0.344-3.385,0.588-5.701C1.437,348.209,12.582,341.592,12.398,335.448z"/>
				<path style="fill:#231815;" d="M37.885,372.893c-0.401-0.033-0.806-0.058-1.203-0.073c-1.114-0.065-4.279-0.082-4.824,0.163
					c-0.748,0.277-1.844,0.255-1.858-0.859c-0.01-0.916,1.213-1.003,1.765-0.718c0.18,0.086,1.128,0.183,2.156,0.313
					c1.027,0.128,2.14,0.284,2.683,0.377c0.573,0.097,1.116,0.164,1.489,0.162c0.279,0.012,1.991,0.099,4.129,0.322
					c2.091,0.286,4.561,0.792,6.208,1.491c1.629,0.667,2.447,1.318,2.942,1.712c0.488,0.411,0.66,0.596,0.839,0.767
					c0.355,0.364,0.233,0.888-0.039,1.101c-0.286,0.219-0.648,0.193-0.942-0.391c-0.15-0.284-0.272-0.498-0.646-0.881
					c-0.379-0.371-1.025-0.94-2.462-1.574c-1.53-0.693-3.91-1.216-6.001-1.523C40.071,373.048,38.242,372.932,37.885,372.893z"/>
				<path style="fill:#231815;" d="M125.56,364.098c2.148,0.204,4.731,0.389,7.363,0.785c2.632,0.391,5.31,1.058,7.504,2.188
					c2.198,1.121,3.446,2.368,4.166,3.096c0.711,0.748,0.928,0.99,0.713,0.676c-0.219-0.307-0.492-0.81-1.098-1.555
					c-0.606-0.73-1.564-1.728-3.256-2.664c-1.692-0.927-3.353-1.453-4.769-1.829c-1.42-0.367-2.613-0.581-3.491-0.74
					c-1.757-0.294-1.027-0.087-6.303-0.59l-4.907-0.516c-0.725-0.062-0.632,0.074,0.105,0.268
					C123.056,363.616,125.562,364.101,125.56,364.098z"/>
				<path style="fill:#231815;" d="M109.962,194.4c0.387-0.387,0.922-1.617,0.063-2.258c-0.857-0.641-1.303-1.2-2.044-0.704
					c-0.739,0.494,0.02,2.915,0.02,2.915S108.894,195.473,109.962,194.4z"/>
				<path style="fill:#231815;" d="M142.105,215.003c1.023,1.044,3.051,0.819,1.4-0.578
					C141.855,213.025,141.428,214.312,142.105,215.003z"/>
				<path style="fill:#231815;" d="M105.091,210.736c-2.109,0.48-3.539,2.724-3.011,3.943c0.529,1.219,0.235,2.274,1.635,2.766
					c1.402,0.492,0.827,1.236,0.298,1.088c-0.527-0.148-2.456-0.788-2.624-2.105c-0.166-1.319-0.478-3.18,0.031-3.807
					c0.508-0.628,1.297-2.012,2.516-2.541c1.218-0.529,2.405-0.466,2.405-0.466s0.826,2.307-0.211,1.714
					C105.091,210.736,105.091,210.736,105.091,210.736z"/>
				<path style="fill:#231815;" d="M85.43,209.017c-2.411,0.544-4.415,1.308-4.415,1.308s-0.591,1.039,1.682,1.876
					c2.277,0.838,2.575,1.923,3.43,0.423C86.982,211.124,89.466,208.104,85.43,209.017z"/>
				<path style="fill:#231815;" d="M73.894,218.804c-2.012-0.74-1.339-1.68-0.713-2.241c0.626-0.56,1.975-1.321,1.975-1.321
					s0.314-0.28,1.12,0.18c0.808,0.46,1.979,0.82,1.092,1.845C76.477,218.289,74.65,219.083,73.894,218.804z"/>
				<path style="fill:#231815;" d="M61.286,218.656c-2.389,0.168-4.364,1.489-4.364,1.489s-3.027,2.098-0.855,2.573
					c2.178,0.474,1.848-0.02,3.084,0.225c1.236,0.246,1.319-0.166,2.192,0.178c0.873,0.346,3.163-0.184,3.163-0.184l1.315-2.31
					c0,0,1.761-1.749-0.233-2.273C63.592,217.829,61.286,218.656,61.286,218.656z"/>
				<path style="fill:#231815;" d="M53.936,230.218c-3.787,0.746-4.935,3.301-4.935,3.301s-3.983,5.379,0.892,3.262
					c4.877-2.115,4.481-1.422,4.481-1.422s0.229-0.94,1.645-1.815c1.416-0.875,0.128-2.372,0.128-2.372L53.936,230.218z"/>
				<path style="fill:#231815;" d="M37.667,236.238c-1.003,0.705-2.054,3.875-2.054,3.875l2.915-0.02l2.368-2.013
					c0,0,0.43-0.217,0.723-1.271c0.296-1.054,1.416-0.874,0.739-1.565C41.684,234.552,39.707,234.801,37.667,236.238z"/>
				<path style="fill:#231815;" d="M28.817,265.44c0.806,2.023,1.062,3.454,1.062,3.454l-1.198,2.258c0,0-1.858-0.399-2.656-1.992
					c-0.796-1.595-1.195-1.196-0.397-2.923C26.424,264.51,28.018,263.447,28.817,265.44z"/>
				<path style="fill:#231815;" d="M28.282,274.076c-1.852,2.117-2.257,4.383,0,4.118l1.597-3.056
					C29.878,275.138,29.214,273.012,28.282,274.076z"/>
				<path style="fill:#231815;" d="M35.191,291.877c0.267-1.86,3.457-4.117,0-5.049c-3.452-0.93-1.991-1.726-3.452-0.93
					c-1.463,0.798-0.664,1.994,0.132,3.854C32.666,291.611,35.191,291.877,35.191,291.877z"/>
				<path style="fill:#231815;" d="M100.747,316.656c1.442,3.846-1.394,6.776-4.184,5.779c-2.792-0.997-1.595-2.989-2.989-3.985
					c-1.396-0.997-3.787-3.986,0.598-2.591c4.384,1.396,3.388,0.598,3.388,0.598S100.15,315.063,100.747,316.656z"/>
				<path style="fill:#231815;" d="M102.601,324.836c-1.708,2.215-2.366,3.928-2.366,3.928s0.612,2.321,2.49,1.653
					c1.876-0.668,3.544,2.589,3.864-1.501c0.324-4.09-1.396-6.905-1.396-6.905L102.601,324.836z"/>
				<path style="fill:#231815;" d="M186.001,284.623c-0.429,2.74-1.11,4.934-1.852,6.999c-0.758,2.053-1.631,3.931-2.768,5.795
					c-1.404,2.267-1.876,2.932-2.423,3.868c-0.284,0.465-0.588,0.993-1.116,1.783c-0.267,0.395-0.591,0.855-1.023,1.396
					c-0.217,0.27-0.462,0.559-0.758,0.868c-0.144,0.155-0.31,0.315-0.466,0.457l-0.478,0.457c-0.354,0.321-0.962,0.906-1.931,1.608
					c-0.486,0.348-1.066,0.726-1.777,1.064c-0.709,0.335-1.566,0.637-2.573,0.7c-1.001,0.072-2.143-0.171-3.122-0.755
					c-0.987-0.576-1.813-1.42-2.506-2.371c-1.384-1.921-2.326-4.268-3.094-6.82c-0.379-1.28-0.707-2.62-0.991-4.007
					c-0.257-1.356-0.634-2.747-0.918-4.212c-0.596-2.915-1.084-6-1.465-9.204c-0.766-6.406-1.07-13.283-1.09-20.246
					c-0.01-6.972,0.184-14.007,0.462-20.862c0.383-6.864,1.524-13.479,3.404-19.309c0.936-2.914,2.055-5.627,3.296-8.081
					c1.27-2.473,2.721-4.611,4.384-6.36c0.839-0.861,1.748-1.609,2.758-2.127c1.001-0.517,2.131-0.766,3.165-0.638
					c1.041,0.117,1.921,0.556,2.613,1.042c0.699,0.49,1.236,1.037,1.678,1.545c1.755,2.05,2.918,4.591,3.921,7.114
					c1.151,2.475,2.218,5.163,2.745,8.014c0.531,2.859,0.549,5.727,0.904,8.525c0.304,2.8,0.944,5.566,1.382,8.367
					c0.92,5.575,1.347,11.088,1.349,16.17c0.012,5.083-0.314,9.732-0.683,13.677c-0.776,7.887-1.676,12.065-2.04,13.24
					c-0.393,1.171-0.324-0.66,0.229-4.876c0.541-4.211,1.374-12.079,1.42-19.657c0.032-3.788-0.144-7.492-0.446-10.614
					c-0.292-3.121-0.685-5.662-0.912-7.156c-0.114-0.747-0.302-1.924-0.576-3.414c-0.276-1.481-0.63-3.33-0.873-5.389
					c-0.267-2.062-0.375-4.36-0.63-6.68c-0.247-2.322-0.863-4.658-1.765-6.915c-0.223-0.565-0.458-1.124-0.703-1.678l-0.375-0.829
					c-0.138-0.285-0.265-0.573-0.375-0.865c-0.45-1.116-0.934-2.182-1.475-3.184c-1.07-1.986-2.387-3.756-3.918-4.629
					c-1.526-0.908-3.092-0.576-4.178,0.052c-1.106,0.619-1.823,1.362-2.229,1.762c-0.401,0.405-1.651,1.749-3.112,4.158
					c-1.418,2.374-3.011,5.875-4.328,10.093c-1.329,4.228-2.346,9.235-2.865,14.626c-0.272,2.703-0.387,5.473-0.442,8.337
					l-0.174,8.654c-0.077,5.797-0.032,11.597,0.259,17.068c0.284,5.472,0.829,10.608,1.566,15.071
					c0.369,2.232,0.782,4.295,1.211,6.151c0.201,0.935,0.466,1.814,0.626,2.683c0.174,0.825,0.359,1.59,0.547,2.293
					c0.741,2.821,1.54,4.604,1.86,5.242c0.642,1.262,1.55,2.899,2.889,3.954c0.665,0.517,1.398,0.82,2.178,0.818
					c0.784,0.008,1.643-0.291,2.464-0.774c0.821-0.481,1.599-1.125,2.304-1.809l0.521-0.523l0.504-0.528
					c0.288-0.321,0.561-0.674,0.817-1.028c1.017-1.443,1.753-2.869,2.214-3.865c1.394-3.067,2.613-5.565,3.821-7.756
					c1.195-2.201,2.379-4.094,3.379-6.136c0.452-0.916,0.895-1.86,1.197-2.199c0.156-0.163,0.29-0.155,0.381,0.136
					C186.09,283.201,186.122,283.766,186.001,284.623z"/>
				<path style="fill:#231815;" d="M71.558,319.43c-1.89-2.623-2.873-4.761-3.428-6.274c-0.543-1.523-0.638-2.46-0.488-2.897
					c0.306-0.876,1.589,0.255,2.648,2.618c1.066,2.365,2.431,4.565,3.924,6.475c1.489,1.914,3.102,3.549,4.544,4.94
					c2.893,2.824,6.331,4.968,9.865,7.226c0.879,0.574,1.984,1.318,3.029,2.154c1.048,0.83,2.014,1.788,2.573,2.66
					c0.569,0.868,0.719,1.577,0.642,1.735c-0.101,0.175-0.322-0.211-1.167-1.086c-0.873-0.859-1.815-1.402-2.697-1.873
					c-0.891-0.467-1.751-0.848-2.642-1.255c-1.779-0.819-3.74-1.677-6.437-3.488c-1.343-0.911-2.743-1.999-4.022-3.176
					c-1.281-1.173-2.433-2.433-3.371-3.585C72.648,321.291,71.566,319.421,71.558,319.43z"/>
				<path style="fill:#231815;" d="M97.204,344.232c0.989,3.174,1.669,5.872,2.528,8.815c0.875,2.936,1.825,6.167,3.75,10.267
					c1.981,4.057,3.505,6.264,5.452,7.595c0.49,0.321,1.021,0.566,1.592,0.703c0.272,0.07,0.604,0.11,0.847,0.13l0.76,0.06
					c1.029,0.078,2.152,0.132,3.542,0.163c2.774,0.061,3.839,0.141,5.181,0.35c0.666,0.106,1.394,0.252,2.411,0.513
					c0.506,0.13,1.088,0.292,1.767,0.5l0.561,0.174c0.276,0.067,0.513,0.105,0.76,0.137c0.497,0.058,1.011,0.07,1.546,0.048
					c2.117-0.138,3.047-0.39,3.511-0.453c0.45-0.084,0.379-0.081,0.237-0.072c-0.296,0.02-0.829,0.053,1.86-0.563
					c2.666-0.62,4.409-0.907,5.462-0.814c1.048,0.08,1.481,0.368,1.491,0.346c-0.433-0.717-1.303-1.249-2.239-1.547
					c-0.944-0.309-1.949-0.448-2.942-0.536c-2.087,0.397-4.032,1.025-5.973,1.444c-0.965,0.204-1.933,0.366-2.834,0.323
					c-0.11-0.006-0.223-0.016-0.326-0.028c-0.085-0.008-0.197-0.029-0.324-0.061l-0.746-0.166c-0.505-0.108-1.013-0.211-1.524-0.3
					c0.016,0.003-2.776-0.719-6.167-0.869c-1.682-0.098-3.475-0.165-5.124-0.279l-0.61-0.043l-0.302-0.022l-0.227-0.026
					c-0.292-0.046-0.569-0.136-0.829-0.253c-0.521-0.239-0.966-0.592-1.321-0.924c-1.451-1.341-2.687-3.809-3.619-6.189
					c-0.944-2.399-1.653-4.77-2.176-6.334c-1.074-3.113-3.56-9.327-5.282-14.642c-0.879-2.658-1.653-3.567-1.833-3.048
					C95.879,339.149,96.219,341.064,97.204,344.232z"/>
				<path style="fill:#231815;" d="M124.01,367.484c-1.726-0.73-3.69-0.424-4.94-0.948c-1.274-0.522,0.563-1.714,1.418-1.574
					l3.475,0.553c0.577,0.089,2.832,0.417,5.085,0.61c2.241,0.199,4.512,0.298,5.029,0.352c0.505,0.048,2.755,0.266,5.106,0.807
					c1.175,0.269,2.368,0.638,3.367,1.066c1.003,0.416,1.793,0.911,2.255,1.176c0.946,0.536,1.173,1.396,1.013,1.854
					c-0.142,0.467-0.563,0.626-0.843,0.365c-0.278-0.273-0.938-0.956-1.748-1.43c-0.79-0.494-1.66-0.812-1.88-0.902
					c-0.215-0.094-1.497-0.723-2.986-1.147c-1.481-0.441-3.104-0.718-3.694-0.681c-1.177,0.066-4.52-0.276-5.859-0.418
					C127.481,367.063,124.662,367.772,124.01,367.484z"/>
				<path style="fill:#231815;" d="M56.134,310.814c-0.833,1.169-1.821,2.017-2.853,2.95c-1.048,0.936-2.19,1.962-3.637,3.455
					c-0.727,0.747-1.327,1.299-1.842,1.735c-0.249,0.225-0.498,0.385-0.764,0.648c-0.19,0.185-0.381,0.338-0.563,0.483
					c-0.742,0.568-1.4,0.935-2.456,1.638c-2.158,1.38-1.718,1.064-5.112,2.566c-3.43,1.614-0.004-0.031-2.279,1.44
					c-1.137,0.77-1.767,1.577-2.083,2.155c-0.322,0.58-0.349,0.935-0.353,0.931c1.057-0.225,2.081-0.316,3.096-0.337
					c1.378-1.199,2.956-2.273,4.538-3.367c-0.002-0.004,1.187-0.549,2.603-1.309c1.416-0.747,3.033-1.822,3.847-2.622l0.156-0.15
					l0.079-0.075l0.018-0.014l0.306-0.225l0.733-0.525l1.56-1.081c1.039-0.719,2.016-1.426,2.612-1.966
					c0.598-0.538,1.343-1.518,2.127-2.643c0.778-1.142,1.615-2.364,2.297-3.68c0.166-0.338,0.257-0.676,0.274-0.982
					c0.016-0.327-0.063-0.574-0.17-0.733c-0.231-0.322-0.509-0.292-0.665-0.153C57.287,309.333,56.965,309.623,56.134,310.814z"/>
				<path style="fill:#231815;" d="M33.227,332.515l-0.885,1.158c-0.296,0.38-0.598,0.884-0.808,1.255
					c-0.472,0.789-0.891,1.637-1.25,2.512c-0.73,1.763-1.252,3.75-1.67,6.374c-0.116,0.689-0.184,1.181-0.336,1.645
					c-0.144,0.466-0.318,0.878-0.492,1.246c-0.359,0.736-0.719,1.296-1.068,1.789c-0.701,0.991-1.357,1.721-2.33,3.047
					c-0.981,1.325-1.382,1.862-1.917,2.506c-0.523,0.672-1.24,1.345-2.67,3.386c-0.701,1.05-0.985,1.699-1.106,2
					c-0.122,0.305-0.091,0.264-0.034,0.173c0.053-0.091,0.144-0.215,0.136-0.088c0.008,0.141-0.15,0.48-0.282,1.569
					c-0.128,1.109,0.272,2.257,0.851,2.895c0.574,0.656,1.161,0.916,1.59,1.064c0.879,0.263,1.28,0.138,1.283,0.152
					c-0.44-0.488-0.817-1.031-1.023-1.578c-0.213-0.549-0.198-1.085-0.012-1.463c-0.304-0.615-0.121-1.711,0.288-2.739
					c0.403-1.043,0.981-2.087,1.595-3.11c-0.004-0.005,1.015-1.274,2.295-2.8c1.274-1.522,2.745-3.379,3.452-4.582
					c0.359-0.592,0.77-1.267,1.157-2.028c0.192-0.382,0.375-0.787,0.539-1.219c0.083-0.213,0.156-0.444,0.221-0.648l0.182-0.559
					c0.482-1.506,0.946-2.891,1.222-3.806c0.271-0.917,0.476-2.341,0.934-3.835c0.114-0.368,0.249-0.751,0.413-1.146
					c0.13-0.375,0.288-0.691,0.503-1.06c0.425-0.721,0.958-1.451,1.416-2.24c0.47-0.794,0.543-1.547,0.419-1.95
					c-0.125-0.415-0.359-0.497-0.575-0.381c-0.221,0.12-0.448,0.409-0.75,0.794C34.21,331.241,33.803,331.749,33.227,332.515z"/>
				<path style="fill:#231815;" d="M71.635,308.666c-0.628,0.286-1.236,0.349-1.888,0.435c-0.66,0.084-1.374,0.187-2.366,0.47
					c-0.999,0.279-1.592,0.258-2.069,0.191c-0.482-0.07-0.861-0.201-1.503-0.247c-1.28-0.113-1.037-0.076-2.764-0.756
					c-1.712-0.717,0,0.005-1.274-0.198c-1.264-0.216-1.949,0.553-1.953,0.557c0.312,0.673,0.636,1.345,0.974,2.016
					c1.003,0.024,2.004,0.024,3.003-0.006c-0.01,0.017,2.644,0.737,3.768,0.724c1.088,0.032,2.806,0.396,3.693,0.25
					c0.433-0.059,1.06-0.398,1.71-0.809c0.654-0.413,1.317-0.901,1.959-1.266c0.654-0.385,0.586-0.952,0.229-1.232
					C72.782,308.501,72.241,308.387,71.635,308.666z"/>
				<path style="fill:#231815;" d="M20.344,296.873c-0.987,1.815-1.899,3.285-2.806,4.964c-0.899,1.677-1.817,3.564-2.65,6.237
					c-0.819,2.676-1.283,4.171-1.71,5.416c-0.411,1.247-0.804,2.244-1.11,3.995c-0.298,1.78-0.261,2.554-0.322,3.446
					c-0.045,0.899-0.097,2.013-0.036,4.436c0.045,2.388,0.002,2.334,0.057,2.182c0.039-0.172,0.16-0.494,0.259,1.112
					c0.077,1.586,0.17,2.63,0.257,3.363c0.087,0.725,0.193,1.112,0.193,1.112c0.958-0.811,1.785-1.919,2.46-3.14
					c-0.099-2.733-0.774-5.183-1.123-7.614c0.018,0.006-0.077-1.698,0.253-3.576c0.359-1.914,1.072-4.153,1.469-5.416
					c0.758-2.566,2.778-6.093,3.653-7.905c0.835-1.821,1.842-5.89,3.509-8.89C24.355,293.605,22.333,293.251,20.344,296.873z"/>
				<path style="fill:#231815;" d="M18.132,275.809c0.091-0.666-0.031-1.303-0.318-1.769c-0.29-0.511-0.736-0.662-1.027-0.547
					c-0.308,0.099-0.502,0.414-0.727,0.683c-0.215,0.308-0.403,0.792-0.57,1.627c-0.352,1.7-0.425,3.151-0.427,4.719
					c-0.006,1.576-0.014,3.278-0.292,5.626c-0.266,2.352-0.47,4.652-0.306,6.828c0.148,2.164,0.764,4.247,1.908,5.748
					c0.555,0.737,1.222,1.029,1.674,1.013c0.46-0.012,0.717-0.298,0.752-0.713c0.028-0.415-0.15-0.944-0.513-1.586
					c-0.355-0.665-0.912-1.443-1.617-2.749c-0.738-1.422-0.851-2.421-0.897-3.535c-0.026-1.133,0.038-2.445,0.229-4.865
					c0.16-1.938,0.557-3.738,0.983-5.445C17.402,279.125,17.884,277.529,18.132,275.809z"/>
			</g>
			<g>
				<path style="fill:#231815;" d="M160.582,261.157l0.016-4.134c0.02-1.91,0.089-5.592,0.284-9.03
					c0.18-3.439,0.507-6.629,0.677-7.581c0.217-1.294,0.442-2.908,0.547-4.177c0.105-1.268,0.089-2.201-0.304-2.143
					c-0.316,0.046-0.669,1.065-0.904,2.312c-0.239,1.246-0.361,2.714-0.361,3.643c-0.006,0.61-0.237,3.802-0.332,7.312
					c-0.109,3.511-0.109,7.337-0.083,9.212c0.028,1.977,0.049,3.843,0.028,5.115c-0.006,0.464-0.014,2.188,0.014,4.701
					c0.04,2.518,0.085,5.804,0.379,9.435c0.975,7.158,2.421,15.543,4.097,21.288c0.423,1.418,0.76,2.649,1.248,3.783
					c0.557,1.125,1.592,1.787,2.537,1.98c0.958,0.209,1.815,0.061,2.502-0.15c0.697-0.219,1.246-0.516,1.698-0.8
					c0.901-0.581,1.426-1.107,1.829-1.509c0.395-0.411,0.656-0.722,0.904-1.037c1.003-1.285,1.295-2.504,1.163-2.742
					c-0.067-0.127-0.241-0.019-0.537,0.382c-0.304,0.397-0.717,1.096-1.42,2.077c-0.344,0.47-0.666,0.86-1.088,1.281
					c-0.421,0.416-0.938,0.88-1.758,1.336c-0.409,0.222-0.9,0.44-1.495,0.569c-0.59,0.128-1.301,0.168-2.04-0.075
					c-0.733-0.235-1.473-0.814-1.891-1.748c-0.379-0.973-0.753-2.176-1.141-3.493c-1.682-5.665-3.142-13.977-4.135-21.175
					c-0.3-3.577-0.355-6.95-0.399-9.535L160.582,261.157z"/>
				<path style="fill:#231815;" d="M163.761,219.614l-0.476,1.553c-0.215,0.72-0.604,2.118-0.875,3.455
					c-0.284,1.332-0.458,2.595-0.551,2.975c-0.287,1.028-0.231,2.619,0.513,2.506c0.604-0.09,0.642-1.6,0.529-2.319
					c-0.045-0.234-0.012-1.463,0.162-2.81c0.164-1.345,0.474-2.8,0.636-3.511c0.166-0.751,0.369-1.449,0.541-1.913l0.585-1.737
					c0.312-0.928,0.713-2.148,1.288-3.423c0.575-1.257,1.333-2.63,2.46-3.493c1.143-0.829,2.607-0.943,3.681-0.696
					c1.072,0.242,1.819,0.729,2.316,1.181c0.502,0.455,0.766,0.89,0.936,1.224c0.326,0.683,0.33,0.987,0.371,1.262
					c0.065,0.555,0.243,1.001,0.476,1.1c0.113,0.044,0.231-0.012,0.314-0.224c0.083-0.207,0.122-0.584-0.016-1.113
					c-0.152-0.498-0.273-0.871-0.719-1.578c-0.227-0.346-0.559-0.767-1.106-1.22c-0.555-0.436-1.337-0.914-2.464-1.153
					c-1.181-0.251-2.778-0.132-4.072,0.811c-1.248,0.966-2.01,2.396-2.604,3.695c-0.585,1.315-0.993,2.569-1.307,3.535
					L163.761,219.614z"/>
			</g>
			<path style="fill:#231815;" d="M32.36,256.147c-4.784-1.594-1.062-6.377,1.064-6.908c2.123-0.532,1.062,1.593,1.062,4.251
				C34.486,256.147,32.36,256.147,32.36,256.147z"/>
			<path style="fill:#231815;" d="M40.861,248.707c0,0-0.529-5.313,2.125-4.783C45.645,244.456,44.05,250.301,40.861,248.707z"/>
		</g>
	</g>
</g>
</svg>
