<?xml version="1.0" encoding="iso-8859-1"?>
<!-- Generator: Adobe Illustrator 21.1.0, SVG Export Plug-In . SVG Version: 6.00 Build 0)  -->
<svg version="1.1" id="_x31_0" xmlns="http://www.w3.org/2000/svg" xmlns:xlink="http://www.w3.org/1999/xlink" x="0px" y="0px"
	 viewBox="0 0 512 512" style="enable-background:new 0 0 512 512;" xml:space="preserve">
<g>
	<path style="fill:#8F8F96;" d="M48.271,474.833c-12.025,8.745,1.093,20.77,17.49,17.491c16.397-3.28,41.54,13.118,50.285,9.838
		c8.745-3.279,9.838-7.652,15.304-7.652c5.466,0,34.981,17.491,52.471,17.491c17.49,0,41.54-12.025,41.54-12.025l16.397-1.093
		c0,0,33.888,2.186,40.447,2.186s36.074-10.932,50.285-13.118c14.211-2.186,42.633,7.652,51.378-1.093
		c8.745-8.745,13.118-13.118,13.118-13.118s-17.491-59.03-20.77-84.173c-3.28-25.143-5.466-80.894-8.745-88.546
		c-3.28-7.652-36.074-34.981-36.074-34.981s-73.241-6.559-104.943-4.373c-31.701,2.186-69.962,10.931-86.359,27.329
		s-31.701,32.795-34.981,52.471c-3.279,19.677-6.559,72.148-21.863,95.104c-15.304,22.956-24.049,28.422-34.981,31.702
		C37.34,471.553,48.271,474.833,48.271,474.833z"/>
	<path style="fill:#34AD37;" d="M483.347,180.774c-2.187-15.304-5.466-14.211-17.491-20.77s-10.932-7.652-27.329-15.304
		c0-12.025-7.271-28.167-13.118-34.981c-5.846-6.813-2.186-10.932-16.397-14.211c-14.211-3.279,0,0-3.279,1.093
		c-3.28,1.093-40.447-8.745-34.981-10.932c5.466-2.186,33.888,0,51.378,0c17.491,0,23.897,2.763,31.702,0
		c7.804-2.762,9.838-8.745,5.466-15.304c-4.373-6.559-13.118-18.584-18.583-24.05c-5.466-5.466-3.28-27.329-8.746-29.515
		c-5.466-2.186-5.466-5.466-16.397,1.093c-10.931,6.559-12.025,12.025-12.025,12.025s-8.745-1.093-15.304-2.186
		c-6.559-1.093-10.932-15.304-15.304-21.863c-4.372-6.559-8.745-6.559-19.677-1.093c-10.931,5.466-12.025,14.211-27.329,22.956
		c-15.304,8.745-12.025,1.093-24.049,5.466c-12.025,4.373-22.956,17.491-36.074,22.956c-13.118,5.466-47.006,36.074-61.217,49.192
		c-14.211,13.118-26.236,61.217-32.795,78.707s-5.466,62.31-4.373,77.614c1.093,15.304,9.838,13.118,19.677,15.304
		c0,0,27.329,13.118,33.888,15.304c6.559,2.186,31.701,12.025,43.726,18.584c12.025,6.559,4.373,25.143-1.093,40.447
		c-5.466,15.304-20.77,39.354-25.143,63.403c-4.372,24.049,18.584,49.192,18.584,49.192l52.471,26.236
		c0,0,10.931,2.186,10.931-4.373c0-6.559-17.49-16.397-17.49-16.397s14.211,4.373,25.142,10.932s21.863,5.466,19.677-1.093
		c-2.186-6.559-25.142-20.77-20.77-18.583c4.373,2.186,22.956,13.118,29.515,13.118s-10.931-20.77-10.931-20.77
		s10.931,5.466,19.677,16.397c8.745,10.932,4.372-6.559,1.093-14.211c-3.28-7.652,3.279-4.372,15.304,1.093
		c12.025,5.466,27.329,16.397,28.422,7.652c0.98-7.838-10.313-14.781-15.82-16.929c4.149,1.247,12.629,3.855,16.913,5.997
		c6.559,3.279,7.652-3.28-9.838-15.304c-17.491-12.025-21.863-7.652-36.074-20.77c-14.211-13.118,0-24.049,5.466-33.888
		c5.466-9.838,47.006-40.447,61.217-55.751c14.211-15.304,19.677-27.329,20.77-45.913c1.093-18.583-15.304-29.515-15.304-29.515
		l-16.397-8.745c0,0-5.466,1.093,9.838-8.745c15.304-9.838,32.795-16.397,40.446-22.956
		C478.974,204.824,485.533,196.078,483.347,180.774z M349.982,348.027c-6.559,9.838-34.981,36.074-36.074,48.099
		c-1.093,12.025,1.093,28.422,13.118,40.447c12.025,12.025,4.373,9.838,4.373,9.838s-13.118-4.373-24.05-6.559
		c-10.931-2.186-29.515-17.491-25.142-34.981c4.373-17.491,3.279-21.863,13.118-30.608c9.838-8.745,18.583-19.677,18.583-19.677
		s18.584-33.888,21.863-39.354c3.279-5.466,6.559-10.932,6.559-10.932s19.129,10.705,24.049,6.559
		C371.3,306.714,356.541,338.188,349.982,348.027z M403.547,212.475l1.093-12.024l8.745-5.466l7.652,2.186L403.547,212.475z"/>
	<path style="fill:#FFFFFF;" d="M340.144,94.415c0,0-20.77,5.466-5.466,19.677c15.304,14.211-6.559,29.515-6.559,29.515
		s16.397,39.354,20.77,41.54c4.373,2.186,45.912-17.49,45.912-17.49s2.186-17.49,4.373-22.956
		c2.186-5.466,1.093-10.932,1.093-10.932l-4.373-12.025l-4.373-9.838c0,0-1.093-8.745,5.466-8.745
		c6.559,0,15.304-6.559,19.677-2.186c4.373,4.373,12.025,14.211,12.025,14.211s-2.752-6.9,6.559-14.211
		c9.311-7.311,7.652-13.118,7.652-13.118s-37.167-4.373-41.54-3.279c-4.373,1.093,7.652-3.28-9.838-1.093
		S351.075,87.856,340.144,94.415z"/>
	<path style="fill:#FFFFFF;" d="M297.511,174.215c0,0-21.863,25.143-20.77,50.285c25.143,16.397,45.913,19.677,56.844,36.074
		c10.931,16.397,12.025,37.167,8.745,43.726c-2.014,4.028,3.393,4.346,7.865,3.991c3.186-0.253,5.914-2.352,7.025-5.348
		c2.998-8.09,8.595-24.385,6.973-29.251c-2.186-6.559,4.373-30.608,12.025-38.26c7.652-7.652,22.956-15.304,22.956-15.304
		s6.131-1.796,4.373-7.652c-1.758-5.856,1.093-12.024,1.093-12.024s-18.584,4.373-30.608,12.025
		c-12.025,7.652-31.702,10.932-40.447,8.745c-8.745-2.186-13.118-9.838-19.677-18.584
		C307.349,193.892,297.511,174.215,297.511,174.215z"/>
	<g>
		<path style="fill:#231815;" d="M350.401,9.503c5.452-4.052,16.455-8.08,21.896-1.934c5.212,5.887,2.533,15.296,9.723,20.205
			c1.99,1.358,6.08,3.162,8.209,1.028c2.641-2.647-0.409-5.454-2.151-7.434c-1.692-1.923-3.655-3.69-5.112-5.813
			c-2.326-3.389-3.411-7.505-6.216-10.598C365.213-7.767,346.284,7,337.888,15.785c-3.213,3.362-6.435,8.053-10.546,10.416
			c-2.554,1.468-4.919,2.092-7.241,4.117c-0.764,0.666-1.213,1.839-1.902,2.463c-0.048,0.044-0.794-1.356-1.062-1.252
			c-2.976,5.087,15.898,3.921,10.927-2.844c2.913,2.969,4.282-0.035,6.511-2.617C339.563,20.292,344.243,14.112,350.401,9.503z"/>
		<path style="fill:#231815;" d="M433.26,13.455c-4.935-4.114-12.12-2.777-16.986,0.624c-2.451,1.713-4.384,3.986-6.625,5.938
			c-1.943,1.692-4.507,2.832-6.258,4.701c-4.652,4.966-0.324,11.688,5.737,7.04c4.248-3.257,5.448-9.736,9.325-13.566
			c4.113-4.064,10.793-5.273,14.081,0.319c3.127,5.318,0.257,16.468,4.984,20.307c1.7,1.381,4.153,1.435,4.948-0.947
			c0.694-2.077-1.775-5.563-2.363-7.408C438.271,24.711,438.186,17.681,433.26,13.455z"/>
		<path style="fill:#231815;" d="M448.369,48.722c-1.649-1.629-8.248-7.568-11.151-5.565c-3.613,2.493,3.054,8.667,4.85,10.708
			c4.136,4.7,21.328,21.478,15.551,27.919c-3.211,3.58-11.346,3.281-15.664,3.383c-7.342,0.174-14.681-0.419-21.987-1.071
			c-13.313-1.189-26.729-2.812-40.108-1.753c-12.08,0.956-27.707,2.623-38.699,8.079c-2.182,1.083-5.625,2.859-3.143,5.171
			c2.619,2.439,10.597-0.007,13.534-0.681c12.141-2.785,23.314-7.778,35.956-8.117c11.965-0.32,23.937,1.426,35.854,2.234
			c10.201,0.691,33.634,5.291,40.373-5.284C470.358,73.349,455.202,55.546,448.369,48.722z"/>
		<path style="fill:#231815;" d="M341.853,107.157c5.481-0.198,2.1-5.732-1.095-6.488c-4.765-1.128-10.142,2.252-14.519-1.328
			c-10.674-8.732,12.561-10.306,12.019-15.056c-0.963-8.445-16.946,5.131-17.888,8.884
			C317.652,104.005,334.575,107.487,341.853,107.157z"/>
		<path style="fill:#231815;" d="M295.254,46.28c2.497-1.691,20.159-15.854,13.898-19.254c-2.544-1.382-8.159,2.904-10.317,4.191
			c-4.768,2.846-9.388,5.945-14.078,8.916c-19.923,12.619-40.784,24.089-58.675,39.614c-34.202,29.679-52.792,79.027-59.412,122.89
			c-1.759,11.653-1.907,23.449-3.297,35.145c-1.284,10.809-3.191,24.187,3.674,33.604c4.774,6.549,17.032,12.314,25.262,9.127
			c4.548-1.761,1.782-3.786-1.347-5.516c-4.191-2.317-9.096-3.408-12.942-6.361c-8.012-6.153-6.808-18.679-6.576-27.673
			c0.278-10.792-0.065-21.764,0.993-32.513c2.167-22.025,9.04-43.749,17.527-64.099c9.03-21.652,20.045-41.826,38.51-56.784
			C248.902,71.021,273.602,60.995,295.254,46.28z"/>
		<path style="fill:#231815;" d="M270.813,218.663c15.564,2.297,30.566,12.294,43.292,21.081c14,9.666,30.926,23.381,34.712,40.887
			c3.913,18.092-6.292,32.771-13.787,48.309c-7.462,15.471-16.657,29.227-29.918,40.383c-1.791-1.078,19.698-42.884,22.446-47.793
			c8.171-14.597,20.488-31.568,10.072-48.063c-10.08-15.964-27.707-24.258-44.158-31.9c-8.368-3.887-18.439-6.793-24.367-14.329
			C266.413,223.814,263.591,217.461,270.813,218.663z"/>
		<path style="fill:#231815;" d="M221.685,288.118c-4.394-1.757-8.722-3.693-13.122-5.428c-3.736-1.473-7.614-2.525-5.943,2.965
			c2.605,8.556,14.958,12.826,22.44,15.25c10.533,3.412,22.199,4.657,32.167,9.629c8.607,4.293,10.275,10.995,8.614,19.953
			c-7.743,41.779-51.682,81.7-20.191,123.827c10.408,13.923,24.561,25.308,40.022,33.127c6.409,3.241,18.166,9.605,25.698,6.649
			c7.936-3.114-10.249-10.192-13.437-11.674c-17.356-8.064-35.247-17.169-47.316-32.495c-13.567-17.23-11.54-36.665-4.022-56.128
			c4.684-12.126,10.784-23.614,16.346-35.343c5.021-10.59,10.971-22.572,11.66-34.487
			C276.128,297.6,239.362,295.191,221.685,288.118z"/>
		<path style="fill:#231815;" d="M290.557,459.557c8.566,4.034,17.579,7.041,26.205,10.943c4.208,1.904,8.392,3.938,12.266,6.467
			c1.711,1.117,8.349,5.082,8.325,7.519c0.002-0.155-19.69-7.509-21.241-8.154c-5.369-2.233-11.102-3.506-16.279-6.083
			c-3.236-1.61-6.445-3.146-9.775-4.581c-2.661-1.146-9.227-3.02-10.517-5.875C277.853,456.055,288.112,459.297,290.557,459.557z"/>
		<path style="fill:#231815;" d="M310.708,450.753c8.394,4.397,17.61,6.997,25.542,12.312c2.937,1.968,15.633,11.793,13.608,16.878
			c0.131-0.329-16.223-11.954-17.322-12.605c-4.268-2.526-9.061-3.662-13.401-5.923c-5.347-2.786-13.138-4.872-17.3-9.273
			C296.645,446.653,307.542,450.392,310.708,450.753z"/>
		<path style="fill:#231815;" d="M445.789,248.568c-3.242-3.729-17.699-10.385-21.366-3.635c-1.796,3.306,3.234,4.575,5.543,5.688
			c3.594,1.732,6.831,3.71,9.271,6.966c8.396,11.205,9.527,31.952,3.602,44.233c-8.685,18-25.688,33.683-40.003,47.24
			c-8.4,7.956-17.03,15.664-25.64,23.391c-7.166,6.432-15.151,13.31-17.782,22.973c-6.257,22.984,15.878,32.84,32.693,40.27
			c8.148,3.6,14.036,9.257,21.497,13.646c3.95,2.324,5.049-0.2,4.063-4.001c-0.979-3.775-3.666-7.117-6.48-9.713
			c-12.923-11.923-41.541-10.311-45.692-30.17c-1.998-9.558,3.804-16.883,10.276-23.113c6.751-6.5,13.947-12.556,20.816-18.935
			c17.391-16.152,36.56-33.12,50.323-52.577C458.76,294.079,461.423,264.379,445.789,248.568z"/>
		<path style="fill:#231815;" d="M375.081,436.892c8.007,4.119,16.885,6.364,24.324,11.606c2.753,1.94,14.5,12.82,10.88,17.633
			c0.782-1.039-12.883-12.727-13.888-13.377c-4.124-2.668-8.858-3.796-13.187-5.943c-5.08-2.519-12.65-4.503-16.506-8.717
			C361.912,432.859,372.071,436.557,375.081,436.892z"/>
		<path style="fill:#231815;" d="M361.943,443.64c7.086,4.642,15.113,7.633,22.106,12.44c2.624,1.804,13.86,10.085,12.222,14.576
			c-0.003,0.008-13.808-9.451-14.553-9.928c-4.132-2.646-8.831-4.015-12.986-6.5c-4.659-2.786-11.025-5.609-14.624-9.642
			C349.125,439.004,359.075,443.055,361.943,443.64z"/>
		<path style="fill:#231815;" d="M348.169,465.102c2.414,2.104,11.216,8.27,14.3,4.013c2.83-3.908-6.219-11.235-8.441-13.398
			c-10.025-9.763-21.25-18.373-31.13-28.22c-24.135-24.055,8.656-51.288,23.956-69.508c8.752-10.423,18.348-23.207,20.053-37.167
			c0.404-3.31-0.569-14.823-6.123-9.176c-3.124,3.176-3.934,10.078-5.313,14.215c-4.297,12.89-10.033,23.98-18.916,34.31
			c-8.091,9.408-17.162,18.424-23.225,29.361c-8.059,14.538-6.62,30.334,3.923,43.16
			C326.537,443.988,337.205,455.438,348.169,465.102z"/>
		<path style="fill:#231815;" d="M347.445,300.418c-3.261-1.617-6.805,9.167-1.54,11.233c3.404,1.336,7.911-0.654,11.494-0.418
			c5.315,0.351,10.31,2.663,15.685,2.818c5.657,0.164,9.365-2.007,4.5-7.055c-3.618-3.754-2.993-1.3-6.284-0.282
			C364.234,308.899,353.551,303.524,347.445,300.418z"/>
		<path style="fill:#231815;" d="M442.79,158.286c0.237-4.344,1.075-14.597,7.324-14.477c2.766,0.053,5.302,3.408,7.198,5.16
			c1.314,1.214,2.581,2.9,4.332,3.501c1.322,0.453,2.432-0.096,3.725,0.23c13.326,3.365,20.395,22.641,20.027,34.728
			c-0.327,10.779-5.42,20.957-13.92,27.579c-10.905,8.496-25.581,11.335-37.481,18.315c-5.71,3.349-11.507,7.282-15.649,12.534
			c-4.645,5.889-3.071,9.673-2.343,16.625c0.292,2.793,0.761,5.288-1.688,7.263c-2.678,2.16-3.871,1.476-5.03-0.924
			c-2.445-5.064-0.719-15.305,1.545-20.166c4.819-10.35,16.781-16.987,26.483-21.955c12.407-6.354,28.517-9.289,37.263-20.981
			c8.305-11.103,7.081-26.585-0.793-37.64c-1.671-2.346-3.739-4.911-6.138-6.537c-3.789-2.569-7.238-1.736-11.326-3.007
			c-2.33-0.725-3.905-2.931-6.494-2.385C447.565,156.626,445.319,161.855,442.79,158.286z"/>
		<path style="fill:#231815;" d="M407.171,244.163c3.201-3.955-2.818-4.669-5.312-1.995c-2.623,2.813-3.342,7.807-4.425,11.393
			c-1.679,5.56-7.033,20.588-0.132,24.943c6.969,4.398,0.132-10.096,0.169-12.066C397.625,258.164,402.23,250.438,407.171,244.163z"
			/>
		<path style="fill:#231815;" d="M399.262,236.103c4.534-2.313,1.351-5.905-2.676-4.788c-4.513,1.251-7.52,6.165-9.762,9.911
			c-4.298,7.178-12.385,21.007-8.96,29.84c2.224,5.736,4.85,0.967,4.605-2.858c-0.281-4.394-1.07-7.41,0.445-11.843
			C385.656,248.339,390.57,238.874,399.262,236.103z"/>
		<path style="fill:#231815;" d="M390.978,228.795c3.502-1.844,2.053-6.46-1.477-6.926c-5.381-0.711-10.975,7.045-13.969,10.5
			c-7.993,9.222-13.626,17.247-12.611,29.93c0.161,2.007,0.087,6.069,2.155,7.23c2.357,1.323,4.151-0.588,4.807-2.756
			c1.272-4.202-2.52-8.354-2.216-12.663C368.554,241.571,381.245,234.073,390.978,228.795z"/>
		<path style="fill:#231815;" d="M434.617,197.536c3.236-1.768,0.635-7.047-1.679-8.395c-4.889-2.846-9.352,2.826-11.986,6.233
			c-4.175,5.402-8.15,9.769-13.861,13.641c-5.261,3.567-11.226,6.034-16.462,9.55c-4.003,2.688-3.124,8.61,2.357,8.962
			c4.888,0.314,7.349-6.102,10.649-8.71C413.328,211.155,423.783,203.536,434.617,197.536z"/>
		<path style="fill:#231815;" d="M260.217,133.535c4.289-0.123,9.149,0.045,13.135,1.851c5.574,2.525,5.335,6.426,5.841,11.795
			c0.434,4.607,1.636,10.29,5.878,12.896c3.746,2.301,7.251,4.253,10.721,7.412c6.479,5.899,10.709,13.475,14.696,21.178
			c4.862,9.395,9.401,21.795,18.535,27.978c7.076,4.789,16.087,2.787,23.75,0.665c10.643-2.947,20.722-7.604,30.91-11.792
			c20.651-8.49,43.713-23.449,48.815-46.739c2.132-9.736,2.99-19.998-1.464-29.233c-2.057-4.265-5.137-8.253-7.572-12.323
			c-2.532-4.231-7.972-10.172-7.379-15.418c0.626-5.537,4.137-4.039,6.676-0.386c3.294,4.74,6.025,9.909,8.497,15.114
			c3.892,8.195,8.008,17.087,7.965,26.333c-0.107,22.671-11.073,40.047-29.079,53.218c-9.827,7.188-20.594,11.792-31.729,16.505
			c-10.116,4.282-20.411,8.801-31.274,10.813c-10.464,1.938-19.663,0.24-27.138-7.892c-8.954-9.74-13.543-22.626-20.825-33.515
			c-3.261-4.877-7.032-8.875-11.855-12.193c-4.747-3.266-10.834-6.112-14.333-10.859c-2.951-4.005-3.117-9.176-6.619-12.925
			C262.955,142.361,258.402,139.318,260.217,133.535z"/>
		<path style="fill:#231815;" d="M331.389,115.242c-3.398,3.271-7.003,6.264-10.591,9.314c-0.836,0.711-2.748,1.82-3.184,2.885
			c-1.074,2.621-0.677,0.976,0.706,3.157c1.463,2.307,2.205,1.598,2.21,4.705c0.004,2.307-1.233,4.317-0.998,6.667
			c0.327,3.26,2.224,6.717,3.404,9.753c2.78,7.151,5.945,14.156,9.932,20.716c3.358,5.525,6.919,15.385,13.843,17.128
			c5.179,1.304,6.591-1.395,5.077-5.812c-1.85-5.399-3.63-3.781-7.473-6.557c-3.051-2.204-5.711-7.928-7.458-11.195
			c-2.322-4.343-3.423-9.435-4.68-14.158c-1.544-5.803-1.226-11.862-1.785-17.799c-0.312-3.314-1.227-7.521-0.547-10.715
			C330.326,121.067,333.95,117.124,331.389,115.242z"/>
		<path style="fill:#231815;" d="M346.859,183.046c-2.439,1.506-6.927,6.798-2.443,8.524c2.74,1.055,8.92-3.41,11.178-4.527
			c9.292-4.598,18.807-8.569,28.505-12.216c8.429-3.17,17.525-6.814,22.33-14.97c5.459-9.265,1.854-20.469-2.707-29.318
			c-0.866-1.68-4.258-8.492-7.271-5.988c-2.413,2.006,0.27,7.15,1.188,9.185c3.797,8.415,10.64,16.165,4.096,25.275
			C389.85,175.555,362.995,172.958,346.859,183.046z"/>
		<path style="fill:#231815;" d="M406.49,125.151c-0.934-3.915-2.905-10.146-6.865-12.157c-4.029-2.046-7.637,1.221-11.638,0.833
			c-0.246-0.024,1.929-3.183,2.356-3.563c1.976-1.765,4.343-2.709,7.027-2.682c5.272,0.054,9.593,4.075,11.631,8.58
			c1.263,2.791,3.568,8.458,3.072,11.436C411.167,133.039,408.797,127.853,406.49,125.151z"/>
		<path style="fill:#231815;" d="M415.23,118.395c-1.866-4.418-4.709-8.867-8.235-12.146c-3.389-3.152-6.946-2.746-10.65-4.67
			c-0.397-0.206,3.448-2.392,4.113-2.543c3.005-0.683,5.764,0.62,8.198,2.288c3.089,2.117,5.994,4.945,7.862,8.136
			c1.329,2.27,6.088,9.711,4.598,12.289C419.711,124.181,416.883,119.712,415.23,118.395z"/>
		<path style="fill:#231815;" d="M444.559,93.663c-5.495,1.806-7.643,12.636-13.19,12.983c-2.923,0.183,4.79-14.012,6.302-15.258
			c1.364-1.125,6.345-4.419,8.357-2.955C448.284,90.074,445.322,91.665,444.559,93.663z"/>
		<path style="fill:#231815;" d="M358.878,44.074c-9.398-5.182-1.057-20.114,7.585-20.572
			C368.417,30.831,367.804,47.05,358.878,44.074z"/>
		<path style="fill:#231815;" d="M312.42,126.669c-5.387-2.769-16.878,2.32-15.709,9.315c1.086,6.495,11.858,3.691,16.458,5.358
			c5.745,2.082,9.475,7.42,11.897-1.768C327.29,131.143,319.953,127.035,312.42,126.669z"/>
		<path style="fill:#231815;" d="M329.197,157.643c-7.185-1.265-19.46,12.025-8.865,14.048c1.818,0.347,11.531-0.188,12.571-1.339
			C335.118,167.9,331.668,159.096,329.197,157.643z"/>
		<path style="fill:#231815;" d="M293.06,241.529c-10.184,0.98-13.697,15.739-19.766,22.065c-6.185,6.446-18.494,2.507-16.069-7.306
			c2.251-9.11,11.698-16.736,18.293-22.797c2.1-1.931,2.689-3.361,5.254-2.389C284.814,232.632,289.751,238.937,293.06,241.529z"/>
		<path style="fill:#231815;" d="M313.711,253.143c-4.644,6.49-25.245,33.47-24.346,12.906
			C290.13,248.485,308.133,248.156,313.711,253.143z"/>
		<path style="fill:#231815;" d="M37.028,461.895c17.959,7.631,33.02-12.068,40.741-25.949
			c9.113-16.384,14.354-35.653,16.326-54.239c3.824-36.047,13.007-80.112,46.166-100.854c6.965-4.357,16.65-9.781,25.057-9.675
			c12.368,0.156-4.507,10.776-8.184,12.29c-7.467,3.075-14.493,5.664-20.855,10.749c-8.302,6.637-14.412,15.557-19.02,25.051
			c-7.826,16.121-11.603,33.931-16.53,51.052c-5.788,20.114-6.698,41.183-14.36,60.89c-3.393,8.727-8.735,15.73-13.158,23.833
			c-5.227,9.577-12.01,19.804-22.324,24.484c-7.99,3.625-19.993,1.315-22.911-7.812c-0.545-1.706-2.311-8.334-0.769-9.728
			c1.246-1.127,0.93,0.092,2.465,0.135C32.495,462.202,34.147,463.156,37.028,461.895z"/>
		<path style="fill:#231815;" d="M380.847,384.238c1.042-5.164-7.979-5.098-10.186-2.099c-3.236,4.396,0.163,11.659,1.559,16.088
			c3.258,10.332,2.558,25.441,9.288,34.356c3.184,4.218,9.288,1.61,8.638-4.031c-0.51-4.436-6.039-7.223-7.368-11.814
			C379.65,405.924,378.766,395.306,380.847,384.238z"/>
		<path style="fill:#231815;" d="M426.236,42.983c-2.959-5.917-1.55-13.939,3.097-11.616
			C433.979,33.691,428.557,47.63,426.236,42.983z"/>
		<path style="fill:#231815;" d="M403.777,76.284c-5.923-1.974-8.519-11.616-1.549-7.744
			C409.198,72.412,406.101,77.057,403.777,76.284z"/>
		<path style="fill:#231815;" d="M419.265,77.057c-4.114-0.685-0.775-7.744,3.872-6.969
			C427.784,70.862,423.912,77.832,419.265,77.057z"/>
		<path style="fill:#231815;" d="M302.072,369.903c-4.521,9.768-13.495,16.761-16.772,27.23c-2.91,9.294-1.251,23.427,5.957,30.648
			c6.596,6.609,17.802,6.893,26.167,9.757c9.693,3.318,16.004,10.815,21.32,19.228c-0.506,0.668-12.858-8.674-14.233-9.451
			c-5.569-3.145-11.886-4.86-17.992-6.639c-13.706-3.993-21.279-9.762-25.722-23.665c-3.58-11.205-2.553-22.989,2.978-33.367
			c3.023-5.672,6.98-12.662,12.934-15.685C298.827,366.884,304.659,365.364,302.072,369.903z"/>
		<path style="fill:#231815;" d="M121.924,484.736c0.097,1.934,3.904,11.519,7.214,8.307c0.684-0.664-1.724-6.953-1.781-8.676
			c-0.341-10.173,4.62-20.941,7.146-30.666c2.643-10.172,5.949-19.149,14.04-26.256c7.816-6.865,18.881-12.162,21.426-23.168
			c2.206-9.538-0.047-20.825,0.689-30.68c0.099-1.331,1.418-9.804-1.393-9.293c-2.821,0.513-3.453,8.643-3.667,10.705
			c-0.925,8.927,2.168,17.671,1.48,26.46c-0.768,9.821-10.112,15.192-17.065,20.724c-9.307,7.406-14.371,16.238-18.181,27.344
			C128.07,460.512,121.356,472.887,121.924,484.736z"/>
		<path style="fill:#231815;" d="M174.285,442.112c-0.356-7.331-5.42-5.322-5.403,1.122c0.019,7.393,3.491,14.679,6.322,21.348
			c3.026,7.128,6.906,13.077,10.598,19.779c4.135,7.507,1.751,15.511,4.243,23.206c0.688,2.123,1.97,4.954,4.087,2.538
			c1.321-1.507,0.397-5.715,0.161-7.49c-0.871-6.559-2.568-14.155-5.845-19.951c-3.859-6.825-7.997-12.54-10.392-20.158
			C175.989,455.93,174.563,449.014,174.285,442.112z"/>
		<path style="fill:#231815;" d="M225.351,481.631c1.757,2.592,8.444,8.645,7.659,2.25c-0.465-3.786-5.578-9-7.529-12.242
			c-5.666-9.418-10.935-19.191-14.341-29.678c-4.139-12.745-2.857-22.694,1.058-35.262c3.286-10.548,3.642-21.013,3.732-31.979
			c0.026-3.228-0.003-7.792-3.361-4.1c-2.492,2.74-1.82,9.17-1.694,12.622c0.218,5.936,0.937,11.485-0.314,17.365
			c-1.127,5.299-3.279,10.323-4.503,15.599c-2.606,11.236,0.461,22.009,4.022,32.695
			C213.843,460.184,218.403,471.895,225.351,481.631z"/>
		<path style="fill:#231815;" d="M144.78,320.859c-0.074-3.257-1.753-11.626-4.717-5.035c-1.555,3.458-0.863,8.854,0.581,12.148
			c3.634,8.291,13.545,11.399,21.332,14.209c11.099,4.005,22.408,7.613,34.362,6.868c5.416-0.337,10.6-1.514,15.459-3.944
			c4.395-2.198,8.672-6.035,13.737-6.495c1.818-0.165,8.113,2.132,9.258,0.848c2.547-2.858-6.151-5.685-7.352-5.797
			c-5.723-0.536-9.954,3.161-14.249,6.243c-4.258,3.055-8.374,4.887-13.591,5.63c-11.295,1.609-22.716-1.009-33.14-5.254
			C157.7,336.712,145.079,331.981,144.78,320.859z"/>
		<path style="fill:#231815;" d="M180.729,178.311c5.993-10.163,7.325-31.126,21.443-33.861c1.538,6.241,1.921,12.705,1.886,19.111
			c-0.011,2.039,0.782,8.18-0.373,9.829c-1.267,1.808-6.811,2.759-8.833,3.094c-1.823,0.302-7.767,1.224-9.245-0.3
			c-0.245-0.253-0.25-3.027-0.58-3.058C182.97,172.93,182.039,175.664,180.729,178.311z"/>
		<path style="fill:#231815;" d="M220.987,111.73c5.244-5.667,10.57-13.978,19.96-12.152
			C239.119,107.087,226.494,122.744,220.987,111.73z"/>
		<path style="fill:#231815;" d="M286.018,69.925c8.573,4.215,14.568-7.393,23.102-4.756c-3.011,5.961-11.281,11.34-17.292,13.683
			c-2.329,0.908-5.803,2.116-7.888,0.039c-1.025-1.021-1.371-3.02-1.207-4.4c0.078-0.659-0.08-2.355,0.348-2.863
			c0.061-0.073,3.81-0.122,3.74-0.947C286.553,70.428,286.285,70.177,286.018,69.925z"/>
		<path style="fill:#231815;" d="M241.116,142.698c1.329,3.771,1.882,7.895,1.774,11.881c-0.132,4.873-0.922,5.384-5.529,5.512
			c-2.467,0.068-5.866,0.366-6.978-1.501c-0.723-1.214-0.295-4.767-0.328-6.169C229.862,144.304,231.802,135.3,241.116,142.698z"/>
		<path style="fill:#231815;" d="M190.02,203.085c4.231,7.717-0.275,30.181-13.853,23.416
			C179.278,218.231,182.764,198.045,190.02,203.085z"/>
		<path style="fill:#231815;" d="M214.793,199.988c-1.427-3.182-3.886-28.306,7.422-22.942
			C231.373,181.39,219.986,196.652,214.793,199.988z"/>
		<path style="fill:#231815;" d="M194.665,244.89c2.428,2.872,4.786,9.23,3.291,13.079c-0.997,2.568-1.009,2.612-4.139,2.159
			c-2.213-0.321-4.16-1.308-6.018-2.492c-3.964-2.527-8.066-5.213-4.438-9.302C186.262,245.063,190.361,243.442,194.665,244.89z"/>
		<path style="fill:#231815;" d="M401.969,147.382c0.408-2.531-5.226-1.641-6.032-0.179c-0.849,1.538,0.565,3.78,0.588,5.412
			c0.039,2.68-4.112,11.289-1.322,13.28c1.363,0.973,4.106-0.477,4.569-2.106c0.315-1.108-1.193-2.221-1.286-3.425
			C398.166,156.205,401.235,151.422,401.969,147.382z"/>
		<path style="fill:#231815;" d="M405.555,200.244c-0.698-2.277-4.214-0.006-4.815,0.955c-1.557,2.49,0.627,3.053,1.048,5.42
			c0.427,2.399,0.076,4.344-1.4,6.372c-1.188,1.632-4.247,2.388-4.542,4.249c-0.255,1.605,0.69,3.578,2.484,3.64
			c2.295,0.079,3.835-4.004,4.692-5.633C405.348,210.824,406.963,205.329,405.555,200.244z"/>
	</g>
</g>
</svg>
