<?xml version="1.0" encoding="iso-8859-1"?>
<!-- Generator: Adobe Illustrator 18.1.1, SVG Export Plug-In . SVG Version: 6.00 Build 0)  -->
<svg version="1.1" id="_x31_2" xmlns="http://www.w3.org/2000/svg" xmlns:xlink="http://www.w3.org/1999/xlink" x="0px" y="0px"
	 viewBox="0 0 512 512" style="enable-background:new 0 0 512 512;" xml:space="preserve">
<g>
	<path style="fill:#94C85C;" d="M176.921,243.1c-4.007-9.275-6.041-8.092-17.035-15.825c-10.994-7.733-17.096-20.503-13.56-28.262
		c3.535-7.759,12.954-20.373,14.902-23.619c1.948-3.246,16.88-25.32,18.178-31.163c1.298-5.843,7.588-22.282,12.883-25.099
		c5.295-2.818,11.788,0.429,15.683,6.921c9.738,3.895,46.095-1.298,53.237-0.649c11.686-11.037,25.665-14.463,43.671,9.324
		c20.603,7.556,56.311,60.793,69.295,81.569c18.178,20.126,38.305,48.693,44.797,66.871s13.025,42.995,4.565,89.018
		c1.927,12.912,1.927,12.912,1.927,12.912l-105.878-0.173c0,0,9.604-13.372-1.339-12.767c-10.943,0.605-19.538-5.148-19.538-5.148
		l-46.59,4.455c0,0-21.425-94.139-25.969-106.474C221.606,252.652,204.949,241.337,176.921,243.1z"/>
	<path style="fill:#FFFFFF;" d="M308.603,215.646c5.843,6.492-3.895,26.618-2.597,42.2s40.689,76.971,38.523,88.152
		c-17.098-2.453-22.86-1.163-29.068-5.379c-6.208-4.216-5.209-9.633-14.473-8.872c-9.264,0.761-8.258-1.823-8.258-1.823
		s-5.8-8.152-8.075-12.796c-2.275-4.644-10.938,0.579-10.938,0.579c-6.665-7.273-3.675-11.876-10.418-3.701
		c-6.743,8.176-10.357,13.256-10.357,13.256s2.333,14.83,0.431,17.504c5.239-7.714,5.239-7.714,5.239-7.714
		s6.041,20.092,16.654,24.654c10.613,4.562,25.546,5.86,24.247,7.808s-10.388,1.298-18.178,1.948
		c-7.791,0.649-29.215,3.246-29.215,0c0-3.246-16.231-58.431-16.88-69.468c-0.649-11.037-5.843-38.305-14.932-47.394
		c-9.089-9.089-12.34-10.497-25.969-11.037c-13.629-0.539-9.738-5.194-9.738-5.194s3.246-13.634-1.948-18.178
		c-5.194-4.545,7.142,5.194,18.178,9.089c11.037,3.895,25.984,4.497,40.902-1.948c14.917-6.445,42.2-13.634,51.289-14.283
		C302.111,212.4,308.603,215.646,308.603,215.646z"/>
	<path style="fill:#EBEBEC;" d="M31.381,252.003c-5.843,5.194-5.843,10.388-4.545,19.477c1.299,9.089,10.388,41.551,17.529,70.117
		c7.142,28.566,12.335,47.394,25.969,49.991c13.634,2.597,20.775,1.948,25.969,2.597c5.194,0.649,126.291,1.533,155.661-2.804
		c25.475,6.05,61.725,1.16,67.622-6.458c5.896-7.618-5.141-15.408-25.916-14.11c-20.775,1.298-41.551,0.649-41.551,0.649
		s-21.425-96.086-25.969-106.474c-4.545-10.388-9.089-22.723-55.834-23.372c-46.745-0.649-116.535,1.477-124.653,4.545
		C37.546,249.227,31.381,252.003,31.381,252.003z"/>
	<g>
		<g>
			<path style="fill:#231815;" d="M166.011,165.039c3.832-6.194,5.965-9.017,6.989-9.337c1.014-0.342,0.915,2.151-1.321,6.046
				c-4.466,7.717-9.596,14.865-14.965,23.397c-2.668,4.264-4.177,6.662-5.186,7.557c-0.992,0.898-1.519,0.281-1.666-1.449
				c-0.241-3.441,0.434-4.893,4.436-11.123C158.367,173.906,166.072,165.076,166.011,165.039z"/>
			<path style="fill:#231815;" d="M144.327,202.061c0.482-2.324,1.402-3.239,1.998-3.048c0.619,0.193,0.933,1.463,0.865,3.606
				c-0.033,2.142-0.317,4.169-0.096,6.56c0.203,2.35,1.101,5.192,3.72,7.631c2.676,2.253,2.838,2.942,0.137,1.806
				c-1.278-0.647-3.327-1.942-5.044-4.756C144.175,211.084,143.348,206.689,144.327,202.061z"/>
			<path style="fill:#231815;" d="M174.714,145.986c-1.844,2.588-2.176,4.534-1.631,6.266c0.325,0.793,1.194,1.404,2.746,1.09
				c1.522-0.301,3.586-1.645,5.323-4.083c3.5-4.979,4.428-9.192,5.724-13.59c0.631-2.199,1.278-4.482,2.318-6.872
				c1.047-2.351,2.475-5.002,5.039-6.9c2.503-1.788,6.099-2.056,8.369-0.484c2.376,1.588,3.87,4.448,5.184,7.123
				c2.546,5.492,4.598,10.98,7.202,15.368c2.584,4.366,5.944,4.618,6.551,2.352c0.629-2.348-0.789-6.507-6.401-14.243
				c-3.094-4.182-4.497-6.861-6.746-9.962c-1.184-1.489-2.62-3.347-5.521-4.553c-2.934-1.094-6.845-1.028-10.583,1.631
				c-2.818,2.134-4.532,4.723-6.132,7.147c-1.544,2.459-2.871,4.879-4.131,7.211C179.513,138.129,177.215,142.549,174.714,145.986z"
				/>
			<path style="fill:#231815;" d="M214.952,128.376c11.055-0.687,23.258-3.165,34.217-0.914c1.567,0.322,7.453-2.209,5.61-2.589
				c-11.859-2.437-24.927,0.107-36.852,0.849C216.192,125.829,210.465,128.655,214.952,128.376z"/>
			<path style="fill:#231815;" d="M251.273,138.426c-2.181,3.559-2.78,6.544-1.765,7.772c0.943,1.192,4.103,0.331,7.758-5.384
				c3.627-5.773,5.031-10.429,7.694-14.741c1.342-2.132,3.031-4.19,5.526-5.888c2.468-1.629,5.823-3.124,9.721-3.248
				c3.936-0.079,7.573,1.738,10.329,4.316c2.792,2.577,4.905,5.733,6.698,8.869c3.558,6.326,5.98,12.641,8.356,17.967
				c2.305,5.25,5.364,6.722,6.145,4.49c0.72-2.2-0.337-8.06-6.855-17.853c-3.594-5.174-5.577-8.169-8.247-11.616
				c-1.367-1.697-2.906-3.544-5.359-5.437c-2.402-1.824-6.069-3.869-11.1-3.744c-3.997,0.183-7.4,1.343-10.657,2.853
				c-3.238,1.56-6.051,3.839-8.278,6.373C256.797,128.292,254.212,133.823,251.273,138.426z"/>
			<path style="fill:#231815;" d="M223.346,230.856c12.637-1.3,25.198-4.487,36.149-7.065c10.953-2.639,20.405-4.467,26.532-4.862
				c6.135-0.478,13.581-0.95,19.381-1.111c5.78-0.245,10.142-0.379,10.045-2.741c-0.076-1.899-5.105-3.96-11.405-4.436
				c-6.285-0.557-13.487,0.51-17.803,1.783c-4.395,1.12-16.606,4.488-29.596,8.463c-13,3.973-27.329,7.227-36.05,7.578
				c-8.668,0.623-17.413-0.035-24.881-3.455c-7.537-3.28-13.256-8.94-19.624-13.394c-3.185-2.241-6.604-3.456-9.193-3.69
				c-2.61-0.272-4.339,0.276-4.803,0.892c-0.479,0.664,0.249,1.383,2.255,2.311c2.031,0.952,5.224,2.235,10.055,5.239
				c4.836,3.039,8.721,5.981,12.381,8.06c3.644,2.127,6.969,3.609,10.395,4.693C204.016,231.29,211.411,232.092,223.346,230.856z"/>
			<path style="fill:#231815;" d="M423.538,372.184c0.403-8.625,1.948-25.727,2.521-33.214c0.322-3.741,0.368-10.469-0.479-16.824
				c-0.771-6.364-2.234-12.335-2.445-15.049c-0.162-2.726-2.567-11.022-5.43-18.421c-2.752-7.447-5.871-13.997-5.919-13.973
				c-0.002,0.001-2.092-4.656-4.92-9.839c-2.795-5.202-6.34-10.911-8.08-13.621c-3.436-5.454-9.556-14.296-14.707-19.857
				c-5.135-5.572-11.478-6.31-13.702-12.701c-2.201-6.395,1.212-4.787,6.612-2.048c5.407,2.735,9.31,6.537,11.055,10.598
				c1.737,4.061,3.624,6.686,7.306,12.038c1.834,2.68,6.662,8.902,11.286,15.721c4.661,6.78,8.965,14.279,10.735,18.396
				c0.913,2.03,1.988,4.734,2.949,7.582c0.966,2.793,1.943,5.751,2.785,8.515c1.697,5.496,2.805,10.057,2.805,10.057
				c0-0.001,1.286,4.214,2.313,8.545c1.004,4.326,2.369,6.359,3.008,10.878c0.654,4.571-0.987,10.316-0.152,13.663
				c0.885,3.398,0.603,7.984-0.173,14.475c-0.766,6.468-2.944,8.331-2.693,14.788c0.266,6.414-1.025,11.585-1.233,15.825
				C426.812,381.949,423.122,378.633,423.538,372.184z"/>
			<path style="fill:#231815;" d="M176.921,243.1l0.396,0.723c1.121-0.295,2.255-0.561,3.393-0.799
				c-0.781-2.314-1.793-4.633-3.071-6.792c-2.257-3.819-5.268-7.081-8.151-9.173c-2.878-2.119-5.488-3.093-6.581-3.283
				c-2.26-0.366-3.145,1.65-3.021,3.5c0.15,1.875,0.915,3.544,3.104,3.49c0.867-0.009,3.343,0.869,6.117,3.025
				C171.897,235.905,174.836,239.319,176.921,243.1z"/>
			<path style="fill:#231815;" d="M192.87,151.754c-3.974-4.541-3.051-10.473-0.112-9.792c2.937,0.681,3.079-2.503,5.48-2.064
				c2.399,0.436,2.153,0.975,2.257,3.62c0.101,2.646,3.14,5.969,3.14,5.969S197.572,157.133,192.87,151.754z"/>
			<path style="fill:#231815;" d="M271.255,150.137c-8.579-1.715-4.04-10.767-4.04-10.767l8.747-3.364
				c5.384,7.404,5.384,7.404,5.384,7.404s-0.672,3.362-4.037,6.055C273.946,152.156,277.983,151.483,271.255,150.137z"/>
			<path style="fill:#231815;" d="M205.279,216.912c-5.727-1.323-5.727-7.048-2.643-6.166c3.081,0.88,5.727,4.404,5.285,7.488
				C207.48,221.317,205.279,216.912,205.279,216.912z"/>
			<path style="fill:#231815;" d="M223.338,218.675c0-1.763,0.441-7.929,5.285-7.49c4.846,0.441,3.966,3.965,1.324,4.404
				C227.305,216.031,223.338,218.675,223.338,218.675z"/>
			<path style="fill:#231815;" d="M248.007,166.695c11.014-0.881,17.179,2.643,11.894,5.726c-5.285,3.083-9.252,5.286-8.81,7.488
				c0.441,2.203-3.964,6.168-5.726,7.928c-1.763,1.763-9.249,11.454-8.81,7.93c0.441-3.524,3.964-13.655,6.609-16.739
				C245.805,175.944,248.007,166.695,248.007,166.695z"/>
			<path style="fill:#231815;" d="M186.337,171.539c4.55-7.15,15.417-3.524,14.976,0.881c-0.439,4.405-1.76,7.048-1.76,9.25
				c0,2.203,3.084,11.894-1.321,10.132c-4.405-1.761-3.966-4.846-6.17-8.37c-2.201-3.524,0.883-7.93-3.964-7.93
				C183.253,175.503,183.253,176.385,186.337,171.539z"/>
			<path style="fill:#231815;" d="M322.77,203.882c-2.016-1.738-4.753,0.854-2.277,3.288c1.212,1.279,2.394,1.889,3.662,2.675
				c1.189,0.781,2.703,1.798,3.198,3.909c0.497,2.146-0.938,3.938-2.566,4.876c-1.638,0.995-3.411,1.489-4.907,1.912
				c-1.453,0.394-1.816,1.793-1.07,2.692c0.707,0.85,2.797,1.32,5.592-1.106c1.428-1.346,2.227-2.07,3.17-3.057
				c0.452-0.508,0.956-1.096,1.347-2.019c0.401-0.9,0.637-2.198,0.281-3.661c-0.583-2.317-1.763-3.986-2.856-5.531
				C325.207,206.347,324.023,205.01,322.77,203.882z"/>
			<path style="fill:#231815;" d="M322.443,141.134c6.934,5.57,14.344,13.193,20.968,21.814c6.657,8.596,12.62,18.062,17.585,26.797
				c9.675,17.534,13.03,24.784,11.209,22.5c-1.803-2.33-7.258-6.053-15.021-19.017c-7.72-12.933-14.839-22.553-19.538-27.635
				c-2.336-2.551-2.843-3.391-4.418-5.592c-1.648-2.102-4.106-5.939-11.904-12.574c-7.908-6.456-13.243-9.364-15.549-11.21
				c-2.353-1.747-1.646-2.407,1.309-1.506c2.929,0.905,6.835,2.32,9.929,3.746C320.125,139.849,322.44,141.146,322.443,141.134z"/>
			<path style="fill:#231815;" d="M50.863,374.888c2.09,5.357,4.628,10.202,7.89,14.048c3.195,3.869,7.456,6.474,11.308,7.164
				c3.847,0.726,6.847,0.083,8.841-0.498c2.008-0.619,3.134-1.275,3.431-1.702c0.289-0.441-0.276-0.673-1.742-0.739
				c-1.453-0.096-3.87,0.06-7.005-0.484c-3.117-0.552-6.784-2.239-10.02-6.362c-3.271-4.077-6.094-10.087-8.663-17.72
				c-2.8-7.999-5.904-15.198-8.227-22.173c-2.361-6.978-4.075-13.827-5.498-20.617c-2.764-13.596-4.717-26.87-7.494-40.566
				c-1.304-7.008-3.84-13.737-4.598-20.751c-0.345-3.445-0.165-7.113,1.664-9.851c1.839-2.67,5.478-4.365,9.178-5.53
				c7.585-2.343,16.18-2.911,25.348-3.825c9.107-0.926,18.901-1.449,29.449-1.851c21.1-0.77,41.873-0.614,62.042,0.023
				c5.021,0.226,10.101,0.231,14.963,0.709c5.019,0.383,9.949,0.495,14.823,0.739c4.867,0.24,9.683,0.556,14.354,1.247
				c4.598,0.744,9.368,1.659,12.909,4.05c3.677,2.398,6.348,6.063,8.28,10.017c1.943,3.975,3.216,8.261,4.227,12.561
				c1.012,4.311,1.732,8.655,2.518,12.987c0.741,4.377,1.879,8.649,2.843,12.746c3.971,16.555,7.646,32.141,10.887,46.56
				c6.322,28.151,10.218,41.155,10.375,32.733c0.013-4.206-1.07-13.799-4.235-29.342c-1.577-7.771-3.667-17.025-6.335-27.843
				l-4.438-17.411l-2.554-9.607c-0.943-3.35-1.714-6.522-2.45-10.131c-1.582-7.613-3.112-14.611-5.615-20.775
				c-2.457-6.129-6.023-11.58-11.04-14.996c-2.495-1.74-5.348-2.75-7.953-3.415c-2.658-0.689-5.275-1.122-7.869-1.457
				c-5.196-0.652-10.319-0.906-15.62-1.118c-5.361-0.205-10.629-0.362-16.718-0.891l-19.573-0.606
				c-14.347-0.302-31.635-0.471-53.924,0.399c-8.924,0.361-17.631,0.839-26.34,1.475c-8.521,0.918-17.083,1.159-25.538,2.957
				c-4.19,0.948-8.483,2.107-12.28,4.936c-1.902,1.371-3.492,3.606-4.225,5.806c-0.809,2.236-1.032,4.524-1.037,6.709
				c0.193,8.774,3.117,16.377,4.215,24.046c2.673,15.566,4.266,30.921,7.433,45.918c1.59,7.48,3.723,14.837,6.325,21.848
				C45.832,361.369,48.365,367.895,50.863,374.888z"/>
			<path style="fill:#231815;" d="M255.331,215.201c14.854-5.301,30.382-8.786,35.799-10.032c5.409-1.244,4.418-3.412-4.527-0.905
				c-8.95,2.508-25.082,6.89-29.786,8.684C252.125,214.74,251.798,216.463,255.331,215.201z"/>
			<path style="fill:#231815;" d="M107.965,391.686c-14.473-0.452-24.387,0.193-25.485,1.548c-1.111,1.328,6.825,3.71,28.252,4.506
				c43.582,1.382,66.764-1.912,121.822-2.664c13.799-1.113,27.237-0.644,40.455-0.878c6.594-0.102,13.104-0.32,19.505-0.897
				c6.391-0.609,12.716-1.461,18.744-3.573c2.965-1.029,6.005-2.665,8.328-4.806c1.22-1.121,2.305-2.088,3.33-3.967
				c0.982-1.771,0.992-4.055-0.249-5.67c-0.578-0.805-1.39-1.485-2.209-1.996c-0.756-0.481-1.471-0.824-2.212-1.134
				c-1.471-0.611-2.932-1.032-4.382-1.384c-2.901-0.692-5.754-1.095-8.564-1.404c-11.24-1.129-21.762-0.923-31.465-0.488
				c-7.803,0.411-13.814,1.262-17.932,2.49l0.325,3.289c0.964-0.107,1.892-0.232,2.749-0.498c0.905-0.279,1.595-0.737,1.943-1.284
				c0.695-1.125,0.203-2.033,0.01-2.227c-0.249-0.212-0.304,0.163-0.916,0.582c-0.723,0.43-1.684,0.209-3.786-0.07l0.363,3.64
				l20.575-0.705c4.77-0.136,10.228-0.283,16.378-0.262c6.107,0.086,13.099,0.092,20.215,1.486c1.146,0.248,2.232,0.545,3.183,0.91
				c0.464,0.176,0.933,0.392,1.278,0.585l0.705,0.472c0.416,0.354,0.662,0.907,0.586,1.443c-0.114,0.6-0.221,0.869-0.751,1.6
				c-0.992,1.329-2.546,2.689-3.85,3.656c-1.385,0.976-2.924,1.749-4.486,2.379c-6.343,2.464-12.665,3.275-19.403,3.943
				c-6.779,0.61-14.164,0.84-23.466,0.939l-15.589,0.134c-2.901,0.041-5.973,0.096-9.239,0.242c-1.636,0.074-3.32,0.169-5.067,0.318
				l-2.61,0.276l-2.518,0.039C186.195,393.21,145.545,392.858,107.965,391.686z"/>
			<path style="fill:#231815;" d="M121.878,342.609c6.338,1.358,10.71-0.872,10.738-1.729c0.074-0.467-0.735-0.597-2.531-0.652
				c-1.788-0.091-4.651-0.132-8.633-1.191c-7.951-2.262-13.598-6.954-14.149-13.847c-0.243-3.406,0.487-7.28,2.845-10.691
				c1.144-1.641,2.934-3.298,4.999-3.961c2.173-0.559,4.765,0.308,7.045,1.787c1.712,1.106,3.231,2.5,4.532,4.037
				c0.784,0.921,1.499,2.013,2.174,3.31c0.345,0.635,0.667,1.29,0.971,1.932l0.385,0.739l0.185-0.236
				c0.172-1.83,0.411-3.979,0.969-5.238c0.294-0.741,0.616-1.109,0.918-1.509c0.314-0.406,0.674-0.772,1.052-1.12
				c1.519-1.389,3.449-2.265,5.404-2.736c3.901-0.932,8.217-0.11,10.682,2.52c0.606,0.647,1.123,1.366,1.476,2.168
				c0.238,0.556,0.416,1.65,0.484,2.462c0.124,1.763-0.076,3.516-0.51,5.167c-0.865,3.313-2.544,6.228-4.504,8.545
				c-2.361,2.798-4.504,4.356-5.711,5.326c-1.22,0.928-1.501,1.5-0.254,1.543c1.197,0.006,4.104-0.754,7.375-3.975
				c1.608-1.602,3.287-3.798,4.575-6.744c1.263-2.909,2.237-6.699,1.433-10.979c-0.758-4.044-3.626-6.083-6.046-7.176
				c-2.523-1.052-4.938-1.216-7.238-0.974c-2.303,0.264-4.585,0.933-6.812,2.391c-1.098,0.734-2.194,1.674-3.086,2.949l-0.325,0.491
				l-0.142,0.248l-0.261,0.562c-0.162,0.387-0.251,0.816-0.307,1.265c0.048,0.886-0.226-0.023-0.479-0.398
				c-0.264-0.45-0.576-0.898-0.936-1.345c-0.109-0.136-0.593-0.701-0.948-1.074c-0.388-0.407-0.796-0.817-1.235-1.216
				c-0.872-0.797-1.844-1.575-2.957-2.277c-2.115-1.316-4.547-2.398-7.263-2.207c-1.334,0.07-2.711,0.733-3.655,1.384
				c-1.047,0.667-1.973,1.495-2.779,2.391c-3.168,3.667-4.621,8.319-4.562,12.865c-0.005,4.636,2.465,9.039,5.795,11.789
				C113.915,340.035,117.866,341.747,121.878,342.609z"/>
			<path style="fill:#231815;" d="M129.656,303.189c-0.132,2.134,1.093,3.335,1.879,3.187c0.87-0.135,1.238-1.259,1.527-3.372
				c0.403-2.135,0.865-3.703,2.087-4.801c0.616-0.533,1.539-0.885,2.691-0.75c0.553,0.055,1.235,0.248,1.775,0.502l0.789,0.423
				l0.403,0.27l-0.025,0.485c-0.127,1.153-0.949,2.326-2.034,3.169c-1.07,0.837-2.331,1.37-3.568,1.649
				c-2.498,0.572-4.933-0.003-6.213-1.233l-1.524,1.969l1.146,0.95c3.053,2.506,5.29,0.114,0.672-3.369l-2.181,2.815
				c0.994,0.802,2.455,1.392,4.07,1.394c2.942-0.079,4.37-0.672,6.102-1.325c0.85-0.364,1.752-0.833,2.746-1.666
				c0.492-0.423,0.997-0.95,1.456-1.648c0.454-0.647,0.969-1.885,1.004-3.044l0.031-0.727l-0.472-0.485
				c-0.353-0.306-0.784-0.55-1.182-0.812c-0.943-0.548-1.438-0.75-2.234-1.023c-1.463-0.468-3.216-0.468-4.671,0.262
				C130.985,297.53,129.859,300.577,129.656,303.189z"/>
			<path style="fill:#231815;" d="M356.21,280.162c0.857,0.336,1.823,0.689,2.828,0.998c0.497,0.15,1.02,0.299,1.491,0.397
				l0.657,0.121l0.249,0.029l0.063,0.003l0.018,0.004l0.015,0.746c0.094,0.992,0.104,2.135,0.583,2.974
				c0.046,0.619,0.342,1.117,0.561,1.347c0.451,0.568,1.093,0.988,1.925,1.401c0.033,0.031-0.129,0.408-0.177,0.861
				c-0.132,0.923-0.119,2.286-0.056,3.653c0.274,5.548,1.017,11.288,1.217,14.887c0.469,7.254,1.463,12.008,2.518,16.715
				c1.055,4.717,3.802,12.75,6.115,19.471c2.402,6.634-0.208,5.85-2.214,2.682c-1.971-3.162-4.593-9.444-5.349-12.413
				c-0.931-2.93-4.314-18.47-4.628-20.904c-0.51-2.387-3.066-13.762-3.302-17.517c-0.142-1.883-0.071-4.318,0.281-7.138
				c0.112-0.71,0.243-1.436,0.522-2.222c0.145-0.395,0.317-0.802,0.598-1.234l0.565-0.662l0.464-0.339l0.35-0.169l0.238-0.076
				l0.576-0.044c-0.056-0.005,0.294,0.001,0.664,0.192c0.358,0.176,0.672,0.54,0.804,0.858c0.254,0.484,0.185,1.321-0.287,1.851
				l-0.284,0.271l-0.048,0.033l-0.096,0.065l-0.208,0.116l-0.436,0.163l-0.474,0.112l-0.68,0.099l-1.136,0.11
				c-0.703,0.059-1.382,0.136-2.026,0.249c-5.181,0.767-4.656-0.829-5.526-3.549C351.749,281.492,352.528,278.646,356.21,280.162z"
				/>
			<path style="fill:#231815;" d="M300.988,331.747c-0.624-0.287-1.179-0.39-1.958-0.28c-0.776,0.108-1.753,0.425-2.787,0.706
				c-2.123,0.63-4.469,0.801-5.531,1.807c-1.009,0.728-0.852,2.711-0.342,4.787c0.5,2.06,1.195,4.143,1.788,6.173
				c1.192,4.082,1.631,7.204,1.245,9.151c-0.441,1.801-0.708,2.202-0.697,1.62c-0.003-0.609-0.053-1.637-0.553-3.106
				c-0.484-1.48-1.306-3.493-2.272-6.478c-0.979-2.998-1.996-5.68-2.523-8.227c-0.243-1.276-0.378-2.582-0.03-3.875
				c0.335-1.307,1.253-2.327,2.024-2.873c1.587-1.06,2.117-1.02,3.38-1.228c0.647-0.083,1.293-0.129,2.422-0.377l2.026-0.5
				c0.811-0.188,1.91-0.51,3.345-0.326c2.833,0.578,4.065,2.095,5.108,3.008c0.999,1.004,1.572,1.803,1.895,2.359
				c0.629,1.116,0.177,1.271-0.837,0.517c-1.02-0.747-2.465-1.65-3.66-2.199C301.822,331.833,300.978,331.742,300.988,331.747z"/>
			<path style="fill:#231815;" d="M300.8,344.732c-0.649,2.305-0.644,5.92-2.097,8.716c-1.519,2.849-3.492,2.873-3.107,2.54
				c0.297-0.37-0.04-1.604,0.713-3.379c0.763-1.856,0.829-3.561,0.756-4.543c-0.089-1,0.413-0.453,0.888-3.362
				c0.246-1.473,0.713-2.318,1.357-2.773l0.667,0.101l0.129,0.426C300.173,343.153,300.802,344.759,300.8,344.732z"/>
			<path style="fill:#231815;" d="M282.659,315.612c-0.606-0.446-1.073-0.572-1.849-0.302c-0.753,0.248-1.638,1.011-2.523,1.824
				c-1.735,1.628-3.282,3.687-4.517,5.948c-1.215,2.25-2.178,4.773-2.343,7.111c-0.276,2.161,1.06,4.221,2.305,6.519
				c2.678,4.484,3.538,8.508,3.388,10.702c-0.091,2.23-0.446,2.847-0.446,2.077c-0.14-1.58-0.926-4.647-4.864-11.05
				c-0.959-1.659-2.001-3.228-2.638-5.031c-0.7-1.884-0.527-3.776-0.259-5.307c0.588-3.133,1.707-5.466,2.536-7.18
				c0.872-1.697,1.27-2.106,2.267-3.216c0.51-0.548,1.179-1.275,2.298-2.298c0.563-0.522,1.215-1.077,2.115-1.743
				c0.903-0.609,2.282-1.501,4.25-1.182c1.93,0.421,2.886,1.685,3.604,2.584c0.703,0.961,1.159,1.833,1.544,2.584
				c0.748,1.509,1.182,2.543,1.481,3.194c0.659,1.228,0.246,1.523-0.943,0.337c-1.085-1.189-2.295-2.913-3.411-4.055
				C283.537,315.937,282.639,315.583,282.659,315.612z"/>
			<path style="fill:#231815;" d="M283.679,333.317c-1.042,1.385-1.61,3.59-2.546,5.61c0.294-0.202,0.139,0.34,0.4,0.785
				l0.634,1.647c0.429,1.189,0.725,2.547,0.685,3.844c-0.112,2.64-1.24,4.143-1.897,4.858c-0.705,0.725-1.096,0.803-0.933,0.514
				c0.246-0.616,0.188-2.246,0.297-5.108c0-1.481-0.497-2.757-1.035-3.88c-0.266-0.572-0.548-1.103-0.768-1.74
				c-0.109-0.313-0.2-0.669-0.218-1.075l0.053-0.725l0.023-0.154l0.005-0.039l0.043-0.141l0.015-0.069
				c0.34-1.481,0.388-0.723,2.455-5.099c1.151-2.186,2.478-3.111,3.193-3.318c0.733-0.216,0.933,0.189,0.601,0.745
				C283.973,331.113,283.646,333.319,283.679,333.317z"/>
			<path style="fill:#231815;" d="M266.781,312.925c-0.791-0.218-2.176,0.217-3.482,1.082c-1.309,0.843-2.526,2.047-3.629,3.46
				c-1.108,1.416-2.105,3.029-3.114,4.715c-0.994,1.609-2.092,3.637-3.614,5.08l-0.107,0.209c0.058,0.131-0.081-0.109,0.165,0.375
				l0.522,1.083c1.027,2.178,1.479,4.404,1.387,6.187c-0.078,1.797-0.565,3.13-1.014,4.025c-0.949,1.778-1.593,2.047-1.301,1.452
				c0.264-0.618,0.337-1.722,0.211-3.346c-0.147-1.64-0.553-3.711-1.925-6.519l-1.375-2.658c-0.248-0.599-0.418-1.187-0.259-1.777
				c0.188-0.533,0.634-0.862,1.167-1.266c1.486-1.408,2.178-3.116,3.041-4.604l2.092-3.856c0.837-1.435,1.227-1.766,2.206-2.665
				c0.507-0.441,1.159-1.035,2.265-1.856c1.162-0.761,2.531-1.974,5.463-2.586c1.504-0.263,3.102,0.193,4.073,0.921
				c0.999,0.716,1.57,1.501,1.996,2.144c0.827,1.315,1.159,2.172,1.418,2.68c0.218,0.505,0.411,0.792,0.276,0.982
				c-0.109,0.184-0.667,0.193-1.273-0.283c-1.159-0.911-2.404-2.294-3.513-2.771C267.367,312.621,266.784,312.965,266.781,312.925z"
				/>
			<path style="fill:#231815;" d="M263.505,329.399c-0.624,0.538-1.197,1.27-1.628,2.143c-0.472,0.963-0.91,2.031-1.331,3.137
				c-0.85,2.208-1.656,4.673-3.071,6.757c-1.438,2.098-3.129,3.024-4.101,3.331c-1.022,0.283-1.385,0.18-1.098-0.003
				c0.578-0.431,1.24-1.876,2.919-4.465c1.648-2.76,2.194-5.524,2.615-7.1c0.185-0.805,0.347-0.995,0.71-1.541
				c0.416-0.489,0.753-1.53,2.457-3.66c1.79-2.047,3.533-2.383,4.286-2.324c0.809,0.098,0.771,0.552,0.259,0.924
				C264.362,327.383,263.444,329.404,263.505,329.399z"/>
			<path style="fill:#231815;" d="M325.823,347.913c-0.88,0.074-1.826,0.285-3.129,0.339c-1.324,0.092-2.932-0.357-3.999-0.893
				c-1.113-0.531-2.026-1.071-2.942-1.653c-0.941-0.597-1.823-1.289-2.582-2.053c-1.512-1.522-2.118-3.093-2.161-3.681
				c-0.137-0.692-0.429-0.978-0.117-0.994c0.474-0.195,2.592-0.076,4.568,1.641c2.072,1.712,4.448,2.615,5.556,2.715
				c0.553,0.025,0.586,0.138,0.84,0.373c0.261,0.2,0.601,0.593,2.511,0.202c3.878-0.881,5.202,0.957,4.131,1.645
				C327.469,346.229,325.846,347.914,325.823,347.913z"/>
			<path style="fill:#231815;" d="M344.529,345.998c7.704,0.908,18.833,0.998,27.919,3.493c4.534,1.229,7.522,2.882,9.094,4.094
				c1.572,1.231,1.841,1.855,1.253,1.505c-1.263-0.677-4.154-0.825-10.636-2.412c-6.568-1.543-12.059-1.736-15.229-1.749
				c-3.198,0.049-1.747-0.6-11.286-1.323c-9.627-0.619-11.253-2.901-8.47-2.814C339.901,346.76,344.529,345.986,344.529,345.998z"/>
			<path style="fill:#231815;" d="M480.105,388.833l-104.828-2.544c-17.101-0.072-29.165,0.276-36.273,0.056
				c-7.111-0.155-9.264-0.489-6.688-0.545c2.584-0.06,6.439-0.532,12.868-1.137c6.424-0.573,15.427-1.424,28.368-1.538
				c25.87,0.337,46.435,0.822,58.497,0.719c12.049-0.058,6.873,0.628,42.953,1.382c36.065,0.531,42.956,1.95,32.639,2.402
				L480.105,388.833z"/>
			<path style="fill:#231815;" d="M8.448,382.273c7.575,0.818,18.348,0.402,27.09-0.365c8.704-0.749,12.315-1.355,11.136-0.754
				c-1.212,0.424-3.414,2.9-10.289,3.839c-6.809,0.857-12.254,1.195-15.447,1.56c-3.19,0.296-1.831-0.252-11.344-0.69
				c-9.52-0.592-11.123-2.644-8.407-2.717C3.908,383.041,8.45,382.281,8.448,382.273z"/>
			<path style="fill:#231815;" d="M268.384,352.144c2.052,2.745,5.024,5.688,8.633,7.93c3.583,2.282,7.766,3.758,11.679,4.695
				c7.879,1.706,11.28,2.156,10.015,2.238c-1.225-0.11-3.786,0.868-10.005-0.292c-6.193-1.243-10.857-3.497-13.439-5.009
				c-1.296-0.761-1.618-1.065-2.485-1.858c-0.832-0.824-2.338-2.045-5.239-5.406c-2.843-3.414-3.938-5.844-4.337-6.994
				c-0.378-1.171,0.008-1.148,0.743-0.155C265.386,349.333,268.376,352.169,268.384,352.144z"/>
		</g>
		<path style="fill:#231815;" d="M383.539,235.56c-7.251-4.264-8.813,4.112-17.035,11.16c-8.222,7.049-9.396,9.395-0.586,9.983
			c8.81,0.59,17.618-3.524,21.729-3.524C391.761,253.179,393.526,241.432,383.539,235.56z"/>
		<path style="fill:#231815;" d="M380.014,269.627c10.786-0.514,22.322-3.524,21.146-1.177c-1.177,2.35-7.053,2.938-11.75,5.287
			c-4.697,2.35-4.694,4.699-12.919,5.287C368.267,279.611,367.681,270.215,380.014,269.627z"/>
		<path style="fill:#231815;" d="M397.634,287.833c-7.048,1.176-2.939-5.875,2.937-6.461c5.874-0.586,19.378,0.586,13.507,7.048
			C408.207,294.882,397.634,287.833,397.634,287.833z"/>
		<path style="fill:#231815;" d="M321.867,168.602c6.241,3.329,8.219,4.113,9.396,9.399c1.177,5.286-2.932,6.459-11.156,0.588
			c-8.227-5.873-14.098-2.935-12.924-7.635C308.357,166.254,313.059,163.904,321.867,168.602z"/>
		<path style="fill:#231815;" d="M352.995,334.821c-2.105-5.479-4.111-8.222,0-13.509c4.114-5.286,5.876-2.936,7.639,6.461
			C362.393,337.17,355.931,342.458,352.995,334.821z"/>
		<path style="fill:#231815;" d="M339.488,295.469c-1.76-7.635,2.348-5.872,5.871-1.173c3.525,4.697,3.525,7.048-2.934,5.872
			C335.965,298.992,339.488,295.469,339.488,295.469z"/>
	</g>
</g>
</svg>
