<?xml version="1.0" encoding="iso-8859-1"?>
<!-- Generator: Adobe Illustrator 22.1.0, SVG Export Plug-In . SVG Version: 6.00 Build 0)  -->
<svg version="1.1" id="_x33_" xmlns="http://www.w3.org/2000/svg" xmlns:xlink="http://www.w3.org/1999/xlink" x="0px" y="0px"
	 viewBox="0 0 512 512" style="enable-background:new 0 0 512 512;" xml:space="preserve">
<g>
	<path style="fill:#94C85C;" d="M96.06,200.682c0,0,13.759-74.877,31.391-99.97c17.632-25.093,39.82-45.877,39.82-45.877
		s2.777-30.282,31.646-29.459c25.018,4.857,15.115,22.171,25.018,25.617c9.903,3.446,66.969,2.985,66.969,2.985
		s6.347-28.788,27.086-30.805c20.739-2.017,32.929,39.907,32.929,39.907s40.154,34.607,56.846,71.48c3.581,21.745,0,46.676,0,46.676
		s22.845,41.689,31.872,80.996c9.027,39.307-23.741,100.879-23.741,100.879s51.425-5.685,79.413,28.399s9.873,86.853-38.887,91.956
		c-48.76,5.103-174.719-27.558-174.719-27.558l-117.457,23.239c0,0-125.271,45.282-150.886-19.768
		c-14.52-46.896,29.644-82.126,82.7-83.169c-23.595-22.223-26.62-67.983-19.561-106.122s12.103-57.302,12.103-57.302L96.06,200.682z
		"/>
	<path style="fill:#FFFFFF;" d="M170.035,169.175c16.492,8.549,4.985,76.025-16.811,101.242s-18.736,90.932,34.282,108.765
		c32.08,7.915,33.919-9.049,52.284-8.281c18.365,0.768,38.201,3.101,38.201,3.101s12.824-2.968,25.09-3.101
		c7.859-0.085,14.926,2.29,20.09,3.101c13.224,2.075,41.607-54.154,29.068-98.769c-12.539-44.615-17.562-72.853-8.989-93.997
		c8.572-21.144,2.514-21.819,2.514-21.819s-73.532,17.574-108.335,13.375C202.625,168.593,170.035,169.175,170.035,169.175z"/>
	<path style="fill:#FFFFFF;" d="M256.882,388.817c7.543,5.185,33.572,4.643,36.349-0.743
		C277.152,383.632,256.882,388.817,256.882,388.817z"/>
	<path d="M193.72,19.725c-4.967-0.184-9.785,1.181-14.116,3.446c-4.294,2.271-7.88,5.363-10.825,8.49
		c-5.904,6.29-9.403,12.699-11.771,15.89c-2.385,3.177-4.108,7.988-3.733,12.006c0.186,2.004,0.824,3.747,2.013,4.906
		c1.15,1.154,2.729,1.669,4.815,1.502c3.431-0.334,5.175-2.575,6.25-5.198c1.069-2.656,1.604-5.895,1.377-8.319
		c-0.214-2.304,1.659-10.345,7.162-17.29c2.685-3.44,6.228-6.5,9.99-8.156c3.738-1.689,7.605-2.038,10.027-1.436
		c2.482,0.512,4.76,1.788,6.74,3.536c1.922,1.767,3.776,4.067,4.838,6.256c2.277,4.784,3.574,10.25,5.354,14.464
		c0.854,2.139,2.66,3.737,4.46,4.257c1.84,0.56,3.449-0.107,4.232-1.089c0.818-1.004,1.176-2.304,1.249-3.278
		c0.06-1.007-0.438-2.094-2.143-4.447c-1.696-2.36-2.982-4.943-4.211-7.327c-1.254-2.418-2.332-4.765-4.024-7.263
		c-0.927-1.319-1.748-2.324-2.784-3.441c-1.001-1.102-2.146-2.21-3.523-3.266C202.434,21.835,198.486,19.913,193.72,19.725z"/>
	<path d="M240.339,50.993c7.798,0.946,18.663,0.346,27.395,0.232c4.383-0.04,7.48,0.116,9.429,0.398
		c1.935,0.257,2.687,0.729,2.022,0.897c-1.268,0.278-3.395,3.706-10.497,4.41c-6.996,0.585-12.549,1.044-15.808,1.613
		c-3.242,0.535-1.865-0.671-11.431-1.089c-9.479-0.374-11.279-3.452-8.54-4.099C235.666,52.723,240.339,50.993,240.339,50.993z"/>
	<path d="M289.733,35.335c1.684-3.424,3.242-7.566,6.09-12.044c1.39-2.231,3.361-4.521,5.867-6.457
		c1.365-0.841,2.682-1.857,4.252-2.345l2.316-0.848c0.774-0.168,1.555-0.291,2.341-0.425c1.609-0.343,3.094-0.306,4.598-0.269
		c1.478-0.058,3.076,0.226,4.668,0.553c1.603,0.255,3.055,0.988,4.567,1.528c1.343,0.769,2.818,1.47,3.984,2.411
		c4.9,3.652,8.009,8.294,10.192,12.698c2.16,4.448,3.201,8.368,3.842,11.613c0.634,3.251,0.799,5.854,0.799,7.802
		c-0.021,3.889-0.703,5.234-1.084,3.96c-0.391-1.276-1.946-2.929-3.948-5.763c-2.036-2.816-4.437-6.82-7.322-12.38
		c-1.491-2.749-3.165-5.155-4.964-7.06c-1.846-1.821-3.741-3.211-5.585-3.924c-0.919-0.359-1.816-0.561-2.653-0.719
		c-0.896,0.01-1.597-0.209-2.454-0.045c-0.817,0.11-1.582,0.178-2.255,0.294c-0.588,0.226-1.133,0.437-1.635,0.63
		c-0.905,0.474-1.338,0.79-1.885,0.894c-0.447,0.291-0.967,0.301-1.698,0.621c-1.404,0.61-4.08,2.182-7.477,10.643
		c-1.693,4.221-3.441,7.814-5.302,10.37c-0.925,1.288-1.83,2.322-2.751,3.101c-0.847,0.799-1.674,1.332-2.422,1.643
		c-2.859,1.256-3.508-0.383-2.388-2.57c1.098-2.332,1.727-5.741,1.964-8.644C289.639,37.703,289.733,35.335,289.733,35.335z"/>
	<path d="M134.5,95.551c-6.131,7.27-11.891,17.604-17.137,28.647c-1.294,2.785-2.599,5.592-3.905,8.404
		c-1.23,2.76-2.391,5.472-3.409,8.269c-2.09,5.55-3.742,11.181-5.169,16.611c-2.829,10.866-4.416,18.773-5.742,23.472
		c-1.257,4.708-2.212,6.203-2.201,4.444c0.028-1.753-0.955-4.388-1.646-8.879c-0.679-4.474-1.133-10.883,0.653-19.739
		c1.837-8.826,4.129-16.654,6.506-23.225c2.445-6.44,4.463-11.76,5.954-15.686c1.464-3.94,2.258-4.888,4.141-7.602
		c0.968-1.347,2.179-3.147,4.022-5.932c1.84-2.782,4.234-6.581,7.903-11.777c7.345-10.452,14.471-14.813,18.08-15.719
		c3.651-0.936,3.801,0.771,1.381,3.1c-2.406,2.46-4.964,6.287-6.663,9.61c-0.861,1.656-1.537,3.177-2.039,4.232
		C134.776,94.883,134.5,95.551,134.5,95.551z"/>
	<path d="M141.185,152.845c-3.973-1.854-8.056-4.343-11.61-5.297c-3.556-1.055-6.203-0.545-6.798,0.484
		c-0.643,1.084,0.345,2.422,2.593,4.628c1.157,1.123,2.645,2.518,4.823,4.306c2.192,1.723,5.023,4.031,9.672,5.732
		c8.05,2.8,15.897,4.177,23.666,5.454c3.829,0.616,7.863,1.286,11.979,1.756c4.104,0.483,8.282,0.824,12.576,1.098
		c8.586,0.545,17.632,0.764,27.512,1.059c9.855,0.312,20.668,0.79,32.718,0.971c24.108,0.437,48.538-0.891,70.144-5.335
		c5.408-1.058,10.608-2.408,15.594-3.826c4.897-1.43,9.607-2.8,14.124-4.23c9.016-2.847,17.109-6.088,23.625-9.935
		c6.406-3.749,9.982-8.417,11.094-11.396c1.089-3.088,0.212-4.261-2.001-3.553c-2.189,0.738-5.631,3.242-11.798,6.624
		c-6.122,3.47-15.254,7.602-28.21,12.836c-7.002,2.824-13.025,5.144-19.087,6.708c-6.07,1.604-12.093,2.815-18.808,3.718
		c-13.42,1.821-29.501,3.079-54.583,3.021c-10.039-0.022-20.096-0.576-30.129-1.332c-10.008-0.72-19.815-1.563-29.135-2.806
		c-4.659-0.619-9.195-1.337-13.565-2.17c-4.318-0.82-8.635-1.836-12.802-2.714c-4.138-0.896-8.073-1.776-11.752-2.727
		c-1.839-0.475-3.611-0.97-5.311-1.482c-0.842-0.269-1.671-0.533-2.489-0.795C142.395,153.36,141.876,153.161,141.185,152.845z"/>
	<path d="M366.968,75.779c7.695,8.383,18.189,17.814,27.037,30.034c4.423,6.177,8.185,12.635,11.278,19.634
		c3.037,6.959,5.228,14.452,5.522,22.019c0.036,0.943,0.016,1.877,0.016,2.786c-0.027,0.796-0.053,1.576-0.079,2.339
		c-0.054,1.543-0.113,3.079-0.218,4.587c-0.203,3.015-0.616,5.935-1.375,8.567c-0.187,0.658-0.401,1.297-0.625,1.915
		c-0.254,0.726-0.536,1.323-0.804,1.858c-0.538,1.075-1.075,1.978-1.597,2.825c-1.044,1.68-2.032,3.055-2.923,4.206
		c-1.8,2.301-3.171,3.627-4.171,4.249c-0.297,0.138-0.374,0.319-1.118,0.435c-0.417,0.03-0.703-0.275-0.786-0.45l0.01-0.153
		l0.478,0.318l0.416-0.046l0.195-0.134l0.478-0.576c1.21-1.751,1.778-4.891,2.919-9.813c0.261-1.215,0.579-2.599,0.753-3.929
		c0.132-1.312,0.208-2.893,0.18-4.575c-0.028-3.333-0.446-7.612-0.55-12.56c-0.432-9.311-3.994-17.534-7.538-23.995
		c-3.636-6.531-7.361-11.471-10.375-14.744c-3.042-3.312-3.678-4.426-5.663-7.404c-2.062-2.941-5.487-7.692-15.523-17.546
		c-10.103-9.842-15.108-17.087-16.57-20.946c-1.506-3.853,0.111-4.235,3.066-1.533C355.339,68.585,366.968,75.779,366.968,75.779z"
		/>
	<path d="M176.973,95.933c1.194,3.51,5.317,7.521,9.763,8.471c2.403,0.492,4.968,0.53,6.648-0.146c1.702-0.606,2.87-2.047,3.92-4.03
		c1.01-1.989,1.632-4.126,2.186-5.894c0.556-1.784,0.986-3.284,1.39-4.396c0.778-2.241,1.411-2.962,1.405-2.118
		c-0.01,0.841,0.633,2.093,1.141,4.264c0.465,2.152,0.994,5.326-0.557,9.789c-0.847,2.2-2.078,4.295-3.786,5.904
		c-1.678,1.675-3.841,2.555-5.739,3.049c-1.937,0.465-3.682,0.515-5.21,0.508c-1.493-0.073-2.829-0.117-4.08-0.368
		c-2.402-0.484-2.959-1.008-4.414-2.115c-1.328-1.251-3.951-2.788-7.596-8.515c-1.75-2.936-2.215-5.916-1.932-8.123
		c0.346-2.228,1.165-3.633,1.943-4.285c1.51-1.322,2.155-0.379,1.892,1.075c-0.218,1.564,0.361,3.547,1.242,4.841
		C176.026,95.168,176.973,95.933,176.973,95.933z"/>
	<path d="M305.923,88.427c1.322,1.267,3.177,2.476,5.243,3.456c2.023,0.965,4.494,1.79,6.345,1.91
		c0.509,0.013,1.775-0.187,2.699-0.521c0.994-0.276,1.888-0.774,2.754-1.292c1.717-1.08,3.125-2.662,4.316-4.371
		c2.354-3.481,3.456-6.656,4.273-8.548c0.756-1.925,1.323-2.662,1.359-1.892c0.021,0.752,0.732,1.858,1.13,3.915
		c0.382,2.013,0.518,5.144-1.491,8.938c-2.023,3.743-4.955,6.632-8.001,8.321c-1.527,0.826-3.033,1.445-4.42,1.803
		c-1.221,0.435-3.14,0.622-4.183,0.553c-2.255-0.097-2.758-0.471-4.181-1.202c-1.38-0.838-3.66-1.776-8.512-5.057
		c-2.391-1.727-4.147-3.646-4.916-5.975c-0.38-1.15-0.376-2.486,0.065-3.455c0.454-0.967,1.108-1.439,1.597-1.634
		c2.042-0.597,1.906,0.717,1.433,1.634c-0.404,1.053,0.792,1.871,2.06,2.529C304.743,88.153,305.923,88.427,305.923,88.427z"/>
	<path d="M79.953,252.059c-2.733,11.102-5.534,23.237-7.383,36.138c-0.916,6.443-1.574,13.066-1.811,19.784
		c-0.226,6.449,0.511,12.88,2.304,19.223c1.774,6.342,4.545,12.558,7.78,18.72c3.275,6.084,6.85,12.567,10.474,18.003
		c3.764,5.508,8.081,10.335,13.064,14.483c4.952,4.181,10.514,7.801,16.109,11.36c21.964,14.55,39.237,20.472,49.672,23.756
		c5.213,1.61,8.698,2.534,10.343,3.14c1.65,0.602,1.466,0.839-0.527,0.602c-3.976-0.503-10.106-0.178-20.218-1.839
		c-9.999-1.687-24.329-5.593-41.787-16.337c-8.644-5.184-17.076-10.436-23.984-16.946c-6.929-6.434-12.109-13.818-16.099-20.596
		c-4.01-6.641-7.661-12.879-10.489-18.824c-2.868-5.916-4.919-11.511-6.217-16.433c-1.326-4.925-1.656-8.248-1.797-11.252
		c-0.105-2.963,0.045-5.871,0.46-9.602c0.866-7.542,2.148-20.038,8.297-47.725c1.563-6.933,2.911-12.962,4.309-18.584
		c1.412-5.577,2.979-10.514,4.731-14.71c3.453-8.445,7.783-13.721,11.001-16.288c1.579-1.334,2.901-2.011,3.765-2.332
		c0.863-0.321,1.3-0.261,1.365,0.105c0.157,0.778-1.334,2.556-3.522,5.732c-4.502,6.39-7.015,16.659-8.128,25.113
		c-0.594,4.239-0.968,8.061-1.255,10.826C80.127,250.367,79.953,252.059,79.953,252.059z"/>
	<path d="M118.211,238.4c-3.023,16.332-2.724,40.158-2.414,59.206c0.163,9.531,0.462,15.962,1.175,19.237
		c0.313,1.72,0.772,2.467,1.041,3.08c0.273,0.611,0.211,0.853-0.394,0.538c-1.108-0.435-3.565-1.441-5.913-4.87
		c-2.353-3.343-4.459-8.677-5.077-16.285c-1.099-15.178-1.395-27.164-2.122-34.267c-0.311-3.544,0.002-4.538,0.585-7.264
		c0.597-2.729,1.368-7.183,2.531-17.653c1.2-10.47,3.683-16.582,5.779-19.136c2.185-2.547,3.422-1.396,3.235,1.429
		C116.301,228.307,118.211,238.4,118.211,238.4z"/>
	<path d="M139.376,340.712c5.222,7.419,13.185,14.761,23.035,19.583c2.638,1.214,5.299,2.437,7.963,3.661
		c2.687,1.266,5.375,2.531,8.044,3.787c5.277,2.472,10.43,4.803,15.318,6.801c9.782,4.068,16.441,5.698,20.359,5.62
		c1.969,0.009,3.345-0.27,4.099-0.336c0.774-0.053,0.906,0.166,0.247,0.634c-1.249,0.857-2.962,3.159-7.428,4.541
		c-4.377,1.387-11.067,1.485-19.273-1.334c-8.193-2.819-15.184-5.92-21.177-8.379c-2.981-1.236-5.711-2.347-8.089-3.195
		c-2.411-0.885-4.891-1.762-6.794-2.574c-3.921-1.619-4.824-2.544-7.308-4.742c-2.359-2.308-6.734-5.675-14.781-14.914
		c-7.845-9.39-10.376-16.129-11.077-19.532c-0.616-3.458,0.986-3.842,3.272-1.362c2.295,2.475,5.65,5.551,8.482,7.856
		C137.098,339.147,139.376,340.712,139.376,340.712z"/>
	<path d="M234.029,370.951c8.028-2.525,19.702-3.251,28.798,0.315c4.514,1.747,7.137,4.241,8.349,5.846
		c1.193,1.684,1.255,2.372,0.735,1.947c-1.156-0.861-4.145-1.271-10.097-3.432c-6.152-2.088-11.541-1.868-14.461-1.384
		c-1.485,0.217-1.894,0.149-3.066,0.045c-0.585-0.052-1.366-0.138-2.532-0.022c-1.178,0.056-2.754,0.279-4.836,0.899
		c-4.086,1.349-6.274,2.428-7.557,2.874c-1.353,0.385-1.852-0.149-0.997-1.355c0.404-0.613,0.897-1.334,1.52-1.955
		c0.587-0.673,1.212-1.386,1.849-1.889c0.621-0.539,1.185-1.063,1.607-1.392C233.769,371.138,234.029,370.951,234.029,370.951z"/>
	<path d="M252.741,392.562c-2.351,1.314-4.598,3.501-5.781,6.214c-1.111,2.677-1.01,5.953,0.453,8.552
		c1.408,2.366,4.652,4.595,7.89,6.229c3.302,1.669,6.832,2.941,10.231,3.903c6.826,1.892,11.74,2.174,14.296,1.594
		c1.294-0.267,2.105-0.677,2.537-0.885c0.457-0.193,0.567-0.097,0.223,0.327c-0.631,0.786-1.609,2.449-4.483,3.698
		c-2.803,1.203-7.226,1.892-13.021,0.621c-5.784-1.279-10.762-3.19-14.878-5.387c-4.062-2.201-7.422-4.906-9.096-8.221
		c-0.664-1.487-1.104-2.466-1.176-3.464c-0.134-0.977-0.224-1.867-0.045-3.176c0.064-0.651,0.104-1.401,0.364-2.28
		c0.19-0.894,0.463-1.919,0.983-3.081c0.977-2.316,2.739-5.283,6.246-8.148c3.523-2.865,7.123-3.829,9.81-4.15
		c2.748-0.193,4.665,0.187,5.775,0.741c2.216,1.052,1.502,1.867-0.618,1.941c-2.186,0.157-4.916,1.188-6.764,2.454
		c-0.943,0.608-1.678,1.248-2.174,1.735C252.992,392.223,252.741,392.562,252.741,392.562z"/>
	<path d="M243.362,421.059c4.454,4.07,13.904,6.192,20.695,6.598c3.464,0.236,5.482,0.025,6.831-0.322
		c1.304-0.4,2.073-0.749,1.775-0.22c-0.296,0.453-0.275,1.556-1.393,2.966c-1.086,1.383-3.395,2.77-6.66,2.895
		c-6.449,0.134-11.325-0.905-14.36-1.239c-1.503-0.215-1.86-0.517-2.856-1.16c-0.977-0.716-2.662-1.548-6.477-4.004
		c-3.847-2.531-5.126-5.733-4.891-7.233c0.209-1.53,1.212-1.453,1.885-0.674c0.757,0.821,2.136,1.518,3.317,1.88
		C242.4,420.927,243.362,421.059,243.362,421.059z"/>
	<path d="M232.665,430.429c4.497,4.368,13.002,7.377,19.802,9.176c3.429,0.958,5.895,1.672,7.443,2.271
		c1.54,0.576,2.113,1.136,1.533,1.169c-1.065-0.003-3.427,2.865-9.571,1.858c-5.975-1.12-10.633-2.543-13.476-3.277
		c-1.424-0.365-1.711-0.726-2.601-1.439c-0.86-0.772-2.348-1.849-5.794-4.367c-3.433-2.58-4.708-5.005-4.897-6.375
		c-0.201-1.375,0.616-1.806,1.613-1.203c0.983,0.63,2.503,1.204,3.727,1.601C231.704,430.21,232.665,430.429,232.665,430.429z"/>
	<path d="M191.975,418.277c11.397,5.845,25.416,15.659,37.353,20.939c5.98,2.699,10.381,4.386,13.106,5.479
		c2.712,1.127,3.606,1.998,2.547,1.906c-1.047-0.119-2.669,0.619-5.472,1.047c-2.761,0.318-6.856,0.453-12.059-1.554
		c-5.178-1.962-9.656-4.101-13.368-5.978c-3.747-1.852-6.8-3.366-9.108-4.364c-2.304-0.995-2.776-1.527-4.252-2.815
		c-1.478-1.2-3.877-3.392-10.225-6.621c-6.339-3.146-10.081-4.996-11.757-6.575c-1.662-1.564-1.136-2.645,1.069-2.469
		c2.212,0.089,5.204,0.287,7.727,0.49C190.041,418.054,191.975,418.277,191.975,418.277z"/>
	<path d="M283.789,369.412c3.641-0.801,8.037-2.024,12.824-2.561c5.17-0.654,10.247,0.688,14.26,2.027
		c4.065,1.405,6.601,2.641,8.153,3.227c1.527,0.593,2.185,0.891,1.561,0.992c-0.599,0.077-1.536,0.628-3.272,0.884
		c-1.719,0.257-4.125,0.151-7.211-0.711c-3.081-0.856-5.846-1.442-8.151-1.566c-2.347-0.143-3.964,0.199-5.42,0.599
		c-1.38,0.398-1.788,0.333-2.923,0.324c-1.13,0.012-3.003,0.021-7.233,1.175c-8.435,2.506-10.88,0.908-8.585-0.428
		C280.046,372.084,283.789,369.412,283.789,369.412z"/>
	<path d="M298.324,384.732c3.562,0.714,7.538,1.717,11.499,4.042c1.008,0.506,1.925,1.35,2.889,2.063
		c0.851,0.909,1.843,1.713,2.513,2.865c1.62,2.111,2.289,4.863,2.552,7.483c0.015,2.62-0.354,5.501-1.781,7.848
		c-1.252,2.446-3.152,4.288-5.071,5.81c-3.938,2.934-8.196,4.543-12.221,5.653c-8.431,2.167-14.311,1.868-17.578,1.6l-12.441-1.022
		l11.64-1.764c0.511-0.077,0.802-0.171,1.164-0.45c0.349-0.276,0.685-0.572,0.921-0.698c0.49-0.258,0.515-0.101,0.162,0.376
		c-0.429,0.559-0.49,1.429-1.537,2.234l-0.085-0.291c2.758-1.062,7.458-2.629,15.456-4.851c5.516-1.579,10.147-4.065,12.744-6.996
		c2.575-2.962,2.544-6.021,2.013-7.972c-0.569-1.935-0.798-2.307-1.409-3.792c-0.435-0.676-1.044-1.597-2.491-2.736
		c-1.496-1.074-3.874-2.322-7.649-3.156c-7.615-1.515-12.462-1.405-14.725-1.928c-2.301-0.398-2.222-1.317,0.172-2.06
		c2.365-0.667,5.61-1.396,8.344-1.77C296.13,384.818,298.324,384.732,298.324,384.732z"/>
	<path d="M285.816,427.922c2.318,0.906,5.622,0.948,8.929,0.456c3.33-0.48,6.697-1.436,9.711-2.278
		c3.028-0.836,5.143-1.377,6.592-1.623c1.374-0.3,2.166-0.193,1.768,0.144c-0.401,0.296-0.509,1.328-1.331,2.535
		c-0.763,1.282-2.229,2.733-4.769,3.788c-5.084,1.964-9.271,3.167-11.841,3.967c-1.28,0.4-1.684,0.239-2.714,0.071
		c-1.046-0.261-2.705-0.37-6.663-1.086c-4.027-0.832-5.998-2.999-6.314-4.289c-0.388-1.268,0.423-1.772,1.359-1.484
		c0.921,0.362,2.338,0.348,3.392,0.214C285.047,428.143,285.816,427.922,285.816,427.922z"/>
	<path d="M279.658,438.835c5.028,1.851,13.109,0.413,19.402-0.532c6.29-0.928,9.534-0.545,8.726,0.001
		c-0.85,0.391-1.797,3.707-7.144,5.1c-5.301,1.205-9.543,2.167-12.06,2.739c-1.28,0.348-1.668,0.14-2.672-0.088
		c-1.011-0.272-2.639-0.535-6.508-1.227c-3.915-0.799-5.952-2.678-6.403-3.946c-0.498-1.228,0.239-1.821,1.211-1.606
		c0.968,0.267,2.397,0.192,3.499,0.008C278.828,439.099,279.658,438.835,279.658,438.835z"/>
	<path d="M300.415,443.479c12.019-4.976,27.09-15.852,35.164-27.461c4.102-5.753,6.292-10.37,7.674-13.222
		c1.38-2.855,2.341-3.793,2.145-2.638c-0.248,1.13,0.428,2.97,0.45,6.076c-0.079,3.031-0.529,7.631-3.866,12.898
		c-3.29,5.219-6.841,9.492-10.119,12.834c-3.242,3.394-6.109,5.997-8.199,7.971c-2.103,1.961-2.929,2.194-4.936,3.18
		c-2.053,0.89-5.288,2.546-12.69,6.35c-7.435,3.752-12.34,4.78-14.82,4.726c-2.489-0.07-2.61-1.313-0.645-2.627
		c1.969-1.309,4.456-3.329,6.428-5.016C298.928,444.817,300.415,443.479,300.415,443.479z"/>
	<path d="M327.71,365.767c2.577-0.094,11.001-2.825,20.298-10.538c4.533-3.955,9.359-8.854,13.877-14.63
		c4.497-5.787,8.846-12.257,12.868-18.997c3.983-6.767,7.68-13.767,11.07-20.556c1.675-3.386,3.366-6.751,4.821-9.956
		c0.677-1.592,1.341-3.155,1.99-4.682c0.593-1.549,1.026-3.119,1.53-4.613c0.533-1.487,0.887-2.984,1.2-4.44
		c0.318-1.453,0.698-2.84,0.931-4.202c0.353-2.748,0.912-5.234,1.004-7.518c0.456-4.53,0.401-8.012,0.449-10.012
		c-0.062-12.258-3.012-23.845-6.145-32.661c-3.156-8.852-6.296-15.122-7.242-17.688c-1.852-5.141-2.204-7.683,1.003-8.983
		c3.164-1.279,4.879-0.854,7.048,4.977c1.104,2.899,4.334,12.775,6.547,23.576c2.345,10.776,3.38,22.438,3.556,28.171
		c0.423,7.473,0.135,15.296-1.261,23.111c-0.42,1.938-0.751,3.909-1.257,5.843l-1.712,5.775c-1.429,3.771-2.957,7.547-4.591,10.97
		c-6.399,14.066-13.409,27.717-21.07,39.35c-7.71,11.59-16.2,21.097-24.165,27.172c-4.006,2.988-7.655,5.332-10.798,6.757
		c-3.005,1.662-5.456,2.36-6.749,2.855c-1.301,0.478-2.454,0.872-3.48,1.13c-1.061,0.147-1.98,0.218-2.772,0.23
		c-1.585,0.021-2.653-0.204-3.37-0.582c-1.43-0.76-1.484-2.136-1.574-3.507c-0.074-1.371,0.982-2.905,2.463-4.07
		C323.676,366.886,325.617,366.194,327.71,365.767z"/>
	<path d="M434.013,226.956c3.501,11.018,5.772,23.637,6.354,36.979c0.388,13.311-0.301,27.271-3.125,41.361
		c-1.392,7.022-3.239,14.057-5.764,20.879c-2.445,6.846-5.457,13.522-9.062,19.805c-7.013,12.702-16.403,23.705-26.364,32.783
		c-9.525,8.643-18.027,16.172-25.741,21.566c-7.715,5.424-14.519,8.885-19.855,10.682c-5.346,1.824-9.078,2.073-10.813,2.075
		c-1.745,0.004-1.609-0.278,0.309-0.72c3.866-0.854,9.311-3.593,16.914-9.485c7.71-5.862,17.133-15.273,31.236-28.834
		c14.216-12.956,24.005-27.216,29.807-40.52c5.891-13.261,8.276-25.11,9.39-33.808c0.939-8.757,1.445-11.203,2.313-18.101
		c0.416-3.432,0.89-8.059,0.928-15.061c-0.028-6.981-0.428-16.506-3.7-29.272c-3.416-12.717-7.845-22.325-11.472-29.673
		c-3.672-7.34-6.688-12.38-8.318-15.774c-3.452-6.676-1.533-6.675,3.64-0.68c5.097,6.007,11.529,14.485,16.037,22.01
		c1.096,1.901,2.13,3.693,3.063,5.311c0.866,1.667,1.638,3.153,2.283,4.396C433.329,225.387,434.013,226.956,434.013,226.956z"/>
	<path d="M73.632,381.154c-2.051,0.077-6.408,0.747-12.347,2.501c-5.931,1.751-13.411,4.768-21.253,9.59
		c-7.774,4.849-15.959,11.593-22.201,20.543c-6.24,8.866-10.219,20.154-9.323,31.599c0.371,5.686,1.79,11.365,3.955,16.634
		c2.137,5.118,5.499,9.598,9.547,13.217c8.17,7.278,18.523,11.177,27.868,13.593c9.454,2.324,18.159,3.281,25.186,3.67
		c7.036,0.409,12.414,0.311,15.509,0.241c18.869-0.441,36.984-4.487,49.772-10.045c13.702-5.77,23.623-10.216,27.588-11.698
		c7.961-2.883,11.765-3.568,13.387,0.4c1.597,3.926,0.796,6.222-8.125,9.516c-4.523,1.687-19.341,6.427-35.485,11.385
		c-16.484,4.499-34.326,5.724-43.043,6.308c-11.386,0.741-23.269,0.717-35.238-0.927c-11.915-1.677-24.119-4.76-35.029-11.303
		c-5.412-3.272-10.431-7.507-14.329-12.721c-1.964-2.586-3.584-5.43-4.915-8.377c-1.246-2.919-2.305-5.757-3.092-8.763
		c-3.376-11.896-2.488-24.773,1.756-35.44c4.15-10.768,10.947-19.359,17.944-25.981c7.015-6.694,14.395-11.465,21.024-15.11
		c13.39-7.167,23.99-9.461,27.882-10.456c7.911-1.857,12.162-1.289,14.189-0.175c2.047,1.115,2.023,2.828,2.035,4.538
		c-0.001,1.717-1.76,3.455-4.218,4.741C80.201,379.998,77.005,380.94,73.632,381.154z"/>
	<path d="M198.751,463.922c16.745-2.191,39.688-6.924,58.688-9.483c9.506-1.258,16.099-1.782,20.167-1.898
		c3.97-0.256,5.586,0.242,4.212,0.756c-1.361,0.471-2.979,2.348-6.274,4.327c-3.256,2.09-8.13,4.3-15.398,5.747
		c-14.519,2.737-25.97,5.299-32.559,7.355c-6.557,2.087-4.085-0.593-24.066,2.789c-9.908,1.819-15.848,2.042-18.839,1.609
		c-3.049-0.527-3.201-2.097-0.484-3.492C189.632,468.753,198.751,463.922,198.751,463.922z"/>
	<path d="M446.12,356.447c-9.497-0.851-17.179,0.312-22.561,1.681c-5.384,1.423-8.6,3.198-9.126,4.897
		c-0.524,1.699,1.723,3.33,7.342,4.457c2.807,0.567,6.433,1.012,10.886,1.413c4.449,0.407,9.708,0.79,15.642,1.672
		c12.086,1.827,21.323,5.987,29.199,12.209c4.126,3.187,7.83,6.679,11.275,10.36c3.44,3.685,6.55,7.664,9.025,12.071
		c2.494,4.388,4.456,9.191,5.316,14.43c0.865,5.225,0.541,10.898-1.432,16.571c-0.593,1.386-1.191,2.791-1.8,4.217
		c-0.714,1.386-1.582,2.73-2.388,4.138c-1.809,2.745-4.056,5.447-6.198,8.307c-1.032,1.482-2.342,2.74-3.632,4.065
		c-1.294,1.322-2.611,2.668-3.951,4.035c-1.271,1.453-2.939,2.491-4.45,3.77c-1.563,1.214-3.112,2.513-4.777,3.709
		c-13.69,9.108-29.755,13.654-45.518,14.088c-15.794,0.604-31.182-1.594-45.808-4.31c-7.321-1.396-14.484-2.898-21.482-4.407
		c-3.504-0.755-6.963-1.499-10.376-2.232c-3.294-0.714-6.532-1.561-9.723-2.479c-6.382-1.836-12.585-3.937-18.728-5.852
		c-3.072-0.958-6.124-1.876-9.17-2.697c-3.416-0.906-6.512-1.334-9.475-1.776c-11.56-1.503-19.202-1.91-23.194-2.574
		c-1.078-0.1-1.802-0.278-2.576-0.313c-0.655-0.098-1.297-0.113-1.807,0.012c-1.004,0.229-1.577,1.156-0.71,3.331
		c0.913,2.062,3.577,4.561,7.576,6.482c3.969,1.913,9.267,3.406,15.521,4.585c3.103,0.607,6.526,1.15,9.773,1.842
		c1.396,0.328,3.297,0.841,5.218,1.375c1.934,0.536,3.943,1.095,6.032,1.674c8.392,2.286,18.477,5.273,30.546,6.722
		c24.653,2.991,38.802,5.519,55.9,7.027c8.536,0.78,17.921,1.239,29.729,0.009c11.667-1.318,26.367-4.597,41.944-15.119
		c2.968-2.246,5.821-4.592,8.699-6.853c2.586-2.567,5.154-5.114,7.701-7.643c2.353-2.685,4.52-5.488,6.767-8.193
		c1.151-1.292,2.155-2.841,3.149-4.392l1.499-2.302c0.448-0.801,0.832-1.644,1.248-2.464c3.346-6.543,5.023-14,4.744-21.25
		c-0.241-7.264-2.25-14.189-5.139-20.394c-2.902-6.225-6.663-11.811-10.843-16.862c-4.248-5.086-8.699-9.495-13.944-13.622
		c-5.243-4.068-11.166-7.278-17.317-9.449C458.574,358.221,452.256,357.031,446.12,356.447z"/>
	<path d="M361.762,419.452c10.427-3.131,25.26-5.849,37.765-6.091c12.491-0.189,17.436,1.827,15.578,1.772
		c-1.865,0.03-5.549,1.732-14.741,2.18c-9.207,0.512-16.475,1.842-20.602,2.959c-2.078,0.521-2.675,0.567-4.352,0.689
		c-1.661,0.155-4.437,0.364-10.505,2.139c-5.999,1.894-9.429,3.198-11.169,3.691c-1.797,0.422-1.989-0.241-0.496-1.46
		c0.729-0.625,1.597-1.349,2.544-1.984c0.927-0.679,1.882-1.395,2.782-1.925c0.897-0.57,1.69-1.077,2.262-1.439
		C361.408,419.652,361.762,419.452,361.762,419.452z"/>
	<path d="M374.776,408.214c7.089-1.393,17.165-4.445,26.062-4.015c4.411,0.198,7.431,1.169,9.108,1.94
		c1.686,0.789,2.108,1.309,1.482,1.204c-1.295-0.169-4.015,0.921-10.153,0.858c-6.216,0.027-11.12,1.292-13.89,2.219
		c-2.77,1.029-1.72-0.276-10.289,1.785c-8.542,2.2-10.777,0.603-8.441-0.524C370.978,410.57,374.776,408.214,374.776,408.214z"/>
	<path d="M378.063,396.746c7.226-1.913,17.474-4.627,26.56-3.196c4.511,0.694,7.533,2.659,8.834,4.142
		c1.228,1.678,1.225,2.275,0.749,1.864c-0.53-0.391-1.466-0.853-3.055-1.068c-1.518-0.336-3.611-0.511-6.592-0.927
		c-6.072-0.711-11.076,0.425-13.822,1.246c-1.387,0.426-1.799,0.414-2.944,0.435c-1.129,0.061-3.028,0.134-7.165,1.341
		c-4.085,1.282-6.532,1.877-7.793,2.011c-1.323,0.083-1.591-0.529-0.557-1.411c1.004-0.893,2.428-2.03,3.63-2.895
		C377.103,397.385,378.063,396.746,378.063,396.746z"/>
	<path d="M386.954,386.619c3.229-0.511,7.097-1.441,11.294-1.794c4.178-0.402,8.653-0.172,12.472,0.888
		c3.822,1.053,6.22,2.471,7.523,3.484c1.312,1.01,1.583,1.582,1.055,1.389c-1.092-0.33-3.743,0.294-9.035-0.885
		c-5.357-1.19-9.757-0.596-12.194,0.021c-2.452,0.771-1.456-0.566-9.026,0.968c-7.533,1.802-9.601,0.224-7.535-0.844
		C383.548,388.801,386.954,386.619,386.954,386.619z"/>
	<path d="M235.739,159.322c-6.647,1.208-10.357-9.438-3.998-9.91c2.849-0.211,4.989,1.567,6.017,3.678
		C239.025,155.692,238.604,158.801,235.739,159.322z"/>
	<path d="M268.768,159.417c-4.527,1.448-1.888-10.51,2.831-10.021c2.36,0.244,3.421,2.183,3.008,4.344
		C274.194,155.903,272.308,158.285,268.768,159.417z"/>
	<path d="M81.684,214.156c13.674,4.756,17.618,3.566,14.753,14.268c-2.864,10.7,7.06,13.672-2.659,20.806
		c-9.717,7.134-17.812,10.883-20.601,7.225C70.388,252.797,81.684,214.156,81.684,214.156z"/>
	<path d="M411.642,205.761c-10.709-3.031-7.132,19.591,0,24.497c7.131,4.906,1.949,21.082,11.22,15.538
		C432.133,240.251,423.318,209.067,411.642,205.761z"/>
	<path d="M72.735,270.417c14.042,1.545,14.649,6.754,12.71,12.736c-1.94,5.981-2.219,14.158-12.71,12.522
		C62.244,294.04,72.735,270.417,72.735,270.417z"/>
	<path d="M404.885,264.602c12.252,6.543,16.846,12.569,14.548,18.55c-2.296,5.983-7.175,14.584-14.548,12.736
		c-7.374-1.848-11.211-4.053-9.521-9.152C397.055,281.637,404.885,264.602,404.885,264.602z"/>
</g>
</svg>
