<?xml version="1.0" encoding="iso-8859-1"?>
<!-- Generator: Adobe Illustrator 22.1.0, SVG Export Plug-In . SVG Version: 6.00 Build 0)  -->
<svg version="1.1" id="_x32_" xmlns="http://www.w3.org/2000/svg" xmlns:xlink="http://www.w3.org/1999/xlink" x="0px" y="0px"
	 viewBox="0 0 512 512" style="enable-background:new 0 0 512 512;" xml:space="preserve">
<g>
	<path style="fill:#94C85C;" d="M404.821,388.403c-3.988,4.765-14.349,7.149-23.104,8.755c-8.756,1.58,1.604,4.767-6.373,7.149
		c-3.742,1.138-9.267,1.919-15.483,1.919c-6.951,0-14.771-0.981-21.922-3.499c-13.546-4.769-13.546-11.14-19.917-11.942
		c-6.373-0.803-45.383-3.187-45.383-3.187s-1.092,8.424-3.208,19.407H2.616c-1.403-26.535-0.98-52.669-0.111-61.759
		c1.626-17.131,17.934-80.762,37.518-95.443c-1.626-22.858,31.815-61.2,65.255-86.488c16.309-26.913,24.462-35.89,38.342-37.518
		c13.858-1.625,15.774,8.244,16.375,11.518c0.602,3.277,1.492,3.877,5.659,3.566c4.165-0.289,45.516-11.007,45.516-11.007
		s5.948-19.338,19.939-23.215c13.991-3.853,22.013,12.21,21.12,18.759c-0.891,6.551-0.891,13.992-0.891,13.992
		s27.67-3.274,40.169-5.08c12.499-1.782,19.94,6.862,15.172,13.992c-4.745,7.152-22.012,21.433-25.888,24.107
		c-3.855,2.674-43.979,46.383-36.806,80.605c7.151,34.243,40.593,73.253,58.907,79.626c18.313,6.373,23.104,7.952,32.639,3.988
		c9.558-3.988,22.302-14.349,38.23-7.175c15.93,7.175-3.185,19.918,9.558,27.07c12.721,7.175,10.338,10.361,15.908,10.361
		c5.593,0,10.36,11.94-18.314,13.524C399.228,383.612,408.786,383.612,404.821,388.403z"/>
	<path style="fill:#FFFFFF;" d="M152.555,242.118c-20.46,5.337-11.565,15.121,0,22.238c11.564,7.117,10.674,24.02,10.674,24.02
		s96.963,55.152,106.748,54.262c9.785-0.888,6.227-37.361,5.337-45.368c-0.89-8.004-11.564-38.251-15.122-50.704
		c-3.558-12.454-3.558-24.018,0.889-35.581c4.448-11.566,16.902-36.473,16.902-36.473s-27.576,17.791-48.036,29.357
		C209.486,215.431,152.555,242.118,152.555,242.118z"/>
	<path style="fill:#FFFFFF;" d="M268.651,407.005h-129.13c-2.183-16.398-1.403-32.997,4.144-45.694c0,0,5.325-0.892,15.997,4.456
		c10.693,5.346,32.037,1.78,72.964,13.344c40.904,11.564,38.231,3.566,39.121,12.456
		C271.948,393.592,270.812,399.273,268.651,407.005z"/>
	<path style="fill:#B4B4B5;" d="M464.196,402.486c1.279-1.921,3.839-55.678-2.561-69.12c-6.4-13.439-37.118-20.478-37.118-20.478
		s-1.92,8.32-5.12,7.038c-3.199-1.279-19.199-10.879-19.199-10.879l3.201-6.401c0,0-6.4-2.559-10.88-6.399
		c-4.481-3.84,2.56-14.081,12.8-14.721c10.239-0.64,61.438,19.84,61.438,19.84l3.199-15.36c0,0-8.959-6.399-18.56-11.518
		c-9.599-5.122-8.96-14.721,3.201-13.441c12.16,1.281,35.839,11.52,45.438,16c9.6,4.48,10.24,12.16,6.4,14.721
		c-3.839,2.559-12.8,1.919-12.8,1.919l1.28,19.84c0,0,6.4,1.919,8.96,12.8c2.56,10.878,7.68,67.838,4.48,73.597
		C505.154,405.687,464.196,402.486,464.196,402.486z"/>
	<path style="fill:#ABDDFF;" d="M423.708,350.653c-3.389-0.485-1.907-8.263,2.542-7.628c2.762,0.396,3.687,3.607,2.394,5.757
		C427.855,350.096,426.239,351.014,423.708,350.653z"/>
	<path style="fill:#ABDDFF;" d="M437.69,368.13c-3.387-0.485-1.906-8.263,2.542-7.628c2.763,0.396,3.688,3.607,2.394,5.759
		C441.837,367.573,440.221,368.491,437.69,368.13z"/>
	<path style="fill:#FFFFFF;" d="M415.446,378.617c-3.389-0.485-1.907-8.263,2.542-7.628c2.762,0.396,3.687,3.607,2.393,5.759
		C419.593,378.06,417.976,378.978,415.446,378.617z"/>
	<path style="fill:#ABDDFF;" d="M438.327,393.553c-3.389-0.485-1.907-8.263,2.542-7.628c2.762,0.396,3.687,3.607,2.393,5.759
		C442.473,392.996,440.856,393.914,438.327,393.553z"/>
	<path style="fill:#ABDDFF;" d="M373.816,318.555c-3.388-0.483-1.907-8.261,2.542-7.626c2.762,0.394,3.687,3.607,2.394,5.757
		C377.963,318,376.347,318.918,373.816,318.555z"/>
	<path style="fill:#ABDDFF;" d="M336.001,314.743c-3.389-0.485-1.907-8.263,2.542-7.628c2.762,0.396,3.687,3.607,2.393,5.759
		C340.146,314.186,338.53,315.104,336.001,314.743z"/>
	<path style="fill:#ABDDFF;" d="M424.026,387.833c-4.766-0.953-6.99-1.271-8.58-2.861c-1.588-1.588,3.814-5.085,0.954-5.085
		c-2.86,0-4.449-1.588-3.179-5.402c1.272-3.814,3.179-6.038-2.223-5.402c-5.403,0.635-6.039-2.541-2.861-5.085
		c3.179-2.543,10.169-8.896,7.309-9.852c-2.86-0.953-8.262,2.226-12.075,3.814c-3.814,1.588-6.992,4.132-6.674-0.635
		c0.318-4.767,10.54-27.157,16.94-38.677c0,0-7.088-7.402-9.948-5.811c-2.86,1.588-22.245,24.785-22.245,24.785
		s-1.906-7.946-3.813-11.44c-1.907-3.496-5.402,2.541-4.767,9.534c0.173,1.906,0.56,3.742,0.966,5.487
		c-0.412-0.239-0.844-0.666-1.26-1.427c-1.533-2.811-5.62-2.554-4.598,2.809c1.021,5.365,3.577,10.985,1.021,10.985
		c-2.554,0-2.554-3.32-6.386-1.788c-3.832,1.532-0.767,8.174,3.831,11.751c0,0,3.066,3.066,3.577,0.766
		c0.069-0.311,0.254-0.912,0.511-1.686c0.42,2.076,1.979,3.742,5.514,4.247c8.899,1.271,23.196,0.039,23.196,0.039
		s7.311-0.992,5.722,4.408c-1.588,5.404-14.3,9.852-14.3,9.852s11.757-3.812,10.487-2.224c-1.272,1.588-7.627,3.176-7.627,3.176
		s6.355,1.591,7.944,5.087c1.589,3.494-5.402,7.626-8.58,8.261c-3.179,0.635,1.271,4.767,1.271,4.767s10.804,0.953,17.796,0
		c6.992-0.953,5.72-3.177,10.169-5.402C426.568,392.598,428.793,388.786,424.026,387.833z M374.832,350.82
		c-0.1,0.35-0.227,0.692-0.389,1.023C374.575,351.495,374.704,351.155,374.832,350.82z"/>
	<path style="fill:#231815;" d="M118.265,145.824c-3.908,5.938-6.153,10.563-7.932,13.731c-1.743,3.183-2.949,4.965-3.915,5.5
		c-0.955,0.537-1.571-0.165-1.669-1.81c-0.127-1.645,0.396-4.208,1.77-7.114c2.792-5.781,6.003-11.303,9.656-16.2
		c3.678-4.856,7.758-9.099,11.974-12.134c4.171-2.948,8.655-5.985,14.502-7.004c2.875-0.487,6.113-0.222,8.903,1.023
		c2.789,1.214,5.05,3.179,6.756,5.398c1.74,2.202,3.205,5.428,3.861,8.596c0.688,3.181,0.768,6.288,0.67,8.644
		c-0.262,4.719-0.893,6.573-1.882,0.55c-1.085-5.953-2.761-9.886-5.359-12.978c-1.312-1.543-2.87-2.937-4.792-3.934
		c-1.936-0.99-4.115-1.525-7.06-1.014c-2.947,0.505-6.257,2.117-9.385,4.149c-3.155,1.984-6.057,4.245-8.462,6.407
		c-2.429,2.143-4.287,4.249-5.622,5.731C119.008,144.9,118.265,145.824,118.265,145.824z"/>
	<path style="fill:#231815;" d="M175.607,141.54c-14.188,4.76-14.649-2.439-8.46-3.27c6.19-0.833,11.925-3.549,16.756-4.715
		c4.83-1.168,9.661-2.337,14.644-2.878c4.982-0.54,15.248-0.361,9.363,1.725c-5.885,2.089-8,3.927-15.243,5.678
		C185.42,139.835,175.607,141.54,175.607,141.54z"/>
	<path style="fill:#231815;" d="M221.398,117.303c-3.962,4.419-5.914,7.965-6.787,10.422c-0.874,2.458-0.924,4.147-1.407,5.05
		c-0.469,0.899-1.352,0.894-2.38-0.42c-1.005-1.271-1.608-4.175-0.563-7.149c2.146-5.807,5.96-10.008,9.655-13.707
		c1.894-1.843,3.928-3.562,6.221-4.906c2.265-1.355,4.845-2.311,7.438-2.546c2.575-0.255,5.309,0.133,7.687,1.147
		c2.398,0.983,4.492,2.472,6.198,4.232c3.44,3.47,5.528,8.118,6.154,12.665c0.335,2.274,0.368,5.102,0.057,7.791
		c-0.297,2.693-0.861,5.259-1.415,7.199c-1.133,3.875-2.08,5.341-1.954,0.111c0.082-5.213-0.396-8.814-1.351-12.351
		c-0.485-1.749-1.088-3.549-1.984-5.309c-0.903-1.777-2.127-3.725-3.985-5.561c-1.848-1.841-4.26-3.257-6.761-3.573
		c-2.512-0.366-5.162,0.357-7.407,1.506c-2.256,1.138-4.109,2.578-5.391,3.636C222.136,116.609,221.398,117.303,221.398,117.303z"/>
	<path style="fill:#231815;" d="M303.239,139.98c-0.51-1.079-1.586-1.912-3.289-2.28c-1.684-0.383-3.747-0.302-5.933-0.126
		c-4.433,0.344-8.814,0.814-13.053,1.284c-8.48,0.942-16.397,1.889-23.039,1.838c-13.282-0.102,2.757-6.486,10.993-7.197
		c4.116-0.357,9.88-0.853,16.055-1.388c3.094-0.265,6.291-0.542,9.436-0.814c3.209-0.226,7.124-0.49,10.846,1.536
		c0.879,0.487,2.115,1.334,3.22,2.724c1.094,1.379,2.026,3.272,2.381,5.42c0.387,2.147,0.297,4.541-0.43,6.999
		c-0.76,2.535-2.18,4.797-3.923,6.812c-1.748,2.012-3.804,3.731-5.891,5.326c-2.082,1.593-4.204,3.081-6.4,4.695
		c-4.355,3.222-9.019,6.453-13.667,9.686c-18.615,12.906-38.023,24.202-42.343,26.68c-4.311,2.498-23.625,13.111-44.54,22.795
		c-20.864,9.799-43.313,18.509-51.693,22.188c-8.356,3.779-14.663,4.658-17.811,4.369c-3.162-0.316-3.249-1.93,0.549-3.559
		c1.896-0.825,5.279-2.071,9.326-3.599c4.023-1.59,8.772-3.29,13.357-5.137c9.214-3.57,17.929-7.278,20.221-8.2
		c1.135-0.492,5.065-2.03,10.493-4.145c5.388-2.202,12.279-4.98,19.246-8.102c13.975-6.157,28.378-13.433,33.236-16.59
		c4.961-2.987,14.504-8.731,24.231-14.588c9.66-5.961,19.387-12.221,24.797-16.015c5.391-3.74,13.096-10.287,19.562-16.392
		c3.104-3.055,5.02-6.466,5.124-9.036C304.531,142.406,303.608,140.733,303.239,139.98z"/>
	<path style="fill:#231815;" d="M113.072,257.542c3.913,2.419,7.538,2.67,9.912,2.861c2.433,0.146,3.946,0.076,4.732,0.455
		c0.786,0.363,0.768,1.112-0.203,2.032c-0.958,0.875-2.971,1.751-5.536,1.667c-5.038-0.165-10.078-1.786-13.711-5.387
		c-3.594-3.551-5.11-8.783-4.102-13.165c0.43-2.197,1.571-4.28,2.924-5.935c1.413-1.621,3.046-3.052,4.811-4.023
		c3.501-2.082,7.15-3.059,10.671-3.953c3.551-0.849,8.742-1.769,11.938-2.837c1.63-0.464,2.753-0.953,3.116-0.799
		c0.327,0.094-0.152,0.827-2.118,2.126c-3.987,2.48-7.013,3.721-10.109,5.13c-3.063,1.41-6.549,2.548-10.657,4.937
		c-2.01,1.203-3.773,2.915-4.761,4.85c-0.955,1.952-1.056,4.288-0.584,6.225c0.46,1.954,1.448,3.466,2.247,4.417
		C112.464,257.081,113.072,257.542,113.072,257.542z"/>
	<path style="fill:#231815;" d="M49.432,231.547c-4.181,8.685-6.316,14.949-6.965,19.418c-0.702,4.441-0.436,7.091-0.806,8.3
		c-0.359,1.216-1.366,0.935-2.543-1.005c-1.138-1.906-2.023-5.687-1.217-10.052c1.661-8.692,5.599-16.013,8.942-23.038
		c3.487-7.001,7.199-13.465,11.012-18.863c7.673-10.739,16.493-20.736,26.739-29.048c5.065-4.23,13.328-9.678,18.824-12.443
		c5.532-2.73,7.935-3.368,1.436,1.371c-6.431,4.85-10.487,8.79-14.773,12.991c-4.243,4.254-8.672,8.844-15.06,15.935
		c-6.408,7.084-13.128,16.013-17.885,23.382C52.375,225.864,49.432,231.547,49.432,231.547z"/>
	<path style="fill:#231815;" d="M259.064,208.241c2.146-6.817,4.724-12.412,7.174-17.018c2.453-4.615,4.762-8.285,6.792-11.183
		c4.059-5.798,6.912-8.605,8.444-9.355c3.124-1.458,0.958,5.376-5.057,15.047c-6.001,9.688-10.727,20.127-13.149,30.405
		c-2.547,10.285-2.201,20.206-0.299,28.571c1.917,8.472,5.825,16.77,8.858,25.765c2.85,8.886,5.654,17.717,7.377,27.098
		c0.854,4.667,1.42,10.678,1.094,16.553c-0.28,5.881-1.42,11.535-2.62,15.743c-1.18,4.223-2.442,7.03-2.907,7.436
		c-0.552,0.389-0.31-1.634,0.512-7.26c1.524-11.294,0.605-19.198-1.288-27.327c-1.944-8.131-5.038-16.714-9.4-29.731
		c-2.189-6.346-5.206-13.259-7.433-20.591c-2.332-7.299-3.195-15.175-2.824-21.837c0.36-6.701,1.617-12.334,2.76-16.204
		C258.24,210.477,259.064,208.241,259.064,208.241z"/>
	<path style="fill:#231815;" d="M196.613,312.043c-26.585-14.943-36.745-24.855-38.504-27.753
		c-1.645-3.098,5.364,0.074,15.582,7.326c5.091,3.673,10.41,7.001,15.657,10.291c5.342,3.129,10.608,6.238,15.902,8.959
		c5.221,2.861,10.478,5.293,15.446,7.767c2.522,1.155,4.991,2.284,7.397,3.388c2.393,1.127,4.739,2.193,7.042,3.159
		c18.289,8.044,37.193,14.614,56.617,19.27c2.432,0.561,5.151,1.297,8.04,1.939c2.9,0.603,5.945,1.236,8.971,1.865
		c3.026,0.668,6.076,1.047,8.926,1.582c1.428,0.252,2.811,0.498,4.127,0.731c1.32,0.215,2.579,0.35,3.749,0.524
		c9.36,1.308,13.19,2.319,0.508,1.969c-1.584-0.059-3.115-0.054-4.586-0.146c-1.472-0.107-2.893-0.209-4.272-0.309
		c-2.759-0.207-5.363-0.326-7.856-0.55c-2.489-0.276-4.88-0.542-7.242-0.803c-2.368-0.244-4.705-0.507-7.055-0.929
		c-4.719-0.751-9.61-1.521-15.106-2.874c-5.539-1.181-11.663-2.981-18.945-5.307c-14.559-4.741-30.907-11.951-43.321-18.369
		c-6.18-3.266-11.497-6.112-15.178-8.309C198.802,313.324,196.613,312.043,196.613,312.043z"/>
	<path style="fill:#231815;" d="M134.564,350.866c4.798,5.402,9.581,9.869,14.988,13.359c5.419,3.442,11.44,6.122,19.021,7.484
		c9.638,1.858,24.629,4.027,40.412,6.629c3.94,0.677,7.929,1.412,11.888,2.228c3.941,0.831,7.862,1.793,11.8,2.702
		c7.832,1.788,15.423,3.207,22.184,4.356c6.784,1.131,14.873,2.308,23.582,3.05c8.756,0.52,17.785-0.098,26.177,0.511
		c4.185,0.292,8.203,0.87,11.783,1.958c3.62,1.055,6.578,2.726,9.127,4.693c2.557,1.947,4.995,3.851,7.347,4.998
		c2.369,1.19,4.329,1.677,5.649,2.106c10.698,3.166,20.447,4.036,22.4,1.965c1.884-2.095-6.212-2.757-12.984-3.86
		c-0.855-0.115-2.576-0.402-4.909-0.962c-1.166-0.283-2.485-0.637-3.91-1.099c-0.717-0.222-1.453-0.487-2.22-0.759
		c-0.703-0.272-1.412-0.568-2.125-0.949c-2.895-1.401-5.673-4.216-9.729-6.873c-4.137-2.574-9.008-4.134-13.808-4.889
		c-9.648-1.551-19.162-1.038-26.724-1.164c-3.826-0.022-6.988-0.211-9.758-0.472c-2.752-0.235-4.871-0.409-6.146-0.446
		c-5.098-0.113-18.923-2.487-31.84-6.142c-3.26-0.881-6.356-1.867-9.461-2.78c-3.095-0.938-6.025-1.745-8.639-2.413
		c-5.228-1.349-9.187-2.217-10.726-2.371c-6.18-0.635-21.134-3.977-28.985-5.942c-3.938-0.957-9.281-2.526-14.576-4.486
		c-5.285-1.98-10.511-4.356-14.3-6.645c-1.906-1.01-4.204-2.38-6.802-3.592c-2.444-1.421-5.203-2.702-7.503-4.216
		C130.761,343.817,131.968,347.783,134.564,350.866z"/>
	<path style="fill:#231815;" d="M338.237,348.629c-3.813,3.629-6.215,4.589-7.814,4.029c-1.525-0.511-1.773-2.704,0.271-4.258
		c3.962-3,7.475-6.729,11.208-8.466c3.651-1.721,7.599-2.987,11.667-3.003c2.029-0.072,5.073,0.518,6.85,1.319
		c1.795,0.814,2.382,1.608,0.113,1.893c-2.276,0.311-3.805,0.94-5.386,1.562c-1.584,0.631-3.217,1.273-5.707,2.026
		c-2.491,0.759-5.343,1.858-7.518,2.913C339.757,347.711,338.237,348.629,338.237,348.629z"/>
	<path style="fill:#231815;" d="M351.983,355.842c0.174-3.69,1.94-6.403,3.787-8.157c1.832-1.708,3.64-2.556,5.087-3.085
		c2.93-0.999,4.664-0.829,5.497-0.394c0.832,0.464,0.739,1.332-0.089,2.269c-0.823,0.949-2.365,1.917-4.218,2.85
		c-1.867,0.949-3.396,2.234-4.234,3.827c-0.88,1.599-1.076,3.464-0.572,4.726c0.885,2.511,4.629,3.457,8.136,4.386
		c6.955,1.941,14.132,2.831,21.401,3.337c3.635,0.311,9.178,0.518,12.764,0.616c3.566,0.089,5.199,0.54,0.579,1.817
		c-4.636,1.164-7.951,1.934-11.564,2.485c-3.608,0.522-7.552,0.827-13.376,0.126c-2.908-0.372-6.031-0.977-9.041-1.773
		c-2.981-0.838-5.902-1.593-8.684-3.164c-1.355-0.772-2.609-1.788-3.526-2.961c-0.926-1.16-1.467-2.458-1.729-3.522
		c-0.273-1.077-0.27-1.932-0.274-2.506C351.964,356.148,351.983,355.842,351.983,355.842z"/>
	<path style="fill:#231815;" d="M368.562,381.857c-3.46-1.06-5.713-2.559-7.054-3.814c-1.329-1.292-1.759-2.385-1.695-3.066
		c0.195-1.405,2.244-1.401,4.386,0.185c2.182,1.617,4.756,2.643,7.257,3.248c2.496,0.648,4.913,0.914,7.031,1.199
		c4.251,0.592,8.539,0.555,12.87,0.22c2.182-0.076,5.494-0.45,7.695-0.674c2.181-0.237,3.322-0.026,0.727,1.375
		c-2.607,1.36-4.506,2.293-6.629,3.094c-2.125,0.788-4.509,1.425-8.146,1.547c-3.641,0.113-7.867-0.509-11.059-1.403
		c-1.586-0.49-2.951-0.905-3.885-1.312C369.12,382.078,368.562,381.857,368.562,381.857z"/>
	<path style="fill:#231815;" d="M362.646,395.666c-4.108-1.61-6.732-3.596-8.301-5.176c-1.552-1.625-2.061-2.898-2.011-3.62
		c0.184-1.497,2.508-1.06,5.054,1.047c2.588,2.141,5.665,3.646,8.695,4.625c3.019,1.038,5.98,1.597,8.586,2.093
		c5.226,1.018,10.562,1.225,15.925,0.901c2.699-0.048,6.773-0.518,9.435-0.855c2.64-0.355,3.962-0.185,0.716,1.384
		c-3.26,1.517-5.643,2.487-8.282,3.296c-2.64,0.79-5.58,1.388-10.01,1.332c-4.436-0.07-9.545-1.073-13.374-2.358
		c-1.899-0.696-3.537-1.286-4.646-1.843C363.311,395.972,362.646,395.666,362.646,395.666z"/>
	<path style="fill:#231815;" d="M32.415,264.35c0.063,2.628,0.224,5.061,0.331,7.328c0.17,2.304,0.329,4.469,0.25,6.492
		c-0.224,4.016-0.927,7.687-3.796,11.244c-1.742,2.311-3.751,5.426-5.853,9.073c-1.983,3.694-4.143,7.891-5.939,12.414
		c-3.691,9.007-6.636,19.072-7.805,27.322c-1.29,8.229-2.482,19.849-2.8,30.273c-0.302,10.426,0.02,19.609,0.211,22.943
		c0.122,3.34,0.88,6.377,1.251,8.749c0.35,2.376,0.269,4.103-1.197,4.865c-2.931,1.545-5.334-3.346-5.672-7.815
		c-0.138-2.223-1.347-13.511-1.387-25.14c-0.112-11.618,0.874-23.513,2.128-26.589c1.13-3.094,1.606-11.892,2.763-20.386
		c1.005-8.507,2.636-16.688,3.715-18.393c0.523-0.857,1.06-2.089,1.594-3.529c0.556-1.436,1.198-3.057,1.78-4.739
		c0.58-1.684,1.172-3.407,1.724-5.013c0.622-1.584,1.2-3.055,1.674-4.262c0.491-1.199,1.016-2.648,1.543-4.245
		c0.6-1.566,1.211-3.272,1.791-5.026c1.089-3.538,2.337-7.125,3.075-10.1c0.636-2.937,3.372-6.529,5.868-9.438
		C30.311,257.296,32.332,261.499,32.415,264.35z"/>
	<path style="fill:#231815;" d="M300.448,333.474c-7.532-3.455-12.444-7.132-15.529-9.973c-3.071-2.891-4.274-5.043-4.419-6.142
		c-0.132-1.12,0.854-1.314,2.435-0.696c1.569,0.635,3.782,2.023,6.354,4.056c5.164,4.064,11.019,7.267,16.788,9.664
		c5.755,2.417,11.445,4.162,16.313,5.174c1.195,0.222,2.419,0.437,3.491,0.466c0.599,0.078,0.984-0.022,1.447-0.024
		c0.453-0.044,0.913-0.233,1.379-0.318c2.065-0.698,4.441-2.019,6.8-3.233c4.739-2.517,9.867-5.022,15.392-6.434
		c1.354-0.411,2.984-0.605,4.633-0.899c1.703-0.104,3.455-0.346,5.226-0.196c3.528,0.024,6.902,0.953,9.33,1.834
		c4.79,2.169,6.166,3.494-0.098,1.95c-6.43-1.005-10.945,0.05-15.422,1.556c-4.535,1.564-8.978,3.897-16.022,7.798
		c-1.77,0.964-3.695,1.991-5.84,2.941l-1.724,0.666c-0.593,0.213-1.323,0.363-1.981,0.531c-1.383,0.268-2.882,0.266-4.06,0.139
		c-4.914-0.49-8.952-1.991-12.581-3.311c-3.58-1.371-6.54-2.794-8.627-3.829C301.644,334.161,300.448,333.474,300.448,333.474z"/>
	<path style="fill:#231815;" d="M496.723,312.809c0.762,0.431,1.517,0.857,2.266,1.282l0.564,0.32
		c0.302,0.155,0.591,0.466,0.891,0.683c0.655,0.479,0.907,0.996,1.286,1.462c1.153,1.804,1.762,3.414,2.363,5.028
		c1.166,3.214,1.984,6.292,2.704,9.277c1.416,5.966,2.374,11.516,3.109,16.657c1.463,10.282,1.997,18.924,2.083,26.006
		c0.165,14.183-1.589,22.051-2.726,24.794c-1.201,2.748-1.53,0.611-1.582-4.928c-0.079-5.557-0.176-14.647-0.883-26.065
		c-0.695-11.409-2.214-22.836-4.67-33.81c-0.627-2.737-1.318-5.446-2.145-8.054c-0.42-1.292-0.854-2.589-1.367-3.768
		c-0.24-0.616-0.526-1.151-0.795-1.684l-0.419-0.694l-0.323-0.381c0.1,0-0.768-0.459-1.32-0.783l-1.807-1.029
		c-1.198-0.692-2.412-1.351-3.625-2.002c-2.409-1.331-4.852-2.569-7.27-3.812c-19.453-9.762-38.988-16.579-56.667-21.122
		c-4.423-1.134-8.868-2.191-13.347-3.076c-4.511-0.931-8.902-1.869-12.65-1.36c-0.931,0.128-1.811,0.344-2.629,0.659
		c-0.826,0.318-1.404,0.664-2.056,1.199c-1.236,1.04-2.166,2.574-2.402,3.949c-0.211,1.403,0.084,2.371,1.13,3.364
		c1.054,0.988,2.921,1.771,5.031,2.491c8.866,3.118,17.452,6.764,25.903,10.687c8.444,3.94,16.759,8.124,24.844,12.876
		c2.023,1.186,4.151,2.485,6.335,3.977c1.098,0.709,2.197,1.547,3.314,2.382c0.558,0.424,1.116,0.944,1.675,1.421l0.42,0.366
		l0.482,0.531c0.345,0.361,0.558,0.725,0.806,1.092c1.736,2.931,2.28,5.811,2.841,8.711c0.493,2.898,0.781,5.803,0.974,8.692
		c0.705,11.553,0.108,22.851-0.562,31.515c-0.693,8.664-1.565,14.682-1.969,15.665c-0.449,0.981-0.302-3.061-0.008-14.577
		c0.237-11.514-0.027-21.322-0.934-30.268c-0.468-4.458-1.102-8.746-2.223-12.663c-0.549-1.921-1.325-3.851-2.258-4.954
		l-0.333-0.335l-0.572-0.444c-0.388-0.294-0.74-0.6-1.155-0.89c-0.863-0.564-1.667-1.164-2.578-1.704
		c-7.17-4.41-15.223-8.331-24.424-12.628c-9.243-4.225-19.772-8.912-32.651-13.42c-1.684-0.59-3.555-1.232-5.473-2.433
		c-1.899-1.168-3.877-3.146-4.671-5.818c-0.82-2.635-0.379-5.344,0.59-7.526c0.992-2.204,2.496-4.066,4.421-5.498
		c4.1-2.922,8.713-3.157,12.736-2.865c4.089,0.348,7.655,1.258,11.318,1.98c14.579,3.157,28.573,7.508,40.531,12.206
		c11.976,4.66,21.969,9.514,28.926,13.202C492.735,310.376,496.723,312.809,496.723,312.809z"/>
	<path style="fill:#231815;" d="M423.084,312.417c0.784-2.193,2.676-2.017,3.9-1.101c1.251,0.912,2.114,2.337,1.409,2.674
		c-1.478,0.751-1.283,2.807-1.941,3.866c-0.672,1.083-1.348,2.237-2.601,3.068c-1.26,0.862-4.88,1.738-4.534-0.02
		c0.331-1.749-0.459-2.959,0.578-4.693c0.519-0.87,1.289-1.828,1.961-2.563C422.524,312.913,423.084,312.417,423.084,312.417z"/>
	<path style="fill:#231815;" d="M397.722,308.66c-0.025-0.622,0.211-1.147,0.389-1.558c0.146-0.342,0.287-0.672,0.422-0.99
		c0.251-0.561,0.509-1.07,0.77-1.532c0.524-0.92,1.062-1.638,1.588-2.178c1.054-1.083,2.063-1.447,2.87-1.353
		c1.607,0.202,2.46,2.141,1.212,3.964c-0.63,0.92-1.153,1.899-1.605,2.889c-0.595,1.303-0.484,1.179-0.288,1.414
		c0.271,0.176,0.18-0.061,1.077,0.413c0.797,0.344,1.558,0.67,2.272,0.977c1.537,0.711,3.151,1.284,5.025,2.204
		c1.632,0.825,3.229,1.723,4.758,2.77c3.06,2.091,8.636,7.445,4.204,6.153c-4.431-1.292-6.638-0.872-11.631-3.126
		c-2.198-0.983-5.427-2.232-7.893-4.008c-0.312-0.222-0.618-0.453-0.919-0.722c-0.372-0.274-0.736-0.701-1.038-1.062
		c-0.655-0.711-1.004-1.484-1.189-2.134c-0.189-0.646-0.194-1.21-0.139-1.564C397.681,308.855,397.722,308.66,397.722,308.66z"/>
	<path style="fill:#231815;" d="M389.874,324.49c5.301-7.885,9.985-9.965,11.65-9.364c0.848,0.27,1.067,1.129,0.778,2.13
		c-0.303,0.964-1.093,2.226-2.497,3.459c-5.583,5.165-9.148,12.221-12.599,17.223c-3.467,5.048-6.734,10.204-10.156,15.243
		c-1.695,2.524-4.419,6.233-5.908,8.751c-1.383,2.489-2.451,3.905-1.928-0.335c0.842-4.027,1.756-6.666,2.685-9.569
		c1.036-2.824,2.276-5.803,4.792-9.828c2.501-4.04,5.72-8.529,8.415-11.927C387.778,326.857,389.874,324.49,389.874,324.49z"/>
	<path style="fill:#231815;" d="M404.537,330.149c2.612-7.201,5.692-9.723,7.403-9.634c1.703,0.122,2.196,2.445,0.527,5.05
		c-3.361,5.296-4.763,11.594-6.751,16.176c-1.991,4.604-3.905,9.225-6.268,13.657c-1.174,2.221-3.202,5.45-4.566,7.487
		c-1.324,2.026-2.356,2.979-1.916-0.35c1.226-6.368,1.003-9.208,3.851-16.318C399.685,339.117,404.537,330.149,404.537,330.149z"/>
	<path style="fill:#231815;" d="M272.565,390.494c-0.716,2.826-0.202,7.004-1.053,10.404c-0.855,3.427-2.902,4.493-2.791,3.969
		c0.091-0.524-1.448-1.786-1.14-4.275c0.302-2.511,0.06-4.584-0.26-5.809c-0.323-1.227,0.499-0.629,0.839-4.199
		c0.348-3.599,2.628-4.029,2.94-2.963C271.421,388.682,272.565,390.494,272.565,390.494z"/>
	<path style="fill:#231815;" d="M496.619,305.966c0.548,3.66-1.126,5.22-2.688,5.422c-1.58,0.207-3.116-0.794-2.693-2.165
		c0.851-2.796-0.44-5.657-0.528-7.867c-0.083-2.239-0.256-4.452,0.107-6.766c0.413-2.265,2.083-7.358,3.262-4.597
		c1.144,2.802,2.615,3.847,2.948,7.486c0.152,1.819,0.081,3.953-0.064,5.62C496.815,304.765,496.619,305.966,496.619,305.966z"/>
	<path style="fill:#231815;" d="M434.281,364.514c-0.01-2.656,1.661-4.095,2.856-4.473c1.276-0.4,2.038,0.111,2.22,0.537
		c0.208,0.442,0.024,0.936-0.156,1.282c-0.198,0.376-0.378,0.609-0.79,0.801c-0.905,0.392-1.285,1.747-0.951,2.408l0.307,0.433
		l0.51,0.516c0.325,0.244,0.579,0.359,0.686,0.372c0.159,0.1,0.709-0.043,1.289-0.659c0.553-0.574,1.009-1.39,1.206-2.097
		c0.11-0.372,0.188-0.74,0.065-1.195c-0.126-0.444-0.63-0.925-1.104-1.236c-0.967-0.583-1.644-1.136,0.121-1.155
		c0.866,0.041,1.729,0.226,2.443,0.757c0.722,0.47,1.241,1.275,1.469,2.073c0.435,1.623,0.239,3.435-1.299,5.348
		c-0.783,0.916-2.064,1.878-3.773,1.984c-0.878,0.083-1.663-0.231-2.379-0.568c-0.543-0.418-1.153-0.868-1.44-1.318
		c-0.31-0.461-0.59-0.851-0.82-1.281c-0.239-0.492-0.357-0.953-0.424-1.334C434.209,364.943,434.281,364.514,434.281,364.514z"/>
	<path style="fill:#231815;" d="M420.935,346.719c-0.01-2.654,1.661-4.095,2.856-4.473c1.276-0.4,2.036,0.111,2.22,0.537
		c0.207,0.442,0.024,0.936-0.157,1.281c-0.197,0.376-0.376,0.609-0.789,0.803c-0.905,0.389-1.286,1.745-0.951,2.406l0.306,0.433
		l0.51,0.516c0.326,0.244,0.58,0.359,0.686,0.372c0.16,0.1,0.71-0.044,1.289-0.659c0.554-0.574,1.011-1.39,1.206-2.097
		c0.111-0.372,0.188-0.74,0.066-1.194c-0.126-0.444-0.631-0.925-1.104-1.236c-0.967-0.583-1.644-1.136,0.12-1.155
		c0.866,0.043,1.73,0.226,2.443,0.757c0.722,0.47,1.242,1.275,1.47,2.073c0.435,1.623,0.238,3.436-1.299,5.348
		c-0.783,0.916-2.064,1.878-3.774,1.984c-0.877,0.083-1.662-0.231-2.379-0.568c-0.543-0.418-1.153-0.868-1.44-1.319
		c-0.31-0.461-0.589-0.851-0.819-1.281c-0.24-0.492-0.357-0.953-0.425-1.334C420.863,347.148,420.935,346.719,420.935,346.719z"/>
	<path style="fill:#231815;" d="M333.024,310.718c-0.01-2.656,1.661-4.095,2.855-4.473c1.276-0.4,2.038,0.111,2.22,0.537
		c0.208,0.442,0.024,0.933-0.155,1.281c-0.198,0.376-0.378,0.609-0.79,0.801c-0.905,0.389-1.286,1.747-0.951,2.409l0.307,0.433
		l0.51,0.516c0.325,0.244,0.579,0.359,0.686,0.372c0.159,0.1,0.709-0.043,1.289-0.659c0.553-0.574,1.01-1.392,1.205-2.097
		c0.111-0.372,0.188-0.74,0.066-1.197c-0.126-0.442-0.63-0.923-1.104-1.234c-0.967-0.583-1.644-1.138,0.121-1.155
		c0.866,0.041,1.729,0.226,2.443,0.757c0.722,0.47,1.241,1.275,1.469,2.073c0.435,1.623,0.239,3.435-1.299,5.348
		c-0.783,0.916-2.064,1.878-3.774,1.984c-0.877,0.083-1.662-0.231-2.379-0.568c-0.542-0.42-1.152-0.868-1.439-1.319
		c-0.311-0.461-0.59-0.851-0.82-1.284c-0.239-0.49-0.357-0.951-0.424-1.331C332.953,311.147,333.024,310.718,333.024,310.718z"/>
	<path style="fill:#231815;" d="M411.726,375.186c-0.01-2.656,1.661-4.095,2.856-4.473c1.276-0.4,2.036,0.111,2.22,0.537
		c0.207,0.442,0.024,0.933-0.157,1.281c-0.197,0.376-0.376,0.609-0.789,0.801c-0.905,0.389-1.286,1.747-0.951,2.409l0.306,0.433
		l0.51,0.516c0.326,0.244,0.58,0.359,0.686,0.372c0.16,0.1,0.71-0.044,1.289-0.659c0.554-0.577,1.011-1.392,1.206-2.097
		c0.111-0.372,0.188-0.74,0.066-1.197c-0.126-0.442-0.631-0.923-1.104-1.234c-0.967-0.583-1.644-1.138,0.12-1.155
		c0.866,0.041,1.73,0.226,2.443,0.757c0.722,0.47,1.242,1.275,1.47,2.073c0.435,1.623,0.238,3.435-1.299,5.348
		c-0.783,0.916-2.064,1.878-3.774,1.984c-0.877,0.083-1.662-0.231-2.379-0.568c-0.543-0.42-1.153-0.868-1.44-1.319
		c-0.31-0.461-0.589-0.851-0.819-1.284c-0.239-0.49-0.357-0.951-0.425-1.331C411.654,375.614,411.726,375.186,411.726,375.186z"/>
	<path style="fill:#231815;" d="M436.221,386.982c1.68-2.056,3.884-2.106,5.046-1.641c1.24,0.5,1.503,1.379,1.374,1.825
		c-0.12,0.472-0.576,0.735-0.934,0.89c-0.392,0.165-0.678,0.231-1.118,0.118c-0.947-0.274-2.103,0.533-2.264,1.255
		c-0.042,0.194-0.056,0.322-0.039,0.531c0.034,0.252,0.058,0.492,0.067,0.72c0.097,0.396,0.219,0.646,0.294,0.725
		c0.059,0.178,0.575,0.418,1.414,0.309c0.792-0.091,1.663-0.433,2.264-0.853c0.322-0.218,0.615-0.453,0.81-0.881
		c0.183-0.422,0.099-1.114-0.069-1.656c-0.376-1.064-0.548-1.921,0.826-0.816c0.643,0.583,1.193,1.273,1.408,2.137
		c0.259,0.822,0.148,1.773-0.183,2.535c-0.695,1.529-1.998,2.804-4.399,3.305c-1.188,0.211-2.788,0.139-4.175-0.864
		c-0.731-0.494-1.139-1.234-1.477-1.949c-0.153-0.668-0.339-1.403-0.275-1.932c0.053-0.555,0.086-1.033,0.182-1.512
		c0.126-0.531,0.328-0.962,0.518-1.299C435.893,387.27,436.221,386.982,436.221,386.982z"/>
	<path style="fill:#231815;" d="M370.093,315.578c-0.01-2.656,1.661-4.095,2.856-4.473c1.276-0.4,2.037,0.111,2.22,0.537
		c0.208,0.442,0.024,0.935-0.156,1.281c-0.198,0.376-0.378,0.609-0.79,0.801c-0.905,0.389-1.286,1.747-0.951,2.409l0.307,0.433
		l0.51,0.516c0.325,0.244,0.579,0.359,0.686,0.372c0.159,0.1,0.709-0.043,1.289-0.659c0.553-0.574,1.009-1.39,1.205-2.097
		c0.111-0.372,0.189-0.74,0.066-1.194c-0.126-0.444-0.63-0.925-1.104-1.236c-0.967-0.583-1.644-1.136,0.121-1.155
		c0.866,0.041,1.729,0.226,2.443,0.757c0.722,0.47,1.241,1.275,1.469,2.073c0.435,1.623,0.239,3.435-1.299,5.348
		c-0.783,0.916-2.064,1.878-3.773,1.984c-0.878,0.083-1.663-0.231-2.379-0.568c-0.543-0.418-1.153-0.868-1.44-1.319
		c-0.311-0.461-0.59-0.851-0.82-1.281c-0.239-0.492-0.357-0.953-0.424-1.334C370.021,316.007,370.093,315.578,370.093,315.578z"/>
	<path style="fill:#231815;" d="M482.243,292.927c6.579,2.419,11.622,2.178,12.462,0.757c0.874-1.497-2.365-3.921-11.549-7.519
		c-9.329-3.751-16.532-6.46-24.294-9.825c-1.939-0.842-3.896-1.751-5.916-2.743c-2.006-0.97-3.986-2.008-5.391-3.577
		c-1.412-1.506-1.807-3.744-0.295-5.668c0.721-0.938,1.798-1.73,3.033-2.193c1.224-0.455,2.702-0.59,4.209-0.472
		c3.034,0.261,6.133,1.319,9.168,2.184c3.031,0.916,6,1.908,8.896,2.972c5.787,2.137,11.293,4.512,16.435,7.06
		c2.573,1.271,5.064,2.567,7.455,3.899c1.179,0.672,2.344,1.334,3.494,1.988c1.067,0.646,2.067,1.353,2.945,2.113
		c1.776,1.495,2.943,3.327,2.9,4.667c-0.002,1.412-0.916,2.478-2.395,3.179c-2.709,1.229-5.946,0.731-7.805,1.077
		c-1.916,0.259-2.589,1.077-1.578,2.276c0.511,0.59,1.422,1.297,2.983,1.954c1.564,0.594,3.833,1.36,7.185,0.629
		c1.598-0.402,3.354-1.162,4.95-2.744c1.61-1.545,2.846-4.232,2.526-7.027c-0.261-2.883-1.917-5.146-3.649-6.797
		c-1.791-1.647-3.838-2.889-6.087-3.899c-8.966-3.849-14.058-5.929-20.132-8.444c-3.043-1.231-6.342-2.532-10.558-3.971
		c-2.113-0.701-4.447-1.462-7.106-2.211c-2.677-0.688-5.513-1.71-9.386-2.039c-1.539-0.1-3.137-0.022-4.736,0.413
		c-1.636,0.448-3.099,1.268-4.338,2.395c-1.23,1.123-2.238,2.65-2.618,4.454c-0.369,1.812,0.007,3.703,0.828,5.178
		c1.682,2.95,4.164,4.495,6.339,5.903c2.157,1.336,4.292,2.643,6.44,3.868C465.22,285.717,473.747,289.764,482.243,292.927z"/>
	<path style="fill:#231815;" d="M474.21,287.24c0.328-2.008-9.746-1.192-10.839,0.872c-0.572,1.055,0.393,1.778,1.5,2.7
		c1.108,0.905,2.332,2.021,2.177,3.479c-0.323,2.952-2.844,5.132-4.042,6.679c-0.589,0.742,2.473,2.365,5.309,3.092
		c2.813,0.753,5.6,0.237,3.911-2.722c-1.908-3.011,0.084-2.885-0.09-6.486C471.931,292.079,473.73,289.694,474.21,287.24z"/>
	<path style="fill:#231815;" d="M409.188,357.254c-3.766,2.084-5.602,2.946-6.646,2.541c-0.986-0.331-0.766-1.941,1.08-3.003
		c1.815-1.029,3.603-2.045,5.421-2.859c0.916-0.4,1.773-0.772,2.826-1.025c1.033-0.242,2.27-0.305,3.451,0.172
		c1.104,0.444,2.23,1.321,2.723,2.767c0.488,1.416,0.031,2.926-0.556,3.807c-0.591,0.931-1.284,1.564-1.968,2.113
		c-0.672,0.494-1.332,0.899-2.018,1.323c-2.769,1.691-8.543,4.267-5.724,1.551c1.399-1.349,2.276-2.411,3.248-3.485
		c0.859-1.055,2.404-2.226,3.168-3.451c0.172-0.296,0.215-0.49,0.209-0.561l-0.153-0.32c-0.324-0.342-0.98-0.498-1.842-0.389
		c-0.831,0.1-1.726,0.361-2.293,0.522C409.533,357.143,409.188,357.254,409.188,357.254z"/>
	<path style="fill:#231815;" d="M420.597,387.805c-1.756,0.033-3.18,0.433-4.285,0.487c-1.104,0.087-1.861-0.083-2.243-0.429
		c-0.754-0.677-0.135-2.021,1.829-2.476c1.934-0.431,4.086-0.898,6.252-0.5c1.07,0.191,2.154,0.592,3.069,1.279
		c0.93,0.683,1.656,1.695,1.977,2.698c0.343,1.009,0.443,2.132,0.171,3.27c-0.27,1.14-1.018,2.243-1.964,2.881
		c-1.968,1.318-3.988,1.164-5.618,0.785c-1.705-0.444-3.497-1.538-4.826-1.975c-0.657-0.246-1.192-0.361-1.324-0.551
		c-0.134-0.163,0.171-0.474,1.214-0.611c2.068-0.174,3.459,0.044,4.782,0.02c1.178-0.015,2.656-0.139,3.49-0.742
		c0.387-0.3,0.591-0.64,0.574-1.334c-0.037-0.668-0.338-1.318-0.798-1.732c-0.478-0.455-1.083-0.731-1.539-0.879
		C420.898,387.846,420.597,387.805,420.597,387.805z"/>
	<path style="fill:#231815;" d="M374.47,334.798c0.364,3.736,0.423,5.513-0.336,6.303c-0.669,0.762-2.071,0.089-2.325-1.858
		c-0.438-3.771-0.872-7.532,0.483-10.737c0.379-0.788,0.865-1.591,1.652-2.304c0.766-0.718,1.936-1.255,3.144-1.253
		c1.227,0.007,2.326,0.533,3.068,1.216c0.764,0.685,1.267,1.525,1.556,2.43c0.65,1.965-0.255,4.299-1.05,5.406
		c-0.801,1.166-1.398,1.504-1.15-0.191c0.225-1.68-0.021-2.824-0.483-3.649c-0.386-0.703-1.362-1.443-1.867-1.386
		c-0.244,0.004-0.643,0.144-1.109,0.796c-0.454,0.622-0.768,1.453-1.013,2.302C374.56,333.521,374.47,334.798,374.47,334.798z"/>
	<path style="fill:#231815;" d="M136.504,178.118c-8.514-7.852-3.466-29.454,3.898-30.32c7.364-0.868,7.971,4.286,8.361,13.946
		C149.152,171.404,141.53,182.755,136.504,178.118z"/>
	<path style="fill:#231815;" d="M225.448,155.482c-6.205-6.205-2.068-26.887,6.894-26.887c8.963,0,6.205,9.651,4.827,17.923
		C235.789,154.793,228.896,158.929,225.448,155.482z"/>
	<path style="fill:#231815;" d="M206.558,202.179c-2.415-0.483-4.295-1.993-4.995-3.518c-0.932-2.03-0.088-6.782,4.473-5.354
		C214.387,195.915,211.777,203.223,206.558,202.179z"/>
	<path style="fill:#231815;" d="M226.915,193.827c-2.868-0.716-3.332-4.271-2.258-6.956c0.832-2.082,2.589-3.644,4.868-2.961
		C234.744,185.476,229.002,194.349,226.915,193.827z"/>
	<path style="fill:#231815;" d="M148.965,286.241c-2.037,9.171-4.605,24.561,1.535,29.679c6.141,5.117,13.817-2.045,18.934,4.095
		c5.117,6.14,15.352-12.282,12.282-18.933c-3.071-6.653-11.258-8.189-19.445-16.376
		C154.082,276.518,149.989,281.635,148.965,286.241z"/>
	<path style="fill:#231815;" d="M196.044,311.316c-4.095,7.162-3.582,14.838,2.046,17.397c5.628,2.559,4.606,12.282,12.282,11.77
		c7.675-0.511,15.863-9.723,13.304-14.84C221.118,320.526,196.044,311.316,196.044,311.316z"/>
	<path style="fill:#231815;" d="M24.327,281.333c9.192,10.111,22.98,13.787,12.869,24.818
		c-10.112,11.029-1.839,34.008-19.303,31.252C0.43,334.644,24.327,281.333,24.327,281.333z"/>
	<path style="fill:#231815;" d="M29.843,365.898c6.923,9.519,10.111,20.221,2.758,27.575c-7.354,7.354-8.273-0.918-12.868-10.11
		C15.136,374.17,22.489,355.785,29.843,365.898z"/>
	<path style="fill:#231815;" d="M73.045,219.748c5.515,6.434,0,14.706-9.192,18.382c-9.191,3.677-5.514-6.434-1.839-14.705
		C65.691,215.151,73.045,219.748,73.045,219.748z"/>
</g>
</svg>
