<?xml version="1.0" encoding="iso-8859-1"?>
<!-- Generator: Adobe Illustrator 22.1.0, SVG Export Plug-In . SVG Version: 6.00 Build 0)  -->
<svg version="1.1" id="_x33_" xmlns="http://www.w3.org/2000/svg" xmlns:xlink="http://www.w3.org/1999/xlink" x="0px" y="0px"
	 viewBox="0 0 512 512" style="enable-background:new 0 0 512 512;" xml:space="preserve">
<g>
	<path style="fill:#94C85C;" d="M148.777,233.955c-9.969,0-39.878-2.492-54.832-9.97c-17.108-8.553-6.646-34.062-2.493-41.539
		c4.155-7.477,48.187-37.386,48.187-37.386l27.416-13.293c0,0-2.492-27.416-2.492-40.709s11.631-14.955,11.631-14.955
		s3.322-7.477,7.477-8.308c4.153-0.831,3.322,4.985,3.322,4.985s7.477-9.97,9.97-10.801c2.492-0.831,1.661,12.462,1.661,12.462
		l19.108-25.755c0,0,12.462-29.077,23.263-30.74c10.799-1.661,16.615,7.478,19.108,14.125c2.492,6.646,4.984,6.646,9.138,4.153
		c4.154-2.492,33.232-13.293,33.232-13.293s2.493-19.939,9.97-19.939c7.477,0,14.123,8.308,14.954,13.293
		c0.831,4.985,4.985,11.631,9.138,9.14c4.154-2.493,24.093-16.616,29.909-18.278c5.816-1.663-1.661,11.631-1.661,11.631
		l-28.248,48.185c0,0,1.663,21.6,13.294,26.585c11.63,4.985,37.385,5.816,50.677,7.477c13.293,1.663,27.417,2.493,29.078,18.278
		c1.661,15.786-38.217,53.17-47.355,58.155c-9.14,4.985-10.801,7.477-10.801,7.477s21.6,26.585,18.278,50.679
		c-3.324,24.093-17.447,46.524-23.263,50.679c-5.816,4.154,11.631,5.816,29.078,32.401c17.446,26.585,24.092,40.708,18.276,72.279
		c-5.814,31.57-17.446,44.863-19.939,58.986c-2.492,14.125-5.816,19.108,5.816,23.263c11.631,4.154,15.786,4.154,24.093,10.801
		c8.308,6.646-13.293,1.661-13.293,1.661s19.108,9.97,15.785,13.293c-3.323,3.324-23.261-2.492-23.261-2.492
		s10.799,6.646,3.323,7.477c-7.477,0.831-24.092-2.493-35.723-6.646c-11.631-4.154-14.955-19.939-11.631-34.894
		c3.323-14.954,12.462-29.077,14.123-47.355c1.661-18.278-9.349-46.57-30.74-61.479c-27.416-19.108-48.185-16.615-58.986-16.615
		c-10.799,0-21.6,0.831-34.893,7.477c-13.293,6.646-44.863,32.401-47.356,63.141c-2.492,30.74,0.832,54.001-0.831,63.141
		c-1.661,9.138-10.799,24.924-15.785,29.077c-4.985,4.154-16.616,7.477-23.263,9.97c-6.646,2.492,0.831-14.955,0.831-14.955
		s-19.939,14.955-24.923,14.955c-4.985,0,1.661-10.801,6.646-14.123c4.984-3.324-8.309,1.661-11.631,0.831
		c-3.324-0.831-2.493-5.816,10.799-12.462c13.293-6.646,21.602-7.477,24.093-19.939c2.493-12.462-8.308-25.755-19.108-40.71
		c-10.799-14.954-9.138-49.016-6.646-63.971c2.493-14.954,35.725-52.34,35.725-52.34s-19.108-19.108-24.924-37.386
		C146.285,251.402,148.777,233.955,148.777,233.955z"/>
	<path style="fill:#FFFFFF;" d="M363.529,126.311c-8.875,6.787-26.628,12.008-24.539,29.761c2.088,17.752,31.97,36.01,36.027,64.744
		c6.266,44.381-27.15,75.187-48.036,84.586c-20.601,9.27-69.966,14.097-92.939-2.089c-22.974-16.186-29.762-64.744-11.487-90.85
		c18.275-26.108,55.347-53.78,51.169-60.567c-4.177-6.789,35.505-40.727,35.505-40.727L363.529,126.311z"/>
	<path style="fill:#231815;" d="M216.769,44.422c-1.348,2.427-1.059,4.657,0.04,5.363c1.112,0.716,2.982-0.06,5.018-3.436
		c2.086-3.435,3.484-6.904,5.211-10.815c1.726-3.904,3.794-8.254,7.334-13.153c1.6-2.399,4.073-3.946,6.743-4.372
		c1.329-0.192,2.666-0.122,3.918,0.166c1.253,0.306,2.382,0.879,3.368,1.56c0.976,0.706,1.747,1.586,2.373,2.5
		c0.291,0.489,0.526,0.932,0.793,1.459c0.262,0.562,0.518,1.112,0.767,1.647c0.998,2.143,1.898,4.071,2.662,5.712
		c3.003,6.4,9.093,2.684,0.383-8.8c-0.144-0.194-0.287-0.383-0.425-0.57c-0.17-0.217-0.338-0.432-0.502-0.644
		c-0.334-0.421-0.624-0.843-0.997-1.195c-0.669-0.76-1.408-1.375-2.128-1.982c-1.509-1.131-3.14-2.009-5.081-2.565
		c-1.931-0.541-4.218-0.761-6.821-0.116c-1.286,0.345-2.658,0.89-3.952,1.816c-0.674,0.429-1.278,0.995-1.898,1.598
		c-0.316,0.295-0.565,0.662-0.854,1.004c-0.296,0.359-0.558,0.709-0.764,1.031C226.097,29.135,220.233,38.111,216.769,44.422z"/>
	<path style="fill:#231815;" d="M341.989,23.005c3.534-3.418,6.176-6.664,9.135-9.542c1.474-1.445,3.011-2.802,4.734-4.07
		c0.449-0.328,0.828-0.601,1.372-0.958c0.915-0.579,1.859-1.161,2.821-1.724c1.923-1.124,3.923-2.234,5.888-3.195
		c0.324-0.115,0.665-0.235,1.013-0.36c0.282-0.029,0.533-0.007,0.803-0.011c0.453-0.004,0.921-0.007,1.404-0.011
		c0.429,0.025,0.66,0.194,1.02,0.271c0.348,0.105,0.651,0.151,1.029,0.352c0.401,0.181,0.939,0.527,1.411,0.993
		c0.483,0.454,0.876,1.063,1.12,1.652c0.239,0.605,0.266,1.091,0.216,1.484c-0.105,0.879-0.205,1.905-0.803,3.421
		c-0.264,0.736-0.868,1.647-1.47,2.531c-0.586,0.871-1.18,1.754-1.779,2.647c-0.58,0.862-1.166,1.735-1.758,2.616l-0.724,1.058
		l-0.565,0.803c-1.502,2.161-3.057,4.397-4.636,6.669c-6.27,9.117-12.754,18.931-17.689,26.937
		c-9.872,16.01-27.64,44.831-31.59,51.235c-3.948,6.404-6.26,12.434-8.413,12.768c-2.154,0.334-0.134-5.047,2.457-9.25
		c2.592-4.203,25.342-43.209,29.75-48.779c4.409-5.571,19.185-33.748,21.877-37.061c0.673-0.828,1.509-2.021,2.432-3.421
		c0.454-0.703,0.939-1.454,1.441-2.232c0.3-0.478,0.611-0.973,0.925-1.473c0.364-0.612,0.735-1.236,1.081-1.819
		c0.161-0.284,0.325-0.545,0.457-0.803c0.118-0.274,0.004-0.583-0.183-0.752c-0.129-0.125-0.327-0.198-0.541-0.162
		c-0.219,0.028-0.41,0.191-0.62,0.316c-0.415,0.266-0.854,0.572-1.264,0.88c-0.365,0.277-0.705,0.558-0.983,0.814l-0.195,0.19
		l-0.107,0.101l-0.393,0.273c-0.522,0.368-1.044,0.735-1.559,1.099c-2.061,1.468-4.026,2.925-5.681,4.211
		c-2.488,1.923-6.789,4.177-10.837,5.726C338.229,28.004,339.984,24.918,341.989,23.005z"/>
	<path style="fill:#231815;" d="M322.735,117.122c-9.998-2.014-14.184-4.603-14.808-6.094c-0.622-1.513,2.157-2.005,6.109-0.615
		c7.946,2.788,16.435,3.742,22.993,5.431c6.565,1.676,13.164,3.394,19.543,5.965c3.185,1.274,7.859,3.613,10.453,5.648
		c2.569,2.097,3.198,3.213-0.501,1.515c-3.839-1.538-6.779-2.045-9.823-2.754c-3.084-0.641-6.343-1.368-11.204-2.69
		c-4.876-1.351-10.563-2.928-15.031-4.168C325.99,118.064,322.735,117.122,322.735,117.122z"/>
	<path style="fill:#231815;" d="M274.433,34.361c-11.468,5.497-12.549-0.312-7.427-1.697c5.124-1.384,9.682-4.251,13.629-5.755
		c3.948-1.503,7.896-3.007,12.033-4.016c4.137-1.009,12.782-2.038,8.036,0.335c-4.746,2.371-6.346,4.113-12.265,6.367
		C282.518,31.849,274.433,34.361,274.433,34.361z"/>
	<path style="fill:#231815;" d="M202.052,70.271c-4.316,8.184-8.691,4.325-6.095,1.422c2.597-2.89,3.932-6.684,5.798-9.209
		c1.856-2.515,3.799-5.021,6.279-7.053c1.222-1.03,3.332-2.302,4.827-2.856c1.505-0.552,2.349-0.457,1.188,1.058
		c-2.288,3.077-2.468,4.89-5.294,8.384C205.884,65.551,202.052,70.271,202.052,70.271z"/>
	<path style="fill:#231815;" d="M210.298,124.244c-2.52,6.839-6.237,10.941-9.029,13.234c-2.845,2.315-4.896,2.913-5.817,2.85
		c-0.94-0.08-0.893-0.921-0.104-2.078c0.775-1.188,2.266-2.729,4.171-4.643c3.842-3.831,6.477-8.817,7.783-13.76
		c1.343-4.966,1.34-9.83,0.858-14.051c-0.464-4.236-1.692-8.392-3.562-12.227c-0.93-1.92-2.016-3.766-3.244-5.515l-0.954-1.29
		l-1.066-1.401c-0.709-0.964-1.413-1.978-2.028-3.089c-0.619-1.101-1.203-2.437-1.618-3.853c-0.415-1.413-0.714-2.892-0.854-4.419
		c-0.309-3.055,0.342-6.075,1.251-8.085c0.901-2.028,1.798-3.267,2.135-3.413c0.381-0.136,0.132,0.892-0.529,3.554
		c-0.613,2.668-0.473,4.934,0.022,6.952c0.494,2.002,1.285,3.862,2.251,5.49c0.97,1.641,2.288,3.127,3.976,4.962
		c1.819,1.984,3.677,4.48,5.322,7.758c1.674,3.27,2.925,7.077,3.617,10.905c0.649,3.835,0.763,7.679,0.367,11.011
		c-0.364,3.34-1.135,6.138-1.784,8.072c-0.329,0.969-0.612,1.729-0.836,2.24C210.412,123.965,210.298,124.244,210.298,124.244z"/>
	<path style="fill:#231815;" d="M191.329,91.932c3.527,5,4.964,7.446,4.555,8.946c-0.188,0.701-0.786,1.012-1.596,0.842
		c-0.795-0.177-1.87-0.788-2.68-2.016c-1.688-2.378-3.367-4.715-4.757-7.11c-0.752-1.168-1.311-2.396-1.905-3.556
		c-0.48-1.202-1.009-2.347-1.264-3.493c-1.209-4.514-1.653-9.328-0.609-13.909c0.421-2.306,1.89-5.546,3.209-7.276
		c1.34-1.747,2.197-2.172,1.545,0.392c-0.352,1.276-0.407,2.425-0.519,3.448c-0.001,1.051-0.068,1.992,0.007,2.975
		c0.079,1.955,0.215,3.987,0.419,7.013c0.219,3.033,0.918,6.544,1.794,9.22c0.483,1.316,0.869,2.478,1.251,3.255
		C191.124,91.46,191.329,91.932,191.329,91.932z"/>
	<path style="fill:#231815;" d="M179.645,100.947c3.71,5.832,5.55,8.413,5.207,10.007c-0.147,0.737-0.757,1.038-1.636,0.811
		c-0.857-0.237-2.074-0.935-2.992-2.331c-1.933-2.684-3.746-5.409-5.16-8.209c-0.784-1.366-1.307-2.802-1.892-4.159
		c-0.435-1.399-0.943-2.735-1.121-4.055c-0.959-5.203-0.907-10.707,0.903-15.715c0.235-0.62,0.475-1.322,0.814-2.027
		c0.361-0.699,0.752-1.42,1.149-2.122c0.389-0.706,0.915-1.341,1.351-1.948c0.442-0.606,0.887-1.145,1.351-1.563
		c1.775-1.718,2.737-2.054,1.462,0.645c-0.345,0.662-0.57,1.319-0.759,1.946c-0.194,0.623-0.39,1.197-0.526,1.766
		c-0.195,1.168-0.464,2.194-0.547,3.302c-0.108,1.101-0.27,2.205-0.324,3.49c-0.14,1.267-0.161,2.704-0.244,4.416
		c-0.119,3.437,0.359,7.467,1.171,10.545c0.468,1.514,0.829,2.85,1.231,3.742C179.436,100.404,179.645,100.947,179.645,100.947z"/>
	<path style="fill:#231815;" d="M162.206,91.097c0.947-8.361,3.62-11.633,4.988-12.009c1.467-0.371,2.021,1.923,0.892,4.992
		c-1.141,3.1-1.682,6.385-1.898,9.505c-0.249,3.122-0.195,6.079-0.248,8.69c-0.119,5.236,0.259,10.444,0.723,15.704
		c0.166,2.641,0.533,6.641,0.673,9.246c0.151,2.591-0.143,3.824-1.459,0.641c-1.287-3.188-2.234-5.448-3.08-7.934
		c-0.833-2.486-1.555-5.219-1.919-9.401c-0.357-4.185-0.184-9.094,0.264-12.904c0.257-1.902,0.476-3.541,0.717-4.693
		C162.077,91.781,162.206,91.097,162.206,91.097z"/>
	<path style="fill:#231815;" d="M90.442,224.569c-2.088-2.816-4.326-5.465-6.033-8.368c-1.732-2.863-2.736-6.003-2.591-8.629
		c0.203-2.643,1.528-2.272,2.81-1.182c1.239,1.13,2.621,2.832,3.032,4.042c0.705,2.502,3.004,6.72,5.785,9.261
		c0.67,0.642,2.327,2.262,4.887,3.865c2.544,1.61,5.994,3.126,9.602,3.984c0.894,0.244,1.805,0.396,2.706,0.538l0.581,0.1h0.458
		h0.865c0.234,0.004,0.469-0.008,0.699,0.014l0.659,0.224l0.76,0.269c0.183,0.064,0.325,0.107,0.436,0.134l0.275,0.049l0.177,0.008
		c0.216-0.006,0.471,0.041,0.536,0.043c0.879,0.097,1.722,0.188,2.518,0.274c3.181,0.325,5.587,0.572,6.464,0.662
		c1.75,0.173,9.464,1.168,17.577,1.866c4.031,0.331,8.279,0.698,11.648,0.728c3.609-0.007,6.509-0.073,8.079-0.354
		c3.124-0.537,5.202,0.147,6.343,1.103c1.124,0.955,1.188,2.237-0.302,2.661c-1.474,0.439-5.269,0.76-8.828,0.752
		c-1.765-0.004-3.494-0.007-4.892-0.011c-1.413,0.022-2.531-0.054-2.974-0.082c-0.925-0.051-6.023-0.858-11.438-1.712
		c-5.406-0.844-11.087-1.742-13.164-1.685c-2.078,0.061-6.038-0.323-10.059-0.828l-1.498-0.191
		c-0.457-0.011-1.088-0.108-1.563-0.277c-0.498-0.163-0.962-0.363-1.329-0.487c-0.458-0.011-0.907-0.021-1.343-0.032
		c-1.923-0.221-3.45-0.621-4.618-0.916c-2.287-0.576-5.911-1.037-9.238-2.115C94.147,227.267,91.205,225.651,90.442,224.569z"/>
	<path style="fill:#231815;" d="M140.339,141.474c6.792-1.689,12.909-6.04,18.199-6.655c2.619-0.303,2.665,1.019,1.732,2.522
		c-0.943,1.494-2.83,3.203-4.292,3.732c-2.943,1.029-8.162,3.115-12.135,4.949c-2,0.879-9.76,4.608-17.141,8.958
		c-0.922,0.544-1.843,1.088-2.752,1.624c-0.85,0.516-1.688,1.024-2.504,1.52c-0.292,0.278-0.579,0.551-0.861,0.821
		c-0.436,0.396-0.91,0.781-1.39,1.121c-0.817,0.55-1.598,1.077-2.335,1.573c-2.846,1.913-4.928,3.419-5.679,3.979
		c-0.756,0.55-2.842,1.989-5.483,4.066c-2.654,2.06-5.845,4.79-8.699,7.928c-2.875,3.116-5.363,6.663-6.947,9.926
		c-0.844,1.61-1.357,3.18-1.802,4.503c-0.392,1.34-0.558,2.485-0.677,3.286c-0.09,1.635-0.431,2.928-0.862,3.972
		c-0.378,1.049-0.94,1.834-1.524,2.344c-1.171,1.02-2.434,0.88-2.554-0.792c-0.19-1.653,0.208-5.821,1.42-9.643
		c0.678-1.872,1.334-3.721,2.085-5.11c0.35-0.705,0.645-1.336,0.912-1.827c0.287-0.478,0.505-0.842,0.633-1.053
		c0.446-0.898,4.001-5.525,8.469-9.484c4.424-4.02,9.559-7.513,11.18-9.059c1.614-1.562,5.105-4.099,8.793-6.451
		c0.941-0.6,1.802-1.15,2.569-1.874l0.586-0.549c0.188-0.23,0.511-0.352,0.71-0.486c0.448-0.26,0.889-0.516,1.316-0.764
		c1.718-0.984,3.235-1.855,4.34-2.488c2.196-1.283,5.151-3.811,7.961-6.057C136.41,143.758,139.056,141.781,140.339,141.474z"/>
	<path style="fill:#231815;" d="M175.778,163.427c13.282-11.05,15.559-5.51,9.454-1.689c-6.107,3.822-11.276,8.923-15.911,12.322
		c-4.636,3.4-9.271,6.799-14.219,9.771c-4.948,2.974-15.468,8.063-9.987,3.389c5.479-4.674,7.175-7.228,14.126-12.325
		C166.195,169.796,175.778,163.427,175.778,163.427z"/>
	<path style="fill:#231815;" d="M162.817,183.052c-7.711,1.451-7.359-4.388-4.098-4.026c3.262,0.364,6.444-0.857,9.032-0.988
		c2.589-0.132,5.176-0.263,7.791,0.133c2.615,0.396,7.896,2.247,4.69,2.939c-3.208,0.692-4.451,1.814-8.331,2.012
		C168.019,183.319,162.817,183.052,162.817,183.052z"/>
	<path style="fill:#231815;" d="M355.525,130.005c4.861-4.352,8.166-4.762,9.326-4.047c1.199,0.753,0.534,2.655-1.735,3.828
		c-4.61,2.381-7.942,6.494-10.858,9.285c-2.956,2.807-5.698,5.798-8.619,8.709c-1.49,1.431-3.796,3.579-5.413,4.87
		c-1.607,1.29-2.614,1.638-1.404-0.75c1.222-2.377,1.998-4.127,2.956-5.935c0.962-1.804,2.118-3.669,4.292-6.088
		c2.178-2.419,4.999-4.97,7.327-6.821C353.732,131.209,355.525,130.005,355.525,130.005z"/>
	<path style="fill:#231815;" d="M334.976,75.129c-0.752-2.547-0.67-4.645-0.104-5.997c0.219-0.674,0.606-1.166,0.958-1.488
		c0.354-0.324,0.705-0.485,1.034-0.528c0.658-0.082,1.233,0.296,1.591,0.82c0.177,0.264,0.298,0.568,0.332,0.9
		c0.043,0.336,0.079,0.732-0.03,1.155c-0.349,1.742,0.035,3.631,0.642,5.306c0.649,1.689,1.412,3.22,2.013,4.632
		c1.153,2.842,2.585,5.597,3.792,8.544c0.584,1.486,1.38,3.811,1.753,5.421c0.381,1.595,0.253,2.521-1.211,1.029
		c-1.437-1.506-2.582-2.489-3.695-3.644c-1.127-1.143-2.21-2.471-3.4-4.721c-1.185-2.251-2.254-5.064-2.862-7.368
		c-0.323-1.144-0.508-2.172-0.649-2.891C335.036,75.565,334.976,75.129,334.976,75.129z"/>
	<path style="fill:#231815;" d="M352.59,90.71c2.997,4.343,4.333,10.01,11.892,10.355c3.786,0.179,10.031,0.54,16.265,1.06
		c6.234,0.511,12.455,1.163,16.219,1.606c1.883,0.223,5.331,0.516,9.685,0.957c4.301,0.442,9.346,0.91,13.15,2.999
		c1.897,1.041,3.383,2.443,4.426,4.355c1.052,1.895,1.62,4.192,1.725,6.465c0.23,4.534-1.48,8.962-3.246,12.206
		c-1.768,3.257-4.276,7.159-7.067,11.126c-2.802,3.968-5.997,8.004-9.369,11.706c-6.707,7.453-14.234,13.363-19.111,16.128
		c-6.851,3.844-9.541,6.644-8.821,7.809c0.655,1.069,4.986,0.332,10.909-4.777c2.441-2.12,5.997-5.041,9.84-8.518
		c3.844-3.472,7.959-7.52,11.665-11.665c7.452-8.267,13.144-16.92,14.829-19.486c0.818-1.271,3.098-4.899,4.215-10.376
		c0.523-2.731,0.605-5.929-0.18-9.166c-0.749-3.224-2.535-6.5-5.295-8.767c-2.722-2.309-6.066-3.594-9.184-4.429
		c-3.141-0.836-6.135-1.278-8.73-1.705c-5.214-0.851-9.059-1.456-10.185-1.775c-2.247-0.649-7.595-1.304-13.239-1.935
		c-5.643-0.644-11.58-1.264-15.008-2.154C361.115,90.909,352.59,90.71,352.59,90.71z"/>
	<path style="fill:#231815;" d="M366.969,182.24c-1.953-4.207-4.75-8.065-7.64-11.392c-2.842-3.39-5.731-6.243-7.793-8.875
		c-2.096-2.578-1.065-3.36,1.091-2.961c2.197,0.343,5.309,2.11,6.804,3.799c3.061,3.32,7.894,9.704,11.267,14.91
		c1.699,2.589,8.353,12.819,13.2,23.951c1.274,2.748,2.331,5.601,3.37,8.294c0.893,2.762,1.811,5.348,2.351,7.776
		c1.274,4.777,1.557,8.654,1.6,10.07c0.018,0.352,0.043,0.854,0.075,1.49c0.021,0.63-0.044,1.354-0.072,2.207
		c-0.035,1.699-0.248,3.828-0.497,6.257c-0.598,4.845-1.797,10.848-3.766,16.747c-1.93,5.91-4.543,11.71-7.102,16.468
		c-2.549,4.766-4.973,8.535-6.238,10.662c-2.489,4.322-5.477,6.275-7.29,6.702c-1.823,0.439-2.597-0.611-1.376-2.389
		c1.282-1.735,4.553-5.986,7.323-10.308c2.78-4.316,5.065-8.674,5.593-9.843c0.623-1.109,4.351-7.66,6.869-15.274
		c2.662-7.557,3.716-16.082,3.471-19.122c-0.015-1.531-0.227-3.729-0.458-6.281c-0.215-1.27-0.446-2.629-0.685-4.035
		c-0.335-1.391-0.682-2.831-1.033-4.276c-1.571-5.746-3.781-11.439-5.234-14.601c-1.398-3.194-4.453-7.514-7.354-11.321
		c-1.483-1.877-2.897-3.669-4.073-5.158C368.192,184.255,367.317,183.038,366.969,182.24z"/>
	<path style="fill:#231815;" d="M149.834,244.157c0.677,1.214,1.355,2.308,1.964,3.334c0.627,1.027,1.27,1.988,1.73,2.935
		c0.891,1.898,1.448,3.714,0.991,6.011c-0.317,1.469-0.371,3.346-0.493,5.515c0.08,2.133,0.109,4.573,0.555,7.027
		c0.752,4.931,2.363,10.129,4.482,13.866c2.005,3.788,5.363,8.8,8.976,12.775c0.925,0.973,1.82,1.916,2.665,2.803
		c0.869,0.86,1.74,1.611,2.495,2.317c1.487,1.438,2.814,2.367,3.468,2.925c1.319,1.109,2.799,1.771,3.867,2.389
		c1.062,0.628,1.717,1.227,1.53,2.107c-0.354,1.773-3.149,1.171-5.093-0.187c-0.95-0.678-5.92-4.059-10.268-8.432
		c-4.395-4.311-8.063-9.527-8.512-11.234c-0.543-1.65-3.242-5.446-5.258-9.515c-1.127-1.978-1.915-4.065-2.64-5.712
		c-0.645-1.675-0.975-2.993-0.988-3.519c0.008-0.534-0.108-1.232-0.235-2.034c-0.102-0.809-0.258-1.711-0.433-2.633
		c-0.404-1.834-0.663-3.776-0.826-5.132c-0.208-1.351-0.443-3.206-0.768-5.121c-0.393-1.913-0.626-3.883-1.033-5.454
		c-0.436-1.531,0.048-3.853,0.536-5.798C147.077,241.333,149.092,242.848,149.834,244.157z"/>
	<path style="fill:#231815;" d="M150.899,433.648c-2.535-3.419-4.564-6.552-6.079-9.386c-1.52-2.831-2.524-5.345-3.201-7.442
		c-1.307-4.233-1.198-6.789-0.835-7.775c0.383-0.999,1.174-0.533,2.038,0.944c0.874,1.483,1.919,3.945,3.202,7.078
		c2.551,6.309,6.612,11.99,10.611,17.277c2.025,2.668,3.998,5.266,5.889,7.758c0.473,0.656,0.943,1.249,1.401,1.942
		c0.466,0.702,0.883,1.362,1.282,2.054c0.797,1.373,1.497,2.778,2.061,4.207c1.132,2.846,1.861,5.974,1.863,9.169
		c0.019,3.191-0.72,6.398-2.048,9.247c-1.328,2.862-3.187,5.373-5.348,7.535c-2.233,2.148-4.665,3.878-7.275,5.31
		c-2.596,1.454-6.044,2.767-9.483,3.671c-3.443,0.916-6.873,1.441-9.516,1.746c-5.294,0.563-7.469,0.374-0.712-1.459
		c6.722-1.89,11.227-3.768,15.527-6.372c2.137-1.31,4.229-2.814,6.333-4.787c2.053-1.905,4.164-4.433,5.713-7.788
		c1.555-3.364,2.009-7.387,1.094-11.276c-0.907-3.902-2.877-7.547-5.02-10.611c-2.173-3.183-4.049-5.931-5.384-7.884
		C151.686,434.824,150.899,433.648,150.899,433.648z"/>
	<path style="fill:#231815;" d="M150.659,334.217c4.16-6.493,8.249-10.478,11.269-12.909c3.057-2.423,5.139-3.273,6.126-3.303
		c0.998-0.019,0.979,0.839,0.13,2.147c-0.847,1.318-2.497,3.111-4.726,5.19c-4.484,4.156-8.195,9.106-11.116,14.109
		c-2.938,5.007-5.09,10.056-6.862,14.565c-3.529,9.051-5.488,18.642-6.172,28.37c-0.17,2.437-0.329,5.5-0.338,8.55
		c-0.024,3.048,0.095,6.08,0.201,8.432c0.098,2.353,0.179,4.027-0.039,4.361c-0.198,0.331-0.721-0.676-1.463-3.759
		c-1.411-6.176-2.122-10.61-2.529-15.409c-0.331-4.791-0.419-10.03,1.067-17.635c1.453-7.617,4.642-16.146,8.008-22.366
		c1.65-3.127,3.275-5.712,4.47-7.517C149.892,335.244,150.659,334.217,150.659,334.217z"/>
	<path style="fill:#231815;" d="M149.488,489.747c6.448-2.985,9.895-2.909,10.769-2.355c0.905,0.615-0.541,1.856-3.292,2.55
		c-5.562,1.398-10.511,4.422-14.443,6.631c-3.968,2.21-7.748,4.714-11.511,7.3c-3.83,2.427-11.281,8.147-7.417,3.794
		c1.971-2.161,3.353-3.702,4.921-5.27c1.571-1.563,3.343-3.152,6.278-5.144c2.94-1.989,6.583-3.975,9.53-5.337
		c1.483-0.66,2.76-1.234,3.692-1.585C148.94,489.964,149.488,489.747,149.488,489.747z"/>
	<path style="fill:#231815;" d="M158.759,494.618c5.536-2.4,8.515-1.939,9.216-1.304c0.734,0.707-0.522,1.773-2.832,2.178
		c-4.701,0.817-8.834,3.376-12.051,5.236c-3.266,1.859-6.317,4.044-9.318,6.353c-1.534,1.114-3.786,2.903-5.272,4.024
		c-1.474,1.123-2.298,1.449-0.872-0.568c1.44-2,2.467-3.422,3.67-4.867c1.209-1.437,2.611-2.899,5.031-4.689
		c2.425-1.787,5.501-3.505,8.011-4.629c1.267-0.539,2.356-1.006,3.156-1.276C158.29,494.789,158.759,494.618,158.759,494.618z"/>
	<path style="fill:#231815;" d="M261.549,333.624c-0.911,4.739-0.438,8.133-1.173,10.406c-0.36,1.135-0.994,1.984-2.196,2.563
		c-1.182,0.665-2.895,1.163-5.544,1.466c-1.942,0.273-3.979,0.965-6.094,1.664c-2.079,0.779-4.092,1.888-6.061,2.907
		c-1.897,1.145-3.638,2.409-5.202,3.525c-1.514,1.191-2.747,2.391-3.728,3.31c-1.98,1.819-6.876,6.279-11.264,11.347
		c-1.067,1.293-2.138,2.592-3.173,3.846c-0.94,1.328-1.848,2.611-2.69,3.8c-0.88,1.167-1.561,2.322-2.148,3.331
		c-0.592,1.005-1.096,1.859-1.48,2.51c-0.426,0.63-1.179,2.194-2.254,4.419c-1.174,2.183-2.266,5.195-3.587,8.633
		c-0.53,1.761-1.096,3.638-1.688,5.601c-0.426,2.003-0.872,4.092-1.33,6.239c-0.262,2.178-0.529,4.412-0.802,6.675
		c-0.173,2.286-0.23,4.628-0.234,6.983c0.023,9.419,1.081,19.087,1.329,26.771c0.325,7.696-0.127,13.307-0.231,14.408
		c-0.174,2.214-0.779,7.042-2.201,11.953c-0.706,2.452-1.589,4.913-2.535,7.076c-0.98,2.154-1.924,4.013-2.734,5.349
		c-1.58,2.679-3.174,4.643-5.193,6.846c-2.059,2.173-4.424,4.716-8.627,7.787c-4.207,3.101-8.774,4.526-12.127,4.813
		c-3.392,0.278-5.499-0.45-5.801-1.254c-0.316-0.864,1.048-1.927,3.097-2.812c2.088-0.891,4.812-1.751,8.245-2.457
		c1.733-0.341,3.891-1.21,6.086-2.533c2.2-1.319,4.377-3.154,6.278-5.2c1.906-2.043,3.522-4.308,4.784-6.423
		c1.283-2.108,2.173-4.088,2.928-5.503c0.734-1.393,3.26-7.516,4.092-16.456c0.458-4.449,0.54-9.544,0.3-14.925
		c-0.226-5.382-0.742-11.051-1.137-16.73c-0.396-5.677-0.638-11.378-0.375-16.777c0.037-1.351,0.208-2.673,0.35-3.975
		c0.143-1.301,0.282-2.58,0.421-3.833c0.437-2.478,0.932-4.84,1.386-7.056c0.627-2.175,1.214-4.208,1.75-6.065
		c0.652-1.818,1.297-3.443,1.832-4.873c0.501-1.444,1.084-2.611,1.535-3.552c0.449-0.941,0.786-1.649,0.995-2.088
		c0.754-1.798,2.385-4.654,4.229-8.121c1.044-1.665,2.169-3.462,3.328-5.312c1.261-1.783,2.615-3.587,3.927-5.395
		c1.404-1.729,2.864-3.382,4.215-4.981c1.402-1.548,2.842-2.899,4.074-4.161c1.211-1.289,2.443-2.233,3.381-3.053
		c0.951-0.804,1.675-1.405,2.1-1.739c0.82-0.707,2.122-1.595,3.57-2.697c1.451-1.098,3.072-2.383,4.82-3.44
		c0.86-0.557,1.715-1.11,2.538-1.643c0.414-0.266,0.818-0.527,1.213-0.781c0.411-0.22,0.811-0.435,1.195-0.641
		c1.544-0.814,2.848-1.481,3.68-1.859c0.417-0.188,0.832-0.404,1.249-0.644c0.425-0.216,0.858-0.429,1.286-0.674
		c0.856-0.482,1.704-1.031,2.531-1.609c0.827-0.573,1.624-1.188,2.388-1.759c0.783-0.533,1.52-1.034,2.176-1.48
		C259.911,333.529,261.549,333.624,261.549,333.624z"/>
	<path style="fill:#231815;" d="M357.912,453.938c2.511-7.682,5.025-12.87,6.783-16.439c1.786-3.552,3.019-5.456,3.887-6.048
		c0.862-0.591,1.296,0.14,1.203,1.837c-0.076,1.7-0.75,4.337-2.108,7.379c-2.708,6.083-5.2,12.166-6.843,18.074
		c-1.714,5.893-2.305,11.557-2.025,16.412l0.075,1.483l0.237,1.455c0.155,0.972,0.274,1.951,0.592,2.882
		c0.303,0.933,0.45,1.916,0.865,2.813l0.993,2.428l0.001,0.004l0.203,0.245c0.173,0.216,0.332,0.433,0.469,0.637
		c0.278,0.408,0.487,0.76,0.685,1.077c0.4,0.652,0.718,1.11,1.135,1.609c0.806,0.958,1.776,1.755,2.934,2.423l0.353,0.194
		c0.154,0.089,0.316,0.158,0.462,0.26l0.663,0.684l0.202,0.215l0.101,0.107l0.018,0.023l0.046,0.051
		c0.508,0.281,1.257,0.719,1.897,1.027c1.321,0.702,2.697,1.301,4.083,1.891c2.334,0.984,5.363,2.014,8.454,2.839
		c3.09,0.827,6.237,1.427,8.68,1.887c2.442,0.457,4.179,0.788,4.466,1.08c0.287,0.268-0.874,0.537-4.215,0.522
		c-6.681-0.093-11.451-0.508-16.486-1.654c-2.51-0.592-5.092-1.383-7.909-2.654c-0.349-0.165-0.703-0.331-1.065-0.501
		c-0.275-0.136-0.554-0.271-0.833-0.408c-0.154-0.105-0.275-0.255-0.415-0.382l-0.314-0.303l-0.375-0.353l-0.054-0.015l-0.023-0.008
		l-0.15-0.078l-0.317-0.169l-0.637-0.368c-1.704-1.018-3.426-2.551-4.728-4.523c-0.339-0.525-0.684-1.056-0.969-1.497
		c-0.115-0.167-0.191-0.266-0.278-0.37c-0.231-0.246-0.414-0.439-0.529-0.561c-0.461-1.112-0.923-2.23-1.389-3.35
		c-0.471-0.998-0.669-2.1-0.986-3.151l-0.432-1.591l-0.25-1.617c-0.136-1.077-0.386-2.137-0.377-3.199
		c-0.352-4.249,0.28-8.207,0.937-11.515c0.364-1.653,0.723-3.166,1.143-4.471c0.372-1.325,0.741-2.466,1.083-3.389
		C357.491,454.99,357.912,453.938,357.912,453.938z"/>
	<path style="fill:#231815;" d="M319.544,343.452c-10.437-3.911-18.481-5.119-24.012-5.759c-5.561-0.616-8.71-0.442-10.007-0.908
		c-1.293-0.419-0.645-1.182,1.679-2.027c0.579-0.231,1.263-0.401,2.041-0.538c0.778-0.141,1.651-0.307,2.605-0.399
		c0.952-0.058,1.988-0.098,3.095-0.115c1.103,0.007,2.269,0.123,3.497,0.223c9.775,1.13,19.161,3.901,27.629,7.715
		c4.231,1.916,8.2,4.182,11.77,6.797c1.775,1.301,3.491,2.791,4.923,4.053c1.513,1.3,2.987,2.567,4.417,3.796
		c5.735,4.916,11.799,10.035,16.493,16.514c2.396,3.226,4.276,6.713,5.946,10.279c1.639,3.584,2.982,7.315,3.865,11.159
		c0.914,3.832,1.556,8.75,1.405,13.586c-0.122,4.841-1.08,9.529-2.214,12.96c-1.172,3.432-2.406,5.632-2.776,5.931
		c-0.198,0.145-0.217-0.194-0.018-1.123c0.101-0.465,0.256-1.077,0.472-1.848c0.18-0.782,0.399-1.733,0.659-2.868
		c0.969-4.555,1.102-8.535,0.882-12.161c-0.234-3.633-0.819-6.933-1.672-10.267c-0.86-3.333-2.067-6.686-3.723-10.388
		c-1.693-3.664-3.814-7.806-7.013-12.139c-3.227-4.382-7.506-8.555-12.019-12.517c-2.277-2.006-4.532-3.993-6.71-5.91
		c-1.08-0.986-2.139-1.953-3.173-2.896c-1.005-0.846-1.91-1.744-2.936-2.47c-3.954-3.057-7.818-5.186-10.589-6.599
		c-1.412-0.667-2.536-1.199-3.307-1.563C319.98,343.612,319.544,343.452,319.544,343.452z"/>
	<path style="fill:#231815;" d="M408.095,408.335c2.839-9.666,3.954-16.884,4.761-21.908c0.799-5.028,1.272-7.894,1.908-8.973
		c0.622-1.081,1.271-0.366,1.736,1.757c0.493,2.115,0.63,5.648,0.057,9.987c-1.186,8.669-3.277,17.151-5.932,24.986
		c-2.687,7.834-5.922,14.97-9.36,21.056c-3.005,5.086-5.576,10.214-6.915,15.632c-0.663,2.693-0.995,5.425-0.883,8.126l0.176,2.016
		c0.123,0.662,0.201,1.335,0.352,1.992l0.246,0.983l0.12,0.49l0.022,0.104l0.001,0.003l-0.04-0.093l0.031,0.072l0.059,0.147
		l0.928,2.34l-0.079-0.206c0.489,1.228,1.288,2.252,2.395,3.05c1.117,0.801,2.54,1.422,4.47,1.805
		c1.969,0.447,4.076,0.965,6.131,1.549c4.127,1.152,8.117,2.661,11.013,4.139c2.907,1.473,4.724,2.845,4.924,3.25
		c0.177,0.458-1.172-0.17-5.103-1.614c-5.535-1.942-10.168-2.65-14.583-3.255c-1.116-0.137-2.218-0.271-3.324-0.407
		c-0.522-0.053-1.195-0.147-1.825-0.294c-0.627-0.13-1.256-0.317-1.885-0.54c-2.5-0.855-5.133-2.823-6.5-5.78l-0.084-0.216
		c-0.198-0.413-0.401-0.833-0.609-1.264c-0.1-0.216-0.202-0.435-0.305-0.655c-0.199-0.442-0.244-0.569-0.287-0.737l-0.138-0.45
		c-0.402-1.2-0.688-2.496-0.937-3.869c-0.451-2.754-0.475-5.853,0.062-9.152c0.86-5.504,3.163-10.971,5.866-15.883
		c0.68-1.233,1.382-2.428,2.072-3.585c0.646-1.142,1.286-2.272,1.915-3.381c1.235-2.248,2.369-4.442,3.4-6.512
		c2.043-4.149,3.558-7.841,4.602-10.474c0.496-1.328,0.89-2.384,1.16-3.108C407.96,408.733,408.095,408.335,408.095,408.335z"/>
	<path style="fill:#231815;" d="M390.386,315.97c-4.359-4.962-7.72-8.366-9.922-10.913c-2.219-2.525-3.328-4.141-3.479-5.079
		c-0.365-1.844,3.255-0.876,7.308,3.253c4.013,4.11,7.92,8.292,11.379,12.517c3.457,4.218,6.466,8.469,8.697,12.506
		c4.459,8.057,7.871,16.749,9.601,25.782c0.922,4.51,1.412,11.4,1.098,15.675c-0.126,2.139-0.39,3.628-0.652,3.887
		c-0.274,0.26-0.529-0.706-0.9-3.462c-0.797-5.508-1.895-9.263-3.13-13.215c-1.276-3.943-2.669-8.107-5.05-14.228
		c-2.371-6.13-5.824-13.009-9.033-18.127c-1.585-2.569-3.073-4.716-4.156-6.223C391.066,316.835,390.386,315.97,390.386,315.97z"/>
	<path style="fill:#231815;" d="M395.438,493.579c-7.114-1.509-5.403-4.946-2.629-3.714c2.776,1.231,5.86,1.476,8.162,2.197
		c2.304,0.723,4.606,1.445,6.805,2.496c2.2,1.051,6.39,3.811,3.41,3.238c-2.98-0.575-4.34-0.278-7.792-1.361
		C399.939,495.352,395.438,493.579,395.438,493.579z"/>
	<path style="fill:#231815;" d="M401.739,484.432c-5.828-1.369-8.396-2.459-8.883-3.422c-0.494-0.912,1.185-1.521,3.687-0.793
		c4.959,1.44,10.073,2.453,13.914,4.095c3.824,1.62,7.552,3.526,10.888,6.011c3.457,2.409,8.966,8.559,4.737,5.737
		c-2.119-1.375-3.727-2.142-5.424-2.965c-1.7-0.821-3.495-1.693-6.137-3.076c-2.647-1.382-5.807-2.857-8.348-3.896
		C403.63,485.091,401.739,484.432,401.739,484.432z"/>
	<path style="fill:#231815;" d="M306.373,13.752c-0.756,3.687-0.896,6.38-1.189,8.316c-0.271,1.934-0.601,3.123-1.15,3.667
		c-0.537,0.541-1.218,0.403-1.829-0.383c-0.597-0.778-1.088-2.226-0.998-4.069c0.162-3.663,0.651-7.266,1.649-10.624
		c0.497-1.675,1.12-3.281,1.873-4.757c0.777-1.508,1.762-2.992,3.239-4.15c1.416-1.173,3.646-1.964,5.687-1.701
		c2.032,0.238,3.644,1.137,4.946,2.106c1.319,1.005,2.335,2.1,3.275,3.253c0.933,1.167,1.746,2.42,2.418,3.736
		c0.678,1.312,1.33,3.047,1.717,4.801c0.397,1.751,0.527,3.512,0.44,4.851c-0.085,1.343-0.343,2.257-0.599,2.427
		c-0.282,0.173-0.515-0.393-0.928-1.967c-0.883-3.142-2.179-5.076-3.591-6.955c-0.721-0.936-1.501-1.855-2.435-2.844
		c-0.925-0.954-2.068-2.122-3.354-3.069c-0.648-0.465-1.333-0.843-1.937-1.016c-0.611-0.169-1.087-0.172-1.598-0.008
		c-1.045,0.305-2.277,1.671-3.12,3.065C307.093,11.315,306.373,13.752,306.373,13.752z"/>
	<path style="fill:#231815;" d="M299.206,126.174c0.601,0.054,1.159,0.025,1.668-0.067c0.48-0.062,1.134-0.227,1.622-0.332
		c1.041-0.241,1.909-0.442,2.632-0.609c1.461-0.316,2.416-0.372,2.952-0.123c0.534,0.242,0.623,0.784,0.219,1.434
		c-0.402,0.641-1.321,1.379-2.677,1.801c-1.368,0.418-2.665,0.782-4.1,1.042c-1.531,0.263-3.133,0.172-4.582-0.325
		c-2.939-0.918-5.183-3.458-5.759-6.111c-0.515-2.669-0.17-4.862,0.26-7.044c0.458-2.155,1.121-4.19,1.894-6.156
		c0.775-1.969,2.158-4.777,3.062-6.552c0.886-1.776,1.541-2.544,1.233,0.136c-0.782,5.245-0.98,7.484-2.2,13.316
		c-0.269,1.444-0.484,2.997-0.442,4.391c0.001,1.293,0.457,2.373,1.112,3.227c0.658,0.84,1.48,1.357,2.089,1.628
		C298.805,126.105,299.206,126.174,299.206,126.174z"/>
	<path style="fill:#231815;" d="M160.485,330.471c7.239-2.785,16.15,4.455,24.505,5.569c8.353,1.113,9.468,7.24,6.126,11.695
		c-3.342,4.455-10.024,6.126-15.593,5.569c-5.569-0.557-10.582,0-16.151,1.114c-5.569,1.113-15.037-1.114-15.037-1.114
		S156.029,329.913,160.485,330.471z"/>
	<path style="fill:#231815;" d="M137.195,382.161c-0.101-2.681,1.57-18.275,3.241-19.389c1.671-1.113,12.81,4.456,19.492,3.342
		c6.684-1.114,10.025,4.455,6.684,8.911c-3.342,4.455-5.013,5.569-8.911,6.682c-3.898,1.114-12.253,2.229-12.253,2.229
		L137.195,382.161z"/>
	<path style="fill:#231815;" d="M357.637,336.04c-8.457-3.021-6.682-9.468-4.455-11.696c2.227-2.228,8.911-3.34,11.695-7.797
		c2.785-4.455,3.342-3.898,8.355-6.126c5.011-2.228,8.353-4.456,12.809-2.785c4.455,1.671,13.366,14.48,11.139,17.266
		c-2.229,2.784-13.367,7.797-17.266,8.911C376.016,334.926,365.434,338.824,357.637,336.04z"/>
	<path style="fill:#231815;" d="M381.029,362.216c-7.24-2.785-5.569-12.253-1.671-13.924c3.898-1.671,7.797-4.455,11.695-6.682
		c3.898-2.227,5.569-4.456,12.253-1.114c6.684,3.342,6.126,6.684,6.684,9.468c0.557,2.785-1.114,7.24-1.114,7.24
		s-5.569,1.671-13.924,4.456C386.598,364.443,381.029,362.216,381.029,362.216z"/>
	<path style="fill:#231815;" d="M154.916,186.226c-1.114,10.581,4.3,13.114,7.797,11.138c0,0,11.695,5.569,11.695-2.229
		c0-7.797,1.671-11.695-3.342-12.808C166.055,181.213,151.574,178.986,154.916,186.226z"/>
	<path style="fill:#231815;" d="M356.525,133.874c5.011,5.569,11.139,10.582,6.126,13.924c-5.013,3.342-3.898,2.784-7.24,5.013
		c0,0-10.582,0-10.582-5.013C344.828,142.785,356.525,133.874,356.525,133.874z"/>
	<path style="fill:#231815;" d="M317.891,76.351c-1.898,0.474-3.259-0.132-3.76-1.011c-0.616-1.081,0.072-2.576,2.672-2.976
		c2.356-0.363,3.353,0.453,3.397,1.45C320.246,74.81,319.341,75.988,317.891,76.351z"/>
	<path style="fill:#231815;" d="M326.951,65.841c-0.901-0.901-1.58-2.536-1.754-3.994c-0.212-1.776,0.324-3.289,2.117-2.892
		C330.575,59.681,328.037,66.928,326.951,65.841z"/>
	<path style="fill:#231815;" d="M244.112,51.518c-4.214,0.954-6.295,0.555-6.974-0.321c-0.667-0.847,0.205-2.111,2.108-2.257
		c3.76-0.287,7.419-1.461,10.47-1.567c3.028-0.114,6.083-0.05,9.058,0.624c3.036,0.608,8.543,3.282,4.852,3.076
		c-3.671-0.13-5.175,0.539-9.458,0.374c-2.146-0.058-4.657-0.09-6.635-0.05C245.554,51.468,244.112,51.518,244.112,51.518z"/>
	<path style="fill:#231815;" d="M250.988,62.952c-2.953,2.846-4.927,3.404-5.91,2.949c-0.969-0.446-0.863-1.917,0.617-2.892
		c2.938-1.935,5.227-4.7,7.541-6.328c2.298-1.622,4.661-3.174,7.278-4.272c2.625-1.149,8.279-2.299,5.44-0.292
		c-2.802,2.032-3.552,3.428-6.976,5.627c-1.714,1.109-3.713,2.401-5.287,3.418C252.127,62.197,250.988,62.952,250.988,62.952z"/>
	<path style="fill:#231815;" d="M319.62,24.826c2.486-2.32,4.375-2.292,5.136-1.629c0.781,0.68,0.615,1.948-0.587,2.481
		c-2.45,1.095-4.074,3.381-5.627,4.739c-1.575,1.373-3.05,2.802-4.66,4.116c-0.814,0.651-2.097,1.596-3.022,2.229
		c-0.9,0.633-1.592,0.864-1.117-0.525c0.516-1.347,0.849-2.356,1.322-3.36c0.464-1.015,1.081-2.024,2.287-3.248
		c1.21-1.218,2.766-2.453,4.034-3.339C318.654,25.401,319.62,24.826,319.62,24.826z"/>
	<path style="fill:#231815;" d="M323.765,33.915c5.38-0.771,4.762,3.79,2.611,3.313c-2.175-0.453-4.354,0.385-6.083,0.428
		c-1.736,0.043-3.465,0.113-5.226-0.19c-1.747-0.317-5.4-1.646-3.239-2.241c2.171-0.584,3.014-1.465,5.69-1.589
		C320.198,33.506,323.765,33.915,323.765,33.915z"/>
</g>
</svg>
