<?xml version="1.0" encoding="iso-8859-1"?>
<!-- Generator: Adobe Illustrator 22.1.0, SVG Export Plug-In . SVG Version: 6.00 Build 0)  -->
<svg version="1.1" id="_x32_" xmlns="http://www.w3.org/2000/svg" xmlns:xlink="http://www.w3.org/1999/xlink" x="0px" y="0px"
	 viewBox="0 0 512 512" style="enable-background:new 0 0 512 512;" xml:space="preserve">
<g>
	<path style="fill:#AA6357;" d="M75.371,495.698c-7.483,3.437,9.975,3.723,21.993,4.26c12.018,0.537,26.648,1.852,29.587-4.26
		c2.939-6.112,11.689-5.758,16.107-3.881c4.418,1.876,7.578,9.645,14.161,8.141c6.583-1.503,3.053-5.659,12.641,0.5
		c9.588,6.159,11.572,2.391,10.143,0.92c-1.429-1.471,4.598-7.028,13.585,0.466c8.988,7.494,16.811,6.996,20.382,4.524
		c3.571-2.472,9.227-1.573,15.374-1.573c6.147,0,25.55,2.364,22.44-3.417c-3.11-5.781-8.828-17.006-8.646-22.551
		c0.182-5.545,6.064-14.874,0.295-22.152c-5.768-7.277-7.123-10.989-11.708-16.592c-4.586-5.603-9.457-12.627-15.902-23.384
		c-6.445-10.757-15.213-29.234-15.537-33.461c-0.325-4.227-10.098-51.585,3.579-72.6c13.677-21.015,36.485-23.549,41.828-24.144
		c5.342-0.594,45.604-7.469,53.966-5.511c8.362,1.958,40.328-1.599,44.22-9.573c1.946-3.987,4.518-12.422,8.571-19.051
		s9.588-11.453,9.588-11.453s27.35-14.279,40.025-15.238c12.676-0.959,16.775-6.152,21.903-11.573
		c5.128-5.42,3.087-10.579,3.087-10.579s-7.45,10.2-12.908,12.441c-5.458,2.241-13.386,0.596-13.386,0.596l3.438-18.569
		c0,0-8.937,4.452-7.968,6.582c0.969,2.131-2.005,11.257-2.005,11.257s-8.842,0.591-16.372,3.281
		c-7.53,2.69-18.579,6.425-21.363,8.75c-2.785,2.325-7.601,5.805-7.601,5.805s-1.612-8.487-1.513-15.831
		c0.098-7.344,2.224-15.055,4.022-17.65s22.059-22,22.059-22l-9.437-7.098l-12.289,12.412c0,0-10.169,9.168-10.745,10.138
		c-0.575,0.97-3.071,12.65-6.609,16.359c-3.538,3.709-4.666,10.075-4.559,13.741c0.108,3.666,1.229,9.6,0.516,13.026
		c-0.713,3.426-4.064,13.493-7.411,17.287c-3.347,3.794-8.714,9.109-16.43,10.322c-7.716,1.213-41.711,1.968-45.669,1.525
		c-3.957-0.443-6.122-5.53-11.921-7.031c-5.8-1.501-14.527-2.408-18.434-1.002c-3.907,1.406-10.97,5.378-10.97,5.378
		s2.288-7.514,1.454-13.009c-0.834-5.494-4.51-14.121-1.879-19.47c2.63-5.349,5.179-12.022,9.212-14.798
		c4.033-2.776,10.719-7.552,8.787-12.444c-1.932-4.892-5.53-15.753-6.535-17.958c-1.005-2.205-2.869-16.764-3.338-20.187
		c-0.47-3.422,6.113-11.288,9.421-14.373c3.308-3.085,9.074-9.75,9.074-9.75l-2.222-13.699c0,0-6.007,0.517-6.4,1.826
		c-0.393,1.309-1.819,5.784-3.646,8.828c-1.827,3.044-2.369,6.952-5.142,6.977c-2.773,0.025-4.054,4.611-4.054,4.611
		s-4.004,2.336-5.802,4.339c-1.798,2.002-2.963,4.774-2.658,6.6c0.304,1.827,0.127,16.147,0.127,16.147l-3.2,9.838
		c0,0-0.316,6.031-3.182,6.468c-2.866,0.438-5.949,2.644-8.372-3.364c-2.423-6.008-6.996-14.619-8.579-16.637
		c-1.583-2.018-3.946-6.789-3.946-6.789l-15.776-14.47c0,0-6.827-7.039-9.878-8.534c-3.052-1.495-9.309-3.251-17-4.606
		c-7.692-1.354-9.624,1.246-11.943-1.98c-2.32-3.226-5.055-6.582-5.122-9.92c-0.067-3.339,3.558-15.841,6.554-17.785
		c2.996-1.944-4.873-3.67-4.873-3.67s-1.979,11.183-4.361,12.999c-2.382,1.816-3.198,4.403-4.413,6.98
		c-1.216,2.578-1.46,8.216-1.46,8.216s-10.893-4.128-13.447-6.008c-2.554-1.88-8.2-5.808-12.982-11.308
		c-4.783-5.5-6.914-9.865-14.524-10.879c-7.61-1.014-7.61,9.965-3.957,12.999c3.653,3.034,6.753,10.7,11.748,12.499
		c4.995,1.799,10.429,9.651,13.648,12.27c3.219,2.618,13.036,5.5,18.478,6.342c5.441,0.843,16.535,5.819,21.338,9.267
		c4.803,3.448,11.081,14.733,15.705,20.658c4.623,5.925,5.885,10.112,2.971,18.521c-2.914,8.409-16.892,62.033-19.644,65.51
		c-2.752,3.477-8.968,0.958-10.78,2.398c-1.812,1.439-3.852,3.99-7.211,7.453c-3.358,3.463-10.06,13.557-11.735,14.853
		c-1.675,1.296-1.713,3.905-1.677,8.995s2.472,10.841,2.472,13.445c-0.001,2.604,2.435,6.257,2.435,6.257l-1.997,5.439
		c0,0-3.632,28.867-2.492,35.915c1.14,7.048,0.842,17.648,4.948,27.112c4.107,9.464,14.457,23.771,18.11,33.208
		c3.653,9.437,9.157,19.787,7.927,30.137c-1.23,10.35-9.145,14.307-14.928,19.482c-5.784,5.175-18.266,13.355-22.938,13.698
		c-4.673,0.343-9.735,1.842-12.734,4.419c-3,2.577-5.423,5.133-5.423,5.133S74.943,493,75.371,495.698z"/>
	<path style="fill:#5B8449;" d="M204.752,114.017c-4.823-0.024-10.907-5.281-17.056-1.247c-6.149,4.033-15.471,10.729-27.514,9.172
		c-12.044-1.557-29.769-7.262-32.497-7.949c-2.728-0.687-9.377,2.269-15.256,2.895c-5.881,0.626-6.406,3.582-10.614,0
		c-4.207-3.581-4.7,3.27-12.012,2.022c-7.312-1.247-19.178-9.283-21.992-9.81c-2.813-0.527-9.13,3.673-13.858,0
		c-4.728-3.673-4.22-3.475-6.938-3.721c-2.718-0.246-18.635-1.642-20.898-10.792c-2.262-9.15-1.386-10.702-4.215-14.433
		c-2.83-3.73,0.778-1.704-6.879-10.233c-7.658-8.529-1.041-7.631-8.405-13.417c-7.363-5.786-8.322-4.005-4.161-12.258
		c4.161-8.254,7.717-6.537,12.583-7.223c4.867-0.685,3.957,1.728,11.179-2.544c7.223-4.272,6.271-3.994,13.534-3.22
		c7.262,0.774,10.933-5.204,10.933-5.204s16.341-9.356,25.517-10.637s21.509-0.521,26.893,1.251
		c5.383,1.772,22.825,9.165,29.711,10.633c6.887,1.466,11.157-1.291,16.621-3.127c5.464-1.837,19.906-4.677,25.27-7.505
		c5.363-2.828,14.736-15.014,20.334-12.792c5.598,2.221,11.919,9.369,17.726,10.182c5.807,0.812,15.348,0.537,20.201,3.269
		c4.853,2.732,18.406,12.74,22.572,17.657c4.167,4.917,2.04,4.433,6.13,5.636c4.089,1.202,16.763,3.476,20.775,7.296
		c4.012,3.82,8.415,7.815,8.81,12.25c0.394,4.435-0.478,4.569-1.334,10.184c-0.857,5.615,0.039,7.719,1.432,10.348
		c1.394,2.63,7.818,3.308,7.675,6.384c-0.142,3.076,0.244,7.067,0.244,7.067s12.815,13.539,17.634,19.87
		c4.818,6.33,9.789,12.66,7.866,17.102c-1.923,4.442-8.831,10.45-8.636,13.152c0.195,2.701,3.764,4.471-1.302,7.141
		c-5.067,2.669-10.228,3.361-12.106,2.911c-1.878-0.45-6.251,0.05-13.762-2.683c-7.511-2.734-9.242-5.374-11.952-5.631
		c-2.71-0.259-8.033-1.15-10.564-0.21c0,0-20.113,2.447-22.392,0c-2.28-2.446-6.077-8.194-8.582-15.111
		c-2.505-6.918-0.496-12.187-6.084-14.344c-5.588-2.157-16.622-2.351-16.622-2.351L204.752,114.017z"/>
	<path style="fill:#5B8449;" d="M386.081,193.632c3.336-1.162,1.865,5.084,4.268,6.548c2.403,1.464-1.62,9.258,7.096,9.811
		c8.716,0.553,8.604-2.381,11.103,1.271c2.498,3.651,2.915,7.753,8.47,7.844c5.554,0.093,5.249-1.724,9.092-1.698
		c0,0,1.845-4.256,6.449-1.45c4.604,2.807,12.935,7.47,18.569,5.336c5.633-2.134,7.245-2.21,11.155-5.468
		c3.911-3.258,6.675-5.174,10.479-5.218c3.805-0.045,21.42,0.352,23.833-0.616c2.413-0.967,9.109-5.587,10.501-6.473
		c1.392-0.888,5.494-3.234,3.132-6.591c-2.363-3.355-1.502-2.6-3.598-6.082c-2.095-3.481-4.859-8.444-7.134-8.395
		c-2.274,0.049-7.922,0-7.922,0s-25.627-8.611-28.796-10.368c-3.168-1.758-6.944-2.438-8.098-6.71
		c-1.154-4.271-5.719-13.798-8.837-14.699c-3.119-0.902-14.368-2.339-14.368-2.339s-8.905-3.576-8.904-5.737
		c0.002-2.161-17.758-8.855-22.546-10.254c-4.788-1.398-19.659,1.005-21.494,2.542c-1.836,1.536-10.081,11.757-16.734,14.909
		c-6.653,3.152-13.47,6.066-15.638,6.001c-2.167-0.066-13.693,1.152-21.374,3.012c-7.681,1.86-9.795,2.067-9.865,6.566
		c-0.07,4.5,0.863,9.416,5.681,11.02c4.819,1.603,16.084,4.119,21.281,3.072c5.197-1.046,9.605-5.868,14.596-3.232
		c4.992,2.637,11.316,5.387,13.618,8.71c2.302,3.323-0.605,0.375,4.431,2.956c5.035,2.581,12.388,2.948,12.388,2.948
		L386.081,193.632z"/>
	<path style="fill:#5B8449;" d="M139.433,257.939c-4.34-0.819-4.724,1.236-10.107-4.913c-5.382-6.151-11.103-5.325-13.765-6.225
		c-2.663-0.902-16.275,2.969-24.736,4.932c-8.461,1.964-20.156-1.584-20.156-1.584s-2.084-6.96-7.215-9.503
		c-5.13-2.543-34.93-1.096-40.71-2.817c-5.78-1.72-17.999-9.196-19.796-11.77c-1.796-2.574,0.671-15.759,6.909-20.048
		c6.238-4.291,15.735-1.276,22.591-2.495c6.857-1.221,27.771-7.672,27.771-7.672s8.829-7.403,13.649-9.029
		c4.82-1.628,26.361-4.03,32.204-3.125c5.842,0.905,14.08-0.488,16.787,1.461c2.708,1.95,3.034,3.96,4.488,2.969
		c1.452-0.991,8.011-4.088,12.086-4.43c4.075-0.342,11.387,4.178,14.191,6.555c2.804,2.377,5.527,1.827,5.093,3.384
		c-0.433,1.557,0.061,11.497-1.926,13.204c-1.988,1.707-2.396,3.81-2.198,7.165c0.197,3.356,3.159,12.268,1.866,16.624
		c-1.293,4.355-3.463,14.369-7.033,17.874c-3.571,3.505-7.975,10.361-7.975,10.361L139.433,257.939z"/>
	<path style="fill:#5B8449;" d="M224.796,219.47c0.801,0.093,1.624,0.188,2.453,0.293c4.706,0.598,9.631,1.526,11.94,4.219
		c2.716,3.167,5.709,9.599,9.861,9.678s9.86,3.594,15.449,5.02c5.587,1.424,8.942,3.086,6.36,7.81
		c-2.582,4.722-8.877,8.301-9.764,7.42c-0.888-0.881,4.038-0.705-7.34-0.319c-11.379,0.388-14.193-0.079-24.061-0.565
		c-9.868-0.486-9.868-0.486-9.868-0.486s-0.475-8.849-2.613-14.295"/>
	<path d="M106.172,295.058c0.032-1.172,0.038-2.276-0.046-3.548c-0.041-1.276-0.176-2.612,0.205-4.195
		c0.207-0.789,0.662-1.589,1.244-2.176c0.578-0.588,1.206-1.017,1.766-1.415c0.565-0.398,1.084-0.784,1.539-1.221
		c0.48-0.462,0.952-0.967,1.407-1.488c1.796-2.081,3.513-4.594,5.63-6.665c2.092-2.1,3.994-3.908,5.625-6.108
		c0.896-1.095,2.003-2.079,3.198-2.617c1.19-0.552,2.274-0.757,3.274-0.91c2.056-0.234,3.561,0.043,4.675,0.176
		c2.209,0.327,2.875,0.481,2.071,0.483c-0.803,0.003-2.042,0.083-4.053,0.241c-1.012,0.097-2.166,0.229-3.514,0.688
		c-1.367,0.421-2.757,1.122-3.989,2.619c-0.621,0.714-1.185,1.56-1.836,2.314c-0.632,0.755-1.279,1.452-1.91,2.11
		c-1.267,1.314-2.458,2.493-3.449,3.645c-1.955,2.305-3.371,4.498-4.675,5.98c-1.25,1.483-1.939,1.889-3.156,2.651
		c-0.595,0.409-1.423,0.817-1.89,1.843c-0.241,0.505-0.34,1.296-0.353,2.295c-0.017,1,0.101,2.188,0.135,3.669
		c0.003,2.862-0.048,5.131-0.152,6.861c-0.053,0.86-0.058,1.498,0.13,1.909c0.187,0.436,0.547,0.8,0.79,1.088
		c1.05,1.134,0.681,1.243-0.672,0.276c-0.328-0.255-0.702-0.565-0.983-1.033c-0.271-0.472-0.383-1.021-0.442-1.519
		c-0.088-0.972-0.178-1.964-0.258-2.852C106.307,296.408,106.172,295.058,106.172,295.058z"/>
	<path d="M120.492,299.77c-0.189,1.6-1.395,1.474-2.159,0.519c-0.499-0.622-0.06-2.498-0.051-3.286
		c0.035-3.455-0.322-4.617,2.189-7.189c2.569-2.634,5.157-5.293,7.823-7.823c2.657-2.522,5.671-5.074,7.688-2.134
		c1.488,2.169,2.254,6.253-0.889,8.523c-3.143,2.27-5.465,4.339-7.409,8.134C125.741,300.309,120.492,299.77,120.492,299.77z"/>
	<path d="M143.276,254.383c0.747-1.133,1.399-2.317,2.157-3.676c0.769-1.331,1.633-2.653,2.52-3.988
		c1.778-2.663,3.662-5.396,4.906-8.441c0.63-1.533,1.153-3.146,1.641-4.782c0.444-1.634,1.067-3.357,1.189-4.782
		c0.264-3.036-1.438-6.125-1.831-9.594c-0.106-0.843-0.079-1.776-0.083-2.417c-0.009-0.707-0.055-1.414-0.09-2.102
		c-0.069-1.377-0.109-2.693,0.098-3.927c0.103-0.596,0.267-1.253,0.61-1.788c0.328-0.541,0.73-0.905,1.031-1.21
		c0.61-0.591,0.952-1.114,1.102-1.686c0.152-0.572,0.236-1.207,0.488-1.653c0.249-0.45,0.548-0.672,0.729-0.8
		c0.39-0.222,0.368-0.16,0.002,0.171c-0.382,0.341-0.625,0.977-0.615,1.76c0.029,0.769-0.176,1.857-0.993,2.832
		c-1.937,1.691-0.702,5.193-0.646,9.997c0.178,2.288,1.05,4.405,1.588,6.56c0.59,2.127,0.624,4.451,0.038,6.318
		c-0.933,3.588-1.795,6.584-2.703,8.753c-0.921,2.158-1.34,2.696-2.339,4.198c-0.513,0.733-1.187,1.698-2.223,3.177
		c-1.036,1.491-2.367,3.381-3.958,6.396c-0.85,1.496-1.712,2.789-2.524,3.901c-0.407,0.555-0.8,1.067-1.174,1.541
		c-0.365,0.452-0.636,0.86-0.914,1.302c-1.041,1.753-2.002,3.084-2.9,3.605c-0.9,0.521-1.364,0.402-1.293,0.288
		c0.047-0.154,0.551-0.362,1.164-1.036c1.227-1.34,1.938-3.986,3.232-5.73C142.576,255.798,143.276,254.383,143.276,254.383z"/>
	<path d="M120.788,151.32c-2.146-0.655-4.563-1.239-7.137-1.791c-1.291-0.262-2.619-0.532-3.969-0.805
		c-0.678-0.131-1.362-0.263-2.05-0.397c-0.876-0.235-1.453-0.427-2.181-0.703c-2.774-1.032-5.391-2.606-7.665-4.46
		c-2.286-1.85-4.254-3.935-6.03-5.958c-0.882-1.016-1.677-1.969-2.396-2.85c-0.159-0.197-0.315-0.391-0.468-0.581l-0.03-0.031
		l-0.158-0.113l-0.314-0.221c-0.422-0.287-0.824-0.561-1.206-0.822c-1.552-1.033-2.8-1.871-3.687-2.551
		c-1.778-1.365-2.161-1.975-1.521-1.487c0.656,0.474,1.769,0.969,3.589,1.811c0.91,0.426,2.001,0.934,3.289,1.646
		c0.352,0.207,0.584,0.314,1.067,0.644c0.283,0.305,0.578,0.623,0.884,0.954c0.574,0.633,1.195,1.318,1.865,2.058
		c2.65,2.976,5.242,5.436,7.712,7.13c2.473,1.689,4.754,2.633,6.478,3.125c3.615,0.884,2.067,0.506,12.875,3.149
		c5.48,1.434,8.544,2.994,9.848,3.846c1.306,0.868,0.928,1.012-0.561,0.452c-1.5-0.545-3.555-1.105-5.241-1.466
		C122.099,151.53,120.788,151.32,120.788,151.32z"/>
	<path d="M157.667,188.927c0.01-0.993-0.04-2.033-0.255-3.063c-0.208-0.987-0.577-2.16-1.111-2.917
		c-1.372-2.012-2.817-4.132-4.289-6.29c-2.92-4.31-5.991-8.69-9.142-12.339c-3.112-3.686-5.656-5.919-7.12-7.304
		c-1.515-1.318-1.921-1.833-1.317-1.411c0.596,0.429,1.637,0.859,3.198,1.873c1.554,1.009,3.694,2.564,6.189,5.334
		c4.949,5.567,8.199,10.53,10.307,13.248c1.034,1.378,1.262,1.815,1.952,2.972c0.347,0.577,0.803,1.34,1.546,2.477l0.29,0.447
		l0.155,0.237l0.21,0.379c0.169,0.403,0.375,0.832,0.521,1.324c0.327,0.969,0.591,2.13,0.702,3.478
		c0.197,2.702-0.143,4.775-0.367,6.346c-0.252,1.57-0.464,2.658-0.633,3.35c-0.311,1.381-0.6,1.15-0.621-0.343
		c-0.009-1.486,0.036-3.467-0.012-5.048C157.831,190.094,157.667,188.927,157.667,188.927z"/>
	<path d="M173.544,152.296c2.986,3.062,7.73,6.837,11.333,10.37c3.614,3.527,4.549,5.507,3.996,4.978
		c-0.548-0.532-2.166-1-4.962-3.542c-2.797-2.543-5.167-4.434-6.598-5.487c-1.432-1.055-0.626-0.81-4.518-4.415
		c-3.902-3.636-3.83-5.136-2.662-4.144C171.315,150.999,173.544,152.296,173.544,152.296z"/>
	<path d="M137.08,136.355c1.672,0.52,3.482,0.951,5.49,1.187c2.003,0.257,4.162,0.384,6.395,0.644
		c4.512,0.503,9.075,1.915,12.814,4.035c3.75,2.123,5.794,4.443,6.834,5.836c1.027,1.43,1.176,1.964,0.782,1.484
		c-0.408-0.473-1.149-1.082-2.406-1.992c-1.256-0.91-3.007-2.14-5.663-3.629c-5.398-2.93-10.368-3.61-13.183-3.727
		c-1.434-0.07-1.843-0.149-2.972-0.335c-1.118-0.246-3.022-0.29-7.377-1.343c-4.27-1.177-6.604-2.145-7.725-2.609
		c-1.104-0.486-0.864-0.738,0.39-0.57C132.923,135.715,137.08,136.355,137.08,136.355z"/>
	<path d="M100.809,122.056c1.448,1.813,3.627,3.637,6.144,5.123c2.496,1.525,5.313,2.717,7.882,3.816
		c5.18,2.126,7.184,3.426,6.355,3.199c-0.805-0.277-2.674-0.01-6.704-1.496c-4.016-1.512-7.158-2.998-8.979-3.957
		c-0.922-0.458-1.118-0.705-1.741-1.214c-0.586-0.559-1.65-1.35-3.791-3.557c-1.057-1.119-1.757-2.135-2.233-2.951
		c-0.287-0.529-0.843-0.853-1.172-1.073c-0.738-0.51-0.469-0.708,0.35-0.566c0.439,0.075,0.998,0.254,1.481,0.596
		c0.396,0.365,0.801,0.736,1.164,1.071C100.235,121.657,100.809,122.056,100.809,122.056z"/>
	<path d="M111.795,382.299c3.53,6.513,8.388,13.943,11.765,19.508c0.812,1.398,3.324,5.329,6.017,10.944
		c2.643,5.52,6.222,12.457,8.244,20.11c1.017,3.812,1.539,7.822,1.302,11.656c-0.219,3.831-1.165,7.441-2.579,10.449
		c-2.976,5.932-6.777,9.492-8.232,11.033c-3.024,3.053-6.758,5.865-11.789,8.961c-1.274,0.769-2.561,1.579-4.053,2.403
		c-1.494,0.857-3.145,1.584-4.905,2.303c-3.52,1.422-7.559,2.576-11.83,4.303c-3.046,1.279-6.486,2.891-9.171,5.444
		c-0.328,0.322-0.69,0.617-0.996,0.964l-1.092,1.264l-0.472,0.553l-0.122,0.126l-0.181,0.005l-0.36,0.009l-1.093,0.022
		c-0.452,0.041-0.9,0.052-1.352,0.126c-1.801,0.224-3.582,0.724-5.268,1.257c-3.4,1.11-6.339,2.219-8.789,2.81
		c-0.548,0.052-0.722,0.012-0.988,0.022c-0.25-0.003-0.486-0.005-0.707-0.007c-0.44-0.005-0.819-0.009-1.127-0.012
		c-0.619-0.007-0.957-0.012-0.957-0.012c-0.06-0.067,0.364-0.157,1.178-0.262c0.412-0.047,0.916-0.103,1.503-0.171
		c0.302-0.045,0.576-0.028,1.042-0.128c0.331-0.122,0.68-0.252,1.047-0.386c2.873-1.046,6.563-3.017,10.909-4.3
		c1.09-0.302,2.225-0.543,3.39-0.667l0.777-0.053l0.271-0.186l0.213-0.276c0.366-0.448,0.706-0.941,1.109-1.365
		c1.56-1.767,3.457-3.174,5.332-4.317c3.792-2.272,7.509-3.427,9.854-4.241c2.367-0.784,5.217-1.658,8.12-2.85
		c2.912-1.134,5.739-2.912,8.518-4.617c2.753-1.708,5.329-3.474,7.446-5.141c2.124-1.658,3.772-3.224,4.871-4.315
		c1.063-1.11,3.488-3.619,5.612-7.42c2.193-3.719,3.431-8.982,3.162-14.159c-0.242-5.191-1.798-10.189-3.326-14.038
		c-1.527-3.862-2.958-6.661-3.465-7.653c-1.052-1.945-2.808-5.444-4.998-9.468c-2.258-4.017-5.231-8.572-8.2-13.197
		c-5.985-9.275-7.207-14.44-7.554-16.931c-0.186-1.264,0.295-0.771,0.815,0.019C111.198,381.217,111.795,382.299,111.795,382.299z"
		/>
	<path d="M110.483,334.27c0.098,1.81-0.39,3.77-0.659,5.229c-0.168,0.715-0.866,4.136-1.177,7.692
		c-0.339,3.55-0.328,7.199-0.124,8.167c0.437,1.936,0.194,4.198,0.746,8.582c0.41,3.16-0.356,8.373-0.356,8.373
		c-0.532,0.107-1.862-7.117-1.943-9.442c-0.079-2.322-0.198-6.518-0.174-7.992c0.009-0.736-0.079-3.274-0.047-5.772
		c0.002-2.496,0.146-4.95,0.114-5.487c-0.084-1.076,0.092-3.682,0.472-6.286c0.38-2.619,1.594-3.532,2.322-3.912
		C110.409,333.047,110.483,334.27,110.483,334.27z"/>
	<path d="M255.508,505.017c-1.061-1.279-1.895-2.777-2.788-4.058c-0.431-0.633-0.855-1.264-0.96-1.724
		c-0.081-0.476,0.086-0.533-0.312-1.293c-0.176-0.355-0.385-0.907-0.6-1.579c-0.233-0.767-0.489-1.608-0.758-2.496
		c-0.715-2.103-1.911-4.065-2.864-5.724c-0.477-0.834-0.889-1.61-1.189-2.336c-0.309-0.741-0.479-1.336-0.628-2.151
		c-0.295-1.531-0.408-3-0.438-4.129c-0.041-1.128-0.102-3.219-0.009-5.973c0.069-2.752,0.315-6.148,0.353-9.854
		c-0.017-1.86,0.031-3.743-0.383-5.93c-0.361-2.158-1.62-4.379-2.956-5.794c-1.32-1.46-2.529-2.529-3.54-3.638
		c-1.004-1.057-1.737-2.07-2.368-3.11c-1.266-2.022-2.539-4.729-4.469-7.594c-1.958-2.988-4.864-5.308-7.25-7.392
		c-2.454-2.12-4.379-4.167-5.293-6.484c-0.982-2.341-1.454-4.793-1.966-6.689c-0.644-2.698-1.974-4.708-3.096-5.663
		c-1.129-0.986-1.947-1.088-2.169-0.788c-0.522,0.755,1.152,2.684,3.135,7.167c0.915,1.845,1.597,4.779,3.126,7.637
		c1.522,2.865,4.374,5.246,7.013,7.641c1.324,1.203,2.6,2.448,3.65,3.769c1.049,1.327,1.852,2.686,2.519,3.917
		c1.312,2.474,2.233,4.391,2.681,5.267c0.216,0.441,0.654,1.241,1.362,2.248c0.705,1.014,1.744,2.167,2.932,3.436
		c1.173,1.274,2.574,2.655,3.324,4.46c0.772,1.805,0.787,3.92,0.715,6.034c-0.164,4.227-0.752,8.434-1.026,11.806
		c-0.314,3.369-0.311,5.91-0.384,6.672c-0.067,0.76-0.049,2.034,0.184,3.6c0.168,1.541,0.853,3.536,1.721,5.175
		c0.859,1.684,1.785,3.241,2.316,4.668c0.27,0.712,0.447,1.386,0.548,2c0.128,0.729,0.235,1.403,0.314,1.998
		c0.19,1.184,0.408,2.527,1.456,4.053c0.516,0.736,1.33,1.464,2.149,1.857c0.822,0.431,1.565,0.617,2.195,0.743
		c1.264,0.238,2.133,0.233,2.777,0.257C255.148,505.017,255.508,505.017,255.508,505.017z"/>
	<path d="M239.259,286.507c8.437-2.476,18.906-2.672,26.252-3.134c0.462-0.028,1.137-0.069,2-0.121
		c0.334-0.026,0.136,0.012,0.401-0.053c0.22-0.06,0.449-0.122,0.689-0.188c0.488-0.15,1.017-0.312,1.584-0.486
		c1.149-0.365,2.486-0.834,4.075-1.203c0.796-0.179,1.665-0.329,2.596-0.372c0.845-0.012,1.721-0.026,2.624-0.04
		c7.132-0.148,15.972,0.626,24.791,0.814c4.412,0.081,8.828-0.028,13.006-0.481c4.188-0.405,8.086-1.346,11.492-2.45
		c0.845-0.3,1.665-0.591,2.46-0.874c0.779-0.319,1.51-0.679,2.226-0.997c1.45-0.6,2.676-1.365,3.794-2.007
		c0.279-0.16,0.55-0.317,0.812-0.469l0.284-0.167l0.2-0.209c0.396-0.417,0.766-0.805,1.103-1.16
		c0.664-0.712,1.174-1.307,1.534-1.762c0.719-0.912,1.401-1.855,2.008-2.867c0.28-0.471,0.629-1.114,0.802-1.493
		c0.153-0.583,0.31-1.177,0.471-1.784c0.763-2.698,1.761-5.596,3.177-8.746c1.415-3.148,3.265-6.56,5.924-10.096
		c2.646-3.527,6.166-7.179,11.076-10.209c3.514-2.064,7.71-4.008,12.231-5.436c4.5-1.438,9.259-2.269,13.534-2.47
		c1.07-0.033,2.106-0.071,3.104-0.041c1.073,0.016,1.729,0.043,2.486-0.103c1.445-0.259,2.602-1.01,3.505-1.781
		c0.895-0.788,1.546-1.564,1.988-2.102c0.436-0.552,0.674-0.853,0.674-0.853c0.098-0.007-0.099,0.46-0.584,1.258
		c-0.494,0.786-1.254,1.945-2.52,3.027c-1.25,1.11-3.176,1.86-5.475,1.857c-2.284,0.133-4.765,0.431-7.294,0.934
		c-5.068,0.986-10.284,2.853-14.719,4.984c-2.211,1.071-4.291,2.138-6.003,3.215c-0.864,0.526-1.643,1.064-2.336,1.595
		c-0.717,0.495-1.314,1.017-1.857,1.457c-2.154,1.779-4.506,4.217-6.616,7.123c-2.115,2.905-3.955,6.273-5.431,9.659
		c-0.743,1.693-1.376,3.396-1.941,5.044c-0.259,0.831-0.54,1.636-0.765,2.434c-0.114,0.398-0.225,0.79-0.335,1.176l-0.186,0.65
		c-0.128,0.274-0.22,0.427-0.313,0.612c-1.576,2.867-3.516,4.806-4.768,6.115c-0.319,0.321-0.736,0.743-1.239,1.25
		c-0.146,0.181-0.375,0.352-0.572,0.436c-0.171,0.097-0.346,0.197-0.529,0.3c-0.364,0.207-0.753,0.429-1.165,0.662
		c-1.62,0.99-3.736,1.943-6.125,2.92c-4.808,1.917-10.986,3.214-17.124,3.691c-6.144,0.512-12.222,0.364-17.054,0.234
		c-4.835-0.138-8.45-0.229-9.731-0.197c-1.281,0.019-3.02,0.045-5.105,0.074c-1.039,0.003-2.172,0.072-3.375,0.119
		c-0.59,0.026-1.196,0.052-1.82,0.079c-0.565,0.035-1.114,0.114-1.71,0.247c-1.183,0.262-2.441,0.697-3.801,1.179
		c-0.7,0.236-1.411,0.477-2.131,0.722l-0.564,0.171l-0.726,0.198l-1.278,0.104c-3.026,0.226-6.169,0.46-9.312,0.695
		c-12.479,0.848-17.988,1.153-20.947,1.136c-1.465-0.012-0.855-0.476,0.151-0.943C237.858,286.905,239.259,286.507,239.259,286.507z
		"/>
	<path d="M202.9,390.921c-3.428-4.215-5.554-10.485-6.49-14.974c-0.278-1.124-0.91-4.362-1.433-8.677
		c-0.54-4.315-0.903-9.696-1.371-15.064l-0.19-2.01l-0.047-0.49l-0.019-0.114l-0.059-0.264c-0.078-0.352-0.142-0.703-0.197-1.055
		c-0.226-1.405-0.303-2.798-0.293-4.151c0.02-2.7,0.452-5.291,0.968-7.47c0.903-4.436,2.007-7.803,2.356-9.256
		c0.345-1.458,0.887-2.92,1.441-4.536c0.675-1.567,1.323-3.312,2.303-5.165c1.865-3.741,4.401-8.239,8.649-13.576
		c3.037-3.881,8.016-8.134,12.526-10.737c1.086-0.714,2.214-1.212,3.184-1.727c0.971-0.521,1.867-0.917,2.633-1.214
		c1.51-0.614,2.426-0.988,2.426-0.988c0.298,0.283-4.62,2.781-9.464,6.81c-4.905,3.974-9.428,9.515-11.463,12.271
		c-2.134,2.693-4.74,6.777-6.699,10.84c-1.973,4.053-3.441,7.996-4.067,10.08c-0.361,1.027-1.034,3.357-1.701,6.353
		c-0.299,1.505-0.706,3.165-0.892,4.886c-0.197,1.729-0.25,3.55-0.093,5.329c0.078,0.89,0.209,1.767,0.399,2.612l0.17,0.709
		l0.085,0.715c0.054,0.448,0.108,0.89,0.16,1.326c0.199,1.741,0.386,3.388,0.553,4.851c0.326,2.924,0.606,5.103,0.745,5.874
		c0.57,3.062,1.483,10.663,3.911,17.679c1.231,3.463,2.119,5.962,2.799,7.875c0.614,1.908,0.99,3.177,1.123,4.117
		c0.149,0.933-0.327,0.738-0.855,0.286C203.473,391.617,202.9,390.921,202.9,390.921z"/>
	<path d="M284.478,264.847c6.187,0.029,12.987,0.274,19.888-1.289c3.419-0.786,6.861-1.979,9.909-3.941
		c3.046-1.948,5.684-4.603,7.645-7.763c2.002-3.248,3.897-6.617,5.061-10.184c0.579-1.783,0.952-3.615,1.097-5.462
		c0.122-1.838,0.009-3.746-0.128-5.662c-0.262-3.838-0.745-7.725-0.269-11.695c0.11-0.991,0.333-1.979,0.634-2.965
		c0.346-1.021,0.846-1.924,1.377-2.739c1.065-1.634,2.243-3.032,3.057-4.501c1.562-3.031,2.424-6.339,3.431-9.268
		c0.965-2.979,2.32-5.703,4.007-7.753c1.689-2.062,3.525-3.553,5.14-4.793c1.618-1.214,3.025-2.269,4.223-3.168
		c2.34-1.832,3.715-3.201,4.366-3.861c0.666-0.648,0.646-0.553-0.072,0.266c-0.696,0.836-1.629,1.828-2.889,3.079
		c-1.272,1.236-2.957,2.645-5.022,4.412c-2.034,1.777-4.498,3.976-6.309,7.389c-1.86,3.372-2.565,8.013-4.718,13.154
		c-1.093,2.674-3.058,4.662-4.232,6.808c-1.198,2.074-1.333,4.625-1.396,6.972c-0.016,4.784,0.803,9.275,0.714,13.583
		c-0.111,4.35-1.481,8.16-2.957,11.283c-1.533,3.146-2.993,5.71-4.504,7.929c-1.565,2.139-2.787,3.36-3.973,4.379
		c-1.2,1.003-2.355,1.85-4.169,2.857c-1.799,1.022-4.308,2.176-8.317,3.201c-4.01,0.993-9.558,1.705-17.229,1.633
		c-30.532,0-36.348-0.952-27.622-1.141C269.937,265.418,284.478,264.847,284.478,264.847z"/>
	<path d="M344.831,218.324c0.039-3.458-0.027-7.832,1.374-12.157c1.318-4.324,3.921-8.292,6.673-11.368
		c2.767-3.084,4.992-4.893,6.309-5.951c1.329-1.046,1.822-1.276,1.395-0.841c-0.819,0.898-2.134,3.074-6.137,7.589
		c-4.011,4.553-5.873,9.058-6.413,11.726c-0.273,1.341-0.419,1.703-0.683,2.745c-0.235,1.045-0.664,2.783-0.634,7.01
		c0.25,8.501-0.733,10.194-0.939,7.735c-0.111-1.214-0.358-2.827-0.57-4.146C344.994,219.345,344.831,218.324,344.831,218.324z"/>
	<path d="M361.495,223.927c2.906-0.94,6.219-2.712,9.908-4.234c3.732-1.52,7.775-2.469,11.52-2.822
		c3.738-0.336,6.338-0.105,7.862,0.064c1.525,0.188,1.984,0.376,1.434,0.383c-1.101,0.055-3.318,0.683-8.732,1.21
		c-5.424,0.615-9.548,2.162-11.779,3.293c-2.295,1.126-1.331,0.422-8.506,3.491c-1.823,0.726-3.367,1.138-4.582,1.321
		c-0.291,0.053-0.607,0.09-0.826,0.102l-0.367-0.014c-0.094,0.157-0.193,0.316-0.322,0.616c-0.476,0.979-0.716,0.74-0.58-0.359
		c0.023-0.171,0.047-0.348,0.072-0.531l0.04-0.302l0.127-0.234c0.36-0.102,0.883-0.241,1.131-0.328
		c0.609-0.222,1.216-0.46,1.749-0.712C360.71,224.382,361.495,223.927,361.495,223.927z"/>
	<path d="M71.816,113.343c2.205,1.584,5.569,2.779,9.015,3.181c0.876,0.105,1.608,0.041,2.723,0.09
		c1.023,0.072,2.004,0.285,2.909,0.515c1.844,0.497,3.301,0.82,4.991,0.746c3.333-0.05,5.7-0.34,6.899-0.764
		c0.591-0.215,0.895-0.451,1.002-0.602c0.146-0.143,0.189-0.133,0.095,0.09c-0.266,0.869-2.314,2.679-7.584,2.97
		c-1.299,0.081-2.655,0.038-3.83-0.209c-1.181-0.224-2.22-0.517-3.154-0.668c-0.945-0.164-1.738-0.186-2.517-0.125
		c-0.884,0.043-1.639,0.013-2.274-0.036c-1.272-0.099-1.619-0.229-2.557-0.54c-0.922-0.361-2.512-0.691-5.854-2.497
		c-1.652-0.952-2.801-2.086-3.456-3.137c-0.605-1.095-0.778-2-0.686-2.548c0.13-1.091,0.448-0.822,0.657,0.103
		c0.283,0.95,1.153,1.939,2.009,2.526c0.44,0.291,0.818,0.535,1.133,0.671C71.635,113.254,71.816,113.343,71.816,113.343z"/>
	<path d="M31.213,100.603c-1.95-1.386-3.906-2.882-5.62-5.046c-0.812-1.078-1.502-2.264-2.029-3.567
		c-0.262-0.653-0.482-1.336-0.627-2.062c-0.156-0.743-0.177-1.513-0.156-2.213c0.045-1.408,0.202-2.704-0.11-3.761
		c-0.355-1.143-0.993-2.333-1.739-3.431c-1.492-2.232-3.523-4.281-5.19-6.807c-0.838-1.227-1.555-2.755-1.96-4.17
		c-0.446-1.389-0.819-2.786-1.514-3.674c-1.468-1.961-4.407-2.726-7-4.459c-1.295-0.847-2.592-2.131-3.153-3.786
		c-0.146-0.403-0.24-0.817-0.314-1.229c-0.073-0.453-0.078-0.894-0.057-1.297c0.048-0.808,0.169-1.481,0.152-2.034
		c-0.011-0.56-0.138-0.935-0.452-1.539c-0.287-0.564-0.755-1.361-0.857-2.267c-0.242-1.566-0.013-3.177,0.548-4.582
		c1.152-2.83,3.227-4.724,5.248-6.062c2.046-1.329,4.224-2.107,6.268-2.296c2.017-0.164,3.75,0.057,5.124-0.048
		c1.348-0.155,2.538-0.718,3.575-1.135c2.06-0.929,3.696-1.116,4.408-0.929c0.717,0.159,0.626,0.179-0.197,0.112
		c-0.836-0.021-1.86,0.253-3.034,0.857c-1.2,0.549-2.52,1.56-4.61,2.033c-2.083,0.353-4.575-0.026-7.233,0.934
		c-1.328,0.479-2.709,1.203-4.035,2.226c-1.321,1.008-2.616,2.326-3.501,4.008C2.236,46.016,2,48.025,2.459,49.587
		c0.265,0.752,0.946,1.584,1.146,2.732c0.184,1.11-0.046,2.086-0.07,2.905c-0.065,1.589,0.713,3.065,1.899,4.018
		c1.195,0.994,2.646,1.66,4.053,2.353c1.409,0.696,2.837,1.47,3.932,2.658c0.545,0.577,0.984,1.299,1.276,1.97
		c0.291,0.663,0.512,1.313,0.714,1.923c0.396,1.224,0.756,2.289,1.25,3.162c0.512,0.91,1.091,1.715,1.654,2.441
		c2.305,2.902,3.156,3.685,4.771,6.364c0.4,0.675,0.827,1.501,1.221,2.569c0.49,1.087,0.552,2.671,0.422,4.143
		c-0.047,0.755-0.105,1.537-0.017,2.308c0.094,0.768,0.349,1.646,0.745,2.545c0.394,0.902,0.928,1.846,1.626,2.766
		c0.678,0.912,1.609,1.777,2.666,2.679c4.281,3.507,8.482,5.366,11.64,6.604c3.193,1.121,5.689,1.146,7.229,1.336
		c3.108,0.27,2.579,0.571-0.69,0.629c-1.632,0.01-3.569-0.032-5.519-0.438c-1.96-0.401-3.827-1.132-5.486-1.799
		C33.593,102.104,31.213,100.603,31.213,100.603z"/>
	<path d="M90.869,8.934c1.422,0.038,3.112,0.041,4.694,0.411c1.591,0.341,3.122,0.902,4.591,1.534
		c1.461,0.62,2.92,1.354,4.317,1.933c1.424,0.567,2.934,1.007,4.5,1.396c1.59,0.39,3.196,0.784,4.815,1.182
		c1.634,0.409,3.307,1.035,4.875,1.585c3.193,1.116,6.436,2.25,9.723,3.4c3.331,1.134,6.495,2.837,9.79,3.184
		c1.645,0.172,3.243-0.047,4.789-0.687c1.562-0.628,3.09-1.608,4.874-2.366c3.593-1.351,6.96-2.208,10.319-3.805
		c3.446-1.449,7.005-2.689,10.649-3.698l2.727-0.719c0.855-0.222,1.696-0.513,2.529-0.846c1.658-0.686,3.263-1.565,4.863-2.511
		c3.189-1.876,6.404-4.094,10.229-5.287c1.897-0.597,3.915-0.9,5.93-0.85c2.232,0.116,4.13,1.091,5.778,2.148
		c3.309,2.133,5.911,4.984,8.963,6.692c3.057,1.793,6.62,2.165,10.283,2.169c1.831,0.059,3.585-0.135,5.564-0.1
		c0.967,0.017,2.008,0.132,3,0.422c0.983,0.279,1.877,0.683,2.733,1.109c1.707,0.86,3.247,1.87,4.784,2.674
		c1.654,0.861,3.236,1.832,4.748,2.861c1.512,1.03,2.961,2.113,4.379,3.197c1.415,1.113,2.809,2.094,4.228,3.313
		c2.715,2.427,4.929,5,7.063,7.457c0.508,0.658,1.01,1.309,1.508,1.954c0.509,0.645,0.98,1.31,1.421,1.805
		c0.457,0.515,0.8,0.7,1.521,0.933c0.693,0.228,1.445,0.434,2.154,0.633c5.768,1.638,11.034,3.133,15.802,4.487
		c1.276,0.439,2.416,1.285,3.27,2.129c0.879,0.874,1.607,1.634,2.429,2.397c1.603,1.505,3.176,2.989,4.356,4.659
		c2.354,3.378,3.106,6.97,3.095,9.952c-0.1,3.008-0.919,5.411-2.1,7.041c-0.641,0.797-1.316,1.278-1.806,1.753
		c-0.506,0.461-0.844,0.888-1.033,1.26c-0.365,0.754-0.258,1.181-0.313,1.094c0.009-0.059-0.141-0.673,0.426-1.553
		c0.561-0.877,1.574-1.557,2.429-2.628c0.801-1.114,1.31-2.585,1.609-4.265c0.302-1.684,0.307-3.621-0.168-5.695
		c-0.466-2.064-1.318-4.315-2.888-6.378c-1.551-2.093-3.858-3.837-6.181-6.092c-1.123-1.129-2.336-2.146-3.972-2.582
		c-1.684-0.439-3.445-0.897-5.282-1.376c-3.701-0.993-7.721-2.071-12.092-3.244c-0.538-0.167-1.176-0.359-1.747-0.784
		c-0.559-0.417-0.947-0.91-1.324-1.382c-0.715-0.915-1.445-1.847-2.189-2.799c-1.551-1.861-3.295-3.733-5.105-5.594
		c-0.917-0.923-1.859-1.803-2.848-2.589c-1.03-0.787-2.054-1.57-3.071-2.346c-2.039-1.553-4.063-3.05-6.155-4.352
		c-1.048-0.657-2.099-1.247-3.192-1.814c-1.117-0.591-2.16-1.231-3.206-1.815c-2.102-1.195-4.147-2.112-6.417-2.049
		c-4.573,0.102-9.357,0.49-13.744-0.971c-2.174-0.733-4.124-1.927-5.814-3.256c-1.686-1.32-3.233-2.673-4.83-3.84
		c-1.587-1.154-3.239-2.175-4.939-2.561c-0.424-0.115-0.837-0.137-1.262-0.171l-1.35,0.034c-0.889,0.081-1.77,0.179-2.617,0.405
		c-3.424,0.805-6.367,2.646-9.163,4.353c-2.791,1.735-5.544,3.365-8.41,4.36c-1.48,0.469-2.801,0.776-4.07,1.141
		c-1.272,0.362-2.484,0.74-3.637,1.126c-2.307,0.776-4.173,1.493-5.789,2.156c-0.804,0.341-1.551,0.659-2.26,0.96
		c-0.738,0.325-1.451,0.607-2.147,0.863c-1.394,0.511-2.73,0.927-4.157,1.381c-0.702,0.232-1.432,0.473-2.211,0.731
		c-0.725,0.259-1.489,0.622-2.34,1.053c-1.671,0.816-3.831,2.152-6.883,2.31c-3.027,0.171-6.314-1.041-9.876-2.54
		c-3.613-1.396-7.992-2.859-13.125-4.691c-2.486-0.97-5.306-1.569-8.44-2.337c-1.56-0.391-3.195-0.852-4.848-1.521
		c-1.643-0.695-3.2-1.482-4.881-2.158c-1.667-0.678-3.32-1.176-4.965-1.362c-1.593-0.141-3.43-0.122-5.039-0.2
		c-1.643-0.045-3.22-0.036-4.706,0.16c-1.454,0.193-2.955,0.626-4.463,0.871c-1.49,0.3-3.144,0.222-4.388,0.259
		c-1.318,0.059-2.56,0.336-3.746,0.745c-1.188,0.404-2.326,0.926-3.46,1.404c-1.128,0.462-2.215,0.908-3.265,1.339
		c-4.093,1.783-7.186,4.093-9.546,6.236c-2.335,2.184-3.967,4.207-5.141,5.828c-2.31,3.276-3.048,4.797-3.008,4.368
		c0.11-0.38,1.024-2.713,3.505-6.173c2.477-3.44,6.053-7.024,10.415-9.653c2.144-1.357,4.588-2.307,6.791-3.305
		c2.204-1.046,4.57-2.088,6.994-2.294c0.593-0.058,1.2-0.077,1.757-0.081c0.528-0.003,1.043-0.034,1.546-0.09
		c1.005-0.112,1.965-0.333,2.907-0.559c1.849-0.494,3.744-0.809,5.217-0.853c1.495-0.075,2.674-0.051,3.48-0.044
		C90.43,8.928,90.869,8.934,90.869,8.934z"/>
	<path d="M139.475,116.971c2.173,1.056,4.759,1.794,7.598,2.248c2.837,0.467,5.903,0.681,9.058,1.04
		c1.557,0.167,3.226,0.438,4.732,0.702c1.454,0.239,2.936,0.217,4.401,0.004c2.937-0.428,5.778-1.591,8.554-2.614
		c2.886-1.073,5.353-1.49,7.203-2.213c1.772-0.655,3.042-1.753,4.111-2.391c1.054-0.677,1.852-0.978,2.235-1.068
		c0.386-0.093,0.365-0.032-0.042,0.153c-0.843,0.375-1.784,1.328-3.414,2.857c-0.807,0.759-2.019,1.586-3.546,2.171
		c-1.518,0.634-3.36,1.128-5.381,1.877c-4.079,1.615-7.951,3.174-11.566,3.267c-1.779,0.111-3.471-0.239-4.762-0.415
		c-1.349-0.18-2.552-0.279-3.579-0.349c-2.056-0.136-2.644-0.235-4.26-0.488c-0.813-0.132-1.883-0.305-3.526-0.572
		c-1.639-0.304-3.891-0.672-6.911-1.776c-3.007-1.142-5.153-2.601-6.667-3.837c-1.513-1.249-2.429-2.282-2.957-2.971
		c-1.036-1.396-0.617-1.362,0.712-0.209c1.335,1.152,3.288,2.464,4.97,3.298C138.113,116.54,139.475,116.971,139.475,116.971z"/>
	<path d="M214.41,112.951c1.662,0.016,3.408,0.031,5.223,0.047c1.842-0.004,3.799,0.047,5.818,0.453
		c1.008,0.214,2.042,0.499,3.044,1.034c0.497,0.272,0.993,0.583,1.434,1.002c0.467,0.392,0.895,1.026,1.102,1.621
		c0.223,0.605,0.303,1.139,0.42,1.573c0.112,0.439,0.245,0.735,0.489,1.163c0.457,0.804,1.113,1.661,1.631,2.704
		c0.526,1.135,0.772,1.995,1.179,3.005l1.106,2.957c0.36,0.996,0.709,2.002,1.024,3.025c0.331,1.031,0.569,2.076,0.879,2.969
		c0.628,1.859,1.599,3.57,2.709,5.209c0.554,0.82,1.141,1.624,1.732,2.426c0.596,0.835,1.124,1.493,1.788,2.169
		c2.598,2.619,5.506,4.241,7.972,4.417c2.588,0.165,4.844-0.116,6.504,0.091c0.865,0.089,1.447,0.221,2.112,0.425
		c0.827,0.046,0.563,0.838,0.661,1.069c0.027,0.502-0.026,0.48-0.148-0.117c-0.035-0.154-0.072-0.317-0.111-0.492
		c-0.032-0.18-0.327-0.119-0.491-0.19c-0.399-0.076-0.806-0.109-1.287-0.124c-0.955-0.021-2.114,0.103-3.563,0.307
		c-1.452,0.155-3.212,0.562-5.473,0.153c-2.214-0.462-4.559-1.733-6.801-3.769c-1.124-1.002-2.083-2.221-2.886-3.325
		c-0.835-1.118-1.644-2.225-2.352-3.363c-0.717-1.132-1.319-2.301-1.802-3.472c-0.486-1.175-0.781-2.376-1.104-3.402
		c-0.666-2.108-1.42-4.001-2.099-5.7c-0.341-0.853-0.664-1.654-0.964-2.401c-0.274-0.737-0.571-1.242-0.937-1.801
		c-0.728-1.088-1.302-1.851-1.647-2.837c-0.316-0.942-0.3-1.722-0.617-2.328c-0.295-0.559-1.314-1.481-3.255-1.986
		c-0.973-0.271-2.183-0.464-3.653-0.551c-1.458-0.088-3.219-0.046-5.276-0.059c-16.424-0.004-19.549-0.955-14.858-1.144
		C206.599,113.52,214.41,112.951,214.41,112.951z"/>
	<path d="M198.253,182.852c0.376,0.975,0.745,1.983,1.07,3.058c0.309,1.036,0.615,2.058,1.016,3.036
		c0.766,2,2.057,3.496,4.209,3.634c1.018,0.102,2.276,0.05,3.153-0.241c0.911-0.305,1.547-0.958,1.935-1.974
		c0.817-2.027,0.734-4.675,1.534-7.348c0.402-1.365,1.083-2.557,1.603-3.671c0.545-1.145,0.866-2.12,0.912-3.326
		c0.069-1.191-0.021-2.452-0.096-3.751c-0.038-0.651-0.072-1.314-0.076-1.996c-0.007-0.63-0.019-1.253-0.05-1.888
		c-0.107-2.533-0.353-5.115-0.213-7.739c0.103-1.333,0.168-2.579,0.711-4.017c0.553-1.375,1.543-2.451,2.545-3.27
		c2.003-1.62,4.119-2.58,5.427-3.8c0.652-0.616,1.179-1.376,1.708-2.148c0.567-0.836,1.252-1.577,1.977-2.147
		c1.453-1.106,2.77-1.778,3.619-2.638c0.851-0.877,1.441-1.886,1.91-2.726c0.925-1.714,1.327-2.939,1.524-3.512
		c0.176-0.581,0.223-0.521,0.083,0.184c-0.158,0.7-0.364,1.582-0.754,2.697c-0.409,1.104-0.898,2.496-2.056,3.988
		c-1.19,1.511-3.362,2.416-4.753,4.439c-0.681,1.003-1.405,2.416-2.705,3.496c-1.277,1.055-2.734,1.865-4.155,2.91
		c-1.413,1.021-2.555,2.251-2.931,3.734c-0.369,1.539-0.419,3.208-0.396,4.781c0.03,1.588,0.147,3.138,0.242,4.646
		c0.119,1.503,0.106,3.014,0.185,4.341c0.085,1.367,0.215,2.712,0.193,4.042c0.011,1.311-0.268,2.721-0.746,3.82
		c-0.457,1.119-0.962,2.054-1.317,2.92c-0.367,0.861-0.552,1.647-0.702,2.438c-0.258,1.59-0.359,2.694-0.559,3.709
		c-0.217,1.015-0.379,1.991-1.155,3.374c-0.389,0.669-1.034,1.49-2.105,2c-1.07,0.528-2.356,0.652-3.769,0.626
		c-1.393-0.031-3.438-0.35-4.95-2.026c-1.472-1.634-2.127-3.9-2.864-6.284c-0.767-2.341-1.673-4.428-2.487-6.266
		c-0.413-0.919-0.815-1.777-1.204-2.57c-0.345-0.728-0.825-1.33-1.315-1.928c-2.008-2.303-3.496-4.194-3.786-5.712
		c-0.259-1.527,0.255-2.077,0.273-1.904c0.113,0.158-0.073,0.993,0.546,2.243c0.629,1.241,1.797,2.444,3.017,3.65
		c0.609,0.612,1.237,1.226,1.807,1.925c0.599,0.733,0.979,1.507,1.371,2.182C197.228,180.616,198.253,182.852,198.253,182.852z"/>
	<path d="M234.329,154.411c0.884-0.987,1.827-2.032,2.502-2.715c0.778-0.74,1.652-1.501,2.241-2.349
		c0.615-0.815,0.919-1.828,0.806-2.524c-0.104-0.703-0.444-1.002-0.634-1.045c-0.484-0.072-0.315,0.81-1.346,1.689
		c-0.525,0.496-1.391,1.026-2.665,1.891c-0.298,0.203-0.712,0.532-1.012,0.808c-0.309,0.285-0.631,0.584-0.969,0.895
		c-0.664,0.641-1.363,1.375-2.07,2.214c-1.453,1.729-2.59,3.409-3.675,5.072c-1.069,1.684-2.018,3.435-2.633,5.316
		c-0.634,1.869-0.882,3.84-0.814,5.735c0.095,1.939,0.454,3.644,0.791,5.428c0.712,3.553,1.764,7.298,3.838,11.051
		c1.939,3.608,3.931,7.872,4.803,13.137c0.221,1.312,0.193,2.615,0.278,3.996c0.08,1.345,0.198,2.669,0.103,3.936
		c-0.101,2.507-2.016,4.494-3.672,6.406l-1.292,1.465c-0.405,0.479-0.821,0.912-1.277,1.334c-0.907,0.841-1.912,1.605-2.878,2.452
		c-0.966,0.821-1.904,1.826-2.617,2.862c-0.734,1.019-1.411,2.055-2.056,3.091c-0.643,1.046-1.257,2.058-1.839,3.131
		c-0.597,1.081-1.078,2.222-1.421,3.391c-0.7,2.336-0.86,4.758-0.652,7.027c0.184,2.267,0.715,4.438,1.244,6.403
		c0.507,1.953,0.909,3.834,1.084,5.625c0.319,3-0.035,5.137-0.445,6.472l-0.865,2.808l2.164-1.784
		c1.827-1.507,2.195-2.631-1.163-1.334l1.433,1.129c0.557-0.748,1.129-1.883,1.436-3.367c0.315-1.481,0.355-3.275,0.104-5.282
		c-0.233-1.995-0.832-4.265-1.524-6.594c-0.631-2.307-1.234-4.898-1.128-7.761c0.107-3.722,1.672-6.336,3.038-8.797
		c0.686-1.207,1.374-2.319,2.108-3.369c0.691-1.034,1.532-1.86,2.538-2.734c0.995-0.871,2.143-1.738,3.276-2.926
		c0.59-0.631,1.036-1.203,1.6-1.822c0.55-0.621,1.142-1.281,1.741-2.024c0.593-0.746,1.215-1.558,1.738-2.572
		c0.552-0.974,0.883-2.348,0.888-3.545c0.041-1.227-0.067-2.462-0.154-3.717c-0.09-1.189-0.068-2.639-0.324-4.115
		c-0.78-4.682-2.451-8.88-4.314-12.83c-2.011-3.758-2.993-7.646-3.512-11.628c-0.134-0.99-0.245-1.982-0.344-2.971
		c-0.072-0.941-0.123-1.871-0.042-2.782c0.124-1.824,0.628-3.55,1.396-5.178c0.776-1.627,1.789-3.168,2.86-4.69
		C232.083,157.171,233.143,155.74,234.329,154.411z"/>
	<path d="M209.463,267.1c2.186-0.872,4.503-1.741,6.55-3.253c0.509-0.376,1.001-0.793,1.481-1.241
		c0.509-0.483,1.097-0.993,1.714-1.426c1.24-0.895,2.644-1.529,3.964-2.105c1.303-0.555,2.619-1.229,4.087-1.741
		c1.442-0.51,2.963-0.867,4.469-1.048c1.507-0.19,2.984-0.226,4.415-0.241c1.417-0.005,2.839-0.024,4.26,0.103
		c2.855,0.25,5.151,1.041,6.954,1.738c1.804,0.712,3.169,1.338,4.199,1.77c2.052,0.862,2.695,1.136,1.9,0.964
		c-0.79-0.193-2.021-0.35-4.015-0.848c-2.002-0.445-4.706-1.45-8.633-1.872c-1.961-0.181-3.911-0.088-5.713-0.043
		c-1.799,0.066-3.445,0.243-4.907,0.591c-1.461,0.352-2.746,0.845-3.86,1.377c-1.145,0.557-2.151,1.048-3.007,1.465
		c-1.649,0.852-2.078,1.031-3.248,1.776c-0.284,0.195-0.613,0.426-0.987,0.75c-0.388,0.329-0.903,0.784-1.535,1.257
		c-1.275,0.978-3.156,2.043-5.837,3.145c-2.614,1.081-4.758,1.938-5.718,3.013c-0.911,1.019-0.678,2.419-0.836,3.184
		c-0.235,1.596-0.501,1.293-0.656-0.312c-0.069-0.795-0.281-1.817,0.128-2.912c0.421-1.078,1.314-1.824,2.06-2.377
		c0.764-0.553,1.465-0.965,1.966-1.257C209.159,267.273,209.463,267.1,209.463,267.1z"/>
	<path d="M309.355,104.37c1.979,1.691,3.677,3.775,5.463,5.782c1.798,2.034,3.703,4.15,5.503,6.49
		c1.782,2.345,3.529,4.906,4.616,7.943c0.544,1.517,0.831,3.181,0.866,4.794c0.015,0.835,0.028,1.548-0.064,2.465
		c-0.102,0.882-0.378,1.776-0.803,2.571c-0.861,1.615-2.155,2.721-3.279,3.783c-1.069,1.079-2.548,2.17-3.472,3.07
		c-0.457,0.465-0.687,0.922-0.836,1.531c-0.124,0.605-0.165,1.348-0.11,2.026c0.094,1.527,0.383,3.083,0.117,4.948
		c-0.05,0.248-0.107,0.499-0.221,0.782c-0.113,0.29-0.32,0.609-0.519,0.815c-0.39,0.404-0.746,0.657-1.102,0.899
		c-0.711,0.477-1.412,0.853-2.115,1.223l-2.095,1.042l-0.998,0.494c-0.353,0.18-0.728,0.369-1.113,0.534
		c-0.765,0.333-1.656,0.591-2.592,0.622c-0.94,0.022-1.792-0.184-2.529-0.384c-1.465-0.418-2.829-0.768-4.255-1.083
		c-5.658-1.253-10.596-1.867-14.667-3.154c-2.021-0.627-3.821-1.717-5.018-2.845c-1.223-1.102-2.258-1.88-3.332-2.25
		c-0.984-0.341-2.045-0.221-2.876-0.415c-0.855-0.158-1.401-0.625-1.641-0.934c-0.453-0.668-0.383-0.593,0.235,0.059
		c0.701,0.688,1.919,0.656,3.316,0.606c1.464-0.058,3.17,0.836,4.882,2.191c3.336,2.97,9.699,3.106,18.307,4.829
		c2.146,0.406,4.32,0.997,6.244,1.486c1.889,0.517,3.458-0.464,5.284-1.386c1.705-0.859,3.527-1.708,4.673-2.732
		c0.346-0.285,0.401-1.204,0.384-2.011c-0.015-0.831-0.105-1.671-0.185-2.511c-0.094-0.831-0.143-1.764-0.034-2.635
		c0.089-0.881,0.414-1.841,0.975-2.576c1.171-1.421,2.361-2.105,3.282-3.064c0.999-0.963,1.947-1.819,2.643-2.664
		c0.694-0.848,1.112-1.688,1.275-2.528c0.178-0.802,0.122-1.629,0.128-2.342c-0.013-0.7-0.05-1.288-0.112-1.843
		c-0.134-1.108-0.321-2.095-0.855-3.519c-0.541-1.419-1.445-3.267-3.301-5.862c-1.827-2.602-4.774-5.873-8.847-10.432
		c-1.023-1.107-2.048-2.069-3.093-2.913c-1.102-0.828-2.138-1.834-2.951-2.783c-0.834-0.961-1.543-1.91-2.177-2.812
		c-0.634-0.94-1.157-1.659-1.783-2.412c-0.594-0.746-1.156-1.457-1.582-2.245c-0.457-0.822-0.564-1.677-0.617-2.375
		c-0.074-1.424,0.086-2.512,0.186-3.354c0.418-3.337,0.691-2.751,0.604,0.765c0.001,1.736-0.053,3.83,1.381,5.283
		c0.639,0.785,1.378,1.521,2.066,2.343c0.667,0.844,1.252,1.602,1.87,2.317c1.209,1.424,2.395,2.538,3.3,3.212
		c0.487,0.354,0.878,0.637,1.146,0.833C309.203,104.254,309.355,104.37,309.355,104.37z"/>
	<path d="M45.674,198.745c5.064-0.767,9.371-2.219,12.094-3.962c2.759-1.691,3.997-3.307,4.044-3.774
		c0.019-0.248-0.284-0.264-0.914-0.028c-0.316,0.119-0.711,0.303-1.195,0.548c-0.507,0.21-1.098,0.484-1.786,0.81
		c-1.417,0.584-3.251,1.324-5.674,1.955c-2.419,0.643-5.41,1.165-9.049,1.653c-3.719,0.498-7.262,0.896-10.732,1.646
		c-3.52,0.834-6.482,1.986-9.503,2.846c-1.491,0.436-2.964,0.821-4.441,1.126l-2.248,0.428c-0.815,0.203-1.648,0.293-2.435,0.602
		c-3.203,1.021-6.069,3.039-8.143,5.698c-2.047,2.686-3.314,5.934-3.847,9.375c-0.205,1.729-0.325,3.508-0.128,5.311
		c0.046,0.907,0.23,1.807,0.394,2.719c0.062,0.459,0.228,0.9,0.34,1.355l0.206,0.748l0.143,0.459l0.369,0.307
		c5.668,5.062,13.337,8.835,22.872,10.42c9.516,1.634,19.002,1.374,28.123,1.329c1.141-0.005,2.278-0.01,3.412-0.017l1.695,0.002
		h0.836c0.146-0.012,0.422,0.086,0.693,0.138c2.105,0.524,4.112,1.431,5.757,2.736c0.82,0.653,1.542,1.41,2.12,2.253
		c0.285,0.424,0.547,0.862,0.755,1.324c0.121,0.222,0.203,0.462,0.291,0.7c0.061,0.191,0.246,0.634,0.369,0.833
		c0.513,1.029,1.383,2.041,2.402,2.651c0.278,0.169,0.439,0.269,0.819,0.464c0.157,0.117,0.375,0.102,0.545,0.141l0.4,0.064
		l1.597,0.254c8.516,1.253,16.86,1.067,24.563-0.107c3.854-0.595,7.553-1.431,11.067-2.443c0.875-0.266,1.752-0.5,2.601-0.791
		l1.276-0.417c0.49-0.148,0.138-0.102,0.731-0.035c1.617,0.233,3.169,0.686,4.635,1.291c2.859,1.21,5.178,2.734,7.137,3.986
		c1.952,1.271,3.547,2.288,4.756,2.929c2.432,1.281,3.174,1.188,1.867-0.188c-0.65-0.697-1.776-1.745-3.462-3.195
		c-1.703-1.422-3.931-3.327-7.242-5.139c-1.656-0.889-3.613-1.724-5.891-2.222c-0.565-0.145-1.15-0.214-1.763-0.303
		c-0.252-0.021-0.523-0.109-0.802-0.079l-0.747,0.25l-0.807,0.267c-1.082,0.378-2.222,0.715-3.404,1.081
		c-4.737,1.402-10.285,2.717-16.726,3.431c-6.896,0.76-12.394,0.507-17.261-0.06c-0.608-0.085-1.206-0.167-1.799-0.25l-0.442-0.062
		l-0.196-0.05c-0.116-0.057-0.441-0.234-0.628-0.357c-0.862-0.521-1.437-1.3-1.891-2.217c-0.336-1.019-1.01-2.284-1.784-3.236
		c-0.79-0.997-1.74-1.859-2.795-2.586c-1.059-0.724-2.219-1.317-3.461-1.791c-0.62-0.241-1.264-0.443-1.927-0.617
		c-0.376-0.1-0.57-0.143-1.112-0.253c-0.364,0-0.729,0.002-1.099,0.004c-2.701,0.021-5.613,0.045-8.857,0.071
		c-3.236,0.031-6.796,0.071-10.785-0.052c-3.985-0.126-8.418-0.357-13.309-1.186c-7.768-1.355-15.137-4.196-20.685-9.113
		l-1.046-0.902c-0.331-0.274-0.25-0.183-0.378-0.69c-0.25-0.862-0.391-1.743-0.514-2.626c-0.198-1.765-0.247-3.55,0.015-5.284
		c0.409-3.479,1.816-6.772,3.956-9.322c1.076-1.279,2.381-2.307,3.772-3.153c1.444-0.75,2.949-1.388,4.565-1.631
		c0.76-0.162,1.653-0.277,2.548-0.422c0.883-0.141,1.755-0.319,2.621-0.507c1.73-0.384,3.42-0.85,5.069-1.336
		c1.634-0.481,3.259-0.96,4.875-1.438c1.546-0.486,3.132-0.691,4.76-0.99C39.105,199.605,42.391,199.253,45.674,198.745z"/>
	<path d="M107.877,182.572c-0.243-0.065-0.489-0.132-0.739-0.198l-0.374-0.101c-0.087-0.025-0.004-0.01-0.202-0.028
		c-0.524-0.04-1.058-0.08-1.603-0.122c-1.09-0.072-2.219-0.147-3.38-0.225c-2.319-0.143-4.755-0.238-7.229-0.266
		c-4.944-0.047-10.03,0.32-14.493,1.34c-4.462,1.022-7.405,2.361-9.16,3.136c-1.72,0.845-2.334,1.01-1.74,0.631
		c0.614-0.344,1.327-1.184,2.839-2.139c1.46-1.026,3.717-2.235,7.187-3.166c3.474-0.905,6.681-1.29,9.405-1.524
		c2.729-0.24,4.986-0.291,6.649-0.357c3.32-0.069,1.916,0.191,11.765,0.831l0.381,0.058l0.22,0.055l0.43,0.109
		c0.282,0.072,0.557,0.141,0.823,0.21c0.532,0.13,1.034,0.254,1.508,0.371c0.945,0.224,1.776,0.399,2.503,0.532
		c1.454,0.267,2.496,0.377,3.164,0.48c1.337,0.172,1.164,0.487-0.272,0.652c-1.426,0.148-3.366,0.147-4.931,0.01
		C109.062,182.732,107.877,182.572,107.877,182.572z"/>
	<path d="M128.112,186.337c0.342-0.229,0.694-0.463,1.053-0.703c0.174-0.118,0.402-0.259,0.626-0.389l0.531-0.306
		c0.712-0.431,1.436-0.97,2.241-1.529c0.802-0.552,1.706-1.138,2.777-1.52c1.065-0.417,2.293-0.483,3.314-0.485
		c2.149-0.047,4.462,0.466,6.396,1.416c0.486,0.232,0.959,0.475,1.415,0.732c0.488,0.267,0.982,0.62,1.373,0.925
		c0.82,0.632,1.568,1.267,2.296,1.885c1.273,1.082,2.357,2.02,3.299,2.752c0.471,0.362,0.906,0.676,1.294,0.903
		c0.154,0.121,0.358,0.255,0.564,0.248c0.142-0.169,0.247-0.357,0.314-0.624c0.066-0.305,0.085-0.552,0.101-0.721
		c0.021-0.34,0.073-0.372,0.141-0.062c0.053,0.443,0.331,0.99-0.013,2.222c-0.299,0.148-0.777,0.148-1.329-0.01
		c-0.546-0.155-0.984-0.362-1.532-0.646c-1.062-0.562-2.253-1.393-3.616-2.491c-1.12-0.896-2.182-1.775-3.187-2.455
		c-0.987-0.604-2.112-1.115-3.074-1.446c-1.97-0.683-3.687-0.653-4.953-0.535c-1.253,0.144-1.455,0.156-2.36,0.396
		c-0.436,0.13-1.007,0.365-1.871,0.902c-0.434,0.268-0.939,0.617-1.566,1.044c-0.312,0.212-0.659,0.443-1.049,0.683
		c-0.199,0.116-0.405,0.236-0.619,0.362c-0.154,0.093-0.337,0.21-0.54,0.352c-1.613,1.146-3.027,2.053-4.257,2.545
		c-0.633,0.236-1.19,0.403-1.779,0.393c-0.607-0.038-1.129-0.284-1.248-0.657c-0.28-0.683-0.05-0.953,0.034-0.9
		c0.16,0.022,0.211,0.365,0.566,0.605c0.381,0.205,0.915-0.022,1.484-0.324c0.557-0.305,1.09-0.734,1.558-1.109
		C127.427,187.01,128.112,186.337,128.112,186.337z"/>
	<path d="M323.291,176.241c1.502,0.51,3.169,1.004,4.817,1.521c1.633,0.479,3.36,0.826,5.167,1.012
		c1.806,0.193,3.689,0.247,5.625,0.264c1.924,0.086,3.644-0.208,5.519-0.828c0.953-0.315,1.911-0.633,2.873-0.951
		c0.498-0.153,1.005-0.299,1.521-0.428l0.782-0.177l0.397-0.077c0.146-0.035,0.452-0.095,0.636-0.039
		c0.981,0.108,1.811,0.035,2.701-0.183c0.161-0.046,0.003,0.009,0.115-0.043l0.366-0.187l0.747-0.346
		c0.548-0.23,0.919-0.375,1.645-0.597c0.572-0.072,0.8-0.01,1.147,0.027c0.324,0.053,0.638,0.139,0.938,0.244
		c0.598,0.219,1.118,0.526,1.583,0.842c0.936,0.652,1.641,1.296,2.423,1.808c1.659,1.175,3.304,2.34,4.924,3.488l-0.091-0.061
		c1.122,0.793,2.19,1.547,3.225,2.278l0.409,0.292c0.245,0.219,0.336,0.377,0.44,0.499c0.212,0.28,0.405,0.573,0.573,0.878
		c0.168,0.306,0.315,0.621,0.434,0.943l0.154,0.46l0.006,0.019c0.491,0.515,1.418,1.045,2.269,1.358
		c0.877,0.343,1.786,0.588,2.676,0.802c0.91,0.203,1.783,0.398,2.614,0.584c0.429,0.107,0.848,0.21,1.257,0.312
		c0.349,0.078,0.684,0.164,1.031,0.19c2.801,0.228,5.097-0.891,6.584-1.738c1.512-0.905,2.367-1.712,2.779-2.083
		c0.415-0.376,0.42-0.309-0.004,0.193c-0.873,0.947-2.149,2.59-5.229,4.042c-0.777,0.334-1.672,0.64-2.712,0.795
		c-1.007,0.184-2.295,0.079-3.423-0.186c-1.159-0.214-2.454-0.395-3.867-0.703c-1.402-0.329-2.977-0.722-4.489-1.772
		c-0.341-0.276-0.664-0.457-1.045-1.01c-0.099-0.354-0.133-0.443-0.196-0.614l-0.198-0.46c-0.145-0.298-0.317-0.578-0.509-0.84
		c-0.213-0.31-0.297-0.365-0.646-0.595c-1.124-0.777-2.158-1.493-3.043-2.106l-0.059-0.039c-1.992-1.383-3.862-2.681-5.606-3.893
		c-0.893-0.658-1.643-1.309-2.408-1.689c-0.379-0.192-0.753-0.316-1.119-0.365c-0.162-0.025-0.433-0.029-0.434-0.021l-0.514,0.183
		c-0.4,0.15-0.784,0.316-1.151,0.496l-0.537,0.277c-0.052,0.023-0.286,0.178-0.455,0.197l-0.349,0.092
		c-0.889,0.216-1.772,0.294-2.605,0.263l-0.516-0.031l-0.084,0.014l-0.249,0.053c-0.329,0.065-0.646,0.159-0.957,0.237
		c-0.617,0.177-1.195,0.366-1.741,0.56c-2.864,1.022-3.82,1.409-6.412,1.611c-1.356,0.061-2.888-0.03-5.392-0.153
		c-2.451-0.141-5.973-0.513-10.374-2.025c-2.221-0.666-4.241-1.311-5.993-2.127c-1.721-0.788-3.325-1.855-4.121-3.312
		c-0.799-1.435-0.856-2.81-0.846-3.85c0.022-1.059,0.142-1.875,0.227-2.506c0.326-2.514,0.624-2.082,0.62,0.577
		c0.003,1.308,0.018,2.872,0.572,4.218c0.53,1.373,1.708,2.265,2.933,2.833c1.224,0.587,2.417,0.942,3.265,1.196
		C322.769,176.1,323.291,176.241,323.291,176.241z"/>
	<path d="M391.581,202.557c0.168,1.834,0.991,3.593,2.635,4.844c1.63,1.24,3.891,1.864,6.217,2.076
		c1.169,0.105,2.367,0.124,3.551,0.04c1.222-0.064,2.623-0.236,4.136,0.298c0.748,0.262,1.457,0.777,1.94,1.352
		c0.499,0.572,0.84,1.174,1.135,1.729c0.576,1.105,1.059,2.129,1.665,2.7c0.695,0.586,1.689,1.177,2.484,1.648
		c0.829,0.483,1.603,0.9,2.313,1.25c1.414,0.693,2.587,1.152,3.419,1.274c0.854,0.134,1.137-0.157,1.252-0.412
		c0.113-0.238,0.159-0.229,0.108,0.098c-0.071,0.298-0.336,0.679-0.917,0.81c-0.56,0.152-1.3,0.136-2.182-0.007
		c-1.766-0.335-4.158-1.057-7.189-3.052c-1.684-1.264-2.148-3.063-2.965-4.215c-0.757-1.24-1.807-1.646-3.045-1.662
		c-1.206-0.028-2.448,0.204-3.601,0.21c-1.126,0.031-2.127,0.012-2.982-0.064c-1.711-0.157-2.201-0.348-3.478-0.845
		c-0.636-0.255-1.478-0.64-2.641-1.455c-1.127-0.815-2.669-2.236-3.442-4.874c-0.596-2.548-0.532-4.575-0.178-6.189
		c0.195-0.798,0.534-1.495,0.99-1.984c0.483-0.491,1.096-0.662,1.49-0.607c0.794,0.104,0.987,0.39,0.899,0.457
		c-0.091,0.141-0.518,0.028-1.07,0.21c-0.557,0.179-0.89,0.864-1.015,1.603c-0.133,0.746-0.09,1.559-0.021,2.269
		C391.247,201.498,391.581,202.557,391.581,202.557z"/>
	<path d="M368.07,143.297c2.332-2.303,4.738-4.891,7.436-7.189c1.362-1.137,2.633-2.376,4.394-3.369
		c1.784-0.999,3.807-1.206,5.558-1.468c3.555-0.504,7.259-1.451,11.259-1.315c1.965,0.059,4.089,0.508,5.887,1.336
		c1.735,0.723,3.55,1.334,5.398,1.948c1.846,0.615,3.732,1.224,5.606,1.958c1.909,0.707,3.696,1.671,5.487,2.453
		c1.82,0.829,3.702,1.633,5.505,2.837c1.815,1.241,3.214,2.821,4.604,4.288c1.39,1.435,2.772,2.997,4.349,3.511
		c1.667,0.584,3.707,0.437,5.771,0.385c2.065-0.038,4.368-0.133,6.58,0.89c2.098,0.996,3.769,2.548,5.134,4.302
		c1.345,1.77,2.357,3.747,3.109,5.798c0.384,1.025,0.684,2.076,0.943,3.135c0.252,1.078,0.445,1.977,0.833,2.834
		c0.692,1.685,2.239,2.732,4.075,3.686c1.905,0.988,3.724,2.098,5.545,3.071c3.595,1.995,7.576,3.056,11.676,4.031
		c2.029,0.48,4.158,1.024,6.137,1.586c1.983,0.52,4.088,0.902,6.18,1.64c2.067,0.786,3.82,1.57,5.73,1.708
		c0.964,0.09,1.921,0.04,3.02,0.021c0.55,0.006,1.11-0.018,1.824,0.148c0.736,0.15,1.45,0.679,1.839,1.129
		c0.827,0.906,1.322,1.752,1.97,2.43c0.653,0.703,1.47,1.515,2.12,2.435c1.359,1.872,1.944,3.979,2.837,5.634
		c0.389,0.734,1.055,1.491,1.695,2.358c0.615,0.862,1.36,1.924,1.421,3.351c0.071,1.405-0.643,2.682-1.497,3.517
		c-0.851,0.829-1.763,1.4-2.645,1.938c-0.879,0.531-1.767,1.014-2.503,1.529c-0.757,0.547-1.548,1.186-2.341,1.796
		c-1.575,1.248-3.41,2.448-5.411,3.124c-1.997,0.722-4.119,0.895-6.037,0.895c-1.898-0.01-3.759-0.019-5.584-0.028
		c-3.636-0.026-7.127-0.048-10.471-0.072c-1.68,0.004-3.331-0.098-4.772,0.143c-1.471,0.219-2.798,0.748-3.969,1.55
		c-1.194,0.758-2.121,1.87-3.395,2.832c-1.227,0.936-2.534,1.627-3.736,2.286c-1.169,0.665-2.416,1.309-3.201,2.077
		c-0.42,0.4-0.859,0.983-1.542,1.419c-0.681,0.429-1.409,0.614-2.117,0.677c-1.348,0.096-2.548-0.01-3.732-0.102
		c-1.16-0.088-2.354-0.247-3.434-0.462c-2.205-0.453-4.138-0.903-6.057-1.501c-1.883-0.686-3.4-1.676-4.772-2.555
		c-1.366-0.891-2.584-1.714-3.74-2.338c-1.097-0.602-2.263-0.695-3.303-0.697c-2.098,0.053-3.72,0.05-4.779-0.478l-0.377-0.171
		l-0.054-0.353c-0.026-0.205-0.048-0.371-0.065-0.498c-0.025-0.228-0.028-0.319-0.009-0.276c0.019,0.05,0.055,0.209,0.122,0.548
		l0.054,0.283l0.153,0.266c0.223,0.095,0.5,0.209,0.788,0.279c1.174,0.322,2.533,0.188,4.034,0.119
		c0.753-0.026,1.559-0.022,2.391,0.164c0.841,0.165,1.633,0.641,2.472,1.1c1.677,0.933,3.446,2.167,5.599,3.195
		c1.079,0.529,2.251,0.895,3.566,1.153c1.3,0.288,2.669,0.584,4.115,0.822c1.443,0.255,2.972,0.36,4.591,0.421
		c1.588,0.022,3.409,0.176,4.496-1.079c0.545-0.619,1.286-1.41,2.107-1.893c0.794-0.531,1.638-1.015,2.488-1.502
		c1.729-0.96,3.344-2.01,4.834-3.565c1.577-1.507,3.7-2.824,6.141-3.203c1.203-0.222,2.446-0.236,3.645-0.229
		c1.215-0.005,2.455-0.009,3.72-0.012c2.531-0.003,5.163-0.007,7.902-0.01c2.724-0.053,5.631,0.126,8.447-0.146
		c2.832-0.305,5.37-1.577,7.57-3.344c1.14-0.857,2.201-1.808,3.491-2.598c1.233-0.76,2.47-1.41,3.495-2.227
		c0.507-0.403,0.952-0.855,1.222-1.334c0.276-0.521,0.402-1.055,0.331-1.588c-0.153-1.088-1.036-2.126-1.871-3.201
		c-1.886-2.326-2.291-5.108-3.826-7.044c-0.71-1.008-1.688-1.824-2.565-2.921c-0.827-1.032-1.505-2.194-2.346-2.295
		c-1.026-0.172-2.363,0.005-3.656-0.048c-1.303-0.029-2.633-0.265-3.846-0.66c-1.209-0.377-2.363-0.899-3.434-1.263
		c-1.102-0.368-2.24-0.645-3.383-0.913c-1.143-0.266-2.304-0.532-3.435-0.855c-1.097-0.312-2.199-0.585-3.294-0.852
		c-4.375-1.038-8.713-2.014-12.538-3.883c-1.902-0.92-3.639-1.96-5.335-2.891c-1.64-0.927-3.519-1.689-5.012-3.172
		c-1.538-1.497-2.115-3.569-2.479-5.233c-0.384-1.631-0.9-3.172-1.544-4.582c-1.264-2.829-3.053-5.142-5.138-6.579
		c-2.053-1.525-4.058-1.565-6.006-1.568c-1.924,0.022-3.663,0.182-5.425-0.014c-0.875-0.077-1.765-0.288-2.631-0.629
		c-0.865-0.341-1.701-0.956-2.338-1.525c-1.346-1.182-2.546-2.604-4.008-4.131c-0.733-0.756-1.536-1.541-2.493-2.231
		c-0.952-0.686-2.158-1.319-3.515-1.967c-1.351-0.645-2.919-1.325-4.562-2.141c-1.607-0.778-3.438-1.489-5.492-2.198
		c-2.051-0.717-4.331-1.422-6.798-2.36c-0.615-0.236-1.243-0.493-1.876-0.76c-0.581-0.238-1.188-0.446-1.827-0.606
		c-1.281-0.312-2.677-0.429-4.146-0.396c-2.951,0.049-6.149,0.765-9.723,1.306c-1.793,0.266-3.536,0.449-5.032,1.338
		c-1.495,0.869-2.994,2.287-4.527,3.609c-3.076,2.682-5.614,5.656-8.439,8.203c-2.785,2.54-5.743,4.694-8.894,6.079
		c-1.625,0.697-3.055,1.146-4.456,1.834c-1.41,0.643-2.795,1.316-4.243,1.808c-1.524,0.541-3.067,0.561-4.453,0.539
		c-1.401-0.032-2.724-0.157-3.971-0.215c-4.953-0.215-9.135,1.22-12.751,1.802c-1.821,0.343-3.481,0.425-4.894,0.659
		c-1.434,0.227-2.689,0.498-3.758,0.807c-2.142,0.591-3.538,1.428-3.938,2.251c-0.069,0.205-0.126,0.39-0.156,0.542l0.012,0.37
		c-0.003,0.181-0.026,0.229-0.071,0.127c-0.009-0.103-0.2-0.358-0.119-0.776c-0.012-0.443,0.341-0.946,0.831-1.431
		c1.058-0.918,2.858-1.658,5.168-2.223c2.316-0.628,4.899-0.763,7.463-1.37c2.59-0.568,5.276-1.347,8.101-1.745
		c1.408-0.202,2.856-0.298,4.288-0.257c1.421,0.04,2.81,0.135,4.162,0.116c1.363-0.022,2.636-0.132,3.798-0.62
		c1.21-0.46,2.373-1.043,3.526-1.603c1.141-0.564,2.328-1.106,3.454-1.531c1.077-0.409,2.065-0.921,2.984-1.431
		c1.832-1.045,3.346-2.19,4.559-3.212c1.215-1.022,2.144-1.904,2.775-2.525C367.727,143.638,368.07,143.297,368.07,143.297z"/>
	<path d="M240.127,218.712c0.658,0.378,1.408,0.762,2.124,1.359c0.709,0.571,1.328,1.317,1.796,2.102
		c0.934,1.6,1.437,3.088,2.551,4.219c1.132,1.215,2.488,2.269,4.027,3.022c1.558,0.781,3.2,1.138,5.093,1.393
		c1.852,0.281,3.765,0.495,5.712,0.902c1.935,0.402,3.951,1.091,5.677,2.343c1.717,1.272,2.933,3.084,3.688,4.917
		c0.763,1.817,1.264,3.712,1.277,5.706c0.022,1.991-0.656,3.829-1.567,5.203c-0.454,0.697-0.965,1.291-1.474,1.822
		c-0.538,0.557-1.121,0.991-1.67,1.364c-2.205,1.4-4.454,2.139-6.176,1.417c-0.826-0.376-1.25-1.06-1.395-1.552
		c-0.197-0.503-0.19-0.881-0.208-1.121c-0.022-0.479,0.035-0.433,0.145,0.098c0.079,0.524,0.372,1.231,1.06,1.748
		c0.717,0.509,1.84,0.505,3.025,0.005c1.184-0.471,2.564-1.327,3.852-2.61c1.216-1.352,2.529-3.217,2.677-5.701
		c0.139-2.465-0.727-4.937-1.781-6.891c-1.074-1.989-2.764-3.296-4.539-4.005c-1.788-0.715-3.599-0.998-5.232-1.212
		c-1.665-0.202-3.131-0.379-4.375-0.529c-2.581-0.369-3.376-0.748-5.201-1.741c-0.898-0.538-2.072-1.307-3.544-2.801
		c-0.724-0.714-1.576-1.808-2.2-3.096c-0.66-1.283-1.19-2.665-2.526-3.646c-1.349-0.95-2.964-1.703-4.257-2.314
		c-1.337-0.612-2.543-1.088-3.607-1.46c-2.129-0.746-3.684-1.088-4.672-1.289c-1.988-0.314-1.696-0.646,0.5-0.602
		c2.177,0.105,5.034,0.728,7.287,1.464C238.451,217.943,240.127,218.712,240.127,218.712z"/>
	<path d="M110.137,495.918c3.732-0.003,8.051,0.728,11.349-1.612c3.39-2.429,6.341-6.201,10.421-8.84
		c0.341-0.145,0.68-0.333,1.046-0.345c0.357-0.048,0.603-0.002,0.881,0.022c0.495,0.085,0.92,0.212,1.302,0.353
		c0.769,0.285,1.442,0.605,2.091,0.922c1.293,0.638,2.489,1.274,3.67,1.819c2.464,1.16,4.634,1.795,6.341,1.636
		c1.714-0.122,2.889-1.003,3.651-1.771c0.777-0.769,1.189-1.41,1.426-1.686c0.24-0.279,0.274-0.228,0.083,0.147
		c-0.39,0.728-0.684,2.052-2.358,3.574c-0.848,0.728-2.196,1.322-3.86,1.379c-1.661,0.057-3.548-0.402-5.548-1.243
		c-1.607-0.677-3.076-1.436-4.438-2.072c-0.679-0.316-1.337-0.609-1.944-0.803c-0.613-0.21-1.154-0.221-1.239-0.11
		c-3.424,2.391-5.612,5.067-7.363,6.71c-1.469,1.409-1.911,1.76-3.436,2.622c-0.762,0.398-1.824,0.884-3.503,1.226
		c-1.677,0.348-3.937,0.362-6.873,0.274c-2.883-0.074-5.244,0.165-7.142,0.021c-0.942-0.057-1.753-0.178-2.422-0.343
		c-0.339-0.079-0.601-0.167-0.994-0.291c-0.165-0.064-0.322-0.122-0.47-0.179c-0.147-0.048-0.289-0.086-0.256-0.274
		c-0.095-1.171,0.033-1.355,0.169-1.35c0.073,0.024,0.164,0.16,0.259,0.372l0.135,0.314c0.044,0.117,0.054,0.276,0.263,0.26
		c0.164,0.029,0.315,0.05,0.492,0.064c0.217,0.031,0.446,0.041,0.677,0.055c0.464,0.022,0.95,0.016,1.439-0.014
		c0.982-0.057,1.981-0.195,2.884-0.334C108.671,496.125,110.137,495.918,110.137,495.918z"/>
	<path d="M167.973,490.434c0.672,0.369,1.445,0.76,2.234,1.264c0.8,0.486,1.582,1.138,2.285,1.748
		c1.444,1.252,2.825,2.638,3.959,3.977c2.245,2.684,2.696,4.176,2.329,3.812c-0.367-0.365-1.659-0.591-3.456-2.51
		c-1.79-1.919-3.399-3.245-4.415-3.891c-0.506-0.324-0.608-0.479-0.897-0.805c-0.309-0.317-0.793-0.871-2.383-1.652
		c-3.308-1.496-3.563-2.731-2.519-2.417c0.509,0.143,1.217,0.253,1.805,0.333C167.51,490.372,167.973,490.434,167.973,490.434z"/>
	<path d="M199.87,492.032c1.206,1.012,2.476,2.017,3.849,3.227c0.674,0.607,1.36,1.252,2.008,1.988
		c0.669,0.769,1.184,1.472,1.793,2.207c2.34,2.889,4.905,5.772,7.816,7.249c1.441,0.741,2.781,1.091,3.929,1.172
		c0.572,0.107,1.094,0.024,1.564,0.059c0.429,0.003,0.972-0.1,1.106-0.064c0.284,0.064,0.335-0.121,0.41-0.269
		c0.098-0.193,0.171-0.336,0.221-0.435c0.119-0.207,0.16-0.176,0.107,0.085c-0.073,0.259-0.028,0.59-0.133,1.015
		c-0.384,0.15-0.934,0.41-1.572,0.605c-1.284,0.379-3.42,0.688-6.03-0.477c-2.583-1.153-4.425-2.891-5.919-4.334
		c-1.473-1.483-2.6-2.774-3.446-3.698c-0.853-0.924-1.01-1.253-1.548-1.97c-0.56-0.729-1.553-1.891-4.479-4.194
		c-1.441-1.214-2.452-1.81-3.493-1.967c-1.04-0.191-1.888-0.281-2.389-0.426c-1.021-0.276-0.833-0.557,0.229-0.64
		c1.049-0.066,2.511-0.355,3.856-0.005c0.648,0.162,1.183,0.403,1.546,0.578C199.651,491.92,199.87,492.032,199.87,492.032z"/>
	<path d="M222.875,492.796c0.553,1.422,3.205,2.246,4.903,4.053c0.855,0.933,1.084,1.941,1.029,2.474
		c-0.047,0.552-0.198,0.703-0.247,0.55c-0.141-0.348-0.897-0.728-1.898-1.715c-1.096-1.031-2.357-1.526-3.099-1.852
		c-0.38-0.155-0.449-0.274-0.659-0.521c-0.196-0.283-0.602-0.609-1.425-1.667c-0.818-1.136-0.633-2.117-0.418-2.439
		c0.216-0.36,0.512-0.281,0.646,0.002C221.915,492.342,222.892,492.827,222.875,492.796z"/>
	<path d="M135.268,376.664c-1.483-6.358-2.657-15.519-2.633-23.155c0.002-7.625,0.665-10.656,0.643-9.518
		c0.012,1.141,0.556,3.422,0.666,9.108c0.122,5.687,0.631,10.208,1.088,12.809c0.234,1.302,0.247,1.679,0.328,2.715
		c0.117,1.027,0.224,2.732,1.076,6.598c0.872,3.858,1.472,6.139,1.612,7.239c0.146,1.1-0.119,0.997-0.541-0.071
		C136.602,380.288,135.268,376.664,135.268,376.664z"/>
	<path d="M159.869,422.628c-0.352-1.772-0.895-3.696-1.595-5.689c-0.352-0.996-0.748-2.007-1.172-3.027l-0.328-0.767
		c-0.036-0.14-0.228-0.36-0.364-0.583c-0.301-0.429-0.643-0.836-1.015-1.228c-1.494-1.564-3.463-2.796-5.321-4.231
		c-0.931-0.717-1.839-1.49-2.65-2.352c-0.209-0.209-0.402-0.433-0.59-0.66l-0.286-0.341c-0.183-0.231-0.201-0.329-0.284-0.455
		c-0.285-0.496-0.542-1-0.782-1.5c-0.955-2.01-1.519-3.782-1.998-5.219c-0.476-1.429-0.853-2.562-1.134-3.408
		c-0.591-1.669-0.761-2.2-0.45-1.631c0.302,0.571,0.867,1.376,1.623,2.826c0.78,1.438,1.608,3.576,2.951,6.463
		c0.341,0.714,0.721,1.41,1.093,2.034c0.398,0.483,0.941,1.076,1.444,1.529c1.032,0.955,2.109,1.734,3.121,2.446
		c2.038,1.396,3.76,2.669,4.858,3.865c0.55,0.596,0.85,1.034,1.103,1.446l0.131,0.255l0.059,0.155l0.12,0.319
		c0.079,0.221,0.165,0.459,0.267,0.741c0.369,1.145,1.143,2.965,2.32,7.411c1.102,4.477,1.062,7.256,0.974,8.504
		c-0.115,1.26-0.349,1.048-0.51-0.233c-0.172-1.281-0.52-2.97-0.883-4.315C160.217,423.638,159.869,422.628,159.869,422.628z"/>
	<path d="M161.134,330.244c-0.072,1.61-0.04,3.579,0.003,5.574c0.053,1.983,0.29,4.007,0.52,5.867
		c0.491,3.729,0.269,5.351,0.141,4.787c-0.099-0.565-0.928-1.555-1.41-4.391c-0.474-2.838-0.717-5.153-0.861-6.51
		c-0.151-1.348,0.146-0.764,0.144-4.76c0-3.991,0.731-4.751,0.878-3.61C160.695,328.341,161.134,330.244,161.134,330.244z"/>
	<path d="M180.793,408.857c0.534,1.845,1.429,3.788,2.707,5.62c0.645,0.909,1.367,1.805,2.201,2.624
		c0.797,0.838,1.757,1.557,2.707,2.467c0.932,0.883,1.821,1.898,2.518,3.034c0.707,1.131,1.233,2.327,1.707,3.498
		c0.931,2.336,1.778,4.681,2.326,7.016c0.616,2.396,0.462,4.458,0.606,6.036c0.094,1.605,0.339,2.82,0.689,3.656
		c0.346,0.834,0.758,1.283,0.944,1.507c0.185,0.231,0.146,0.245-0.118,0.022c-0.507-0.424-1.386-1.157-1.97-2.881
		c-0.298-0.846-0.526-1.908-0.684-3.181c-0.182-1.272-0.222-2.755-0.634-4.393c-0.818-3.345-2.03-6.296-3.117-8.69
		c-1.097-2.396-2.606-3.881-3.836-4.893c-1.213-0.99-1.649-1.381-2.507-2.365c-0.439-0.5-1.003-1.176-1.785-2.269
		c-0.749-1.11-1.752-2.643-2.665-5.003c-1.761-4.774-1.448-7.88-1.347-9.206c0.176-1.358,0.4-1.108,0.498,0.279
		c0.116,1.391,0.452,3.222,0.882,4.65C180.322,407.823,180.793,408.857,180.793,408.857z"/>
	<path d="M184.665,264.049c0.659-1.008,1.134-2.272,1.495-3.651c0.267-1.408,0.454-2.92,0.424-4.489
		c-0.007-3.132-0.494-6.399-0.815-9.41c-0.71-6.06,0.09-8.573,0.054-7.634c0.025,0.926,0.606,2.686,1.214,7.163
		c0.62,4.489,1.109,8.135,1.154,10.325c0.047,1.091-0.056,1.41-0.165,2.26c-0.234,0.828-0.251,2.3-1.646,5.341
		c-0.323,0.772-0.837,1.35-1.191,1.914c-0.403,0.533-0.865,0.915-1.222,1.279c-0.727,0.719-1.427,0.991-1.808,1.217
		c-0.812,0.39-0.799,0.1-0.148-0.512c0.319-0.315,0.714-0.657,1.047-1.062c0.299-0.426,0.604-0.862,0.878-1.255
		c0.271-0.383,0.397-0.798,0.534-1.057C184.591,264.211,184.665,264.049,184.665,264.049z"/>
	<path d="M167.902,284.754c0.199-1.719,0.678-3.763,1.615-5.703c0.911-1.945,2.232-3.772,3.711-5.125
		c1.473-1.36,2.721-2.027,3.478-2.346c0.762-0.317,1.036-0.326,0.796-0.164c-0.465,0.355-1.188,1.362-3.207,3.31
		c-2.027,1.983-3.042,4.05-3.447,5.262c-0.21,0.61-0.286,0.772-0.536,1.215c-0.195,0.457-0.626,1.207-0.891,3.124
		c-0.228,1.914-0.203,3.079-0.343,3.648c-0.133,0.571-0.359,0.526-0.503-0.05c-0.171-0.569-0.348-1.346-0.49-2
		C167.982,285.266,167.902,284.754,167.902,284.754z"/>
	<path d="M111.438,306.307c-1.574-0.026-3.703-0.079-3.742,0.684c-0.053,0.746,0.205,2.482,0.497,3.194
		c0.13,0.357,0.631,1.262,1.375,2.045c0.724,0.802,1.608,1.491,2.144,1.988c1.076,1.11,3.524,1.588,4.401,2.11
		c1.332,0.79,1.617-1.727,0.332-1.326c-0.551,0.129-1.537-0.067-2.333-0.519c-0.808-0.431-1.418-1.034-1.522-1.286
		c-0.107-0.257-0.888-0.993-1.389-1.889c-0.541-0.876-0.736-1.855-0.661-2.045c0.172-0.384-0.258-1.527,0.323-2.012
		c0.243-0.228,0.407-0.458,0.487-0.638C111.429,306.434,111.438,306.307,111.438,306.307z"/>
	<path d="M108.83,325.427c0.189-2.27,0.571-5.577,1.654-8.037c1.041-2.455,2-3.189,1.847-2.831
		c-0.137,0.369,0.097,1.312-0.561,3.145c-0.66,1.838-0.893,3.375-0.915,4.272c0.014,0.903-0.315,0.455-0.547,3.136
		c-0.107,2.677-0.736,3.246-0.921,2.455C109.21,326.786,108.83,325.427,108.83,325.427z"/>
	<path d="M142.372,298.228c1.977-1.052,4.414-2.476,5.519-4.839c1.127-2.393,1.211-5.36,1.445-8.032
		c0.2-2.694,0.607-4.631,1.026-5.705c0.427-1.074,0.672-1.343,0.562-0.953c-0.239,0.809-0.074,2.446-0.258,6.463
		c-0.107,2.021-0.188,3.869-0.438,5.456c-0.234,1.588-0.652,2.905-1.091,3.843c-0.444,0.938-0.697,1.165-1.265,1.733
		c-0.59,0.541-1.572,1.45-4.068,2.9c-2.505,1.414-4.02,2.041-4.76,2.326c-0.744,0.266-0.774,0.021-0.134-0.507
		C140.187,299.923,142.372,298.228,142.372,298.228z"/>
	<path d="M148.961,296.17c-0.11,1.298-0.104,3.217-0.815,4.646c-0.715,1.415-1.594,1.586-1.463,1.403
		c0.103-0.203-0.172-0.841,0.204-1.802c0.373-0.983,0.395-1.845,0.325-2.334c-0.1-0.495,0.235-0.24,0.286-1.695
		c-0.018-1.431,0.606-1.826,0.814-1.398C148.513,295.408,148.961,296.17,148.961,296.17z"/>
	<path d="M175.045,204.782c-0.481,4.139-0.222,10.037-0.32,14.961c-0.103,4.929-0.697,6.908-0.696,6.167
		c-0.002-0.741-0.588-2.215-0.619-5.911c-0.031-3.698-0.165-6.66-0.274-8.396c-0.085-1.739,0.105-0.988,0.398-6.186
		c0.399-5.206,1.372-6.072,1.305-4.591C174.791,202.308,175.045,204.782,175.045,204.782z"/>
	<path d="M201.544,190.311c0.824,1.288,2.464,2.719,3.181,5.049c0.633,2.217,0.574,4.362,0.682,6.184
		c0.072,1.826,0.285,2.915,0.576,3.56c0.3,0.626,0.445,0.931,0.213,0.755c-0.21-0.172-0.688-0.274-1.234-0.857
		c-0.557-0.562-1.077-1.612-1.235-3.091c-0.234-2.938-0.487-5.177-1.072-6.199c-0.28-0.481-0.292-0.641-0.46-1.081
		c-0.165-0.447-0.488-1.133-1.786-2.693c-1.338-1.591-1.686-3.029-1.576-3.641c0.089-0.631,0.404-0.567,0.645-0.079
		C199.972,189.247,201.544,190.311,201.544,190.311z"/>
	<path d="M184.498,322.312c0.605-2.733,2.012-5.48,3.001-8.572c1.146-3.105,2.807-6.139,4.631-8.639
		c3.722-4.951,5.945-6.234,5.299-5.586c-0.574,0.712-1.415,2.41-4.044,6.084c-2.617,3.708-3.946,7.103-4.527,9.103
		c-0.288,0.99-0.426,1.312-0.784,2.077c-0.314,0.777-1.062,2.005-1.948,4.958c-0.8,2.972-0.263,4.72-0.108,5.567
		c0.182,0.85-0.059,0.853-0.534,0.026c-0.446-0.827-0.853-2.07-0.945-3.134C184.427,323.136,184.498,322.312,184.498,322.312z"/>
	<path d="M209.664,295.932c1.55-0.234,3.613-0.726,5.253-0.977c1.607-0.248,2.415-0.171,2.214-0.029
		c-0.215,0.098-0.46,0.931-1.81,1.286c-1.32,0.317-2.347,0.598-2.928,0.845c-0.572,0.253-0.387-0.116-2.14,0.243
		c-1.679,0.407-2.251-0.038-1.819-0.388C208.845,296.584,209.664,295.932,209.664,295.932z"/>
	<path d="M188.547,354.921c0.46-2.984,1.357-7.339,3.58-10.34c1.09-1.488,2.178-2.252,2.842-2.607
		c0.677-0.353,0.927-0.372,0.727-0.203c-0.392,0.369-0.921,1.362-2.377,3.408c-1.428,2.114-1.982,4.134-2.19,5.298
		c-0.141,1.188-0.467,0.571-1.059,4.112c-0.242,1.774-0.433,2.836-0.648,3.331c-0.214,0.495-0.431,0.412-0.49-0.119
		C188.792,356.759,188.547,354.921,188.547,354.921z"/>
	<path d="M165.56,474.358c2.105-0.053,4.503,0.147,6.842,1.076c2.334,0.922,4.519,2.558,6.196,4.625
		c0.402,0.529,0.794,1.064,1.177,1.615c0.343,0.596,0.703,1.195,0.953,1.807c0.565,1.219,0.979,2.452,1.402,3.669
		c0.816,2.436,1.535,4.824,2.396,7.003c0.851,2.177,1.765,3.932,2.802,5.113c0.221,0.34,0.534,0.531,0.777,0.788
		c0.243,0.259,0.5,0.46,0.772,0.596c0.264,0.16,0.51,0.312,0.74,0.452c0.255,0.085,0.491,0.162,0.708,0.234
		c0.433,0.19,0.819,0.224,1.13,0.247c0.311,0.043,0.541,0.076,0.694,0.096c0.305,0.057,0.283,0.093-0.073,0.093
		c-0.354-0.012-0.801,0.072-1.386,0.067c-0.571-0.098-1.333-0.11-2.165-0.552c-1.725-0.743-3.634-2.819-5.021-6.187
		c-1.426-3.358-2.288-6.489-3.279-9.027c-0.507-1.25-0.972-2.412-1.553-3.274c-0.583-0.876-1.177-1.653-1.743-2.205
		c-0.537-0.593-0.921-0.924-1.264-1.24c-0.326-0.338-0.646-0.609-1.134-0.993c-0.235-0.207-0.523-0.422-0.904-0.643
		c-0.367-0.243-0.813-0.512-1.394-0.759c-1.14-0.519-2.795-1.084-5.221-1.153c-2.423-0.065-4.371,0.279-5.864,0.55
		c-1.496,0.279-2.553,0.536-3.231,0.662c-1.36,0.253-1.22-0.026,0.126-0.565c1.346-0.517,3.169-1.196,4.725-1.559
		c0.771-0.203,1.474-0.319,1.974-0.426C165.251,474.399,165.56,474.358,165.56,474.358z"/>
	<path d="M227.918,498.535c1.121,1.348,3.129,2.791,4.653,4.117c1.523,1.322,1.962,2.195,1.691,2.048
		c-0.255-0.165-1.121,0.016-2.401-0.933c-1.26-0.953-2.3-1.676-2.948-2.062c-0.638-0.396-0.234-0.374-1.81-1.917
		c-1.556-1.574-1.271-2.393-0.747-2.033C226.884,498.114,227.918,498.535,227.918,498.535z"/>
	<path d="M219.339,474.149c-0.828-2.276-2.107-4.958-2.824-8.051c-0.397-1.515-0.417-3.267-0.518-4.632
		c-0.068-0.672-0.26-1.222-0.594-1.786c-0.338-0.559-0.761-1.112-1.196-1.519c-0.91-0.852-2.008-1.348-2.889-1.953
		c-0.9-0.567-1.526-1.336-1.754-1.955c-0.247-0.622-0.223-1.046-0.209-1.241c0.015-0.197,0.055-0.181,0.103,0.031
		c0.081,0.414,0.388,1.089,1.227,1.676c0.417,0.298,0.968,0.559,1.672,0.864c0.696,0.31,1.577,0.674,2.489,1.389
		c0.902,0.766,1.552,1.605,2.033,2.548c0.495,0.959,0.569,1.998,0.626,2.807c0.091,1.636,0.362,2.879,0.661,3.806
		c0.308,0.917,0.351,1.188,0.532,1.936c0.183,0.748,0.52,1.962,1.669,4.732c1.16,2.772,1.587,4.57,1.624,5.422
		c0.046,0.853-0.21,0.765-0.522-0.026C220.837,476.607,219.339,474.149,219.339,474.149z"/>
	<path d="M145.374,468.834c1.588-1.036,3.064-3.451,4.285-5.365c1.227-1.922,1.997-2.639,1.899-2.307
		c-0.131,0.317,0.181,1.236-0.69,2.844c-0.895,1.572-1.613,2.831-2.051,3.601c-0.474,0.733-0.333,0.365-2.25,2.136
		c-1.019,0.85-1.876,1.047-2.277,0.984c-0.402-0.047-0.399-0.284-0.119-0.484C144.771,469.856,145.374,468.834,145.374,468.834z"/>
	<path d="M348.009,231.523c0.092,0.226,0.221,0.621,0.265,0.798l0.005,0.093l0.141-0.098c0.413-0.279,0.829-0.6,1.247-0.926
		c0.834-0.659,1.672-1.364,2.491-1.981c2.103-1.602,3.326-1.814,3.008-1.56c-0.315,0.25-0.547,1.2-2.058,2.482
		c-1.514,1.286-2.693,2.386-3.41,3.045c-0.445,0.434-0.866,0.569-2.726,1.417c0.007-0.319,0.014-0.724,0.024-1.212
		c0.024-0.507-0.125-0.977-0.184-1.127c-0.473-1.112-0.863-1.983-0.806-2.429c0.031-0.45,0.266-0.443,0.484-0.131
		C346.949,230.492,348.022,231.471,348.009,231.523z"/>
	<path d="M404.526,224.851c3.374,0.138,8.052-0.434,11.605-1.862c1.791-0.678,3.048-1.231,3.814-1.534
		c0.769-0.302,1.065-0.317,0.814-0.155c-0.512,0.283-1.119,1.589-3.938,2.827c-2.814,1.198-5.234,1.698-6.629,2.02
		c-1.4,0.262-0.836,0.033-5.048,0.159c-4.2,0.04-4.982-0.719-3.792-0.857C402.549,225.308,404.526,224.851,404.526,224.851z"/>
	<path d="M401.247,213.573c-0.276,1.248-0.403,2.981-0.783,4.291c-0.409,1.353-0.705,1.452-0.702,1.515
		c-0.117,0.036-0.819-0.576-0.609-1.664c0.186-1.076,0.236-1.922,0.183-2.432c-0.06-0.503,0.221-0.252,0.434-1.669
		c0.147-1.336,0.74-1.676,0.94-1.271C400.884,212.74,401.247,213.573,401.247,213.573z"/>
	<path d="M403.756,217.988c1.812,0.054,4.277,0.091,5.863-0.427c0.775-0.257,1.274-0.583,1.61-0.826
		c0.335-0.234,0.541-0.293,0.46-0.16c-0.086,0.121-0.043,0.398-0.175,0.809c-0.144,0.383-0.475,0.993-1.277,1.338
		c-1.577,0.652-2.871,0.702-3.595,0.879c-0.718,0.154-0.447-0.165-2.526-0.159c-1.019,0.026-1.579-0.031-1.901-0.129
		c-0.327-0.114-0.381-0.326-0.089-0.488C402.685,218.474,403.756,217.988,403.756,217.988z"/>
	<path d="M391.487,216.338c1.016-0.971,1.646-2.882,2.235-4.419c0.6-1.548,1.245-2.152,1.212-1.891
		c-0.059,0.25,0.446,0.889,0.074,2.186c-0.372,1.281-0.671,2.31-0.86,2.964c-0.204,0.622-0.23,0.303-1.354,1.865
		c-1.259,1.517-2.083,1.089-1.778,0.657C391.309,217.248,391.487,216.338,391.487,216.338z"/>
	<path d="M118.396,128.611c0.402-1.588,1.118-3.164,2.297-4.695c1.148-1.441,2.462-2.669,3.105-3.925
		c0.324-0.586,0.438-1.21,0.606-1.801c0.158-0.584,0.373-1.084,0.608-1.396c0.486-0.622,0.772-0.634,0.61-0.445
		c-0.151,0.206-0.233,0.616-0.236,1.22c-0.05,0.596,0.19,1.462-0.316,2.803c-0.551,1.258-1.334,2.137-1.921,2.895
		c-0.607,0.749-1.069,1.364-1.345,1.836c-0.275,0.474-0.379,0.563-0.646,0.889c-0.232,0.328-0.758,0.921-1.226,2.438
		c-0.212,0.763-0.202,1.286-0.081,1.478c0.112,0.223,0.427,0.411,0.638,0.491c0.426,0.21,0.419,0.429-0.135,0.49
		c-0.269,0.012-0.618,0.008-0.983-0.178c-0.357-0.186-0.641-0.573-0.753-0.911C118.371,129.107,118.396,128.611,118.396,128.611z"/>
	<path d="M129.223,121.753c-0.821,1.319-1.347,3.187-0.959,5.08c0.33,1.899,1.334,3.747,2.31,5.406
		c2.008,3.307,2.607,4.891,2.219,4.426c-0.336-0.492-1.574-1.036-3.225-3.554c-1.664-2.5-2.635-4.827-2.945-6.319
		c-0.118-0.746-0.132-0.975-0.041-1.565c0.134-0.571,0.122-1.608,1.061-3.621c0.995-1.989,2.091-2.764,2.593-3.074
		c0.525-0.302,0.612-0.068,0.288,0.422c-0.337,0.486-0.721,1.173-0.942,1.765C129.312,121.284,129.223,121.753,129.223,121.753z"/>
</g>
</svg>
