<?xml version="1.0" encoding="iso-8859-1"?>
<!-- Generator: Adobe Illustrator 23.1.0, SVG Export Plug-In . SVG Version: 6.00 Build 0)  -->
<svg version="1.1" id="_x33_" xmlns="http://www.w3.org/2000/svg" xmlns:xlink="http://www.w3.org/1999/xlink" x="0px" y="0px"
	 viewBox="0 0 512 512" style="enable-background:new 0 0 512 512;" xml:space="preserve">
<g>
	<path style="fill:#34AD37;" d="M66.411,362.417c-14.564-12.85-18.847-23.987-18.847-23.987s-17.99-1.713-29.127-29.984
		C7.3,280.175,8.157,219.35,17.58,190.223C27.004,161.096,98.965,82.281,110.102,72S143.513,43.73,144.37,41.16
		c0.857-2.57,26.557-28.271,39.408-35.981c12.85-7.71,25.701,1.713,28.271,25.701c17.134,8.567,43.691,11.137,47.974,7.71
		c4.283-3.427,13.707-17.134,22.274-17.99c8.567-0.857,17.134,5.997,17.134,17.134s1.713,24.844,7.71,29.127
		s36.837,28.271,43.691,36.838c6.854,8.567,10.28,15.42-18.847,11.994c-29.127-3.427-40.264-5.14-56.541-4.284
		c-16.277,0.857-20.561,31.697-18.847,56.541c1.713,24.844,11.137,76.245,18.847,93.379c7.71,17.134,16.277,32.554,11.994,53.115
		c-0.857,6.854,0.857,10.28,0.857,10.28s8.008,21.913,0,47.118c-5.838,18.373-19.704,25.701-28.271,33.411
		c-14.852,13.367-19.704,12.85-18.847,26.557c0.857,13.707,10.28,19.704,29.127,23.13c18.847,3.427,31.697,8.567,23.987,9.424
		c-7.71,0.857-28.271,0.857-28.271,0s29.984,11.137,28.271,18.847c-1.713,7.71-27.414-7.71-41.978-9.424
		c11.994,11.137,5.14,17.99,5.14,17.99c-15.42-8.567-13.707-8.567-31.697-17.99c-17.99-9.423-23.131-10.28-22.274-21.417
		s8.567-42.834,11.994-59.968c3.427-17.134-1.713-27.414-7.71-32.554c-5.997-5.14-26.557-4.283-23.987-3.427
		c2.57,0.857-0.857,19.704-12.85,34.267c-11.994,14.564-29.127,23.131-35.124,43.691c-5.997,20.56-11.994,23.987,1.713,29.984
		c13.707,5.997,28.271,7.71,35.981,11.994c7.71,4.283-1.713,5.997-17.134,1.713c-15.42-4.284,10.28,2.57,20.561,11.993
		c0,0,10.28,11.137,0.857,8.567c-9.423-2.57-31.697-9.423-31.697-9.423s15.42,11.994,22.274,15.42s-5.14,4.283-20.561-2.57
		c-15.42-6.853-13.707-8.567-29.984-14.564c-16.277-5.997-24.844-11.137-23.987-26.557c0.857-15.42,5.14-29.984,8.567-41.121
		c3.427-11.137,9.424-26.557,1.713-35.981C96.395,374.41,66.411,362.417,66.411,362.417z"/>
	<path style="fill:#FFFFFF;" d="M170.07,113.121c-10.28,4.283-1.713,21.417,6.854,34.267c8.567,12.85-26.557,61.681-33.411,86.525
		c-6.854,24.844,20.561,45.404,28.271,49.688c7.71,4.284,12.85,12.85,20.561,20.561s4.283,18.847,13.707,25.701
		c9.423,6.853,11.137,16.277,28.271-2.57s40.264-30.841,37.694-78.815c-2.57-47.974-11.994-68.535,3.427-84.812
		c15.42-16.277,39.408-22.274,39.408-22.274s-31.697-1.713-65.108-7.71c-33.411-5.997-64.251-17.99-64.251-17.99L170.07,113.121z"/>
	<path style="fill:#ED7342;" d="M196.627,118.261c-13.707-5.14-38.551-7.71-24.844-11.994c13.707-4.283,46.261-4.283,61.681-4.283
		s52.258,5.14,58.255,9.424c5.997,4.284,27.414,18.847,28.271,23.987c0.857,5.14-19.704,4.283-35.981,3.427
		C267.732,137.965,196.627,118.261,196.627,118.261z"/>
	<path style="fill:#FFFFFF;" d="M321.703,173.946c0,5.997,3.427,70.248,51.401,89.952c-20.56,5.997-23.13,39.408-14.564,49.688
		c8.567,10.28,29.984,11.994,41.978,6.853c-2.57,15.42,12.85,26.557,33.411,33.411c20.56,6.854,35.981,1.713,49.688-17.134
		c13.707-18.847-2.57-35.124-2.57-35.124s12.85-0.857,17.134-23.987c4.283-23.13-8.567-35.981-29.127-35.124
		c0-11.137-8.567-31.697-23.987-32.554c-15.42-0.857-46.261,2.57-48.831,10.28c-2.57,7.71-10.28,18.847-7.71,18.847
		c2.57,0-25.701-11.137-39.408-27.414C335.41,195.363,321.703,173.946,321.703,173.946z"/>
	<path d="M138.486,38.325c-2.242,2.186-7.026,10.827-0.149,9.432c3.8-0.771,7.254-4.76,9.836-7.357
		c3.572-3.593,6.829-7.476,10.101-11.34c8.707-10.282,30.597-35.449,45.116-19.659c6.073,6.605,6.41,17.161,6.536,25.611
		c0.032,2.171-0.405,8.057,2.36,9.182c3.81,1.551,4.774-5.72,4.946-7.954c1.175-15.281-8.692-38.158-26.925-36.112
		c-10.601,1.189-19.642,9.152-27.438,15.822C154.489,23.122,146.437,30.684,138.486,38.325z"/>
	<path d="M113.43,57.824c1.948,7.057,6.767,12.495,0.516,18.69c-3.761,3.727-8.559,6.446-12.645,9.811
		c-4.674,3.849-9.108,7.994-13.374,12.288c-15.476,15.576-30.62,32.495-43.444,50.31c-14.374,19.969-25.824,43.129-29.693,67.617
		c-3.438,21.764-1.067,45.227,2.437,66.908c1.981,12.259,4.789,25.338,10.967,36.247c2.808,4.957,6.671,9.439,11.59,12.398
		c3.967,2.387,7.891,2.737,12.311,3.474c3.14,0.523,3.685,2.102,0.461,4.022c-4.623,2.754-10.45,0.989-14.452-1.957
		c-9.765-7.188-15.666-19.306-19.459-30.495c-7.001-20.653-9.046-43.89-9.439-65.526c-0.494-27.235,5.907-52.654,19.086-76.495
		c12.894-23.325,29.83-44.907,48.149-64.2c6.294-6.629,12.433-13.404,18.735-20.025c3.379-3.55,6.832-6.895,9.61-10.967
		C107.451,66.016,109.404,60.554,113.43,57.824z"/>
	<path d="M224.017,31.879c8.914,3.172,18.545,4.268,27.839,5.776c1.138,0.185,18.769,3.524,18.425,4.329
		c-0.123,0.289-3.288,0.852-3.642,0.936c-3.369,0.803-6.686,0.837-10.126,0.513c-7.001-0.66-15.13-0.716-21.913-2.589
		c-5.632-1.555-12.016-3.02-17.18-5.706c-0.955-0.496-5.332-2.815-3.338-3.972c0.849-0.493,4.251,0.532,5.263,0.601
		C220.898,31.873,222.461,31.902,224.017,31.879z"/>
	<path d="M259.986,36.854c5.175-6.605,8.462-12.656,17.029-15.508c6.19-2.061,15.303-2.465,20.063,2.891
		c5.081,5.717,4.65,15.782,5.591,22.897c0.268,2.023,1.901,7.209,0.446,9.134c-1.701,2.251-4.875,0.828-5.569-1.231
		c-0.82-2.435,0.513-6.81,0.654-9.324c0.216-3.857,0.315-7.75-0.585-11.531c-1.374-5.776-3.748-9.37-9.849-9.862
		c-7.591-0.612-15.275,3.23-19.353,9.652c-1.074,1.692-2.095,6.774-4.012,7.502C262.004,42.384,258.349,39.326,259.986,36.854z"/>
	<path d="M316.469,70.057c12.999,12.931,30.893,22.011,41.339,37.451c7.019,10.374-8.435,11.837-15.491,12.07
		c-10.793,0.356-21.672-0.718-32.371-2.037c-38.82-4.787-78.181-19.303-117.66-14.092c-7.756,1.024-15.098,3.116-22.524,5.48
		c-1.768,0.563-15.695,5.602-12.156-1.077c1.202-2.267,6.166-3.605,8.251-4.272c4.316-1.38,8.707-2.402,13.158-3.224
		c10.235-1.891,20.704-2.273,31.088-1.805c41.864,1.888,82.306,15.564,124.292,16.235c5.369,0.086,11.037,0.175,16.301-1.049
		c3.43-0.797,4.205-1.468,2.144-4.117c-6.584-8.461-15.791-15.216-24.229-21.696c-6.627-5.09-14.041-9.867-20.035-15.723
		c-1.418-1.385-5.999-5.906-3.729-8.144C307.383,61.551,314.939,68.543,316.469,70.057z"/>
	<path d="M164.22,104.656c1.719,5.628,4.886,9.567,10.643,10.918c4.072,0.956,8.197,2.106,12.275,3.206
		c12.397,3.346,24.951,5.781,37.415,8.8c15.117,3.662,30.217,6.953,45.614,9.22c15.251,2.245,31.991,6.215,47.462,4.581
		c1.505-0.159,3.146-0.32,4.497-1.028c4.437-2.327,1.627-6.14-1.117-8.464c-4.591-3.888-10.19-6.867-15.34-9.951
		c-0.918-0.55-6.205-4.182-7.359-3.316c-1.698,1.274,1.874,4.033,2.949,4.84c4.985,3.744,10.843,6.232,15.939,9.827
		c1.303,0.919,4.282,2.546,2.859,4.257c-1.295,1.556-6.722,0.921-8.496,0.913c-8.419-0.035-16.85-1.007-25.199-2.014
		c-16.242-1.958-32.411-4.261-48.34-8.045C212.866,122.424,188.677,112.91,164.22,104.656z"/>
	<path d="M148.111,198.937c-1.963,8.147-3.998,16.583-3.257,25.016c0.772,8.782,1.812,17.714,3.913,26.284
		c1.952,7.964,5.051,15.673,9.808,22.387c2.37,3.344,5.098,6.355,8.039,9.202c0.448,0.434,5.687,5.403,5.579,5.474
		c-1.231,0.806-9.594-4.976-10.835-5.868c-4.349-3.125-7.869-7.139-10.618-11.723c-6.72-11.206-8.976-24.12-11.103-36.813
		c-1.375-8.206-1.001-15.46,0.485-23.611c0.42-2.305,7.778-32.668,8.843-31.994c1.676,1.061-0.17,11.199-0.293,13.085
		C148.485,193.23,148.298,196.083,148.111,198.937z"/>
	<path d="M96.858,214.682c-0.763,27.534,7.501,57.197,24.262,79.267c4.096,5.394,9.02,10.202,14.818,13.746
		c6.398,3.911,13.642,5.633,20.625,8.149c6.385,2.301,12.054,5.554,15.827,11.354c2.326,3.576,5.821,10.538,5.025,15.062
		c0.246-1.397-2.154-5.354-2.854-6.691c-1.606-3.067-3.607-5.992-6.121-8.391c-4.732-4.514-10.849-6.214-16.986-7.899
		c-15.779-4.332-27.833-11.993-37.377-25.457c-7.344-10.361-14.537-23.205-17.691-35.613c-2.968-11.68-5.11-24.837-5.294-36.886
		c-0.047-3.061,0.546-41.647,0.384-41.632C96.286,179.911,96.554,210.616,96.858,214.682z"/>
	<path d="M52.347,342.223c-0.206,6.376,7.344,10.947,11.856,14.016c5.116,3.48,10.612,6.087,15.839,9.353
		c10.395,6.495,22.957,12.339,27.716,24.465c3.674,9.361,3.06,20.858-2.171,29.505c-1.713,2.832-3.004,5.653-4.034,8.834
		c-0.732,2.262-1.305,4.572-2.088,6.82c-0.828,2.379-3.358,4.793-3.759,7.035c-0.161,0.902,0.497,1.84,0.308,2.851
		c-0.192,1.023-0.949,1.968-1.343,2.912c-1.285,3.081-1.228,6.118-0.889,9.415c0.677,6.583,3.75,13.897,8.575,18.625
		c1.267,1.241,3.902,2.924,4.57,4.759c1.352,3.711-2.179,2.71-4.16,1.341c-2.846-1.967-6.285-4.802-8.45-7.52
		c-2.996-3.762-3.047-7.772-4.016-12.23c-1.646-7.577-3.361-13.349,0.114-20.874c2.294-4.968,4.918-9.458,6.728-14.639
		c2.431-6.961,5.234-14.111,6.3-21.425c0.936-6.422-2.154-12.643-4.614-18.461c-1.129-2.67-2.494-3.951-5.364-4.941
		c-3.333-1.15-4.926-1.973-7.436-4.652c-5.447-5.815-13.081-4.165-19.367-8.535c-5.497-3.822-13.874-2.626-18.361-8.49
		c-2.543-3.323-3.932-8.017-2.633-12.095C46.159,346.753,52.612,338.293,52.347,342.223z"/>
	<path d="M113.088,488.614c2.386,1.022,5.047,0.841,7.479,1.76c2.451,0.926,3.409,2.288,5.04,4.208
		c2.529,2.978,6.356,5.19,10.374,5.047c-1.155-1.911-2.128-4.077-3.731-5.625c-1.533-1.481-3.638-1.837-5.309-3.005
		c-1.628-1.138-2.503-2.906-4.323-3.863c-2.502-1.316-5.056-1.183-7.72-1.612c-1.656-0.266-4.827-2.9-5.535-0.889
		C108.756,486.36,112.091,488.222,113.088,488.614z"/>
	<path d="M138.947,496.813c1.946,3.239-0.517,4.911,3.099,7.495c2.18,1.558,4.533,2.783,6.951,3.902
		c1.556,0.72,5.526,3.761,6.904,3.79c1.796,0.038,1.615-1.72,0.495-3.24c-2.437-3.306-8.358-3.739-11.407-6.451
		C142.947,500.493,141.066,498.58,138.947,496.813z"/>
	<path d="M179.329,368.493c2.59-8.547,2.518-17.625-0.843-25.944c-1.28-3.168-2.971-6.18-4.842-9.034
		c-1.522-2.321-5.622-5.969-6.089-8.66c-0.554-3.19,2.814-0.53,4.393,0.62c2.744,1.999,5.129,4.571,7.085,7.333
		c4.993,7.048,7.722,16.002,7.459,24.628c-0.581,19.082-13.282,33.495-24.94,47.316c-6.243,7.401-12.484,14.824-18.056,22.751
		c-4.53,6.445-10.03,14.242-9.777,22.488c0.315,10.267,11.87,14.139,20.003,16.966c2.012,0.699,24.588,7.542,23.742,9.919
		c0.018-0.049-30.049-7.727-32.967-8.73c-6.147-2.114-12.462-5.453-15.292-11.65c-3.12-6.832-1.106-14.983,1.998-21.427
		c6.381-13.247,16.947-24.74,26.521-35.739C165.931,389.9,175.188,380.575,179.329,368.493z"/>
	<path d="M297.331,153.029c1.864-0.734,17.707-6.064,16.363-9.201c-1.126-2.628-14.254,1.84-15.953,2.401
		c-15.645,5.165-28.405,15.686-31.632,32.492c-3.061,15.944,2.853,30.943,4.863,46.601c2.293,17.86,1.083,36.097-5.155,53.078
		c-5.397,14.693-14.192,27.727-24.896,39.072c-4.797,5.084-11.067,9.621-14.96,15.46c-1.789,2.684-1.05,3.296,1.609,2.411
		c2.886-0.96,5.698-3.333,8.037-5.173c23.807-18.732,37.808-51.047,39.412-80.882c0.501-9.324-0.217-18.623-1.589-27.847
		c-1.362-9.16-4.302-18.611-4.347-27.897C268.989,173.843,279.355,160.126,297.331,153.029z"/>
	<path d="M144.531,475.593c2.999,2.287,8.229,2.617,11.741,3.79c4.739,1.583,9.064,4.151,13.516,6.381
		c3.698,1.852,7.413,3.626,11.596,4c1.58,0.141,5.833,0.878,3.413,3.714c-1.726,2.023-10.007-3.005-11.676-3.74
		c-4.717-2.075-9.415-4.406-14.222-6.253c-4.196-1.612-8.656-2.241-13.02-3.225c-1.152-0.26-3.88-0.504-4.351-1.807
		C141.059,477.159,143.203,474.598,144.531,475.593z"/>
	<path d="M136.307,482.72c8.135,3.567,14.804,8.845,22.244,13.6c3.118,1.993,6.368,3.879,10.147,4.157
		c1.397,0.103,4.061-0.72,5.052,0.607c0.883,1.182,0.057,2.733-0.92,3.167c-2.806,1.245-8.388-2.273-10.879-3.497
		c-4.328-2.126-8.367-4.613-12.431-7.2c-3.587-2.283-7.305-4.735-11.393-6.027c-1.209-0.382-3.528-0.377-4.191-1.482
		C133.193,484.808,134.677,481.868,136.307,482.72z"/>
	<path d="M212.903,380.327c-0.449-7.605-1.042-17.584-9.601-20.218c-4.243-1.305-8.899-1.214-13.276-1.714
		c-1.78-0.203-6.862-0.148-8.208-1.607c-1.982-2.15,2.869-1.961,4.634-2.112c4.583-0.394,9.324-0.482,13.894,0.116
		c9.646,1.263,14.591,7.043,16.332,16.371c3.698,19.813-3.554,37.516-9.221,56.072c-2.772,9.076-4.333,19.492-0.247,28.434
		c3.301,7.223,9.77,11.661,16.828,14.764c4.428,1.947,41.091,24.846,39.247,27.242c0.131-0.171-27.464-15.922-30.361-17.425
		c-10.459-5.424-22.827-8.642-29.418-19.204c-8.177-13.105-4.107-28.886,0.708-42.365
		C208.649,406.257,213.196,393.692,212.903,380.327z"/>
	<path d="M252.557,459.636c2.995,2.288,8.231,2.617,11.74,3.789c4.739,1.583,9.064,4.151,13.516,6.381
		c3.698,1.852,7.413,3.626,11.596,4c1.58,0.141,5.832,0.878,3.413,3.714c-1.726,2.024-10.007-3.005-11.677-3.739
		c-4.717-2.075-9.414-4.406-14.221-6.254c-4.196-1.613-8.656-2.24-13.021-3.224c-1.151-0.26-3.88-0.505-4.351-1.807
		C249.084,461.2,251.229,458.64,252.557,459.636z"/>
	<path d="M244.332,466.762c8.126,3.587,14.802,8.843,22.244,13.6c3.118,1.993,6.368,3.88,10.148,4.158
		c1.398,0.102,4.06-0.721,5.051,0.606c0.883,1.182,0.057,2.733-0.92,3.167c-2.806,1.245-8.388-2.273-10.879-3.496
		c-4.328-2.125-8.367-4.614-12.431-7.2c-3.587-2.283-7.305-4.736-11.392-6.028c-1.209-0.382-3.528-0.375-4.192-1.482
		C241.218,468.85,242.702,465.909,244.332,466.762z"/>
	<path d="M185.081,292.19c6.511,6.253,11.683,13.696,15.198,22.015c1.728,4.09,3.214,8.466,3.265,12.954
		c0.005,0.449-1.421,8.596-2.352,7.667c-0.161-0.16,0.133-4.584,0.037-5.228c-0.375-2.495-1.089-5.008-1.826-7.412
		c-1.689-5.507-4.292-10.648-7.618-15.34c-2.296-3.239-4.168-6.634-6.934-9.533c-0.622-0.652-9.922-8.603-9.253-9.26
		C176.729,286.944,183.811,291.442,185.081,292.19z"/>
	<path d="M189.111,313.132c-3.365-3.045-4.643,1.938-3.217,4.351c1.607,2.721,4.736,4.529,6.559,7.167
		c2.1,3.039,3.085,6.668,3.571,10.293c0.286,2.139,0.359,4.299,0.284,6.454c-0.052,1.504-0.772,3.896-0.2,5.339
		c0.168-0.528,0.653-0.971,0.872-1.481c0.123,0.386,0.709,0.871,0.616,1.295c0.099-0.32,0.291-0.615,0.38-0.935
		c-1.032,0.231-1.412,1.133-1.126,2.154c0.004-0.026,0.009-0.051,0.014-0.077c-0.548,1.537,1.661,1.294,2.463,0.752
		c2.912-1.968,0.968-7.016,0.426-9.424C197.733,330.035,196.276,319.87,189.111,313.132z"/>
	<path d="M183.526,319.128c-2.471-3.292-5.164,0.984-3.958,3.689c1.302,2.921,4.389,4.969,5.955,7.797
		c1.984,3.583,2.475,7.92,2.135,11.954c-0.132,1.571-0.411,3.133-0.84,4.65c-0.317,1.121-1.913,3.645-1.642,4.8
		c0.751,3.198,3.866,2.191,5.043-0.002c1.503-2.803,0.591-7.836,0.642-10.973C190.981,333.585,187.884,325.13,183.526,319.128z"/>
	<path d="M284.818,313.789c-1.083-2.024-8.804-15.027-12.243-13.095c-2.389,1.341,5.786,14.232,6.831,16.297
		c6.374,12.603,10.628,26.986,9.159,41.219c-1.612,15.628-9.818,28.695-21.95,38.341c-11.407,9.069-27.186,18.296-27.713,34.674
		c-0.46,14.299,19.705,22.243,30.971,25.192c6.456,1.69,13.93,3.09,20.529,1.326c8.257-2.207-0.094-3.691-3.639-4.13
		c-13.457-1.668-30.301-4.414-40.44-14.284c-12.211-11.888,5.581-27.418,14.584-34.448c13.656-10.664,25.25-21.867,30.354-38.969
		C296.495,348.377,293.189,329.783,284.818,313.789z"/>
	<path d="M281.024,267.029c2.279,8.776,6.878,16.688,9.019,25.456c1.134,4.645,1.529,9.49,0.663,14.215
		c-0.103,0.563-2.846,9.759-3.92,8.961c-0.305-0.227,0.227-5.737,0.223-6.243c-0.019-2.837,0.021-5.689-0.181-8.521
		c-0.443-6.199-2.688-11.465-5.423-16.931c-1.502-3.002-8.523-25.819-6.459-26.137C276.399,257.604,280.211,265.681,281.024,267.029
		z"/>
	<path d="M183.002,48.524c6.066,0.714,15.571,0.486,20.682,4.491c4.708,3.689,0.918,7.014-3.659,6.988
		c-6.38-0.036-13.216-1.915-19.354-3.555C172.569,54.284,175.678,47.662,183.002,48.524z"/>
	<path d="M273.921,59.473c5.102,0.6,13.759,0.309,17.924,4.016c3.873,3.447,0.246,5.811-3.448,5.799
		c-5.364-0.018-11.343-1.583-16.469-3.041C265.285,64.358,267.473,58.715,273.921,59.473z"/>
	<path d="M257.695,97.235c-3.21-0.637-7.721-6.811-2.18-6.784C259.915,90.472,263.95,98.477,257.695,97.235z"/>
	<path d="M279.401,99.556c-4.652-0.931,0.283-7.012,3.57-5.712C286.534,95.253,281.765,100.03,279.401,99.556z"/>
	<path d="M146.839,98.627c-5.565,2.902-13.366,10.17-12.69,17.308c0.762,8.043,14.27,6.754,20.02,7.353
		c3.6,0.375,7.162,1.022,10.728,1.63c1.492,0.254,9.952,2.726,10.958,1.099c2.412-3.904-15.324-5.581-17.223-5.602
		c-5.121-0.056-20.096,2.071-22.404-3.623c-2.767-6.828,7.489-14.818,12.499-17.252c8.057-3.914,17.258-5.43,26.027-6.847
		c2.205-0.356,16.095-0.758,17.084-3.833c0.745-2.317-14.91,1.159-16.812,1.542C165.544,92.313,155.41,93.902,146.839,98.627z"/>
	<path d="M324.346,178.719c-0.149-1.607-0.511-9.187-3.223-9.189c-2.713-0.002-2.973,5.72-3.051,7.629
		c-0.375,9.173,2.336,18.14,5.576,26.598c6.307,16.467,14.448,32.78,26.119,46.12c4.87,5.566,10.484,10.434,16.731,14.39
		c1.996,1.264,6.412,4.244,9.048,3.21c2.29-0.898,0.925-2.496-0.35-3.801c-4.171-4.272-10.435-7.142-15.284-10.557
		c-6.891-4.853-12.304-10.496-16.952-17.533C331.64,218.45,325.186,199.312,324.346,178.719z"/>
	<path d="M334.238,196.1c-3.582-5.034-7.038-10.644-7.917-16.875c-0.337-2.386,1.1-13.272,3.287-5.861
		c1.926,6.524,3.165,12.02,6.961,17.827c3.691,5.645,7.697,11.205,12.195,16.234c8.646,9.669,19.08,16.616,30.405,22.78
		c1.768,0.962,19.479,8.792,19.09,10.581c-0.365,1.681-30.45-10.59-33.557-12.417C351.293,220.485,342.35,209.056,334.238,196.1z"/>
	<path d="M400.67,221.863c4.179-5.039,12.197-6.441,18.251-7.782c6.595-1.461,13.496-3.073,20.29-2.385
		c5.665,0.574,12.116,2.551,15.952,6.988c1.638,1.895,2.779,4.146,3.615,6.496c0.486,1.367,0.577,4.537,1.483,5.651
		c-0.035-0.043,0.055-0.468,0.1-0.51c-0.053,0.049,1.56,6.661,1.685,7.237c0.485,2.245,0.95,4.616,2.025,6.661
		c1.083-2.545,3.089-5.865,3.304-8.602c0.348-4.43-2.927-11.006-5.24-14.607c-5.522-8.6-13.731-13.225-23.941-13.795
		c-10.336-0.577-21.492-0.337-30.83,4.568c-4.821,2.532-10.984,6.648-12.133,12.447c-0.23,1.159-0.425,4.517,1.503,4.108
		C397.64,228.144,399.97,222.707,400.67,221.863z"/>
	<path d="M362.226,285.219c1.595-1.997,4.922-6.17,0.571-6.829c-3.641-0.551-6.713,4.18-7.872,6.895
		c-2.977,6.971-1.439,15.585,0.987,22.488c5.497,15.645,24.84,23.036,40.27,18.686c2.114-0.596,7.193-2.782,4.377-5.37
		c-1.648-1.514-6.394,0.009-8.347,0.356c-7.324,1.3-13.961,2.528-20.892-0.853c-4.965-2.421-9.706-6.485-11.678-11.789
		C357.087,301.935,357.683,291.181,362.226,285.219z"/>
	<path d="M419.058,341.892c-1.5-1.337-6.492-6.706-8.747-5.263c-2.126,1.361,1.461,6.413,2.381,7.585
		c5.644,7.182,14.983,10.906,23.778,12.212c17.814,2.646,38.626-1.793,48.7-17.959c4.838-7.763,6.906-17.532,4.006-26.383
		c-1.283-3.915-3.509-8.02-6.906-10.48c-1.972-1.428-5.733-3.179-5.033,0.59c0.538,2.895,3.917,6.007,5.29,8.694
		c1.94,3.798,3.106,7.931,3.28,12.204c0.357,8.783-4.294,16.791-10.946,22.251C459.176,358.218,433.625,354.991,419.058,341.892z"/>
	<path d="M482.083,242.596c-2.03-0.428-6.99,0.098-5.755,3.416c0.813,2.184,4.714,2.761,6.616,3.363
		c6.116,1.934,12.185,4.336,15.001,10.57c2.877,6.37,1.94,14.056-0.821,20.288c-1.206,2.722-2.787,5.237-4.639,7.562
		c-1.135,1.425-4.609,4.263-3.972,6.459c1.676,5.781,8.924-3.528,9.975-5.705c2.375-4.922,3.775-11.368,4.235-16.821
		C503.834,258.566,495.279,245.396,482.083,242.596z"/>
	<path d="M122.287,190.414c-3.297,2.803-9.836,6.577-11.662,10.718c-1.336,3.028,1.056,2.182,3.109,3.255
		c3.406,1.781,1.789,5.352,3.944,7.88c1.458,1.71,3.26,0.954,5.154,1.66c1.595,0.595,2.425,1.739,3.518,2.941
		c2.801,3.081,4.008,2.202,6.688-1.084c2.95-3.618,7.332-7.747,8.269-12.515C143.604,191.567,132.257,181.939,122.287,190.414z"/>
	<path d="M124.867,233.845c-2.446,3.114-5.854,7.555-6.071,11.707c-0.262,5.018,3.779,3.098,6.79,5.014
		c0.985,0.627,1.193,1.673,1.999,2.376c1.432,1.247,2.4,0.865,4.222,1.114c1.522,0.208,1.991,0.56,3.273,1.213
		c0.565,0.287,0.864,1.346,1.621,1.268c2-0.207,4.575-7.569,5.147-9.238c0.952-2.777,0.45-5.25-0.124-8.09
		C140.306,232.184,130.083,227.207,124.867,233.845z"/>
	<path d="M89.284,99.182c2.311,3.466,4.566,8.015,2.625,12.14c-1.333,2.833-3.283,5.218-4.616,8.168
		c-2.011,4.452-5.033,4.949-8.893,7.265c-2.312,1.387-5.844,6.356-8.69,6.264c-3.472-0.112-3.261-7.338-3.186-9.776
		c0.129-4.199,1.944-7.407,4.433-10.672C75.451,106.675,80.947,98.926,89.284,99.182z"/>
	<path d="M48.263,152.307c1.983,1.983,6.939,4.442,8.031,7.124c0.924,2.27-1.365,4.869-1.654,7.195
		c-0.369,2.969,0.419,5.534-3.076,6.448c-1.837,0.481-3.923,0.281-5.823,0.724c-1.444,0.337-3.352,1.27-4.876,1.082
		c-3.239-0.401-3.175-3.918-5.218-5.918c-1.456-1.425-4.607-2.15-4.969-4.399c-0.499-3.102,4.597-7.953,6.527-9.965
		C40.162,151.517,44.525,148.569,48.263,152.307z"/>
	<path d="M46.246,191.311c0.973,4.381,1.393,8.478,0.954,12.941c-0.276,2.812,0.468,9.519-1.492,11.822
		c-2.124,2.497-5.455-0.586-8.033-0.846c-1.718-0.173-1.701,0.669-2.532-0.719c-0.593-0.99-0.189-3.745-0.249-4.854
		c-0.126-2.311-0.259-4.641-0.997-6.856c-0.616-1.849-3.51-4.4-3.656-6.135c-0.208-2.472,4.735-4.781,6.464-5.818
		C39.493,189.175,45.127,186.274,46.246,191.311z"/>
	<path d="M13.295,230.986c5.074-1.088,11.759-3.85,15.544,1.136c2.223,2.928,1.693,5.187,0.625,8.35
		c-0.931,2.755-0.148,3.935-0.184,6.605c-0.023,1.767-1.054,3.43-1.499,5.144c-0.754,2.901-0.78,5.834-0.836,8.809
		c-0.055,2.925,0.338,11.096-4.236,6.268c-5.48,6.202-9.06-4.572-9.907-8.554C10.959,250.075,10.003,239.504,13.295,230.986z"/>
	<path d="M33.469,290.163c3.146,2.359,6.782,8.472,1.516,10.199c-3.097,1.016-7.41,1.299-10.568,0.692
		C13.639,298.983,25.532,284.212,33.469,290.163z"/>
	<path d="M141.064,317.062c-2.849,0.619-25.303,7.212-22.631,12.882c0.667,1.415,4.924,1.27,6.293,1.518
		c3.006,0.545,6.019,1.116,9.058,1.446c4.454,0.483,8.131,0.116,12.296-1.432c2.388-0.888,0.874-0.672,2.649,0.075
		c1.6,0.672,2.34,1.845,4.34,1.75c4.108-0.195,10.187-7.001,7.078-10.885C155.848,317.043,147.243,316.736,141.064,317.062z"/>
	<path d="M139.719,354.72c5.773-3.299,10.355-9.017,16.702-11.242c4.16-1.458,12.519-3.071,15.846,1.075
		c6.304,7.855-4.792,14.828-10.23,18.994c-4.43,3.394-11.638,3.164-17.015,4.499c-2.569,0.638-6.601,2.621-8.665,0.124
		C133.919,365.221,136.692,356.45,139.719,354.72z"/>
	<path d="M269.505,312.355c-5.197,3.897-13.722,7.67-16.696,13.733c-3.498,7.129,11.375,5.166,15.068,4.139
		c3.446-0.958,6.924-1.926,10.252-3.248c4.105-1.631,3.896-2.244,4.715-6.434c0.668-3.419,0.931-4.015-1.628-6.642
		C277.924,310.524,273.542,309.327,269.505,312.355z"/>
	<path d="M256.056,345.978c7.218-4.812,17.103-9,25.817-5.716c5.831,2.198,8.166,7.804,1.691,10.024
		c-5.567,1.909-11.128,3.849-16.737,5.63c-2.883,0.915-5.062,1.246-8.002-0.159C255.478,354.158,251.54,348.989,256.056,345.978z"/>
</g>
</svg>
