<?xml version="1.0" encoding="iso-8859-1"?>
<!-- Generator: Adobe Illustrator 22.1.0, SVG Export Plug-In . SVG Version: 6.00 Build 0)  -->
<svg version="1.1" id="_x32_" xmlns="http://www.w3.org/2000/svg" xmlns:xlink="http://www.w3.org/1999/xlink" x="0px" y="0px"
	 viewBox="0 0 512 512" style="enable-background:new 0 0 512 512;" xml:space="preserve">
<g>
	<path style="fill:#94C85C;" d="M112.27,279.766c2.348-5.951,11.553-12.597,11.659-13.405c0.106-0.808-0.141-23.285-0.141-23.285
		s-9.482,2.585-14.824-5.709c-5.342-8.293,4.472-17.977,9.874-23.287c5.402-5.31,16.223-7.809,16.223-7.809
		s9.374-23.848,67.218-33.791c57.844-9.942,73.693-4.481,84.482-2.213c10.788,2.267,42.2,11.917,53.857,17.869
		c11.657,5.952,16.579,22.508,17.866,29.693c1.287,7.185,1.91,11.612-2.306,18.145c-4.216,6.533-3.646,18.224,2.306,21.519
		c5.952,3.294,4.724,3.457,14.72,3.377c9.996-0.08,48.996-0.662,48.996-0.662s7.568-3.394,14.428-0.708
		c6.861,2.686,16.635,10.668,22.792,11.312c6.157,0.644,7.004,2.567,6.157,3.999c-0.847,1.432-11.467,2.669-11.467,2.669
		s4.686,4.258,9.371,4.791c4.686,0.532,17.793,3.143,17.793,3.143s12.059-0.384,19.869,5.143c7.81,5.527,9.82,10.677,7.633,10.677
		c-2.187,0-9.996-1.483-9.996-1.483s16.327,6.461,12.693,12.25c-5.915,0-10.803-5.391-14.56-5.424
		c-3.756-0.033,10.357,6.797,6.424,10.099c-3.933,3.301-24.237-7.547-33.608-9.308s-40.609-4.971-53.104-3.01
		s-30.566,10.049-42.694,13.27c-12.128,3.22-34.229,8.091-52.62,6.938c-18.391-1.153-28.387-9.275-28.387-9.275
		s-12.25,0.562-25.682-1.485c-1.25,2.639-17.521,21.655-29.283,23.899c-8.302,1.584-16.881,2.448-21.879,6.416
		c-4.998,3.969,0.904-7.919,6.7-10.097c-4.201,1.258-15.759,8.755-20.757,12.191c-4.998,3.436-4.167-3.821,5.726-11.438
		c-6.975,1.754-11.393,5.547-8.716,0.683c2.677-4.864,17.014-11.896,23.747-15.408c6.732-3.513,7.409-8.052,7.409-8.052
		l-16.464-1.704c0,0-24.745-7.339-29.977-7.563c-5.232-0.224-5.232-0.224-5.232-0.224s-9.764,11.254-18.222,15.117
		c-8.458,3.863-20.703,8.184-25.914,6.932c-5.211-1.252-2.327-21.864-2.327-21.864s-45.733,2.541-51.415,3.882
		c-5.682,1.342-6.629,7.462-11.837,12.333c-5.208,4.87-9.015,4.969-10.89,4.969s1.184-10.676,1.184-10.676
		s-16.286-0.022-28.739,3.976c-12.453,3.998-17.125,5.62-13.487,1.732s9.15-8.496,13.487-9.981s-14.777,3.639-21.686,4.274
		c-6.909,0.635-5.873-1.829-1.291-4.279c4.582-2.45,9.49-5.574,9.49-5.574s-2.991-0.308-7.725,0
		c-4.735,0.308,4.067-5.264,7.725-7.193c3.658-1.929,15.948-5.2,24.708-4.886s18.563-2.109,18.563-2.109l47.023-7.113
		L112.27,279.766z"/>
	<path style="fill:#FFFFFF;" d="M174.693,306.035c9.052-8.88,7.014-8.69,11.858-19.914c4.844-11.223,4.211-28.643,4.211-35.295
		c0-6.651,6.335,0.002,11.086,5.702c4.751,5.7,17.788,12.552,20.93,11.818c3.141-0.734,15.792,13.321,16.118,22.922
		c0.326,9.601-3.989,16.596-6.252,20.731c-2.264,4.135-14.648,0.121-18.921-1.704c-4.273-1.825-27.175-7.283-29.977-7.563
		C180.944,302.454,174.693,306.035,174.693,306.035z"/>
	<path style="fill:#FFFFFF;" d="M268.972,277.479c6.991-0.364,23.474,3.596,27.11,6.842c3.636,3.246,14.232,17.966,5.536,24.467
		c-8.695,6.502-33.42,7.937-35.872,7.611c-2.452-0.326,2.569-11.657,3.226-20.244c0.656-8.588-3.38-17.371-3.896-18.522
		S268.972,277.479,268.972,277.479z"/>
	<path style="fill:#231815;" d="M113.125,244.011c-2.252-1.35-4.52-3.249-6.12-5.925c-0.833-1.315-1.391-2.864-1.744-4.482
		c-0.378-1.542-0.169-3.694,0.345-5.232c1.055-3.207,2.868-5.753,4.798-8.098c1.955-2.319,4.125-4.353,6.386-6.055
		c4.529-3.393,8.65-4.619,11.17-4.52c1.238-0.044,2.064,0.406,2.393,0.538c0.341,0.181,0.274,0.274-0.137,0.243
		c-0.842-0.088-2.113,0.239-3.803,1.275c-1.707,0.993-3.917,2.535-6.994,4.921c-6.15,4.784-9.573,10.646-9.848,13.633
		c-0.174,0.77-0.009,1.081-0.116,1.456c-0.012,0.383-0.005,0.819,0.023,1.405c0.077,0.589,0.172,1.398,0.726,2.539
		c0.531,1.127,1.54,2.639,3.566,4.074c4.195,2.732,7.379,2.606,8.849,2.838c1.531,0.146,1.6,0.74-0.03,1.387
		c-1.612,0.563-3.993,0.904-5.974,0.689C114.644,244.514,113.125,244.011,113.125,244.011z"/>
	<path style="fill:#231815;" d="M116.952,274.289c-1.853,2.034-3.11,5.426-2.572,8.587c0.448,3.114,2.931,5.651,5.709,7.015
		c2.787,1.391,5.132,1.633,6.567,1.765c1.447,0.095,2.062,0.23,1.538,0.427c-0.517,0.165-1.155,0.851-2.572,1.394
		c-1.378,0.538-3.669,0.955-6.56-0.165c-2.864-1.115-5.078-2.961-6.565-4.902c-1.487-1.973-2.173-4.06-2.484-5.561
		c-0.306-1.528-0.144-1.994,0.121-3.151c0.396-1.106,0.663-3.114,2.95-6.776c2.46-3.576,4.965-4.598,6.136-4.772
		c1.206-0.19,1.34,0.441,0.58,1.22c-0.788,0.765-1.586,2.024-2.108,3.045C117.191,273.466,116.952,274.289,116.952,274.289z"/>
	<path style="fill:#231815;" d="M134.39,300.435c1.037-12.339-2.801-17.193-4.545,0.937c-0.443,4.612-0.719,9.079-0.914,13.61
		c-0.042,1.134-0.086,2.27-0.13,3.416l-0.058,1.723l-0.012,0.452l0.009,0.645c0.037,0.429,0.104,0.856,0.22,1.273
		c0.464,1.67,1.633,3.105,3.177,3.884c0.77,0.392,1.633,0.619,2.5,0.649c0.969,0.021,1.477-0.134,2.115-0.213
		c4.967-0.751,10.127-2.064,15.465-4.271c5.343-2.175,10.906-5.167,16.471-9.408c2.785-2.113,5.415-4.45,7.789-7.008
		c2.347-2.537,4.638-5.294,6.245-8.36c3.418-6.025,5.348-12.497,6.853-18.623c2.892-12.325,3.504-23.635,3.131-31.987
		c-0.153-4.088-0.962-7.054-1.742-8.617c-0.77-1.575-1.465-1.769-1.857-0.538c-0.197,0.615-0.318,1.584-0.332,2.917
		c-0.116,1.359-0.025,3.068-0.046,5.22c0.053,4.285,0.202,10.259-0.037,18.22c-0.297,8.52-1.512,14.841-3.907,22.192
		c-1.238,3.648-2.773,7.629-5.401,11.794c-0.652,1.041-1.447,2.022-2.205,3.107c-0.902,1.013-1.769,2.133-2.815,3.182
		c-2.01,2.171-4.383,4.362-7.175,6.533c-8.909,6.985-20.119,11.279-30.698,12.177c-1.549,0.193-2.031,0.165-2.757-0.301
		c-0.642-0.448-1.044-1.192-1.064-1.929c-0.016-0.246,0.074-1.113,0.118-1.693c0.053-0.638,0.104-1.273,0.158-1.902
		c0.107-1.259,0.211-2.497,0.313-3.713C133.669,308.941,134.052,304.438,134.39,300.435z"/>
	<path style="fill:#231815;" d="M151.787,188.201c8.501-5.055,19.454-9.642,31.113-13.037c5.869-1.704,11.708-3.193,17.54-4.784
		c5.832-1.549,11.65-2.985,17.297-3.982c11.316-2.036,19.544-1.616,24.219-0.902c4.698,0.756,6.025,1.408,4.341,1.231
		c-1.695-0.153-4.281,0.005-8.478,0.485c-4.202,0.489-9.999,1.231-18.236,2.808c-8.244,1.561-15.551,3.687-21.786,5.494
		c-6.261,1.834-11.395,3.323-15.059,4.654c-3.68,1.331-4.763,1.577-7.708,2.416c-1.475,0.42-3.4,1.018-6.298,2.092
		c-2.876,1.116-6.753,2.685-11.815,5.519c-10.094,5.732-15.129,10.507-17.749,12.432c-2.583,1.99-2.743,1.197-0.603-1.512
		c2.166-2.648,5.264-6.092,8.095-8.601c1.394-1.271,2.688-2.337,3.606-3.121C151.212,188.651,151.787,188.201,151.787,188.201z"/>
	<path style="fill:#231815;" d="M267.801,165.707c-5.259-0.288-8.821,1.09-9.097,2.307c-0.146,0.628,0.505,1.266,2.103,1.762
		c1.6,0.469,4.142,0.874,7.826,1.148c7.497,0.656,14.491,1.148,22.443,2.245c7.928,1.143,16.803,2.938,27.598,6.69
		c5.361,1.902,10.82,3.907,15.852,6.141c4.979,2.259,9.183,5.691,12.323,9.584c6.396,7.824,8.497,16.926,9.15,23.396
		c0.35,3.191,0.761,5.533,1.338,6.88c0.589,1.34,1.352,1.677,2.031,0.714c0.673-0.962,1.34-3.249,1.262-7.073
		c-0.095-3.785-1.004-9.232-4.323-15.507c-1.832-3.307-3.562-6.087-5.577-8.566c-1.994-2.474-4.063-4.823-6.746-6.975
		c-2.655-2.161-5.818-4.295-9.976-5.994c-3.982-1.602-8.629-3.395-14.391-5.313c-9.202-3.059-18.684-5.902-27.642-7.915
		C283.016,167.245,274.605,166.044,267.801,165.707z"/>
	<path style="fill:#231815;" d="M301.069,256.146c-2.602,2.606-4.844,5.055-6.477,7.88c-1.628,2.811-2.616,6.059-2.291,10.048
		c0.239,2.53,0.582,5.77,1.542,9.32c0.946,3.539,2.569,7.377,5.023,10.769c2.426,3.406,5.64,6.34,9.13,8.376
		c3.469,2.076,7.094,3.451,10.382,4.306c3.286,0.876,7.349,1.449,11.63,1.422c4.288-0.065,8.738-0.761,12.796-1.834
		c8.151-2.124,14.769-5.392,17.183-6.477c4.809-2.268,9.271-3.355,9.466-5.157c0.19-1.818-3.805-0.916-6.894,0.61
		c-1.554,0.721-9.466,4.568-17.854,6.966c-4.183,1.21-8.504,1.973-12.014,2.249c-3.52,0.301-6.28,0.095-7.469,0.186
		c-1.185,0.044-3.42-0.174-6.004-0.953c-2.583-0.758-5.503-2.043-8.028-3.733c-2.537-1.686-4.624-3.761-6.057-5.563
		c-1.401-1.83-2.245-3.346-2.695-3.852c-0.837-1.046-2.024-3.124-2.639-5.559c-0.654-2.412-0.997-5.037-1.032-6.89
		c-0.334-3.701,1.016-10.247,2.971-14.032c0.849-1.865,1.677-4.861,2.43-7.479C304.979,253.989,302.527,254.713,301.069,256.146z"/>
	<path style="fill:#231815;" d="M217.179,258.497c2.906,6.307,4.216,10.969,8.858,15.37c2.917,2.848,7.131,7.922,9.181,14.523
		c1.027,3.274,1.589,6.862,1.378,10.296c-0.144,3.444-1.111,6.686-2.481,9.276c-1.366,2.593-3.659,5.364-6.63,7.683
		c-2.947,2.349-6.465,4.311-9.851,6.062c-3.395,1.746-6.651,3.351-9.255,4.821c-2.618,1.442-4.568,2.783-5.577,3.536
		c-2.052,1.447-3.926,2.899-5.234,4.223c-1.306,1.322-1.957,2.551-1.69,3.281c0.675,1.479,3.353-0.944,5.561-2.95
		c0.295-0.243,0.886-0.738,1.704-1.417c0.879-0.619,1.96-1.449,3.337-2.254c2.69-1.679,6.333-3.453,10.101-5.271
		c3.761-1.816,7.618-3.803,10.602-5.885c3.022-2.02,5.014-4.227,5.723-5.231c0.387-0.48,0.907-1.199,1.538-2.085
		c0.675-0.851,1.394-1.92,2.11-3.151c1.419-2.46,2.63-5.633,3.242-8.87c1.308-6.514-0.002-12.893-0.628-14.213
		c-0.615-1.364-1.442-3.794-2.602-6.226c-1.127-2.416-2.507-4.833-3.583-6.423c-2.057-3.253-6.02-8.636-8.562-12.124
		c-1.208-1.725-3.631-3.801-5.79-5.417C216.344,254.34,216.386,256.8,217.179,258.497z"/>
	<path style="fill:#231815;" d="M371.943,259.154c10.264,0.313,24.755-0.264,36.829,0.051c12.07,0.315,16.896,1.519,15.087,1.517
		c-1.816-0.002-5.438,1.187-14.493,1.176c-9.055-0.014-16.298,0.276-20.523,0.568c-4.23,0.294-2.416-0.302-15.092-0.32
		c-3.168-0.005-5.695-0.102-7.648-0.248c-0.487-0.044-0.939-0.083-1.359-0.121l-0.311-0.032l-0.431-0.072
		c-0.253-0.063-0.454-0.141-0.638-0.223c-0.721-0.325-1.19-0.661-1.556-0.939c-1.408-1.141-0.909-1.378,0.763-0.761
		c0.417,0.141,0.881,0.283,1.336,0.357c0.239,0.037,0.41,0.044,0.612,0.012l0.8-0.09c1.074-0.135,2.168-0.271,3.149-0.394
		C370.431,259.362,371.943,259.154,371.943,259.154z"/>
	<path style="fill:#231815;" d="M357.943,236.015c-2.027,3.805-3.372,9.844-2.576,14.317c0.371,2.24,0.96,3.815,1.319,4.809
		c0.355,0.997,0.348,1.473,0.107,1.164c-0.223-0.313-0.853-0.533-1.66-1.208c-0.751-0.686-1.839-1.841-2.319-3.905
		c-0.937-4.102-0.473-7.444-0.353-9.362c0.267-1.89,0.378-1.088,2.43-6.273c2.247-5.102,4.151-5.257,3.701-3.759
		C358.154,233.328,357.943,236.015,357.943,236.015z"/>
	<path style="fill:#231815;" d="M331.725,322.904c16.444-0.1,36.398-3.836,55.393-11.806c2.365-1.048,4.645-2.115,7.182-3.14
		c1.248-0.503,2.479-1.057,3.74-1.521l3.852-1.199l1.929-0.598l1.962-0.441l3.928-0.87c2.637-0.438,5.28-0.842,7.919-1.129
		c10.579-1.025,21.047-0.485,30.842,0.826c19.609,2.773,32.72,7.391,40.343,10.094c7.604,2.848,9.786,4.007,7.015,3.024
		c-2.785-0.96-7.045-2.164-14.176-3.924c-7.133-1.721-17.118-4.186-31.591-6.287c-7.24-1.025-14.178-1.428-20.673-1.463
		c-6.502,0.014-12.548,0.624-18.025,1.561c-5.445,1.081-10.342,2.428-14.47,4.209c-4.1,1.658-7.824,3.636-11.029,4.902
		c-3.193,1.375-5.303,2.108-7.244,2.753c-1.929,0.684-3.729,1.157-6.352,1.885c-1.306,0.387-2.836,0.77-4.712,1.208
		c-1.867,0.466-4.074,1.002-6.776,1.524c-5.382,1.092-12.692,2.507-23.069,3.14c-10.384,0.601-18.712-0.153-25.028-1.238
		c-3.14-0.672-5.827-1.173-8.003-1.918c-2.196-0.645-3.942-1.222-5.236-1.832c-5.234-2.24-4.088-2.319,1.47-0.559
		c5.623,1.621,13.362,2.72,19.665,2.927c3.156,0.088,5.939,0.114,7.94-0.012C330.515,322.948,331.725,322.904,331.725,322.904z"/>
	<path style="fill:#231815;" d="M266.54,272.471c-0.148,3.344,0.083,5.329,0.617,6.931c0.547,1.577,1.245,2.787,1.644,4.209
		c0.39,1.412,1.479,7.103,1.088,13.139c-0.241,6.052-2.031,12.179-2.746,15.022c-0.619,3.091-3.529,9.443-7.843,14.18
		c-4.148,4.888-9.276,8.026-10.347,8.671c-1.113,0.624-3.576,2.222-6.305,3.504c-1.336,0.705-2.766,1.236-3.998,1.793
		c-1.261,0.478-2.349,0.89-3.07,1.164c-2.915,1.146-7.316,1.677-5.345-0.983c1.867-2.576,6.059-3.154,8.374-3.921
		c1.141-0.25,8.45-2.964,14.264-7.928c2.934-2.409,5.484-5.222,7.286-7.567c1.779-2.365,2.864-4.211,3.237-4.578
		c0.32-0.392,1.241-1.969,2.085-4.302c0.842-2.328,1.674-5.373,2.052-8.504c0.394-3.128,0.394-6.298,0.26-8.835
		c-0.16-2.539-0.461-4.443-0.396-5.155c0.037-1.415-1.387-4.035-3.156-6.275c-1.686-2.3-3.671-4.174-3.982-5.436
		c-0.693-2.47-0.083-5.122,0.928-6.328c1.025-1.171,4.047-3.829,3.954-2.122c-0.056,0.844,0.313,1.651,0.686,2.263
		C266.169,272.045,266.54,272.471,266.54,272.471z"/>
	<path style="fill:#231815;" d="M122.269,266.352c0.851-3.785,0.589-9.348,0.853-13.9c0.264-4.548,1.141-6.472,1.234-5.8
		c0.056,0.677,1.415,2.004,1.456,5.549c0.021,3.52,0.179,6.34,0.366,8.01c0.155,1.672-0.285,0.923-0.853,5.855
		c-0.329,2.472-1.02,3.887-1.589,4.448c-0.557,0.564-0.96,0.318-0.946-0.38C122.833,268.722,122.269,266.352,122.269,266.352z"/>
	<path style="fill:#231815;" d="M182.119,301.231c4.176-0.406,9.046,0.306,13.781,1.774c4.742,1.507,9.229,3.474,13.406,4.747
		c4.146,1.315,7.11,1.674,8.928,1.813c1.811,0.114,2.453,0.246,1.786,0.38c-0.661,0.116-1.6,0.621-3.332,0.946
		c-1.709,0.325-4.271,0.478-7.643-0.429c-6.678-1.871-11.713-4.012-14.728-4.513c-1.507-0.302-1.902-0.473-3.038-0.863
		c-1.125-0.285-3.052-1.139-7.523-1.004c-4.438,0.278-6.783,1.512-8.04,1.888c-1.245,0.42-1.41-0.018-0.359-0.988
		c1.048-0.932,2.644-2.041,4.102-2.725C180.913,301.593,182.119,301.231,182.119,301.231z"/>
	<path style="fill:#231815;" d="M137.117,221.775c1.384,1.401,2.797,3.555,2.618,6.28c-0.188,2.72-2.152,5.011-4.369,5.83
		c-1.118,0.422-2.166,0.457-2.996,0.301c-0.619-0.065-1.032-0.262-1.412-0.38c-0.276-0.285-0.357-0.721-0.466-0.983
		c-0.253-0.976-0.063-1.229,0.072-1.032c0.148,0.195,0.682,0.536,1.171,0.61l0.468-0.169c0.116-0.074,0.267-0.114,0.501-0.202
		c0.415-0.132,0.872-0.318,1.405-0.536c1.081-0.443,1.827-1.292,2.173-2.057c0.346-0.781,0.327-1.454,0.195-1.89
		c-0.137-0.436-0.088-0.543-0.04-0.923c0.012-0.345,0.081-1.113-0.958-2.286c-1.078-1.085-1.878-1.574-2.293-2.068
		c-0.42-0.471-0.373-0.916,0.274-0.981c0.622-0.049,1.528-0.049,2.296,0.107C136.521,221.536,137.117,221.775,137.117,221.775z"/>
	<path style="fill:#231815;" d="M130.694,271.588c1.271,0.489,2.748,1.294,3.638,2.931c0.93,1.658,0.638,3.805-0.343,5.062
		c-0.995,1.315-2.279,1.551-2.922,1.447c-0.673-0.111-0.849-0.404-0.682-0.443c0.406-0.134,0.619-1.354,1.259-2.333
		c0.747-1.19,0.153-2.249-0.311-2.384c-0.234-0.109-0.202-0.181-0.234-0.397c-0.042-0.188-0.155-0.617-0.939-0.925
		c-0.754-0.257-1.231-0.501-1.628-0.83c-0.385-0.315-0.55-0.733-0.195-0.992C128.941,272.154,130.661,271.523,130.694,271.588z"/>
	<path style="fill:#231815;" d="M182.105,234.48c0.046-1.658,0.475-3.789,1.779-5.489c0.638-0.844,1.435-1.632,2.472-2.205
		c1.023-0.57,2.321-0.923,3.636-0.737c1.306,0.151,2.477,0.793,3.358,1.54c0.893,0.754,1.561,1.609,2.136,2.449
		c1.106,1.658,1.987,3.355,2.664,5.065c1.34,3.423,1.524,6.025,1.491,7.523c-0.058,1.512-0.311,1.978-0.387,1.461
		c-0.232-1.039-1.512-2.936-3.427-7.585c-0.999-2.296-2.252-4.341-3.441-5.691c-1.215-1.378-2.446-1.709-3.135-1.528
		c-0.703,0.169-0.895,0.193-1.535,0.413c-0.313,0.123-0.756,0.336-1.28,0.897c-0.519,0.58-1.136,1.426-1.296,2.98
		c-0.19,3.135,0.422,5.359,0.23,6.417c-0.102,1.076-0.58,1.048-1.03,0.083c-0.447-0.962-1.115-2.252-1.561-3.416
		C182.316,235.501,182.105,234.48,182.105,234.48z"/>
	<path style="fill:#231815;" d="M275.152,314.676c3.462,0.531,7.701,0.689,11.861-0.169c4.186-0.881,8.48-2.449,12.124-4.142
		c7.39-3.3,8.835-6.56,8.497-5.343c-0.29,0.536-0.452,1.542-1.401,2.917c-0.916,1.375-2.602,3.094-5.48,4.626
		c-5.795,2.959-10.73,4.45-13.744,5.283c-1.514,0.38-1.976,0.355-3.191,0.332c-1.213-0.051-3.207-0.009-7.711-0.404
		c-4.499-0.445-7.026-1.327-8.163-1.904c-1.132-0.601-0.849-1.009,0.422-0.953c1.271,0.056,2.98,0.021,4.357-0.056
		C274.104,314.79,275.152,314.676,275.152,314.676z"/>
	<path style="fill:#231815;" d="M198.609,339.394c1.674-1.554,3.734-2.901,5.953-4.276c2.231-1.343,4.677-2.532,7.022-3.26
		c4.721-1.422,6.832-0.74,6.11-0.642c-0.703,0.178-1.918,1.243-5.225,2.393c-3.318,1.192-5.712,2.732-7.001,3.736
		c-0.649,0.499-0.865,0.584-1.452,0.851c-0.54,0.299-1.621,0.714-3.376,2.238c-1.718,1.563-2.201,2.678-2.576,3.274
		c-0.322,0.601-0.668,0.564-0.703-0.234c-0.028-0.777,0.192-1.853,0.545-2.671C198.242,339.974,198.609,339.394,198.609,339.394z"/>
	<path style="fill:#231815;" d="M210.665,338.784c3.297-2.351,8.327-5.38,13.102-6.28c4.758-0.874,6.711,0.167,5.997,0.141
		c-0.703,0.088-2.015,0.941-5.308,1.7c-3.314,0.807-5.739,2.126-7.036,3.022c-1.25,0.979-0.992,0.051-4.9,2.736
		c-1.904,1.396-3.087,2.191-3.775,2.428c-0.686,0.239-0.84-0.065-0.401-0.626C209.171,340.755,210.665,338.784,210.665,338.784z"/>
	<path style="fill:#231815;" d="M388.143,285.063c6.085-2.059,13.721-4.376,22.011-4.431c4.118-0.033,8.374,0.508,12.365,1.841
		c4.047,1.308,7.52,3.509,10.688,5.392c3.172,1.922,5.839,3.33,8.209,4.123c2.356,0.816,4.315,1.088,5.781,1.129
		c1.463,0.033,2.444-0.102,2.919-0.144c0.482-0.033,0.469,0.051-0.06,0.22c-1.043,0.32-2.627,1.081-5.547,1.134
		c-2.875,0.072-7.07-0.876-11.982-3.754c-2.467-1.394-4.738-2.75-6.948-3.789c-2.196-1.051-4.336-1.755-6.368-2.201
		c-4.061-0.9-7.541-0.842-10.055-0.654c-2.523,0.23-3.24,0.25-5.234,0.373c-1.978,0.197-5.303,0.376-12.664,2.831
		c-7.316,2.565-11.694,4.264-13.846,4.701c-2.136,0.482-1.973-0.077,0.028-1.111c1.987-1.064,4.65-2.488,6.815-3.648
		C386.45,285.94,388.143,285.063,388.143,285.063z"/>
	<path style="fill:#231815;" d="M440.669,285.114c3.11,1.644,8.03,2.4,12.063,2.836c4.042,0.438,5.823,1.048,5.192,1.153
		c-0.619,0.021-1.841,1.18-5.109,1.032c-3.237-0.185-5.83-0.485-7.377-0.626c-1.526-0.216-0.842-0.311-5.111-1.92
		c-4.23-1.83-4.255-3.474-3.056-3.035C438.494,284.968,440.669,285.114,440.669,285.114z"/>
	<path style="fill:#231815;" d="M446.355,278.259c4.589,1.966,11.523,3.249,17.264,4.214c5.746,0.962,8.1,1.846,7.21,1.853
		c-0.879-0.065-2.727,0.897-7.203,0.343c-4.448-0.633-8.005-1.139-10.113-1.438c-2.087-0.35-1.148-0.41-7.128-2.398
		c-5.946-2.171-6.458-3.914-4.752-3.393C443.357,277.94,446.355,278.259,446.355,278.259z"/>
	<path style="fill:#231815;" d="M430.368,257.741c3.963,0.584,8.39,2.166,12.65,4.253c4.26,2.106,8.353,4.445,12.219,6.092
		c3.842,1.672,6.655,2.321,8.388,2.662c1.728,0.311,2.328,0.52,1.674,0.575c-0.649,0.04-1.602,0.431-3.302,0.58
		c-1.674,0.144-4.156,0.053-7.314-1.152c-6.254-2.465-10.836-5.125-13.67-6.085c-1.405-0.522-1.758-0.756-2.778-1.329
		c-1.032-0.487-2.715-1.595-6.989-2.447c-4.269-0.73-6.802-0.343-8.084-0.401c-1.282-0.023-1.287-0.489-0.03-1.048
		c1.245-0.526,3.012-1.102,4.529-1.371C429.167,257.811,430.368,257.741,430.368,257.741z"/>
	<path style="fill:#231815;" d="M480.587,302.119c5.236,0.948,12.685,2.479,18.378,5.225c5.674,2.748,7.265,4.976,6.481,4.466
		c-0.832-0.427-2.836-0.605-7.015-2.446c-4.211-1.818-7.801-2.667-9.907-3.001c-2.129-0.255-1.078-0.689-7.374-1.834
		c-6.303-0.918-7.506-1.929-5.628-2.071C477.38,302.335,480.587,302.119,480.587,302.119z"/>
	<path style="fill:#231815;" d="M483.087,295.364c4.295,0.415,10.454,1.275,15.085,3.546c4.608,2.277,5.705,4.327,5.092,3.88
		c-0.666-0.359-2.344-0.418-5.674-1.881c-3.369-1.442-6.282-1.96-7.972-2.094c-1.711-0.051-0.87-0.591-5.943-1.111
		c-2.535-0.19-4.054-0.406-4.772-0.705c-0.719-0.297-0.619-0.642,0.13-0.777C480.502,295.911,483.087,295.364,483.087,295.364z"/>
	<path style="fill:#231815;" d="M478.932,283.512c3.566,0.517,7.919,0.923,12.416,1.874c4.476,0.96,9.134,2.528,12.833,4.983
		c3.696,2.449,5.64,4.937,6.588,6.454c0.951,1.538,1.069,2.108,0.642,1.644c-0.932-0.872-3.193-2.284-8.286-5.575
		c-5.236-3.223-10.236-4.086-13.063-4.424c-2.896-0.206-1.484-0.821-10.178-1.855c-8.742-0.839-10.331-2.409-7.778-2.511
		C474.637,284.006,478.932,283.512,478.932,283.512z"/>
	<path style="fill:#231815;" d="M95.666,285.91c-9.331,1.368-22.41,4.049-33.495,4.886c-11.082,0.835-15.613-0.345-13.958-0.452
		c1.658-0.151,4.842-1.795,13.058-2.678c8.223-0.9,14.725-2.177,18.484-3.098c3.754-0.962,2.242,0.102,13.645-1.871
		c11.37-2.08,13.883-0.886,10.704,0.148C100.93,283.862,95.666,285.91,95.666,285.91z"/>
	<path style="fill:#231815;" d="M36.668,293.221c-6.245-0.151-14.718,2.426-21.42,5.122c-3.383,1.317-5.802,2.238-7.312,2.692
		c-1.503,0.464-2.103,0.417-1.626,0.121c0.955-0.545,2.043-3.149,7.286-5.584c5.229-2.351,9.587-3.88,12.156-4.809
		c1.287-0.455,1.691-0.436,2.757-0.51c1.074-0.019,2.799-0.223,6.827-0.52c4.042-0.267,6.444,0.343,7.497,0.872
		c1.062,0.538,0.826,1.062-0.294,1.192c-1.122,0.107-2.609,0.459-3.794,0.772C37.574,292.938,36.668,293.221,36.668,293.221z"/>
	<path style="fill:#231815;" d="M27.462,304.109c-2.91,0.088-6.407,0.512-9.832,1.535c-3.432,1.006-6.75,2.66-9.721,4.348
		c-5.909,3.432-8.582,4.58-7.764,3.912c0.87-0.577,1.966-2.62,6.461-5.403c4.48-2.792,8.478-4.448,10.855-5.283
		c1.197-0.387,1.556-0.464,2.539-0.552c0.981-0.093,2.576-0.341,6.264-0.647c7.386-0.448,8.759,0.805,6.686,1.004
		C30.859,303.253,27.462,304.109,27.462,304.109z"/>
	<path style="fill:#231815;" d="M39.761,307.297c-4.979,0.883-11.551,3.687-16.843,6.277c-5.296,2.595-7.669,3.411-6.95,2.864
		c0.761-0.466,1.753-2.28,5.777-4.445c4.026-2.124,7.339-3.657,9.28-4.582c1.964-0.851,1.18-0.357,7.351-2.004
		c6.254-1.438,7.625-0.329,5.876,0.114C42.502,305.996,39.761,307.297,39.761,307.297z"/>
	<path style="fill:#231815;" d="M33.182,315.928c3.692-0.809,8.107-1.904,12.759-2.725c2.326-0.41,4.705-0.768,7.063-1.006
		c1.18-0.111,2.351-0.218,3.509-0.271l0.863-0.042c0.246-0.016,0.972-0.002,1.424-0.005l1.533,0.012l0.751,0.007l0.371,0.005
		l0.128,0.322c0.192,1.041,0.457,1.946,0.489,2.917c0.039,0.45,0.063,1.006,0.018,1.303c-0.018,0.297-0.056,0.582-0.109,0.858
		c-0.192,1.111-0.55,2.066-0.962,2.868c-0.851,1.607-1.906,2.59-2.757,3.156c-1.755,1.09-2.474,0.879-1.902,0.552
		c0.552-0.373,1.141-1.322,1.7-2.794c0.262-0.747,0.524-1.63,0.663-2.681c0.074-0.524,0.114-1.09,0.121-1.693l-0.016-0.448
		l-0.026-0.236l-0.074-0.457l-0.056-0.232l-0.26,0.014l-0.503,0.039c-0.691,0.063-1.364,0.123-2.013,0.181
		c-1.435,0.153-2.771,0.334-3.993,0.543c-2.446,0.42-4.441,0.891-5.89,1.331c-2.882,0.946-1.79-0.281-10.584,1.837
		c-4.366,1.139-7.054,1.565-8.408,1.466c-1.352-0.1-1.343-0.707-0.153-1.308C29.217,318.217,33.182,315.928,33.182,315.928z"/>
	<path style="fill:#231815;" d="M81.794,305.955c-1.264,0.278-2.558,0.631-3.812,1.113c-0.877,0.35-2.178,0.928-3.506,1.957
		c-1.333,0.986-2.623,2.581-3.427,4.079c-0.835,1.489-1.445,2.806-2.041,3.655c-0.596,0.883-1.067,1.166-1.412,1.275
		c-0.93,0.253-1.47,0.376-1.514,0.907c-0.046,0.281-0.084,0.714-0.264,1.363c-0.162,0.626-0.482,1.466-0.596,2.569
		c-0.093,0.888,0.165,1.663,0.823,2.143c0.64,0.494,1.663,0.666,2.623,0.464c1.997-0.392,3.351-2.031,3.611-3.207
		c0.086-0.383,0.691-1.389,1.15-2.727c0.459-1.287,0.809-2.797,1.222-4.167c0.406-1.384,0.962-2.544,1.767-3.495
		c0.786-0.951,1.735-1.619,2.379-2.029c1.357-0.897,2.92-1.366,3.995-1.456c0.399-0.028,1.844-0.274,4.012-0.427
		c2.198-0.128,5.085-0.294,8.248-0.475c6.345-0.357,13.791-0.777,19.022-1.071c10.296-0.526,11.743-0.364,13.128-0.274
		c2.797,0.179,3.747-6.215-0.561-4.8c-2.085,0.684-3.049,1.076-12.784,1.892c-5.199,0.39-12.594,0.944-18.971,1.419
		c-3.207,0.229-6.157,0.443-8.448,0.605C84.092,305.484,82.386,305.815,81.794,305.955z"/>
	<path style="fill:#231815;" d="M224.212,263.267c-2.947-5.756-1.129-8.309,3.416-9.457c4.545-1.146,7.27,0.025,9.088,3.68
		c1.818,3.657,0.304,2.739,0,7.894c-0.301,5.155,0,9.839-3.029,9.396C230.656,274.338,224.212,263.267,224.212,263.267z"/>
	<path style="fill:#231815;" d="M237.597,281.2c6.391-3.086,11.664-0.232,11.664-0.232s1.032,4.77,0,8.381
		c-1.032,3.611,2.493,1.658-2.298,4.603c-4.793,2.947-3.954,5.419-6.915,0C237.089,288.535,237.597,281.2,237.597,281.2z"/>
	<path style="fill:#231815;" d="M302.764,264.1c10.676-3.856,17.573-2.356,18.482,1.285c0.909,3.641-8.179,2.669-9.241,5.426
		c-1.06,2.76-3.052,4.821-3.421,6.669c-0.366,1.846-3.093,0.51-4.304,2.996c-1.213,2.486-3.75,10.623-6.873,5.644
		C294.281,281.144,297.368,266.048,302.764,264.1z"/>
	<path style="fill:#231815;" d="M310.945,299.749c-2.064-4.364-0.64-7.952,2.711-10.4c3.348-2.449,6.076-6.099,8.803-4.728
		c2.727,1.371,2.423,2.296,1.21,6.985c-1.21,4.687-2.901,3.42-2.358,8.144C321.851,304.473,312.251,302.511,310.945,299.749z"/>
	<path style="fill:#231815;" d="M307.891,319.924c-2.041-3.358-0.026-4.962,0-6.723c0.023-1.76,3.021-2.514,5.765-2.743
		c2.743-0.23,2.975,0.909,3.617,4.733c0.64,3.824,4.22,3.727,0,5.946C313.051,323.356,309.361,322.347,307.891,319.924z"/>
	<path style="fill:#231815;" d="M330.642,324.555c-6.491-0.065-1.816-8.383,0-11.354c1.813-2.973,4.237-3.694,5.449,0
		s0.865,3.761,2.727,7.33C340.681,324.1,335.215,324.601,330.642,324.555z"/>
	<path style="fill:#231815;" d="M155.082,193.256c4.796,5.99,6.941,4.682,8.919,2.066c1.98-2.616,7.198-0.436,10.693-4.36
		c3.495-3.926,4.585-6.781,2.187-8.722c-2.4-1.939-4.698-0.57-12.879,2.871C155.822,188.553,155.082,193.256,155.082,193.256z"/>
	<path style="fill:#231815;" d="M199.142,178.754c-0.9,6.539,3.896,6.614,6.948,6.359c3.054-0.255,8.578-5.596,11.047-3.142
		c2.47,2.451,6.393,2.451,9.009-3.216c2.616-5.667,3.407-10.352,0-10.595c-3.406-0.241-9.014,0.57-16.416,2.442
		C202.328,172.469,199.142,178.754,199.142,178.754z"/>
	<path style="fill:#231815;" d="M249.718,173.086c-4.355,1.848,4.329,3.205,6.073,3.564c1.744,0.359,4.044-0.949,2.894-3.564
		C257.535,170.47,252.802,171.778,249.718,173.086z"/>
	<path style="fill:#231815;" d="M277.592,176.711c-0.872,5.531-0.436,8.364,3.488,8.473c3.924,0.109,10.027-1.125,12.207-0.072
		c2.18,1.053,2.252,0.645,2.871-4.165c0.617-4.81-0.362-10.009-8.592-9.371C279.336,172.214,277.592,176.711,277.592,176.711z"/>
	<path style="fill:#231815;" d="M183.747,276.754c-1.73-0.54-3.265-1.895-2.059-3.708c1.208-1.816,2.82,0.162,3.221,1.723
		C185.312,276.33,184.723,277.058,183.747,276.754z"/>
	<path style="fill:#231815;" d="M178.647,291.09c-1.862,0.962-2.46-2.21-0.582-3.388c1.878-1.176,2.683-0.663,2.551,0.758
		C180.481,289.882,179.853,290.464,178.647,291.09z"/>
</g>
</svg>
