<?xml version="1.0" encoding="iso-8859-1"?>
<!-- Generator: Adobe Illustrator 22.1.0, SVG Export Plug-In . SVG Version: 6.00 Build 0)  -->
<svg version="1.1" id="_x32_" xmlns="http://www.w3.org/2000/svg" xmlns:xlink="http://www.w3.org/1999/xlink" x="0px" y="0px"
	 viewBox="0 0 512 512" style="enable-background:new 0 0 512 512;" xml:space="preserve">
<g>
	<path style="fill:#94C85C;" d="M412.597,130.878c-7.117-18.605-40.239-68.665-62.679-82.635
		c-6.944-16.915-8.787-18.455-13.576-26.69c-4.789-8.236-18.345-7.679-23.175,1.662c-4.83,9.341-10.511,16.759-16.215,16.438
		c-5.704-0.321-27.12-6.287-27.12-6.287s-5.25-13.264-11.056-21.895c-5.806-8.631-17.651-8.471-25.99-5.932
		c-8.339,2.539-12.541,24.592-13.35,27.827c-0.809,3.235-9.878,9.012-16.761,11.468c-6.883,2.456-35.457,12.415-41.768,15.77
		c-6.311,3.355-2.626,16.737,9.542,27.748c12.169,11.011,27.881,24.495,27.881,24.495l7.671,33.249c0,0-25.487,32.033-30.134,36.089
		c-4.647,4.057-9.251,7.76-9.251,7.76l-34.728-4.836c0,0-45.975-1.306-59.657-2.145c-13.681-0.839-13.763,25.535-2.153,33.995
		s22.995,14.666,32.219,13.2c9.224-1.466,36.403-6.911,36.403-6.911s13.677,8.489,23.909,6.911
		c10.231-1.577,32.778-9.819,35.376-23.106c-0.313,19.311,15.931,38.52,15.931,38.52s-16.856,24.218-16.343,32.015
		s4.012,20.429,4.012,20.429s-35.534,21.217-43.59,51.619s-1.708,59.755-8.68,72.284c-6.972,12.528-15.47,25.06-27.796,31.463
		c-12.327,6.403-3.324,9.687,5.402,6.985c8.727-2.701,17.742-7.996,17.742-7.996s-13.302,11.404-21.476,19.596
		s26.424-2.75,32.693-9.112c6.269-6.362-5.711,12.065-8.445,15.557c-2.734,3.493,19.181-6.657,19.181-6.657
		s-10.626,11.896-19.181,17.135c-8.555,5.239,12.779,7.567,28.015-8.149c-8.444,11.341-20.272,25.219-13.286,23.96
		c6.985-1.258,15.843-1.174,30.041-18.97c-12.48,19.868-14.397,25.331-2.665,18.97s29.42-23.622,29.658-32.734
		c0.238-9.112,4.047-16.135,4.047-16.135s37.408-59.626,59.698-71.203c22.289-11.577,54.944-27.309,66.976-30.296
		s29.55-9.524,30.832-8.644c1.282,0.88-3.244,23.769-11.729,31.355c-8.484,7.586-10.71,17.844-1.387,12.748
		c9.323-5.096,38.02-8.964,57.036-4.683c19.015,4.28,32.824,9.483,42.907,12.975c10.083,3.493,6.246-19.371-20.94-25.984
		c6.575-1.374,23.429,4.86,30.719,4.944c7.29,0.084-3.093-16.943-23.805-20.362c17.706,1.237,10.816-6.278,0-9.796
		c-10.816-3.519-32.89-1.196-32.89-1.196s5.526-42.245,4.851-50.173c-0.674-7.928,25.63-31.729,25.501-72.269
		c-0.129-40.54-26.232-75.617-30.352-80.781C416.54,137.303,412.597,130.878,412.597,130.878z"/>
	<path style="fill:#FFFFFF;" d="M318.747,124.193c8.149-1.443,15.19,15.544,6.403,25.913c-13.649,16.106-6.985,51.441,6.985,75.2
		c13.97,23.759,5.455,56.357-8.041,67.999c-13.496,11.642-98.806,39.111-122.51,4.712c-23.704-34.399-2.637-92.1,1.091-103.997
		c3.727-11.896,8.995-32.983,6.361-42.231c-2.634-9.248-10.706-38.943-10.706-38.943s47.45,8.133,63.269,11.347
		C277.419,127.407,318.747,124.193,318.747,124.193z"/>
	<path style="fill:#828282;" d="M98.178,230.314c7.945-0.299,32.045,5.725,41.842,1.912c9.797-3.813,10.252-13.605,7.415-20.8
		c-2.837-7.195-44.542-67.424-46.451-68.959c-1.909-1.535-6.018-6.009-14.829-7.991c-8.81-1.981-38.406-5.104-45.693-6.694
		c-7.287-1.59-3.546,11.108-1.61,14.685c1.936,3.577,28.964,42.643,28.964,42.643s17.102-4.814,26.131,0
		c9.029,4.814,6.908,9.541,1.248,8.912c-5.659-0.63-7.393,1.867-7.393,1.867s14.491-1.525,21.769,7.094
		c7.279,8.619-8.69,8.517-12.195,8.134c-3.505-0.383,15.946,5.62,9.038,9.339C99.509,224.173,94.059,230.469,98.178,230.314z"/>
	<path style="fill:#8C8C8C;" d="M94.37,150.106c0,0-15.568-5.238-28.409-7.64s-28.56-5.017-29.805-5.227
		c-1.245-0.21-2.069-14.472,6.185-12.616c8.254,1.856,41.01,7.038,48.404,11.24c7.393,4.202,12.466,7.574,10.832,9.356
		C99.942,147.001,94.37,150.106,94.37,150.106z"/>
	<path style="fill:#878787;" d="M96.579,156.115c2.063,2.592,31.989,51.22,37.836,60.289c5.847,9.07,7.712,16.394,10.248,12.732
		c2.536-3.662,4.1-15.263-0.801-26.154c-4.901-10.891-30.821-44.632-35.202-50.089c-4.382-5.457-7.675-10.426-7.675-10.426
		S92.67,150.125,96.579,156.115z"/>
	<path style="fill:#231815;" d="M225.771,10.2c-1.741,3.143-2.725,5.879-3.551,8.18c-0.8,2.304-1.386,4.172-1.82,5.731
		c-0.855,3.096-1.268,4.869-0.994,5.965c0.268,1.073,1.199,1.257,2.567,0.387c1.339-0.863,2.909-2.862,3.877-5.592
		c1.954-5.368,3.69-10.745,6.402-14.43c0.66-0.913,1.394-1.591,2.091-2.154c0.384-0.174,0.71-0.455,1.073-0.576
		c0.405-0.095,0.6-0.266,1.176-0.355c1.97-0.458,3.922-0.539,5.763-0.426c3.69,0.229,7.375,1.604,10.482,3.759
		c1.594,1.107,2.88,2.283,4.274,3.853c1.378,1.531,2.654,3.114,3.798,4.803c5.14,6.292,9.416,24.301,8.683,13.007
		c-0.618-5.595-1.297-9.666-2.849-13.893c-0.786-2.104-1.823-4.227-3.288-6.447c-0.768-1.113-1.518-2.199-2.601-3.422
		c-1.057-1.247-2.367-2.423-3.895-3.559c-3.08-2.238-6.912-3.98-10.926-4.65c-3.998-0.736-8.13-0.368-11.502,0.781
		c-0.847,0.284-1.902,0.776-2.678,1.257c-0.763,0.555-1.539,1.071-2.06,1.673c-1.184,1.142-1.907,2.267-2.475,3.175
		c-0.563,0.918-0.949,1.652-1.173,2.157C225.903,9.927,225.771,10.2,225.771,10.2z"/>
	<path style="fill:#231815;" d="M334.297,23.538c2.415,2.286,3.903,4.845,5.14,7.168c1.212,2.323,2.109,4.414,2.914,6.136
		c1.586,3.469,2.862,5.426,3.885,5.989c1.957,1.152,2.988-2.996,0.581-9.346c-1.255-3.143-2.68-6.315-4.621-9.235
		c-1.933-2.956-4.5-5.555-7.462-7.446c-2.949-1.902-6.447-3.149-10.074-3.12c-3.651-0.029-7.086,1.436-9.482,3.167
		c-1.228,0.865-2.338,1.802-3.364,2.754c-0.534,0.521-0.952,0.857-1.539,1.536c-0.558,0.616-1.113,1.239-1.539,1.925
		c-1.868,2.712-2.67,5.603-3.464,7.817c-0.828,2.301-1.528,3.648-2.864,4.458c-1.349,0.878-3.554,1.286-5.871,1.468
		c-4.84,0.274-12.644,0.158-17.462,0.042c-1.213-0.042-2.249-0.079-3.027-0.108c-0.773-0.089-1.331,0.047-1.739-0.521
		c-0.108-0.231-0.284-0.234-0.158,0.345c0.145,0.421,0.489,0.723,0.802,0.942c0.689,0.479,1.749,0.905,3.356,1.355
		c6.392,1.646,10.813,2.646,15.784,3.44c2.47,0.326,5.274,0.689,8.817-0.126c1.747-0.347,3.814-1.402,5.476-3.043
		c1.689-1.676,2.707-3.835,3.43-5.768c0.734-1.96,1.284-3.725,2.036-5.163c0.763-1.478,1.552-2.412,3.083-3.83
		c2.733-2.604,5.476-4.093,8.125-4.177c2.688-0.153,5.166,0.826,6.765,1.704C333.445,22.791,334.297,23.538,334.297,23.538z"/>
	<path style="fill:#231815;" d="M161.734,69.463c-0.831-1.962-0.636-3.801,0.208-5.366c0.418-0.763,0.992-1.41,1.654-1.896
		c0.697-0.521,1.297-0.731,2.449-1.118c4.571-1.641,8.804-3.162,12.71-4.564c7.791-2.862,14.243-5.361,19.485-7.507
		c10.487-4.295,16.139-7.181,18.049-8.756c3.817-3.148-7.296-1.065-24.691,5.518c-8.704,3.296-17.455,6.465-26.116,9.522
		l-1.623,0.571c-0.65,0.21-1.313,0.439-1.996,0.792c-1.336,0.676-2.538,1.62-3.509,2.757c-1.949,2.265-2.949,5.282-2.762,8.249
		c0.055,1.431,0.563,3.064,1.031,4.137c0.442,1.097,0.908,2.178,1.418,3.235c1.002,2.123,2.107,4.185,3.325,6.152
		c4.835,7.912,11.105,14.546,17.904,19.838c6.818,5.276,14.088,9.238,21.163,12.212c7.081,2.98,14.393,5.266,21.771,7.07
		c7.383,1.746,14.669,3.261,22.089,4.603c14.795,2.68,29.893,4.329,45.01,4.164c7.557-0.026,16.987-0.758,26.169-2.115
		c9.182-1.363,18.128-3.267,24.888-5.155c6.781-1.799,11.41-3.456,12.126-3.961c0.697-0.579-2.53-0.053-11.637,1.694
		c-18.249,3.361-31.25,4.022-45.041,3.951c-13.804-0.289-28.465-1.418-50.239-5.458c-5.445-1.005-11.105-2.183-16.842-3.443
		c-5.713-1.228-11.384-2.701-16.894-4.516c-11.016-3.575-21.229-8.638-29.078-14.585c-7.888-5.908-13.336-12.581-16.544-17.62
		c-1.612-2.528-2.73-4.637-3.43-6.113C162.071,70.284,161.734,69.463,161.734,69.463z"/>
	<path style="fill:#231815;" d="M365.848,110.938c-2.751-2.767-6.102-2.875-7.933-2.109c-1.92,0.805-2.323,2.104-2.183,2.688
		c0.129,0.626,0.763,0.876,1.344,0.936c0.629,0.084,1.199,0.021,2.044-0.168c1.773-0.445,3.938,0.81,4.745,2.283
		c0.807,1.413,0.66,3.277,0.295,4.708c-0.36,1.502-1.197,2.978-2.294,4.187c-1.065,1.191-2.512,2.215-4.109,3.098
		c-3.014,1.996-11.342,4.098-6.134,4.279c2.615-0.013,4.527-0.032,6.602-0.405c2.039-0.434,4.398-1.042,7.068-3.659
		c2.594-2.565,4.258-6.926,3.556-10.505c-0.271-1.731-1.071-3.217-1.778-4.085C366.366,111.319,365.848,110.938,365.848,110.938z"/>
	<path style="fill:#231815;" d="M372.35,64.592c-8.475-10.3-14.348-13.02-16.4-12.712c-2.133,0.366-0.863,3.801,3.23,7.254
		c8.27,6.96,14.214,16.116,19.285,22.955c5.126,6.86,9.801,14.014,14.561,21.187c4.945,6.981,14.398,21.942,10.629,11.663
		c-1.949-5.142-3.235-8.817-4.814-12.675c-1.589-3.853-3.49-7.896-7.081-13.504c-3.601-5.605-8.341-11.779-12.315-16.4
		C375.459,67.746,372.35,64.592,372.35,64.592z"/>
	<path style="fill:#231815;" d="M407.801,140.368c3.03-0.784,6.231-2.102,9.367-2.412c3.072-0.274,6.36,0.318,8.83,3.727
		c1.21,1.712,2.814,3.982,4.616,6.534c1.815,2.541,3.38,5.634,5.169,8.591c1.852,2.933,3.138,6.147,4.511,8.94
		c0.66,1.407,1.286,2.738,1.857,3.956c0.505,1.242,0.905,2.391,1.276,3.367c1.473,3.896,4.937,14.498,6.37,26.566
		c1.599,12.018,1.846,25.225,1.268,33.862c-0.031,1.084-0.063,2.215-0.097,3.385c-0.082,1.168-0.271,2.367-0.418,3.604
		c-0.345,2.465-0.707,5.063-1.078,7.738c-1.265,5.253-2.307,10.874-4.258,16.087c-0.942,2.609-1.586,5.276-2.701,7.678
		c-1.018,2.436-1.996,4.784-2.917,6.989c-0.813,2.254-1.988,4.179-2.814,6.036c-0.873,1.833-1.623,3.504-2.209,4.961
		c-3.817,7.98-7.762,10.4-9.043,9.293c-1.373-1.163-0.347-5.489,4.803-11.705c4.074-5.332,9.908-16.687,12.749-28.113
		c0.747-2.833,1.207-5.682,1.754-8.338c0.237-1.333,0.544-2.615,0.684-3.872c0.118-1.257,0.234-2.459,0.342-3.598
		c0.179-2.273,0.337-4.282,0.466-5.926c0.116-1.636-0.045-2.925-0.092-3.724c-0.229-3.193,0.145-17.352-2.57-30.951
		c-0.765-3.369-1.46-6.736-2.244-9.887c-0.978-3.096-1.899-6.016-2.714-8.596c-1.865-5.071-3.603-8.654-4.203-9.672
		c-0.587-1.028-1.581-2.72-2.699-4.813c-1.16-2.073-2.273-4.64-3.777-7.078c-1.528-2.42-3.114-4.89-4.627-7.057
		c-1.573-2.131-3.298-3.811-4.643-4.966c-1.391-1.118-2.657-2.428-3.945-3.625c-1.341-1.155-2.565-2.312-3.601-3.346
		C409.137,141.941,407.801,140.368,407.801,140.368z"/>
	<path style="fill:#231815;" d="M203.282,122.296c-1.844-8.68-4.795-11.978-6.652-12.273c-1.891-0.289-2.825,2.336-1.363,5.629
		c2.949,6.628,3.525,13.97,4.874,19.53c1.368,5.579,2.554,11.184,4.237,16.731c1.754,5.487,5.994,16.702,5.758,9.385
		c-0.316-7.333,0.608-10.497-1.144-19.178c-0.9-4.332-2.278-9.314-3.488-13.183C204.287,125.068,203.282,122.296,203.282,122.296z"
		/>
	<path style="fill:#231815;" d="M296.582,302.426c-5.889,0.366-12.265,1.744-18.178,3.769c-5.9,2.062-11.444,4.519-15.905,6.918
		c-2.262,1.126-8.63,4.598-16.518,10.113c-7.854,5.534-17.221,13.272-24.783,22.976c-7.636,9.764-12.518,21.056-16.053,30.28
		c-3.498,9.269-5.75,16.574-7.01,19.551c-1.231,2.985-2.357,6.136-3.525,9.585c-1.215,3.44-2.365,7.638-3.227,12.086
		c-0.899,4.479-1.696,9.222-3.311,14.317c-0.807,2.507-1.889,5.297-3.049,8.257c-0.592,1.497-1.199,3.041-1.828,4.635
		c-0.316,0.818-0.634,1.652-0.957,2.496c-0.308,0.708-0.621,1.423-0.939,2.152c-3.606,8.32-12.818,17.673-21.508,23.844
		c-4.295,3.151-8.351,5.65-11.3,7.362c-1.476,0.863-2.678,1.528-3.511,1.967c-0.831,0.455-1.286,0.702-1.286,0.702
		c-0.063,0.821,11.36-2.288,23.123-9.727c5.837-3.711,11.679-8.551,15.84-14.001c2.057-2.725,3.78-5.521,4.877-8.225
		c0.605-1.37,1.052-2.58,1.439-3.661c0.405-1.107,0.776-2.112,1.099-2.999c1.252-3.593,2.933-7.828,4.28-12.686
		c1.341-4.795,2.157-9.995,3.112-14.798c0.9-4.821,2.349-9.248,3.569-13.283c1.205-3.977,2.22-7.339,2.914-9.635
		c1.491-4.506,6.173-20.508,14.222-34.249c7.712-13.951,20.506-23.428,23.149-25.319c5.434-3.861,19.222-12.883,34.423-18.678
		c7.544-2.959,12.996-5.016,16.965-6.902c3.977-1.849,6.515-3.343,8.217-4.585c1.704-1.247,0.676-1.82-0.847-2.073
		C298.56,302.363,296.582,302.426,296.582,302.426z"/>
	<path style="fill:#231815;" d="M266.002,403.048c10.858-11.179,16.26-15.498,16.763-17.989c0.258-1.168-0.66-1.605-2.399-1.207
		c-1.741,0.374-4.272,1.665-6.839,3.987c-10.25,9.23-19.251,19.391-25.769,27.81c-3.222,4.237-6.418,8.433-9.693,12.502
		c-1.875,2.386-3.23,4.624-4.669,6.934c-1.399,2.299-2.741,4.616-4.032,6.96c-2.588,4.69-6.084,11.923-8.022,16.597
		c-1.954,4.653-2.365,6.855,1.612,1.428c3.887-5.432,6.805-9.096,9.861-13.057c1.523-1.983,3.08-4.037,4.803-6.415
		c1.71-2.317,3.646-5.219,5.823-7.965c5.221-6.265,10.595-13.925,14.916-19.743C262.664,407.046,266.002,403.048,266.002,403.048z"
		/>
	<path style="fill:#231815;" d="M360.322,354.814c27.139-6.781,22.768-13.478,11.747-9.501c-10.992,4.011-22.602,6.158-31.5,9.269
		c-8.89,3.077-17.728,6.486-26.077,10.96c-8.283,4.85-23.589,15.669-12.823,11.095c5.361-2.267,9.219-3.593,13.278-5.116
		c4.085-1.47,8.477-2.922,14.922-5.458C342.738,360.961,360.322,354.814,360.322,354.814z"/>
	<path style="fill:#231815;" d="M199.721,211.928c3.335-12.586,6.118-21.7,7.662-28.165c1.583-6.455,2.052-10.214,1.699-11.786
		c-0.665-3.143-4.59,2.467-7.683,13.086c-3.051,10.618-6.218,21.229-8.583,31.545c-2.37,10.305-3.901,20.332-4.095,29.349
		c-0.521,17.989,2.964,36.487,11.773,52.403c2.207,3.956,5.311,8.73,9.043,12.881c3.685,4.177,7.757,7.875,11.252,10.19
		c1.675,1.244,3.235,2.102,4.406,2.701c1.165,0.605,1.952,0.939,2.249,0.926c0.631-0.071-0.839-1.32-4.855-4.879
		c-7.907-7.328-11.776-13.969-15.358-21.055c-3.469-7.175-6.6-15.14-9.261-27.6c-1.297-6.239-2.117-13.12-2.294-19.914
		c-0.195-6.815,0.176-13.525,0.786-19.414c0.623-5.892,1.494-10.958,2.131-14.553C199.303,214.053,199.721,211.928,199.721,211.928z
		"/>
	<path style="fill:#231815;" d="M176.814,322.487c7.162-7.991,13.586-12.759,17.686-16.555c4.19-3.706,6.315-6.123,6.799-7.415
		c0.992-2.541-4.442-0.658-11.718,5.253c-7.249,5.915-14.446,12.278-19.946,19.58c-5.526,7.252-9.566,14.99-11.928,22.365
		c-4.658,14.724-5.455,29.885-6.034,44.62c-0.224,7.407-0.508,18.407-1.344,25.293c-0.342,3.451-0.781,5.873-0.529,6.384
		c0.171,0.492,0.997-0.973,2.275-5.508c2.312-9.114,3.256-15.627,4.287-22.534c1.023-6.91,1.67-14.314,2.985-25.169
		c1.231-10.892,3.959-23.21,8.446-31.969c2.149-4.435,4.424-8.025,6.136-10.503C175.659,323.858,176.814,322.487,176.814,322.487z"
		/>
	<path style="fill:#231815;" d="M220.761,476.644c1.562-4.272,1.363-7.67,1.007-9.871c-0.508-2.223-1.334-3.369-2.088-3.74
		c-1.578-0.702-2.906,1.434-2.654,4.621c0.273,3.264-0.518,6.494-1.752,9.264c-1.21,2.793-2.838,5.153-4.316,7.228
		c-2.872,4.235-6.744,7.836-10.576,11.676c-3.738,3.88-11.823,11.992-5.632,8.706c3.133-1.633,5.358-2.791,7.73-4.027
		c2.325-1.36,4.837-2.843,7.957-5.96c3.135-3.08,6.273-7.36,7.991-11.15c0.829-1.904,1.491-3.561,1.799-4.8
		C220.59,477.372,220.761,476.644,220.761,476.644z"/>
	<path style="fill:#231815;" d="M183.915,480.518c4.887-4.411,5.965-7.465,5.647-8.551c-0.35-1.126-2.117-0.502-3.672,1.612
		c-3.141,4.28-7.554,7.346-10.766,10.003c-3.222,2.688-6.6,5.158-9.958,7.723c-3.251,2.646-10.258,7.878-5.276,5.823
		c4.953-2.17,7.288-2.599,12.673-6.371c2.67-1.92,5.576-4.43,7.738-6.518C182.458,482.144,183.915,480.518,183.915,480.518z"/>
	<path style="fill:#231815;" d="M198.369,484.514c4.001-7.236,3.924-11.316,3.304-12.323c-0.713-1.063-2.191,0.558-3.106,3.669
		c-1.854,6.315-5.842,11.689-8.864,15.85c-3.03,4.224-6.481,8.107-10.137,11.842c-3.427,3.893-11.75,10.874-5.876,7.599
		c2.925-1.704,4.984-2.938,7.104-4.4c2.112-1.47,4.282-3.193,7.07-6.234c2.785-3.049,5.581-6.986,7.486-10.242
		C197.243,487.01,198.369,484.514,198.369,484.514z"/>
	<path style="fill:#231815;" d="M427.197,333.795c0.268-2.341,0.655-8.485,1.076-14.688c0.21-6.205,0.489-12.468,0.355-15.014
		c-0.016-1.273-0.058-4.358-0.108-8.346c-0.205-3.98-0.35-8.867-0.737-13.73c-0.708-9.732-2.152-19.349-2.701-21.639
		c-0.642-2.283-1.46-6.315-2.196-10.211c-0.847-3.877-1.662-7.607-2.039-9.33c-0.658-3.464-2.199-8.738-3.133-12.544
		c-1.07-3.767-3.677-12.404-4.395-14.23c-0.665-1.833-2.712-10.711-4.356-14.317c-1.207-3.753-8.301-19.619-11.876-25.801
		c-3.606-6.142-6.947-11.523-7.946-9.466c-1.026,2.054-0.836,3.306-1.473,5.063c-0.647,1.746,2.01,2.378,3.982,6.586
		c0.879,2.157,2.404,5.266,4.03,8.693c1.602,3.438,3.033,7.333,4.169,10.803c1.96,7.068,4.932,11.607,6.736,15.461
		c0.915,1.91,2.562,4.49,3.93,7.191c1.339,2.709,2.567,5.476,2.959,7.58c0.75,4.203,3.127,11.579,3.343,14.703
		c0.084,1.568,0.731,5.676,1.268,9.982c0.381,4.34,0.671,8.872,0.342,11.247c-0.416,2.388,0.326,7.005,1.223,11.526
		c0.731,4.54,1.639,8.99,1.82,10.903c0.231,3.835-1.912,0.518,0.226,3.835c2.136,3.333,3.172,4.461,3.327,7.168
		c0.06,1.357-0.347,6.123-0.663,10.81c-0.41,4.693-0.897,9.309-0.652,10.474c0.481,2.33-0.61,3.84-0.189,5.4
		c0.41,1.562,0.876,1.975,0.26,4.653c-0.639,2.67-0.018,1.552-1.265,4.948c-1.252,3.385-1,0.313-1.441,5.679
		C420.634,342.525,426.361,343.956,427.197,333.795z"/>
	<path style="fill:#231815;" d="M344.343,206.252c-5.319-5.908-8.73-10.324-8.164-11.957c0.284-0.789,1.549-0.779,4.009,0.45
		c2.388,1.289,5.987,3.843,10.169,8.58c8.501,9.677,13.872,20.595,18.107,33.16c4.224,12.636,7.028,27.097,9.916,45.365
		c1.447,9.148,2.741,18.312,4.032,27.287c1.263,8.977,2.225,17.852,2.188,26.353c-0.026,8.485-1.131,16.608-3.369,23.681
		c-2.175,7.094-5.413,13.109-8.89,17.725c-3.438,4.516-7.065,6.857-9.295,7.652c-2.283,0.779-3.141,0.229-2.433-1.357
		c0.713-1.581,3.014-4.127,6.25-8.535c3.235-4.398,7.336-10.903,10.745-20.719c1.778-5.261,2.586-10.124,2.941-14.909
		c0.371-4.787,0.234-9.501-0.153-14.685c-0.855-10.337-2.925-22.747-5.563-41.927c-2.228-15.271-5.666-30.653-11.034-43.986
		C358.501,225.066,351.294,213.93,344.343,206.252z"/>
	<path style="fill:#231815;" d="M374.786,393.179c-1.831,0.734-3.385,1.168-4.737,1.173c-1.352-0.005-2.475-0.41-3.064-1.126
		c-0.589-0.721-0.634-1.762,0.216-3.077c0.844-1.307,2.591-2.985,5.592-4.295c6.094-2.749,12.278-3.659,19.085-3.788
		c6.828-0.147,14.311,0.184,23.717,0.747c9.409,0.592,18.859,1.981,27.179,4.235c8.338,2.207,15.464,5.305,20.582,7.978
		c4.879,2.975,5.574,6.326,3.075,7.078c-1.234,0.392-3.204,0.189-5.773-0.978c-2.688-1.015-5.989-3.009-10.532-5.76
		c-4.855-3.006-8.982-4.251-14.038-5.424c-5.113-0.989-11.187-2.107-20.756-2.956C400.026,385.586,383.915,388.718,374.786,393.179z
		"/>
	<path style="fill:#231815;" d="M439.407,368.633c-9.332-1.718-13.72,0.092-14.535,1.178c-0.844,1.228,1.47,2.191,5.132,1.97
		c7.462-0.463,14.682,2.01,20.172,3.919c5.571,1.891,10.876,4.448,16.029,7.375c2.628,1.381,6.457,3.743,8.932,5.255
		c2.457,1.518,3.754,1.928,1.128-0.926c-2.651-2.817-4.587-4.771-6.807-6.712c-2.23-1.928-4.779-3.838-9.004-5.971
		c-4.229-2.125-9.485-3.89-13.701-4.842c-2.117-0.431-3.943-0.81-5.261-0.957C440.183,368.741,439.407,368.633,439.407,368.633z"/>
	<path style="fill:#231815;" d="M443.792,354.901c-8.322,0.208-11.765,2.109-12.433,3.301c-0.658,1.265,1.531,2.131,4.795,1.415
		c6.557-1.462,13.223-0.892,18.17-0.087c4.979,0.708,9.669,2.578,13.806,5.355c2.117,1.32,4.963,3.877,6.481,5.923
		c1.486,2.012,2.459,2.964,1.389-0.447c-1.27-3.325-2.714-5.489-4.49-7.57c-1.81-2.044-4.108-4.027-8.128-5.753
		c-4.035-1.768-9.13-2.465-12.973-2.478C446.532,354.532,443.792,354.901,443.792,354.901z"/>
	<path style="fill:#231815;" d="M436.237,341.902c-5.474-0.163-7.565,2.157-7.612,3.709c-0.06,1.628,1.523,2.833,3.335,2.128
		c3.785-1.452,7.878-0.245,10.882,0.058c3.091,0.284,6.094,0.899,9.256,1.331c1.597,0.168,4.093,0.397,5.847,0.402
		c1.736,0.011,2.759-0.363,0.997-1.675c-3.556-2.499-4.855-4.424-10.15-5.721c-2.654-0.589-5.837-0.773-8.309-0.66
		C438.005,341.594,436.237,341.902,436.237,341.902z"/>
	<path style="fill:#231815;" d="M141.502,438.631c6.223-6.002,7.01-10.337,6.421-11.626c-0.673-1.386-2.809-0.321-4.495,2.509
		c-3.446,5.792-9.127,9.706-13.333,12.778c-4.245,3.151-8.825,5.773-13.567,8.214c-2.338,1.302-5.992,3.085-8.349,4.301
		c-2.349,1.197-3.298,2.091,0.189,1.612c3.477-0.516,5.955-0.9,8.572-1.52c2.612-0.631,5.379-1.523,9.156-3.596
		c3.777-2.081,7.807-5.124,10.689-7.799c1.415-1.37,2.636-2.543,3.427-3.456C141.023,439.157,141.502,438.631,141.502,438.631z"/>
	<path style="fill:#231815;" d="M148.125,452.229c11.234-5.65,8.057-8.993,3.756-5.992c-4.301,2.999-9.222,4.942-12.828,7.06
		c-3.609,2.12-7.215,4.237-10.613,6.707c-3.401,2.47-9.785,8.115-5.071,5.821c4.716-2.296,6.934-2.651,12.341-5.829
		C141.121,456.819,148.125,452.229,148.125,452.229z"/>
	<path style="fill:#231815;" d="M165.706,453.534c2.165-3.527,1.791-5.705,1.023-6.363c-0.8-0.681-2.049-0.084-2.42,1.441
		c-0.763,3.127-3.02,5.558-4.393,7.612c-1.381,2.091-2.92,4.045-4.372,6.142c-1.331,2.123-4.443,6.678-1.633,4.898
		c2.775-1.875,4.364-2.283,7.002-5.458c1.291-1.607,2.562-3.659,3.425-5.329C165.198,454.802,165.706,453.534,165.706,453.534z"/>
	<path style="fill:#231815;" d="M199.229,159.498c12.36-13.851,5.482-17.402,1.163-10.85c-4.229,6.597-9.95,12.013-13.772,16.747
		c-3.816,4.769-7.82,9.206-11.771,13.854c-3.793,4.7-11.981,14.514-5.411,10.263c6.486-4.393,9.927-5.426,16.516-12.418
		c3.256-3.53,6.586-7.98,9.069-11.494C197.459,162.068,199.229,159.498,199.229,159.498z"/>
	<path style="fill:#231815;" d="M55.247,174.083c5.505,8.701,9.864,11.258,11.792,11.008c1.967-0.271,1.71-3.32-1.149-6.36
		c-5.758-6.123-9.419-13.804-13.009-19.383c-3.617-5.595-7.015-11.308-10.795-16.852c-3.853-5.445-12.102-16.526-9.132-8.575
		c3.08,7.93,3.417,11.652,8.567,20.548c2.607,4.427,5.984,9.388,8.775,13.175C53.09,171.429,55.247,174.083,55.247,174.083z"/>
	<path style="fill:#231815;" d="M124.592,171.056c-6.47-9.766-11.665-16.463-15.44-20.971c-3.788-4.498-6.257-6.765-7.641-7.307
		c-2.746-1.123-1.036,4.811,4.9,12.581c11.918,15.435,22.263,31.821,29.404,45.231c1.778,3.354,3.501,6.734,4.995,10.192
		c1.602,3.506,2.87,6.752,3.106,9.916c0.31,3.188-0.6,5.532-2.87,7.291c-2.296,1.789-5.834,2.743-9.387,3.264
		c-14.593,2.675-45.907-3.909-27,1.733c9.519,2.362,16.331,3.717,23.965,4.045c1.915,0.042,3.88,0.034,5.976-0.21
		c2.088-0.226,4.314-0.613,6.694-1.539c2.341-0.913,4.984-2.399,7.031-5.113c2.038-2.73,2.851-6.471,2.578-9.929
		c-0.245-3.498-1.32-6.76-2.565-9.795c-0.639-1.452-1.284-2.912-1.928-4.377l-2.107-4.287c-2.901-5.639-6.115-10.918-9.061-15.458
		c-2.938-4.548-5.647-8.327-7.56-11.021C125.744,172.637,124.592,171.056,124.592,171.056z"/>
	<path style="fill:#231815;" d="M52.101,123.913c-5.092-1.555-8.762-2.038-11.184-1.896l-3.298,0.195l0.581,2.004
		c1.541,5.326,4.679,4.122,5.063-0.05l-3.456,2.793c0.542,0.184,1.176,0.331,1.875,0.424c7.801,1.028,15.137,4.129,21.253,5.505
		c6.118,1.376,12.236,2.751,18.507,3.435c6.273,0.684,19.125,0.665,11.636-1.744c-7.489-2.409-10.24-4.482-19.412-6.544
		C64.492,125.973,52.101,123.913,52.101,123.913z"/>
	<path style="fill:#231815;" d="M61.496,184.462c-2.088,0.871-3.982,2.32-5.055,4.114c-1.17,1.92-1.257,3.798-0.947,5.205
		c0.316,1.431,1.081,2.42,1.807,2.899c0.747,0.481,1.397,0.494,1.833,0.321c0.871-0.36,1.047-1.323,1.315-1.954
		c0.281-0.686,0.437-1.052,0.342-1.936c-0.089-0.9,0.355-1.717,1.284-2.501c0.907-0.744,2.162-1.284,3.511-1.707
		c2.757-0.879,5.463-1.273,7.812-1.707c4.735-0.876,9.545-0.915,14.467-0.734c2.465,0.053,6.281,0.263,8.856,0.434
		c2.538,0.182,3.938-0.15,0.984-1.891c-2.983-1.649-5.171-2.793-7.633-3.788c-2.465-0.955-5.258-1.768-9.522-1.783
		c-4.266-0.055-9.201,0.931-12.865,2.228c-1.836,0.652-3.359,1.344-4.443,1.857C62.154,184.057,61.496,184.462,61.496,184.462z"/>
	<path style="fill:#231815;" d="M79.511,194.337c-6.676,0.55-9.19,3.004-9.359,4.387c-0.168,1.468,1.731,2.233,4.074,1.297
		c4.806-1.923,10.1-1.363,14.069-1.336c4.037,0.003,8.03,0.413,12.107,0.792c2.052,0.132,5.184,0.381,7.275,0.429
		c2.075,0.053,3.135-0.287,0.71-1.518c-2.433-1.207-4.153-2.136-6.073-2.97c-1.92-0.826-4.058-1.549-7.373-1.946
		c-3.317-0.389-7.223-0.31-10.248,0.026C81.665,193.847,79.511,194.337,79.511,194.337z"/>
	<path style="fill:#231815;" d="M87.223,209.29c-5.1-0.113-7.047,2.002-7.097,3.33c-0.061,1.407,1.397,2.386,3.08,1.736
		c3.519-1.339,7.325-0.281,10.116,0.055c2.87,0.321,5.65,0.976,8.556,1.547c1.468,0.239,3.751,0.623,5.35,0.776
		c1.583,0.155,2.525-0.084,0.944-1.383c-1.591-1.276-2.704-2.267-4.006-3.196c-1.299-0.921-2.806-1.773-5.261-2.404
		c-2.457-0.626-5.418-0.871-7.725-0.805C88.872,209.016,87.223,209.29,87.223,209.29z"/>
	<path style="fill:#231815;" d="M67.572,212.607c-2.265-3.101-3.672-5.284-4.679-6.902c-1.11-1.573-1.891-2.588-2.851-2.917
		c-0.892-0.339-1.673,0.008-2.083,1.047c-0.426,1.026-0.484,2.778,0.481,4.579c3.63,7.107,8.877,12.804,13.985,16.029
		c5.09,3.167,10.642,5.513,16.508,6.429c2.909,0.558,7.441,0.45,10.169-0.166c2.757-0.671,3.706-1.468,0.352-2.041
		c-3.359-0.665-5.597-1.652-7.93-2.699c-2.338-1.034-4.766-2.175-8.451-3.69c-3.669-1.568-7.794-3.722-10.729-5.795
		c-1.526-0.978-2.643-2.023-3.522-2.688C68.035,213.049,67.572,212.607,67.572,212.607z"/>
	<path style="fill:#231815;" d="M136.536,183.587c-9.598-3.275-10.163,3.49-5.934,3.756c4.232,0.266,8.083,2.328,11.365,3.02
		c3.285,0.692,6.568,1.383,9.977,1.476c3.409,0.092,10.479-0.926,6.502-2.388c-3.977-1.462-5.368-3.009-10.29-4.045
		C143.23,184.368,136.536,183.587,136.536,183.587z"/>
	<path style="fill:#231815;" d="M157.897,227.218c-7.404-1.276-10.684-1.426-12.252-0.126c-0.729,0.618-0.839,1.502-0.247,2.388
		c0.295,0.442,0.76,0.892,1.384,1.276c0.621,0.334,1.399,0.61,2.294,0.779c3.567,0.558,7.002,1.136,10.366,1.541
		c3.348,0.355,6.615,0.476,9.482,0c5.671-0.86,11.563-3.114,15.8-7.494c1.123-0.992,2.107-2.696,3.03-4.238
		c0.694-1.739,1.407-3.338,1.455-4.755c0.295-2.743-0.205-3.751-1.841-1.086c-0.718,1.397-1.823,2.251-2.62,3.125
		c-0.91,0.794-1.886,1.365-2.767,2.012c-2.038,1.029-3.943,2.238-7.268,3.527c-3.275,1.36-7.481,2.344-10.884,2.712
		C160.427,227.294,157.897,227.218,157.897,227.218z"/>
	<path style="fill:#231815;" d="M62.564,140.408c-6.544-1.305-9.685-0.576-10.411,0.226c-0.736,0.839,0.826,1.854,3.527,1.928
		c5.442,0.142,10.684,1.781,14.885,2.707c4.222,0.921,8.385,2.036,12.612,3.027c4.224,0.894,12.896,2.857,7.943,0.476
		c-5.003-2.307-6.883-3.74-13.296-5.555c-3.214-0.881-7.028-1.646-10.043-2.117C64.768,140.634,62.564,140.408,62.564,140.408z"/>
	<path style="fill:#231815;" d="M108.923,170.588c-6.539-10.058-10.642-13.864-12.065-14.333c-1.457-0.447-0.371,2.467,2.715,6.339
		c6.192,7.762,11.108,16.416,15.314,23.113c4.222,6.702,8.246,13.517,12.37,20.295c4.201,6.712,12.523,20.361,8.433,11.281
		c-4.18-9.046-5.416-12.939-11.421-23.318c-3.03-5.174-6.815-11.06-9.903-15.606C111.272,173.818,108.923,170.588,108.923,170.588z"
		/>
	<path style="fill:#231815;" d="M94.969,150.792c-2.031,2.283,1.702,3.956,1.946,2.691c0.242-1.268,1.473-2.02,1.931-2.896
		c0.458-0.876,0.915-1.752,1.044-2.799s-0.271-3.488-1.173-2.564c-0.902,0.923-1.789,1.018-2.475,2.33
		C95.556,148.869,94.969,150.792,94.969,150.792z"/>
	<path style="fill:#231815;" d="M371.395,171.301c-7.907,10.947-1.757,20.395,3.953,19.625c5.71-0.771,2.636,8.696,10.103,7.036
		c7.465-1.657,17.799-3.838,12.51-13.625C392.672,174.549,387.648,157.718,371.395,171.301z"/>
	<path style="fill:#231815;" d="M396.87,211.426c-2.22,0.484-4.056,1.494-5.51,2.764c-5.337,4.656,0.021,13.065,4.508,11.544
		c5.71-1.936,4.293,3.075,7.917,6.15c3.627,3.075,9.766,7.404,8.811-3.514C411.641,217.452,406.094,209.416,396.87,211.426z"/>
	<path style="fill:#231815;" d="M282.944,308.413c10.905,0.539,15.582,3.346,22.126,8.956c6.544,5.61,8.883,12.155,3.272,14.493
		c-5.61,2.338-4.984,3.272-10.674,1.402c-5.689-1.87-13.17-3.272-17.844-4.674c-4.677-1.405-3.74-2.325-11.689-3.033
		c-7.949-0.707-12.12,2.622-6.079-4.222C268.101,314.491,282.944,308.413,282.944,308.413z"/>
	<path style="fill:#231815;" d="M245.225,332.33c10.34-2.956,19.17,4.937,22.91,12.052c3.74,7.115,0.468,9.453-1.87,9.922
		c-2.338,0.466-15.077-4.669-15.077-4.669h-14.377C226.418,344.642,238.681,334.2,245.225,332.33z"/>
	<path style="fill:#231815;" d="M181.23,314.11c9.764-0.95,14.427,2.309,21.445,7.225c7.02,4.916,10.76,3.033,11.229,0
		c0.466-3.033-12.086-18.083-16.337-17.66C193.314,304.102,181.23,314.11,181.23,314.11z"/>
	<path style="fill:#231815;" d="M171.453,328.59c-5.432,5.482-3.598,9.816,3.995,8.883c7.596-0.936,11.234-2.551,14.09,0.126
		c2.857,2.678,5.261,6.886,8.033,1.744c2.772-5.142-2.754-12.612-5.368-13.785c-2.612-1.176-6.778,3.004-8.877-4.222
		C181.23,314.11,171.453,328.59,171.453,328.59z"/>
	<path style="fill:#231815;" d="M189.539,171.301c4.992,9.051,3.375,6.484,8.033,3.916c4.661-2.567,4.006-1.126,5.103-7.197
		c1.097-6.073,5.042,1.194,3.327-6.073c-1.718-7.265-2.107-13.27-5.821-8.383C196.467,158.452,189.539,171.301,189.539,171.301z"/>
	<path style="fill:#231815;" d="M99.512,227.426c-0.271-1.021-0.153-2.301,0.584-3.183c0.705-0.91,1.894-1.512,3.072-2.004
		c2.399-0.926,3.601-1.628,3.162-1.67c-0.402,0.039-1.373-0.926-3.63-0.313c-2.22,0.621-3.924,1.794-4.779,2.783
		c-0.387,0.502-0.455,0.7-0.552,1.181c-0.039,0.5-0.263,1.294-0.163,3.014c0.171,1.712,0.868,2.493,1.252,2.807
		c0.421,0.3,0.708,0.092,0.692-0.342c-0.016-0.442,0.026-1.034,0.103-1.489C99.396,227.773,99.512,227.426,99.512,227.426z"/>
	<path style="fill:#231815;" d="M230.167,109.917c-5.605-2.073-3.246-9.248,0-8.438c1.41,0.352,2.591,2.362,3.041,4.361
		C233.794,108.439,233.147,111.017,230.167,109.917z"/>
	<path style="fill:#231815;" d="M257.743,116.077c-3.651-0.405-3.243-4.211,3.243-6.16c6.489-1.949,6.084,6.16,4.056,6.16
		C263.014,116.077,257.743,116.077,257.743,116.077z"/>
	<path style="fill:#231815;" d="M230.022,51.377c-3.719-0.284-2.751-16.116,2.359-17.686c5.108-1.573,6.142,2.751,6.215,8.843
		C238.67,48.626,235.133,51.772,230.022,51.377z"/>
	<path style="fill:#231815;" d="M311.695,69.645c-5.226-2.091-1.967-16.505,2.357-18.081c4.324-1.573,7.862,0.85,7.862,7.107
		C321.914,64.926,317.59,72.002,311.695,69.645z"/>
	<path style="fill:#231815;" d="M429.617,159.075c0,0-13.151,3.127-7.581,12.226c5.568,9.098-1.142,9.393,4.913,15.258
		c6.055,5.868,11.734-4.003,11.355-8.719C437.926,173.126,429.617,159.075,429.617,159.075z"/>
	<path style="fill:#231815;" d="M435.956,216.939c2.546,0.997,4.414-4.411,2.367-8.867c-2.049-4.456-3.322-7.307-5.868-2.856
		c-2.546,4.448-1.591,7.949,0,10.492C434.046,218.254,435.956,216.939,435.956,216.939z"/>
</g>
</svg>
