<?xml version="1.0" encoding="iso-8859-1"?>
<!-- Generator: Adobe Illustrator 22.1.0, SVG Export Plug-In . SVG Version: 6.00 Build 0)  -->
<svg version="1.1" id="_x31_" xmlns="http://www.w3.org/2000/svg" xmlns:xlink="http://www.w3.org/1999/xlink" x="0px" y="0px"
	 viewBox="0 0 512 512" style="enable-background:new 0 0 512 512;" xml:space="preserve">
<g>
	<path style="fill:#94C85C;" d="M155.862,220.385c1.389-3.06,12.163-43.942,12.163-43.942s10.686-30.624,22.51-39.76
		c11.824-9.135,21.013-2.286,27.805,12.026c14.675-7.147,40.239-16.167,40.239-16.167s8.08-25.139,22.133-26.891
		c14.053-1.752,16.325,24.682,16.325,24.682s38.845-13.808,47.699-4.099c8.854,9.709-6.782,25.286-9.681,24.399
		c-2.899-0.887-30.218,71.071-27.152,75.889s38.141,14.729,51.261,17.431c13.12,2.702,39.393,18.789,54.283,34.619
		c14.89,15.83,9.717,48.765-21.418,64.267c-31.135,15.502-47.777,22.015-64.856,20.072c-17.08-1.943-30.371-3.354-35.988-3.743
		c-5.617-0.389-40.564,7.388-53.746,8.755c-13.182,1.367-14.943-1.71-8.369-7.398c-6.063,2.02-14.441-4.637-10.503-7.79
		c-1.122,1.07-3.398-7.886,1.365-10.993c4.763-3.108,20.967-10.35,20.967-10.35l21.582-3.083l-51.034,9.108
		c0,0-8.57,35.007-22.224,50.267c-13.654,15.26-27.063,25.206-48.348,18.393c-21.285-6.812-25.414-33.311-20.722-64.335
		c4.692-31.024,19.99-66.171,30.954-72.302c-11.557-13.311-22.347-17.131-13.895-30.086c-0.952-3.83,1.131-25.533,11.462-7.577
		c-2.807-9.067,4.001-19.182,4.001-19.182L155.862,220.385z"/>
	<path style="fill:#FFFFFF;" d="M334.398,155.825c-12.909,24.612-14.5,42.376-8.978,48.938s25.458,37.468,31.999,49.102
		c6.54,11.634,14.423,51.486,7.854,55.866c-6.569,4.379-54.742,2.981-69.632,7.403c-14.89,4.422-33.721,8.363-35.473,8.801
		c-1.752,0.438-21.389,6.416-21.389,6.416s-8.829,11.102-9.267-7.73c-0.438-18.831,6.131-57.864,0-70.755
		c-6.131-12.891-10.945-16.285-10.945-16.285S332.866,153.447,334.398,155.825z"/>
	<path d="M259.797,193.035c-2.552,0.012-4.293-1.234-4.918-2.568c-0.799-1.704,0.233-3.55,3.743-3.075
		C264.874,188.239,262.201,193.023,259.797,193.035z"/>
	<path d="M277.1,184.007c-1.875-0.363-2.119-2.106-1.59-3.828c0.691-2.252,2.7-4.467,4.101-3.506
		C282.084,178.365,280.016,184.571,277.1,184.007z"/>
	<path d="M146.43,275.802c5.539,4.861,6.429,6.782,2.936,10.892c-3.493,4.11,3.814,11.418-5.32,14.158
		c-9.134,2.741-15.574,7.458-13.268,0C133.085,293.393,139.223,269.478,146.43,275.802z"/>
	<path d="M130.308,316.997c7.672,3.349,14.242,6.384,10.564,12.247c-3.676,5.861,0.062,11.543-10.564,12.213
		c-10.626,0.668-11.169,0.795-9.356-7.094C122.764,326.475,124.716,314.556,130.308,316.997z"/>
	<path d="M369.963,247.39c1.524,4.137,1.832,13.728-3.802,13.272c-5.634-0.458-13.246-12.831-14.692-16.234
		C350.022,241.024,369.963,247.39,369.963,247.39z"/>
	<path d="M384.703,253.865c-4.081,5.885-11.389,16.733-2.711,17.475c8.677,0.74,9.491,12.434,15.527,4.463
		c6.038-7.971,13.46-2.254,4.332-9.584C392.724,258.889,384.703,253.865,384.703,253.865z"/>
	<path d="M166.11,184.22c2.9,6.92,1.256,7.859,0,10.598c-1.256,2.741,1.143,15.808-6.222,6.851
		C152.523,192.712,164.262,179.812,166.11,184.22z"/>
	<path d="M167.215,167.165c2.963-7.393,7.643-15.546,13.657-23.135c0.74-0.945,1.55-1.895,2.298-2.802l2.269-2.71
		c1.566-1.846,3.304-3.777,5.493-5.488c2.198-1.672,5.081-3.134,8.18-3.305c1.53-0.152,3.018,0.053,4.399,0.351
		c0.693,0.124,1.436,0.438,2.133,0.673c0.657,0.3,1.3,0.623,1.902,0.968c4.634,2.974,6.707,6.614,8.287,9.535
		c1.499,2.99,2.179,5.542,2.507,7.456c0.33,1.919,0.235,3.228,0.115,3.842c-0.121,0.613-0.284,0.574-0.415-0.081
		c-0.253-1.325-1.352-3.136-3.26-5.778c-0.969-1.315-2.139-2.856-3.632-4.571c-1.502-1.678-3.304-3.66-5.674-5.22
		c-1.21-0.805-2.327-1.254-3.629-1.42c-1.279-0.189-2.491-0.132-3.604,0.187c-2.225,0.672-4.096,2.238-5.67,3.956
		c-1.582,1.724-2.913,3.552-4.176,5.228c-1.274,1.69-2.245,3.061-3.061,4.343c-1.603,2.52-2.2,3.116-3.739,4.889
		c-0.739,0.903-1.736,2.09-3.042,4.057c-1.284,1.97-2.989,4.688-4.683,8.756c-3.365,8.137-4.057,13.211-4.812,15.674
		c-0.703,2.473-1.63,2.264-2.088-0.477c-0.386-2.704-0.567-6.437-0.363-9.51C166.817,169.526,167.215,167.165,167.215,167.165z"/>
	<path d="M221.069,143.49c6.45-2.512,15.056-6.271,22.298-8.269c3.622-0.998,6.255-1.363,7.944-1.432
		c1.679-0.073,2.414,0.243,1.896,0.501c-0.99,0.477-2.015,3.867-7.579,5.948c-5.504,2.01-9.708,3.96-11.998,5.433
		c-1.15,0.728-1.544,0.718-2.6,0.852c-1.03,0.162-2.771,0.408-6.304,2.002c-3.495,1.613-5.734,2.191-7.108,2.098
		c-1.37-0.105-1.773-0.933-0.946-1.84C218.302,146.819,221.069,143.49,221.069,143.49z"/>
	<path d="M258.452,122.622c1.545-2.873,3.4-5.887,5.719-8.833c2.326-2.934,5.03-5.873,8.498-8.336
		c1.804-1.162,3.674-2.343,6.04-2.982c1.099-0.418,2.454-0.483,3.73-0.596c0.647-0.006,1.31,0.108,1.963,0.183
		c0.666,0.051,1.291,0.223,1.898,0.457c2.535,0.763,4.476,2.353,6.029,3.956c0.754,0.83,1.466,1.67,2.015,2.56
		c0.625,0.864,1.081,1.767,1.541,2.657c1.764,3.579,2.422,6.804,2.705,9.468c0.271,2.672,0.119,4.804-0.187,6.362
		c-0.27,1.556-0.731,2.536-0.986,2.978c-0.269,0.44-0.417,0.371-0.381-0.164c0.076-1.079-0.411-2.729-1.337-5.204
		c-0.934-2.467-2.179-5.843-4.324-10.245c-1.118-2.167-2.516-4.003-4.053-5.23c-1.539-1.217-3.152-1.832-4.613-1.737
		c-1.45,0.134-2.826,0.544-4.017,1.333c-0.6,0.313-1.139,0.716-1.63,1.12c-0.499,0.373-0.944,0.748-1.327,1.16
		c-0.789,0.757-1.306,1.225-1.802,1.659c-0.502,0.422-1.035,0.708-1.722,1.286c-0.714,0.542-1.626,1.303-2.874,2.656
		c-1.209,1.369-2.835,3.299-4.486,6.358c-3.303,6.129-4.279,9.916-5.032,11.797c-0.713,1.915-1.626,1.931-2.087-0.373
		c-0.332-2.232-0.36-5.342-0.044-7.861c0.161-1.248,0.361-2.351,0.484-3.165C258.346,123.099,258.452,122.622,258.452,122.622z"/>
	<path d="M349.697,123.783c0.589,0.531,1.208,0.982,1.724,1.674c0.545,0.631,1.063,1.296,1.453,2.114
		c0.902,1.526,1.247,3.424,1.272,5.226c-0.155,3.658-1.888,6.567-3.74,8.934c-1.913,2.343-4.238,4.26-6.255,5.962
		c-2.098,1.757-4.23,3.544-6.391,5.356c-8.676,7.202-17.95,14.629-27.579,21.94c-19.227,14.659-39.858,28.872-59.147,40.868
		c-6.172,3.877-11.546,7.883-16.457,11.383c-4.907,3.514-9.364,6.524-13.387,8.861c-8.046,4.729-14.216,6.676-17.556,7.458
		l-5.05,1.185l4.082-2.838c1.581-1.101,2.65-1.408,2.966-1.457c0.331-0.028-0.058,0.203-1.045,0.838
		c-0.398,0.266-0.817,0.57-1.457,1.152l-1.141,1.037l1.408-0.582c3.235-1.335,7.901-3.848,14.574-8.695
		c3.338-2.432,7.159-5.469,11.693-9.166c4.553-3.666,9.806-8.044,16.482-12.531c28.674-18.333,50.265-34.691,62.482-44.745
		c6.104-5.033,7.972-6.299,12.985-9.961c2.506-1.832,5.785-4.277,10.703-8.176c2.454-1.956,5.321-4.272,8.676-7.09
		c1.756-1.44,3.3-2.804,4.775-4.548c1.341-1.716,2.528-3.824,2.33-5.674c-0.028-1.828-1.427-3.374-3.275-4.528
		c-1.862-1.146-4.074-1.822-6.191-2.298c-4.294-0.888-8.297-0.795-11.813-0.487c-7.042,0.659-12.055,1.899-15.248,2.451
		c-3.196,0.605-4.605,0.686-4.433,0.219c0.177-0.448,1.934-1.448,5.162-2.611c6.421-2.331,15.316-5.06,23.267-4.987
		c3.945,0.055,7.485,0.688,10.059,1.641c1.287,0.444,2.305,0.988,3.005,1.392C349.337,123.458,349.697,123.783,349.697,123.783z"/>
	<path d="M213.87,260.524c0.07-2.079-0.041-4.234-0.572-6.149c-0.251-0.966-0.653-1.814-1.119-2.577
		c-0.506-0.698-1.089-1.377-1.975-1.976c-3.485-2.487-8.864-3.745-14.309-4.869c-1.409-0.306-2.823-0.611-4.241-0.917l-4.156-0.929
		c-2.792-0.621-5.612-1.217-8.44-1.943c-5.621-1.438-11.36-3.157-16.379-6.374c-5.05-3.138-8.392-7.561-9.861-11.47
		c-0.904-1.913-1.094-3.783-1.472-5.344c-0.175-1.597-0.199-2.984-0.242-4.145c0.337-4.65,0.942-5.922,1.011-4.325
		c0.045,0.807,0.255,1.812,0.557,3.088c0.301,1.276,0.967,2.788,1.615,4.619c1.545,3.599,4.156,8.304,10.376,12.341
		c3.125,2.016,6.546,3.358,9.874,4.327c3.321,0.994,6.532,1.698,9.529,2.286c3.027,0.56,5.792,1.073,8.26,1.53
		c2.498,0.46,4.548,0.749,6.48,1.029c3.797,0.576,4.885,1.01,7.797,2.211c1.451,0.655,3.408,1.398,6.293,3.321
		c1.391,0.982,3.178,2.367,4.534,4.686c1.357,2.258,2.102,5.064,2.382,8.129c0.458,6.145-0.532,10.608-1.166,14.028
		c-0.709,3.4-1.361,5.711-1.837,7.18c-0.894,2.94-1.852,2.55-2.014-0.783c-0.105-3.281-0.072-7.622-0.281-11.061
		C214.335,262.983,213.87,260.524,213.87,260.524z"/>
	<path d="M165.102,247.288c-3.148-1.349-6.593-3.345-9.744-5.956c-3.146-2.597-5.999-5.81-7.817-9.261
		c-1.839-3.449-2.089-6.386-1.949-8.011c0.215-1.672,0.579-2.114,0.664-1.582c0.222,1.15,1.955,2.929,4.406,7.332
		c2.683,4.449,6.053,7.127,8.13,8.285c1.035,0.603,1.256,0.844,1.889,1.55c0.663,0.625,1.759,1.832,4.949,3.242
		c3.191,1.296,5.105,1.822,6.114,2.365c1.008,0.576,0.976,1.211-0.175,1.442c-1.13,0.302-2.713,0.489-4.064,0.58
		c-0.674,0.01-1.272,0.018-1.702,0.024C165.358,247.313,165.102,247.288,165.102,247.288z"/>
	<path d="M160.068,259.903c-7.55-2.286-15.824-8.732-20.497-15.929c-2.317-3.599-3.159-6.622-3.313-8.45
		c-0.14-1.842,0.22-2.43,0.364-1.834c0.389,1.246,2.53,2.946,5.843,7.725c3.429,4.836,7.32,7.738,9.663,9.052
		c1.183,0.665,1.426,0.956,2.198,1.68c0.776,0.661,2.076,2.014,5.717,3.311c3.632,1.187,5.74,1.028,6.969,1.26
		c1.211,0.173,1.398,0.787,0.222,1.453c-1.156,0.613-2.905,1.244-4.432,1.477C161.28,259.911,160.068,259.903,160.068,259.903z"/>
	<path d="M155.751,273.299c-1.848-0.361-3.971-0.992-5.988-2.045c-2.025-1.045-3.861-2.477-5.543-4.003
		c-3.181-2.964-6.534-6.186-8.623-10.176c-2.108-3.99-1.974-7.478-1.508-9.206c0.504-1.785,1.008-2.195,0.958-1.597
		c-0.041,0.609,0.306,1.572,0.9,2.954c0.594,1.394,1.434,3.144,2.782,5.589c1.388,2.453,3.21,4.378,4.842,5.92
		c1.64,1.513,3.194,2.761,4.269,3.475c1.109,0.72,1.313,1.016,2.006,1.751c0.733,0.631,1.818,2.047,5.469,2.921
		c3.73,0.678,6.343,0.998,7.462,1.651c1.15,0.592,0.953,1.233-0.259,1.44c-1.212,0.205-2.834,0.621-4.226,0.895
		C156.907,273.156,155.751,273.299,155.751,273.299z"/>
	<path d="M170.047,297.402c-3.262,10.793-6.703,26.28-11.076,38.651c-2.446,6.938-4.663,11.357-6.067,13.578l-6.03,9.537
		l3.375-9.971c0.611-1.806,1.096-2.428,1.078-1.562c-0.008,0.416,0.096,0.917,0.261,1.627l0.024,0.103l0.001-0.099
		c0.01-2.38-0.323-6.749,1.907-14.164c2.844-9.442,4.536-17.141,5.216-21.709c0.64-4.573,1.42-2.323,4.906-15.57
		c1.683-6.626,3.254-10.432,4.466-12.103c1.212-1.668,2.043-1.173,1.93,0.824C169.86,290.534,170.047,297.402,170.047,297.402z"/>
	<path d="M125.47,329.447c-1.581,6.108-2.685,12.647-3.339,19.559c-0.322,3.453-0.552,6.989-0.67,10.592
		c-0.157,3.623-0.066,7.194-0.196,11.158c-0.137,3.824-0.367,7.573-0.244,11.237c0.116,3.635,0.561,7.283,1.94,10.083
		c1.574,2.875,3.85,5.484,6.758,7.348c2.96,1.824,6.445,2.96,10.076,3.641c7.328,1.25,15.251,0.542,22.675-1.459
		c3.724-0.978,7.343-2.382,10.563-4.171c3.261-1.891,6.488-4.092,9.272-6.648c1.471-1.209,2.721-2.637,4.057-3.972
		c1.198-1.463,2.476-2.854,3.535-4.423c2.244-3.031,4.134-6.319,5.75-9.736c3.302-6.808,5.482-14.13,7.405-21.368
		c1.889-7.253,3.361-14.175,4.859-20.457c1.505-6.291,2.878-12.034,4.122-17.234c0.64-2.591,1.247-5.049,1.821-7.372
		c0.506-2.079,0.697-4.256,0.835-6.315c0.261-4.132,0.312-7.877,0.607-11.067c0.462-6.425,2.221-10.608,3.491-12.229
		c1.269-1.635,1.248-1.353,0.083,0.653c-1.064,2.094-1.629,4.997-1.719,8.697c-0.129,3.721,0.366,8.234,0.578,13.994
		c0.037,1.446,0.06,2.97-0.062,4.599c-0.024,0.81-0.175,1.653-0.271,2.514c-0.138,0.815-0.279,1.649-0.424,2.503
		c-0.607,3.412-1.271,7.139-1.998,11.217c-1.547,8.149-3.302,17.67-5.866,28.854c-2.643,11.162-5.874,21.871-11.167,31.021
		c-5.221,9.19-12.642,16.287-20.35,21.09c-3.94,2.489-8.079,4.132-12.03,5.384c-3.963,1.288-7.855,2-11.553,2.512
		c-7.415,0.893-14.185,0.505-19.844-1.029c-5.681-1.564-9.036-3.928-11.774-6.255c-0.619-0.673-1.225-1.329-1.836-1.992
		c-0.298-0.335-0.598-0.672-0.901-1.016c-0.246-0.387-0.495-0.777-0.748-1.177c-0.494-0.803-1.009-1.639-1.558-2.53
		c-0.476-1-0.928-2.079-1.279-3.25c-1.445-4.688-1.559-10.707-1.02-19.181c0.118-2.138,0.245-4.339,0.26-6.804
		c0.027-2.542,0.091-5.295,0.225-8.289c0.278-5.983,0.783-12.933,2.126-20.983c1.345-8.07,3.431-15.11,5.435-21.255
		c2.025-6.147,3.991-11.44,5.64-16.057c0.832-2.323,1.596-4.421,2.238-6.392c0.656-1.992,1.273-3.852,1.918-5.532
		c1.278-3.366,2.645-6.029,4.069-7.884c1.396-1.878,2.834-2.867,3.745-3.295c0.976-0.367,1.345-0.355,1.252-0.079
		c-0.084,0.298-0.684,0.755-1.477,1.686c-0.781,0.945-1.744,2.367-2.672,4.368c-1.894,4.023-2.882,9.18-4.236,14.532
		c-1.43,5.242-2.885,10.576-4.19,15.361c-1.293,4.765-2.305,8.971-2.95,11.994C125.78,327.615,125.47,329.447,125.47,329.447z"/>
	<path d="M328.662,184.182c-0.287,1.641-0.556,3.333-0.796,5.074c-0.113,0.874-0.229,1.755-0.345,2.647l-0.164,1.349l-0.087,1.246
		c-0.247,3.327,0.149,6.827,1.162,10.33c2.004,7.046,6.415,13.887,11.423,20.563c1.278,1.678,2.561,3.362,3.848,5.052
		c1.299,1.718,2.629,3.524,3.905,5.313c2.479,3.652,4.871,7.374,6.939,11.239c4.201,7.691,7.589,15.69,9.855,23.608
		c2.288,7.91,3.326,14.875,3.709,20.642c0.099,2.897,0.225,5.477,0.071,7.77c-0.053,1.144-0.084,2.209-0.167,3.199
		c-0.117,0.988-0.227,1.903-0.326,2.743c-0.181,1.678-0.447,3.051-0.714,4.128c-0.246,1.079-0.455,1.864-0.619,2.366
		c-0.325,1.004-0.468,0.884-0.365-0.315c0.211-2.404,0.006-6.076-0.846-11.994c-0.099-0.738-0.202-1.513-0.312-2.327
		c-0.142-0.809-0.292-1.655-0.449-2.544c-0.265-1.779-0.658-3.704-1.092-5.802c-0.36-2.108-1.001-4.356-1.518-6.822
		c-0.673-2.438-1.296-5.09-2.179-7.906c-3.353-11.318-8.175-20.918-13.029-28.511c-2.394-3.828-4.887-7.109-7.163-9.975
		c-2.39-2.936-4.493-5.522-6.279-7.717c-3.544-4.524-4.332-6.046-6.39-10.168c-1-2.075-2.323-4.853-3.747-9.399
		c-0.635-2.295-1.386-5.025-1.634-8.403c-0.124-1.678-0.213-3.512-0.036-5.48c0.1-2.037,0.396-3.84,0.637-6.001
		c1.055-8.456,2.709-15.181,4.557-20.188c1.863-5.011,3.818-8.299,5.288-10.182c3.043-3.709,3.298-2.447,1.381,1.828
		c-1.87,4.354-3.244,10.539-3.817,15.615C328.74,180.232,328.662,184.182,328.662,184.182z"/>
	<path d="M403.635,263.303c4.813,4.53,9.515,9.77,13.347,16.041c3.791,6.236,6.835,13.617,7.242,21.76
		c0.596,8.086-2.13,16.698-6.874,23.344L415.64,327c-0.29,0.422-0.563,0.858-0.87,1.268l-0.995,1.171
		c-1.335,1.556-2.674,3.12-4.018,4.688c-1.495,1.412-2.994,2.828-4.497,4.248l-1.131,1.065l-1.22,0.951l-2.45,1.901
		c-6.584,4.997-13.825,9.206-21.469,12.363c-7.615,3.211-15.502,5.806-23.535,7.411c-16.004,3.4-32.438,3.924-47.725,0.814
		c-6.989-1.532-13.642-1.795-19.826-1.578c-6.18,0.225-11.854,0.941-16.991,1.739c-10.275,1.613-18.442,3.364-24.562,4.37
		c-6.118,1.049-10.172,1.465-12.112,1.55c-1.939,0.101-1.775-0.083,0.44-0.475c4.459-0.743,10.892-2.822,21.686-5.983
		c5.412-1.542,11.936-3.366,20.046-4.814c4.051-0.738,8.514-1.304,13.416-1.558c4.896-0.3,10.264-0.077,15.983,0.85
		c2.751,0.461,5.467,0.917,8.148,1.367c2.638,0.4,5.289,0.519,7.876,0.787c2.609,0.055,5.181,0.132,7.714,0.134
		c2.534-0.124,5.032-0.199,7.483-0.363c9.813-0.755,18.863-2.724,26.911-5.222c8.041-2.524,15.166-5.524,21.055-8.959
		c3.044-1.554,5.611-3.465,8.095-5.092c2.438-1.692,4.468-3.55,6.446-5.094c1.794-1.743,3.267-3.175,4.556-4.427
		c0.676-0.596,1.206-1.233,1.71-1.838c0.516-0.596,1.006-1.162,1.484-1.714c0.487-0.546,0.962-1.079,1.443-1.617
		c0.504-0.525,0.971-1.081,1.383-1.714c0.884-1.229,1.838-2.556,2.974-4.133c1.065-1.605,2.143-3.479,3.115-5.95
		c0.918-2.463,1.852-5.49,1.957-9.296c0.137-3.779-0.365-8.338-2.324-13.44c-1.957-5.082-5.205-10.726-10.224-16.402
		c-10.141-11.324-20.928-17.727-29.349-21.798c-8.53-4.047-15.066-5.621-19.193-6.431c-2.073-0.414-3.561-0.639-4.481-0.832
		c-0.92-0.213-1.27-0.416-1.065-0.602c0.399-0.329,3.073-0.836,7.637-0.392c4.548,0.442,9.793,1.558,14.963,3.262
		c5.176,1.69,10.272,3.946,14.673,6.311c4.398,2.372,8.146,4.78,10.725,6.672c1.326,0.899,2.304,1.739,3.02,2.266
		C403.249,263.005,403.635,263.303,403.635,263.303z"/>
	<path d="M248.469,354.065c-5.642,0.375-13.136,3.942-19.401,6.461c-6.285,2.534-9.429,2.682-8.571,2.112
		c0.887-0.503,1.825-3.128,6.611-5.443c4.773-2.258,8.588-4.132,10.841-5.315c1.124-0.596,1.511-0.588,2.495-0.73
		c1.004-0.099,2.577-0.422,6.312-1.122c3.774-0.657,6.186-0.067,7.168,0.598c0.994,0.633,0.708,1.26-0.302,1.43
		c-1.018,0.13-2.345,0.637-3.368,1.094C249.221,353.647,248.469,354.065,248.469,354.065z"/>
	<path d="M250.997,343.96c-3.454,0.243-7.576,1.388-11.723,2.917c-4.158,1.522-8.368,3.404-12.289,4.968
		c-7.822,3.189-11.629,3.323-10.49,2.714c1.154-0.56,2.644-3.288,8.496-6.029c5.857-2.704,10.553-4.95,13.344-6.299
		c1.391-0.684,1.859-0.694,3.054-0.899c1.22-0.148,3.138-0.592,7.717-1.388c4.619-0.74,7.499-0.073,8.701,0.582
		c1.22,0.639,0.91,1.266-0.346,1.428c-1.264,0.116-2.919,0.625-4.21,1.073C251.98,343.553,250.997,343.96,250.997,343.96z"/>
	<path d="M244,335.892c-3.222,0.306-6.993,0.941-10.647,2.023c-3.684,1.041-7.078,2.737-9.991,4.609
		c-0.756,0.432-1.395,0.925-2.019,1.343c-0.638,0.402-1.2,0.807-1.703,1.191c-0.514,0.373-0.995,0.694-1.434,0.974
		c-0.409,0.312-0.782,0.572-1.114,0.789c-1.328,0.864-1.979,0.986-1.62,0.546c0.766-0.765,0.527-4.005,5.303-7.723
		c4.778-3.597,9.344-5.275,11.885-6.403c2.569-1.031,1.687-0.103,9.545-1.39c3.903-0.607,6.229-0.542,7.412-0.211
		c1.178,0.347,1.157,1.008,0.083,1.457C247.569,334.036,244,335.892,244,335.892z"/>
	<path d="M276.735,319.579c9.582-2.1,21.145-4.398,33.386-5.496c12.309-1.16,24.836-0.432,35.626-1.556
		c10.811-1.025,17.793-3.921,21.94-5.851c4.083-2.021,5.582-2.544,4.244-1.483c-0.674,0.511-1.42,1.268-2.392,2.294
		c-1.057,0.893-2.267,2.195-4.061,3.439c-3.478,2.568-9.167,5.662-17.872,6.887c-8.666,1.221-16.405,1.207-22.892,1.578
		c-6.504,0.302-11.749,0.846-15.6,1.509c-3.853,0.653-4.965,0.647-8.037,0.793c-3.051,0.237-8.132,0.424-19.589,3.017
		c-11.418,2.688-18.165,4.459-21.491,4.818c-3.314,0.392-3.167-0.647-0.075-2.179c3.088-1.503,7.242-3.524,10.683-5.08
		C274.068,320.748,276.735,319.579,276.735,319.579z"/>
	<path d="M435.44,311.939c3.861,0.282,8.036,0.659,12.371,0.915c2.159,0.112,4.378,0.227,6.567,0.203
		c1.11,0.018,2.183-0.057,3.28-0.097c1.105-0.108,2.219-0.219,3.337-0.329c9.563-1.083,19.457-1.303,28.343-0.945
		c17.725,0.822,24.754,3.084,22.131,3.124c-2.641,0.051-7.994,2.512-21.281,2.376c-13.274-0.158-23.776,0.956-29.731,2.238
		c-3.328,0.572-4.307,0.418-6.828,0.154c-2.515-0.239-6.62-0.84-15.791-1.424c-9.154-0.556-14.236-0.485-16.774-0.493
		c-2.532,0.002-2.66-0.939-0.068-2.144c2.571-1.091,6.204-2.051,9.175-2.633C433.144,312.29,435.44,311.939,435.44,311.939z"/>
	<path d="M97.273,334.574c-9.702-0.047-21.346,0.154-33.305,0.84c-5.917,0.379-12.219,0.809-18.245,1.008
		c-6.025,0.191-11.962,0.381-17.617,0.558c-5.609,0.154-10.367,0.387-14.455,0.422c-2.02,0.024-3.827,0.016-5.425-0.016
		c-1.78-0.032-3.067-0.314-4.266-0.473c-1.172-0.185-2.138-0.367-2.901-0.53c-0.376-0.089-0.704-0.164-0.982-0.231l-0.033-0.012
		l0.029-0.006l0.014-0.002l0.007-0.004l-0.018-0.209c-0.009-0.237-0.143-0.891-0.031-0.434l0.139,0.126
		c0.073,0.221,0.531-0.509,0.16-0.785c-0.275-0.268-0.213-0.339-0.265-0.418l0.057,0.028l0.177,0.055l0.306,0.103
		c0.72,0.258,0.645,0.41-0.205,0.387l-0.327-0.004H0.047h-0.02h0.011c0.031,0.031-0.015-0.065,0.197,0.118
		c-0.145,0.97-0.253,0.069-0.233,0.248l0.031,0.211l-0.001,0.002l0.004-0.002l0.042-0.002l0.176-0.012
		c0.241-0.02,0.498-0.043,0.771-0.067c0.547-0.075,1.161-0.158,1.855-0.252c1.369-0.239,3.142-0.428,5.165-0.868
		c4.214-0.949,9.985-2.225,18.604-2.789c8.567-0.517,16.241-0.838,22.74-1.327c6.48-0.458,11.818-1.148,15.846-1.599
		c7.976-0.897,4.644,0.371,28.484-0.087c11.896-0.243,18.951,0.095,22.262,0.706c3.306,0.611,2.824,1.562-0.571,2.104
		C108.641,332.462,97.273,334.574,97.273,334.574z"/>
	<path d="M155.862,209.317c0.133-2.554-0.117-5.678,0.112-9.078c0.281-3.713,1.662-6.94,2.783-9.565
		c1.177-2.621,1.995-4.268,2.517-5.382c0.503-1.092,0.882-1.54,0.905-1.091c0.016,0.434,0.486,1.081,0.757,2.299
		c0.287,1.207,0.312,2.992-0.451,5.169c-0.766,2.157-1.403,4.045-1.709,5.64c-0.332,1.627-0.295,2.792-0.163,3.785
		c0.33,1.996-0.651,1.01-0.513,7.178c0.249,6.281-1.975,7.539-2.39,5.733C157.265,212.242,155.862,209.317,155.862,209.317z"/>
	<path d="M191.637,184.056c1.135,1.152,2.681,2.225,4.444,2.988c1.748,0.761,3.768,1.215,5.518,1.031
		c0.905-0.03,1.606-0.386,2.252-0.702l1.158-0.85c0.302-0.329,0.69-0.604,0.942-0.943c1.106-1.296,1.592-2.79,1.632-4.642
		c0.064-1.824-0.181-3.611-0.323-5.122c-0.15-1.524-0.23-2.785-0.197-3.747c0.066-1.923,0.421-2.528,0.535-1.877
		c0.123,0.657,0.733,1.538,1.557,3.013c0.769,1.493,1.967,3.558,2.263,7.167c0.107,1.795-0.087,3.654-0.773,5.279
		c-0.678,1.613-1.692,2.948-2.756,3.94c-0.517,0.529-1.079,0.897-1.586,1.327c-0.547,0.396-1.231,0.747-1.814,1.045
		c-0.611,0.207-1.206,0.436-1.756,0.572c-0.554,0.101-1.068,0.193-1.54,0.278c-1.874,0.158-2.394-0.081-3.722-0.513
		c-0.63-0.29-1.504-0.566-2.711-1.177c-1.224-0.58-2.828-1.416-4.843-2.948c-2.013-1.542-3.268-3.268-3.945-4.747
		c-0.312-0.767-0.542-1.42-0.584-2.037c-0.088-0.588-0.08-1.067,0.033-1.453c0.361-1.483,1.067-1.1,1.455-0.016
		c0.485,1.134,1.641,2.315,2.718,3.043c0.575,0.347,1.057,0.641,1.43,0.82C191.405,183.956,191.637,184.056,191.637,184.056z"/>
	<path d="M274.069,144.538c0.992,0.956,2.41,1.826,3.991,2.41c1.546,0.584,3.42,0.872,4.633,0.58
		c0.323-0.085,1.357-0.631,1.949-1.071c0.312-0.249,0.674-0.462,0.899-0.749c0.274-0.258,0.526-0.525,0.698-0.824
		c0.818-1.11,1.078-2.524,1.016-4.145c-0.178-3.254-0.977-5.985-1.139-7.606c-0.229-1.647-0.065-2.278,0.188-1.747
		c0.249,0.532,1.019,1.13,1.995,2.329c0.935,1.205,2.257,3,2.74,6.224c0.535,3.183-0.458,6.678-2.397,8.632
		c-0.442,0.535-0.918,0.956-1.392,1.329c-0.46,0.414-0.925,0.728-1.371,1.006c-0.475,0.284-0.778,0.578-1.392,0.807
		c-0.554,0.252-1.074,0.436-1.516,0.515c-1.831,0.391-2.305,0.138-3.545-0.199c-0.602-0.209-1.396-0.45-2.512-0.945
		c-1.129-0.475-2.604-1.144-4.504-2.441c-1.891-1.306-3.145-2.893-3.682-4.419c-0.543-1.53-0.326-2.836,0.092-3.441
		c0.836-1.229,1.352-0.521,1.386,0.387c0.138,1.021,1.103,2.023,2.066,2.564C273.216,144.297,274.069,144.538,274.069,144.538z"/>
</g>
</svg>
