<?xml version="1.0" encoding="iso-8859-1"?>
<!-- Generator: Adobe Illustrator 18.1.1, SVG Export Plug-In . SVG Version: 6.00 Build 0)  -->
<svg version="1.1" id="_x31_0" xmlns="http://www.w3.org/2000/svg" xmlns:xlink="http://www.w3.org/1999/xlink" x="0px" y="0px"
	 viewBox="0 0 512 512" style="enable-background:new 0 0 512 512;" xml:space="preserve">
<g>
	<g>
		<path style="fill:#94C85C;" d="M58.164,495.998c39.054,8.136,45.563,8.136,60.208,0c14.645-8.136,14.645-17.9,29.291-3.255
			c14.645,14.645,9.764,14.645,32.545,9.764c22.782-4.882,19.527-9.764,37.427-9.764c17.9,0,13.781,3.509,22.782,6.509
			c24.409,8.136,22.782,14.645,45.563,8.136c22.781-6.509,11.391-3.255,22.781-6.509c11.391-3.255,24.409-6.509,24.409-6.509
			s29.291,3.254,35.8,3.254s37.427-8.136,52.072-13.018c12.694-4.232,3.407,11.083,27.199,1.46
			c-4.945-19.81-12.331-37.079-20.69-50.278c16.273-3.255,35.8-27.663,34.172-50.445c-1.627-22.781-37.427-43.936-60.208-60.208
			c-22.782-16.272-43.936-26.036-55.327-35.799c-11.391-9.764-9.764-37.427,14.645-58.581s73.226-19.527,73.226-19.527l13.018-4.882
			c0,0,0,0,27.663-4.882c27.663-4.882,24.409-27.663,11.391-35.8c-13.018-8.136-13.018-16.273-19.527-30.918
			s-30.918-29.291-42.309-37.427c-11.391-8.136-13.018-6.509-11.391-30.918c1.627-24.409-3.255-40.681-16.273-35.799
			c-13.018,4.882-37.427,27.663-37.427,27.663s-21.154-9.764-48.818-14.645c-3.255-9.764-6.509-39.054-17.9-42.309
			c-11.391-3.254-52.072,30.918-60.208,45.563c-8.136,14.645-16.273,19.527-42.309,34.172
			C95.59,129.866,58.164,256.792,56.536,277.946c-1.627,21.154-13.018,47.19-19.527,86.244
			c-5.32,31.928-13.895,81.253-15.071,125.756C30.538,490.612,41.745,492.578,58.164,495.998z"/>
	</g>
	<path style="fill:#FFFFFF;" d="M492.761,181.432c-0.938,0.099-1.98,0.24-3.219,0.466c-50.531,9.184-64.461-17.862-109.137-23.619
		c-44.677-5.758-109.369,10.096-138.787,22.505c-29.418,12.409-66.05,128.62-66.05,128.62l-2.171,23.869c0,0-1.573,5.948,4.984,2.56
		c6.557-3.388,9.525,5.068,13.097,14.479c6.884-2.536,11.21,16.592,11.21,16.592s4.342,1.085,5.146,7.962
		c12.738-16.989,22.267-60.58,22.267-60.58s11.642-22.235,13.171-32.151c1.529-9.916,14.744-57.343,21.262-64.156
		c6.518-6.812,32.535-12.714,45.515-23.095c12.98-10.38,6.547-6.978,8.718,4.82c2.171,11.798-22.781,28.342-34.191,35.396
		c-11.41,7.054-8.375,17.774-8.375,17.774s13.752-2.018,20.786,1.343c7.034,3.361,3.337,24.816-1.344,39.041
		c5.444,10.642,3.597,29.168-1.259,36.718c-4.856,7.55-11.416,3.297-11.416,3.297l-9.478,14.985c0,0,1.885,8.878-4.624,34.914
		c13.018,10.847,114.175-23.851,114.175-23.851s-25.219-23.881-36.4-56.34c-0.96-2.787-0.299-6.066,1.627-9.706
		c-1.856-1.322-3.566-2.632-5.092-3.938c-11.391-9.764-9.763-37.427,14.645-58.581s73.226-19.527,73.226-19.527l13.018-4.882
		c0,0,0,0,27.663-4.882c0.874-0.154,1.63-0.375,2.444-0.566c7.141-4.593,13.066-8.578,17.169-11.734
		C492.478,186.677,492.93,184.048,492.761,181.432z"/>
	<path style="fill:#FFFFFF;" d="M434.45,454.547c-2.6-5.84-5.397-11.232-8.333-16.13c-71.078,25.563-164.499-5.487-164.499-5.487
		s-7.943,30.52-42.655,43.539c-32.545,4.34-72.136-33.4-91.126-41.225c-15.535-6.403-17.27,29.623-19.762,64.324
		c2.323-0.933,4.672-2.12,7.284-3.571c14.645-8.136,14.645-15.945,29.29-1.3s9.764,14.645,32.545,9.763
		c22.781-4.882,19.527-9.763,37.427-9.763s13.781,3.509,22.782,6.509c24.409,8.136,22.782,14.645,45.563,8.136
		c22.781-6.509,11.391-3.254,22.781-6.509c11.391-3.254,24.409-6.509,24.409-6.509s29.291,3.255,35.8,3.255
		s37.427-8.136,52.072-13.018c12.602-4.202,3.556,8.894,26.704-0.302C441.973,476.422,438.547,465.457,434.45,454.547z"/>
	<g>
		<g>
			<g>
				<path style="fill:#231815;" d="M231.009,61.164c0.985-1.417,3.534-7.067,7.11-12.88c3.531-5.826,8.146-11.74,11.604-14.086
					c6.782-4.644,10.66-12.208,17.378-15.071c3.299-1.398,7.412-4.141,11.512-6.533c2.04-1.205,4.078-2.307,5.943-3.151
					c1.926-0.858,3.324-1.367,4.742-1.578c0.661-0.097,1.532-0.11,2.419,0.249c0.95,0.331,1.427,1.332,2.009,2.306
					c1.176,2.017,2.336,4.33,3.334,6.676c2.015,4.682,3.261,9.407,3.229,11.311c0.007,3.795,1.964,11.279,2.822,16.603
					c0.483,2.639,1.767,9.258,2.317,15.704c0.62,6.432,0.493,12.63,0.327,14.124c-0.299,2.841,7.698,6.299,7.11,1.319
					c-0.642-4.626,0.747-14.547-0.207-23.408c1.077,0.292,2.689,0.165,5.276-0.496c7.659-1.973,16.056,3.425,21.497,5.187
					c2.733,0.871,8.508,2.393,13.994,4.024c5.495,1.611,10.688,3.369,12.44,4.119c1.758,0.731,8.324,3.541,14.712,6.933
					c6.42,3.339,12.573,7.346,14.518,8.691c3.954,2.559,13.012,7.869,18.129,10.922c2.584,1.46,5.098,2.054,5.956,1.204
					c0.833-0.822,0.051-3.226-4.44-7.258c-2.18-1.983-4.574-3.858-7.043-5.624c1.087,0.296,2.438,0.362,3.753,0.102
					c2.702-0.529,5.212-2.479,4.475-5.97c-0.75-3.488,0.362-12.046-0.064-20.835c-0.21-4.389-0.864-8.899-2.304-12.697
					c-1.357-3.814-3.753-6.681-4.767-7.553c-0.461-0.424-1.56-1.374-2.88-2.164l-1.875-1.144c-1.033-0.615-2.164-1.287-3.41-1.831
					c-1.246-0.543-2.581-0.945-4.024-1.025c-1.459-0.092-2.997,0.243-4.366,0.919c-1.392,0.658-2.718,1.705-4.005,2.846
					l-2.574,2.214c-5.422,4.516-12.154,8.108-13.835,9.025c-3.385,1.842-7.911,4.022-10.466,5.169
					c-1.179,0.543-2.142,3.374-2.263,6.218c-5.279-2.495-12.665-5.309-20.182-7.796c-8.88-2.957-17.855-5.609-23.76-7.466
					c-1.929-0.607-3.293-0.464-4.288,0.086c-0.197-1.193-0.403-2.387-0.632-3.553c-1.163-6.148-2.711-11.591-3.363-13.409
					c-0.633-1.823-2.721-7.425-5.463-12.726l-0.753-1.462c-0.299-0.636-0.642-1.217-1.027-1.751
					c-0.76-1.077-1.354-2.285-2.361-3.022c-1.929-1.645-4.322-2.374-6.503-2.563c-2.209-0.202-4.208,0.122-5.848,0.482
					c-1.132,0.299-1.923,0.629-2.435,0.904c-1.023,0.551-3.766,1.476-7.107,2.98c-3.349,1.491-7.348,3.544-11.279,5.958
					c-7.901,4.774-15.475,11.046-18.57,14.653c-6.344,7.068-14.499,16.339-17.757,18.558c-3.34,2.193-2.603,9.051-6.01,14.057
					C218.359,62.773,228.085,65.373,231.009,61.164z M379.159,53.385c1.347-0.056,3.299-2.86,5.206-6.032
					c1.932-3.169,3.699-6.69,5.479-8.157l3.423-2.708c0.633-0.47,1.281-1.008,2.069-1.311c0.807-0.334,1.735-0.056,2.492,0.339
					c1.545,0.818,2.838,1.727,4.392,2.611c1.316,0.777,2.314,1.7,3.134,2.285c0.817,0.58,1.78,2.249,2.276,4.468
					c0.353,1.476,0.49,3.178,0.486,4.917c-1.398,0.019-3.178,0.215-5.581,0.515c-8.68,1.087-5.743,9.597-1.084,15.189
					c1.395,1.675,2.937,2.258,4.437,2.109c-0.057,0.917-0.124,1.901-0.194,2.91c-0.219,3.337-0.505,6.829-0.181,8.303
					c0.016,0.07,0.067,0.133,0.095,0.2c-7.107-4.82-14.553-8.694-19.33-11.23c-5.463-2.969-11.025-5.737-18.243-9.47
					C371.251,56.382,374.585,53.554,379.159,53.385z"/>
				<path style="fill:#231815;" d="M419.872,102.334c2.778,2.872,7.008,5.618,9.239,7.208c0.016-0.083,8.871,3.402,11.534,5.996
					c2.822,2.368,8.251,8.39,10.1,11.416c1.017,1.46,3.007,4.643,4.659,8.333c1.672,3.671,3.096,7.884,4.075,10.654
					c0.966,2.717,3.496,7.269,6.595,11.324c3.058,4.103,6.652,7.297,7.978,9.513c1.338,2.241,2.902,3.607,4.666,4.828
					c0.88,0.609,1.853,1.189,2.845,1.802c0.953,0.572,1.951,1.255,2.975,2.145c2.005,1.84,4.78,3.245,6.652,6.345
					c-1.573-1.066-3.906-2.086-6.633-2.477c-2.946-0.442-6.038-0.256-9.214,0.043c-6.309,0.666-12.17,1.031-18.294,0.418
					c-6.074-0.566-12.17-1.942-17.951-3.741c-5.785-1.802-11.251-4.008-16.155-6.261c-5.038-2.423-10.126-4.394-14.258-5.737
					c-8.368-2.767-16.956-4.558-26.634-5.864c-9.681-1.297-20.477-2.063-33.41-2.298c-12.945-0.327-33.311,1.356-53.537,4.205
					c-20.197,2.741-40.554,6.23-53.365,6.563c-6.836,0.189-9.277,0.912-10.148,2.734c-0.833,1.749,0.632,4.548,3.884,6.814
					c3.197,2.215,4.971,3.897,7.79,4.488c2.819,0.569,6.766,0.013,13.997-2.892c14.346-5.829,35.456-6.579,47.982-8.209
					c6.248-0.852,19.212-2.886,31.716-4.119c12.5-1.329,24.53-1.581,28.702-1.411c4.132,0.151,19.937,0.594,35.177,4.793
					c3.801,1.031,7.552,2.274,11.057,3.683c3.525,1.389,6.687,3.02,9.837,4.526c6.194,2.943,11.356,4.898,13.898,5.778
					c5.054,1.792,13.533,4.001,22.47,4.263c4.456,0.154,8.966-0.192,13.072-0.834c4.119-0.62,7.825-1.513,11.041-1.772
					c3.201-0.345,6.287,0.176,8.47,0.987c0.588,0.206,1.106,0.395,1.573,0.564c-0.022,0.377-0.06,0.753-0.149,1.117
					c-0.394,1.716-1.411,3.188-2.625,4.103c-4.659,3.664-13.285,7.625-19.975,8.773c-6.674,1.13-10.479-1.667-14.68-2.995
					c-4.081-1.313-13.288,8.46-13.387,8.435c0.013,0.029-9.315,2.034-12.144,2.555c-2.8,0.578-11.791,4.715-17.528,5.76
					c-0.302,0.056-0.569,0.133-0.83,0.214c-5.197,0.099-10.444,0.426-14.693,1.09c-8.607,1.128-17.213,3.051-25.508,6.31
					c-8.251,3.253-16.308,7.963-22.629,14.834c-3.147,3.413-5.911,7.631-7.895,12.359c-2.009,4.724-3.223,9.899-3.852,15.154
					c-1.284,10.547-0.308,21.386-0.439,31.93c-0.032,10.44,0.741,16.592,2.975,14.326c0.782-0.864,1.697-3.035,2.336-6.654
					c0.874,4.793,2.409,10.178,5.025,15.942c4.815,10.584,10.86,19.201,16.686,27.32c3.734,5.163,7.405,10.162,10.965,15.252
					c-8.28,1.689-13.841,1.376-20.859,3.315c-8.019,2.242-20.373,6.282-29.446,8.726c-9.084,2.433-12.652,2.315-17.178,3.613
					c-4.567,1.265-11.454,2.036-17.439,2.857c-3.029,0.337-1.98,1.15,0.788,1.848c2.749,0.672,7.072,0.868,10.081,0.595
					c3.023-0.234,9.001-0.914,16.905-2.253c7.914-1.311,17.77-3.248,28.757-5.223c21.898-4.003,39.416-6.153,51.487-4.608
					c0.006-0.008,3.261,0.533,5.587,0.783c2.292,0.251,3.986,0.018,1.052-2.339c-3.054-2.278-4.217-4.38-4.732-6.277
					c-0.54-1.885-0.496-3.521-1.735-4.51c-1.891-1.497-6.036-0.769-12.49,0.826c-2.358-3.067-4.799-6.14-7.37-9.225
					c-5.937-7.165-12.211-14.416-17.487-22.233c-5.301-7.783-9.433-16.263-11.543-24.882c-2.091-8.607-2.676-14.852-3.439-18.564
					c-0.699-3.717-1.532-4.932-2.498-3.569c-0.118,0.169-0.235,0.378-0.356,0.628c-0.035-3.396-0.041-7.069,0.067-11.089
					c0.009,0.005,0.156-2.061,0.715-5.446c0.578-3.369,1.608-8.082,3.897-12.975c2.24-4.91,5.905-9.865,10.736-13.864
					c4.799-4.027,10.612-7.122,16.26-9.411c11.375-4.461,19.622-6.218,27.263-8.001c3.089-0.667,6.125-1.282,9.325-1.842
					c1.205,0.655,2.987,1.004,5.466,0.558c7.583-1.36,15.472-1.589,21.202-2.795c5.737-1.219,6.849-5.236,12.176-7.798
					c5.298-2.594,8.416,1.64,13.539,1.395c5.091-0.254,8.39-0.175,8.39-0.168c0.019,0.035,8.19-4.24,12.869-6.927
					c2.361-1.286,4.713-2.773,6.798-4.457c0.966-0.772,2.142-1.837,3.127-2.93c0.969-1.065,1.742-2.11,2.32-3.048
					c1.15-1.853,2.676-4.51,3.057-7.923c0.41-3.375-0.515-7.345-2.784-10.615c-0.553-0.82-1.195-1.675-1.895-2.554
					c-0.582-0.713-1.182-1.435-1.802-2.126c-1.243-1.4-2.565-2.765-3.893-4.063l-0.991-0.96l-0.706-0.766
					c-0.471-0.499-0.871-1.02-1.281-1.516c-0.772-1.014-1.44-1.987-1.916-2.878c-0.486-0.898-2.352-2.445-4.51-4.767
					c-2.184-2.301-4.586-5.596-6.903-9.969c-2.311-4.319-4.752-9.468-7.243-13.549c-2.46-4.119-4.815-7.167-5.819-8.693
					c-2.005-3.083-5.174-6.604-8.508-9.601c-3.328-3.015-6.773-5.555-9.115-7.431c-4.688-3.701-5.708-7.364-8.651-12.214
					c-2.95-4.793-4.662-4.364-13.151,0.68C415.823,96.3,417.116,99.461,419.872,102.334z"/>
				<path style="fill:#231815;" d="M154.143,97.456l-11.75,12.173l-17.865,19.071c-4.329,4.36-11.165,11.652-17.544,19.365
					c-6.442,7.682-12.366,15.783-15.85,20.862c-3.515,5.075-10.708,16.043-17.248,28.215c-6.64,12.173-12.627,25.485-16.142,33.945
					c-3.515,8.463-8.365,23.109-11.13,38.013c-1.433,7.42-2.149,14.873-2.733,21.22c-0.585,6.378-1.268,11.748-2.247,15.393
					c-1.92,7.258-3.188,12.985-4.554,19.233c-1.335,6.282-2.603,12.986-4.786,21.806c-4.392,17.639-6.248,45.109-10.641,62.649
					c-2.279,8.82-4.427,20.763-5.924,33.197c-1.529,12.398-2.311,25.319-2.832,35.994c-0.06,1.125-0.127,2.163-0.191,3.224
					c1.63,0.715,3.074,1.945,4.008,3.822c1.573,0.127,3.153,0.205,4.736,0.235c1.122-0.86,2.209-1.767,3.296-2.67
					c-0.191-2.165-0.614-7.507-0.814-13.984c-0.293-8.494-0.067-18.844,0.652-26.198c1.331-14.744,3.741-29.421,5.368-38.209
					c1.595-8.819,6.086-23.139,9.57-37.719c1.723-7.323,4.392-16.727,7.288-26.133l4.364-13.832
					c1.462-4.492,2.832-8.95,3.903-12.791c0.556-1.919,1.271-5.466,1.888-10.186c0.651-4.72,1.109-10.577,1.725-16.664
					c0.62-6.086,1.564-12.595,3.191-19.592c1.627-7.029,3.839-14.483,6.344-22.001c5.047-15.1,11.003-30.104,16.794-42.178
					c5.762-12.106,11.261-21.348,14.159-25.645c5.759-8.592,13.504-19.428,21.837-29.421c8.33-9.989,17.15-19.104,23.726-25.189
					c13.279-12.139,22.162-15.589,35.602-22.815c13.508-7.159,15.005-10.154,20.309-27.695
					C205.986,55.538,168.203,85.48,154.143,97.456z"/>
				<path style="fill:#231815;" d="M464.103,389.548c-0.229-2.897-0.814-5.239-1.303-5.857c-0.521-0.652-0.845,0.423-1.3,4.23
					c-1.205,7.551-3.906,9.568-5.794,10.48c-1.955,0.879-3.547,0.684-4.85,2.409c-1.335,1.724-1.919,4.882-3.839,9.469
					c-1.92,4.459-5.34,10.773-12.987,15.621c-1.888,1.204-3.839,2.117-5.759,2.8c-1.694,0.586-4.265,1.238-6.315,1.985
					c-4.135,1.432-7.615,2.799-11,3.873c-6.77,2.18-13.018,3.482-20.471,4.947c-7.453,1.497-17.315,2.603-27.6,2.929
					c-10.282,0.326-20.957-0.032-29.907-0.683c-17.9-1.432-24.44-3.32-33.425-4.133c-8.982-0.879-22.26-3.448-33.521-4.556
					c-1.366-0.13-2.244-0.162-2.765-0.13c2.666-8.397,6.639-22.651,9.795-40.713c3.061-18.324,0.585-25.939,0.877-29.551
					c0.067-1.823-0.585-0.326-1.691,4.588c-1.138,4.947-2.733,13.312-5.174,25.125c-2.441,11.814-5.533,24.735-9.926,36.645
					c-4.396,11.912-10.317,22.782-17.023,30.104c0,0-1.465,2.571-3.839,5.63c-2.345,3.092-5.695,6.542-8.626,8.691
					c-2.927,2.081-3.124,3.254,0.458,2.277c3.449-1.074,11.13-4.752,19.362-15.329c4.036-5.305,6.446-9.373,8.235-12.367
					l3.776-6.509c1.627-2.929,2.311-4.1,3.579-7.974c2.279,1.367,14.419,4.655,22.359,6.118c5.565,1.042,16.663,3.189,31.798,5.403
					c15.132,2.148,34.334,4.686,56.14,4.395c10.901-0.197,21.38-1.303,31.048-3.744c4.847-1.173,9.468-2.735,13.765-4.297
					c0.553-0.195,1.106-0.389,1.694-0.618c12.204,20.439,17.509,33.977,21.348,45.498c0.048,0.141,0.083,0.276,0.13,0.418
					c1.847,0.022,3.935-0.027,5.241-0.501c0.159-1.298,0.225-2.603,0.34-3.315c0.156-1.001,0.578-1.878,1.154-2.652
					c-0.595-1.664-1.173-3.25-1.723-4.689c-4.329-11.424-10.383-24.766-17.118-37.656l1.074-0.259
					c9.175-2.539,16.825-7.779,22.26-14.059c5.499-6.282,8.82-13.573,10.447-20.538c0-0.13,0.486-1.951,0.845-4.556
					C464.233,395.861,464.395,392.445,464.103,389.548z"/>
				<path style="fill:#231815;" d="M244.265,153.479c-5.184,2.201-6.366,3.197-1.529,2.436c2.415-0.383,6.338-1.204,12.014-2.576
					l9.846-2.487c3.769-1.01,7.844-2.078,12.579-3.029c18.904-3.724,36.976-4.71,54.275-5.106
					c17.328-0.323,33.997,0.189,50.639,1.184c16.635,1.041,25.013,1.192,22.318,0.169c-2.695-0.903-16.514-3.217-44.403-4.086
					c0,0.022-11.133-0.783-25.804-0.952c-14.658-0.213-32.882,0.509-46.796,2.594c-13.927,1.964-22.117,4.612-28.045,6.369
					C253.371,149.812,249.442,151.273,244.265,153.479z"/>
				<path style="fill:#231815;" d="M207.045,165.033c1.344-0.75,2.527-1.313,3.458-1.796c1.881-0.945,2.797-1.541,2.708-1.826
					c-0.086-0.278-1.169-0.246-3.254,0.259c-1.043,0.264-2.333,0.634-3.871,1.277c-1.507,0.68-3.401,1.465-5.174,3.502
					c-0.864,1.033-1.455,2.381-1.659,3.661c-0.203,1.284-0.133,2.473,0.009,3.566c0.337,2.167,0.721,4.075,1.624,6.172
					c1.825,4.075,5.241,6.633,8.359,8.416c6.41,3.506,12.478,5.158,17.709,6.928c10.532,3.306,18.116,6.134,22.896,8.2
					c4.777,2.044,6.849,3.003,6.29,2.4c-0.585-0.543-3.817-2.682-10.205-5.524c-12.77-5.64-23.684-8.508-32.316-12.734
					c-4.268-2.098-7.996-4.696-9.814-8.286c-0.915-1.715-1.309-3.82-1.681-5.795c-0.327-1.979-0.257-3.849,0.868-5.295
					C204.114,166.705,205.726,165.789,207.045,165.033z"/>
				<path style="fill:#231815;" d="M277.776,31.233c-5.657,3.741-11.759,16.442,5.883,15.292
					c10.911-0.712,10.12-10.269,10.12-10.269s0,0,0.241-4.06c0.239-4.062,0.321-5.416-10.593-4.704
					C272.52,28.202,283.427,27.492,277.776,31.233z"/>
				<path style="fill:#231815;" d="M431.822,159.881c7.596-1.084,7.596-10.848-3.254-10.848
					C426.4,149.034,424.232,160.965,431.822,159.881z"/>
				<path style="fill:#231815;" d="M383.411,96.911c-2.441,0-13.018-4.882-13.018-8.135c0-3.255-9.764-3.256-13.018-7.323
					c-3.251-4.068-14.645,1.626-15.459,6.507c0,0-1.627,4.068,3.255,4.882c4.882,0.815,8.136,3.256,15.459,6.509
					c7.323,3.255,5.695,0,16.273,3.255c6.077,1.869,4.068,4.068,4.068,4.068s4.882,2.441,7.323,4.07
					c2.441,1.627,9.764,7.323,12.204,8.948c2.441,1.627,0.814-4.066-6.509-8.948c-7.323-4.882-4.068-7.323-8.136-9.764
					C381.784,98.54,385.852,96.911,383.411,96.911z"/>
				<path style="fill:#231815;" d="M213.548,95.713c6.509-4.068,4.882-5.695,10.577-10.577c5.695-4.882,7.323-3.255,12.204-6.509
					c4.882-3.255-0.814-11.391-7.323-10.577c-6.509,0.812-19.066,7.556-26.036,12.204C195.648,85.136,207.038,99.781,213.548,95.713
					z"/>
				<path style="fill:#231815;" d="M316.713,208.421c1.811-2.547,3.083-5.746,3.699-8.718c0.168-0.756,0.305-1.519,0.413-2.284
					c0.099-0.698,0.207-1.573,0.28-3.003c0.114-2.558-0.079-5.081-0.636-7.116c-0.559-2.047-1.44-3.509-2.644-4.458
					c-0.591-0.467-1.386-0.896-2.358-1.001c-0.928-0.083-1.586,0.09-2.206,0.335c-1.246,0.542-2.355,1.289-3.731,3.463
					c-0.654,1.141-1.284,2.493-1.97,3.615l-0.505,0.877l-0.331,0.434l-0.632,0.799c-3.124,3.598-7.615,6.67-12.09,9.49
					c-4.532,2.828-9.258,5.419-13.934,8.052c-2.339,1.321-4.666,2.641-6.97,4.052c-1.15,0.696-2.291,1.438-3.426,2.198
					c-1.058,0.703-2.495,1.769-3.493,2.821c-4.094,4.259-6.515,8.816-8.842,13.207c-2.25,4.41-4.122,8.735-5.806,12.881
					c0,0-1.475,5.074-2.972,11.712c-1.519,6.636-3.02,14.847-3.773,21.057c-0.388,3.11-0.232,4.972,0.13,5.298
					c0.375,0.327,0.912-0.848,1.815-3.658l4.262-13.549c2.059-6.255,4.742-14.385,8.887-24.166
					c4.147-9.671,8.333-16.334,12.001-19.178c4.221-2.892,7.799-4.592,10.221-5.853c5.034-2.541,6.967-3.321,13.151-7.292
					c3.08-2.031,6.741-4.41,10.669-7.685c1.917-1.619,4.065-3.606,5.772-5.87l0.302-0.4l0.095-0.154l0.175-0.3l0.311-0.682
					c0.191-0.48,0.391-1.038,0.817-1.454c0.572-0.496,1.004,0.277,1.125,0.729c0.172,0.532,0.248,1.128,0.277,1.764
					c0.013,0.32,0.009,0.645-0.009,0.984c-0.019,0.383-0.127,1.37-0.242,2.048c-0.245,1.5-0.629,2.999-1.182,4.415
					c-1.036,2.731-3.21,5.412-5.562,8.054c-2.384,2.63-5.063,5.201-7.901,7.75c-5.702,5.058-10.749,9.23-15.084,12.624
					c-1.141,0.896-1.99,1.475-3.229,2.35c-1.119,0.871-2.126,1.788-2.918,2.818c-1.621,2.026-2.53,4.232-2.949,6.239
					c-0.839,4.048-0.178,7.235,0.388,9.678c0.165,0.655,0.34,1.254,0.512,1.821c-1.09,0.245-2.145,0.458-3.127,0.566l-0.566,0.038
					l-0.798,0.041c-0.693,0.046-1.303,0.194-1.869,0.364c-1.131,0.351-2.078,0.826-2.956,1.316
					c-1.735,0.999-3.185,2.096-4.519,3.162c-0.007-0.003-1.316,1.562-2.816,3.634c-1.513,2.07-3.223,4.661-4.513,6.574
					c-1.287,1.931-0.96,2.632,0.88,1.345c1.901-1.175,5.197-4.723,11.083-9.454c1.484-1.124,2.841-1.89,3.925-2.249
					c0.537-0.167,0.989-0.232,1.313-0.226c0.75,0.003,1.43-0.032,2.002-0.095c1.561-0.171,2.664-0.349,3.553-0.494
					c0.257,0.564,0.359,0.524,0.292-0.048c0.321-0.051,0.613-0.098,0.884-0.135c2.085-0.313,2.835-0.411,5.285-1.136
					c2.359-0.618,5.966-1.627,9.093-0.313c3.086,1.17,4.5,6.538,4.945,11.927c0.419,5.532,0.626,9.504,0.934,12.358
					c0.28,2.856,0.547,4.61,0.42,5.748c-0.149,1.136,0.464,0.252,1.252-2.859c0.718-3.12,1.843-8.448,1.398-16.382
					c-0.146-1.99-0.397-4.041-0.941-6.164c-0.578-2.104-1.281-4.345-3.143-6.468c-1.847-2.095-4.637-3.146-7.033-3.361
					c-2.435-0.25-4.678,0.027-6.782,0.407c-2.45,0.442-4.783,1.077-6.97,1.611c-0.105-1.076-0.191-2.257-0.181-3.655
					c0.038-3.898,1.001-9.56,6.204-12.761l2.352-1.359c0.871-0.533,1.71-1.081,2.568-1.654c1.703-1.146,3.445-2.376,5.238-3.703
					c3.585-2.654,7.386-5.656,11.334-9.163C309.285,217.014,313.236,213.344,316.713,208.421z"/>
				<path style="fill:#231815;" d="M238.887,312.79l1.631-17.897c0.349-3.339-0.518-4.036-2.003-1.122
					c-1.525,2.909-3.712,9.423-6.769,20.512c-3.108,11.083-5.057,15.64-6.211,18.421c-1.195,2.775-1.691,3.755-2.67,7.469
					c-1.989,7.397-5.981,20.015-13.386,34.69c-7.482,14.552-9.236,21.275-11.025,24.102c-0.931,1.367,0.404,0.623,3.518-2.841
					c3.073-3.476,7.92-9.743,13.231-19.615C225.974,356.749,233.481,330.898,238.887,312.79z"/>
				<path style="fill:#231815;" d="M282.429,279.773c1.338-0.841,1.847-1.346,2.895-1.54c1.891-0.534,4.669,1.343,6.519,4.381
					c1.872,3.024,3.051,5.358,3.973,7.037c0.899,1.689,1.443,2.817,1.471,3.606c-0.019,0.779,0.572,0.156,0.75-2.156
					c0.086-2.271-0.159-6.226-3.051-11.16c-1.513-2.341-3.629-5.103-7.577-6.061c-1.948-0.419-4.113-0.013-5.689,0.879l-0.979,0.553
					l-0.766,0.421c-0.524,0.273-1.084,0.516-1.649,0.75c-4.647,1.831-9.9,2.508-14.423,3.817c0.007,0.01-1.243,0.734-2.73,1.956
					c-1.516,1.19-3.032,3.243-3.397,4.939c-0.35,1.737,0.388,1.899,1.316,0.849c1.011-1.049,2.644-2.535,7.647-3.865
					c10.151-2.465,9.204-1.158,12.63-2.757C280.242,281,281.282,280.477,282.429,279.773z"/>
				<path style="fill:#231815;" d="M275.135,348.258c1.843-1.087,4.939-3.251,7.933-7.71c2.164-3.201,3.671-7.189,4.396-11.296
					c1.605,0.618,4.328,1.51,8.565,0.723c1.093-0.23,2.231-0.61,3.343-1.212c0.299-0.158,0.515-0.291,0.865-0.52
					c0.388-0.264,0.753-0.601,1.039-0.934c0.582-0.666,0.918-1.322,1.198-1.948c1.023-2.498,1.147-4.7,1.284-6.863
					c0.172-4.296-0.175-8.252-0.194-11.575c0.01-0.011-1.678-3.752-2.438-5.964c-0.807-2.215-2.638-0.385-2.015,7.442
					c0.407,7.857-0.725,6.685-0.311,9.245c0.143,1.256,0.254,3.027-0.089,4.899c-0.159,0.901-0.55,1.88-0.934,2.179
					c-0.769,0.58-1.901,1.092-3.134,1.383c-2.498,0.562-4.43,0.925-5.848,1.317c-0.448,0.116-0.769,0.202-1.125,0.297
					c0.137-1.085,0.271-2.171,0.289-3.251c0.156-5.719-1.131-11.038-2.422-15.308c0.038-0.051-3.105-4.413-5.111-6.725
					c-1.004-1.204-1.688-0.974-1.478,0.523c0.159,1.524,1.22,4.348,2.758,9.076c1.449,4.774,1.259,6.957,1.243,8.227
					c-0.079,1.281-0.172,1.732,0.038,3.345c0.394,3.164,0.149,9.12-3.671,15.24c-3.88,5.896-5.231,8.943-6.277,10.023
					C272.478,349.356,273.247,349.324,275.135,348.258z"/>
				<path style="fill:#231815;" d="M203.371,477.685c2.708,0.005,5.139-0.607,6.274-1.63c1.22-1.014,1.31-2.393,0.998-3.115
					c-1.189-1.47-0.502-1.343-10.501-3.872c-4.717-1.278-9.814-2.983-14.785-4.879c-2.488-0.95-4.958-1.958-7.307-3.016
					c-1.173-0.527-2.317-1.071-3.391-1.618l-1.538-0.82c-0.547-0.324-1.262-0.725-1.824-1.023
					c-9.478-5.063-17.372-10.204-22.823-14.642c-5.419-4.368-10.58-9.061-15.805-14.852c-5.181-5.813-10.431-12.768-15.325-21.839
					c-4.958-9.006-12.262-23.454-16.762-39.154c-4.71-15.619-6.598-32.186-6.712-43.151c-0.089-5.889-1.808-8.473-4.456-9.04
					c-2.619-0.551-6.077,1.039-9.007,3.764c-2.924,2.721-5.314,4.186-6.22,6.592c-0.887,2.389-0.347,5.843,3.134,12.149
					c3.493,6.266,5.114,13.845,6.595,21.336c1.437,7.472,2.74,14.86,4.65,20.123c1.847,5.268,6.741,15.898,12.767,25.259
					c5.918,9.441,12.789,17.547,15.116,20.387c2.257,2.892,11.2,13.492,21.923,22.533c10.584,9.177,22.709,16.799,26.57,19.052
					C172.663,471.659,192.387,477.801,203.371,477.685z"/>
				<path style="fill:#231815;" d="M361.748,308.288c0.48,1.313,1.935,2.026,4.462,3.213c2.517,1.168,6.128,2.939,10.625,5.842
					c8.998,5.822,12.532,11.205,19.784,15.669c3.623,2.225,8.384,4.905,13.342,7.469c4.987,2.514,9.853,5.049,13.876,7.544
					c7.996,4.987,10.164,7.882,14.01,10.572c3.82,2.816,8.67,7.801,12.147,12.87c0.858,1.314,1.182,1.859,1.446,1.478
					c0.251-0.362,0.226-1.61-0.172-3.057c-0.75-2.967-3.105-6.829-5.158-9.18c-2.012-2.398-6.28-6.905-12.668-12.064
					c-3.182-2.592-6.878-5.363-11-8.23c-2.059-1.43-4.23-2.887-6.487-4.359c-2.193-1.43-4.437-2.952-6.706-4.558
					c-9.093-6.415-16.622-12.815-23.157-18.804c-6.528-5.936-12.319-11.66-19.069-15.562c0.038-0.011-3.642-2.244-6.795-3.011
					c-3.156-0.783-5.149-0.605-1.602,2.111c3.426,2.879,3.629,5.427,3.471,7.332C361.895,305.507,361.256,306.987,361.748,308.288z"
					/>
				<path style="fill:#231815;" d="M160.731,342.008c-2.409,0.019-3.267-0.027-6.34,0.149l-1.205,0.046l-1.913-0.054l-1.036-0.038
					l-1.316-0.118l-2.733-0.254c-3.681-0.374-7.571-0.76-9.903-0.548c-1.144,0.108-1.894,0.315-2.657,0.505
					c-0.756,0.249-1.475,0.288-2.266,0.934l0.061,0.868l0.483,0.512c0.362,0.316,0.725,0.539,1.157,0.866
					c0.871,0.618,1.786,1.326,3.617,2.163c4.021,1.681,8.511,3.104,12.033,3.977c0.915,0.23,1.659,0.388,2.371,0.536l1.665,0.281
					c1.046,0.159,2.002,0.267,2.87,0.342c3.487,0.299,5.591,0.095,6.945,0.242c1.367,0.108,0.232-0.342-3.337-1.441
					c-1.783-0.564-4.17-1.338-7.157-2.392l-0.613-0.261l-0.309-0.175l-0.477-0.307l-0.502-0.433l-0.321-0.284l0.207-0.135
					l0.394,0.018l2.504,0.105c10.138,0.401,20.061-1.862,27.314-6.353l0.442-0.485l0.105-0.228l0.191-0.089
					c0.159,0,0.124-0.083,0.534,0.021l1.278,0.374c0.884,0.286,1.824,0.657,2.752,1.096c1.863,0.877,3.642,2.104,4.894,3.34
					c1.649,1.691,2.447,2.029,1.85,0.156c-0.337-0.909-1.119-2.358-2.759-4.044c-0.82-0.839-1.85-1.732-3.131-2.598
					c-0.639-0.435-1.341-0.863-2.11-1.275l-1.205-0.602c-0.356-0.167-1.246-0.542-1.891-0.748c-0.42,0.06-0.833,0.043-1.189,0.156
					l-1.153,0.362c-0.97,0.73-1.179,0.823-1.739,1.176c-0.493,0.303-1.027,0.594-1.573,0.89c-0.308,0.159-0.582,0.261-0.88,0.404
					c0.667-2.687,1.437-8.039,1.478-16.269c0.006-7.206-1.341-15.635-4.297-23.012c-2.873-7.405-6.656-13.846-9.5-19.298
					c0.013-0.035-5.393-5.155-8.311-8.324c-3-3.161-3.757,0.885,3.791,13.454c3.652,6.36,4.593,9.344,5.158,11.148
					c0.54,1.818,0.661,2.492,1.818,4.583c2.358,4.159,5.177,11.893,5.536,22.476c0.382,9.023,2.428,13.401,3.115,15.799
					c-3.054,1.321-5.616,1.915-7.551,2.279C163.528,341.917,161.933,341.978,160.731,342.008z"/>
				<path style="fill:#231815;" d="M196.226,351.609c-0.756-0.577-1.818-1.162-3.102-1.298c-1.278-0.173-2.584,0.129-3.725,0.605
					c-1.15,0.49-2.174,1.163-3.159,1.93c-1.023,0.787-1.71,1.403-2.74,2.079c-3.906,2.63-7.246,3.755-9.668,4.513
					c-2.46,0.701-4.106,1.017-5.365,1.198c-2.514,0.366-3.426,0.431-6.604,1.055c-0.798,0.164-1.672,0.284-2.616,0.421l-1.472,0.173
					l-0.775,0.08l-0.397,0.041l-0.636,0.032l-2.625,0.132c-0.918,0.083-1.929,0.162-2.762,0.356c-1.761,0.365-2.93,0.95-3.789,1.91
					c-0.448,0.413-0.788,1.476-0.448,2.19c0.255,0.71,0.715,1.266,1.322,1.816c1.185,1.092,3.251,2.059,5.648,2.747
					c2.575,0.691,3.82,0.855,5.708,1.079c1.761,0.189,3.528,0.303,5.352,0.388c14.563,0.423,20.201-2.048,23.074-2.107
					c0.086-0.006,0.133-0.016,0.2-0.024c-1.157,0.585-2.358,1.258-3.62,2.091c-3.165,2.104-5.285,3.738-6.884,4.92
					c-1.557,1.154-2.59,1.826-3.394,2.329c-1.615,0.976-2.212,1.303-4.049,2.803c-1.348,1.081-3.102,2.372-5.292,3.558
					c-1.09,0.582-2.298,1.146-3.572,1.5c-0.423,0.124-0.846,0.165-1.268,0.222c-0.505-0.288-0.992-0.585-1.437-0.891l-3.401,3.982
					c0.725,0.639,0.893,0.633,1.287,0.842c0.334,0.146,0.658,0.251,0.963,0.327c0.607,0.149,1.182,0.216,1.71,0.225
					c0.124,0.003,0.235-0.014,0.359-0.017c1.376,0.634,2.822,1.185,4.395,1.64c5.46,1.518,9.617,0.392,12.039-0.788
					c2.485-1.225,3.592-2.446,4.481-2.978c0.884-0.593-0.083-0.323-2.768,0.359c-2.355,0.55-6.204,1.206-11.209-0.094
					c0.188-0.087,0.388-0.162,0.575-0.251c3.029-1.482,5.711-3.304,8.244-5.153c2.524-1.829,4.879-3.857,7.021-5.518
					c2.186-1.681,4.338-3.169,6.398-4.295c0.003,0.01,1.227-1.192,2.991-2.457c1.732-1.25,4.195-2.587,6.013-2.369
					c0.861,0.083,1.357,0.356,1.615,0.254c0.235-0.068,0.369-0.788-0.731-1.584c-1.074-0.775-3.156-1.085-5.591-0.515
					c-1.392,0.311-2.93,0.895-4.57,1.699c-0.277-0.156-1.672-0.383-4.256-0.602c-3.947-0.388-10.692-0.586-20.067-1.246
					c-2.358-0.195-4.678-0.399-6.91-0.893l-0.75-0.178l-0.197-0.068l-0.381-0.181c-0.394-0.267,0.178-0.415,0.394-0.412l1.322-0.073
					c1.329-0.067,2.651-0.167,3.966-0.308c10.469-1.15,20.474-4.413,27.508-10.037c-0.01,0.104,1.421-1.95,3.451-2.838
					c0.944-0.413,2.139-0.264,3.436,0.701c1.258,0.912,2.422,2.177,3.445,3.205c2.126,2.08,2.911,1.842,1.557-0.537
					c-0.324-0.61-0.756-1.386-1.367-2.344C198.47,354.013,197.736,352.82,196.226,351.609z"/>
			</g>
			<path style="fill:#231815;" d="M51.582,420.358c-7.593-10.847-13.015-10.847-4.339-24.951
				c8.677-14.103,13.018-9.765,14.102-1.085c1.084,8.68-2.171,9.763-2.171,16.272C59.175,417.103,51.582,420.358,51.582,420.358z"/>
			<path style="fill:#231815;" d="M37.48,450.733c-4.341-6.509-6.509-14.103,1.084-17.358c7.593-3.255,9.766,19.527,11.934,26.036
				c2.168,6.509-2.17,11.934-8.679,15.189C35.309,477.855,37.48,450.733,37.48,450.733z"/>
			<path style="fill:#231815;" d="M80.872,460.497c-5.425-2.169-7.596-14.103-2.171-16.273s9.766,4.34,10.85,9.764
				C90.636,459.412,80.872,460.497,80.872,460.497z"/>
			<path style="fill:#231815;" d="M102.57,221.833c0-18.442,3.252-23.865,11.931-31.46c8.68-7.594,10.847-13.02,9.763-2.171
				c-1.084,10.849-4.335,30.374-8.677,32.545C111.247,222.918,102.57,221.833,102.57,221.833z"/>
			<path style="fill:#231815;" d="M147.046,141.555c6.509-7.594,21.695-20.614,19.527-8.68c-2.168,11.934-3.255,21.696-9.764,22.782
				C150.301,156.742,147.046,141.555,147.046,141.555z"/>
			<path style="fill:#231815;" d="M80.872,268.481c-5.425-6.509,0-19.527,3.255-19.527s7.596-0.002,8.679,10.847
				C93.89,270.65,80.872,268.481,80.872,268.481z"/>
			<path style="fill:#231815;" d="M107.992,325.977c6.509-7.594,29.293-17.356,27.123-11.933c-2.17,5.424-4.341,3.255-10.85,13.018
				c-6.509,9.764-2.168,17.356-10.847,18.442C104.738,346.589,107.992,325.977,107.992,325.977z"/>
			<path style="fill:#231815;" d="M115.588,378.049c0-10.849,8.68-24.951,13.018-18.442c4.339,6.509-2.174,11.934-1.087,19.527
				C128.606,386.727,115.588,378.049,115.588,378.049z"/>
			<path style="fill:#231815;" d="M380.287,317.299c0,0-8.68,11.931-2.171,14.102c6.509,2.171,14.105-1.084,14.105-1.084
				L380.287,317.299z"/>
			<path style="fill:#231815;" d="M409.577,336.826c0,0,18.44,7.594,4.338,9.763C399.814,348.758,392.221,334.657,409.577,336.826z"
				/>
		</g>
	</g>
</g>
</svg>
