<?xml version="1.0" encoding="iso-8859-1"?>
<!-- Generator: Adobe Illustrator 21.1.0, SVG Export Plug-In . SVG Version: 6.00 Build 0)  -->
<svg version="1.1" id="_x31_1" xmlns="http://www.w3.org/2000/svg" xmlns:xlink="http://www.w3.org/1999/xlink" x="0px" y="0px"
	 viewBox="0 0 512 512" style="enable-background:new 0 0 512 512;" xml:space="preserve">
<g>
	<path style="fill:#34AD37;" d="M103.682,211.579c-27.655-22.534-36.873-76.82-40.971-91.16c-4.097-14.34-27.52-36.6-10.675-48.26
		C68.882,60.5,85.246,52.818,85.246,52.818S119.046,8.775,187.672,6.726s151.591,18.437,192.562,54.286
		c40.971,35.849,63.504,78.868,69.65,102.427s33.801,87.063,0,149.543c-33.801,62.48-84.786,64.288-122.798,62.36
		c-38.012-1.928-54.278-25.606-56.449-30.608c-2.171-5.001-2.664,0.472,1.024,16.388c3.688,15.917,9.218,59.407-6.146,83.99
		c-15.364,24.582-21.51,25.607-31.752,34.825c-10.243,9.218-37.898,33.801-27.655,19.461c10.243-14.34,19.461-27.655,14.34-24.582
		c-5.121,3.073-52.238,27.655-65.553,32.776c-13.316,5.121-9.805-5.055,11.486-14.819c21.29-9.764,39.064-23.667,43.824-25.128
		c4.76-1.461-43.704,12.047-49.165,11.267c-7.17-1.024-74.771,24.582-57.359,12.291c17.412-12.291,30.728-18.437,30.728-18.437
		s-51.919,17.038-59.407,16.388s46.092-22.534,46.092-22.534s-63.19,10.305-44.398,4.64c18.792-5.665,53.617-16.931,75.126-28.198
		c21.51-11.267,24.582-22.534,5.121-41.995c-19.461-19.461-19.461-19.461-19.461-19.461l-29.274-56.249
		c0,0-18.866-15.45-32.182-40.032c-13.315-24.582,0.056-44.999,10.783-54.251c10.727-9.253,10.727-9.253,10.727-9.253
		L103.682,211.579z"/>
	<path style="fill:#FFFFFF;" d="M234.8,137.96c-4.109-0.128-38.934,30.6-52.249,54.158c-13.316,23.558-31.752,30.728-34.825,32.777
		c-3.073,2.048,0,9.218,0,9.218s14.34,5.121,19.461,10.243c9.218-16.388,31.397-21.828,48.987-20.133
		c17.59,1.696,36.071,4.602,36.071,4.602s21.466-24.416,25.563-40.804c4.097-16.388-26.631-19.461-39.946-26.631
		C224.546,154.22,234.8,137.96,234.8,137.96z"/>
	<g>
		<path style="fill:#231815;" d="M159.271,213.902c-12.312,10.275-26.322,14.809-40.832,6.476
			c-15.959-9.165-27.912-26.067-35.761-42.348c-3.732-7.742-6.343-15.974-9.03-24.121c-1.507-4.568-4.46-23.122-9.579-25.176
			c-6.758-2.713-5.234,11.346-4.749,15.005c1.306,9.862,5.05,19.242,9.983,27.816c15.872,27.587,45.835,73.062,83.002,52.732
			c17.837-9.757,31.091-28.164,43.009-44.141c5.789-7.761,11.257-15.883,18.157-22.731c6.8-6.75,14.327-12.896,21.332-19.453
			c1.617-1.514,6.619-4.391,4.087-6.522c-3.114-2.62-12.005,4.071-13.87,5.559c-8.508,6.785-16.377,15.342-22.893,24.033
			C188.603,179.064,176.709,199.216,159.271,213.902z"/>
		<path style="fill:#231815;" d="M43.049,79.406c-1.392,8.033,2.79,15.875,6.005,22.947c2.281,5.017,4.122,15.071,9.728,17.681
			c8.059,3.751,8.368-5.752,5.324-10.371c-3.902-5.92-9.944-9.96-13.692-16.276c-4.406-7.425-5.581-15.099,1.624-21.227
			c3.478-2.958,17.359-6.202,16.845-11.66c-0.689-7.323-11.654,1.202-14.326,3.277C49.4,67.778,44.179,72.678,43.049,79.406z"/>
		<path style="fill:#231815;" d="M166.579,80.979c-11.222-0.801-16.263,2.844-19.586,13.488c-2.277,7.295-6.233,16.644-5.116,24.377
			c1.535,10.625,10.205,6.833,10.982-2.033c0.781-8.907-2.928-18.247,0.896-27.013c3.504-8.034,14.433-4.907,21.231-3.368
			c6.015,1.362,20.939,8.427,26.633,4.515c9.041-6.211-9.052-6.752-11.375-6.93C182.299,83.406,174.509,81.692,166.579,80.979z"/>
		<path style="fill:#231815;" d="M73.632,56.326c8.397-12.515,17.313-21.017,30.637-27.952c15.457-8.046,31.252-16.354,47.872-21.73
			c30.687-9.926,63.976-7.256,95.204-1.546c16.712,3.055,33.198,7.301,49.369,12.505c13.951,4.49,28.826,7.759,42.099,13.992
			c13.843,6.501,27.434,17.199,39.893,26.042c11.991,8.511,24.186,16.806,33.164,28.628c10.655,14.03,19.954,29.755,26.703,45.998
			c5.486,13.204,15.901,23.72,17.785,38.436c-0.322-4.055-8.333-8.916-10.545-12.467c-3.142-5.043-5.369-10.652-7.733-16.082
			c-5.591-12.841-13.536-24.08-19.105-36.871c-6.069-13.939-19.989-25.34-31.028-35.437c-10.271-9.394-21.23-16.342-33.657-22.555
			c-28.137-14.067-57.829-22.928-88.032-31.304c-34.878-9.672-69.804-13.607-105.114-3.424
			c-17.316,4.994-32.344,15.288-47.347,24.88C102.356,44.755,87.051,53.351,73.632,56.326z"/>
		<path style="fill:#231815;" d="M261.435,222.861c2.367-3.488,14.892-16.949,13.079-21.543c-3.846-9.745-9.45,9.882-10.347,11.89
			c-1.824,4.082-4.092,7.723-6.867,11.21c-2.096,2.634-8.866,7.877-8.241,11.556c0.843,4.959,5.145-1.829,5.964-3.11
			C257.162,229.518,259.19,226.148,261.435,222.861z"/>
		<path style="fill:#231815;" d="M200.477,336.771c-38.288,9.871-83.026-1.653-109.224-31.515
			c-12.512-14.262-21.644-33.376-16.041-52.56c2.363-8.09,7.298-14.542,11.597-21.621c4.741-7.808-2.166-3.128-5.567,0.148
			c-32.488,31.295-3.052,74.609,26.966,94.135c33.762,21.961,79.969,20.798,116.17,6.315c19.889-7.957,43.51-19.431,58.658-34.951
			c7.509-7.693,13.77-16.895,20.922-24.985c3.408-3.856,6.84-7.877,9.254-12.449c0.555-1.052,3.362-10.519,2.334-10.044
			c-2.433,1.124-5.901,8.966-7.652,11.176c-4.146,5.232-8.876,9.971-13.226,15.027c-8.905,10.348-14.988,20.884-26.452,28.845
			C247.625,318.591,225.065,331.064,200.477,336.771z"/>
		<path style="fill:#231815;" d="M223.329,242.138c-10.366,3.475-20.054,8.686-29.385,14.321
			c-7.078,4.275-18.064,9.229-21.836,16.982c-2.49,5.117,0.241,5.872,4.617,3.186c4.198-2.577,7.577-6.459,11.102-9.818
			c6.783-6.461,14.393-12.02,22.63-16.501c8.285-4.507,17.158-7.739,26.571-8.814c5.371-0.613,10.982-0.542,16.268,0.7
			c2.575,0.605,10.269,4.874,12.757,3.643c6.214-3.075-15.132-7.864-17.826-7.923C239.791,237.732,231.301,239.518,223.329,242.138z
			"/>
		<path style="fill:#231815;" d="M243.803,252.081c-4.411,0.286-21.351,2.861-21.579,8.81c-0.34,8.879,13.37-4.26,15.965-5.246
			c4.228-1.607,8.355-1.32,12.751-0.598c1.797,0.295,7.843,2.991,9.162,0.347C262.689,250.206,246.633,251.891,243.803,252.081z"/>
		<path style="fill:#231815;" d="M243.803,264.672c-4.411,0.286-21.351,2.862-21.579,8.809c-0.34,8.879,13.37-4.26,15.965-5.246
			c4.228-1.607,8.355-1.319,12.751-0.598c1.797,0.295,7.844,2.991,9.162,0.347C262.688,262.798,246.633,264.483,243.803,264.672z"/>
		<path style="fill:#231815;" d="M194.092,286.728c-13.291,1.12-27.668,1.342-40.39-3.27c-4.719-1.711-8.883-4.232-12.804-7.352
			c-2.812-2.238-8.654-10.771-12.173-10.702c-4.605,0.091,0.494,8.277,1.633,9.819c3.217,4.357,7.697,7.141,12.618,9.193
			c11.206,4.672,23.608,5.647,35.623,5.424c6.722-0.125,68.369-3.638,68.34-7.812C246.902,277.025,200.276,286.133,194.092,286.728z
			"/>
		<path style="fill:#231815;" d="M451.71,171.221c9.743,15.731,14.058,36.829,16.329,54.917c2.979,23.726,0.261,47.078-7.151,69.767
			c-7.104,21.743-17.591,40.773-36.44,54.344c-8.64,6.22-17.476,10.515-27.099,14.881c-1.653,0.75-12.83,10.329-14.601,4.582
			c0.962,3.121,11.079-6.638,10.551-6.287c9.69-6.443,19.797-11.293,28.866-18.822c19.162-15.909,28.162-38.38,33.942-62.08
			c5.738-23.527,5.506-47.345,0.91-71.056C455.806,205.225,444.412,175.336,451.71,171.221z"/>
		<path style="fill:#231815;" d="M158.108,440.41c12.457-6.595,16.932-15.361,11.414-28.856
			c-4.792-11.722-16.437-19.709-24.209-29.37c-8.473-10.533-14.283-22.894-20.702-34.709c-3.024-5.565-5.797-11.383-9.145-16.759
			c-3.284-5.273-7.444-6.021-7.568,1.521c-0.204,12.441,9.154,25.436,16.516,34.744c8.014,10.132,16.071,19.823,25.552,28.628
			c7.796,7.24,25.166,22.336,16.055,34.46c-7.525,10.013-25.776,13.335-37.055,16.657c-7.946,2.341-15.937,4.556-23.804,7.157
			c-6.095,2.015-11.734,5.268-17.711,7.335c-3.774,1.305-8.131,1.641-12.006,3.296c-2.817,1.203-5.306,3.344-8.043,4.498
			c-0.237,0.1-3.912,1.284-3.055,0.04c-2.793,4.056,11.955,2.294,12.348,2.211c2.687-0.572,10.979-0.891,10.511-4.449
			c1.392,0.763,2.57,0.662,3.897,0.399c2.761-0.548,6.368-3.689,9.034-4.933c4.276-1.994,8.686-3.705,13.109-5.34
			C128.162,451.427,143.843,447.548,158.108,440.41z"/>
		<path style="fill:#231815;" d="M218.158,440.384c1.483-6.208,0.533-12.577-0.463-18.772c-1.164-7.239-1.191-15.094-3.172-22.141
			c-1.602-5.698-5.821-10.144-8.586-15.295c-2.953-5.5-5.631-11.114-8.982-16.397c-3.456-5.449-7.251-10.86-11.348-15.847
			c-3.342-4.068-8.78-7.935-7.681,0.094c1.531,11.193,12.409,19.895,18.796,28.458c3.3,4.424,6.184,9.097,9.555,13.478
			c4.423,5.748,5.154,11.264,6.312,18.327c1.907,11.627,6.518,24.277-0.955,34.909c-6.695,9.526-21.029,14.178-31.513,17.946
			c-3.103,1.115-27.893,7.869-23.255,11.714c3.237,2.684,15.708-3.205,18.63-4.374c5.751-2.301,11.393-4.866,16.903-7.694
			C203.194,459.249,215.13,453.213,218.158,440.384z"/>
		<path style="fill:#231815;" d="M274.913,421.318c2.595-14.818,3.378-29.492,0.438-44.28c-2.381-11.972-2.753-25.787-6.883-37.306
			c-2.429-6.774-6.954-6.695-8.918-0.035c-2.159,7.321,0.531,15.641,3.324,22.375c5.092,12.278,9.865,24.253,10.034,37.749
			c0.174,13.869-2.485,27.526-7.355,40.492c-2.619,6.973-5.905,13.867-10.545,19.741c-2.71,3.43-9.807,8.056-10.536,12.476
			c-0.943,5.717,4.902,2.788,7.846,0.756c5.57-3.844,9.148-10.45,11.95-16.439C269.5,445.662,272.721,433.431,274.913,421.318z"/>
		<path style="fill:#231815;" d="M313.335,376.428c10.641,2.265,21.479,3.501,32.339,4.04c7.57,0.376,18.491,1.919,24.609-3.827
			c2.822-2.65,3.762-5.763-0.609-6.953c-3.519-0.958-9.447,1.79-12.798,2.781c-9.803,2.896-19.576,3.653-29.788,2.872
			c-9.568-0.732-18.827-2.985-27.728-6.569c-4.533-1.825-9.024-3.958-12.946-6.907c-1.242-0.934-7.475-7.768-9.501-6.86
			c-6.866,3.077,8.381,12.434,10.394,13.366C295.464,372.146,304.566,374.562,313.335,376.428z"/>
		<path style="fill:#231815;" d="M143.255,231.728c-6.088-1.03-29.298-2.053-30.829,7.219c-1.186,7.181,7.443,1.211,9.795-0.372
			c4.096-2.757,8.087-4.408,13.141-4.857c5.742-0.51,11.447,0.712,16.511,3.524c1.828,1.015,8.766,8.895,10.62,7.827
			C170.244,240.606,144.671,231.975,143.255,231.728z"/>
		<path style="fill:#231815;" d="M258.572,129.684c-5.819-15.289-22.735-16.434-34.92-8.064c-2.179,1.496-6.049,4.042-2.706,6.482
			c2.159,1.576,7.362-1.397,9.228-2.509c5.617-3.348,10.243-8.366,17.309-4.894c5.939,2.918,12.508,11.066,6.263,16.408
			c-3.145,2.69-19.747,5.074-19.205,10.262c0.477,4.562,12.278-3.195,14.187-4.166C253.949,140.547,261.15,136.819,258.572,129.684z
			"/>
		<path style="fill:#231815;" d="M181.793,123.966c-3.876,3.398-6.753,3.063-11.435,3.878c-3.777,0.658-6.189,1.73-4.699,6.731
			c2.994,10.051,13.393-3.384,17.294-6.607c3.073-2.539,15.278-8.226,9.198-13.058C187.738,111.404,184.897,121.106,181.793,123.966
			z"/>
		<path style="fill:#231815;" d="M115.787,213.363c-8.582-10.026,5.639-15.144,5.059-0.797
			C117.524,214.579,116.924,213.263,115.787,213.363z"/>
		<path style="fill:#231815;" d="M146.601,214.283c-4.193-4.585-0.12-15.311,6.782-13.607
			C154.574,205.833,148.386,212.606,146.601,214.283z"/>
		<path style="fill:#231815;" d="M114.715,239.834c-0.293,3.327-4.839,11.952-1.075,13.952c6.856,3.644,3.671-6.317,3.399-8.527
			c-0.428-3.48,3.053-13.356-0.11-14.978C112.171,227.843,114.86,237.798,114.715,239.834z"/>
		<path style="fill:#231815;" d="M95.108,233.223c-0.318,3.666-3.448,18.38,0.232,20.394c7.89,4.318,2.871-10.596,2.501-12.712
			c-0.565-3.232-0.735-6.154-0.024-9.362c0.638-2.877,4.714-7.75,3.969-10.407C99.527,213.071,95.325,230.97,95.108,233.223z"/>
		<path style="fill:#231815;" d="M194.386,222.581c-14.858,2.759-24.899,12.411-33.617,24.1
			c-6.162,8.262-15.669,20.975-10.584,31.805c1.228,2.615,8.131,9.431,8.437,3.439c0.126-2.462-2.924-6.113-3.036-9.136
			c-0.126-3.402,0.855-7.119,1.837-10.35c3.191-10.502,10.522-21.722,18.869-28.87c11.084-9.492,25.91-10.609,39.882-9.345
			c2.838,0.257,35.665,7.648,36.071,4.602C253.334,220.635,199.901,221.136,194.386,222.581z"/>
		<path style="fill:#231815;" d="M171.56,492.521c8.983-5.316,18.093-10.542,27.498-15.085c3.655-1.766,16.01-6.075,15.909-11.251
			c-0.142-7.23-12.76,2.789-14.921,4.493c-4.695,3.701-9.505,7.144-14.509,10.437c-6.257,4.117-12.63,7.987-19.155,11.659
			c-6.777,3.814-19.999,8.784-24.197,15.646c-5.076,8.298,6.695-0.202,8.742-1.849C157.459,501.32,164.36,496.801,171.56,492.521z"
			/>
		<path style="fill:#231815;" d="M202.248,493.085c4.514-4.272,9.347-8.605,14.734-11.769c2.712-1.593,12.318-4.59,11.779-8.698
			c-1.259-9.606-19.152,10.096-21.141,12.061c-4.416,4.363-8.999,8.465-13.64,12.588c-2.075,1.843-11.106,7.464-9.915,11.227
			C185.47,512.932,199.605,495.609,202.248,493.085z"/>
		<path style="fill:#231815;" d="M227.108,485.468c3.204-3.106,6.835-6.462,11.077-8.045c2.564-0.956,8.286-0.553,9.455-3.697
			c1.372-3.685-2.318-4.658-5.235-4.086c-3.293,0.645-6.697,4.357-9.032,6.473c-3.248,2.943-6.194,6.187-9.476,9.095
			c-2.496,2.211-9.443,5.859-10.667,8.958c-1.738,4.403,1.775,3.538,4.24,1.821C220.941,493.571,224.027,488.461,227.108,485.468z"
			/>
		<path style="fill:#231815;" d="M108.71,485.712c6.637-3.463,13.508-6.779,20.68-8.983c4.561-1.402,14.077-1.218,17.41-4.928
			c6.414-7.14-9.332-3.56-12.185-2.207c-6.695,3.175-13.244,6.802-19.777,10.299c-6.686,3.579-13.516,6.838-20.344,10.135
			c-2.306,1.113-13.563,4.682-13.209,8.507c0.43,4.643,8.965-2.017,10.674-3.123C97.399,491.892,102.972,488.725,108.71,485.712z"/>
		<path style="fill:#231815;" d="M94.01,476.873c7.01-3.496,14.429-6.974,22.169-8.482c3.902-0.761,11.101,0.109,14.28-2.605
			c7.334-6.259-8.278-4.75-11.299-3.59c-5.664,2.176-11.194,5.065-16.605,7.797c-4.584,2.315-35.948,14.03-35.04,18.513
			C68.342,492.592,90.203,478.78,94.01,476.873z"/>
		<path style="fill:#231815;" d="M344.809,265.849c-4.184-2.029-31.943-17.549-35.863-9.645c-2.564,5.168,8.08,4.89,10.449,5.014
			c6.257,0.327,12.208,1.715,18.078,3.939c3.575,1.354,27.229,17.517,29.464,14.896
			C369.933,276.542,348.146,267.463,344.809,265.849z"/>
		<path style="fill:#231815;" d="M290.297,193.352c7.036,4.484,17.23,12.738,19.376,21.132c3.047,11.922-13.781,8.8-20.307,7.524
			c-5.667-1.108-20.325-0.54-20.992-8.125C267.814,207.534,283.569,183.504,290.297,193.352z"/>
		<path style="fill:#231815;" d="M280.49,32.159c9.368-0.002,19.676-0.386,28.51,3.271c3.785,1.567,7.229,3.865,9.656,7.226
			c1.103,1.527,1.956,3.212,2.617,4.972c1.446,3.849,2.35,5.361-1.135,7.249c-5.026,2.723-14.547-0.797-19.556-1.847
			c-4.829-1.013-10.861-0.323-15.478-1.841C278.919,49.154,276.237,30.836,280.49,32.159z"/>
		<path style="fill:#231815;" d="M386.45,77.741c-10.024,0.738-14.427,15.214-9.4,22.861c3.934,5.985,12.341,6.289,18.122,9.634
			c3.266,1.89,6.205,4.451,8.93,7.037c3.184,3.021,3.32,4.972,6.902,1.682C426.321,104.884,392.043,87.257,386.45,77.741z"/>
		<path style="fill:#231815;" d="M376.837,160.266c-10.604-4.466-17.667-29.975-1.081-30.047
			c10.271-0.045,20.618,13.25,26.529,20.469c4.023,4.913,8.661,11.328,9.105,17.905c0.41,6.07-4.151,12.403-10.73,12.239
			C389.561,180.554,386.486,163.881,376.837,160.266z"/>
		<path style="fill:#231815;" d="M449.406,202.51c-10.729,3.626-7.791,17.094-6.435,25.523c1.066,6.624,1.191,22.365,10.056,23.52
			c9.801,1.277,9.452-12.949,9.217-19.217C461.81,220.755,459.37,209.613,449.406,202.51z"/>
		<path style="fill:#231815;" d="M332.65,263.177c5.855,7.897,11.003,19.17,11.14,29.107c0.148,10.77-11.239,17.443-16.798,6.22
			c-2.605-5.259-4.645-9.628-8.829-14.001c-2.765-2.89-5.814-5.536-9.011-7.938c-1.146-0.86-3.309-1.794-4.159-2.917
			c-1.833-2.423-1.664-0.418-0.846-3.737C307.552,256.099,323.497,261.048,332.65,263.177z"/>
		<path style="fill:#231815;" d="M225.488,27.705c-8.08,2.885-15.752,1.024-23.832,4.413c-5.086,2.133-12.33,4.904-16.772,0
			c11.906-8.92,26.624-17.366,41.613-19.309c5.017-0.651,10.981,1.045,9.623,7.671C235.164,25.138,229.663,27.009,225.488,27.705z"
			/>
		<path style="fill:#231815;" d="M175.175,9.168c8.229-1.175-3.282,6.913-5.198,7.659c-1.91,0.744-20.133,4.888-20.356,0.403
			C149.397,12.732,171.482,9.695,175.175,9.168z"/>
	</g>
</g>
</svg>
