<?xml version="1.0" encoding="iso-8859-1"?>
<!-- Generator: Adobe Illustrator 22.1.0, SVG Export Plug-In . SVG Version: 6.00 Build 0)  -->
<svg version="1.1" id="_x34_" xmlns="http://www.w3.org/2000/svg" xmlns:xlink="http://www.w3.org/1999/xlink" x="0px" y="0px"
	 viewBox="0 0 512 512" style="enable-background:new 0 0 512 512;" xml:space="preserve">
<g>
	<path style="fill:#FFFFFF;" d="M198.919,193.765c0,0-150.528,0-165.369,0c-14.84,0-31.801,8.48-31.095,28.268
		c0.707,19.788,24.735,24.734,24.735,24.734s-5.654,19.788,7.067,48.056c12.721,28.268,42.402,84.098,112.366,107.419
		c2.12,7.773,4.947,20.494,15.548,20.494c10.601,0,11.872-13.257,16.255-14.134c3.533-0.706,57.243,2.827,73.497,0
		c16.254-2.827,78.444,7.774,149.114-13.427c-1.413,9.187-0.706,14.84,8.48,12.721c9.188-2.121,12.014-8.48,12.721-14.134
		c0.707-5.654,7.774-12.014,7.774-12.014s42.402-33.215,53.003-71.377c10.601-38.162,9.188-62.896,9.188-62.896
		s10.6-4.24,13.427-9.894c2.827-5.654,9.894-16.961-8.48-34.629c-18.374-17.667-75.617-12.721-80.564-12.721
		C411.637,190.231,198.919,193.765,198.919,193.765z"/>
	<path style="fill:#C8C9CA;" d="M40.877,251.808c7.094,15.201,14.188,11.147,23.309,12.161c9.121,1.014,264.506,5.068,281.734,4.054
		c17.228-1.014,106.41-4.054,112.49-4.054c6.081,0-4.053,63.846-41.551,95.263c-23.626,19.794-24.601,24.638-5.067,17.228
		c58.779-22.296,76.007-117.558,76.007-127.693c0-10.134-59.792-4.053-208.766-3.04c-67.007,0.456-212.82-4.053-224.982-3.04
		C41.891,243.7,40.877,251.808,40.877,251.808z"/>
	<path style="fill:#C8C9CA;" d="M189.382,385.662c33.499,3.102,160.546,0,178.167-3.916c17.621-3.916,14.684,5.874,1.958,10.769
		c-12.726,4.894-126.283,6.852-155.652,6.852c-29.369,0-38.178,1.958-51.884-4.894C148.266,387.62,136.519,380.767,189.382,385.662z
		"/>
	<path style="fill:#34AD37;" d="M199.131,218.679c-8.659-1.444-15.874-10.102-12.988-22.369
		c2.886-12.266,17.317-18.76,28.141-19.482c10.823-0.722,29.584-2.165,38.965,2.165s16.596,8.659,16.596,8.659
		s10.823-18.039,2.165-38.965c-15.153-5.772-18.761-16.596-20.926-20.204c-2.165-3.608,11.545-5.05,14.432-5.772
		c2.886-0.722,19.482-2.165,19.482-2.165s2.887-5.773,2.165-12.267c-0.722-6.494,4.329-18.761,16.596-16.596
		c12.266,2.165,15.153,20.926,16.596,23.09c1.443,2.165,33.914,9.381,33.914,9.381S358.598,109,368.7,105.392
		c10.102-3.607,18.039,12.267,18.039,17.318c0,5.051,1.444,7.216,1.444,7.216s9.38,5.05,17.317,8.659
		c7.938,3.607,22.368,29.584,29.584,40.408c7.216,10.823,5.773,15.874,5.773,15.874s11.544,2.887,18.039,7.216
		c6.494,4.329,3.607,18.761,0,19.482C455.288,222.286,199.131,218.679,199.131,218.679z"/>
	<path style="fill:#FFFFFF;" d="M275.062,149.541c8.886,5.078,48.237,18.618,65.162,24.966c16.926,6.347,23.696,6.77,27.081,9.732
		c3.385,2.962-13.541,16.079-13.541,22.426c0,6.348-14.387,13.541-14.387,13.541l-87.166-0.846c0,0-1.27-3.809-5.501-5.924
		c-4.231-2.116,0.847-5.501,5.924-7.616c5.077-2.116,17.348-15.233,19.464-20.31c2.116-5.078,2.116-20.734,1.693-24.12
		c-0.424-3.385-1.783-12.703-1.783-12.703L275.062,149.541z"/>
	<path style="fill:#231815;" d="M291.428,101.447c-0.54,1.874-0.81,3.614-1.061,5.125c-0.24,1.52-0.455,2.829-0.705,3.923
		c-0.49,2.191-1.16,3.476-1.882,3.944c-1.411,0.935-3.028-1.243-2.602-5.148c0.476-3.881,0.88-7.946,2.595-11.731
		c0.838-1.856,1.937-3.588,3.33-5.049c1.385-1.462,3.093-2.625,4.92-3.285c1.826-0.661,3.814-0.886,5.697-0.724
		c1.891,0.161,3.67,0.717,5.286,1.485c1.621,0.771,3.069,1.793,4.339,2.978c1.278,1.189,2.358,2.563,3.196,3.973
		c0.865,1.417,1.676,3.289,2.233,5.156c0.563,1.868,0.916,3.724,1.081,5.173c0.316,2.902-0.004,4.197-1.625,0.843
		c-1.641-3.33-3.142-5.435-4.861-7.365c-0.858-0.948-1.79-1.902-2.853-2.771c-1.077-0.877-2.362-1.785-3.992-2.532
		c-1.625-0.753-3.476-1.161-5.158-0.936c-1.678,0.194-3.263,1.033-4.497,2.129c-1.238,1.092-2.112,2.349-2.654,3.275
		C291.676,100.846,291.428,101.447,291.428,101.447z"/>
	<path style="fill:#231815;" d="M267.953,124.353c3.372-0.348,6.241-0.884,8.288-1.551c2.051-0.66,3.257-1.431,3.387-2.035
		c0.129-0.616-0.781-1.051-2.941-1.256c-2.165-0.186-5.6-0.244-10.695,0.253c-2.593,0.267-5.163,0.628-7.723,1.204
		c-1.28,0.297-2.557,0.628-3.827,1.048c-0.635,0.217-1.27,0.419-1.898,0.687l-0.943,0.383c-0.45,0.199-0.965,0.48-1.378,0.827
		c-1.731,1.368-2.527,3.764-1.911,5.892c0.064,0.267,0.173,0.518,0.273,0.772l0.181,0.363c0.065,0.124,0.131,0.244,0.172,0.3
		l0.581,0.882c0.374,0.602,0.82,1.135,1.245,1.692c1.747,2.181,3.782,4.074,5.98,5.818c4.412,3.473,9.466,6.385,15.114,9.251
		c5.658,2.855,11.944,5.623,19.001,8.606c7.067,2.936,14.158,5.882,21.082,8.758c6.965,2.826,13.864,5.342,20.475,7.501
		c13.228,4.307,25.279,7.216,34.275,8.935c4.392,0.859,7.697,0.995,9.59,0.738c1.895-0.251,2.383-0.888,1.22-1.707
		c-1.164-0.821-3.978-1.797-8.678-2.898c-4.703-1.111-11.288-2.358-20.028-3.995c-4.681-0.869-8.715-1.849-12.605-2.949
		c-3.895-1.084-7.631-2.342-11.728-3.785c-4.082-1.484-8.516-3.184-13.748-5.345c-2.595-1.082-5.452-2.303-8.587-3.566
		c-3.12-1.261-6.51-2.631-10.233-4.136c-5.918-2.428-11.8-5.073-17.375-8.049c-5.56-2.979-10.852-6.286-15.256-10.121
		c-2.187-1.923-4.122-3.997-5.613-6.194c-0.387-0.536-0.689-1.129-1.018-1.657c-0.124-0.256-0.159-0.516-0.111-0.778
		c0.051-0.26,0.185-0.505,0.373-0.676c0.087-0.094,0.202-0.151,0.313-0.212l0.089-0.039l0.203-0.075l0.444-0.16
		C258.686,125.376,263.602,124.838,267.953,124.353z"/>
	<path style="fill:#231815;" d="M328.569,119.162c-9.327-1.49-7.373-5.95-3.686-4.553c3.687,1.397,7.699,1.524,10.736,2.303
		c3.037,0.779,6.073,1.558,9.001,2.76c2.928,1.202,8.565,4.453,4.661,3.903c-3.904-0.55-5.641-0.094-10.193-1.261
		C334.533,121.144,328.569,119.162,328.569,119.162z"/>
	<path style="fill:#231815;" d="M353.925,118.853c-0.889,2.214-0.206,4.058,0.966,4.592c1.189,0.553,2.866-0.303,4.215-3.249
		c1.406-2.956,2.156-5.741,3.809-8.513c0.849-1.359,1.962-2.744,3.526-3.836c1.545-1.081,3.613-1.856,5.92-1.566
		c2.303,0.273,4.459,1.492,6.121,3.104c1.676,1.619,2.88,3.615,3.622,5.61c1.497,4.078,1.515,8.095,1.569,11.05
		c0.009,2.902,1.72,4.248,3.122,3.337c0.695-0.455,1.314-1.459,1.546-3.14c0.214-1.669,0.098-4.081-1.09-7.131
		c-0.647-1.619-1.207-3.013-1.787-4.362c-0.576-1.338-1.194-2.682-2.037-4.052c-0.842-1.372-1.921-2.806-3.558-4.215
		c-1.629-1.368-3.931-2.806-7.148-3.132c-2.558-0.256-5.143,0.325-7.325,1.392c-2.199,1.064-4.06,2.554-5.598,4.2
		C356.737,112.31,355.103,116.022,353.925,118.853z"/>
	<path style="fill:#231815;" d="M265.148,198.505c-2.035,2.34-4.127,4.063-6.025,5.359c-0.974,0.616-1.861,1.184-2.735,1.594
		c-0.431,0.215-0.84,0.42-1.236,0.601c-0.407,0.157-0.793,0.306-1.159,0.448c-0.367,0.135-0.714,0.261-1.046,0.367
		c-0.339,0.086-0.658,0.166-0.957,0.24c-0.602,0.132-1.117,0.251-1.58,0.28c-0.925,0.066-1.551,0.002-1.922-0.15
		c-0.741-0.307-0.472-0.969,0.493-1.701c0.241-0.186,0.531-0.366,0.856-0.563c0.319-0.213,0.679-0.428,1.078-0.642
		c0.81-0.402,1.72-0.927,2.791-1.399c4.213-2.057,7.862-5.26,10.485-8.847c0.689-0.873,1.255-1.816,1.842-2.714
		c0.522-0.941,1.069-1.841,1.493-2.78c0.478-0.912,0.833-1.854,1.223-2.75c0.182-0.453,0.328-0.912,0.495-1.356
		c0.165-0.445,0.33-0.882,0.451-1.326l0.401-1.319c0.13-0.447,0.239-0.925,0.359-1.386c0.248-0.927,0.445-1.865,0.66-2.8
		c0.211-0.936,0.379-1.879,0.573-2.818c0.152-0.943,0.336-1.885,0.471-2.83c0.565-3.78,0.898-7.58,0.86-11.364
		c-0.042-1.884-0.116-4.26-0.549-6.551c-0.391-2.297-1.049-4.549-1.83-6.191c-0.19-0.413-0.336-0.822-0.512-1.163
		c-0.186-0.333-0.348-0.637-0.482-0.902c-0.266-0.533-0.415-0.916-0.4-1.081c0.016-0.166,0.199-0.114,0.597,0.222
		c0.199,0.168,0.451,0.407,0.762,0.726c0.155,0.16,0.329,0.336,0.508,0.541c0.157,0.22,0.328,0.461,0.514,0.723
		c0.351,0.538,0.768,1.019,1.034,1.555c0.292,0.525,0.574,1.032,0.848,1.525c0.267,0.498,0.456,1.006,0.682,1.49
		c0.212,0.489,0.445,0.96,0.594,1.444c0.326,0.959,0.688,1.88,0.904,2.815c0.124,0.468,0.247,0.932,0.37,1.396
		c0.108,0.467,0.186,0.938,0.28,1.413c0.697,3.796,0.975,7.962,0.173,13.999c-0.416,3.016-1.078,6.239-1.919,9.346
		c-0.83,3.171-2.117,6.25-3.535,8.718c-1.419,2.484-2.887,4.473-4.04,5.782c-0.553,0.677-1.027,1.183-1.363,1.521
		C265.326,198.32,265.148,198.505,265.148,198.505z"/>
	<path style="fill:#231815;" d="M438.211,189.262c-0.879-0.97-1.722-1.838-2.497-2.667c-0.814-0.818-1.58-1.591-2.233-2.396
		c-1.269-1.626-2.328-3.288-2.723-5.657c-0.3-1.49-0.807-3.377-1.473-5.492c-0.368-1.042-0.77-2.143-1.198-3.284
		c-0.407-1.152-0.974-2.273-1.489-3.45c-2.158-4.647-4.972-9.397-7.753-12.789c-2.709-3.443-6.826-8.013-10.894-11.687
		c-1.036-0.894-2.042-1.762-2.989-2.578c-0.933-0.832-1.896-1.503-2.716-2.165c-1.642-1.324-3.011-2.236-3.728-2.739
		c-0.72-0.499-1.439-0.94-2.12-1.32c-0.699-0.356-1.348-0.67-1.9-0.97c-1.104-0.602-1.817-1.154-1.77-1.887
		c0.082-1.471,2.802-0.796,4.817,0.46c0.512,0.298,1.991,1.306,4.017,2.622c1.012,0.658,2.083,1.5,3.254,2.344
		c1.184,0.831,2.348,1.816,3.532,2.792c0.589,0.492,1.19,0.971,1.763,1.475c0.559,0.517,1.113,1.03,1.655,1.532
		c1.087,1.001,2.115,1.969,2.968,2.915c0.872,0.927,1.637,1.764,2.242,2.458c0.572,0.723,0.99,1.3,1.204,1.673
		c0.213,0.374,0.575,0.863,1.046,1.436c0.24,0.283,0.503,0.591,0.782,0.921c0.273,0.335,0.564,0.693,0.869,1.067
		c0.616,0.743,1.302,1.543,2.02,2.369c0.71,0.832,1.393,1.735,2.104,2.606c2.829,3.497,5.253,7.13,5.546,8.134
		c0.155,0.498,0.438,1.14,0.797,1.863c0.342,0.731,0.723,1.56,1.142,2.393c0.42,0.833,0.849,1.686,1.25,2.481
		c0.365,0.813,0.705,1.567,0.983,2.186c0.271,0.623,0.618,1.351,1.014,2.135c0.358,0.8,0.759,1.659,1.185,2.523
		c0.889,1.713,1.723,3.505,2.497,4.884c0.799,1.326,1.193,3.636,1.435,5.613C441.11,191.157,439.168,190.311,438.211,189.262z"/>
	<path style="fill:#231815;" d="M116.585,223.496c-6.14-0.252-12.349-0.378-18.526-0.427c-1.537-0.007-3.072-0.011-4.604-0.018
		c-1.476,0.015-2.984,0.095-4.493,0.193c-3.021,0.205-6.054,0.481-9.071,0.718c-6.036,0.463-12.022,0.828-17.898,0.344
		c-2.934-0.245-5.85-0.72-8.67-1.671c-0.701-0.262-1.402-0.498-2.081-0.835c-0.34-0.167-0.683-0.309-1.014-0.497l-1.162-0.675
		c-2.094-1.424-3.482-3.068-5.031-4.723c0.742-0.473,1.479-0.942,2.209-1.407c0.714-0.458,1.421-0.911,2.205-1.308
		c0.381-0.204,0.76-0.408,1.138-0.61l0.826-0.374c0.45-0.208,0.912-0.372,1.364-0.55c1.819-0.681,3.64-1.133,5.414-1.416
		c2.35-0.367,4.17-0.38,5.5-0.294c1.333,0.086,2.18,0.276,2.629,0.465c0.896,0.384,0.199,0.751-1.417,1.168
		c-1.615,0.426-4.163,0.98-6.925,2.006c-1.38,0.508-2.81,1.131-4.194,1.875c-0.351,0.177-0.688,0.383-1.028,0.58
		c-0.136,0.082-0.132,0.1-0.182,0.146l-0.105,0.113c-0.125,0.144-0.19,0.261-0.217,0.351c0.115,0.094,0.288,0.167,0.388,0.203
		l0.146,0.042l0.058,0.012l0.038,0.009c0.016,0.005,0.023,0.003,0.108,0.048c1.028,0.554,2.123,0.961,3.157,1.299
		c2.894,0.968,6.759,1.502,11.106,1.628c4.355,0.137,9.194-0.106,14.235-0.473c2.542-0.188,5.125-0.379,7.719-0.571
		c1.311-0.087,2.631-0.166,3.977-0.207c0.663-0.027,1.366-0.029,2.023-0.034h1.942c5.172,0,10.259,0,15.006,0
		c18.991,0,149.221,0,165.5,0c16.276,0,143.807,0.889,173.642,0c29.842-0.889,40.701,3.11,27.128,3.554
		c-13.563,0.445-67.818,0.445-75.96,0.445c-8.145,0-94.958-1.776-113.951-1.333c-19.001,0.445-73.256,0-94.964,0
		C170.842,221.273,127.437,223.941,116.585,223.496z"/>
	<path style="fill:#231815;" d="M338.61,218.536c6.783-5.949,11.369-10.743,20.299-13.459c5.683-1.7,14.504-4.625,24.084-7.17
		c2.4-0.621,4.818-1.3,7.278-1.829c1.223-0.286,2.444-0.571,3.66-0.855c1.215-0.283,2.444-0.488,3.647-0.737
		c1.207-0.242,2.401-0.482,3.579-0.719c1.186-0.191,2.356-0.38,3.504-0.565c1.147-0.19,2.272-0.376,3.369-0.557
		c1.105-0.136,2.183-0.268,3.227-0.397c1.045-0.13,2.141-0.266,3.281-0.409c1.14-0.138,2.336-0.174,3.559-0.27
		c1.225-0.083,2.485-0.167,3.77-0.253c1.289-0.009,2.604-0.018,3.935-0.027c5.325-0.092,10.908,0.459,16.125,1.221
		c5.211,0.755,10.151,2.17,13.767,4.355c1.815,1.07,3.266,2.29,4.359,3.453c1.082,1.18,1.797,2.255,2.215,3.041
		c1.756,3.087,2.531,6.47,2.207,9.165c-0.049,0.673-0.228,1.285-0.373,1.841c-0.217,0.537-0.378,1.036-0.648,1.418
		c-0.472,0.796-1.036,1.223-1.493,1.304c-0.462,0.078-0.656-0.195-0.693-0.646c-0.018-0.226,0.004-0.497,0.058-0.796
		c0.033-0.312,0.075-0.666,0.152-1.032c0.23-1.507,0.333-3.515,0.02-5.422c-0.047-0.475-0.25-1.44-0.741-2.703
		c-0.511-1.244-1.337-2.825-2.71-4.221c-1.358-1.435-3.291-2.759-5.526-3.796c-2.249-1.037-4.833-1.782-7.51-2.326
		c-2.671-0.576-5.489-0.795-8.128-1.156c-1.322-0.208-2.632-0.234-3.891-0.314c-1.259-0.077-2.472-0.151-3.622-0.221
		c-4.61-0.071-8.222-0.085-9.768-0.088c-3.102-0.257-11.566,0.929-19.493,2.99c-1.977,0.549-3.948,1.009-5.78,1.592
		c-1.835,0.565-3.566,1.099-5.108,1.574c-3.065,1.019-5.374,1.789-6.298,1.949c-1.839,0.351-4.937,1.368-8.153,2.513
		c-3.2,1.202-6.527,2.505-8.825,3.465c-4.639,1.804-12.456,5.732-17.286,8.664c-2.346,1.429-6.244,3.002-9.633,4.273
		C335.438,222.72,336.755,220.166,338.61,218.536z"/>
	<path style="fill:#231815;" d="M263.574,187.673c-0.827-4.307-0.438-9.738-5.959-11.088c-2.743-0.66-7.303-1.619-11.916-2.25
		c-4.609-0.654-9.255-0.997-12.074-1.11c-1.409-0.059-3.988-0.041-7.233,0.129c-3.245,0.195-7.154,0.568-11.217,1.166
		c-4.042,0.571-8.457,1.393-12.495,2.917c-2.02,0.758-3.948,1.694-5.659,2.797c-1.709,1.103-3.204,2.358-4.376,3.639
		c-0.303,0.31-0.571,0.666-0.862,1.014c-0.133,0.166-0.267,0.334-0.403,0.503l-0.314,0.41c-0.471,0.605-0.956,1.23-1.457,1.874
		c-1.026,1.338-2.107,2.851-3.104,4.539c-0.991,1.692-1.932,3.557-2.555,5.675c-0.626,2.101-0.934,4.471-0.606,6.827
		c0.331,2.358,1.333,4.554,2.582,6.288c1.243,1.766,2.717,3.083,4.118,4.191c2.833,2.195,5.475,3.521,7.379,4.642
		c1.352,0.729,2.577,1.286,3.652,1.595c1.074,0.342,1.992,0.513,2.745,0.534c1.504,0.066,2.33-0.319,2.464-0.907
		c0.134-0.587-0.413-1.374-1.658-2.116c-0.628-0.358-1.413-0.755-2.384-1.12c-0.981-0.341-2.107-0.744-3.456-1.079
		c-1.099-0.329-2.434-0.774-3.86-1.475c-0.732-0.312-1.44-0.772-2.21-1.2c-0.378-0.227-0.738-0.5-1.119-0.758
		c-0.188-0.132-0.378-0.266-0.569-0.4l-0.545-0.457c-1.467-1.208-2.873-2.771-3.776-4.698c-0.914-1.912-1.27-4.154-0.972-6.236
		c0.258-2.091,0.996-4.014,1.878-5.679c0.88-1.673,1.886-3.123,2.84-4.366c0.956-1.243,1.863-2.281,2.604-3.12
		c0.736-0.839,1.317-1.494,1.73-1.862c0.398-0.375,1.131-1.075,2.192-1.897c1.077-0.804,2.51-1.697,4.257-2.456
		c3.483-1.565,8.171-2.466,12.866-2.855c4.712-0.425,9.406-0.527,13.11-0.41c0.924,0.039,1.789,0.077,2.577,0.11
		c0.787,0.064,1.498,0.121,2.12,0.171c1.241,0.1,2.116,0.253,2.513,0.357c1.59,0.414,5.32,0.763,9.21,1.409
		c3.887,0.647,7.924,1.611,10.104,2.79c2.191,1.134,4.644,2.114,6.558,2.816C262.2,187.249,263.574,187.673,263.574,187.673z"/>
	<path style="fill:#231815;" d="M223.11,202.06c-3.196-1.369-5.435-2.575-6.908-3.692c-0.37-0.284-0.688-0.555-0.987-0.87
		c-0.074-0.079-0.151-0.166-0.233-0.268c-0.086-0.131-0.176-0.177-0.32-0.562l-0.038-0.178c-0.009-0.074-0.008-0.187,0.008-0.277
		c0.017-0.17,0.158-0.406,0.265-0.493c0.1-0.093,0.234-0.165,0.285-0.177l0.185-0.049c0.199-0.025,0.282,0.003,0.381,0.021
		c0.65,0.195,0.887,0.474,1.051,0.697c0.294,0.467-0.072,0.805-0.724,1.013c-0.069,0.026-0.145,0.054-0.225,0.084l-0.073,0.046
		c-0.007-0.019-0.009,0.103-0.019-0.148c-0.013-0.169-0.05-0.359-0.067-0.474c-0.049-0.289-0.199-0.423-0.157-0.384
		c0.056,0.019,0.307-0.109,0.553-0.349c0.079-0.067,0.157-0.137,0.23-0.212l0.141-0.148l0.031,0.006l0.109,0.049
		c0.375,0.184,0.947,0.482,1.537,0.848c2.424,1.471,5.095,2.639,7.613,3.732c2.528,1.089,4.947,2.091,7.023,3.143
		c4.145,2.107,8.289,4.29,12.098,7.097c1.896,1.39,4.608,3.811,5.781,5.79c0.602,0.975,0.763,1.77,0.642,1.946
		c-0.139,0.188-0.362-0.197-1.31-1.162c-0.968-0.96-1.978-1.628-2.915-2.215c-0.948-0.582-1.857-1.069-2.801-1.564
		c-1.895-0.984-3.925-2.012-6.932-3.663c-3.009-1.651-6.563-3.545-9.37-5.024C225.155,203.139,223.11,202.06,223.11,202.06z"/>
	<path style="fill:#231815;" d="M29.268,252.349c-1.656,2.342-3.669,4.244-4.997,7.137c-1.35,2.883-2.093,6.832-0.801,12.97
		c0.626,3.068,1.66,7.078,3.027,11.505c1.351,4.434,3.157,9.237,5.149,13.948c3.965,9.44,8.962,18.353,12.199,23.602
		c1.611,2.632,4.685,7.356,8.944,13.041c2.114,2.853,4.567,5.913,7.222,9.107c2.683,3.174,5.6,6.458,8.691,9.723
		c3.11,3.249,6.384,6.484,9.747,9.59c3.375,3.095,6.846,6.047,10.295,8.78c6.97,5.373,13.69,9.996,19.253,13.287
		c10.948,6.862,27.067,14.02,43.079,18.147c0.999,0.262,1.995,0.524,2.985,0.785l1.482,0.387c0.498,0.108,0.995,0.215,1.49,0.322
		c1.98,0.429,3.935,0.854,5.855,1.27c1.931,0.365,3.837,0.668,5.691,0.998c0.928,0.159,1.845,0.316,2.749,0.47
		c0.909,0.118,1.807,0.235,2.689,0.349c1.765,0.235,3.474,0.461,5.116,0.679c1.65,0.155,3.232,0.302,4.737,0.444
		c3.006,0.348,5.716,0.458,8.027,0.646c3.25,0.315,6.088,0.228,8.499,0.175c2.414-0.033,4.399-0.306,5.965-0.572
		c3.134-0.534,4.586-1.174,4.464-1.708c-0.123-0.534-1.809-0.964-4.96-1.081c-0.789-0.029-1.669-0.038-2.64-0.025
		c-0.973,0.002-2.038-0.038-3.195-0.023c-2.313,0.003-4.991,0.177-8.041,0.193c-1.268,0.031-2.676,0.05-4.203,0.057
		c-1.527-0.004-3.168-0.126-4.911-0.207c-3.493-0.111-7.347-0.624-11.448-1.085c-8.167-1.171-17.169-3.191-25.618-5.878
		c-1.053-0.343-2.102-0.685-3.143-1.025c-1.042-0.335-2.076-0.674-3.077-1.074c-2.012-0.768-3.987-1.522-5.905-2.255
		c-3.758-1.65-7.331-3.119-10.392-4.737c-1.542-0.781-3.005-1.494-4.335-2.202c-1.31-0.746-2.514-1.434-3.597-2.051
		c-1.077-0.626-2.032-1.181-2.849-1.656c-0.798-0.508-1.449-0.95-1.949-1.291c-0.99-0.701-2.912-1.867-5.422-3.543
		c-2.463-1.749-5.65-3.806-9.024-6.473c-6.911-5.107-14.805-12.266-21.985-19.981c-7.21-7.693-13.618-15.994-18.297-22.807
		c-4.687-6.815-7.664-12.13-8.44-13.758c-1.592-3.236-5.659-10.578-9.122-18.682c-1.707-4.059-3.299-8.282-4.489-12.176
		c-1.172-3.899-2.011-7.442-2.369-10.091c-0.775-5.287-1.497-11.087-1.813-15.576c-0.124-2.246-0.262-4.159-0.267-5.512
		C29.295,253.143,29.268,252.349,29.268,252.349z"/>
	<path style="fill:#231815;" d="M40.563,188.889c-1.699-0.065-3.437-0.016-5.013,0.285c-1.575,0.28-3.026,0.837-4.13,1.547
		c-1.113,0.708-1.848,1.583-2.19,2.306c-0.36,0.719-0.333,1.314-0.146,1.637c0.199,0.338,0.611,0.468,1.144,0.453
		c0.542-0.011,1.216-0.136,2.098-0.221c0.889-0.082,1.99-0.146,3.507-0.096c1.526,0.036,3.425,0.253,5.985,0.378
		c20.346,0.992,31.256-1.825,57.037-1.504c25.789,0.321,49.79,1.719,67.841,2.319c17.627,0.591,16.629-7.715-18.919-5.399
		c-19.025,1.239-21.718,0.099-48.872,0.129C77.216,190.745,58.207,189.476,40.563,188.889z"/>
	<path style="fill:#231815;" d="M477.552,196.017c-7.293-1.844-12.702-2.699-16.452-3.438c-3.755-0.706-5.869-1.225-6.641-1.781
		c-0.773-0.535-0.204-1.006,1.386-1.268c1.587-0.276,4.197-0.299,7.397,0.213c12.767,1.982,25.421,5.374,34.603,10.693l0.429,0.249
		l0.46,0.313l0.917,0.634c0.551,0.462,1.111,0.922,1.615,1.413c0.996,0.991,1.903,2.032,2.712,3.122
		c1.628,2.174,2.971,4.487,4.126,6.88c1.148,2.396,2.104,4.875,2.817,7.448c0.692,2.577,1.212,5.246,1.049,8.114
		c-0.15,2.851-1.386,6.25-3.479,8.902c-1.046,1.326-2.277,2.471-3.556,3.354c-1.307,0.853-2.643,1.435-3.844,1.757
		c-0.604,0.144-1.172,0.233-1.675,0.296c-0.514,0.018-0.964,0.027-1.342,0.023c-0.765-0.102-1.238-0.208-1.37-0.313
		c-0.132-0.105,0.079-0.213,0.681-0.316c0.302-0.047,0.701-0.088,1.199-0.227c0.249-0.065,0.529-0.101,0.826-0.196
		c0.295-0.1,0.618-0.208,0.969-0.327c1.381-0.544,2.532-1.319,3.51-2.16c0.952-0.878,1.74-1.81,2.371-2.789
		c1.271-1.951,1.955-4.027,2.247-6.141c0.09-0.528,0.072-1.068,0.118-1.605c-0.047-0.544-0.007-1.069-0.106-1.646
		c-0.069-0.568-0.147-1.149-0.286-1.758c-0.103-0.603-0.275-1.227-0.439-1.87c-0.679-2.571-1.756-5.454-3.347-8.745
		c-1.613-3.259-3.733-6.712-6.371-9.222c-0.34-0.283-0.661-0.616-1.007-0.862c-0.364-0.241-0.656-0.489-1.068-0.736
		c-0.819-0.5-1.654-0.968-2.478-1.423c-1.667-0.884-3.297-1.709-4.865-2.403c-3.123-1.416-5.915-2.441-7.907-3.142
		c-1.004-0.33-1.803-0.593-2.351-0.773C477.854,196.102,477.552,196.017,477.552,196.017z"/>
	<path style="fill:#231815;" d="M177.954,255.194c-64.423-0.602-93.914-2.439-100.596-3.424c-6.68-1.054,9.439-1.516,36.252-0.711
		c26.821,0.818,53.654,1.153,79.144,1.374c25.49,0.163,49.638,0.186,71.1,0.212c42.926,0.056,85.853-0.236,128.752-1.247
		c5.362-0.142,11.394-0.302,17.74-0.471c6.346-0.18,13-0.47,19.618-0.69c3.31-0.096,6.604-0.271,9.843-0.44
		c3.24-0.163,6.426-0.322,9.513-0.477c1.542-0.082,3.063-0.136,4.549-0.236c1.485-0.105,2.94-0.207,4.36-0.307
		c2.841-0.195,5.538-0.38,8.046-0.553c1.255-0.082,2.463-0.163,3.618-0.239c1.153-0.108,2.252-0.211,3.294-0.308
		c2.085-0.192,3.938-0.362,5.514-0.507c3.156-0.276,5.211-0.422,5.807-0.397c0.597,0.025-0.265,0.22-2.942,0.625
		c-1.341,0.19-3.134,0.445-5.424,0.769c-1.146,0.154-2.417,0.324-3.817,0.513c-0.701,0.09-1.433,0.185-2.199,0.284
		c-0.768,0.075-1.57,0.154-2.405,0.235c-26.731,2.699-45.519,3.72-65.637,4.737c-20.121,1.013-41.599,1.702-73.804,2.101
		c-32.217,0.375-69.803,0.27-99.33-0.076c-14.763-0.201-27.512-0.375-36.571-0.499C183.321,255.294,177.954,255.194,177.954,255.194
		z"/>
	<path style="fill:#231815;" d="M362.312,139.636c-6.742-1.42-5.109-4.686-2.489-3.518c2.623,1.17,5.529,1.386,7.692,1.995
		c2.17,0.616,4.328,1.154,6.449,1.893c1.06,0.368,2.648,1.01,3.67,1.508c1.018,0.49,1.45,0.934-0.016,0.983
		c-1.459,0.023-2.509,0.124-3.624,0.129c-1.116,0.011-2.305-0.059-4.002-0.475C366.585,141.328,362.312,139.636,362.312,139.636z"/>
	<path style="fill:#231815;" d="M297.51,123.134c-2.714-0.375-3.743-1.327-3.87-2.155c-0.125-0.818,0.734-1.481,1.835-1.053
		c2.183,0.854,4.567,0.837,6.343,1.327c1.771,0.493,3.533,0.99,5.208,1.79c1.668,0.805,4.882,3,2.582,2.732
		c-2.303-0.275-3.368,0.109-6.019-0.631c-1.326-0.37-2.846-0.881-4.033-1.292C298.372,123.437,297.51,123.134,297.51,123.134z"/>
	<path style="fill:#231815;" d="M40.984,248.408c1.025,0.141,2.014,0.276,2.971,0.408c0.96,0.11,1.887,0.216,2.78,0.318
		c1.787,0.2,3.429,0.459,4.959,0.616c3.057,0.33,5.594,0.719,7.677,1.033c4.168,0.607,6.478,1.266,7.316,1.839
		c1.684,1.131-2.564,1.962-9.534,1.203c-6.959-0.82-13.924-1.576-20.545-2.58c-6.604-1.073-12.882-2.46-18.256-4.613
		c-2.694-1.037-5.305-2.393-7.822-3.957c-2.452-1.692-4.803-3.661-6.649-6.167c-1.829-2.51-3.01-5.516-3.514-8.483
		c-0.527-2.983-0.474-6.031,0.077-8.951c0.533-2.923,1.807-6.453,3.816-9.452c1.961-3.026,4.544-5.5,6.783-6.953
		c2.238-1.475,4.02-2.026,4.369-1.995c0.182,0.027,0.034,0.234-0.511,0.654c-0.27,0.214-0.65,0.464-1.12,0.803
		c-0.453,0.361-1.004,0.799-1.661,1.321c-2.542,2.203-4.217,4.565-5.433,6.873c-1.208,2.322-1.972,4.617-2.443,7.021
		c-0.457,2.403-0.627,4.94-0.278,7.749c0.374,2.811,1.206,5.884,3.347,8.883c2.223,2.97,5.711,5.464,9.501,7.331
		c1.866,0.99,3.88,1.71,5.781,2.474c0.982,0.323,1.946,0.639,2.887,0.949c0.471,0.153,0.936,0.305,1.395,0.454
		c0.468,0.126,0.929,0.25,1.382,0.373c3.605,1.048,6.821,1.661,9.079,2.186C39.628,248.162,40.984,248.408,40.984,248.408z"/>
	<path style="fill:#231815;" d="M475.977,315.468c5.66-9.715,9.255-20.846,11.361-31.428c2.171-10.612,2.673-20.671,3.562-29.012
		c0.748-8.359,2.497-7.469,4.05-2.893c0.389,1.143,0.765,2.514,1.11,4.019c0.162,0.752,0.362,1.539,0.467,2.344
		c0.105,0.804,0.199,1.629,0.28,2.462c0.3,3.33,0.517,6.804,0.073,9.518c-0.178,1.36-0.374,2.857-0.585,4.465
		c-0.116,0.802-0.194,1.638-0.352,2.487c-0.164,0.847-0.333,1.718-0.505,2.611c-0.347,1.785-0.711,3.653-1.086,5.581
		c-0.405,1.921-0.971,3.867-1.467,5.864c-0.924,4.015-2.364,8.023-3.627,12.009c-0.297,1.005-0.715,1.96-1.082,2.927
		c-0.376,0.962-0.75,1.919-1.12,2.864c-0.761,1.883-1.407,3.768-2.259,5.491c-0.402,0.871-0.951,2.062-1.629,3.531
		c-0.697,1.46-1.426,3.246-2.505,5.152c-1.033,1.928-2.189,4.088-3.449,6.44c-1.393,2.275-2.9,4.736-4.499,7.345
		c-0.385,0.661-0.833,1.295-1.285,1.937c-0.45,0.644-0.906,1.297-1.367,1.958c-0.922,1.32-1.866,2.672-2.829,4.05
		c-0.976,1.368-2.085,2.678-3.149,4.054c-1.085,1.36-2.161,2.762-3.298,4.142c-1.19,1.334-2.393,2.685-3.607,4.048
		c-1.226,1.35-2.402,2.77-3.748,4.043c-2.649,2.584-5.197,5.334-8.069,7.733c-1.401,1.236-2.802,2.47-4.199,3.702
		c-1.434,1.185-2.92,2.297-4.366,3.438c-0.727,0.566-1.451,1.131-2.172,1.692c-0.721,0.562-1.432,1.13-2.194,1.635
		c-1.498,1.038-2.98,2.067-4.444,3.081c-5.97,3.889-11.92,7.064-17.33,9.642c-10.885,5.037-19.569,7.606-22.691,8.584
		c-0.778,0.262-1.91,0.549-3.336,0.938c-1.431,0.365-3.143,0.888-5.144,1.331c-3.991,0.948-9.036,2.076-14.848,3.043
		c-5.803,1.023-12.367,1.903-19.345,2.61c-6.978,0.726-14.374,1.243-21.851,1.565c-14.956,0.688-30.222,0.618-43.207,0.479
		c-12.986-0.154-23.699-0.335-29.597-0.15c-11.794,0.345-19.762-1.097-23.474-2.662c-3.711-1.576-3.147-3.318,2.225-3.546
		c5.366-0.24,18.763-0.003,31.596,0.28c12.835,0.291,25.115,0.461,28.318,0.458c3.203-0.002,21.886,0.972,41.635,0.209
		c9.871-0.37,19.999-1.216,28.531-2.452c8.535-1.218,15.459-2.79,19.042-3.869c7.159-2.134,21.065-6.155,34.159-12.797
		c6.558-3.266,12.893-7.115,18.284-10.979c2.63-2.023,5.125-3.91,7.352-5.659c2.132-1.865,4.04-3.535,5.647-4.942
		c0.399-0.356,0.817-0.715,1.225-1.106c0.394-0.408,0.798-0.826,1.211-1.255c0.814-0.87,1.666-1.78,2.551-2.725
		c0.867-0.958,1.79-1.926,2.672-2.979c0.848-1.081,1.718-2.189,2.604-3.317c0.873-1.131,1.762-2.282,2.66-3.446
		c0.846-1.203,1.659-2.448,2.49-3.679c0.822-1.233,1.648-2.47,2.469-3.702c0.793-1.249,1.501-2.548,2.242-3.799
		C469.993,328.798,473.979,319.126,475.977,315.468z"/>
	<path style="fill:#231815;" d="M148.426,412.896c-0.167-1.932-0.689-3.732-1.118-5.46c-0.44-1.719-0.8-3.346-0.604-4.735
		c0.195-1.388,1.061-1.284,1.897-0.664c0.827,0.627,1.657,1.747,1.764,2.544c0.224,1.597,0.738,4.446,1.415,6.536
		c0.087,0.26,0.235,0.71,0.432,1.301c0.24,0.564,0.477,1.305,0.868,2.055c0.723,1.536,1.828,3.285,3.28,4.547
		c0.708,0.653,1.524,1.134,2.329,1.516c0.823,0.348,1.643,0.609,2.379,0.717c1.489,0.218,2.664,0.015,3.08-0.048
		c0.417-0.075,1.576-0.248,3.064-0.862c1.474-0.62,3.265-1.69,4.758-3.181c3.081-2.988,5.073-7.361,5.516-9.1
		c0.857-3.532,4.176-3.589,3.833-1.911c-0.177,0.831-0.923,2.786-1.784,4.633c-0.855,1.849-1.87,3.554-2.161,3.984
		c-0.279,0.423-2.162,2.874-4.756,4.77c-1.282,0.951-2.701,1.742-3.952,2.278c-1.247,0.549-2.308,0.871-2.856,1.101
		c-0.542,0.252-1.394,0.47-2.409,0.588c-1.017,0.094-2.2,0.038-3.347-0.239c-0.584-0.103-1.119-0.37-1.665-0.548
		c-0.543-0.19-1.013-0.513-1.486-0.744c-0.894-0.564-1.627-1.142-2.109-1.617c-0.995-0.883-2.686-2.161-3.999-3.683
		C149.492,415.181,148.467,413.619,148.426,412.896z"/>
	<path style="fill:#231815;" d="M400.727,409.23c-1.112-1.984-1.934-3.923-2.165-6.034c-0.13-1.041-0.007-2.12,0.307-3.097
		c0.329-0.979,0.953-1.821,1.684-2.34c1.579-0.929,1.726,0.111,1.714,1.085c-0.007,0.243-0.017,0.496-0.001,0.761
		c0.017,0.264-0.015,0.473,0.02,0.715c0.027,0.236,0.007,0.417,0.018,0.607c0.01,0.188-0.009,0.343-0.066,0.468
		c-0.164,0.535-0.284,1.387-0.12,2.335c0.145,0.946,0.575,1.932,1.103,2.636c0.282,0.332,0.911,1.243,2.197,1.689
		c1.323,0.54,3.22,0.617,5.053,0.001c1.837-0.581,3.503-1.743,4.616-2.841c1.102-1.117,1.804-2.199,2.05-2.568
		c0.248-0.382,0.952-1.4,1.717-2.932c0.781-1.518,1.601-3.552,2.384-5.709c0.78-2.157,1.583-4.435,2.389-6.362
		c0.792-1.934,1.605-3.515,2.004-4.439c0.802-1.877,2.255-2.563,3.191-2.473c0.94,0.067,1.444,0.77,1.031,1.444
		c-0.428,0.677-1.587,2.248-2.449,3.953c-0.889,1.682-1.565,3.424-1.748,3.874c-0.202,0.437-1.481,3.011-2.763,5.852
		c-0.65,1.409-1.348,2.848-1.967,4.048c-0.614,1.203-1.162,2.162-1.378,2.714c-0.433,1.096-1.651,3.08-3.445,4.615
		c-1.768,1.553-3.989,2.511-5.293,2.85c-0.643,0.21-1.446,0.482-2.371,0.745c-0.924,0.256-1.991,0.406-3.062,0.38
		c-0.54-0.002-1.063-0.087-1.571-0.177c-0.501-0.138-1.031-0.283-1.437-0.504C401.51,410.116,400.947,409.593,400.727,409.23z"/>
	<path style="fill:#231815;" d="M381.149,188.424c-2.196,0.852-3.93,0.619-4.995,0.356c-1.087-0.294-1.611-0.716-1.766-1.043
		c-0.289-0.682,0.822-1,2.397-0.764c1.597,0.235,3.243-0.058,4.47-0.772c1.24-0.718,2.097-1.793,2.524-2.765
		c0.464-0.988,0.47-2.014,0.052-3.003c-0.41-0.974-1.18-1.748-2.142-1.991c-0.5-0.141-1.298-0.147-2.197-0.161
		c-0.898-0.006-1.88-0.187-2.488-0.58c-0.633-0.379-0.818-0.867-0.763-0.991c0.072-0.156,0.262,0.053,0.938,0.262
		c1.469,0.343,2.524-0.363,4.027-0.515c0.745-0.089,1.717,0.005,2.597,0.487c0.883,0.474,1.722,1.284,2.262,2.467
		c0.27,0.591,0.454,1.251,0.516,1.944c0.066,0.688-0.015,1.433-0.205,2.076c-0.378,1.319-1.167,2.401-1.98,3.144
		c-0.815,0.754-1.646,1.216-2.255,1.482C381.527,188.329,381.149,188.424,381.149,188.424z"/>
	<path style="fill:#231815;" d="M234.698,177.939c-0.929,6.499-0.62,6.809,2.166,7.427c2.785,0.619,4.642,4.333,6.499,3.095
		c1.856-1.238,3.404-8.356,2.785-9.594C245.529,177.629,234.698,177.939,234.698,177.939z"/>
	<path style="fill:#231815;" d="M252.647,181.034c-0.31,5.57-1.238,8.355,2.476,9.284c3.713,0.929,4.333,8.665,8.355,5.261
		c4.024-3.404,7.428-9.284,5.57-12.07c-1.857-2.785-9.284-4.642-11.141-4.642C256.051,178.868,252.647,181.034,252.647,181.034z"/>
	<path style="fill:#231815;" d="M423.568,174.184c-3.335,2.779-4.9,5.309-1.633,8.167c3.267,2.859,0,7.759,2.859,8.576
		c2.859,0.817,6.534,2.042,6.534-4.084C431.327,180.719,426.018,172.143,423.568,174.184z"/>
	<path style="fill:#231815;" d="M305.141,155.808c-1.518-0.675-2.456-1.677-2.964-2.76c-1.525-3.251,0.821-7.245,2.964-5.408
		c1.247,1.068,2.106,3.07,2.372,4.851C307.857,154.794,307.213,156.729,305.141,155.808z"/>
	<path style="fill:#231815;" d="M322.701,161.525c-4.924-0.656,1.633-6.533,4.901-5.717c2.343,0.585,1.955,3.692-0.711,5.101
		C325.839,161.464,324.433,161.756,322.701,161.525z"/>
</g>
</svg>
