<?xml version="1.0" encoding="iso-8859-1"?>
<!-- Generator: Adobe Illustrator 22.1.0, SVG Export Plug-In . SVG Version: 6.00 Build 0)  -->
<svg version="1.1" id="_x34_" xmlns="http://www.w3.org/2000/svg" xmlns:xlink="http://www.w3.org/1999/xlink" x="0px" y="0px"
	 viewBox="0 0 512 512" style="enable-background:new 0 0 512 512;" xml:space="preserve">
<g>
	<path style="fill:#A38A77;" d="M504.886,97.008c-7.767,16.242-121.298,242.089-121.298,242.089s-81.383,46.331-116.79,65.748
		c-31.979,17.56-90.383,45.504-103.721,49.606c-0.253,0.068-0.473,0.152-0.693,0.203c-1.03,0.287-1.688,0.388-1.958,0.27
		c-3.242-1.503-79.458-44.22-79.458-44.22L0.935,358.448l5.96-14.335l94.587-40.186l107.284-103.063
		c2.212-0.895,58.032-123.273,58.032-123.273l20.97-41.62c0,0,8.966-13.457,16.378-19.468c1.148-0.928,2.263-1.671,3.31-2.161
		c7.699-3.665,11.363-8.122,29.48-4.103c18.1,4.018,126.937,42.042,148.87,57.779c6.72,2.769,11.836,5.014,15.466,7.26
		c4.492,2.769,6.754,5.538,7.075,9.219C508.634,87.739,507.419,91.707,504.886,97.008z"/>
	<path style="fill:#8F7663;" d="M504.886,97.008c-7.767,16.242-121.298,242.089-121.298,242.089s-81.383,46.331-116.79,65.748
		c-31.979,17.56-90.383,45.504-103.721,49.606c-0.253,0.068-0.473,0.152-0.693,0.203l0.034-11.684l209.925-110.492l110.644-217.59
		l18.286-39.611C509.715,80.495,510.306,85.662,504.886,97.008z"/>
	<path style="fill:#8A715E;" d="M163.077,454.452c-1.419,0.439-2.33,0.608-2.651,0.473c-3.242-1.503-79.458-44.22-79.458-44.22
		L0.935,358.448l5.96-14.335c18.894,15.635,127.191,81.281,127.191,81.281l28.332,17.577L163.077,454.452z"/>
	<path style="fill:#FFF5EE;" d="M241.576,152.895c-0.67-1.571,55.679-108.006,55.679-108.006s6.341-15.375,11.19-14.123
		s50.479,7.882,86.673,19.276c7.298,2.297,45.326,22.783,50.678,25.236c21.193,9.713,28.535,15.009,29.647,16.516
		c1.393,1.888-4.246,12.193-4.246,12.193L362.663,326.931l-57.916,32.523l-143.568,70.249L33.336,345.209l74.897-31.953
		l92.493-66.085L241.576,152.895z"/>
	<path style="fill:#B79E8B;" d="M496.629,87.147c0,0,1.807-2.195-20.396-16.006c-26.981-16.784-122.362-47.986-136.95-49.809
		c-9.016-1.132-24.212-3.141-35.137-4.83c1.148-0.928,2.263-1.671,3.31-2.161c7.699-3.665,11.363-8.122,29.48-4.103
		c18.1,4.018,126.937,42.042,148.87,57.779c6.72,2.769,11.836,5.014,15.466,7.26c4.492,2.769,6.754,5.538,7.075,9.219
		L496.629,87.147z"/>
	<path style="fill:#94C85C;" d="M451.71,110.146c-4.198-2.537-17.096-6.907-21.562-5.142c-4.466,1.765-28.327,6.568-34.659,9.414
		c-6.332,2.847-18.926,9.069-18.926,9.069s-7.137-4.963-6.717-6.222c0.42-1.26-1.961-17.016-12.316-21.102
		c-10.354-4.087-16.922,3.859-18.256,6.393c-1.334,2.534-4.235,7.399-4.235,7.399s-7.967-1.105-12.685-1.831
		c-4.718-0.726-18.209-5.93-18.209-5.93s-2.393-3.325-2.254-6.954c0.138-3.629-2.947-13.611-6.214-15.607
		c-3.267-1.996-6.17-1.996-9.981-0.182c-3.811,1.815-7.55,5.426-7.55,5.426c-0.722-1.139-13.103-26.314-29.978-29.388
		c-16.875-3.074-20.746,38.549-22.367,47.551c-1.621,9.002-2.197,32.239-2.197,35.086c0,2.848,0,12.815,0,12.815
		s-27.453,11.7-40.575,37.692c-13.122,25.993-15.748,45.089-16.9,53.19c-1.152,8.102,0,17.083,0,17.083s-19.195-9.838-38.935-11.919
		c-19.74-2.081-29.246,6.328-35.684,21.829c-6.438,15.503-1.679,42.821,4.618,58.354c6.297,15.534,20.571,44.921,21.83,47.439
		c1.26,2.519,0.42,5.038,0.42,5.038s-18.041,11.477-24.554,21.062c-6.512,9.584-22.227,56.444-34.64,66.378
		c-12.413,9.932-21.979,12.636-27.979,13.757c-6,1.12,0.11,8.773,19.712,1.857c-20.111,12.89-19.793,18.226-14.403,17.272
		c5.39-0.955,19.85-11.621,19.85-11.621s6.322-1.375,1.949,2.084c-4.373,3.458-12.133,12.132-1.774,9.536
		c10.358-2.596,12.036-5.816,17.272-11.296c5.236-5.48,31.454-35.782,39.53-43.966c8.076-8.184,15.953-23.203,15.953-23.203
		s-4.354,12.103-5.84,18.288c-1.486,6.185-4.202,25.849-1.07,36.166c3.132,10.317,4.969,15.616,6.91,10.656
		c1.941-4.959,3.778-16.712,3.778-16.712s0.185,26.44,3.871,26.024c3.686-0.415,11.168-28.843,11.168-28.843
		s-2.445,26.53,1.753,25.59c4.198-0.94,8.397-30.328,8.397-38.723c0-8.397-3.921-25.392-4.689-29.279
		c-0.768-3.887,2.59-18.16,2.59-18.16s43.421-3.117,79.015-23.599c35.594-20.482,48.008-37.815,50.197-38.804
		c2.189-0.989,12.962-5.987,22.059-9.785c9.098-3.799,28.916-12.866,36.219-22.396c7.303-9.53,22.85-23.915,26.411-29.736
		c3.562-5.822,11.601-20.096,13.039-28.071c1.438-7.977,7.735-23.93,7.735-23.93s17.557-21.231,30.646-36.103
		c13.089-14.872,30.402-46.14,32.204-54.136C455.489,131.958,455.909,112.683,451.71,110.146z M176.337,339.963l-17.13,16.228
		l-6.224-20.511l-6.423-23.305l14.607,8.546l25.764,5.067l6.739,2.704L176.337,339.963z"/>
	<path style="fill:#FFFFFF;" d="M251.266,128.516c4.934,7.401-1.301,16.858-16.088,20.42c-14.788,3.563-35.356,11.632-48.295,33.046
		c-12.939,21.415-18.266,52.004-18.266,64.339s6.785,45.356,46.876,47.966c40.091,2.61,59.441-6.025,82.764-39.948
		c23.323-33.923,16.208-63.326,24.392-72.679c8.183-9.353,33.622-20.433,33.622-20.433s-59.058-4.975-80.489-18.227
		C254.349,129.75,251.266,128.516,251.266,128.516z"/>
	<path style="fill:#231815;" d="M288.066,75.809c-3.806,0.648-6.732,2.927-8.81,5.237c-2.091,2.362-3.578,4.858-4.793,7.177
		c0,0-0.087,0.382-0.233,1.01c-0.162,0.619-0.32,1.501-0.491,2.481c-0.331,1.972-0.533,4.383-0.566,6.17
		c0.021,1.823,0.605,2.059,1.313,0.525c0.758-1.499,1.705-4.848,4.361-9.932c1.35-2.526,2.691-4.046,3.721-5.052
		c1.047-1.004,1.845-1.447,2.424-1.787c1.215-0.543,1.616-0.739,3.07-1.297c1.344-0.507,4.038-0.766,6.188,0.665
		c1.057,0.746,2.013,1.979,2.735,3.631c0.745,1.621,1.329,3.6,1.99,5.662c0.503,1.854,0.89,3.767,1.344,5.253
		c0.444,1.522,0.904,2.772,1.354,3.792c0.917,2.035,1.735,3.179,2.231,3.767c0.27,0.282,0.312,0.193,0.244-0.119
		c-0.063-0.275-0.214-0.946-0.33-2.091c-0.107-1.165-0.251-2.73-0.432-4.706c-0.105-1.01-0.223-2.124-0.35-3.344
		c-0.166-1.218-0.303-2.614-0.778-4.197c-0.811-2.685-1.44-5.897-3.766-9.004c-1.189-1.52-2.97-2.774-4.833-3.351
		C291.793,75.695,290.01,75.626,288.066,75.809z"/>
	<path style="fill:#231815;" d="M316.65,108.774c1.674,0.088,4.434,0.481,7.837,1.194c3.453,0.686,5.039-0.84,5.689-0.76
		c0.665,0.021-0.999-1.573-5.176-2.834c-4.191-1.274-9.539-2.122-12.978-3.819c0,0-2.52,0.361-3.933,0.223
		c-1.403-0.149-1.359,2.118,3.204,3.792C315.858,108.166,314.984,108.66,316.65,108.774z"/>
	<path style="fill:#231815;" d="M369.818,110.806c-0.094-1.926-0.183-4.489-1.352-7.425c-1.108-2.772-2.717-5.491-5.052-7.868
		c-1.174-1.174-2.552-2.26-4.211-3.034c-1.707-0.781-3.57-1.056-5.229-1.043c-3.382,0.046-6.508,0.973-9.232,2.588
		c-0.673,0.429-1.331,0.87-1.931,1.42c-0.6,0.527-1.05,1.005-1.532,1.496c-0.93,0.974-1.776,1.922-2.576,2.836
		c0,0-0.668,1.295-1.456,2.994c-0.791,1.698-1.672,3.82-2.193,5.469c-0.477,1.738,0.112,2.027,1.111,0.853
		c1.062-1.131,3.08-3.74,6.693-8.023c0.902-1.054,1.73-1.93,2.439-2.563c0.637-0.566,1.304-0.955,1.891-1.238
		c1.184-0.569,2.059-0.749,2.703-0.87c1.309-0.195,1.774-0.209,3.395-0.529c0.808-0.128,1.787-0.199,2.823-0.053
		c0.968,0.134,2.091,0.584,3.227,1.382c2.274,1.586,4.516,4.514,6.008,8.1c0.689,1.716,1.064,3.358,1.446,4.779
		c0.371,1.428,0.725,2.642,1.092,3.639c0.719,2.01,1.464,3.088,1.746,3.835c0.322,0.751,0.308-0.026,0.247-2.204
		C369.856,114.244,369.877,112.769,369.818,110.806z"/>
	<path style="fill:#231815;" d="M239.319,96.698l0.201-0.067l0.379-0.041c0.254-0.049,0.645-0.033,1.041-0.048
		c1.674,0.012,4.216,0.336,7.093,0.817c1.463,0.241,3.009,0.495,4.59,0.757c1.745,0.264,3.334,0.213,4.952,0.306
		c3.228,0.124,6.411,0.216,9.136,0.228c2.729,0.014,4.322-0.204,4.574-0.444c0.256-0.252-0.821-0.515-3.392-0.871
		c-2.572-0.339-6.647-0.875-12.424-1.636c-2.648-0.281-5.89-1.402-9.684-2.187c-1.941-0.378-3.873-0.873-6.478-0.794
		c-0.34,0.017-0.732,0.096-1.139,0.169c-0.406,0.2-0.958,0.328-1.261,0.595l-0.871,0.667l-0.765,0.83
		c-0.96,1.203-1.454,2.749-1.548,4.195c-0.105,1.46,0.091,2.777,0.384,3.96c0.274,1.202,0.676,2.272,1.067,3.297
		c0.828,2.017,1.753,3.763,2.666,5.332c1.839,3.13,3.591,5.587,5.128,7.645c3.09,4.101,5.299,6.603,7.062,8.5
		c0.445,0.472,0.867,0.905,1.288,1.313c0.223,0.206,0.439,0.406,0.648,0.6c0.198,0.167,0.389,0.329,0.577,0.487
		c0.76,0.629,1.458,1.207,2.19,1.813c1.453,1.228,3.176,2.391,5.835,4.21c5.388,3.522,12.93,7.958,22.589,12.135
		c9.625,4.229,21.399,8.095,34.826,10.72c6.717,1.322,12.5,1.909,17.46,2.201c4.956,0.233,9.036,0.132,12.431,0.054
		c6.779-0.211,10.883-0.206,13.56-0.466c1.339-0.132,1.42-0.26,0.28-0.284c-1.148-0.026-3.504-0.205-7.217-0.654
		c-3.73-0.427-8.779-0.744-15.061-1.278c-3.146-0.252-6.558-0.681-10.327-1.248c-3.759-0.555-7.822-1.3-12.185-2.221
		c-17.405-3.768-36.071-10.679-51.794-21.229c-2.002-1.259-3.868-2.689-5.776-4.037c-0.941-0.69-1.839-1.432-2.755-2.142
		c-0.9-0.724-1.87-1.424-2.6-2.123c-3.212-3.061-6.177-6.586-8.783-10.065c-2.594-3.503-4.899-7.112-6.386-10.723
		c-0.719-1.791-1.197-3.613-1.181-5.151c0.025-0.758,0.195-1.395,0.45-1.908c0.153-0.237,0.295-0.478,0.514-0.667l0.331-0.286
		l0.259-0.193C239.243,96.766,239.116,96.747,239.319,96.698z"/>
	<path style="fill:#231815;" d="M379.048,165.558c-0.876,1.249-1.829,2.464-2.737,3.624c0,0-0.788,1.594-1.812,3.663
		c-1.006,2.088-2.19,4.738-2.633,6.922c-0.208,1.115,0.048,1.812,0.267,1.884c0.27,0.083,0.49-0.34,0.951-1.129
		c0.457-0.798,1.238-2.024,2.511-3.755c1.064-1.409,2.388-3.164,3.973-5.265c0.498,1.58,1.69,3.313,4.549,3.313
		c5.257,0,6.008,1.408,11.115-3.285c4.983-4.577-1.479-7.827-4.709-14.945c0.124-0.187,0.253-0.383,0.394-0.603
		c0.667-1.005,1.456-2.22,2.368-3.572c1.674,1.331,5.204,2.271,7.634,1.867c8.62-1.437,3.278-9.524,0.935-12.546
		c1.169-1.204,2.397-2.416,3.752-3.628c3.816-3.385,6.475-5.803,8.348-7.62c1.878-1.809,2.988-2.973,3.863-3.533
		c0.879-0.549-0.069-0.456-2.726,0.746c-2.628,1.229-7.029,3.576-12.423,8.175c-2.684,2.304-5.336,4.929-7.804,7.789
		c-1.227,1.435-2.435,2.907-3.566,4.435c-1.075,1.441-2.149,2.881-3.217,4.308c0.348-1.376,0.618-3.39,0.468-6.155
		c-0.392-6.512-2.889-13.919-5.351-19.195c0,0-0.163-0.152-0.434-0.405c-0.292-0.238-0.699-0.571-1.158-0.946
		c-0.424-0.378-0.983-0.748-1.509-1.096c-0.493-0.37-1.034-0.667-1.496-0.905c-0.912-0.514-1.301-0.063-1.016,0.917
		c0.322,0.923,1.1,2.438,2.491,5.152c0.674,1.383,1.047,2.447,1.255,3.259c0.223,0.805,0.32,1.344,0.359,1.768
		c0.089,0.843,0.112,1.137,0.571,2.111c0.96,1.923,2.175,5.472,2.726,10.08c0.443,3.966,1.646,5.86,1.96,6.933
		c-1.847,2.479-3.656,4.963-5.266,7.457C380.71,162.846,379.861,164.414,379.048,165.558z"/>
	<path style="fill:#231815;" d="M86.976,306.981c-1.726-0.124-3.747,0.955-4.699,2.055c-0.978,1.126-12.447,6.884-16.126,8.863
		c-1.939,1.043-3.812,1.932-5.154,2.379c-1.962,0.655-24.473,10.148-36.704,15.18c-12.03,4.952-13.785,5.445-15.448,5.973
		c-3.354,1.068-2.749,6.96,1.964,3.864c2.28-1.497,3.313-2.254,14.604-7.209c12.048-5.286,34.4-14.771,37.037-15.894
		c1.407-0.6,2.843-1.187,4.251-1.732c3.961-1.531,15.254-5.941,17.524-6.108c1.471-0.109,3.124-0.632,4.255-1.533
		c0.598,2.01,1.281,4.031,2.034,6.048c-0.31,0.079-0.646,0.168-1.039,0.275c-2.552,0.72-6.772,2.195-12.639,4.648
		c-11.738,4.905-25.459,11.574-35.367,15.881c0,0-5.527,3.191-8.902,4.968c-3.377,1.782-0.656,1.614,11.473-3.929
		c12.137-5.528,10.571-4.36,14.541-6.378c3.97-2.005,10.828-5.333,19.559-9.132c7.007-3.026,10.446-5.014,12.519-5.939
		c0.513,1.359,1.045,2.714,1.612,4.059c3.515,8.34,7.911,16.299,11.498,23.032c3.652,6.727,6.281,12.236,7.334,15.384
		c1.05,2.937,3.652,9.551,6.543,18.27c-1.067,0.2-2.368,0.663-3.9,1.39c-1.525,0.791-3.28,1.862-5.166,3.304
		c-3.791,2.867-8.055,7.226-13.123,12.718c-0.552,0.608-1.061,1.201-1.558,1.789c-0.482-0.427-1.21-0.907-2.249-1.421
		c-2.734-1.355-4.023-1.95-15.935-9.213c-12.711-7.751-36.076-22.203-38.834-23.905c-1.472-0.909-2.96-1.843-4.396-2.764
		c-4.041-2.595-15.595-9.985-17.44-11.634c-2.505-2.235-6.825-4.672-7.776-2.5c-0.78,1.775,3.471,4.441,5.746,5.157
		c1.492,0.469,14.071,7.683,18.194,9.967c2.173,1.203,4.193,2.392,5.515,3.288c1.932,1.309,25.426,15.878,38.107,23.822
		c12.474,7.813,14.142,9.005,15.763,10.12c0.634,0.435,1.272,0.717,1.85,0.871c-1.949,2.478-3.443,4.736-4.66,6.74
		c-1.186-0.857-2.609-1.47-3.705-1.659c-1.725-0.297-15.356-7.774-19.846-10.101c-2.366-1.226-4.546-2.473-5.939-3.469
		c-1.171-0.836-9.977-6.358-19.826-12.527c0.11-1.513,0.232-1.882,0.327-2.225c0.264-0.955-4.2-1.433-3.411,0.08
		c0.056,0.108,0.108,0.209,0.158,0.313c-6.411-4.017-12.986-8.136-17.984-11.295c-4.406-2.816-7.553-4.826-9.791-6.257
		c-1.108-0.732-1.992-1.315-2.691-1.777c-0.412-0.293-0.641-0.473-0.818-0.62c0.106-1.372,0.145-1.897,0.185-2.415
		c0.333-4.248-5.323-6.373-4.323,0.352c0.033,0.22,0.063,0.431,0.096,0.646c0.03,0.235,0.059,0.358,0.089,0.821
		c0.046,0.764,0.099,1.619,0.165,2.709c0.783,0.402,1.776,0.94,2.815,1.513c0.724,0.38,1.608,0.865,2.722,1.499
		c2.229,1.268,5.385,3.135,10.052,5.96c5.54,3.355,12.956,7.902,20.01,12.242c0.01,0.238,0.021,0.465,0.029,0.741
		c0.109,3.586,0.074,10.206,0.074,10.986c0,0.417-0.018,0.84-0.058,1.251c-0.031,0.31-0.076,0.777-0.134,1.301
		c-1.057-0.308-2.202-0.004-2.995,1.592c-1.057,2.121,0.792,3.453,2.248,3.638c0.334,0.205,0.861,0.354,1.636,0.405
		c2.386,0.933,7.261,3.396,9.126,4.291c1.233,0.583,2.355,1.203,3.047,1.74c1.001,0.789,13.781,8.888,21.147,12.591
		c3.585,1.876,5.679,2.856,6.96,3.501c1.032,0.534,1.551,0.796,1.965,1.022c-0.462,1.115-0.963,2.406-1.627,4.191
		c-1.756,4.667-4.097,10.998-7.707,18.243c-1.815,3.611-3.967,7.448-6.698,11.234c-2.729,3.777-6.061,7.507-10.192,10.632
		c-7.967,5.872-14.428,9.084-19.221,11.017c-4.831,1.897-8.135,2.493-10.327,2.558l0.002-0.37c0.452-0.003,0.702,0.016,0.94,0.022
		c0.693,0.026,0.913-0.101,0.772-0.144c-0.157-0.034-0.608-0.139-1.712-0.312l-0.007,1.237c2.074,0.275,6.213,0.403,11.968-1.224
		c5.735-1.675,12.973-4.81,20.959-10.801c2.925-2.334,5.634-5.052,8.083-8.03c2.421-3,4.579-6.243,6.549-9.599
		c3.921-6.731,7.019-13.922,9.916-20.946c2.806-6.809,5.413-13.452,8.602-19.356c0.133-0.177,0.257-0.378,0.369-0.602
		c0.054-0.109,0.085-0.218,0.123-0.327c1.598-2.904,3.34-5.609,5.206-8.055c1.911-2.558,4.076-4.685,6.218-6.932
		c0,0,0.552-0.698,1.461-1.849c0.912-1.148,2.191-2.722,3.7-4.444c2.986-3.433,7.051-7.446,10.848-9.153
		c0.268-0.122,0.488-0.206,0.727-0.305c0.024,0.075,0.048,0.143,0.073,0.219c1.562,4.725,3.209,10.009,4.925,15.565
		c0.864,2.781,1.748,5.623,2.64,8.493c0.392,1.393,0.701,2.721,1.067,4.089c0.204,1.384,0.427,2.773,0.572,4.168
		c0.187,2.468,0.093,4.957-0.165,7.435c-0.085,0.091-0.155,0.155-0.247,0.258c-1.021,1.141-2.477,3.063-4.351,5.885
		c-1.886,2.815-4.158,6.544-7.059,11.132c-2.849,4.516-5.456,7.319-7.4,9.419c-1.972,2.073-3.35,3.361-4.391,4.343
		c-2.091,1.965-2.907,2.628-5.294,5.466c-2.412,2.812-5.542,6.858-9.044,11.751c-3.557,4.855-7.516,10.693-12.827,16.267
		c-5.291,5.576-9.608,8.737-12.924,10.728c-0.414,0.256-0.806,0.5-1.181,0.73c-0.392,0.194-0.765,0.378-1.12,0.552
		c-0.716,0.357-1.354,0.674-1.926,0.96c-1.189,0.453-2.134,0.768-2.9,0.952c-0.767,0.181-0.816,0.295-0.127,0.294
		c0.346-0.001,0.877-0.03,1.603-0.097c0.722-0.073,1.655-0.13,2.727-0.437c1.077-0.282,2.389-0.536,3.779-1.141
		c0.701-0.284,1.474-0.553,2.249-0.921c0.762-0.399,1.566-0.821,2.417-1.267c3.327-1.905,7.033-4.759,10.756-8.629
		c7.524-7.722,13.522-17.667,20.791-25.684c3.657-4.058,7.549-7.916,11.034-11.878c1.746-1.978,3.393-3.98,4.877-6.013
		c1.501-2.056,2.759-4.052,3.977-5.93c0,0,1.105-2.401,2.541-5.52c1.087-2.381,2.363-5.167,3.551-7.59
		c-0.319,1.932-0.711,3.849-1.141,5.731c-1.258,5.459-2.678,10.682-3.733,15.384c-2.129,9.42-2.861,16.651-3.016,19.013
		c-0.958,9.539,0.978,20.298,2.633,17.488c0.437-0.685,0.666-1.931,0.757-3.633c0.044-0.852,0.056-1.818,0.041-2.886
		c0.023-1.068,0.049-2.237,0.077-3.497c-0.013-5.036,0.294-11.535,1.599-18.466c0.599-3.478,2.102-9.898,4.325-18.189
		c1.047-4.158,2.3-8.807,2.891-13.984c0.617-5.149,0.419-10.867-1.219-16.391c-3.21-10.681-6.529-21.978-10.338-32.617
		c-1.906-5.312-3.938-10.44-6.086-15.205c-2.145-4.779-4.468-9.123-6.503-13.066c-4.074-7.89-8.653-16.788-11.931-26.503
		c-1.667-4.856-2.854-9.88-3.538-15.037c-0.688-5.166-1.014-10.381-0.884-15.47c0.155-5.083,0.737-10.049,1.906-14.626
		c1.186-4.565,2.948-8.727,5.215-12.142c2.228-3.41,5.064-5.802,7.941-7.333c2.9-1.522,5.908-2.111,8.579-2.322
		c4.21-0.32,8.248,0.025,12.162,0.426c0.323,0.035,0.637,0.086,0.959,0.122c3.562,4.387,6.925,12.534,9.335,16.305
		c3.051,4.772,6.099-7.807,6.099-7.807s-1.186-3.503-2.886-6.652c2.153,0.368,4.326,0.758,6.543,1.184
		c2.241,3.289,3.035,9.271,6.636,13.854c4.193,5.337,8.76-2.287,5.774-11.125c-0.008-0.023-0.011-0.039-0.019-0.062
		c1.256,0.3,2.528,0.61,3.831,0.94c1.624,0.411,3.277,0.668,4.53,0.704c0.814,2.182,1.726,4.243,2.636,5.957
		c2.282,3.994,3.319,4.064,2.254-0.022c-0.968-4.037-3.783-12.617-1.827-27.575c1.021-7.446,2.581-12.686,3.842-16.508
		c1.285-3.825,2.271-6.272,3.074-8.111c1.578-3.686,2.252-4.98,3.91-9.842c0.828-2.431,1.888-5.273,3.136-8.505
		c0.636-1.646,1.271-3.276,2.043-4.946c0.785-1.674,1.67-3.416,2.739-5.163c4.168-7.061,10.769-14.428,19.201-21.421
		c4.671-4.139,9.012-6.687,12.855-8.486c0.536,1.228,1.245,1.861,2.164,1.621c0.883-0.228,1.547-1.525,2.038-3.411
		c1.204-0.471,2.342-0.89,3.399-1.29c5.229-1.895,8.36-3.217,10.487-3.807c2.134-0.589,0.206-0.614-5.855,0.133
		c-1.976,0.265-4.424,0.545-7.341,1.114c0.622-5.212,0.526-11.993,0.028-16.087c-0.109-0.894-0.211-2.343-0.305-4.229
		c-0.091-1.903-0.228-4.199-0.106-6.784c0.081-2.608,0.302-5.624,0.155-8.92c-0.046-0.823-0.102-1.66-0.208-2.507
		c-0.104-0.857-0.17-1.497-0.186-2.308c-0.028-1.558,0.092-3.202,0.289-4.866c0.397-3.329,1.083-6.764,1.72-10.156
		c0.641-3.367,1.448-6.653,2.346-9.747c1.815-6.183,3.903-11.63,5.374-15.568c0.744-1.942,1.548-3.897,2.539-5.75
		c0.989-1.841,2.18-3.601,3.692-4.866c1.492-1.304,3.357-1.867,5.266-1.694c1.911,0.17,3.835,0.908,5.6,1.92
		c7.265,4.074,12.167,10.47,15.056,15.611c2.912,5.15,5.751,8.86,7.191,8.978c0.701,0.058,1.003-0.794,0.549-2.792
		c-0.472-1.982-1.713-5.156-4.594-9.334c-2.919-4.146-5.893-7.37-8.952-10.008c-1.557-1.289-3.087-2.49-4.714-3.508
		c-0.785-0.549-1.637-0.984-2.448-1.477c-0.869-0.439-1.731-0.9-2.66-1.279c-1.843-0.759-3.957-1.311-6.289-1.165
		c-2.34,0.129-4.747,1.277-6.497,3.005c-3.545,3.48-5.248,8.379-7.126,13.699c-2.013,5.629-4.226,11.631-5.858,17.796
		c-0.836,3.064-1.497,6.196-2.135,9.162c-0.65,3.008-1.271,5.999-1.621,9.002c-0.17,1.505-0.275,3.012-0.204,4.569
		c0.038,0.848,0.099,1.362,0.112,2.031c0.023,0.633,0.021,1.262,0.008,1.885c-0.059,2.492-0.364,4.896-0.628,7.169
		c-0.284,2.27-0.48,4.436-0.58,6.231c-0.13,1.822-0.269,3.394-0.417,4.67c-0.687,5.917-0.957,13.577-0.283,18.772
		c-2.416,0.75-5.023,1.782-7.691,3.261c-2.976,1.614-5.941,3.863-8.803,6.213c-5.842,4.783-11.684,10.375-16.596,17.03
		c-2.454,3.319-4.671,6.89-6.502,10.675c-0.907,1.946-1.687,3.781-2.45,5.596c-0.765,1.838-1.53,3.672-2.292,5.497
		c-6.032,14.666-10.774,29.576-11.911,42.745c0,0,0.048,0.971,0.127,2.574c0.178,1.605,0.394,3.839,0.823,6.32
		c0.286,1.856,0.766,3.828,1.363,5.779c-0.122-0.065-0.218-0.122-0.347-0.189c-6.818-3.584-15.212-7.466-21.086-9.002
		c-6.005-1.605-13.816-3.535-21.848-3.889c-4.007-0.166-8.065,0.116-11.771,0.976c-3.712,0.84-7.022,2.303-9.563,3.916
		c-2.561,1.58-5.372,4.062-7.643,7.216c-2.285,3.152-4.081,6.794-5.354,10.504c-2.571,7.423-3.181,14.759-3.631,18.898
		c-0.198,2.072-0.31,7.577,0.671,14.693C85.925,301.489,86.367,304.168,86.976,306.981z M77.804,420.871
		c-1.27-0.426-3.207-1.177-6.605-2.825c-7.311-3.404-19.996-11.381-21.495-12.328c-0.803-0.499-1.606-1.021-2.378-1.548
		c-1.773-1.227-6.3-4.266-8.342-5.959c-0.339-1.214-0.657-2.858-0.844-3.571c-0.157-0.598-0.223-1.163-0.132-1.547
		c0.125-0.53,0.2-6.475,0.319-10.176c9.413,5.797,17.72,10.94,19.345,11.944c1.578,0.974,3.166,1.982,4.696,2.985
		c4.3,2.825,16.603,10.858,18.438,12.856c0.995,1.082,2.342,2.126,3.715,2.768c-1.331,2.5-2.22,4.319-2.93,5.752
		c-0.427,0.871-0.785,1.604-1.109,2.288C79.669,421.386,79.053,421.303,77.804,420.871z"/>
	<path style="fill:#231815;" d="M134.2,479.258c1.179-5.872,1.665-13.103,2.589-18.156c0,0-0.589-3.107-0.714-4.931
		c-0.125-1.829-1.825-0.802-2.592,5.423c-0.816,6.224-1.365,5.237-1.336,7.358c0.016,2.119-0.209,5.727-0.859,10.186
		c-0.645,4.461,0.392,6.422,0.265,7.314C131.435,487.344,133.026,485.139,134.2,479.258z"/>
	<path style="fill:#231815;" d="M139.477,489.366c-1.421,3.282,1.654,6.463,2.96,0.69c1.161-5.764,1.959-8.041,3.623-14.668
		c1.718-6.974,3.306-15.538,4.457-18.45c1.199-2.904,1.568-7.537-1.252-7.565c-2.289-0.029-2.943,4.441-2.608,6.634
		c0.186,1.096-0.031,4.808-0.551,8.846c-0.506,4.039-1.349,8.39-2.084,10.774C142.58,480.402,140.891,486.038,139.477,489.366z"/>
	<path style="fill:#231815;" d="M145.295,308.215c-0.254-0.216-0.475,0.843-0.277,3.37c0.193,2.523,0.92,6.499,2.594,11.883
		c0.828,2.693,1.888,5.735,3.093,9.155c1.194,3.417,2.581,7.234,3.71,11.469c1.075,4.265,1.585,8.046,1.898,11.321
		c0.312,3.277,0.421,6.06,0.477,8.432c0.099,4.749-0.008,7.864-0.072,10.229c-0.168,4.705-0.275,6.387-0.427,12.363
		c-0.096,2.984-0.302,6.503-0.674,10.5c-0.404,4.008-0.834,8.477-1.721,13.292c-0.422,2.431-0.956,5.004-1.2,7.816
		c-0.256,2.807-0.099,5.83,0.599,8.777c0.32,1.482,0.782,2.936,1.286,4.389c0.49,1.367,0.857,2.688,1.108,4.142
		c0.508,2.88,0.556,6.001,0.81,9.291c0.102,1.618,0.404,3.338,0.508,4.637c0.105,1.396,0.082,2.793,0.025,4.139
		c-0.139,2.699-0.404,5.21-0.676,7.523c-0.579,4.648-1.059,8.496-1.458,11.704c-0.768,6.447-0.93,10.358-1.08,12.924
		c-0.076,1.286,0.018,1.389,0.241,0.307c0.186-1.079,0.641-3.336,1.415-6.791c0.768-3.46,1.916-8.108,3.158-14.087
		c0.602-2.998,1.238-6.32,1.651-10.082c0.201-1.883,0.341-3.877,0.216-6.076c-0.046-0.533-0.087-1.164-0.143-1.636
		c-0.059-0.476-0.114-0.959-0.155-1.453c-0.089-0.988-0.152-2.009-0.203-3.074c-0.107-2.124-0.178-4.362-0.467-6.691
		c-0.15-1.165-0.358-2.348-0.65-3.534c-0.293-1.19-0.739-2.406-1.032-3.345c-1.346-4.057-1.763-8.114-1.077-12.419
		c0.679-4.297,1.779-9.045,2.308-13.679c0.615-4.619,1.123-9.265,1.459-13.891c0.335-4.626,0.503-9.229,0.488-13.749
		c-0.013-4.483-0.064-8.902-0.267-13.23c-0.208-4.326-0.58-8.554-1.215-12.619c-0.628-4.046-1.601-8-2.76-11.538
		c0,0-0.424-1.012-1.123-2.681c-0.722-1.639-1.73-3.923-2.869-6.507c-2.292-5.12-4.996-11.437-6.229-16.421
		C145.935,309.891,145.589,308.426,145.295,308.215z"/>
	<path style="fill:#231815;" d="M194.865,397.96c-2.531,0.833-4.871,1.605-7.039,2.318c-2.193,0.713-4.126,1.422-5.941,1.875
		c-3.659,0.944-6.846,1.439-9.471,2.026c-5.237,1.157-8.352,1.993-10.495,2.22c-0.275,0.027-0.488,0.048-0.637,0.063l-0.079-0.001
		l-0.04-0.002l-0.122-0.063l-0.064-0.247c0.074-0.157,0.195-0.17,0.19-0.179l0.083-0.059l-0.03-0.029l-0.059-0.003
		c-0.043,0.017-0.003-0.039-0.176,0.066l-0.089,0.081l-0.059,0.178l0.209,0.359c0.181,0.067,0.102,0.032,0.171,0.053l0.157,0.027
		l0.322,0.035c0.95,0.076,2.879,0.046,5.83-0.131c1.471-0.087,3.212-0.219,5.179-0.385c1.964-0.162,4.205-0.303,6.755-0.609
		c1.275-0.155,2.627-0.362,4.043-0.658c0.707-0.144,1.431-0.322,2.17-0.517c0.701-0.193,1.42-0.391,2.153-0.593
		c2.935-0.813,6.112-1.752,9.529-2.834c13.658-4.327,28.412-10.148,41.949-17.326c6.788-3.568,13.222-7.595,18.955-11.939
		c2.871-2.171,5.57-4.419,8.06-6.727c1.248-1.151,2.437-2.322,3.57-3.503c1.136-1.167,2.233-2.464,3.128-3.299
		c0,0,0.135-0.148,0.381-0.419c0.232-0.279,0.626-0.656,1.119-1.133c1.003-0.948,2.561-2.206,4.398-3.668
		c1.83-1.462,3.885-3.174,5.698-5.056c1.827-1.873,3.384-3.913,4.579-5.725c1.125-1.806,1.632-2.923,1.563-3.257
		c0.11,0.433,0.475,0.878,1.128,1.268c1.777,1.12,5.885,1.455,10.66-0.895c4.836-2.24,17.051-7.857,27.67-15.538
		c2.962-2.17,5.687-4.506,8.136-6.775c0.715,0.289,1.571,0.639,2.588,1.076c2.632,1.161,3.669,1.908,4.312,2.313
		c0.637,0.435,0.856,0.611,1.763,0.993c1.825,0.743,4.815,2.341,8.798,3.959c0.293,0.109,0.55,0.179,0.82,0.265
		c-0.384,0.237-0.784,0.497-1.218,0.81c-4.681,3.33-8.162,6.316-9.31,7.256c-1.177,0.912-13.417,7.189-15.564,8.371
		c-2.16,1.17-8.749,4.448-12.503,6.78c-3.754,2.336-7.032,3.477-10.116,6.027c-3.07,2.585-15.968,8.604-19.509,10.268
		c-3.547,1.668-25.907,11.831-31.479,14.939c-5.613,3.027-28.506,15.372-30.672,16.541c-2.091,1.323-12.436,5.839-14.675,6.837
		c-2.216,1.044-10.897,4.498-14.129,6.843c-3.202,2.315-9.24,3.401-10.414,4.375c-1.2,0.895-9.789,6.581-12.584,8.601
		c-2.798,2.004-7.928,5.92-5.959,5.393c1.99-0.51,8.901-4.332,11.552-6.541c2.699-2.249,12.062-5.285,18.095-9.184
		c3.006-1.982,6.427-3.482,9.689-4.934c3.265-1.449,6.434-2.814,9.227-4.397c5.578-3.176,10.902-5.705,13.88-7.448
		c2.981-1.729,7.308-2.943,10.395-4.459c3.083-1.524,11.883-5.875,11.883-5.875s0,0,5.153-2.864
		c1.284-0.713,4.191-1.488,7.263-3.018c3.072-1.533,13.052-6.787,17.457-8.931c2.198-1.098,6.592-3.294,10.657-5.326
		c4.063-2.059,7.774-3.984,8.711-4.315c1.868-0.669,5.047-2.029,5.047-2.029s2.236-2.087,4.709-3.713
		c2.472-1.625,4.584-1.843,8.347-4.179c3.759-2.336,11.9-5.849,14.79-7.718c2.887-1.872,7.204-4.192,9.491-5.107
		c2.292-0.923,4.635-2.763,8.49-3.933c3.731-1.179,3.464-2.935,7.135-5.634c-0.191,0.547-0.328,1.02-0.403,1.412
		c-0.124,0.656-0.096,1.12,0.056,1.459c0.076,0.17,0.181,0.308,0.318,0.417l0.112,0.068l0,0.001c0.12,0.053,0.267,0.117,0.5,0.205
		l0.211,0.091l0.064,0.017l0.132,0.008c0.18-0.007,0.371-0.078,0.572-0.202c0.402-0.249,0.844-0.718,1.341-1.406
		c0.994-1.378,2.213-3.633,3.794-6.782c3.158-6.305,14.723-32.774,28.857-60.828c4.615-9.21,22.784-45.481,40.587-81.016
		c17.818-35.528,35.146-70.377,38.475-76.571c1.393-2.538,2.421-5.257,2.92-7.429c0.519-2.193,0.369-3.788-0.204-4.003
		c-0.589-0.236-1.195-0.437-2.139,0.81c-0.884,1.057-2.383,3.749-4.863,9.27c-1.681,3.894-7.786,16.617-16.396,34.341
		c0.246-0.73,0.499-1.459,0.735-2.193c1.576-5.232,2.843-10.689,2.32-16.403c-0.279-2.827-1.113-5.769-2.876-8.234
		c-1.738-2.487-4.343-4.205-6.948-5.151c-5.161-1.877-10.256-2.096-15.069-2.005c-4.816,0.138-9.357,0.768-13.625,1.461
		c0,0-4.905,1.223-11.28,2.811c-3.219,0.853-6.82,2.198-9.986,3.992c-3.148,1.721-6.203,3.397-8.942,4.567
		c-2.732,1.178-4.378,1.746-4.59,2.069c-0.224,0.283,1.03,0.37,3.891-0.355c1.426-0.366,3.238-0.961,5.413-1.834
		c2.163-0.837,4.744-2.082,7.619-3.231c2.905-1.143,6.366-1.959,10.508-2.643c4.185-0.674,8.815-1.679,13.931-2.318
		c5.128-0.663,9.534-0.756,13.245-0.412c3.689,0.355,6.787,1.168,8.873,2.285c2.12,1.143,3.405,2.614,4.121,4.078
		c0.73,1.455,1.088,2.801,1.237,4.012c0.307,2.421,0.195,4.17-0.018,6.085c-0.219,1.918-0.511,4.036-1.299,7.337
		c-1.619,6.589-4.914,15.564-9.618,25.983c-2.402,5.191-5.143,10.803-8.589,16.451c-1.71,2.848-3.654,5.559-5.839,8.412
		c-2.163,2.829-4.388,5.737-6.671,8.722c-18.449,23.706-25.391,33.58-29.668,37.885c-1.062,1.069-1.082,1.232-0.061,0.427
		c1.022-0.801,3.095-2.576,6.033-5.525c5.903-5.875,15.338-16.372,27.787-32.152c1.547-1.981,3.112-3.988,4.693-6.014
		c1.133-1.471,2.27-2.965,3.407-4.51c-12.953,26.488-27.456,56.081-40.542,82.863c-6.187,12.686-26.253,51.376-29.696,58.258
		c-0.181,0.362-0.348,0.701-0.511,1.033c-0.191-0.166-0.356-0.25-0.356-0.25s-0.547-0.35-1.631-0.261
		c-0.47,0.04-1.04,0.165-1.713,0.42c-0.739-0.272-1.543-0.587-2.475-1.011c-4.945-2.202-10.751-5.698-15.282-7.669
		c0,0-0.498-0.081-1.191-0.192c1.405-1.344,2.712-2.648,3.887-3.854c3.507-3.611,6.003-6.365,6.925-7.382
		c0.917-1.017,3.398-3.857,6.741-7.445c1.644-1.737,3.685-3.835,5.679-6.098c2.008-2.266,4.025-4.749,5.939-7.314
		c3.842-5.127,7.174-10.614,9.702-15.13c2.513-4.522,4.318-8.062,5.049-9.527c2.933-5.794,6.272-13.476,7.718-18.049
		c0.768-2.252,0.607-6.182-0.523-8.34c-0.584-1.087-1.25-1.633-1.85-1.539c-0.641,0.12-1.068,0.729-1.622,2.281
		c-2.229,6.163-4.49,16.486-10.24,24.398c-0.544,0.736-1.177,2.206-1.9,4.082c0.425-6.431-3.388-7.009-7.012-3.031
		c-3.637,3.993-6.015,6.118-8.208,13.931c-2.193,7.814-4.76,20.455,0.495,14.583c1.545-1.728,8.638-10.586,10.795-15.253
		c-1.468,3.446-3.12,6.728-4.717,8.875c-2.134,2.961-6.274,7.815-10.708,12.244c-4.412,4.51-8.434,9.189-10.371,11.745
		c-1.929,2.538-8.165,9.016-14.95,13.935c-6.769,4.885-14.068,8.112-15.209,8.795c-1.169,0.668-5.707,3.177-10.619,5.328
		c-4.894,2.225-10.175,3.767-12.276,4.242c-1.277,0.302-1.879,0.989-1.725,1.723c-0.131-0.249-0.84,0.298-2.125,1.795
		c-1.372,1.49-3.504,3.842-7.039,6.536c-1.773,1.352-3.933,2.724-6.474,4.38c-1.268,0.842-2.633,1.767-4.018,2.937
		c-0.691,0.593-1.37,1.251-2.031,1.988c-0.584,0.645-1.181,1.306-1.796,1.984c-5.019,5.306-9.268,8.47-12.423,10.738
		c-3.191,2.24-5.372,3.552-7.041,4.517c-3.355,1.91-4.597,2.548-8.821,5.072C230.493,383.832,215.152,391.364,194.865,397.96z"/>
	<path style="fill:#231815;" d="M218.029,315.929c-2.051-0.209-6.444,0.627-12.683,3.877c-6.211,3.275-8.81,4.726-10.47,5.516
		c-0.681,0.339-1.186,0.584-1.678,0.853c-1.579-0.446-3.505-0.944-5.807-1.473c-8.775-2.032-19.371-4.363-26.567-7.106
		c0,0-4.581-0.566-7.255-1.188c-2.66-0.633-1.502,1.484,7.6,4.514c9.146,2.884,7.7,2.978,10.863,3.574
		c3.174,0.546,8.546,1.65,15.264,2.988c1.198,0.235,2.235,0.382,3.203,0.496c-1.842,1.372-4.278,3.143-7.282,5.182
		c-3.159,2.162-6.943,4.745-10.634,8.26c-3.623,3.529-5.621,6.279-7.171,8.247c-1.51,1.982-2.365,3.262-3.107,3.921
		c-0.74,0.654,0.142,0.423,2.483-1.074c1.161-0.761,2.693-1.843,4.498-3.355c1.822-1.495,3.868-3.458,6.246-5.534
		c0.005-0.004,0.01-0.008,0.014-0.012c-0.132,0.778-0.184,1.491-0.12,1.974c0.206,1.568-4.78,5.293,0,8.117
		c4.78,2.825,1.319,0.226,7.037,3.275c5.717,3.05,6.479,4.574,8.178,4.956c1.698,0.381,8.592-1.143,9.737-3.43
		c1.143-2.287-1.906-6.861-3.812-10.971c-1.906-4.109-0.961-4.896-10.292-8.733c-1.164-0.479-2.12-0.77-2.97-0.967
		c0.052-0.035,0.103-0.07,0.155-0.105c2.942-1.892,5.926-3.811,8.861-5.698c0.986-0.635,1.965-1.257,2.941-1.872
		c1.243,1.022,3.643,2.573,8.281,4.923c11.196,5.675,7.126,0.552,10.177,0c3.049-0.552,9.148,5.126,14.767,7.032
		c5.619,1.906,8.485-3.43,5.054-9.934c-3.182-6.03-10.954-10.685-19.718-12.922c1.364-0.78,2.817-1.507,4.069-1.928
		C219.699,316.816,220.075,316.14,218.029,315.929z"/>
	<path style="fill:#231815;" d="M61.635,477.462c-1.164,0.155-3.507,0.963-7.013,3.026c-6.966,4.154-6.229,3.089-8.401,4.699
		c-2.165,1.584-5.961,4.215-11.176,6.503c-5.199,2.218-7.182,3.669-8.307,4.009c-0.557,0.146-0.038,0.301,1.604,0.198
		c1.634-0.106,4.406-0.576,8.073-2.033c7.377-2.909,14.873-8.549,20.623-11.526c0,0,2.876-2.651,4.813-3.919
		C62.807,477.771,62.799,477.3,61.635,477.462z"/>
	<path style="fill:#231815;" d="M43.288,501.084c7.361-3.634,13.836-10.724,19.528-13.735c0,0,0.721-0.642,1.656-1.474
		c0.978-0.763,2.234-1.698,3.283-2.191c1.024-0.537,1.106-1.017-0.092-0.981c-1.189,0.013-3.774,0.603-7.324,2.888
		c-3.502,2.308-4.927,3.341-5.87,3.895c-0.915,0.576-1.275,0.764-2.266,1.711c-2.007,1.846-5.408,5.118-10.451,7.822
		c-5.022,2.582-7.182,3.728-8.342,4.04c-0.574,0.115-0.071,0.302,1.619,0.287C36.702,503.335,39.627,502.886,43.288,501.084z"/>
	<path style="fill:#231815;" d="M280.744,58.199c0.28-0.73,0.542-1.912,0.871-3.444c0.17-0.763,0.381-1.57,0.734-2.296
		c0.322-0.707,0.986-1.523,1.829-2.646c3.323-4.53,4.449-6.703,5.283-7.866c0.81-1.209,1.123-1.626,1.773-3.334
		c0.643-1.703,1.565-3.969,2.829-6.624c1.275-2.643,2.886-5.703,5.118-8.732c2.237-3.008,3.806-5.051,5.1-6.465
		c0.65-0.687,1.22-1.229,1.702-1.669c0.518-0.364,0.948-0.641,1.316-0.784c0.735-0.25,0.036-0.524-2.271,0.045
		c-2.284,0.614-5.76,2.878-9.087,7.156c-3.304,4.281-5.933,9.486-8.33,14.43c-1.209,2.47-2.356,4.892-3.585,7.014
		c-1.24,2.18-2.541,3.89-4.026,5.713c0,0-0.147,0.305-0.388,0.93c-0.239,0.586-0.556,1.553-0.637,2.568
		c-0.19,2.041,0.254,4.094,0.412,5.671C279.585,59.432,280.188,59.671,280.744,58.199z"/>
	<path style="fill:#231815;" d="M372.092,334.283c0.032,0.013,0.067,0.029,0.102,0.044c-0.022-0.013-0.041-0.025-0.074-0.037
		L372.092,334.283z"/>
	<path style="fill:#231815;" d="M310.229,20.225c2.688,0.649,8.102,1.156,18.843,2.872c2.691,0.425,7.586,1.35,14.419,2.737
		c6.876,1.383,15.547,2.92,25.66,5.421c10.109,2.465,21.642,5.7,34.03,10.211c12.413,4.461,25.689,10.137,39.609,16.552
		c6.95,3.25,14.098,6.591,21.401,10.006c3.657,1.709,7.354,3.436,11.085,5.179c3.646,1.632,7.041,3.835,10.531,6.145l2.632,1.736
		c0.89,0.58,1.805,1.157,2.569,1.704c0.8,0.555,1.481,1.182,2.036,1.82c0.483,0.662,0.755,1.273,0.742,1.938
		c0.007,0.668-0.295,1.491-0.755,2.343c-0.44,0.851-1.006,1.726-1.578,2.631c-1.126,1.843-2.379,3.638-3.156,5.929
		c-1.55,3.783-3.512,7.75-5.339,11.628c-1.88,3.896-3.766,7.807-5.656,11.726c-15.247,31.312-31.024,63.103-45.789,92.965
		c-11.305,22.871-47.156,93.026-53.4,105.452c-3.125,6.211-4.82,9.901-5.581,12.113c-0.381,1.107-0.528,1.845-0.503,2.342
		c0.013,0.248,0.071,0.437,0.165,0.576l0.176,0.157c-0.062-0.027-0.119-0.053-0.176-0.081c0.033,0.02,0.073,0.043,0.172,0.08
		l0.401,0.159l0.054,0.021l0.269-0.068c0.198-0.096,0.425-0.288,0.684-0.571c0.516-0.565,1.159-1.496,1.942-2.802
		c1.568-2.611,3.708-6.722,6.572-12.415c5.722-11.398,28.016-58.548,53.514-109.29c4.163-8.328,14.443-28.892,27.696-55.408
		c6.594-13.274,13.945-28.028,21.483-43.577c1.868-3.918,3.796-7.772,5.557-11.936c0.623-2,1.862-3.773,3.021-5.651
		c0.594-0.934,1.219-1.873,1.763-2.936c0.254-0.501,0.503-1.044,0.691-1.627c0.058,0.037,0.104,0.096,0.166,0.122
		c0.353,0.186,0.759,0.299,1.105,0.305c0.752,0.097,1.359,0.031,1.99,0.553c0.226,0.177,0.839-0.269,1.342-0.85
		c0.534-0.552,1.012-1.207,1.395-1.265c0.758-0.12,2.739-0.198,3.291-0.751c0.306-0.288,1.5-0.246,2.542-0.171
		c-0.033,2.674-0.976,5.568-2.138,8.385l-0.983,2.379l0.093-0.054c-0.168,0.373-0.331,0.736-0.51,1.138
		c-0.612,1.296-1.289,2.733-2.028,4.3c-1.529,3.128-3.311,6.776-5.306,10.86c-4.078,8.138-9.023,18.011-14.495,28.934
		c-11.067,21.79-24.26,47.766-36.8,72.452c-12.015,23.604-50.108,95.985-56.634,108.871c-3.286,6.428-5.041,10.267-5.784,12.595
		c-0.371,1.163-0.493,1.951-0.414,2.482l0.104,0.338l0.045,0.046l-0.014-0.002c-0.11-0.206-0.241-0.405-0.429-0.585
		c-1.39-1.36-4.482-0.403-7.911,1.341c-3.408,1.751-7.06,4.31-9.171,6.263c-1.4,1.279-9.468,6.702-18.799,12.068
		c-9.283,5.492-19.407,11.482-24.372,14.419c-5.217,3.113-10.225,5.91-13.738,7.616c-1.273,0.643-5.999,3.03-12.881,6.507
		c-3.466,1.704-7.474,3.676-11.862,5.835c-4.371,2.214-9.105,4.651-14.002,7.287c-9.814,5.238-20.345,11.151-30.532,16.646
		c-9.914,5.365-19.507,10.293-27.658,14.07c-0.341-0.027-0.701-0.042-1.103-0.026c-2.014,0.082-2.971,0.984-3.269,2.022
		c-6.44,2.887-11.797,5.051-16.162,6.901c-5.184,2.176-9.019,3.824-11.943,5.118c-5.845,2.599-8.098,3.646-10.304,4.669
		c-4.465,2.081-6.861,5.338-6.548,6.839c0.341,1.543,3.171,1.317,9.6-2.688c3.138-1.919,5.449-3.323,10.85-5.996
		c2.706-1.327,6.191-2.957,10.978-5.081c3.858-1.727,8.618-3.752,14.396-6.411c0.738,2.359,1.692,9.438,2.2,11.928
		c0.29,1.505,0.447,2.929,0.353,3.907c-0.165,1.434,0.577,18.277,0.483,27.362c-0.091,8.939-0.496,10.16-0.696,11.345
		c-0.452,2.366,6.168,3.838,5.09-0.082c-0.537-1.885-0.791-2.764-1.032-11.315c-0.267-9.13-1.068-25.862-1.123-27.828
		c-0.046-1.055-0.059-2.122-0.04-3.162c0.038-2.93,0.247-11.265,1.118-12.742c0.459-0.809,0.662-1.769,0.444-2.619
		c7.728-3.734,16.598-8.377,25.741-13.386c10.162-5.546,20.665-11.5,30.489-16.794c4.904-2.666,9.653-5.133,14.062-7.389
		c0.553-0.275,1.082-0.538,1.624-0.808c0.012,0.054,0.019,0.105,0.033,0.162c0.064,0.262,0.198,0.59,0.231,0.619
		c0.12,0.212,0.277,0.457,0.401,0.608l0.3,0.317c0.216,0.225,0.371,0.331,0.602,0.547l0.925,0.874l0.559-0.017
		c1.553-0.044,3.486-0.072,11.379,2.043c9.859,2.622,27.67,9.424,29.843,10.083c1.139,0.393,2.279,0.83,3.388,1.262
		c3.08,1.303,12.132,4.525,13.623,5.723c1.672,1.504,4.534,2.006,5.812-0.764c1.759,0.642,4.13,0.242,3.376-2.233
		c-0.584-1.881-0.932-2.759-1.276-11.331c-0.183-4.571-0.331-11.061-0.26-16.641c0.059-5.581,0.355-10.241,0.444-11.219
		c0.086-1.046,0.199-2.105,0.341-3.13c0.251-1.43,0.688-4.201,1.392-6.686c0.689-2.49,1.588-4.679,2.236-5.174
		c0.417-0.357,0.754-0.784,0.953-1.252c0.204-0.462,0.34-0.898,0.249-1.402c-0.049-0.279-0.165-0.576-0.344-0.879
		c3.313-1.739,5.871-3.066,7.164-3.607c3.793-1.59,8.24-4.097,11.313-6.706c2.745-2.311,4.363-4.753,3.466-6.431h0.014l0.001,0.002
		l0.005-0.001c0.145,0.021,0.19,0.068,0.44,0.129c0.211,0.059,0.424,0.129,0.642,0.209l0.161,0.061l0.005,0.007l0.016-0.002
		l0.068-0.015l0.162-0.097l0.374-0.335c0.538-0.557,1.215-1.512,2.038-2.854c1.647-2.685,3.893-6.934,6.907-12.819
		c5.999-11.79,29.485-60.583,56.603-112.932c3.557-6.896,11.31-21.927,21.651-41.977c5.15-10.037,10.942-21.33,17.181-33.49
		c3.097-6.092,6.304-12.401,9.596-18.88c1.629-3.249,3.28-6.541,4.948-9.869c0.821-1.673,1.647-3.355,2.477-5.046l1.222-2.566
		l0.598-1.313l0.292-0.687l0.147-0.382l0.079-0.245l0.049-0.226c0.002-0.028,0.004-0.044,0.007-0.055
		c0.996-2.435,1.902-4.979,2.218-7.756c0.091-0.666,0.12-1.347,0.103-2.031c0.426-0.185,0.813-0.392,0.953-0.586
		c0.318-0.434-0.638-2.922-1.453-2.781c-0.299-1.091-0.721-2.142-1.255-3.102c-0.676-1.248-1.377-2.466-2.389-3.628
		c-0.986-1.124-2.144-2.054-3.351-2.842c-2.427-1.572-5.037-2.625-7.552-3.685c-9.911-4.439-19.841-9.354-29.68-13.954
		c-9.839-4.64-19.609-9.128-29.216-13.144c-4.797-2.024-9.562-3.909-14.253-5.677c-4.683-1.795-9.359-3.324-13.773-4.967
		c-8.869-3.304-17.165-6.746-24.959-9.484c-3.893-1.379-7.661-2.588-11.283-3.578c-3.613-1.007-7.136-1.697-10.281-2.37
		c-6.366-1.462-11.816-2.712-16.152-3.708c-4.355-0.993-7.621-1.659-9.565-2.062c-5.349-1.118-10.866-1.558-15.003-1.295
		c-4.148,0.249-6.825,1.128-6.772,1.729c0.038,0.633,0.105,1.269,2.844,1.601c2.75,0.444,8.202,0.662,19.313,2.553
		c3.341,0.538,9.949,1.89,19.923,4.106c2.495,0.546,5.219,1.117,8.164,1.691c2.82,0.554,5.83,1.283,9.023,2.191
		c6.383,1.832,13.46,4.405,21.31,7.412c3.929,1.497,8.056,3.099,12.438,4.69c4.422,1.608,8.957,3.069,13.639,4.834
		c9.382,3.464,19.379,7.644,30.016,12.429c10.639,4.783,21.914,10.173,33.98,15.833c3.022,1.383,6.053,2.903,9.31,4.232
		c3.153,1.309,6.271,2.594,8.566,4.61c0.557,0.508,1.08,1.042,1.497,1.64c0.419,0.541,0.894,1.38,1.285,2.055
		c0.577,1.054,1.019,2.106,1.276,3.194c-1.426,0.353-2.933,0.565-3.222,0.617c-0.267,0.077-1.472,0.383-2.656,0.6
		c-1.205,0.24-2.266,0.232-2.523,0.237c-0.475-0.037-1.044-0.13-1.049-0.206c-0.071-0.004-0.477,0.585-1.263,1.001
		c-0.178,0.105-0.368,0.205-0.55,0.307c0-0.016,0.003-0.029,0.002-0.044c-0.031-1.44-0.806-2.679-1.617-3.591
		c-0.821-0.961-1.782-1.659-2.742-2.325l-5.611-3.73c-1.875-1.246-3.778-2.481-5.756-3.62c-1.972-1.161-4.083-2.115-6.093-3.059
		c-16.243-7.634-32.295-15.523-47.832-22.248c-15.516-6.76-30.549-12.287-44.13-16.162c-13.554-3.94-25.582-6.515-34.888-8.372
		c-9.27-1.981-15.935-3.391-19.068-3.975c-10.342-2.094-20.923-1.673-20.972-0.615C307.573,19.096,307.538,19.635,310.229,20.225z
		 M290.393,395.461c0.001-0.001,0.006-0.003,0.007-0.003c0,0.003,0.001,0.008,0.002,0.012L290.393,395.461z M350.041,410.06
		c-0.592,0.238-3.337-0.044-6.34-0.558c-3.001-0.506-6.254-1.219-7.863-1.533c-1.702-0.317-3.261-0.775-4.261-1.26
		c-1.481-0.626-19.351-7.521-29.371-10.572c-5.72-1.753-8.608-2.542-10.129-3.012c-0.126-0.317-0.347-0.561-0.604-0.739
		c-0.126-0.093-0.19-0.136-0.23-0.161c-0.001-0.014-0.029-0.059-0.109-0.155c2.193-1.091,4.272-2.125,6.192-3.081
		c7.159-3.608,12.189-6.301,13.946-7.228c3.753-1.988,7.557-4.001,11.255-5.96c5.215-2.731,15.217-8.08,24.638-12.935
		c2.275-1.166,4.535-2.313,6.688-3.412c-0.062,1.048-0.138,2.348-0.219,3.714c-0.127,2.818-0.115,5.827-0.058,7.304
		c0.094,1.557,0.086,3.007-0.134,3.983c-0.15,0.712-0.524,5.341-0.664,10.944c-0.158,5.604-0.114,12.172-0.112,16.777
		c0.005,3.829-0.04,6.252-0.109,7.875C351.717,409.753,350.769,409.777,350.041,410.06z"/>
	<path style="fill:#231815;" d="M371.835,334.215l0.257,0.068c-0.075-0.031-0.144-0.057-0.195-0.059L371.835,334.215z"/>
	<polygon style="fill:#231815;" points="371.826,334.209 371.828,334.214 371.835,334.215 371.831,334.214 	"/>
	<polygon style="fill:#231815;" points="371.781,334.181 371.795,334.18 371.826,334.209 371.814,334.178 	"/>
	<path style="fill:#231815;" d="M360.05,332.162l-0.042-0.01l0.03,0.028l0.265,0.068c-0.053-0.022-0.099-0.039-0.143-0.046
		L360.05,332.162z"/>
	<path style="fill:#231815;" d="M360.304,332.249c0.02,0.009,0.044,0.02,0.068,0.03l-0.056-0.027L360.304,332.249z"/>
	<polygon style="fill:#231815;" points="359.992,332.148 360.008,332.152 360.003,332.148 	"/>
	<path style="fill:#231815;" d="M360.549,332.365l0.003-0.005c-0.071-0.032-0.134-0.059-0.181-0.081L360.549,332.365z"/>
	<path style="fill:#231815;" d="M369.209,333.556c-1.313,0.445-3.542,1.76-8.137,4.504c-2.279,1.396-8.594,4.844-17.63,9.87
		c-9.027,5.018-20.685,11.668-33.955,18.887c-13.216,7.275-28.407,14.564-43.649,22.516c-15.264,7.87-30.778,15.929-45.507,23.161
		c-2.821,1.379-7.143,3.424-12.164,5.694c-5.006,2.313-10.775,4.634-16.317,7.233c-5.525,2.6-10.691,5.506-14.853,7.92
		c-4.132,2.45-7.328,4.345-8.802,5.22c-5.863,3.527-6.587,4.546-5.905,5.719c0.674,1.16,3.308-0.045,8.695-3.303
		c2.729-1.576,9.252-6.219,18.477-11.415c4.604-2.613,10.048-5.073,15.918-7.834c5.824-2.783,12.017-5.742,18.339-8.764
		c4.15-1.97,14.337-6.957,27.384-13.537c13.053-6.588,28.979-14.678,44.887-22.482c15.844-7.973,31.155-16.52,43.355-23.121
		c12.184-6.626,21.277-11.293,24.08-12.755c4.698-2.289,8.388-6.228,7.71-7.096C370.823,333.534,370.504,333.103,369.209,333.556z"
		/>
	<path style="fill:#231815;" d="M364.54,164.587c-2.122,0.833-4.345,0.993-6.261,1.301c-1.919,0.284-2.52,1.765-1.7,2.656
		c0.396,0.453,1.077,0.785,2.13,0.81c1.05,0.013,2.533-0.247,4.389-1.27c1.964-1.134,3.092-1.766,4.374-2.768
		c0.643-0.486,1.283-1.176,1.86-2.185c0.518-1.027,0.91-2.435,0.75-4.104c-0.122-1.384-0.66-2.877-1.718-3.892
		c-1.039-1.021-2.31-1.529-3.482-1.836c-2.376-0.568-4.581-0.475-6.65-0.11c-1.618,0.306-2.355,1.604-2.049,2.509
		c0.313,0.939,1.37,1.531,3.268,1.303c1.96-0.19,3.359-0.631,4.933-0.791c0.767-0.05,1.599-0.034,2.366,0.367
		c0.762,0.383,1.393,1.28,1.456,2.555c0.076,1.298-0.239,2.548-0.927,3.479C366.596,163.552,365.587,164.168,364.54,164.587z"/>
	<path style="fill:#231815;" d="M50.358,359.873c1.744,0.967,3.369,1.922,4.431,2.642c1.553,1.052,20.425,12.754,30.611,19.136
		c10.02,6.277,11.359,7.234,12.662,8.129c2.628,1.807,5.388,0.37,0.849-1.877c-2.196-1.087-3.233-1.566-12.802-7.4
		c-10.21-6.226-28.979-17.836-31.195-19.204c-1.182-0.73-2.376-1.48-3.532-2.221c-3.247-2.084-12.527-8.02-14.009-9.345
		c-2.012-1.795-5.481-3.753-6.246-2.008c-0.627,1.426,2.787,3.567,4.615,4.142C36.941,352.244,47.047,358.039,50.358,359.873z"/>
	<path style="fill:#231815;" d="M164.633,474.77c0.615,0.366,1.347,0.109,1.919-0.352c0.363-0.328,2.148-0.531,4.196-0.294
		c2.036,0.208,4.277,0.764,5.384,1.05c1.186,0.246,2.228,0.707,2.848,1.173c0.467,0.317,3.593,2.109,7.288,4.5
		c3.695,2.387,8.028,5.283,11.217,7.177c3.12,1.885,5.026,2.831,6.2,3.445c1.177,0.648,1.634,0.899,2.083,1.147
		c1.957,1.054,4.404-5.139,1.507-4.859c-0.731,0.083-1.281,0.084-2.398-0.199c-0.559-0.137-1.263-0.341-2.186-0.753
		c-0.932-0.376-2.091-0.914-3.555-1.708c-3.138-1.658-7.464-4.42-11.277-6.781c-3.807-2.367-7.171-4.207-7.91-4.552
		c-0.768-0.408-1.545-0.822-2.303-1.225c-0.539-0.285-1.327-0.704-2.224-1.18c-0.938-0.435-1.988-0.923-3.006-1.397
		c-1.062-0.408-2.081-0.862-2.935-1.221c-0.872-0.315-1.552-0.617-1.853-0.885c-0.798-0.773-2.017-1.004-2.952-0.496
		c-0.943,0.504-1.522,1.758-1.359,4.107C163.449,473.386,164.02,474.394,164.633,474.77z"/>
	<path style="fill:#231815;" d="M315.683,34.47c2.064,0.172,7.519,0.711,15.279,2.172c3.883,0.725,8.362,1.672,13.338,2.669
		c4.994,0.974,10.33,2.022,16.006,3.36c11.328,2.638,23.805,6.175,36.181,10.783c12.398,4.565,24.737,10.05,36.228,15.414
		c4.406,2.041,13.25,6.555,21.594,10.85c4.144,2.151,8.299,4.203,11.476,5.912c3.133,1.806,5.425,3.52,6.513,4.257
		c4.32,3.047,5.438,3.046,6.276,1.787c0.828-1.258-0.725-2.7-4.754-5.53c-1.022-0.693-2.872-1.892-5.57-3.294
		c-0.676-0.349-1.407-0.705-2.196-1.055c-0.747-0.326-1.534-0.669-2.355-1.027c-1.632-0.716-3.407-1.494-5.301-2.325
		c-7.573-3.347-16.995-7.716-26.74-12.449c-6.378-3.021-31.592-15.594-58.128-23.026c-6.599-1.903-13.221-3.588-19.519-5.012
		c-6.292-1.378-12.223-2.676-17.465-3.824c-10.485-2.409-18.42-3.48-20.807-3.929c-3.957-0.766-8.048,0.143-8.131,1.345
		C307.508,32.797,307.437,33.878,315.683,34.47z"/>
	
		<rect x="283.822" y="46.264" transform="matrix(0.4803 -0.8771 0.8771 0.4803 112.7082 285.291)" style="fill:#231815;" width="26.557" height="2.542"/>
	<path style="fill:#231815;" d="M377.871,242.76c4.62-2.298,4.572-5.055,5.021-10.111c0.45-5.057-1.827-4.597-5.021-1.839
		c-3.194,2.758-4.62,7.814-2.589,11.95C375.282,242.76,373.251,245.059,377.871,242.76z"/>
	<path style="fill:#231815;" d="M324.5,304.351c-3.707,1.379-3.647,5.056-7.308,11.124c-3.662,6.068-7.371,7.721,0,6.924
		c0,0,8.256-2.88,10.554-5.939c2.299-3.06,2.759-5.214,2.759-8.272C330.505,305.129,328.207,302.972,324.5,304.351z"/>
	<path style="fill:#231815;" d="M340.797,298.836c0,0,6.564,3.806,8.357-3.218c1.792-7.022-2.102-6.435-5.812-6.891
		C339.633,288.269,337.399,298.376,340.797,298.836z"/>
	<path style="fill:#231815;" d="M278.643,127.868c-3.86-2.284-4.182,3.893,0,6.788c0,0,0.966-1.126,1.448-2.538
		C280.574,130.707,280.574,129.011,278.643,127.868z"/>
	<path style="fill:#231815;" d="M296.184,137.229c-4.653,0.644-3.065,4.503,0,5.147c0,0,1.438,2.251,4.333-1.786
		C303.411,136.553,300.839,136.586,296.184,137.229z"/>
	<path style="fill:#231815;" d="M281.903,107.35c0.287,0.171,0.579,0.375,0.937,0.533c0.382,0.119,0.775,0.305,1.214,0.335
		c1.805,0.242,3.481-0.64,4.557-1.632c0.524-0.422,1.581-1.221,2.465-2.135c0.897-0.893,1.581-1.953,1.741-2.308
		c0.302-0.749-0.252-1.054-1.697-1.473c-1.459-0.406-1.774-0.397-1.916-0.081c-0.087,0.158,0.049,0.808-0.196,1.722
		c-0.216,0.892-0.786,2.028-1.771,2.657c-0.269,0.137-0.885,0.583-1.68,0.733c-0.782,0.188-1.628-0.096-2.285-0.957
		c-0.298-0.382-0.373-1.283-0.363-2.167c0.016-0.879,0.117-1.754,0.264-2.521c0.29-1.543,0.749-2.638,1.049-2.802
		c0.402-0.242-0.554-0.983-1.505-1.743c-0.503-0.331-0.996-0.686-1.469-0.701c-0.488,0.001-0.938,0.368-1.019,1.06
		c-0.061,0.416-0.282,1.434-0.425,3.034c-0.074,0.805-0.134,1.758-0.115,2.91c0.015,0.58,0.038,1.2,0.142,1.922
		c0.043,0.353,0.125,0.745,0.234,1.181c0.162,0.504,0.368,1.018,0.692,1.474C281.064,106.637,281.379,106.993,281.903,107.35z"/>
	<path style="fill:#231815;" d="M346.222,110.461c-1.101-0.456-2.274-0.925-2.402,0.531c-0.018,0.356-0.178,1.275-0.127,2.608
		c0.082,1.313,0.33,3.148,1.626,4.901c0.643,0.857,1.573,1.619,2.633,2.052c1.068,0.443,2.158,0.577,3.24,0.476
		c1.085-0.088,2.17-0.458,3.04-1.035c0.881-0.57,1.53-1.317,2.046-2.052c0.411-0.556,1.276-1.617,1.954-2.698
		c0.693-1.074,1.248-2.121,1.387-2.445c0.264-0.654-0.259-0.984-1.665-1.532c-1.405-0.549-1.784-0.406-2.005,0.13
		c-0.229,0.475,0.302,3.446-1.407,5.315c-0.275,0.27-0.941,1.005-1.998,1.427c-1.007,0.388-2.683,0.357-3.751-0.436
		c-1.105-0.754-1.54-2.252-1.519-3.416c0.036-1.186,0.389-2.031,0.635-2.222C348.296,111.766,347.337,110.949,346.222,110.461z"/>
</g>
</svg>
